999

0
SECTION
2
HEADER
9
$ACADVER
1
AC1021
9
$HANDSEED
5
1cab
0
ENDSEC
0
SECTION
2
CLASSES
0
ENDSEC
0
SECTION
2
TABLES
0
TABLE
2
VPORT
5
1c7b
100
AcDbSymbolTable
70
1
0
VPORT
5
1c7a
100
AcDbSymbolTableRecord
100
AcDbViewportTableRecord
2
*ACTIVE
10
0
20
0
11
1
21
1
12
500.0
22
500.0
40
1000.0
70
0
0
ENDTAB
0
TABLE
2
LTYPE
5
1c7c
100
AcDbSymbolTable
70
3
0
LTYPE
5
1c84
100
AcDbSymbolTableRecord
100
AcDbLinetypeTableRecord
2
Solid
70
0
72
65
73
0
3

0
LTYPE
5
1c85
100
AcDbSymbolTableRecord
100
AcDbLinetypeTableRecord
2
ByBlock
70
0
72
65
73
0
3

0
LTYPE
5
1c86
100
AcDbSymbolTableRecord
100
AcDbLinetypeTableRecord
2
ByLayer
70
0
72
65
73
0
3

0
ENDTAB
0
TABLE
2
LAYER
5
1c7d
100
AcDbSymbolTable
70
5
0
LAYER
5
1c87
100
AcDbSymbolTableRecord
100
AcDbLayerTableRecord
2
0
70
0
390
0
0
LAYER
5
1c9f
100
AcDbSymbolTableRecord
100
AcDbLayerTableRecord
2
zone_0_q1
70
0
390
0
0
LAYER
5
1ca2
100
AcDbSymbolTableRecord
100
AcDbLayerTableRecord
2
zone_1_q1
70
0
390
0
0
LAYER
5
1ca5
100
AcDbSymbolTableRecord
100
AcDbLayerTableRecord
2
zone_2_q1
70
0
390
0
0
LAYER
5
1ca8
100
AcDbSymbolTableRecord
100
AcDbLayerTableRecord
2
zone_3_q1
70
0
390
0
0
ENDTAB
0
TABLE
2
STYLE
5
1c7e
100
AcDbSymbolTable
70
0
0
ENDTAB
0
TABLE
2
VIEW
5
1c7f
100
AcDbSymbolTable
70
0
0
ENDTAB
0
TABLE
2
UCS
5
1c80
100
AcDbSymbolTable
70
0
0
ENDTAB
0
TABLE
2
APPID
5
1c81
100
AcDbSymbolTable
70
1
0
APPID
5
1c88
100
AcDbSymbolTableRecord
100
AcDbRegAppTableRecord
2
ACAD
70
0
0
ENDTAB
0
TABLE
2
DIMSTYLE
5
1c82
100
AcDbSymbolTable
70
0
100
AcDbDimStyleTable
71
1
0
ENDTAB
0
TABLE
2
BLOCK_RECORD
5
1c83
100
AcDbSymbolTable
70
2
0
BLOCK_RECORD
5
1c89
100
AcDbSymbolTableRecord
100
AcDbBlockTableRecord
2
*Model_Space
70
0
280
1
281
0
0
BLOCK_RECORD
5
1c8a
100
AcDbSymbolTableRecord
100
AcDbBlockTableRecord
2
*Paper_Space
70
0
280
1
281
0
0
ENDTAB
0
ENDSEC
0
SECTION
2
BLOCKS
0
BLOCK
5
1c8b
100
AcDbEntity
100
AcDbBlockBegin
2
*Model_Space
70
0
10
0
20
0
30
0
3
*Model_Space
1

0
ENDBLK
5
1c8c
100
AcDbEntity
100
AcDbBlockEnd
0
BLOCK
5
1c8d
100
AcDbEntity
100
AcDbBlockBegin
2
*Paper_Space
70
0
10
0
20
0
30
0
3
*Paper_Space
1

0
ENDBLK
5
1c8e
100
AcDbEntity
100
AcDbBlockEnd
0
ENDSEC
0
SECTION
2
ENTITIES
0
LWPOLYLINE
5
1c91
100
AcDbEntity
100
AcDbPolyline
90
91
70
1
10
266.0
20
-3510.0
30
0.0
10
668.0
20
-3182.0
30
0.0
10
1195.0
20
-3087.0
30
0.0
10
1125.0
20
-2943.0
30
0.0
10
1299.0
20
-2761.0
30
0.0
10
1247.0
20
-2461.0
30
0.0
10
1327.0
20
-2271.0
30
0.0
10
1909.0
20
-1867.0
30
0.0
10
2151.0
20
-1862.0
30
0.0
10
2214.0
20
-1357.0
30
0.0
10
2643.0
20
-661.0
30
0.0
10
2862.0
20
-730.0
30
0.0
10
3380.0
20
-647.0
30
0.0
10
3917.0
20
-1247.0
30
0.0
10
4170.0
20
-1126.0
30
0.0
10
4528.0
20
-1100.0
30
0.0
10
5111.0
20
-1279.0
30
0.0
10
5715.0
20
-1121.0
30
0.0
10
6053.0
20
-1133.0
30
0.0
10
6191.0
20
-1262.0
30
0.0
10
6472.0
20
-1178.0
30
0.0
10
7156.0
20
-600.0
30
0.0
10
7518.0
20
-600.0
30
0.0
10
7726.0
20
-468.0
30
0.0
10
8190.0
20
-351.0
30
0.0
10
8521.0
20
-356.0
30
0.0
10
8970.0
20
-170.0
30
0.0
10
9288.0
20
-270.0
30
0.0
10
9522.0
20
-121.0
30
0.0
10
9630.0
20
-154.0
30
0.0
10
9800.0
20
0.0
30
0.0
10
10048.0
20
-115.0
30
0.0
10
9886.0
20
-616.0
30
0.0
10
9944.0
20
-1047.0
30
0.0
10
9812.0
20
-1463.0
30
0.0
10
9887.0
20
-2361.0
30
0.0
10
9497.0
20
-3656.0
30
0.0
10
9464.0
20
-4455.0
30
0.0
10
9564.0
20
-4758.0
30
0.0
10
9497.0
20
-4920.0
30
0.0
10
9724.0
20
-5388.0
30
0.0
10
9711.0
20
-6380.0
30
0.0
10
9627.0
20
-6519.0
30
0.0
10
10046.0
20
-7644.0
30
0.0
10
10055.0
20
-8018.0
30
0.0
10
10259.0
20
-8419.0
30
0.0
10
10245.0
20
-8748.0
30
0.0
10
9966.0
20
-8892.0
30
0.0
10
9518.0
20
-8537.0
30
0.0
10
9123.0
20
-8565.0
30
0.0
10
8943.0
20
-8465.0
30
0.0
10
8953.0
20
-8595.0
30
0.0
10
8745.0
20
-8598.0
30
0.0
10
8622.0
20
-8467.0
30
0.0
10
8384.0
20
-8430.0
30
0.0
10
8132.0
20
-8530.0
30
0.0
10
7790.0
20
-8472.0
30
0.0
10
7707.0
20
-8325.0
30
0.0
10
7335.0
20
-8194.0
30
0.0
10
7160.0
20
-7991.0
30
0.0
10
6300.0
20
-7776.0
30
0.0
10
5523.0
20
-7278.0
30
0.0
10
5221.0
20
-7340.0
30
0.0
10
5102.0
20
-7277.0
30
0.0
10
4618.0
20
-7665.0
30
0.0
10
4118.0
20
-7546.0
30
0.0
10
3383.0
20
-7850.0
30
0.0
10
3038.0
20
-7769.0
30
0.0
10
2573.0
20
-8033.0
30
0.0
10
2235.0
20
-7574.0
30
0.0
10
2392.0
20
-7234.0
30
0.0
10
2251.0
20
-7153.0
30
0.0
10
2138.0
20
-6952.0
30
0.0
10
1813.0
20
-6849.0
30
0.0
10
1411.0
20
-6910.0
30
0.0
10
1321.0
20
-6794.0
30
0.0
10
997.0
20
-6708.0
30
0.0
10
915.0
20
-6621.0
30
0.0
10
876.0
20
-6165.0
30
0.0
10
286.0
20
-5858.0
30
0.0
10
95.0
20
-5645.0
30
0.0
10
132.0
20
-5414.0
30
0.0
10
425.0
20
-5089.0
30
0.0
10
148.0
20
-5313.0
30
0.0
10
119.0
20
-5249.0
30
0.0
10
354.0
20
-4597.0
30
0.0
10
144.0
20
-4537.0
30
0.0
10
153.0
20
-4441.0
30
0.0
10
242.0
20
-4419.0
30
0.0
10
0.0
20
-3879.0
30
0.0
10
266.0
20
-3510.0
30
0.0
6
Solid
370
35
62
0
0
LWPOLYLINE
5
1c93
100
AcDbEntity
100
AcDbPolyline
90
4
70
1
10
9956.0
20
-229.0
30
0.0
10
9968.0
20
-286.0
30
0.0
10
9918.0
20
-294.0
30
0.0
10
9956.0
20
-229.0
30
0.0
6
Solid
370
35
62
0
0
LWPOLYLINE
5
1c95
100
AcDbEntity
100
AcDbPolyline
90
6
70
1
10
8530.0
20
-7278.0
30
0.0
10
8412.0
20
-7314.0
30
0.0
10
8355.0
20
-7300.0
30
0.0
10
8358.0
20
-7205.0
30
0.0
10
8498.0
20
-7226.0
30
0.0
10
8530.0
20
-7278.0
30
0.0
6
Solid
370
35
62
0
0
LWPOLYLINE
5
1c97
100
AcDbEntity
100
AcDbPolyline
90
6
70
1
10
9986.0
20
-7983.0
30
0.0
10
9919.0
20
-8143.0
30
0.0
10
9867.0
20
-8107.0
30
0.0
10
9848.0
20
-8028.0
30
0.0
10
9935.0
20
-7936.0
30
0.0
10
9986.0
20
-7983.0
30
0.0
6
Solid
370
35
62
0
0
LWPOLYLINE
5
1c99
100
AcDbEntity
100
AcDbPolyline
90
4
70
1
10
9625.0
20
-1762.0
30
0.0
10
9670.0
20
-1870.0
30
0.0
10
9535.0
20
-1850.0
30
0.0
10
9625.0
20
-1762.0
30
0.0
6
Solid
370
35
62
0
0
LWPOLYLINE
5
1c9b
100
AcDbEntity
100
AcDbPolyline
90
5
70
1
10
6668.0
20
-1300.0
30
0.0
10
6572.0
20
-1257.0
30
0.0
10
6607.0
20
-1216.0
30
0.0
10
6713.0
20
-1240.0
30
0.0
10
6668.0
20
-1300.0
30
0.0
6
Solid
370
35
62
0
0
LWPOLYLINE
5
1c9d
100
AcDbEntity
100
AcDbPolyline
90
5
70
1
10
3093.0
20
-3675.0
30
0.0
10
2995.0
20
-3680.0
30
0.0
10
2996.0
20
-3574.0
30
0.0
10
3097.0
20
-3586.0
30
0.0
10
3093.0
20
-3675.0
30
0.0
6
Solid
370
35
62
0
0
LWPOLYLINE
5
1ca0
100
AcDbEntity
8
zone_0_q1
100
AcDbPolyline
90
5
70
1
10
8428.0
20
-8382.0
30
0.0
10
7748.0
20
-8272.0
30
0.0
10
7866.0
20
-7609.0
30
0.0
10
8498.0
20
-7785.0
30
0.0
10
8428.0
20
-8382.0
30
0.0
6
Solid
370
35
62
40
0
LWPOLYLINE
5
1ca3
100
AcDbEntity
8
zone_1_q1
100
AcDbPolyline
90
5
70
1
10
3767.0
20
-6948.0
30
0.0
10
3737.0
20
-7667.0
30
0.0
10
3178.0
20
-7668.0
30
0.0
10
3192.0
20
-6996.0
30
0.0
10
3767.0
20
-6948.0
30
0.0
6
Solid
370
35
62
40
0
LWPOLYLINE
5
1ca6
100
AcDbEntity
8
zone_2_q1
100
AcDbPolyline
90
5
70
1
10
8682.0
20
-493.0
30
0.0
10
8810.0
20
-1230.0
30
0.0
10
8081.0
20
-1307.0
30
0.0
10
8044.0
20
-567.0
30
0.0
10
8682.0
20
-493.0
30
0.0
6
Solid
370
35
62
40
0
LWPOLYLINE
5
1ca9
100
AcDbEntity
8
zone_3_q1
100
AcDbPolyline
90
5
70
1
10
3633.0
20
-1452.0
30
0.0
10
3204.0
20
-1515.0
30
0.0
10
3076.0
20
-929.0
30
0.0
10
3519.0
20
-827.0
30
0.0
10
3633.0
20
-1452.0
30
0.0
6
Solid
370
35
62
40
0
ENDSEC
0
SECTION
2
OBJECTS
0
DICTIONARY
5
1c8f
330
0
100
AcDbDictionary
281
1
3
ACAD_GROUP
350
1c90
0
DICTIONARY
5
1c90
330
1c8f
100
AcDbDictionary
281
1
0
ENDSEC
0
EOF
