999

0
SECTION
2
HEADER
9
$ACADVER
1
AC1021
9
$HANDSEED
5
1d21
0
ENDSEC
0
SECTION
2
CLASSES
0
ENDSEC
0
SECTION
2
TABLES
0
TABLE
2
VPORT
5
1ce5
100
AcDbSymbolTable
70
1
0
VPORT
5
1ce4
100
AcDbSymbolTableRecord
100
AcDbViewportTableRecord
2
*ACTIVE
10
0
20
0
11
1
21
1
12
500.0
22
500.0
40
1000.0
70
0
0
ENDTAB
0
TABLE
2
LTYPE
5
1ce6
100
AcDbSymbolTable
70
3
0
LTYPE
5
1cee
100
AcDbSymbolTableRecord
100
AcDbLinetypeTableRecord
2
Solid
70
0
72
65
73
0
3

0
LTYPE
5
1cef
100
AcDbSymbolTableRecord
100
AcDbLinetypeTableRecord
2
ByBlock
70
0
72
65
73
0
3

0
LTYPE
5
1cf0
100
AcDbSymbolTableRecord
100
AcDbLinetypeTableRecord
2
ByLayer
70
0
72
65
73
0
3

0
ENDTAB
0
TABLE
2
LAYER
5
1ce7
100
AcDbSymbolTable
70
5
0
LAYER
5
1cf1
100
AcDbSymbolTableRecord
100
AcDbLayerTableRecord
2
0
70
0
390
0
0
LAYER
5
1d15
100
AcDbSymbolTableRecord
100
AcDbLayerTableRecord
2
zone_0_q1
70
0
390
0
0
LAYER
5
1d18
100
AcDbSymbolTableRecord
100
AcDbLayerTableRecord
2
zone_1_q1
70
0
390
0
0
LAYER
5
1d1b
100
AcDbSymbolTableRecord
100
AcDbLayerTableRecord
2
zone_2_q1
70
0
390
0
0
LAYER
5
1d1e
100
AcDbSymbolTableRecord
100
AcDbLayerTableRecord
2
zone_3_q1
70
0
390
0
0
ENDTAB
0
TABLE
2
STYLE
5
1ce8
100
AcDbSymbolTable
70
0
0
ENDTAB
0
TABLE
2
VIEW
5
1ce9
100
AcDbSymbolTable
70
0
0
ENDTAB
0
TABLE
2
UCS
5
1cea
100
AcDbSymbolTable
70
0
0
ENDTAB
0
TABLE
2
APPID
5
1ceb
100
AcDbSymbolTable
70
1
0
APPID
5
1cf2
100
AcDbSymbolTableRecord
100
AcDbRegAppTableRecord
2
ACAD
70
0
0
ENDTAB
0
TABLE
2
DIMSTYLE
5
1cec
100
AcDbSymbolTable
70
0
100
AcDbDimStyleTable
71
1
0
ENDTAB
0
TABLE
2
BLOCK_RECORD
5
1ced
100
AcDbSymbolTable
70
2
0
BLOCK_RECORD
5
1cf3
100
AcDbSymbolTableRecord
100
AcDbBlockTableRecord
2
*Model_Space
70
0
280
1
281
0
0
BLOCK_RECORD
5
1cf4
100
AcDbSymbolTableRecord
100
AcDbBlockTableRecord
2
*Paper_Space
70
0
280
1
281
0
0
ENDTAB
0
ENDSEC
0
SECTION
2
BLOCKS
0
BLOCK
5
1cf5
100
AcDbEntity
100
AcDbBlockBegin
2
*Model_Space
70
0
10
0
20
0
30
0
3
*Model_Space
1

0
ENDBLK
5
1cf6
100
AcDbEntity
100
AcDbBlockEnd
0
BLOCK
5
1cf7
100
AcDbEntity
100
AcDbBlockBegin
2
*Paper_Space
70
0
10
0
20
0
30
0
3
*Paper_Space
1

0
ENDBLK
5
1cf8
100
AcDbEntity
100
AcDbBlockEnd
0
ENDSEC
0
SECTION
2
ENTITIES
0
LWPOLYLINE
5
1cfb
100
AcDbEntity
100
AcDbPolyline
90
68
70
1
10
835.0
20
-379.0
30
0.0
10
1091.0
20
-571.0
30
0.0
10
2362.0
20
-557.0
30
0.0
10
2496.0
20
-753.0
30
0.0
10
3228.0
20
-788.0
30
0.0
10
3600.0
20
-1039.0
30
0.0
10
4370.0
20
-1048.0
30
0.0
10
4881.0
20
-804.0
30
0.0
10
5487.0
20
-790.0
30
0.0
10
5964.0
20
-264.0
30
0.0
10
6080.0
20
-226.0
30
0.0
10
6062.0
20
-61.0
30
0.0
10
6178.0
20
0.0
30
0.0
10
7087.0
20
-865.0
30
0.0
10
7070.0
20
-988.0
30
0.0
10
7733.0
20
-808.0
30
0.0
10
8194.0
20
-1615.0
30
0.0
10
8226.0
20
-1914.0
30
0.0
10
7814.0
20
-2252.0
30
0.0
10
7793.0
20
-2456.0
30
0.0
10
6847.0
20
-3291.0
30
0.0
10
6710.0
20
-3635.0
30
0.0
10
6676.0
20
-4162.0
30
0.0
10
6919.0
20
-4644.0
30
0.0
10
7903.0
20
-5598.0
30
0.0
10
7818.0
20
-5968.0
30
0.0
10
7948.0
20
-6514.0
30
0.0
10
7770.0
20
-6721.0
30
0.0
10
7687.0
20
-6996.0
30
0.0
10
7743.0
20
-7052.0
30
0.0
10
7675.0
20
-7307.0
30
0.0
10
7782.0
20
-7606.0
30
0.0
10
7765.0
20
-7822.0
30
0.0
10
7533.0
20
-7939.0
30
0.0
10
7046.0
20
-7835.0
30
0.0
10
6739.0
20
-7607.0
30
0.0
10
6124.0
20
-7680.0
30
0.0
10
5193.0
20
-7476.0
30
0.0
10
4892.0
20
-7521.0
30
0.0
10
4786.0
20
-7637.0
30
0.0
10
4276.0
20
-7642.0
30
0.0
10
3709.0
20
-7792.0
30
0.0
10
3679.0
20
-7902.0
30
0.0
10
3339.0
20
-8210.0
30
0.0
10
2844.0
20
-8210.0
30
0.0
10
2491.0
20
-8311.0
30
0.0
10
2289.0
20
-8238.0
30
0.0
10
2175.0
20
-7977.0
30
0.0
10
1863.0
20
-7923.0
30
0.0
10
1429.0
20
-8058.0
30
0.0
10
401.0
20
-8774.0
30
0.0
10
271.0
20
-8667.0
30
0.0
10
21.0
20
-8353.0
30
0.0
10
9.0
20
-8195.0
30
0.0
10
518.0
20
-7114.0
30
0.0
10
735.0
20
-6033.0
30
0.0
10
372.0
20
-4552.0
30
0.0
10
16.0
20
-4271.0
30
0.0
10
94.0
20
-3683.0
30
0.0
10
235.0
20
-3331.0
30
0.0
10
111.0
20
-2914.0
30
0.0
10
13.0
20
-2814.0
30
0.0
10
40.0
20
-2598.0
30
0.0
10
310.0
20
-2261.0
30
0.0
10
585.0
20
-1511.0
30
0.0
10
486.0
20
-1088.0
30
0.0
10
220.0
20
-764.0
30
0.0
10
835.0
20
-379.0
30
0.0
6
Solid
370
35
62
0
0
LWPOLYLINE
5
1cfd
100
AcDbEntity
100
AcDbPolyline
90
4
70
1
10
6195.0
20
-6523.0
30
0.0
10
6215.0
20
-6611.0
30
0.0
10
6136.0
20
-6592.0
30
0.0
10
6195.0
20
-6523.0
30
0.0
6
Solid
370
35
62
0
0
LWPOLYLINE
5
1cff
100
AcDbEntity
100
AcDbPolyline
90
4
70
1
10
6264.0
20
-6267.0
30
0.0
10
6284.0
20
-6356.0
30
0.0
10
6195.0
20
-6326.0
30
0.0
10
6264.0
20
-6267.0
30
0.0
6
Solid
370
35
62
0
0
LWPOLYLINE
5
1d01
100
AcDbEntity
100
AcDbPolyline
90
8
70
1
10
6166.0
20
-809.0
30
0.0
10
6188.0
20
-866.0
30
0.0
10
6166.0
20
-914.0
30
0.0
10
6114.0
20
-934.0
30
0.0
10
6059.0
20
-907.0
30
0.0
10
6044.0
20
-852.0
30
0.0
10
6116.0
20
-789.0
30
0.0
10
6166.0
20
-809.0
30
0.0
6
Solid
370
35
62
0
0
LWPOLYLINE
5
1d03
100
AcDbEntity
100
AcDbPolyline
90
9
70
1
10
4539.0
20
-1095.0
30
0.0
10
4546.0
20
-1329.0
30
0.0
10
4378.0
20
-1403.0
30
0.0
10
3976.0
20
-1466.0
30
0.0
10
3842.0
20
-1373.0
30
0.0
10
3768.0
20
-1067.0
30
0.0
10
4074.0
20
-1072.0
30
0.0
10
4500.0
20
-1013.0
30
0.0
10
4539.0
20
-1095.0
30
0.0
6
Solid
370
35
62
0
0
LWPOLYLINE
5
1d05
100
AcDbEntity
100
AcDbPolyline
90
9
70
1
10
390.0
20
-2014.0
30
0.0
10
521.0
20
-1921.0
30
0.0
10
682.0
20
-2131.0
30
0.0
10
662.0
20
-2286.0
30
0.0
10
509.0
20
-2479.0
30
0.0
10
311.0
20
-2584.0
30
0.0
10
115.0
20
-2578.0
30
0.0
10
365.0
20
-2255.0
30
0.0
10
390.0
20
-2014.0
30
0.0
6
Solid
370
35
62
0
0
LWPOLYLINE
5
1d07
100
AcDbEntity
100
AcDbPolyline
90
14
70
1
10
2369.0
20
-7899.0
30
0.0
10
2453.0
20
-7662.0
30
0.0
10
2660.0
20
-7394.0
30
0.0
10
2808.0
20
-7296.0
30
0.0
10
3138.0
20
-7198.0
30
0.0
10
3390.0
20
-7240.0
30
0.0
10
3618.0
20
-7422.0
30
0.0
10
3855.0
20
-7719.0
30
0.0
10
3693.0
20
-7755.0
30
0.0
10
3282.0
20
-8203.0
30
0.0
10
2819.0
20
-8193.0
30
0.0
10
2591.0
20
-8289.0
30
0.0
10
2241.0
20
-8076.0
30
0.0
10
2369.0
20
-7899.0
30
0.0
6
Solid
370
35
62
0
0
LWPOLYLINE
5
1d09
100
AcDbEntity
100
AcDbPolyline
90
4
70
1
10
6419.0
20
-6640.0
30
0.0
10
6358.0
20
-6510.0
30
0.0
10
6405.0
20
-6569.0
30
0.0
10
6419.0
20
-6640.0
30
0.0
6
Solid
370
35
62
0
0
LWPOLYLINE
5
1d0b
100
AcDbEntity
100
AcDbPolyline
90
9
70
1
10
8011.0
20
-1379.0
30
0.0
10
7928.0
20
-1480.0
30
0.0
10
7770.0
20
-1543.0
30
0.0
10
7613.0
20
-1541.0
30
0.0
10
7591.0
20
-1474.0
30
0.0
10
7629.0
20
-1370.0
30
0.0
10
7905.0
20
-1207.0
30
0.0
10
7924.0
20
-1227.0
30
0.0
10
8011.0
20
-1379.0
30
0.0
6
Solid
370
35
62
0
0
LWPOLYLINE
5
1d0d
100
AcDbEntity
100
AcDbPolyline
90
5
70
1
10
6477.0
20
-2079.0
30
0.0
10
6453.0
20
-2137.0
30
0.0
10
6389.0
20
-2124.0
30
0.0
10
6400.0
20
-2059.0
30
0.0
10
6477.0
20
-2079.0
30
0.0
6
Solid
370
35
62
0
0
LWPOLYLINE
5
1d0f
100
AcDbEntity
100
AcDbPolyline
90
4
70
1
10
4418.0
20
-4137.0
30
0.0
10
4373.0
20
-4245.0
30
0.0
10
4342.0
20
-4138.0
30
0.0
10
4418.0
20
-4137.0
30
0.0
6
Solid
370
35
62
0
0
LWPOLYLINE
5
1d11
100
AcDbEntity
100
AcDbPolyline
90
5
70
1
10
2209.0
20
-5163.0
30
0.0
10
2142.0
20
-5158.0
30
0.0
10
2133.0
20
-5064.0
30
0.0
10
2215.0
20
-5073.0
30
0.0
10
2209.0
20
-5163.0
30
0.0
6
Solid
370
35
62
0
0
LWPOLYLINE
5
1d13
100
AcDbEntity
100
AcDbPolyline
90
5
70
1
10
1894.0
20
-4593.0
30
0.0
10
1889.0
20
-4658.0
30
0.0
10
1824.0
20
-4660.0
30
0.0
10
1815.0
20
-4593.0
30
0.0
10
1894.0
20
-4593.0
30
0.0
6
Solid
370
35
62
0
0
LWPOLYLINE
5
1d16
100
AcDbEntity
8
zone_0_q1
100
AcDbPolyline
90
5
70
1
10
1345.0
20
-824.0
30
0.0
10
2017.0
20
-621.0
30
0.0
10
2136.0
20
-1434.0
30
0.0
10
1337.0
20
-1595.0
30
0.0
10
1345.0
20
-824.0
30
0.0
6
Solid
370
35
62
40
0
LWPOLYLINE
5
1d19
100
AcDbEntity
8
zone_1_q1
100
AcDbPolyline
90
6
70
1
10
2004.0
20
-7342.0
30
0.0
10
2062.0
20
-7882.0
30
0.0
10
1512.0
20
-7988.0
30
0.0
10
1310.0
20
-8073.0
30
0.0
10
1448.0
20
-7322.0
30
0.0
10
2004.0
20
-7342.0
30
0.0
6
Solid
370
35
62
40
0
LWPOLYLINE
5
1d1c
100
AcDbEntity
8
zone_2_q1
100
AcDbPolyline
90
5
70
1
10
6435.0
20
-6781.0
30
0.0
10
6550.0
20
-7559.0
30
0.0
10
5889.0
20
-7338.0
30
0.0
10
5724.0
20
-6821.0
30
0.0
10
6435.0
20
-6781.0
30
0.0
6
Solid
370
35
62
40
0
LWPOLYLINE
5
1d1f
100
AcDbEntity
8
zone_3_q1
100
AcDbPolyline
90
5
70
1
10
6612.0
20
-425.0
30
0.0
10
6739.0
20
-1153.0
30
0.0
10
6264.0
20
-1279.0
30
0.0
10
6065.0
20
-577.0
30
0.0
10
6612.0
20
-425.0
30
0.0
6
Solid
370
35
62
40
0
ENDSEC
0
SECTION
2
OBJECTS
0
DICTIONARY
5
1cf9
330
0
100
AcDbDictionary
281
1
3
ACAD_GROUP
350
1cfa
0
DICTIONARY
5
1cfa
330
1cf9
100
AcDbDictionary
281
1
0
ENDSEC
0
EOF
