999

0
SECTION
2
HEADER
9
$ACADVER
1
AC1021
9
$HANDSEED
5
1dc2
0
ENDSEC
0
SECTION
2
CLASSES
0
ENDSEC
0
SECTION
2
TABLES
0
TABLE
2
VPORT
5
1d90
100
AcDbSymbolTable
70
1
0
VPORT
5
1d8f
100
AcDbSymbolTableRecord
100
AcDbViewportTableRecord
2
*ACTIVE
10
0
20
0
11
1
21
1
12
500.0
22
500.0
40
1000.0
70
0
0
ENDTAB
0
TABLE
2
LTYPE
5
1d91
100
AcDbSymbolTable
70
3
0
LTYPE
5
1d99
100
AcDbSymbolTableRecord
100
AcDbLinetypeTableRecord
2
Solid
70
0
72
65
73
0
3

0
LTYPE
5
1d9a
100
AcDbSymbolTableRecord
100
AcDbLinetypeTableRecord
2
ByBlock
70
0
72
65
73
0
3

0
LTYPE
5
1d9b
100
AcDbSymbolTableRecord
100
AcDbLinetypeTableRecord
2
ByLayer
70
0
72
65
73
0
3

0
ENDTAB
0
TABLE
2
LAYER
5
1d92
100
AcDbSymbolTable
70
5
0
LAYER
5
1d9c
100
AcDbSymbolTableRecord
100
AcDbLayerTableRecord
2
0
70
0
390
0
0
LAYER
5
1db6
100
AcDbSymbolTableRecord
100
AcDbLayerTableRecord
2
zone_0_q1
70
0
390
0
0
LAYER
5
1db9
100
AcDbSymbolTableRecord
100
AcDbLayerTableRecord
2
zone_1_q1
70
0
390
0
0
LAYER
5
1dbc
100
AcDbSymbolTableRecord
100
AcDbLayerTableRecord
2
zone_2_q1
70
0
390
0
0
LAYER
5
1dbf
100
AcDbSymbolTableRecord
100
AcDbLayerTableRecord
2
zone_3_q1
70
0
390
0
0
ENDTAB
0
TABLE
2
STYLE
5
1d93
100
AcDbSymbolTable
70
0
0
ENDTAB
0
TABLE
2
VIEW
5
1d94
100
AcDbSymbolTable
70
0
0
ENDTAB
0
TABLE
2
UCS
5
1d95
100
AcDbSymbolTable
70
0
0
ENDTAB
0
TABLE
2
APPID
5
1d96
100
AcDbSymbolTable
70
1
0
APPID
5
1d9d
100
AcDbSymbolTableRecord
100
AcDbRegAppTableRecord
2
ACAD
70
0
0
ENDTAB
0
TABLE
2
DIMSTYLE
5
1d97
100
AcDbSymbolTable
70
0
100
AcDbDimStyleTable
71
1
0
ENDTAB
0
TABLE
2
BLOCK_RECORD
5
1d98
100
AcDbSymbolTable
70
2
0
BLOCK_RECORD
5
1d9e
100
AcDbSymbolTableRecord
100
AcDbBlockTableRecord
2
*Model_Space
70
0
280
1
281
0
0
BLOCK_RECORD
5
1d9f
100
AcDbSymbolTableRecord
100
AcDbBlockTableRecord
2
*Paper_Space
70
0
280
1
281
0
0
ENDTAB
0
ENDSEC
0
SECTION
2
BLOCKS
0
BLOCK
5
1da0
100
AcDbEntity
100
AcDbBlockBegin
2
*Model_Space
70
0
10
0
20
0
30
0
3
*Model_Space
1

0
ENDBLK
5
1da1
100
AcDbEntity
100
AcDbBlockEnd
0
BLOCK
5
1da2
100
AcDbEntity
100
AcDbBlockBegin
2
*Paper_Space
70
0
10
0
20
0
30
0
3
*Paper_Space
1

0
ENDBLK
5
1da3
100
AcDbEntity
100
AcDbBlockEnd
0
ENDSEC
0
SECTION
2
ENTITIES
0
LWPOLYLINE
5
1da6
100
AcDbEntity
100
AcDbPolyline
90
87
70
1
10
2972.0
20
-326.0
30
0.0
10
3194.0
20
-376.0
30
0.0
10
3491.0
20
-677.0
30
0.0
10
3775.0
20
-799.0
30
0.0
10
4129.0
20
-811.0
30
0.0
10
4583.0
20
-589.0
30
0.0
10
4902.0
20
-798.0
30
0.0
10
5183.0
20
-826.0
30
0.0
10
6025.0
20
-541.0
30
0.0
10
6790.0
20
-619.0
30
0.0
10
7283.0
20
-433.0
30
0.0
10
7735.0
20
-423.0
30
0.0
10
8418.0
20
0.0
30
0.0
10
8688.0
20
-152.0
30
0.0
10
9125.0
20
-97.0
30
0.0
10
9118.0
20
-203.0
30
0.0
10
9284.0
20
-300.0
30
0.0
10
9423.0
20
-648.0
30
0.0
10
9206.0
20
-1513.0
30
0.0
10
9163.0
20
-2428.0
30
0.0
10
9302.0
20
-3613.0
30
0.0
10
9521.0
20
-4009.0
30
0.0
10
9478.0
20
-4315.0
30
0.0
10
9563.0
20
-4739.0
30
0.0
10
9446.0
20
-5583.0
30
0.0
10
9579.0
20
-6411.0
30
0.0
10
9495.0
20
-6551.0
30
0.0
10
9600.0
20
-7392.0
30
0.0
10
9450.0
20
-8269.0
30
0.0
10
9599.0
20
-8482.0
30
0.0
10
9507.0
20
-8613.0
30
0.0
10
9426.0
20
-8565.0
30
0.0
10
9458.0
20
-8795.0
30
0.0
10
9400.0
20
-8848.0
30
0.0
10
9123.0
20
-8944.0
30
0.0
10
8349.0
20
-8845.0
30
0.0
10
8010.0
20
-8946.0
30
0.0
10
7558.0
20
-8901.0
30
0.0
10
7374.0
20
-8764.0
30
0.0
10
7156.0
20
-8726.0
30
0.0
10
6612.0
20
-8850.0
30
0.0
10
6175.0
20
-8544.0
30
0.0
10
5704.0
20
-8428.0
30
0.0
10
5513.0
20
-8304.0
30
0.0
10
5392.0
20
-8045.0
30
0.0
10
5019.0
20
-7924.0
30
0.0
10
4909.0
20
-8067.0
30
0.0
10
4622.0
20
-8024.0
30
0.0
10
4417.0
20
-8236.0
30
0.0
10
4316.0
20
-8638.0
30
0.0
10
3982.0
20
-8893.0
30
0.0
10
3606.0
20
-8961.0
30
0.0
10
3779.0
20
-8861.0
30
0.0
10
3254.0
20
-8704.0
30
0.0
10
3396.0
20
-8290.0
30
0.0
10
2740.0
20
-8710.0
30
0.0
10
2667.0
20
-8408.0
30
0.0
10
2312.0
20
-8114.0
30
0.0
10
2630.0
20
-7452.0
30
0.0
10
2669.0
20
-6786.0
30
0.0
10
2345.0
20
-6476.0
30
0.0
10
2013.0
20
-6558.0
30
0.0
10
1847.0
20
-6270.0
30
0.0
10
1559.0
20
-6147.0
30
0.0
10
1528.0
20
-5983.0
30
0.0
10
1422.0
20
-5967.0
30
0.0
10
1322.0
20
-6074.0
30
0.0
10
1095.0
20
-5919.0
30
0.0
10
851.0
20
-5878.0
30
0.0
10
591.0
20
-5513.0
30
0.0
10
711.0
20
-5264.0
30
0.0
10
652.0
20
-5027.0
30
0.0
10
76.0
20
-4645.0
30
0.0
10
137.0
20
-4555.0
30
0.0
10
0.0
20
-4408.0
30
0.0
10
163.0
20
-4182.0
30
0.0
10
282.0
20
-3575.0
30
0.0
10
391.0
20
-3551.0
30
0.0
10
554.0
20
-3319.0
30
0.0
10
1843.0
20
-2902.0
30
0.0
10
2041.0
20
-2465.0
30
0.0
10
2054.0
20
-2167.0
30
0.0
10
2451.0
20
-1679.0
30
0.0
10
2867.0
20
-1434.0
30
0.0
10
2747.0
20
-1150.0
30
0.0
10
2403.0
20
-792.0
30
0.0
10
2972.0
20
-326.0
30
0.0
6
Solid
370
35
62
0
0
LWPOLYLINE
5
1da8
100
AcDbEntity
100
AcDbPolyline
90
7
70
1
10
9067.0
20
-1397.0
30
0.0
10
9091.0
20
-1461.0
30
0.0
10
9033.0
20
-1535.0
30
0.0
10
8948.0
20
-1503.0
30
0.0
10
8940.0
20
-1419.0
30
0.0
10
9012.0
20
-1353.0
30
0.0
10
9067.0
20
-1397.0
30
0.0
6
Solid
370
35
62
0
0
LWPOLYLINE
5
1daa
100
AcDbEntity
100
AcDbPolyline
90
7
70
1
10
9176.0
20
-1185.0
30
0.0
10
9158.0
20
-1296.0
30
0.0
10
8941.0
20
-1204.0
30
0.0
10
8974.0
20
-993.0
30
0.0
10
9083.0
20
-890.0
30
0.0
10
9262.0
20
-953.0
30
0.0
10
9176.0
20
-1185.0
30
0.0
6
Solid
370
35
62
0
0
LWPOLYLINE
5
1dac
100
AcDbEntity
100
AcDbPolyline
90
5
70
1
10
1895.0
20
-4758.0
30
0.0
10
1927.0
20
-4847.0
30
0.0
10
1870.0
20
-4859.0
30
0.0
10
1839.0
20
-4802.0
30
0.0
10
1895.0
20
-4758.0
30
0.0
6
Solid
370
35
62
0
0
LWPOLYLINE
5
1dae
100
AcDbEntity
100
AcDbPolyline
90
6
70
1
10
2983.0
20
-2709.0
30
0.0
10
2945.0
20
-2751.0
30
0.0
10
2881.0
20
-2756.0
30
0.0
10
2906.0
20
-2668.0
30
0.0
10
3004.0
20
-2655.0
30
0.0
10
2983.0
20
-2709.0
30
0.0
6
Solid
370
35
62
0
0
LWPOLYLINE
5
1db0
100
AcDbEntity
100
AcDbPolyline
90
7
70
1
10
3749.0
20
-8248.0
30
0.0
10
3755.0
20
-8341.0
30
0.0
10
3672.0
20
-8577.0
30
0.0
10
3592.0
20
-8565.0
30
0.0
10
3554.0
20
-8465.0
30
0.0
10
3674.0
20
-8263.0
30
0.0
10
3749.0
20
-8248.0
30
0.0
6
Solid
370
35
62
0
0
LWPOLYLINE
5
1db2
100
AcDbEntity
100
AcDbPolyline
90
9
70
1
10
7461.0
20
-6861.0
30
0.0
10
7613.0
20
-7174.0
30
0.0
10
7450.0
20
-7538.0
30
0.0
10
7002.0
20
-7656.0
30
0.0
10
6653.0
20
-7553.0
30
0.0
10
6427.0
20
-7199.0
30
0.0
10
6588.0
20
-6753.0
30
0.0
10
7060.0
20
-6729.0
30
0.0
10
7461.0
20
-6861.0
30
0.0
6
Solid
370
35
62
0
0
LWPOLYLINE
5
1db4
100
AcDbEntity
100
AcDbPolyline
90
18
70
1
10
7779.0
20
-1288.0
30
0.0
10
7941.0
20
-1283.0
30
0.0
10
8161.0
20
-1353.0
30
0.0
10
8306.0
20
-1459.0
30
0.0
10
8355.0
20
-1586.0
30
0.0
10
8301.0
20
-1725.0
30
0.0
10
8194.0
20
-1860.0
30
0.0
10
8205.0
20
-1940.0
30
0.0
10
8140.0
20
-1996.0
30
0.0
10
7857.0
20
-2023.0
30
0.0
10
7564.0
20
-1976.0
30
0.0
10
7320.0
20
-1903.0
30
0.0
10
7230.0
20
-1830.0
30
0.0
10
7161.0
20
-1622.0
30
0.0
10
7181.0
20
-1492.0
30
0.0
10
7394.0
20
-1363.0
30
0.0
10
7652.0
20
-1320.0
30
0.0
10
7779.0
20
-1288.0
30
0.0
6
Solid
370
35
62
0
0
LWPOLYLINE
5
1db7
100
AcDbEntity
8
zone_0_q1
100
AcDbPolyline
90
5
70
1
10
8327.0
20
-8645.0
30
0.0
10
7571.0
20
-8743.0
30
0.0
10
7553.0
20
-7845.0
30
0.0
10
8342.0
20
-7747.0
30
0.0
10
8327.0
20
-8645.0
30
0.0
6
Solid
370
35
62
40
0
LWPOLYLINE
5
1dba
100
AcDbEntity
8
zone_1_q1
100
AcDbPolyline
90
5
70
1
10
3705.0
20
-7326.0
30
0.0
10
4395.0
20
-7358.0
30
0.0
10
4359.0
20
-7999.0
30
0.0
10
3746.0
20
-7997.0
30
0.0
10
3705.0
20
-7326.0
30
0.0
6
Solid
370
35
62
40
0
LWPOLYLINE
5
1dbd
100
AcDbEntity
8
zone_2_q1
100
AcDbPolyline
90
5
70
1
10
8213.0
20
-326.0
30
0.0
10
8950.0
20
-390.0
30
0.0
10
8838.0
20
-1189.0
30
0.0
10
8099.0
20
-1187.0
30
0.0
10
8213.0
20
-326.0
30
0.0
6
Solid
370
35
62
40
0
LWPOLYLINE
5
1dc0
100
AcDbEntity
8
zone_3_q1
100
AcDbPolyline
90
5
70
1
10
5027.0
20
-975.0
30
0.0
10
5090.0
20
-1952.0
30
0.0
10
4118.0
20
-1884.0
30
0.0
10
4111.0
20
-998.0
30
0.0
10
5027.0
20
-975.0
30
0.0
6
Solid
370
35
62
40
0
ENDSEC
0
SECTION
2
OBJECTS
0
DICTIONARY
5
1da4
330
0
100
AcDbDictionary
281
1
3
ACAD_GROUP
350
1da5
0
DICTIONARY
5
1da5
330
1da4
100
AcDbDictionary
281
1
0
ENDSEC
0
EOF
