999

0
SECTION
2
HEADER
9
$ACADVER
1
AC1021
9
$HANDSEED
5
1df4
0
ENDSEC
0
SECTION
2
CLASSES
0
ENDSEC
0
SECTION
2
TABLES
0
TABLE
2
VPORT
5
1dc3
100
AcDbSymbolTable
70
1
0
VPORT
5
1dc2
100
AcDbSymbolTableRecord
100
AcDbViewportTableRecord
2
*ACTIVE
10
0
20
0
11
1
21
1
12
500.0
22
500.0
40
1000.0
70
0
0
ENDTAB
0
TABLE
2
LTYPE
5
1dc4
100
AcDbSymbolTable
70
3
0
LTYPE
5
1dcc
100
AcDbSymbolTableRecord
100
AcDbLinetypeTableRecord
2
Solid
70
0
72
65
73
0
3

0
LTYPE
5
1dcd
100
AcDbSymbolTableRecord
100
AcDbLinetypeTableRecord
2
ByBlock
70
0
72
65
73
0
3

0
LTYPE
5
1dce
100
AcDbSymbolTableRecord
100
AcDbLinetypeTableRecord
2
ByLayer
70
0
72
65
73
0
3

0
ENDTAB
0
TABLE
2
LAYER
5
1dc5
100
AcDbSymbolTable
70
6
0
LAYER
5
1dcf
100
AcDbSymbolTableRecord
100
AcDbLayerTableRecord
2
0
70
0
390
0
0
LAYER
5
1de5
100
AcDbSymbolTableRecord
100
AcDbLayerTableRecord
2
zone_0_q1
70
0
390
0
0
LAYER
5
1de8
100
AcDbSymbolTableRecord
100
AcDbLayerTableRecord
2
zone_1_q1
70
0
390
0
0
LAYER
5
1deb
100
AcDbSymbolTableRecord
100
AcDbLayerTableRecord
2
zone_2_q1
70
0
390
0
0
LAYER
5
1dee
100
AcDbSymbolTableRecord
100
AcDbLayerTableRecord
2
zone_3_q1
70
0
390
0
0
LAYER
5
1df1
100
AcDbSymbolTableRecord
100
AcDbLayerTableRecord
2
zone_4_q2
70
0
390
0
0
ENDTAB
0
TABLE
2
STYLE
5
1dc6
100
AcDbSymbolTable
70
0
0
ENDTAB
0
TABLE
2
VIEW
5
1dc7
100
AcDbSymbolTable
70
0
0
ENDTAB
0
TABLE
2
UCS
5
1dc8
100
AcDbSymbolTable
70
0
0
ENDTAB
0
TABLE
2
APPID
5
1dc9
100
AcDbSymbolTable
70
1
0
APPID
5
1dd0
100
AcDbSymbolTableRecord
100
AcDbRegAppTableRecord
2
ACAD
70
0
0
ENDTAB
0
TABLE
2
DIMSTYLE
5
1dca
100
AcDbSymbolTable
70
0
100
AcDbDimStyleTable
71
1
0
ENDTAB
0
TABLE
2
BLOCK_RECORD
5
1dcb
100
AcDbSymbolTable
70
2
0
BLOCK_RECORD
5
1dd1
100
AcDbSymbolTableRecord
100
AcDbBlockTableRecord
2
*Model_Space
70
0
280
1
281
0
0
BLOCK_RECORD
5
1dd2
100
AcDbSymbolTableRecord
100
AcDbBlockTableRecord
2
*Paper_Space
70
0
280
1
281
0
0
ENDTAB
0
ENDSEC
0
SECTION
2
BLOCKS
0
BLOCK
5
1dd3
100
AcDbEntity
100
AcDbBlockBegin
2
*Model_Space
70
0
10
0
20
0
30
0
3
*Model_Space
1

0
ENDBLK
5
1dd4
100
AcDbEntity
100
AcDbBlockEnd
0
BLOCK
5
1dd5
100
AcDbEntity
100
AcDbBlockBegin
2
*Paper_Space
70
0
10
0
20
0
30
0
3
*Paper_Space
1

0
ENDBLK
5
1dd6
100
AcDbEntity
100
AcDbBlockEnd
0
ENDSEC
0
SECTION
2
ENTITIES
0
LWPOLYLINE
5
1dd9
100
AcDbEntity
100
AcDbPolyline
90
81
70
1
10
838.0
20
-3458.0
30
0.0
10
1190.0
20
-3164.0
30
0.0
10
1438.0
20
-3203.0
30
0.0
10
1665.0
20
-2894.0
30
0.0
10
1728.0
20
-2359.0
30
0.0
10
1930.0
20
-2248.0
30
0.0
10
2405.0
20
-2187.0
30
0.0
10
2344.0
20
-1895.0
30
0.0
10
1929.0
20
-1466.0
30
0.0
10
2218.0
20
-1186.0
30
0.0
10
2502.0
20
-694.0
30
0.0
10
2826.0
20
-756.0
30
0.0
10
3237.0
20
-1027.0
30
0.0
10
3730.0
20
-996.0
30
0.0
10
4215.0
20
-1362.0
30
0.0
10
4682.0
20
-1287.0
30
0.0
10
5128.0
20
-1484.0
30
0.0
10
5452.0
20
-1503.0
30
0.0
10
6435.0
20
-1110.0
30
0.0
10
6791.0
20
-1145.0
30
0.0
10
7045.0
20
-1056.0
30
0.0
10
7423.0
20
-721.0
30
0.0
10
8241.0
20
-768.0
30
0.0
10
8605.0
20
-552.0
30
0.0
10
8919.0
20
-86.0
30
0.0
10
9072.0
20
0.0
30
0.0
10
9240.0
20
-59.0
30
0.0
10
9259.0
20
-216.0
30
0.0
10
9479.0
20
-463.0
30
0.0
10
9829.0
20
-679.0
30
0.0
10
9704.0
20
-768.0
30
0.0
10
9794.0
20
-966.0
30
0.0
10
9645.0
20
-1162.0
30
0.0
10
9595.0
20
-1732.0
30
0.0
10
9774.0
20
-2230.0
30
0.0
10
9742.0
20
-2693.0
30
0.0
10
9870.0
20
-3026.0
30
0.0
10
9846.0
20
-3332.0
30
0.0
10
9647.0
20
-3632.0
30
0.0
10
9630.0
20
-4006.0
30
0.0
10
9495.0
20
-4453.0
30
0.0
10
9616.0
20
-5173.0
30
0.0
10
10171.0
20
-6247.0
30
0.0
10
10053.0
20
-6711.0
30
0.0
10
10170.0
20
-6942.0
30
0.0
10
10099.0
20
-7884.0
30
0.0
10
10264.0
20
-8394.0
30
0.0
10
10426.0
20
-8628.0
30
0.0
10
10263.0
20
-8886.0
30
0.0
10
9957.0
20
-8961.0
30
0.0
10
9437.0
20
-8713.0
30
0.0
10
9125.0
20
-8908.0
30
0.0
10
8727.0
20
-8699.0
30
0.0
10
8139.0
20
-8799.0
30
0.0
10
7599.0
20
-8512.0
30
0.0
10
7292.0
20
-8178.0
30
0.0
10
7190.0
20
-8170.0
30
0.0
10
7136.0
20
-8251.0
30
0.0
10
5988.0
20
-7628.0
30
0.0
10
4988.0
20
-7641.0
30
0.0
10
4476.0
20
-7840.0
30
0.0
10
4310.0
20
-7799.0
30
0.0
10
4377.0
20
-7629.0
30
0.0
10
4152.0
20
-7815.0
30
0.0
10
4031.0
20
-8313.0
30
0.0
10
3208.0
20
-8424.0
30
0.0
10
3131.0
20
-8288.0
30
0.0
10
2743.0
20
-8063.0
30
0.0
10
2853.0
20
-7406.0
30
0.0
10
2778.0
20
-7234.0
30
0.0
10
2611.0
20
-7112.0
30
0.0
10
2317.0
20
-7167.0
30
0.0
10
2110.0
20
-6710.0
30
0.0
10
1891.0
20
-6437.0
30
0.0
10
1392.0
20
-6294.0
30
0.0
10
1182.0
20
-6067.0
30
0.0
10
445.0
20
-5771.0
30
0.0
10
0.0
20
-4432.0
30
0.0
10
137.0
20
-4150.0
30
0.0
10
164.0
20
-3632.0
30
0.0
10
838.0
20
-3458.0
30
0.0
6
Solid
370
35
62
0
0
LWPOLYLINE
5
1ddb
100
AcDbEntity
100
AcDbPolyline
90
6
70
1
10
9648.0
20
-671.0
30
0.0
10
9602.0
20
-722.0
30
0.0
10
9551.0
20
-703.0
30
0.0
10
9550.0
20
-636.0
30
0.0
10
9642.0
20
-618.0
30
0.0
10
9648.0
20
-671.0
30
0.0
6
Solid
370
35
62
0
0
LWPOLYLINE
5
1ddd
100
AcDbEntity
100
AcDbPolyline
90
5
70
1
10
9670.0
20
-8530.0
30
0.0
10
9582.0
20
-8539.0
30
0.0
10
9580.0
20
-8470.0
30
0.0
10
9655.0
20
-8436.0
30
0.0
10
9670.0
20
-8530.0
30
0.0
6
Solid
370
35
62
0
0
LWPOLYLINE
5
1ddf
100
AcDbEntity
100
AcDbPolyline
90
5
70
1
10
7806.0
20
-5529.0
30
0.0
10
7833.0
20
-5586.0
30
0.0
10
7740.0
20
-5595.0
30
0.0
10
7742.0
20
-5547.0
30
0.0
10
7806.0
20
-5529.0
30
0.0
6
Solid
370
35
62
0
0
LWPOLYLINE
5
1de1
100
AcDbEntity
100
AcDbPolyline
90
5
70
1
10
9532.0
20
-5503.0
30
0.0
10
9550.0
20
-5558.0
30
0.0
10
9444.0
20
-5599.0
30
0.0
10
9462.0
20
-5525.0
30
0.0
10
9532.0
20
-5503.0
30
0.0
6
Solid
370
35
62
0
0
LWPOLYLINE
5
1de3
100
AcDbEntity
100
AcDbPolyline
90
8
70
1
10
2149.0
20
-3100.0
30
0.0
10
2325.0
20
-3005.0
30
0.0
10
2553.0
20
-3021.0
30
0.0
10
2643.0
20
-3260.0
30
0.0
10
2499.0
20
-3444.0
30
0.0
10
2241.0
20
-3491.0
30
0.0
10
2032.0
20
-3338.0
30
0.0
10
2149.0
20
-3100.0
30
0.0
6
Solid
370
35
62
0
0
LWPOLYLINE
5
1de6
100
AcDbEntity
8
zone_0_q1
100
AcDbPolyline
90
6
70
1
10
4061.0
20
-7905.0
30
0.0
10
3413.0
20
-8080.0
30
0.0
10
3349.0
20
-7099.0
30
0.0
10
4123.0
20
-7116.0
30
0.0
10
4096.0
20
-7949.0
30
0.0
10
4061.0
20
-7905.0
30
0.0
6
Solid
370
35
62
40
0
LWPOLYLINE
5
1de9
100
AcDbEntity
8
zone_1_q1
100
AcDbPolyline
90
5
70
1
10
7863.0
20
-8471.0
30
0.0
10
7767.0
20
-7578.0
30
0.0
10
8610.0
20
-7652.0
30
0.0
10
8702.0
20
-8538.0
30
0.0
10
7863.0
20
-8471.0
30
0.0
6
Solid
370
35
62
40
0
LWPOLYLINE
5
1dec
100
AcDbEntity
8
zone_2_q1
100
AcDbPolyline
90
5
70
1
10
8384.0
20
-866.0
30
0.0
10
8405.0
20
-1750.0
30
0.0
10
7551.0
20
-1930.0
30
0.0
10
7560.0
20
-1064.0
30
0.0
10
8384.0
20
-866.0
30
0.0
6
Solid
370
35
62
40
0
LWPOLYLINE
5
1def
100
AcDbEntity
8
zone_3_q1
100
AcDbPolyline
90
5
70
1
10
2958.0
20
-1200.0
30
0.0
10
3781.0
20
-1133.0
30
0.0
10
3876.0
20
-2058.0
30
0.0
10
2852.0
20
-2114.0
30
0.0
10
2958.0
20
-1200.0
30
0.0
6
Solid
370
35
62
40
0
LWPOLYLINE
5
1df2
100
AcDbEntity
8
zone_4_q2
100
AcDbPolyline
90
7
70
1
10
3247.0
20
-1642.0
30
0.0
10
3240.0
20
-1721.0
30
0.0
10
3145.0
20
-1743.0
30
0.0
10
3100.0
20
-1697.0
30
0.0
10
3098.0
20
-1626.0
30
0.0
10
3174.0
20
-1599.0
30
0.0
10
3247.0
20
-1642.0
30
0.0
6
Solid
370
35
62
2
0
ENDSEC
0
SECTION
2
OBJECTS
0
DICTIONARY
5
1dd7
330
0
100
AcDbDictionary
281
1
3
ACAD_GROUP
350
1dd8
0
DICTIONARY
5
1dd8
330
1dd7
100
AcDbDictionary
281
1
0
ENDSEC
0
EOF
