999

0
SECTION
2
HEADER
9
$ACADVER
1
AC1021
9
$HANDSEED
5
1287
0
ENDSEC
0
SECTION
2
CLASSES
0
ENDSEC
0
SECTION
2
TABLES
0
TABLE
2
VPORT
5
126f
100
AcDbSymbolTable
70
1
0
VPORT
5
126e
100
AcDbSymbolTableRecord
100
AcDbViewportTableRecord
2
*ACTIVE
10
0
20
0
11
1
21
1
12
500.0
22
500.0
40
1000.0
70
0
0
ENDTAB
0
TABLE
2
LTYPE
5
1270
100
AcDbSymbolTable
70
3
0
LTYPE
5
1278
100
AcDbSymbolTableRecord
100
AcDbLinetypeTableRecord
2
Solid
70
0
72
65
73
0
3

0
LTYPE
5
1279
100
AcDbSymbolTableRecord
100
AcDbLinetypeTableRecord
2
ByBlock
70
0
72
65
73
0
3

0
LTYPE
5
127a
100
AcDbSymbolTableRecord
100
AcDbLinetypeTableRecord
2
ByLayer
70
0
72
65
73
0
3

0
ENDTAB
0
TABLE
2
LAYER
5
1271
100
AcDbSymbolTable
70
1
0
LAYER
5
127b
100
AcDbSymbolTableRecord
100
AcDbLayerTableRecord
2
0
70
0
390
0
0
ENDTAB
0
TABLE
2
STYLE
5
1272
100
AcDbSymbolTable
70
0
0
ENDTAB
0
TABLE
2
VIEW
5
1273
100
AcDbSymbolTable
70
0
0
ENDTAB
0
TABLE
2
UCS
5
1274
100
AcDbSymbolTable
70
0
0
ENDTAB
0
TABLE
2
APPID
5
1275
100
AcDbSymbolTable
70
1
0
APPID
5
127c
100
AcDbSymbolTableRecord
100
AcDbRegAppTableRecord
2
ACAD
70
0
0
ENDTAB
0
TABLE
2
DIMSTYLE
5
1276
100
AcDbSymbolTable
70
0
100
AcDbDimStyleTable
71
1
0
ENDTAB
0
TABLE
2
BLOCK_RECORD
5
1277
100
AcDbSymbolTable
70
2
0
BLOCK_RECORD
5
127d
100
AcDbSymbolTableRecord
100
AcDbBlockTableRecord
2
*Model_Space
70
0
280
1
281
0
0
BLOCK_RECORD
5
127e
100
AcDbSymbolTableRecord
100
AcDbBlockTableRecord
2
*Paper_Space
70
0
280
1
281
0
0
ENDTAB
0
ENDSEC
0
SECTION
2
BLOCKS
0
BLOCK
5
127f
100
AcDbEntity
100
AcDbBlockBegin
2
*Model_Space
70
0
10
0
20
0
30
0
3
*Model_Space
1

0
ENDBLK
5
1280
100
AcDbEntity
100
AcDbBlockEnd
0
BLOCK
5
1281
100
AcDbEntity
100
AcDbBlockBegin
2
*Paper_Space
70
0
10
0
20
0
30
0
3
*Paper_Space
1

0
ENDBLK
5
1282
100
AcDbEntity
100
AcDbBlockEnd
0
ENDSEC
0
SECTION
2
ENTITIES
0
LWPOLYLINE
5
1285
100
AcDbEntity
100
AcDbPolyline
90
179
70
1
10
5065.0
20
-3335.0
30
0.0
10
5066.0
20
-3357.0
30
0.0
10
5066.0
20
-3391.0
30
0.0
10
5067.0
20
-3435.0
30
0.0
10
5065.0
20
-3487.0
30
0.0
10
5062.0
20
-3544.0
30
0.0
10
5057.0
20
-3604.0
30
0.0
10
5046.0
20
-3681.0
30
0.0
10
5031.0
20
-3760.0
30
0.0
10
5012.0
20
-3844.0
30
0.0
10
4990.0
20
-3932.0
30
0.0
10
4965.0
20
-4027.0
30
0.0
10
4938.0
20
-4129.0
30
0.0
10
4909.0
20
-4240.0
30
0.0
10
4855.0
20
-4452.0
30
0.0
10
4798.0
20
-4686.0
30
0.0
10
4737.0
20
-4939.0
30
0.0
10
4675.0
20
-5202.0
30
0.0
10
4612.0
20
-5472.0
30
0.0
10
4549.0
20
-5743.0
30
0.0
10
4486.0
20
-6008.0
30
0.0
10
4452.0
20
-6151.0
30
0.0
10
4421.0
20
-6285.0
30
0.0
10
4392.0
20
-6406.0
30
0.0
10
4367.0
20
-6508.0
30
0.0
10
4348.0
20
-6588.0
30
0.0
10
4335.0
20
-6639.0
30
0.0
10
4331.0
20
-6657.0
30
0.0
10
3746.0
20
-6657.0
30
0.0
10
3741.0
20
-6647.0
30
0.0
10
3729.0
20
-6621.0
30
0.0
10
3708.0
20
-6582.0
30
0.0
10
3681.0
20
-6533.0
30
0.0
10
3646.0
20
-6479.0
30
0.0
10
3606.0
20
-6421.0
30
0.0
10
3560.0
20
-6366.0
30
0.0
10
3479.0
20
-6286.0
30
0.0
10
3388.0
20
-6217.0
30
0.0
10
3289.0
20
-6155.0
30
0.0
10
3186.0
20
-6100.0
30
0.0
10
3079.0
20
-6048.0
30
0.0
10
2972.0
20
-5999.0
30
0.0
10
2867.0
20
-5950.0
30
0.0
10
2808.0
20
-5921.0
30
0.0
10
2753.0
20
-5893.0
30
0.0
10
2703.0
20
-5867.0
30
0.0
10
2660.0
20
-5845.0
30
0.0
10
2627.0
20
-5827.0
30
0.0
10
2606.0
20
-5816.0
30
0.0
10
2599.0
20
-5811.0
30
0.0
10
2543.0
20
-5781.0
30
0.0
10
2391.0
20
-5694.0
30
0.0
10
2163.0
20
-5562.0
30
0.0
10
1881.0
20
-5391.0
30
0.0
10
1566.0
20
-5193.0
30
0.0
10
1238.0
20
-4975.0
30
0.0
10
920.0
20
-4747.0
30
0.0
10
871.0
20
-4710.0
30
0.0
10
824.0
20
-4673.0
30
0.0
10
777.0
20
-4637.0
30
0.0
10
731.0
20
-4601.0
30
0.0
10
686.0
20
-4565.0
30
0.0
10
641.0
20
-4530.0
30
0.0
10
598.0
20
-4495.0
30
0.0
10
456.0
20
-4381.0
30
0.0
10
328.0
20
-4277.0
30
0.0
10
218.0
20
-4186.0
30
0.0
10
127.0
20
-4112.0
30
0.0
10
59.0
20
-4055.0
30
0.0
10
17.0
20
-4020.0
30
0.0
10
2.0
20
-4007.0
30
0.0
10
6.0
20
-4000.0
30
0.0
10
18.0
20
-3978.0
30
0.0
10
34.0
20
-3945.0
30
0.0
10
54.0
20
-3902.0
30
0.0
10
76.0
20
-3850.0
30
0.0
10
97.0
20
-3791.0
30
0.0
10
115.0
20
-3728.0
30
0.0
10
132.0
20
-3650.0
30
0.0
10
144.0
20
-3572.0
30
0.0
10
152.0
20
-3498.0
30
0.0
10
157.0
20
-3433.0
30
0.0
10
160.0
20
-3381.0
30
0.0
10
161.0
20
-3346.0
30
0.0
10
163.0
20
-3337.0
30
0.0
10
164.0
20
-3337.0
30
0.0
10
164.0
20
-3336.0
30
0.0
10
164.0
20
-3335.0
30
0.0
10
165.0
20
-3335.0
30
0.0
10
165.0
20
-3334.0
30
0.0
10
164.0
20
-3334.0
30
0.0
10
164.0
20
-3333.0
30
0.0
10
163.0
20
-3333.0
30
0.0
10
161.0
20
-3323.0
30
0.0
10
159.0
20
-3289.0
30
0.0
10
156.0
20
-3236.0
30
0.0
10
151.0
20
-3171.0
30
0.0
10
143.0
20
-3098.0
30
0.0
10
131.0
20
-3019.0
30
0.0
10
114.0
20
-2941.0
30
0.0
10
96.0
20
-2878.0
30
0.0
10
74.0
20
-2820.0
30
0.0
10
53.0
20
-2768.0
30
0.0
10
33.0
20
-2724.0
30
0.0
10
16.0
20
-2691.0
30
0.0
10
4.0
20
-2670.0
30
0.0
10
0.0
20
-2662.0
30
0.0
10
15.0
20
-2650.0
30
0.0
10
57.0
20
-2614.0
30
0.0
10
125.0
20
-2558.0
30
0.0
10
215.0
20
-2483.0
30
0.0
10
325.0
20
-2392.0
30
0.0
10
453.0
20
-2288.0
30
0.0
10
595.0
20
-2172.0
30
0.0
10
638.0
20
-2138.0
30
0.0
10
682.0
20
-2102.0
30
0.0
10
727.0
20
-2067.0
30
0.0
10
773.0
20
-2030.0
30
0.0
10
820.0
20
-1994.0
30
0.0
10
867.0
20
-1957.0
30
0.0
10
916.0
20
-1920.0
30
0.0
10
1234.0
20
-1691.0
30
0.0
10
1561.0
20
-1472.0
30
0.0
10
1876.0
20
-1273.0
30
0.0
10
2157.0
20
-1102.0
30
0.0
10
2384.0
20
-969.0
30
0.0
10
2536.0
20
-882.0
30
0.0
10
2592.0
20
-851.0
30
0.0
10
2599.0
20
-847.0
30
0.0
10
2620.0
20
-835.0
30
0.0
10
2653.0
20
-817.0
30
0.0
10
2696.0
20
-795.0
30
0.0
10
2746.0
20
-769.0
30
0.0
10
2801.0
20
-741.0
30
0.0
10
2860.0
20
-712.0
30
0.0
10
2965.0
20
-662.0
30
0.0
10
3072.0
20
-613.0
30
0.0
10
3178.0
20
-561.0
30
0.0
10
3282.0
20
-505.0
30
0.0
10
3380.0
20
-443.0
30
0.0
10
3471.0
20
-373.0
30
0.0
10
3552.0
20
-294.0
30
0.0
10
3597.0
20
-238.0
30
0.0
10
3638.0
20
-181.0
30
0.0
10
3672.0
20
-126.0
30
0.0
10
3699.0
20
-77.0
30
0.0
10
3719.0
20
-38.0
30
0.0
10
3732.0
20
-12.0
30
0.0
10
3736.0
20
-2.0
30
0.0
10
4322.0
20
0.0
30
0.0
10
4326.0
20
-18.0
30
0.0
10
4339.0
20
-70.0
30
0.0
10
4358.0
20
-149.0
30
0.0
10
4383.0
20
-252.0
30
0.0
10
4412.0
20
-372.0
30
0.0
10
4445.0
20
-506.0
30
0.0
10
4479.0
20
-648.0
30
0.0
10
4542.0
20
-914.0
30
0.0
10
4606.0
20
-1184.0
30
0.0
10
4670.0
20
-1454.0
30
0.0
10
4733.0
20
-1718.0
30
0.0
10
4794.0
20
-1970.0
30
0.0
10
4852.0
20
-2204.0
30
0.0
10
4907.0
20
-2416.0
30
0.0
10
4936.0
20
-2527.0
30
0.0
10
4964.0
20
-2629.0
30
0.0
10
4989.0
20
-2723.0
30
0.0
10
5011.0
20
-2812.0
30
0.0
10
5030.0
20
-2895.0
30
0.0
10
5045.0
20
-2975.0
30
0.0
10
5056.0
20
-3051.0
30
0.0
10
5062.0
20
-3112.0
30
0.0
10
5065.0
20
-3169.0
30
0.0
10
5066.0
20
-3220.0
30
0.0
10
5066.0
20
-3264.0
30
0.0
10
5066.0
20
-3298.0
30
0.0
10
5065.0
20
-3320.0
30
0.0
10
5064.0
20
-3328.0
30
0.0
10
5065.0
20
-3335.0
30
0.0
6
Solid
370
35
62
0
0
ENDSEC
0
SECTION
2
OBJECTS
0
DICTIONARY
5
1283
330
0
100
AcDbDictionary
281
1
3
ACAD_GROUP
350
1284
0
DICTIONARY
5
1284
330
1283
100
AcDbDictionary
281
1
0
ENDSEC
0
EOF
