999

0
SECTION
2
HEADER
9
$ACADVER
1
AC1021
9
$HANDSEED
5
1304
0
ENDSEC
0
SECTION
2
CLASSES
0
ENDSEC
0
SECTION
2
TABLES
0
TABLE
2
VPORT
5
12ec
100
AcDbSymbolTable
70
1
0
VPORT
5
12eb
100
AcDbSymbolTableRecord
100
AcDbViewportTableRecord
2
*ACTIVE
10
0
20
0
11
1
21
1
12
500.0
22
500.0
40
1000.0
70
0
0
ENDTAB
0
TABLE
2
LTYPE
5
12ed
100
AcDbSymbolTable
70
3
0
LTYPE
5
12f5
100
AcDbSymbolTableRecord
100
AcDbLinetypeTableRecord
2
Solid
70
0
72
65
73
0
3

0
LTYPE
5
12f6
100
AcDbSymbolTableRecord
100
AcDbLinetypeTableRecord
2
ByBlock
70
0
72
65
73
0
3

0
LTYPE
5
12f7
100
AcDbSymbolTableRecord
100
AcDbLinetypeTableRecord
2
ByLayer
70
0
72
65
73
0
3

0
ENDTAB
0
TABLE
2
LAYER
5
12ee
100
AcDbSymbolTable
70
1
0
LAYER
5
12f8
100
AcDbSymbolTableRecord
100
AcDbLayerTableRecord
2
0
70
0
390
0
0
ENDTAB
0
TABLE
2
STYLE
5
12ef
100
AcDbSymbolTable
70
0
0
ENDTAB
0
TABLE
2
VIEW
5
12f0
100
AcDbSymbolTable
70
0
0
ENDTAB
0
TABLE
2
UCS
5
12f1
100
AcDbSymbolTable
70
0
0
ENDTAB
0
TABLE
2
APPID
5
12f2
100
AcDbSymbolTable
70
1
0
APPID
5
12f9
100
AcDbSymbolTableRecord
100
AcDbRegAppTableRecord
2
ACAD
70
0
0
ENDTAB
0
TABLE
2
DIMSTYLE
5
12f3
100
AcDbSymbolTable
70
0
100
AcDbDimStyleTable
71
1
0
ENDTAB
0
TABLE
2
BLOCK_RECORD
5
12f4
100
AcDbSymbolTable
70
2
0
BLOCK_RECORD
5
12fa
100
AcDbSymbolTableRecord
100
AcDbBlockTableRecord
2
*Model_Space
70
0
280
1
281
0
0
BLOCK_RECORD
5
12fb
100
AcDbSymbolTableRecord
100
AcDbBlockTableRecord
2
*Paper_Space
70
0
280
1
281
0
0
ENDTAB
0
ENDSEC
0
SECTION
2
BLOCKS
0
BLOCK
5
12fc
100
AcDbEntity
100
AcDbBlockBegin
2
*Model_Space
70
0
10
0
20
0
30
0
3
*Model_Space
1

0
ENDBLK
5
12fd
100
AcDbEntity
100
AcDbBlockEnd
0
BLOCK
5
12fe
100
AcDbEntity
100
AcDbBlockBegin
2
*Paper_Space
70
0
10
0
20
0
30
0
3
*Paper_Space
1

0
ENDBLK
5
12ff
100
AcDbEntity
100
AcDbBlockEnd
0
ENDSEC
0
SECTION
2
ENTITIES
0
LWPOLYLINE
5
1302
100
AcDbEntity
100
AcDbPolyline
90
108
70
1
10
799.0
20
-3744.0
30
0.0
10
767.0
20
-3732.0
30
0.0
10
719.0
20
-3714.0
30
0.0
10
657.0
20
-3692.0
30
0.0
10
586.0
20
-3666.0
30
0.0
10
507.0
20
-3638.0
30
0.0
10
426.0
20
-3610.0
30
0.0
10
347.0
20
-3583.0
30
0.0
10
272.0
20
-3558.0
30
0.0
10
203.0
20
-3535.0
30
0.0
10
144.0
20
-3515.0
30
0.0
10
98.0
20
-3501.0
30
0.0
10
68.0
20
-3491.0
30
0.0
10
58.0
20
-3487.0
30
0.0
10
17.0
20
-1088.0
30
0.0
10
0.0
20
-8.0
30
0.0
10
25.0
20
-7.0
30
0.0
10
94.0
20
-6.0
30
0.0
10
203.0
20
-5.0
30
0.0
10
346.0
20
-3.0
30
0.0
10
515.0
20
-2.0
30
0.0
10
706.0
20
0.0
30
0.0
10
913.0
20
0.0
30
0.0
10
1078.0
20
0.0
30
0.0
10
1246.0
20
-1.0
30
0.0
10
1414.0
20
-4.0
30
0.0
10
1581.0
20
-8.0
30
0.0
10
1742.0
20
-14.0
30
0.0
10
1897.0
20
-23.0
30
0.0
10
2042.0
20
-34.0
30
0.0
10
2200.0
20
-51.0
30
0.0
10
2343.0
20
-74.0
30
0.0
10
2476.0
20
-101.0
30
0.0
10
2600.0
20
-134.0
30
0.0
10
2720.0
20
-173.0
30
0.0
10
2838.0
20
-218.0
30
0.0
10
2957.0
20
-269.0
30
0.0
10
3050.0
20
-312.0
30
0.0
10
3146.0
20
-358.0
30
0.0
10
3244.0
20
-407.0
30
0.0
10
3343.0
20
-458.0
30
0.0
10
3444.0
20
-510.0
30
0.0
10
3546.0
20
-562.0
30
0.0
10
3648.0
20
-614.0
30
0.0
10
3755.0
20
-668.0
30
0.0
10
3862.0
20
-721.0
30
0.0
10
3967.0
20
-772.0
30
0.0
10
4070.0
20
-823.0
30
0.0
10
4169.0
20
-872.0
30
0.0
10
4265.0
20
-920.0
30
0.0
10
4355.0
20
-966.0
30
0.0
10
4409.0
20
-995.0
30
0.0
10
4459.0
20
-1022.0
30
0.0
10
4504.0
20
-1046.0
30
0.0
10
4541.0
20
-1066.0
30
0.0
10
4570.0
20
-1082.0
30
0.0
10
4589.0
20
-1093.0
30
0.0
10
4595.0
20
-1096.0
30
0.0
10
4593.0
20
-1103.0
30
0.0
10
4586.0
20
-1121.0
30
0.0
10
4578.0
20
-1149.0
30
0.0
10
4569.0
20
-1185.0
30
0.0
10
4562.0
20
-1229.0
30
0.0
10
4558.0
20
-1278.0
30
0.0
10
4559.0
20
-1331.0
30
0.0
10
4568.0
20
-1398.0
30
0.0
10
4583.0
20
-1465.0
30
0.0
10
4603.0
20
-1528.0
30
0.0
10
4623.0
20
-1584.0
30
0.0
10
4642.0
20
-1628.0
30
0.0
10
4655.0
20
-1657.0
30
0.0
10
4660.0
20
-1667.0
30
0.0
10
4609.0
20
-1676.0
30
0.0
10
4469.0
20
-1699.0
30
0.0
10
4254.0
20
-1737.0
30
0.0
10
3983.0
20
-1787.0
30
0.0
10
3670.0
20
-1847.0
30
0.0
10
3332.0
20
-1916.0
30
0.0
10
2985.0
20
-1993.0
30
0.0
10
2839.0
20
-2027.0
30
0.0
10
2696.0
20
-2063.0
30
0.0
10
2557.0
20
-2100.0
30
0.0
10
2423.0
20
-2139.0
30
0.0
10
2296.0
20
-2179.0
30
0.0
10
2178.0
20
-2222.0
30
0.0
10
2069.0
20
-2266.0
30
0.0
10
1962.0
20
-2317.0
30
0.0
10
1868.0
20
-2367.0
30
0.0
10
1790.0
20
-2415.0
30
0.0
10
1728.0
20
-2457.0
30
0.0
10
1683.0
20
-2491.0
30
0.0
10
1655.0
20
-2513.0
30
0.0
10
1645.0
20
-2521.0
30
0.0
10
1625.0
20
-2538.0
30
0.0
10
1571.0
20
-2587.0
30
0.0
10
1491.0
20
-2662.0
30
0.0
10
1393.0
20
-2759.0
30
0.0
10
1287.0
20
-2874.0
30
0.0
10
1180.0
20
-3003.0
30
0.0
10
1081.0
20
-3140.0
30
0.0
10
1007.0
20
-3265.0
30
0.0
10
944.0
20
-3387.0
30
0.0
10
895.0
20
-3501.0
30
0.0
10
857.0
20
-3600.0
30
0.0
10
831.0
20
-3678.0
30
0.0
10
815.0
20
-3729.0
30
0.0
10
810.0
20
-3748.0
30
0.0
10
799.0
20
-3744.0
30
0.0
6
Solid
370
35
62
0
0
ENDSEC
0
SECTION
2
OBJECTS
0
DICTIONARY
5
1300
330
0
100
AcDbDictionary
281
1
3
ACAD_GROUP
350
1301
0
DICTIONARY
5
1301
330
1300
100
AcDbDictionary
281
1
0
ENDSEC
0
EOF
