999

0
SECTION
2
HEADER
9
$ACADVER
1
AC1021
9
$HANDSEED
5
134f
0
ENDSEC
0
SECTION
2
CLASSES
0
ENDSEC
0
SECTION
2
TABLES
0
TABLE
2
VPORT
5
1337
100
AcDbSymbolTable
70
1
0
VPORT
5
1336
100
AcDbSymbolTableRecord
100
AcDbViewportTableRecord
2
*ACTIVE
10
0
20
0
11
1
21
1
12
500.0
22
500.0
40
1000.0
70
0
0
ENDTAB
0
TABLE
2
LTYPE
5
1338
100
AcDbSymbolTable
70
3
0
LTYPE
5
1340
100
AcDbSymbolTableRecord
100
AcDbLinetypeTableRecord
2
Solid
70
0
72
65
73
0
3

0
LTYPE
5
1341
100
AcDbSymbolTableRecord
100
AcDbLinetypeTableRecord
2
ByBlock
70
0
72
65
73
0
3

0
LTYPE
5
1342
100
AcDbSymbolTableRecord
100
AcDbLinetypeTableRecord
2
ByLayer
70
0
72
65
73
0
3

0
ENDTAB
0
TABLE
2
LAYER
5
1339
100
AcDbSymbolTable
70
1
0
LAYER
5
1343
100
AcDbSymbolTableRecord
100
AcDbLayerTableRecord
2
0
70
0
390
0
0
ENDTAB
0
TABLE
2
STYLE
5
133a
100
AcDbSymbolTable
70
0
0
ENDTAB
0
TABLE
2
VIEW
5
133b
100
AcDbSymbolTable
70
0
0
ENDTAB
0
TABLE
2
UCS
5
133c
100
AcDbSymbolTable
70
0
0
ENDTAB
0
TABLE
2
APPID
5
133d
100
AcDbSymbolTable
70
1
0
APPID
5
1344
100
AcDbSymbolTableRecord
100
AcDbRegAppTableRecord
2
ACAD
70
0
0
ENDTAB
0
TABLE
2
DIMSTYLE
5
133e
100
AcDbSymbolTable
70
0
100
AcDbDimStyleTable
71
1
0
ENDTAB
0
TABLE
2
BLOCK_RECORD
5
133f
100
AcDbSymbolTable
70
2
0
BLOCK_RECORD
5
1345
100
AcDbSymbolTableRecord
100
AcDbBlockTableRecord
2
*Model_Space
70
0
280
1
281
0
0
BLOCK_RECORD
5
1346
100
AcDbSymbolTableRecord
100
AcDbBlockTableRecord
2
*Paper_Space
70
0
280
1
281
0
0
ENDTAB
0
ENDSEC
0
SECTION
2
BLOCKS
0
BLOCK
5
1347
100
AcDbEntity
100
AcDbBlockBegin
2
*Model_Space
70
0
10
0
20
0
30
0
3
*Model_Space
1

0
ENDBLK
5
1348
100
AcDbEntity
100
AcDbBlockEnd
0
BLOCK
5
1349
100
AcDbEntity
100
AcDbBlockBegin
2
*Paper_Space
70
0
10
0
20
0
30
0
3
*Paper_Space
1

0
ENDBLK
5
134a
100
AcDbEntity
100
AcDbBlockEnd
0
ENDSEC
0
SECTION
2
ENTITIES
0
LWPOLYLINE
5
134d
100
AcDbEntity
100
AcDbPolyline
90
47
70
1
10
1816.0
20
-2597.0
30
0.0
10
1838.0
20
-2629.0
30
0.0
10
1873.0
20
-2676.0
30
0.0
10
1918.0
20
-2733.0
30
0.0
10
1972.0
20
-2796.0
30
0.0
10
2033.0
20
-2860.0
30
0.0
10
2100.0
20
-2920.0
30
0.0
10
2171.0
20
-2973.0
30
0.0
10
2241.0
20
-3017.0
30
0.0
10
2307.0
20
-3054.0
30
0.0
10
2365.0
20
-3082.0
30
0.0
10
2412.0
20
-3102.0
30
0.0
10
2443.0
20
-3114.0
30
0.0
10
2454.0
20
-3118.0
30
0.0
10
2438.0
20
-3700.0
30
0.0
10
2334.0
20
-3737.0
30
0.0
10
2067.0
20
-3832.0
30
0.0
10
1702.0
20
-3962.0
30
0.0
10
1303.0
20
-4104.0
30
0.0
10
938.0
20
-4234.0
30
0.0
10
671.0
20
-4330.0
30
0.0
10
567.0
20
-4367.0
30
0.0
10
0.0
20
-4370.0
30
0.0
10
0.0
20
0.0
30
0.0
10
124.0
20
-1.0
30
0.0
10
135.0
20
-15.0
30
0.0
10
166.0
20
-56.0
30
0.0
10
214.0
20
-122.0
30
0.0
10
277.0
20
-208.0
30
0.0
10
352.0
20
-314.0
30
0.0
10
437.0
20
-436.0
30
0.0
10
529.0
20
-572.0
30
0.0
10
644.0
20
-745.0
30
0.0
10
764.0
20
-931.0
30
0.0
10
887.0
20
-1124.0
30
0.0
10
1011.0
20
-1321.0
30
0.0
10
1135.0
20
-1519.0
30
0.0
10
1257.0
20
-1714.0
30
0.0
10
1374.0
20
-1902.0
30
0.0
10
1472.0
20
-2058.0
30
0.0
10
1563.0
20
-2202.0
30
0.0
10
1644.0
20
-2328.0
30
0.0
10
1712.0
20
-2435.0
30
0.0
10
1764.0
20
-2516.0
30
0.0
10
1797.0
20
-2568.0
30
0.0
10
1809.0
20
-2586.0
30
0.0
10
1816.0
20
-2597.0
30
0.0
6
Solid
370
35
62
0
0
ENDSEC
0
SECTION
2
OBJECTS
0
DICTIONARY
5
134b
330
0
100
AcDbDictionary
281
1
3
ACAD_GROUP
350
134c
0
DICTIONARY
5
134c
330
134b
100
AcDbDictionary
281
1
0
ENDSEC
0
EOF
