999

0
SECTION
2
HEADER
9
$ACADVER
1
AC1021
9
$HANDSEED
5
1381
0
ENDSEC
0
SECTION
2
CLASSES
0
ENDSEC
0
SECTION
2
TABLES
0
TABLE
2
VPORT
5
1369
100
AcDbSymbolTable
70
1
0
VPORT
5
1368
100
AcDbSymbolTableRecord
100
AcDbViewportTableRecord
2
*ACTIVE
10
0
20
0
11
1
21
1
12
500.0
22
500.0
40
1000.0
70
0
0
ENDTAB
0
TABLE
2
LTYPE
5
136a
100
AcDbSymbolTable
70
3
0
LTYPE
5
1372
100
AcDbSymbolTableRecord
100
AcDbLinetypeTableRecord
2
Solid
70
0
72
65
73
0
3

0
LTYPE
5
1373
100
AcDbSymbolTableRecord
100
AcDbLinetypeTableRecord
2
ByBlock
70
0
72
65
73
0
3

0
LTYPE
5
1374
100
AcDbSymbolTableRecord
100
AcDbLinetypeTableRecord
2
ByLayer
70
0
72
65
73
0
3

0
ENDTAB
0
TABLE
2
LAYER
5
136b
100
AcDbSymbolTable
70
1
0
LAYER
5
1375
100
AcDbSymbolTableRecord
100
AcDbLayerTableRecord
2
0
70
0
390
0
0
ENDTAB
0
TABLE
2
STYLE
5
136c
100
AcDbSymbolTable
70
0
0
ENDTAB
0
TABLE
2
VIEW
5
136d
100
AcDbSymbolTable
70
0
0
ENDTAB
0
TABLE
2
UCS
5
136e
100
AcDbSymbolTable
70
0
0
ENDTAB
0
TABLE
2
APPID
5
136f
100
AcDbSymbolTable
70
1
0
APPID
5
1376
100
AcDbSymbolTableRecord
100
AcDbRegAppTableRecord
2
ACAD
70
0
0
ENDTAB
0
TABLE
2
DIMSTYLE
5
1370
100
AcDbSymbolTable
70
0
100
AcDbDimStyleTable
71
1
0
ENDTAB
0
TABLE
2
BLOCK_RECORD
5
1371
100
AcDbSymbolTable
70
2
0
BLOCK_RECORD
5
1377
100
AcDbSymbolTableRecord
100
AcDbBlockTableRecord
2
*Model_Space
70
0
280
1
281
0
0
BLOCK_RECORD
5
1378
100
AcDbSymbolTableRecord
100
AcDbBlockTableRecord
2
*Paper_Space
70
0
280
1
281
0
0
ENDTAB
0
ENDSEC
0
SECTION
2
BLOCKS
0
BLOCK
5
1379
100
AcDbEntity
100
AcDbBlockBegin
2
*Model_Space
70
0
10
0
20
0
30
0
3
*Model_Space
1

0
ENDBLK
5
137a
100
AcDbEntity
100
AcDbBlockEnd
0
BLOCK
5
137b
100
AcDbEntity
100
AcDbBlockBegin
2
*Paper_Space
70
0
10
0
20
0
30
0
3
*Paper_Space
1

0
ENDBLK
5
137c
100
AcDbEntity
100
AcDbBlockEnd
0
ENDSEC
0
SECTION
2
ENTITIES
0
LWPOLYLINE
5
137f
100
AcDbEntity
100
AcDbPolyline
90
47
70
1
10
657.0
20
-2568.0
30
0.0
10
690.0
20
-2516.0
30
0.0
10
742.0
20
-2435.0
30
0.0
10
810.0
20
-2328.0
30
0.0
10
891.0
20
-2202.0
30
0.0
10
981.0
20
-2058.0
30
0.0
10
1079.0
20
-1902.0
30
0.0
10
1197.0
20
-1714.0
30
0.0
10
1319.0
20
-1519.0
30
0.0
10
1442.0
20
-1321.0
30
0.0
10
1567.0
20
-1124.0
30
0.0
10
1689.0
20
-931.0
30
0.0
10
1809.0
20
-745.0
30
0.0
10
1924.0
20
-572.0
30
0.0
10
2017.0
20
-436.0
30
0.0
10
2102.0
20
-314.0
30
0.0
10
2177.0
20
-208.0
30
0.0
10
2240.0
20
-122.0
30
0.0
10
2288.0
20
-56.0
30
0.0
10
2319.0
20
-15.0
30
0.0
10
2330.0
20
-1.0
30
0.0
10
2454.0
20
0.0
30
0.0
10
2454.0
20
-4370.0
30
0.0
10
1886.0
20
-4367.0
30
0.0
10
1783.0
20
-4330.0
30
0.0
10
1516.0
20
-4234.0
30
0.0
10
1150.0
20
-4104.0
30
0.0
10
752.0
20
-3962.0
30
0.0
10
387.0
20
-3832.0
30
0.0
10
120.0
20
-3737.0
30
0.0
10
16.0
20
-3700.0
30
0.0
10
0.0
20
-3118.0
30
0.0
10
11.0
20
-3114.0
30
0.0
10
42.0
20
-3102.0
30
0.0
10
88.0
20
-3082.0
30
0.0
10
147.0
20
-3054.0
30
0.0
10
213.0
20
-3017.0
30
0.0
10
283.0
20
-2973.0
30
0.0
10
353.0
20
-2920.0
30
0.0
10
420.0
20
-2860.0
30
0.0
10
482.0
20
-2796.0
30
0.0
10
536.0
20
-2733.0
30
0.0
10
581.0
20
-2676.0
30
0.0
10
615.0
20
-2629.0
30
0.0
10
637.0
20
-2597.0
30
0.0
10
645.0
20
-2586.0
30
0.0
10
657.0
20
-2568.0
30
0.0
6
Solid
370
35
62
0
0
ENDSEC
0
SECTION
2
OBJECTS
0
DICTIONARY
5
137d
330
0
100
AcDbDictionary
281
1
3
ACAD_GROUP
350
137e
0
DICTIONARY
5
137e
330
137d
100
AcDbDictionary
281
1
0
ENDSEC
0
EOF
