999

0
SECTION
2
HEADER
9
$ACADVER
1
AC1021
9
$HANDSEED
5
13cc
0
ENDSEC
0
SECTION
2
CLASSES
0
ENDSEC
0
SECTION
2
TABLES
0
TABLE
2
VPORT
5
13b4
100
AcDbSymbolTable
70
1
0
VPORT
5
13b3
100
AcDbSymbolTableRecord
100
AcDbViewportTableRecord
2
*ACTIVE
10
0
20
0
11
1
21
1
12
500.0
22
500.0
40
1000.0
70
0
0
ENDTAB
0
TABLE
2
LTYPE
5
13b5
100
AcDbSymbolTable
70
3
0
LTYPE
5
13bd
100
AcDbSymbolTableRecord
100
AcDbLinetypeTableRecord
2
Solid
70
0
72
65
73
0
3

0
LTYPE
5
13be
100
AcDbSymbolTableRecord
100
AcDbLinetypeTableRecord
2
ByBlock
70
0
72
65
73
0
3

0
LTYPE
5
13bf
100
AcDbSymbolTableRecord
100
AcDbLinetypeTableRecord
2
ByLayer
70
0
72
65
73
0
3

0
ENDTAB
0
TABLE
2
LAYER
5
13b6
100
AcDbSymbolTable
70
1
0
LAYER
5
13c0
100
AcDbSymbolTableRecord
100
AcDbLayerTableRecord
2
0
70
0
390
0
0
ENDTAB
0
TABLE
2
STYLE
5
13b7
100
AcDbSymbolTable
70
0
0
ENDTAB
0
TABLE
2
VIEW
5
13b8
100
AcDbSymbolTable
70
0
0
ENDTAB
0
TABLE
2
UCS
5
13b9
100
AcDbSymbolTable
70
0
0
ENDTAB
0
TABLE
2
APPID
5
13ba
100
AcDbSymbolTable
70
1
0
APPID
5
13c1
100
AcDbSymbolTableRecord
100
AcDbRegAppTableRecord
2
ACAD
70
0
0
ENDTAB
0
TABLE
2
DIMSTYLE
5
13bb
100
AcDbSymbolTable
70
0
100
AcDbDimStyleTable
71
1
0
ENDTAB
0
TABLE
2
BLOCK_RECORD
5
13bc
100
AcDbSymbolTable
70
2
0
BLOCK_RECORD
5
13c2
100
AcDbSymbolTableRecord
100
AcDbBlockTableRecord
2
*Model_Space
70
0
280
1
281
0
0
BLOCK_RECORD
5
13c3
100
AcDbSymbolTableRecord
100
AcDbBlockTableRecord
2
*Paper_Space
70
0
280
1
281
0
0
ENDTAB
0
ENDSEC
0
SECTION
2
BLOCKS
0
BLOCK
5
13c4
100
AcDbEntity
100
AcDbBlockBegin
2
*Model_Space
70
0
10
0
20
0
30
0
3
*Model_Space
1

0
ENDBLK
5
13c5
100
AcDbEntity
100
AcDbBlockEnd
0
BLOCK
5
13c6
100
AcDbEntity
100
AcDbBlockBegin
2
*Paper_Space
70
0
10
0
20
0
30
0
3
*Paper_Space
1

0
ENDBLK
5
13c7
100
AcDbEntity
100
AcDbBlockEnd
0
ENDSEC
0
SECTION
2
ENTITIES
0
LWPOLYLINE
5
13ca
100
AcDbEntity
100
AcDbPolyline
90
75
70
1
10
0.0
20
-4232.0
30
0.0
10
3.0
20
-1511.0
30
0.0
10
10.0
20
0.0
30
0.0
10
4500.0
20
-2.0
30
0.0
10
4500.0
20
-25.0
30
0.0
10
4499.0
20
-88.0
30
0.0
10
4499.0
20
-182.0
30
0.0
10
4500.0
20
-297.0
30
0.0
10
4502.0
20
-424.0
30
0.0
10
4506.0
20
-553.0
30
0.0
10
4514.0
20
-675.0
30
0.0
10
4518.0
20
-728.0
30
0.0
10
4523.0
20
-777.0
30
0.0
10
4528.0
20
-820.0
30
0.0
10
4533.0
20
-855.0
30
0.0
10
4536.0
20
-882.0
30
0.0
10
4539.0
20
-899.0
30
0.0
10
4540.0
20
-905.0
30
0.0
10
4541.0
20
-916.0
30
0.0
10
4546.0
20
-947.0
30
0.0
10
4554.0
20
-994.0
30
0.0
10
4567.0
20
-1053.0
30
0.0
10
4584.0
20
-1118.0
30
0.0
10
4606.0
20
-1185.0
30
0.0
10
4633.0
20
-1251.0
30
0.0
10
4662.0
20
-1306.0
30
0.0
10
4695.0
20
-1356.0
30
0.0
10
4731.0
20
-1402.0
30
0.0
10
4771.0
20
-1443.0
30
0.0
10
4812.0
20
-1481.0
30
0.0
10
4856.0
20
-1515.0
30
0.0
10
4901.0
20
-1546.0
30
0.0
10
4950.0
20
-1577.0
30
0.0
10
4999.0
20
-1603.0
30
0.0
10
5043.0
20
-1626.0
30
0.0
10
5082.0
20
-1644.0
30
0.0
10
5112.0
20
-1657.0
30
0.0
10
5132.0
20
-1665.0
30
0.0
10
5139.0
20
-1668.0
30
0.0
10
5080.0
20
-1710.0
30
0.0
10
4916.0
20
-1824.0
30
0.0
10
4670.0
20
-1994.0
30
0.0
10
4362.0
20
-2203.0
30
0.0
10
4013.0
20
-2435.0
30
0.0
10
3647.0
20
-2674.0
30
0.0
10
3282.0
20
-2901.0
30
0.0
10
3191.0
20
-2957.0
30
0.0
10
3101.0
20
-3011.0
30
0.0
10
3014.0
20
-3063.0
30
0.0
10
2929.0
20
-3113.0
30
0.0
10
2848.0
20
-3161.0
30
0.0
10
2770.0
20
-3207.0
30
0.0
10
2697.0
20
-3252.0
30
0.0
10
2567.0
20
-3332.0
30
0.0
10
2454.0
20
-3404.0
30
0.0
10
2360.0
20
-3466.0
30
0.0
10
2285.0
20
-3517.0
30
0.0
10
2230.0
20
-3555.0
30
0.0
10
2196.0
20
-3579.0
30
0.0
10
2185.0
20
-3587.0
30
0.0
10
2173.0
20
-3594.0
30
0.0
10
2143.0
20
-3614.0
30
0.0
10
2097.0
20
-3645.0
30
0.0
10
2041.0
20
-3686.0
30
0.0
10
1980.0
20
-3736.0
30
0.0
10
1917.0
20
-3793.0
30
0.0
10
1857.0
20
-3854.0
30
0.0
10
1799.0
20
-3927.0
30
0.0
10
1750.0
20
-4000.0
30
0.0
10
1710.0
20
-4069.0
30
0.0
10
1679.0
20
-4130.0
30
0.0
10
1658.0
20
-4178.0
30
0.0
10
1645.0
20
-4211.0
30
0.0
10
1640.0
20
-4222.0
30
0.0
10
0.0
20
-4232.0
30
0.0
6
Solid
370
35
62
0
0
ENDSEC
0
SECTION
2
OBJECTS
0
DICTIONARY
5
13c8
330
0
100
AcDbDictionary
281
1
3
ACAD_GROUP
350
13c9
0
DICTIONARY
5
13c9
330
13c8
100
AcDbDictionary
281
1
0
ENDSEC
0
EOF
