999

0
SECTION
2
HEADER
9
$ACADVER
1
AC1021
9
$HANDSEED
5
1417
0
ENDSEC
0
SECTION
2
CLASSES
0
ENDSEC
0
SECTION
2
TABLES
0
TABLE
2
VPORT
5
13ff
100
AcDbSymbolTable
70
1
0
VPORT
5
13fe
100
AcDbSymbolTableRecord
100
AcDbViewportTableRecord
2
*ACTIVE
10
0
20
0
11
1
21
1
12
500.0
22
500.0
40
1000.0
70
0
0
ENDTAB
0
TABLE
2
LTYPE
5
1400
100
AcDbSymbolTable
70
3
0
LTYPE
5
1408
100
AcDbSymbolTableRecord
100
AcDbLinetypeTableRecord
2
Solid
70
0
72
65
73
0
3

0
LTYPE
5
1409
100
AcDbSymbolTableRecord
100
AcDbLinetypeTableRecord
2
ByBlock
70
0
72
65
73
0
3

0
LTYPE
5
140a
100
AcDbSymbolTableRecord
100
AcDbLinetypeTableRecord
2
ByLayer
70
0
72
65
73
0
3

0
ENDTAB
0
TABLE
2
LAYER
5
1401
100
AcDbSymbolTable
70
1
0
LAYER
5
140b
100
AcDbSymbolTableRecord
100
AcDbLayerTableRecord
2
0
70
0
390
0
0
ENDTAB
0
TABLE
2
STYLE
5
1402
100
AcDbSymbolTable
70
0
0
ENDTAB
0
TABLE
2
VIEW
5
1403
100
AcDbSymbolTable
70
0
0
ENDTAB
0
TABLE
2
UCS
5
1404
100
AcDbSymbolTable
70
0
0
ENDTAB
0
TABLE
2
APPID
5
1405
100
AcDbSymbolTable
70
1
0
APPID
5
140c
100
AcDbSymbolTableRecord
100
AcDbRegAppTableRecord
2
ACAD
70
0
0
ENDTAB
0
TABLE
2
DIMSTYLE
5
1406
100
AcDbSymbolTable
70
0
100
AcDbDimStyleTable
71
1
0
ENDTAB
0
TABLE
2
BLOCK_RECORD
5
1407
100
AcDbSymbolTable
70
2
0
BLOCK_RECORD
5
140d
100
AcDbSymbolTableRecord
100
AcDbBlockTableRecord
2
*Model_Space
70
0
280
1
281
0
0
BLOCK_RECORD
5
140e
100
AcDbSymbolTableRecord
100
AcDbBlockTableRecord
2
*Paper_Space
70
0
280
1
281
0
0
ENDTAB
0
ENDSEC
0
SECTION
2
BLOCKS
0
BLOCK
5
140f
100
AcDbEntity
100
AcDbBlockBegin
2
*Model_Space
70
0
10
0
20
0
30
0
3
*Model_Space
1

0
ENDBLK
5
1410
100
AcDbEntity
100
AcDbBlockEnd
0
BLOCK
5
1411
100
AcDbEntity
100
AcDbBlockBegin
2
*Paper_Space
70
0
10
0
20
0
30
0
3
*Paper_Space
1

0
ENDBLK
5
1412
100
AcDbEntity
100
AcDbBlockEnd
0
ENDSEC
0
SECTION
2
ENTITIES
0
LWPOLYLINE
5
1415
100
AcDbEntity
100
AcDbPolyline
90
66
70
1
10
399.0
20
0.0
30
0.0
10
435.0
20
-6.0
30
0.0
10
534.0
20
-21.0
30
0.0
10
679.0
20
-43.0
30
0.0
10
855.0
20
-70.0
30
0.0
10
1047.0
20
-99.0
30
0.0
10
1239.0
20
-129.0
30
0.0
10
1416.0
20
-157.0
30
0.0
10
1557.0
20
-180.0
30
0.0
10
1677.0
20
-200.0
30
0.0
10
1782.0
20
-218.0
30
0.0
10
1877.0
20
-236.0
30
0.0
10
1969.0
20
-254.0
30
0.0
10
2063.0
20
-274.0
30
0.0
10
2166.0
20
-297.0
30
0.0
10
2260.0
20
-318.0
30
0.0
10
2365.0
20
-340.0
30
0.0
10
2482.0
20
-363.0
30
0.0
10
2612.0
20
-385.0
30
0.0
10
2756.0
20
-404.0
30
0.0
10
2916.0
20
-420.0
30
0.0
10
3092.0
20
-431.0
30
0.0
10
3285.0
20
-437.0
30
0.0
10
3492.0
20
-438.0
30
0.0
10
3710.0
20
-435.0
30
0.0
10
3935.0
20
-429.0
30
0.0
10
4165.0
20
-422.0
30
0.0
10
4396.0
20
-415.0
30
0.0
10
4625.0
20
-408.0
30
0.0
10
4891.0
20
-401.0
30
0.0
10
5139.0
20
-397.0
30
0.0
10
5363.0
20
-394.0
30
0.0
10
5552.0
20
-393.0
30
0.0
10
5698.0
20
-393.0
30
0.0
10
5792.0
20
-393.0
30
0.0
10
5825.0
20
-393.0
30
0.0
10
6073.0
20
-1478.0
30
0.0
10
6018.0
20
-1487.0
30
0.0
10
5866.0
20
-1509.0
30
0.0
10
5636.0
20
-1542.0
30
0.0
10
5344.0
20
-1579.0
30
0.0
10
5009.0
20
-1617.0
30
0.0
10
4650.0
20
-1649.0
30
0.0
10
4284.0
20
-1673.0
30
0.0
10
3984.0
20
-1683.0
30
0.0
10
3694.0
20
-1684.0
30
0.0
10
3413.0
20
-1677.0
30
0.0
10
3144.0
20
-1664.0
30
0.0
10
2887.0
20
-1646.0
30
0.0
10
2644.0
20
-1624.0
30
0.0
10
2415.0
20
-1598.0
30
0.0
10
2142.0
20
-1562.0
30
0.0
10
1891.0
20
-1523.0
30
0.0
10
1656.0
20
-1480.0
30
0.0
10
1431.0
20
-1432.0
30
0.0
10
1212.0
20
-1380.0
30
0.0
10
993.0
20
-1323.0
30
0.0
10
770.0
20
-1261.0
30
0.0
10
612.0
20
-1215.0
30
0.0
10
457.0
20
-1169.0
30
0.0
10
313.0
20
-1126.0
30
0.0
10
188.0
20
-1088.0
30
0.0
10
89.0
20
-1057.0
30
0.0
10
23.0
20
-1037.0
30
0.0
10
0.0
20
-1029.0
30
0.0
10
399.0
20
0.0
30
0.0
6
Solid
370
35
62
0
0
ENDSEC
0
SECTION
2
OBJECTS
0
DICTIONARY
5
1413
330
0
100
AcDbDictionary
281
1
3
ACAD_GROUP
350
1414
0
DICTIONARY
5
1414
330
1413
100
AcDbDictionary
281
1
0
ENDSEC
0
EOF
