999

0
SECTION
2
HEADER
9
$ACADVER
1
AC1021
9
$HANDSEED
5
11f1
0
ENDSEC
0
SECTION
2
CLASSES
0
ENDSEC
0
SECTION
2
TABLES
0
TABLE
2
VPORT
5
11d9
100
AcDbSymbolTable
70
1
0
VPORT
5
11d8
100
AcDbSymbolTableRecord
100
AcDbViewportTableRecord
2
*ACTIVE
10
0
20
0
11
1
21
1
12
500.0
22
500.0
40
1000.0
70
0
0
ENDTAB
0
TABLE
2
LTYPE
5
11da
100
AcDbSymbolTable
70
3
0
LTYPE
5
11e2
100
AcDbSymbolTableRecord
100
AcDbLinetypeTableRecord
2
Solid
70
0
72
65
73
0
3

0
LTYPE
5
11e3
100
AcDbSymbolTableRecord
100
AcDbLinetypeTableRecord
2
ByBlock
70
0
72
65
73
0
3

0
LTYPE
5
11e4
100
AcDbSymbolTableRecord
100
AcDbLinetypeTableRecord
2
ByLayer
70
0
72
65
73
0
3

0
ENDTAB
0
TABLE
2
LAYER
5
11db
100
AcDbSymbolTable
70
1
0
LAYER
5
11e5
100
AcDbSymbolTableRecord
100
AcDbLayerTableRecord
2
0
70
0
390
0
0
ENDTAB
0
TABLE
2
STYLE
5
11dc
100
AcDbSymbolTable
70
0
0
ENDTAB
0
TABLE
2
VIEW
5
11dd
100
AcDbSymbolTable
70
0
0
ENDTAB
0
TABLE
2
UCS
5
11de
100
AcDbSymbolTable
70
0
0
ENDTAB
0
TABLE
2
APPID
5
11df
100
AcDbSymbolTable
70
1
0
APPID
5
11e6
100
AcDbSymbolTableRecord
100
AcDbRegAppTableRecord
2
ACAD
70
0
0
ENDTAB
0
TABLE
2
DIMSTYLE
5
11e0
100
AcDbSymbolTable
70
0
100
AcDbDimStyleTable
71
1
0
ENDTAB
0
TABLE
2
BLOCK_RECORD
5
11e1
100
AcDbSymbolTable
70
2
0
BLOCK_RECORD
5
11e7
100
AcDbSymbolTableRecord
100
AcDbBlockTableRecord
2
*Model_Space
70
0
280
1
281
0
0
BLOCK_RECORD
5
11e8
100
AcDbSymbolTableRecord
100
AcDbBlockTableRecord
2
*Paper_Space
70
0
280
1
281
0
0
ENDTAB
0
ENDSEC
0
SECTION
2
BLOCKS
0
BLOCK
5
11e9
100
AcDbEntity
100
AcDbBlockBegin
2
*Model_Space
70
0
10
0
20
0
30
0
3
*Model_Space
1

0
ENDBLK
5
11ea
100
AcDbEntity
100
AcDbBlockEnd
0
BLOCK
5
11eb
100
AcDbEntity
100
AcDbBlockBegin
2
*Paper_Space
70
0
10
0
20
0
30
0
3
*Paper_Space
1

0
ENDBLK
5
11ec
100
AcDbEntity
100
AcDbBlockEnd
0
ENDSEC
0
SECTION
2
ENTITIES
0
LWPOLYLINE
5
11ef
100
AcDbEntity
100
AcDbPolyline
90
58
70
1
10
54.0
20
-1393.0
30
0.0
10
84.0
20
-1394.0
30
0.0
10
165.0
20
-1397.0
30
0.0
10
284.0
20
-1395.0
30
0.0
10
428.0
20
-1385.0
30
0.0
10
585.0
20
-1363.0
30
0.0
10
740.0
20
-1324.0
30
0.0
10
880.0
20
-1265.0
30
0.0
10
979.0
20
-1199.0
30
0.0
10
1059.0
20
-1122.0
30
0.0
10
1122.0
20
-1043.0
30
0.0
10
1170.0
20
-969.0
30
0.0
10
1203.0
20
-907.0
30
0.0
10
1222.0
20
-864.0
30
0.0
10
1228.0
20
-848.0
30
0.0
10
1231.0
20
-839.0
30
0.0
10
1242.0
20
-814.0
30
0.0
10
1259.0
20
-774.0
30
0.0
10
1280.0
20
-722.0
30
0.0
10
1305.0
20
-659.0
30
0.0
10
1333.0
20
-588.0
30
0.0
10
1363.0
20
-511.0
30
0.0
10
1400.0
20
-411.0
30
0.0
10
1436.0
20
-309.0
30
0.0
10
1470.0
20
-213.0
30
0.0
10
1499.0
20
-129.0
30
0.0
10
1522.0
20
-61.0
30
0.0
10
1538.0
20
-16.0
30
0.0
10
1543.0
20
0.0
30
0.0
10
1809.0
20
-87.0
30
0.0
10
2496.0
20
-312.0
30
0.0
10
3435.0
20
-620.0
30
0.0
10
4458.0
20
-955.0
30
0.0
10
5396.0
20
-1263.0
30
0.0
10
6083.0
20
-1488.0
30
0.0
10
6349.0
20
-1575.0
30
0.0
10
6299.0
20
-1648.0
30
0.0
10
6170.0
20
-1835.0
30
0.0
10
5993.0
20
-2091.0
30
0.0
10
5800.0
20
-2371.0
30
0.0
10
5623.0
20
-2627.0
30
0.0
10
5494.0
20
-2815.0
30
0.0
10
5444.0
20
-2887.0
30
0.0
10
5372.0
20
-2860.0
30
0.0
10
5171.0
20
-2786.0
30
0.0
10
4860.0
20
-2678.0
30
0.0
10
4459.0
20
-2548.0
30
0.0
10
3986.0
20
-2410.0
30
0.0
10
3461.0
20
-2276.0
30
0.0
10
2904.0
20
-2158.0
30
0.0
10
2304.0
20
-2062.0
30
0.0
10
1719.0
20
-1994.0
30
0.0
10
1176.0
20
-1948.0
30
0.0
10
704.0
20
-1921.0
30
0.0
10
332.0
20
-1908.0
30
0.0
10
88.0
20
-1903.0
30
0.0
10
0.0
20
-1903.0
30
0.0
10
54.0
20
-1393.0
30
0.0
6
Solid
370
35
62
0
0
ENDSEC
0
SECTION
2
OBJECTS
0
DICTIONARY
5
11ed
330
0
100
AcDbDictionary
281
1
3
ACAD_GROUP
350
11ee
0
DICTIONARY
5
11ee
330
11ed
100
AcDbDictionary
281
1
0
ENDSEC
0
EOF
