999

0
SECTION
2
HEADER
9
$ACADVER
1
AC1021
9
$HANDSEED
5
1500
0
ENDSEC
0
SECTION
2
CLASSES
0
ENDSEC
0
SECTION
2
TABLES
0
TABLE
2
VPORT
5
14c8
100
AcDbSymbolTable
70
1
0
VPORT
5
14c7
100
AcDbSymbolTableRecord
100
AcDbViewportTableRecord
2
*ACTIVE
10
0
20
0
11
1
21
1
12
500.0
22
500.0
40
1000.0
70
0
0
ENDTAB
0
TABLE
2
LTYPE
5
14c9
100
AcDbSymbolTable
70
3
0
LTYPE
5
14d1
100
AcDbSymbolTableRecord
100
AcDbLinetypeTableRecord
2
Solid
70
0
72
65
73
0
3

0
LTYPE
5
14d2
100
AcDbSymbolTableRecord
100
AcDbLinetypeTableRecord
2
ByBlock
70
0
72
65
73
0
3

0
LTYPE
5
14d3
100
AcDbSymbolTableRecord
100
AcDbLinetypeTableRecord
2
ByLayer
70
0
72
65
73
0
3

0
ENDTAB
0
TABLE
2
LAYER
5
14ca
100
AcDbSymbolTable
70
5
0
LAYER
5
14d4
100
AcDbSymbolTableRecord
100
AcDbLayerTableRecord
2
0
70
0
390
0
0
LAYER
5
14f4
100
AcDbSymbolTableRecord
100
AcDbLayerTableRecord
2
zone_0_q1
70
0
390
0
0
LAYER
5
14f7
100
AcDbSymbolTableRecord
100
AcDbLayerTableRecord
2
zone_1_q1
70
0
390
0
0
LAYER
5
14fa
100
AcDbSymbolTableRecord
100
AcDbLayerTableRecord
2
zone_2_q1
70
0
390
0
0
LAYER
5
14fd
100
AcDbSymbolTableRecord
100
AcDbLayerTableRecord
2
zone_3_q1
70
0
390
0
0
ENDTAB
0
TABLE
2
STYLE
5
14cb
100
AcDbSymbolTable
70
0
0
ENDTAB
0
TABLE
2
VIEW
5
14cc
100
AcDbSymbolTable
70
0
0
ENDTAB
0
TABLE
2
UCS
5
14cd
100
AcDbSymbolTable
70
0
0
ENDTAB
0
TABLE
2
APPID
5
14ce
100
AcDbSymbolTable
70
1
0
APPID
5
14d5
100
AcDbSymbolTableRecord
100
AcDbRegAppTableRecord
2
ACAD
70
0
0
ENDTAB
0
TABLE
2
DIMSTYLE
5
14cf
100
AcDbSymbolTable
70
0
100
AcDbDimStyleTable
71
1
0
ENDTAB
0
TABLE
2
BLOCK_RECORD
5
14d0
100
AcDbSymbolTable
70
2
0
BLOCK_RECORD
5
14d6
100
AcDbSymbolTableRecord
100
AcDbBlockTableRecord
2
*Model_Space
70
0
280
1
281
0
0
BLOCK_RECORD
5
14d7
100
AcDbSymbolTableRecord
100
AcDbBlockTableRecord
2
*Paper_Space
70
0
280
1
281
0
0
ENDTAB
0
ENDSEC
0
SECTION
2
BLOCKS
0
BLOCK
5
14d8
100
AcDbEntity
100
AcDbBlockBegin
2
*Model_Space
70
0
10
0
20
0
30
0
3
*Model_Space
1

0
ENDBLK
5
14d9
100
AcDbEntity
100
AcDbBlockEnd
0
BLOCK
5
14da
100
AcDbEntity
100
AcDbBlockBegin
2
*Paper_Space
70
0
10
0
20
0
30
0
3
*Paper_Space
1

0
ENDBLK
5
14db
100
AcDbEntity
100
AcDbBlockEnd
0
ENDSEC
0
SECTION
2
ENTITIES
0
LWPOLYLINE
5
14de
100
AcDbEntity
100
AcDbPolyline
90
72
70
1
10
2765.0
20
-1923.0
30
0.0
10
2932.0
20
-2083.0
30
0.0
10
3335.0
20
-2224.0
30
0.0
10
3436.0
20
-2057.0
30
0.0
10
3298.0
20
-1709.0
30
0.0
10
3800.0
20
-1281.0
30
0.0
10
4759.0
20
-1227.0
30
0.0
10
5101.0
20
-1067.0
30
0.0
10
5517.0
20
-1004.0
30
0.0
10
5868.0
20
-736.0
30
0.0
10
6326.0
20
-731.0
30
0.0
10
6929.0
20
-418.0
30
0.0
10
7118.0
20
-393.0
30
0.0
10
7328.0
20
-504.0
30
0.0
10
8150.0
20
-364.0
30
0.0
10
8799.0
20
-417.0
30
0.0
10
9074.0
20
-260.0
30
0.0
10
9380.0
20
-306.0
30
0.0
10
9587.0
20
-183.0
30
0.0
10
9697.0
20
0.0
30
0.0
10
10213.0
20
-425.0
30
0.0
10
10115.0
20
-1272.0
30
0.0
10
10193.0
20
-1711.0
30
0.0
10
10138.0
20
-2090.0
30
0.0
10
10208.0
20
-2240.0
30
0.0
10
10130.0
20
-3394.0
30
0.0
10
10368.0
20
-4548.0
30
0.0
10
10552.0
20
-5043.0
30
0.0
10
10343.0
20
-5887.0
30
0.0
10
10400.0
20
-7800.0
30
0.0
10
10119.0
20
-8352.0
30
0.0
10
9621.0
20
-8653.0
30
0.0
10
9464.0
20
-8563.0
30
0.0
10
9343.0
20
-8653.0
30
0.0
10
9131.0
20
-8548.0
30
0.0
10
8759.0
20
-8629.0
30
0.0
10
8399.0
20
-8590.0
30
0.0
10
7929.0
20
-8324.0
30
0.0
10
6450.0
20
-8025.0
30
0.0
10
6321.0
20
-7934.0
30
0.0
10
5901.0
20
-7995.0
30
0.0
10
5546.0
20
-7800.0
30
0.0
10
5134.0
20
-7699.0
30
0.0
10
4995.0
20
-7733.0
30
0.0
10
4831.0
20
-7905.0
30
0.0
10
4263.0
20
-8103.0
30
0.0
10
4211.0
20
-7954.0
30
0.0
10
4158.0
20
-8005.0
30
0.0
10
3679.0
20
-7871.0
30
0.0
10
2877.0
20
-8128.0
30
0.0
10
2347.0
20
-7657.0
30
0.0
10
2486.0
20
-7387.0
30
0.0
10
2264.0
20
-6889.0
30
0.0
10
1866.0
20
-6623.0
30
0.0
10
1555.0
20
-6121.0
30
0.0
10
1073.0
20
-6009.0
30
0.0
10
822.0
20
-6045.0
30
0.0
10
429.0
20
-5792.0
30
0.0
10
0.0
20
-5265.0
30
0.0
10
102.0
20
-4794.0
30
0.0
10
59.0
20
-4437.0
30
0.0
10
217.0
20
-4205.0
30
0.0
10
327.0
20
-3801.0
30
0.0
10
632.0
20
-3586.0
30
0.0
10
1048.0
20
-3496.0
30
0.0
10
1256.0
20
-3361.0
30
0.0
10
1613.0
20
-2839.0
30
0.0
10
1648.0
20
-2387.0
30
0.0
10
2024.0
20
-2085.0
30
0.0
10
2211.0
20
-1761.0
30
0.0
10
2595.0
20
-1578.0
30
0.0
10
2765.0
20
-1923.0
30
0.0
6
Solid
370
35
62
0
0
LWPOLYLINE
5
14e0
100
AcDbEntity
100
AcDbPolyline
90
14
70
1
10
5945.0
20
-7556.0
30
0.0
10
5910.0
20
-7149.0
30
0.0
10
6495.0
20
-6767.0
30
0.0
10
6772.0
20
-6643.0
30
0.0
10
7106.0
20
-6610.0
30
0.0
10
7971.0
20
-6774.0
30
0.0
10
8364.0
20
-7020.0
30
0.0
10
8524.0
20
-7313.0
30
0.0
10
8433.0
20
-7719.0
30
0.0
10
8394.0
20
-8103.0
30
0.0
10
8308.0
20
-8415.0
30
0.0
10
7699.0
20
-8247.0
30
0.0
10
5948.0
20
-7859.0
30
0.0
10
5945.0
20
-7556.0
30
0.0
6
Solid
370
35
62
0
0
LWPOLYLINE
5
14e2
100
AcDbEntity
100
AcDbPolyline
90
5
70
1
10
9084.0
20
-7267.0
30
0.0
10
9074.0
20
-7319.0
30
0.0
10
9000.0
20
-7332.0
30
0.0
10
9018.0
20
-7259.0
30
0.0
10
9084.0
20
-7267.0
30
0.0
6
Solid
370
35
62
0
0
LWPOLYLINE
5
14e4
100
AcDbEntity
100
AcDbPolyline
90
9
70
1
10
9110.0
20
-6541.0
30
0.0
10
9110.0
20
-6662.0
30
0.0
10
9022.0
20
-6662.0
30
0.0
10
8936.0
20
-6605.0
30
0.0
10
8868.0
20
-6481.0
30
0.0
10
8881.0
20
-6400.0
30
0.0
10
8962.0
20
-6390.0
30
0.0
10
9024.0
20
-6427.0
30
0.0
10
9110.0
20
-6541.0
30
0.0
6
Solid
370
35
62
0
0
LWPOLYLINE
5
14e6
100
AcDbEntity
100
AcDbPolyline
90
6
70
1
10
3409.0
20
-7691.0
30
0.0
10
3420.0
20
-7808.0
30
0.0
10
3263.0
20
-7804.0
30
0.0
10
3265.0
20
-7752.0
30
0.0
10
3357.0
20
-7664.0
30
0.0
10
3409.0
20
-7691.0
30
0.0
6
Solid
370
35
62
0
0
LWPOLYLINE
5
14e8
100
AcDbEntity
100
AcDbPolyline
90
8
70
1
10
4432.0
20
-7749.0
30
0.0
10
4403.0
20
-7800.0
30
0.0
10
4241.0
20
-7769.0
30
0.0
10
4214.0
20
-7726.0
30
0.0
10
4289.0
20
-7625.0
30
0.0
10
4358.0
20
-7628.0
30
0.0
10
4441.0
20
-7688.0
30
0.0
10
4432.0
20
-7749.0
30
0.0
6
Solid
370
35
62
0
0
LWPOLYLINE
5
14ea
100
AcDbEntity
100
AcDbPolyline
90
9
70
1
10
8339.0
20
-3585.0
30
0.0
10
8403.0
20
-3806.0
30
0.0
10
8347.0
20
-3940.0
30
0.0
10
8290.0
20
-3925.0
30
0.0
10
8165.0
20
-3718.0
30
0.0
10
8156.0
20
-3629.0
30
0.0
10
8224.0
20
-3521.0
30
0.0
10
8293.0
20
-3527.0
30
0.0
10
8339.0
20
-3585.0
30
0.0
6
Solid
370
35
62
0
0
LWPOLYLINE
5
14ec
100
AcDbEntity
100
AcDbPolyline
90
5
70
1
10
580.0
20
-4073.0
30
0.0
10
475.0
20
-4066.0
30
0.0
10
481.0
20
-3992.0
30
0.0
10
589.0
20
-3986.0
30
0.0
10
580.0
20
-4073.0
30
0.0
6
Solid
370
35
62
0
0
LWPOLYLINE
5
14ee
100
AcDbEntity
100
AcDbPolyline
90
13
70
1
10
7942.0
20
-724.0
30
0.0
10
8079.0
20
-1194.0
30
0.0
10
8063.0
20
-1401.0
30
0.0
10
7981.0
20
-1537.0
30
0.0
10
7760.0
20
-1691.0
30
0.0
10
6829.0
20
-2051.0
30
0.0
10
6659.0
20
-1985.0
30
0.0
10
6492.0
20
-1688.0
30
0.0
10
6004.0
20
-1090.0
30
0.0
10
5825.0
20
-821.0
30
0.0
10
6268.0
20
-769.0
30
0.0
10
7838.0
20
-453.0
30
0.0
10
7942.0
20
-724.0
30
0.0
6
Solid
370
35
62
0
0
LWPOLYLINE
5
14f0
100
AcDbEntity
100
AcDbPolyline
90
9
70
1
10
9912.0
20
-835.0
30
0.0
10
10004.0
20
-831.0
30
0.0
10
10047.0
20
-929.0
30
0.0
10
10030.0
20
-1016.0
30
0.0
10
9982.0
20
-1070.0
30
0.0
10
9858.0
20
-1117.0
30
0.0
10
9807.0
20
-974.0
30
0.0
10
9875.0
20
-872.0
30
0.0
10
9912.0
20
-835.0
30
0.0
6
Solid
370
35
62
0
0
LWPOLYLINE
5
14f2
100
AcDbEntity
100
AcDbPolyline
90
10
70
1
10
8903.0
20
-1408.0
30
0.0
10
8859.0
20
-1344.0
30
0.0
10
8996.0
20
-1154.0
30
0.0
10
9096.0
20
-1063.0
30
0.0
10
9331.0
20
-947.0
30
0.0
10
9350.0
20
-1077.0
30
0.0
10
9327.0
20
-1148.0
30
0.0
10
9171.0
20
-1306.0
30
0.0
10
8968.0
20
-1415.0
30
0.0
10
8903.0
20
-1408.0
30
0.0
6
Solid
370
35
62
0
0
LWPOLYLINE
5
14f5
100
AcDbEntity
8
zone_0_q1
100
AcDbPolyline
90
5
70
1
10
9458.0
20
-8457.0
30
0.0
10
8968.0
20
-8431.0
30
0.0
10
8929.0
20
-7880.0
30
0.0
10
9439.0
20
-7877.0
30
0.0
10
9458.0
20
-8457.0
30
0.0
6
Solid
370
35
62
40
0
LWPOLYLINE
5
14f8
100
AcDbEntity
8
zone_1_q1
100
AcDbPolyline
90
6
70
1
10
4178.0
20
-7884.0
30
0.0
10
3665.0
20
-7847.0
30
0.0
10
3572.0
20
-7872.0
30
0.0
10
3571.0
20
-7240.0
30
0.0
10
4151.0
20
-7337.0
30
0.0
10
4178.0
20
-7884.0
30
0.0
6
Solid
370
35
62
40
0
LWPOLYLINE
5
14fb
100
AcDbEntity
8
zone_2_q1
100
AcDbPolyline
90
7
70
1
10
4231.0
20
-2156.0
30
0.0
10
3758.0
20
-2257.0
30
0.0
10
3888.0
20
-1994.0
30
0.0
10
3819.0
20
-1772.0
30
0.0
10
4150.0
20
-1541.0
30
0.0
10
4594.0
20
-1396.0
30
0.0
10
4231.0
20
-2156.0
30
0.0
6
Solid
370
35
62
40
0
LWPOLYLINE
5
14fe
100
AcDbEntity
8
zone_3_q1
100
AcDbPolyline
90
5
70
1
10
8765.0
20
-1105.0
30
0.0
10
8488.0
20
-1268.0
30
0.0
10
8341.0
20
-704.0
30
0.0
10
8877.0
20
-601.0
30
0.0
10
8765.0
20
-1105.0
30
0.0
6
Solid
370
35
62
40
0
ENDSEC
0
SECTION
2
OBJECTS
0
DICTIONARY
5
14dc
330
0
100
AcDbDictionary
281
1
3
ACAD_GROUP
350
14dd
0
DICTIONARY
5
14dd
330
14dc
100
AcDbDictionary
281
1
0
ENDSEC
0
EOF
