999

0
SECTION
2
HEADER
9
$ACADVER
1
AC1021
9
$HANDSEED
5
1721
0
ENDSEC
0
SECTION
2
CLASSES
0
ENDSEC
0
SECTION
2
TABLES
0
TABLE
2
VPORT
5
16f1
100
AcDbSymbolTable
70
1
0
VPORT
5
16f0
100
AcDbSymbolTableRecord
100
AcDbViewportTableRecord
2
*ACTIVE
10
0
20
0
11
1
21
1
12
500.0
22
500.0
40
1000.0
70
0
0
ENDTAB
0
TABLE
2
LTYPE
5
16f2
100
AcDbSymbolTable
70
3
0
LTYPE
5
16fa
100
AcDbSymbolTableRecord
100
AcDbLinetypeTableRecord
2
Solid
70
0
72
65
73
0
3

0
LTYPE
5
16fb
100
AcDbSymbolTableRecord
100
AcDbLinetypeTableRecord
2
ByBlock
70
0
72
65
73
0
3

0
LTYPE
5
16fc
100
AcDbSymbolTableRecord
100
AcDbLinetypeTableRecord
2
ByLayer
70
0
72
65
73
0
3

0
ENDTAB
0
TABLE
2
LAYER
5
16f3
100
AcDbSymbolTable
70
5
0
LAYER
5
16fd
100
AcDbSymbolTableRecord
100
AcDbLayerTableRecord
2
0
70
0
390
0
0
LAYER
5
1715
100
AcDbSymbolTableRecord
100
AcDbLayerTableRecord
2
zone_0_q1
70
0
390
0
0
LAYER
5
1718
100
AcDbSymbolTableRecord
100
AcDbLayerTableRecord
2
zone_1_q1
70
0
390
0
0
LAYER
5
171b
100
AcDbSymbolTableRecord
100
AcDbLayerTableRecord
2
zone_2_q1
70
0
390
0
0
LAYER
5
171e
100
AcDbSymbolTableRecord
100
AcDbLayerTableRecord
2
zone_3_q1
70
0
390
0
0
ENDTAB
0
TABLE
2
STYLE
5
16f4
100
AcDbSymbolTable
70
0
0
ENDTAB
0
TABLE
2
VIEW
5
16f5
100
AcDbSymbolTable
70
0
0
ENDTAB
0
TABLE
2
UCS
5
16f6
100
AcDbSymbolTable
70
0
0
ENDTAB
0
TABLE
2
APPID
5
16f7
100
AcDbSymbolTable
70
1
0
APPID
5
16fe
100
AcDbSymbolTableRecord
100
AcDbRegAppTableRecord
2
ACAD
70
0
0
ENDTAB
0
TABLE
2
DIMSTYLE
5
16f8
100
AcDbSymbolTable
70
0
100
AcDbDimStyleTable
71
1
0
ENDTAB
0
TABLE
2
BLOCK_RECORD
5
16f9
100
AcDbSymbolTable
70
2
0
BLOCK_RECORD
5
16ff
100
AcDbSymbolTableRecord
100
AcDbBlockTableRecord
2
*Model_Space
70
0
280
1
281
0
0
BLOCK_RECORD
5
1700
100
AcDbSymbolTableRecord
100
AcDbBlockTableRecord
2
*Paper_Space
70
0
280
1
281
0
0
ENDTAB
0
ENDSEC
0
SECTION
2
BLOCKS
0
BLOCK
5
1701
100
AcDbEntity
100
AcDbBlockBegin
2
*Model_Space
70
0
10
0
20
0
30
0
3
*Model_Space
1

0
ENDBLK
5
1702
100
AcDbEntity
100
AcDbBlockEnd
0
BLOCK
5
1703
100
AcDbEntity
100
AcDbBlockBegin
2
*Paper_Space
70
0
10
0
20
0
30
0
3
*Paper_Space
1

0
ENDBLK
5
1704
100
AcDbEntity
100
AcDbBlockEnd
0
ENDSEC
0
SECTION
2
ENTITIES
0
LWPOLYLINE
5
1707
100
AcDbEntity
100
AcDbPolyline
90
78
70
1
10
1997.0
20
0.0
30
0.0
10
2108.0
20
-182.0
30
0.0
10
2570.0
20
-434.0
30
0.0
10
2861.0
20
-736.0
30
0.0
10
2828.0
20
-240.0
30
0.0
10
3445.0
20
-443.0
30
0.0
10
3763.0
20
-459.0
30
0.0
10
3927.0
20
-641.0
30
0.0
10
4117.0
20
-707.0
30
0.0
10
4843.0
20
-602.0
30
0.0
10
5712.0
20
-711.0
30
0.0
10
6372.0
20
-661.0
30
0.0
10
7165.0
20
-301.0
30
0.0
10
8108.0
20
-474.0
30
0.0
10
8276.0
20
-405.0
30
0.0
10
8456.0
20
-559.0
30
0.0
10
8671.0
20
-348.0
30
0.0
10
9262.0
20
-612.0
30
0.0
10
9543.0
20
-1303.0
30
0.0
10
9410.0
20
-2261.0
30
0.0
10
9449.0
20
-3686.0
30
0.0
10
9288.0
20
-3945.0
30
0.0
10
9483.0
20
-5067.0
30
0.0
10
9407.0
20
-5182.0
30
0.0
10
9518.0
20
-5610.0
30
0.0
10
9490.0
20
-5935.0
30
0.0
10
9640.0
20
-6650.0
30
0.0
10
9556.0
20
-6893.0
30
0.0
10
9753.0
20
-7550.0
30
0.0
10
10042.0
20
-7926.0
30
0.0
10
9944.0
20
-8084.0
30
0.0
10
8825.0
20
-8776.0
30
0.0
10
8755.0
20
-8763.0
30
0.0
10
8802.0
20
-8727.0
30
0.0
10
8707.0
20
-8680.0
30
0.0
10
8696.0
20
-8543.0
30
0.0
10
8437.0
20
-8194.0
30
0.0
10
8297.0
20
-8103.0
30
0.0
10
8125.0
20
-8170.0
30
0.0
10
8007.0
20
-8548.0
30
0.0
10
7911.0
20
-8558.0
30
0.0
10
7593.0
20
-8343.0
30
0.0
10
6998.0
20
-8268.0
30
0.0
10
6388.0
20
-8372.0
30
0.0
10
6173.0
20
-8127.0
30
0.0
10
5778.0
20
-7924.0
30
0.0
10
5179.0
20
-7895.0
30
0.0
10
4872.0
20
-7961.0
30
0.0
10
4234.0
20
-7529.0
30
0.0
10
3850.0
20
-7557.0
30
0.0
10
3844.0
20
-7641.0
30
0.0
10
3685.0
20
-7536.0
30
0.0
10
3378.0
20
-7812.0
30
0.0
10
3184.0
20
-8131.0
30
0.0
10
2666.0
20
-7719.0
30
0.0
10
1968.0
20
-8308.0
30
0.0
10
1680.0
20
-8050.0
30
0.0
10
1397.0
20
-7963.0
30
0.0
10
1884.0
20
-7041.0
30
0.0
10
1881.0
20
-6928.0
30
0.0
10
1615.0
20
-6820.0
30
0.0
10
1188.0
20
-6037.0
30
0.0
10
316.0
20
-5537.0
30
0.0
10
193.0
20
-4685.0
30
0.0
10
0.0
20
-4233.0
30
0.0
10
160.0
20
-3954.0
30
0.0
10
13.0
20
-3027.0
30
0.0
10
132.0
20
-2984.0
30
0.0
10
227.0
20
-2678.0
30
0.0
10
329.0
20
-2559.0
30
0.0
10
1185.0
20
-2505.0
30
0.0
10
1470.0
20
-1917.0
30
0.0
10
1741.0
20
-1724.0
30
0.0
10
1887.0
20
-1471.0
30
0.0
10
1910.0
20
-1189.0
30
0.0
10
1709.0
20
-759.0
30
0.0
10
1441.0
20
-557.0
30
0.0
10
1997.0
20
0.0
30
0.0
6
Solid
370
35
62
0
0
LWPOLYLINE
5
1709
100
AcDbEntity
100
AcDbPolyline
90
5
70
1
10
9776.0
20
-7910.0
30
0.0
10
9724.0
20
-7831.0
30
0.0
10
9805.0
20
-7812.0
30
0.0
10
9858.0
20
-7886.0
30
0.0
10
9776.0
20
-7910.0
30
0.0
6
Solid
370
35
62
0
0
LWPOLYLINE
5
170b
100
AcDbEntity
100
AcDbPolyline
90
15
70
1
10
6509.0
20
-811.0
30
0.0
10
6416.0
20
-1086.0
30
0.0
10
6283.0
20
-1237.0
30
0.0
10
5760.0
20
-1368.0
30
0.0
10
5427.0
20
-1342.0
30
0.0
10
5227.0
20
-1133.0
30
0.0
10
5142.0
20
-889.0
30
0.0
10
5125.0
20
-645.0
30
0.0
10
5437.0
20
-630.0
30
0.0
10
5552.0
20
-686.0
30
0.0
10
5728.0
20
-711.0
30
0.0
10
5965.0
20
-646.0
30
0.0
10
6394.0
20
-658.0
30
0.0
10
6605.0
20
-571.0
30
0.0
10
6509.0
20
-811.0
30
0.0
6
Solid
370
35
62
0
0
LWPOLYLINE
5
170d
100
AcDbEntity
100
AcDbPolyline
90
4
70
1
10
3563.0
20
-662.0
30
0.0
10
3603.0
20
-548.0
30
0.0
10
3694.0
20
-649.0
30
0.0
10
3563.0
20
-662.0
30
0.0
6
Solid
370
35
62
0
0
LWPOLYLINE
5
170f
100
AcDbEntity
100
AcDbPolyline
90
5
70
1
10
8866.0
20
-3992.0
30
0.0
10
8778.0
20
-3958.0
30
0.0
10
8823.0
20
-3888.0
30
0.0
10
8898.0
20
-3904.0
30
0.0
10
8866.0
20
-3992.0
30
0.0
6
Solid
370
35
62
0
0
LWPOLYLINE
5
1711
100
AcDbEntity
100
AcDbPolyline
90
4
70
1
10
1751.0
20
-7813.0
30
0.0
10
1635.0
20
-7735.0
30
0.0
10
1776.0
20
-7655.0
30
0.0
10
1751.0
20
-7813.0
30
0.0
6
Solid
370
35
62
0
0
LWPOLYLINE
5
1713
100
AcDbEntity
100
AcDbPolyline
90
4
70
1
10
2355.0
20
-6519.0
30
0.0
10
2195.0
20
-6507.0
30
0.0
10
2263.0
20
-6388.0
30
0.0
10
2355.0
20
-6519.0
30
0.0
6
Solid
370
35
62
0
0
LWPOLYLINE
5
1716
100
AcDbEntity
8
zone_0_q1
100
AcDbPolyline
90
5
70
1
10
7999.0
20
-7144.0
30
0.0
10
7837.0
20
-8024.0
30
0.0
10
7326.0
20
-7864.0
30
0.0
10
7211.0
20
-7215.0
30
0.0
10
7999.0
20
-7144.0
30
0.0
6
Solid
370
35
62
40
0
LWPOLYLINE
5
1719
100
AcDbEntity
8
zone_1_q1
100
AcDbPolyline
90
5
70
1
10
3545.0
20
-7329.0
30
0.0
10
2839.0
20
-7326.0
30
0.0
10
3025.0
20
-6638.0
30
0.0
10
3607.0
20
-6683.0
30
0.0
10
3545.0
20
-7329.0
30
0.0
6
Solid
370
35
62
40
0
LWPOLYLINE
5
171c
100
AcDbEntity
8
zone_2_q1
100
AcDbPolyline
90
5
70
1
10
8346.0
20
-1439.0
30
0.0
10
7603.0
20
-1548.0
30
0.0
10
7650.0
20
-631.0
30
0.0
10
8446.0
20
-579.0
30
0.0
10
8346.0
20
-1439.0
30
0.0
6
Solid
370
35
62
40
0
LWPOLYLINE
5
171f
100
AcDbEntity
8
zone_3_q1
100
AcDbPolyline
90
5
70
1
10
3821.0
20
-1649.0
30
0.0
10
2963.0
20
-1743.0
30
0.0
10
3083.0
20
-872.0
30
0.0
10
3883.0
20
-839.0
30
0.0
10
3821.0
20
-1649.0
30
0.0
6
Solid
370
35
62
40
0
ENDSEC
0
SECTION
2
OBJECTS
0
DICTIONARY
5
1705
330
0
100
AcDbDictionary
281
1
3
ACAD_GROUP
350
1706
0
DICTIONARY
5
1706
330
1705
100
AcDbDictionary
281
1
0
ENDSEC
0
EOF
