999

0
SECTION
2
HEADER
9
$ACADVER
1
AC1021
9
$HANDSEED
5
15a9
0
ENDSEC
0
SECTION
2
CLASSES
0
ENDSEC
0
SECTION
2
TABLES
0
TABLE
2
VPORT
5
1571
100
AcDbSymbolTable
70
1
0
VPORT
5
1570
100
AcDbSymbolTableRecord
100
AcDbViewportTableRecord
2
*ACTIVE
10
0
20
0
11
1
21
1
12
500.0
22
500.0
40
1000.0
70
0
0
ENDTAB
0
TABLE
2
LTYPE
5
1572
100
AcDbSymbolTable
70
3
0
LTYPE
5
157a
100
AcDbSymbolTableRecord
100
AcDbLinetypeTableRecord
2
Solid
70
0
72
65
73
0
3

0
LTYPE
5
157b
100
AcDbSymbolTableRecord
100
AcDbLinetypeTableRecord
2
ByBlock
70
0
72
65
73
0
3

0
LTYPE
5
157c
100
AcDbSymbolTableRecord
100
AcDbLinetypeTableRecord
2
ByLayer
70
0
72
65
73
0
3

0
ENDTAB
0
TABLE
2
LAYER
5
1573
100
AcDbSymbolTable
70
5
0
LAYER
5
157d
100
AcDbSymbolTableRecord
100
AcDbLayerTableRecord
2
0
70
0
390
0
0
LAYER
5
159d
100
AcDbSymbolTableRecord
100
AcDbLayerTableRecord
2
zone_0_q1
70
0
390
0
0
LAYER
5
15a0
100
AcDbSymbolTableRecord
100
AcDbLayerTableRecord
2
zone_1_q1
70
0
390
0
0
LAYER
5
15a3
100
AcDbSymbolTableRecord
100
AcDbLayerTableRecord
2
zone_2_q1
70
0
390
0
0
LAYER
5
15a6
100
AcDbSymbolTableRecord
100
AcDbLayerTableRecord
2
zone_3_q1
70
0
390
0
0
ENDTAB
0
TABLE
2
STYLE
5
1574
100
AcDbSymbolTable
70
0
0
ENDTAB
0
TABLE
2
VIEW
5
1575
100
AcDbSymbolTable
70
0
0
ENDTAB
0
TABLE
2
UCS
5
1576
100
AcDbSymbolTable
70
0
0
ENDTAB
0
TABLE
2
APPID
5
1577
100
AcDbSymbolTable
70
1
0
APPID
5
157e
100
AcDbSymbolTableRecord
100
AcDbRegAppTableRecord
2
ACAD
70
0
0
ENDTAB
0
TABLE
2
DIMSTYLE
5
1578
100
AcDbSymbolTable
70
0
100
AcDbDimStyleTable
71
1
0
ENDTAB
0
TABLE
2
BLOCK_RECORD
5
1579
100
AcDbSymbolTable
70
2
0
BLOCK_RECORD
5
157f
100
AcDbSymbolTableRecord
100
AcDbBlockTableRecord
2
*Model_Space
70
0
280
1
281
0
0
BLOCK_RECORD
5
1580
100
AcDbSymbolTableRecord
100
AcDbBlockTableRecord
2
*Paper_Space
70
0
280
1
281
0
0
ENDTAB
0
ENDSEC
0
SECTION
2
BLOCKS
0
BLOCK
5
1581
100
AcDbEntity
100
AcDbBlockBegin
2
*Model_Space
70
0
10
0
20
0
30
0
3
*Model_Space
1

0
ENDBLK
5
1582
100
AcDbEntity
100
AcDbBlockEnd
0
BLOCK
5
1583
100
AcDbEntity
100
AcDbBlockBegin
2
*Paper_Space
70
0
10
0
20
0
30
0
3
*Paper_Space
1

0
ENDBLK
5
1584
100
AcDbEntity
100
AcDbBlockEnd
0
ENDSEC
0
SECTION
2
ENTITIES
0
LWPOLYLINE
5
1587
100
AcDbEntity
100
AcDbPolyline
90
60
70
1
10
1059.0
20
-2626.0
30
0.0
10
1473.0
20
-2333.0
30
0.0
10
1702.0
20
-2353.0
30
0.0
10
2025.0
20
-1738.0
30
0.0
10
2118.0
20
-1207.0
30
0.0
10
2528.0
20
-797.0
30
0.0
10
2701.0
20
-873.0
30
0.0
10
3001.0
20
-781.0
30
0.0
10
3611.0
20
-1238.0
30
0.0
10
4224.0
20
-1363.0
30
0.0
10
4889.0
20
-1114.0
30
0.0
10
5561.0
20
-994.0
30
0.0
10
6658.0
20
-209.0
30
0.0
10
6984.0
20
-174.0
30
0.0
10
7269.0
20
0.0
30
0.0
10
8087.0
20
-326.0
30
0.0
10
8807.0
20
-499.0
30
0.0
10
8701.0
20
-1506.0
30
0.0
10
8911.0
20
-2064.0
30
0.0
10
8972.0
20
-3144.0
30
0.0
10
9129.0
20
-3484.0
30
0.0
10
9051.0
20
-3794.0
30
0.0
10
9149.0
20
-4505.0
30
0.0
10
9043.0
20
-4920.0
30
0.0
10
9165.0
20
-5395.0
30
0.0
10
9132.0
20
-5737.0
30
0.0
10
9248.0
20
-6166.0
30
0.0
10
9294.0
20
-6914.0
30
0.0
10
9492.0
20
-7189.0
30
0.0
10
9488.0
20
-7760.0
30
0.0
10
9563.0
20
-8030.0
30
0.0
10
9488.0
20
-8310.0
30
0.0
10
9198.0
20
-8041.0
30
0.0
10
8987.0
20
-8099.0
30
0.0
10
8918.0
20
-8017.0
30
0.0
10
8150.0
20
-7936.0
30
0.0
10
7324.0
20
-7561.0
30
0.0
10
6984.0
20
-7535.0
30
0.0
10
6273.0
20
-7265.0
30
0.0
10
5941.0
20
-7280.0
30
0.0
10
5580.0
20
-7472.0
30
0.0
10
5030.0
20
-7086.0
30
0.0
10
4705.0
20
-6952.0
30
0.0
10
4206.0
20
-7070.0
30
0.0
10
4076.0
20
-6861.0
30
0.0
10
3294.0
20
-6517.0
30
0.0
10
3032.0
20
-6533.0
30
0.0
10
2856.0
20
-6664.0
30
0.0
10
2572.0
20
-6453.0
30
0.0
10
2405.0
20
-6025.0
30
0.0
10
1946.0
20
-5892.0
30
0.0
10
1690.0
20
-5978.0
30
0.0
10
1425.0
20
-5700.0
30
0.0
10
1035.0
20
-5015.0
30
0.0
10
432.0
20
-4863.0
30
0.0
10
0.0
20
-4495.0
30
0.0
10
129.0
20
-4221.0
30
0.0
10
388.0
20
-3951.0
30
0.0
10
559.0
20
-2648.0
30
0.0
10
1059.0
20
-2626.0
30
0.0
6
Solid
370
35
62
0
0
LWPOLYLINE
5
1589
100
AcDbEntity
100
AcDbPolyline
90
5
70
1
10
7615.0
20
-6685.0
30
0.0
10
7574.0
20
-6717.0
30
0.0
10
7546.0
20
-6682.0
30
0.0
10
7581.0
20
-6652.0
30
0.0
10
7615.0
20
-6685.0
30
0.0
6
Solid
370
35
62
0
0
LWPOLYLINE
5
158b
100
AcDbEntity
100
AcDbPolyline
90
5
70
1
10
7516.0
20
-6689.0
30
0.0
10
7475.0
20
-6721.0
30
0.0
10
7447.0
20
-6685.0
30
0.0
10
7481.0
20
-6653.0
30
0.0
10
7516.0
20
-6689.0
30
0.0
6
Solid
370
35
62
0
0
LWPOLYLINE
5
158d
100
AcDbEntity
100
AcDbPolyline
90
7
70
1
10
541.0
20
-3892.0
30
0.0
10
559.0
20
-4044.0
30
0.0
10
422.0
20
-4248.0
30
0.0
10
331.0
20
-4289.0
30
0.0
10
172.0
20
-4243.0
30
0.0
10
481.0
20
-3851.0
30
0.0
10
541.0
20
-3892.0
30
0.0
6
Solid
370
35
62
0
0
LWPOLYLINE
5
158f
100
AcDbEntity
100
AcDbPolyline
90
5
70
1
10
1466.0
20
-4723.0
30
0.0
10
1512.0
20
-4685.0
30
0.0
10
1549.0
20
-4741.0
30
0.0
10
1493.0
20
-4775.0
30
0.0
10
1466.0
20
-4723.0
30
0.0
6
Solid
370
35
62
0
0
LWPOLYLINE
5
1591
100
AcDbEntity
100
AcDbPolyline
90
4
70
1
10
299.0
20
-4491.0
30
0.0
10
262.0
20
-4408.0
30
0.0
10
370.0
20
-4388.0
30
0.0
10
299.0
20
-4491.0
30
0.0
6
Solid
370
35
62
0
0
LWPOLYLINE
5
1593
100
AcDbEntity
100
AcDbPolyline
90
6
70
1
10
7433.0
20
-6734.0
30
0.0
10
7393.0
20
-6835.0
30
0.0
10
7307.0
20
-6809.0
30
0.0
10
7292.0
20
-6718.0
30
0.0
10
7346.0
20
-6694.0
30
0.0
10
7433.0
20
-6734.0
30
0.0
6
Solid
370
35
62
0
0
LWPOLYLINE
5
1595
100
AcDbEntity
100
AcDbPolyline
90
5
70
1
10
3518.0
20
-3315.0
30
0.0
10
3530.0
20
-3217.0
30
0.0
10
3626.0
20
-3159.0
30
0.0
10
3614.0
20
-3268.0
30
0.0
10
3518.0
20
-3315.0
30
0.0
6
Solid
370
35
62
0
0
LWPOLYLINE
5
1597
100
AcDbEntity
100
AcDbPolyline
90
5
70
1
10
4371.0
20
-1605.0
30
0.0
10
4412.0
20
-1657.0
30
0.0
10
4308.0
20
-1748.0
30
0.0
10
4282.0
20
-1664.0
30
0.0
10
4371.0
20
-1605.0
30
0.0
6
Solid
370
35
62
0
0
LWPOLYLINE
5
1599
100
AcDbEntity
100
AcDbPolyline
90
10
70
1
10
6800.0
20
-6097.0
30
0.0
10
7129.0
20
-6103.0
30
0.0
10
7233.0
20
-6130.0
30
0.0
10
7379.0
20
-6245.0
30
0.0
10
7494.0
20
-6425.0
30
0.0
10
7411.0
20
-6597.0
30
0.0
10
7166.0
20
-6603.0
30
0.0
10
6911.0
20
-6511.0
30
0.0
10
6677.0
20
-6202.0
30
0.0
10
6800.0
20
-6097.0
30
0.0
6
Solid
370
35
62
0
0
LWPOLYLINE
5
159b
100
AcDbEntity
100
AcDbPolyline
90
9
70
1
10
6454.0
20
-1710.0
30
0.0
10
6872.0
20
-1507.0
30
0.0
10
7119.0
20
-1304.0
30
0.0
10
7296.0
20
-1356.0
30
0.0
10
7348.0
20
-1521.0
30
0.0
10
7236.0
20
-1927.0
30
0.0
10
6453.0
20
-2023.0
30
0.0
10
6234.0
20
-1982.0
30
0.0
10
6454.0
20
-1710.0
30
0.0
6
Solid
370
35
62
0
0
LWPOLYLINE
5
159e
100
AcDbEntity
8
zone_0_q1
100
AcDbPolyline
90
5
70
1
10
8469.0
20
-580.0
30
0.0
10
8269.0
20
-1260.0
30
0.0
10
7649.0
20
-980.0
30
0.0
10
7749.0
20
-340.0
30
0.0
10
8469.0
20
-580.0
30
0.0
6
Solid
370
35
62
40
0
LWPOLYLINE
5
15a1
100
AcDbEntity
8
zone_1_q1
100
AcDbPolyline
90
5
70
1
10
8683.0
20
-7434.0
30
0.0
10
8764.0
20
-7874.0
30
0.0
10
8171.0
20
-7837.0
30
0.0
10
8230.0
20
-7437.0
30
0.0
10
8683.0
20
-7434.0
30
0.0
6
Solid
370
35
62
40
0
LWPOLYLINE
5
15a4
100
AcDbEntity
8
zone_2_q1
100
AcDbPolyline
90
5
70
1
10
3740.0
20
-6066.0
30
0.0
10
3695.0
20
-6555.0
30
0.0
10
3349.0
20
-6481.0
30
0.0
10
3316.0
20
-6030.0
30
0.0
10
3740.0
20
-6066.0
30
0.0
6
Solid
370
35
62
40
0
LWPOLYLINE
5
15a7
100
AcDbEntity
8
zone_3_q1
100
AcDbPolyline
90
5
70
1
10
3345.0
20
-1609.0
30
0.0
10
2932.0
20
-1579.0
30
0.0
10
2777.0
20
-1038.0
30
0.0
10
3325.0
20
-1141.0
30
0.0
10
3345.0
20
-1609.0
30
0.0
6
Solid
370
35
62
40
0
ENDSEC
0
SECTION
2
OBJECTS
0
DICTIONARY
5
1585
330
0
100
AcDbDictionary
281
1
3
ACAD_GROUP
350
1586
0
DICTIONARY
5
1586
330
1585
100
AcDbDictionary
281
1
0
ENDSEC
0
EOF
