999

0
SECTION
2
HEADER
9
$ACADVER
1
AC1021
9
$HANDSEED
5
1619
0
ENDSEC
0
SECTION
2
CLASSES
0
ENDSEC
0
SECTION
2
TABLES
0
TABLE
2
VPORT
5
15e7
100
AcDbSymbolTable
70
1
0
VPORT
5
15e6
100
AcDbSymbolTableRecord
100
AcDbViewportTableRecord
2
*ACTIVE
10
0
20
0
11
1
21
1
12
500.0
22
500.0
40
1000.0
70
0
0
ENDTAB
0
TABLE
2
LTYPE
5
15e8
100
AcDbSymbolTable
70
3
0
LTYPE
5
15f0
100
AcDbSymbolTableRecord
100
AcDbLinetypeTableRecord
2
Solid
70
0
72
65
73
0
3

0
LTYPE
5
15f1
100
AcDbSymbolTableRecord
100
AcDbLinetypeTableRecord
2
ByBlock
70
0
72
65
73
0
3

0
LTYPE
5
15f2
100
AcDbSymbolTableRecord
100
AcDbLinetypeTableRecord
2
ByLayer
70
0
72
65
73
0
3

0
ENDTAB
0
TABLE
2
LAYER
5
15e9
100
AcDbSymbolTable
70
5
0
LAYER
5
15f3
100
AcDbSymbolTableRecord
100
AcDbLayerTableRecord
2
0
70
0
390
0
0
LAYER
5
160d
100
AcDbSymbolTableRecord
100
AcDbLayerTableRecord
2
zone_0_q1
70
0
390
0
0
LAYER
5
1610
100
AcDbSymbolTableRecord
100
AcDbLayerTableRecord
2
zone_1_q1
70
0
390
0
0
LAYER
5
1613
100
AcDbSymbolTableRecord
100
AcDbLayerTableRecord
2
zone_2_q1
70
0
390
0
0
LAYER
5
1616
100
AcDbSymbolTableRecord
100
AcDbLayerTableRecord
2
zone_3_q1
70
0
390
0
0
ENDTAB
0
TABLE
2
STYLE
5
15ea
100
AcDbSymbolTable
70
0
0
ENDTAB
0
TABLE
2
VIEW
5
15eb
100
AcDbSymbolTable
70
0
0
ENDTAB
0
TABLE
2
UCS
5
15ec
100
AcDbSymbolTable
70
0
0
ENDTAB
0
TABLE
2
APPID
5
15ed
100
AcDbSymbolTable
70
1
0
APPID
5
15f4
100
AcDbSymbolTableRecord
100
AcDbRegAppTableRecord
2
ACAD
70
0
0
ENDTAB
0
TABLE
2
DIMSTYLE
5
15ee
100
AcDbSymbolTable
70
0
100
AcDbDimStyleTable
71
1
0
ENDTAB
0
TABLE
2
BLOCK_RECORD
5
15ef
100
AcDbSymbolTable
70
2
0
BLOCK_RECORD
5
15f5
100
AcDbSymbolTableRecord
100
AcDbBlockTableRecord
2
*Model_Space
70
0
280
1
281
0
0
BLOCK_RECORD
5
15f6
100
AcDbSymbolTableRecord
100
AcDbBlockTableRecord
2
*Paper_Space
70
0
280
1
281
0
0
ENDTAB
0
ENDSEC
0
SECTION
2
BLOCKS
0
BLOCK
5
15f7
100
AcDbEntity
100
AcDbBlockBegin
2
*Model_Space
70
0
10
0
20
0
30
0
3
*Model_Space
1

0
ENDBLK
5
15f8
100
AcDbEntity
100
AcDbBlockEnd
0
BLOCK
5
15f9
100
AcDbEntity
100
AcDbBlockBegin
2
*Paper_Space
70
0
10
0
20
0
30
0
3
*Paper_Space
1

0
ENDBLK
5
15fa
100
AcDbEntity
100
AcDbBlockEnd
0
ENDSEC
0
SECTION
2
ENTITIES
0
LWPOLYLINE
5
15fd
100
AcDbEntity
100
AcDbPolyline
90
80
70
1
10
895.0
20
-3003.0
30
0.0
10
1201.0
20
-2879.0
30
0.0
10
1190.0
20
-2275.0
30
0.0
10
1450.0
20
-2052.0
30
0.0
10
1582.0
20
-1745.0
30
0.0
10
2073.0
20
-1829.0
30
0.0
10
1914.0
20
-1149.0
30
0.0
10
2223.0
20
-983.0
30
0.0
10
2485.0
20
-1083.0
30
0.0
10
2738.0
20
-1031.0
30
0.0
10
2940.0
20
-748.0
30
0.0
10
3163.0
20
-759.0
30
0.0
10
3869.0
20
-1116.0
30
0.0
10
4269.0
20
-1082.0
30
0.0
10
4587.0
20
-1349.0
30
0.0
10
5172.0
20
-1404.0
30
0.0
10
6316.0
20
-997.0
30
0.0
10
6687.0
20
-758.0
30
0.0
10
6901.0
20
-815.0
30
0.0
10
7426.0
20
-747.0
30
0.0
10
7769.0
20
-575.0
30
0.0
10
8288.0
20
-486.0
30
0.0
10
8949.0
20
-178.0
30
0.0
10
9946.0
20
0.0
30
0.0
10
10248.0
20
-416.0
30
0.0
10
9818.0
20
-939.0
30
0.0
10
9714.0
20
-1370.0
30
0.0
10
9808.0
20
-2187.0
30
0.0
10
10065.0
20
-2714.0
30
0.0
10
10005.0
20
-2899.0
30
0.0
10
10074.0
20
-3193.0
30
0.0
10
9888.0
20
-3690.0
30
0.0
10
9714.0
20
-3851.0
30
0.0
10
9599.0
20
-4510.0
30
0.0
10
9766.0
20
-5714.0
30
0.0
10
10063.0
20
-6512.0
30
0.0
10
10001.0
20
-6973.0
30
0.0
10
9766.0
20
-7325.0
30
0.0
10
9688.0
20
-7258.0
30
0.0
10
9600.0
20
-7300.0
30
0.0
10
9591.0
20
-7459.0
30
0.0
10
9685.0
20
-7604.0
30
0.0
10
9325.0
20
-8237.0
30
0.0
10
8762.0
20
-8981.0
30
0.0
10
8207.0
20
-8891.0
30
0.0
10
7885.0
20
-8983.0
30
0.0
10
7715.0
20
-8902.0
30
0.0
10
7505.0
20
-8931.0
30
0.0
10
7198.0
20
-8512.0
30
0.0
10
6613.0
20
-8132.0
30
0.0
10
5351.0
20
-7787.0
30
0.0
10
4753.0
20
-8034.0
30
0.0
10
4516.0
20
-7993.0
30
0.0
10
4298.0
20
-8083.0
30
0.0
10
3783.0
20
-8767.0
30
0.0
10
3658.0
20
-8749.0
30
0.0
10
3585.0
20
-8615.0
30
0.0
10
3302.0
20
-8560.0
30
0.0
10
3102.0
20
-8331.0
30
0.0
10
3245.0
20
-8216.0
30
0.0
10
3114.0
20
-8234.0
30
0.0
10
2578.0
20
-8748.0
30
0.0
10
2282.0
20
-8740.0
30
0.0
10
1986.0
20
-8444.0
30
0.0
10
2184.0
20
-7950.0
30
0.0
10
2140.0
20
-7545.0
30
0.0
10
2239.0
20
-7486.0
30
0.0
10
1766.0
20
-6803.0
30
0.0
10
1508.0
20
-6318.0
30
0.0
10
1518.0
20
-6147.0
30
0.0
10
579.0
20
-5730.0
30
0.0
10
329.0
20
-5798.0
30
0.0
10
192.0
20
-5590.0
30
0.0
10
48.0
20
-5049.0
30
0.0
10
107.0
20
-4788.0
30
0.0
10
0.0
20
-4042.0
30
0.0
10
127.0
20
-3869.0
30
0.0
10
145.0
20
-3190.0
30
0.0
10
350.0
20
-2916.0
30
0.0
10
895.0
20
-3003.0
30
0.0
6
Solid
370
35
62
0
0
LWPOLYLINE
5
15ff
100
AcDbEntity
100
AcDbPolyline
90
6
70
1
10
8413.0
20
-7271.0
30
0.0
10
8440.0
20
-7394.0
30
0.0
10
8353.0
20
-7463.0
30
0.0
10
8284.0
20
-7340.0
30
0.0
10
8324.0
20
-7293.0
30
0.0
10
8413.0
20
-7271.0
30
0.0
6
Solid
370
35
62
0
0
LWPOLYLINE
5
1601
100
AcDbEntity
100
AcDbPolyline
90
6
70
1
10
8580.0
20
-6791.0
30
0.0
10
8603.0
20
-6872.0
30
0.0
10
8537.0
20
-6922.0
30
0.0
10
8468.0
20
-6860.0
30
0.0
10
8520.0
20
-6763.0
30
0.0
10
8580.0
20
-6791.0
30
0.0
6
Solid
370
35
62
0
0
LWPOLYLINE
5
1603
100
AcDbEntity
100
AcDbPolyline
90
5
70
1
10
3364.0
20
-7140.0
30
0.0
10
3304.0
20
-7170.0
30
0.0
10
3276.0
20
-7102.0
30
0.0
10
3311.0
20
-7078.0
30
0.0
10
3364.0
20
-7140.0
30
0.0
6
Solid
370
35
62
0
0
LWPOLYLINE
5
1605
100
AcDbEntity
100
AcDbPolyline
90
7
70
1
10
3619.0
20
-7108.0
30
0.0
10
3665.0
20
-7166.0
30
0.0
10
3636.0
20
-7214.0
30
0.0
10
3554.0
20
-7236.0
30
0.0
10
3517.0
20
-7184.0
30
0.0
10
3551.0
20
-7120.0
30
0.0
10
3619.0
20
-7108.0
30
0.0
6
Solid
370
35
62
0
0
LWPOLYLINE
5
1607
100
AcDbEntity
100
AcDbPolyline
90
6
70
1
10
9497.0
20
-1539.0
30
0.0
10
9405.0
20
-1656.0
30
0.0
10
9361.0
20
-1606.0
30
0.0
10
9373.0
20
-1554.0
30
0.0
10
9443.0
20
-1510.0
30
0.0
10
9497.0
20
-1539.0
30
0.0
6
Solid
370
35
62
0
0
LWPOLYLINE
5
1609
100
AcDbEntity
100
AcDbPolyline
90
4
70
1
10
2624.0
20
-4968.0
30
0.0
10
2515.0
20
-5032.0
30
0.0
10
2526.0
20
-4964.0
30
0.0
10
2624.0
20
-4968.0
30
0.0
6
Solid
370
35
62
0
0
LWPOLYLINE
5
160b
100
AcDbEntity
100
AcDbPolyline
90
5
70
1
10
451.0
20
-3203.0
30
0.0
10
407.0
20
-3256.0
30
0.0
10
356.0
20
-3160.0
30
0.0
10
409.0
20
-3153.0
30
0.0
10
451.0
20
-3203.0
30
0.0
6
Solid
370
35
62
0
0
LWPOLYLINE
5
160e
100
AcDbEntity
8
zone_0_q1
100
AcDbPolyline
90
5
70
1
10
9148.0
20
-1745.0
30
0.0
10
8228.0
20
-1565.0
30
0.0
10
8428.0
20
-565.0
30
0.0
10
9308.0
20
-605.0
30
0.0
10
9148.0
20
-1745.0
30
0.0
6
Solid
370
35
62
40
0
LWPOLYLINE
5
1611
100
AcDbEntity
8
zone_1_q1
100
AcDbPolyline
90
5
70
1
10
4208.0
20
-1345.0
30
0.0
10
4148.0
20
-2125.0
30
0.0
10
3048.0
20
-2025.0
30
0.0
10
3088.0
20
-945.0
30
0.0
10
4208.0
20
-1345.0
30
0.0
6
Solid
370
35
62
40
0
LWPOLYLINE
5
1614
100
AcDbEntity
8
zone_2_q1
100
AcDbPolyline
90
5
70
1
10
7794.0
20
-8785.0
30
0.0
10
7794.0
20
-7767.0
30
0.0
10
8560.0
20
-7879.0
30
0.0
10
8658.0
20
-8840.0
30
0.0
10
7794.0
20
-8785.0
30
0.0
6
Solid
370
35
62
40
0
LWPOLYLINE
5
1617
100
AcDbEntity
8
zone_3_q1
100
AcDbPolyline
90
5
70
1
10
4071.0
20
-7630.0
30
0.0
10
3934.0
20
-8384.0
30
0.0
10
3365.0
20
-8570.0
30
0.0
10
3186.0
20
-7644.0
30
0.0
10
4071.0
20
-7630.0
30
0.0
6
Solid
370
35
62
40
0
ENDSEC
0
SECTION
2
OBJECTS
0
DICTIONARY
5
15fb
330
0
100
AcDbDictionary
281
1
3
ACAD_GROUP
350
15fc
0
DICTIONARY
5
15fc
330
15fb
100
AcDbDictionary
281
1
0
ENDSEC
0
EOF
