999

0
SECTION
2
HEADER
9
$ACADVER
1
AC1021
9
$HANDSEED
5
1654
0
ENDSEC
0
SECTION
2
CLASSES
0
ENDSEC
0
SECTION
2
TABLES
0
TABLE
2
VPORT
5
161a
100
AcDbSymbolTable
70
1
0
VPORT
5
1619
100
AcDbSymbolTableRecord
100
AcDbViewportTableRecord
2
*ACTIVE
10
0
20
0
11
1
21
1
12
500.0
22
500.0
40
1000.0
70
0
0
ENDTAB
0
TABLE
2
LTYPE
5
161b
100
AcDbSymbolTable
70
3
0
LTYPE
5
1623
100
AcDbSymbolTableRecord
100
AcDbLinetypeTableRecord
2
Solid
70
0
72
65
73
0
3

0
LTYPE
5
1624
100
AcDbSymbolTableRecord
100
AcDbLinetypeTableRecord
2
ByBlock
70
0
72
65
73
0
3

0
LTYPE
5
1625
100
AcDbSymbolTableRecord
100
AcDbLinetypeTableRecord
2
ByLayer
70
0
72
65
73
0
3

0
ENDTAB
0
TABLE
2
LAYER
5
161c
100
AcDbSymbolTable
70
5
0
LAYER
5
1626
100
AcDbSymbolTableRecord
100
AcDbLayerTableRecord
2
0
70
0
390
0
0
LAYER
5
1648
100
AcDbSymbolTableRecord
100
AcDbLayerTableRecord
2
zone_0_q1
70
0
390
0
0
LAYER
5
164b
100
AcDbSymbolTableRecord
100
AcDbLayerTableRecord
2
zone_1_q1
70
0
390
0
0
LAYER
5
164e
100
AcDbSymbolTableRecord
100
AcDbLayerTableRecord
2
zone_2_q1
70
0
390
0
0
LAYER
5
1651
100
AcDbSymbolTableRecord
100
AcDbLayerTableRecord
2
zone_3_q1
70
0
390
0
0
ENDTAB
0
TABLE
2
STYLE
5
161d
100
AcDbSymbolTable
70
0
0
ENDTAB
0
TABLE
2
VIEW
5
161e
100
AcDbSymbolTable
70
0
0
ENDTAB
0
TABLE
2
UCS
5
161f
100
AcDbSymbolTable
70
0
0
ENDTAB
0
TABLE
2
APPID
5
1620
100
AcDbSymbolTable
70
1
0
APPID
5
1627
100
AcDbSymbolTableRecord
100
AcDbRegAppTableRecord
2
ACAD
70
0
0
ENDTAB
0
TABLE
2
DIMSTYLE
5
1621
100
AcDbSymbolTable
70
0
100
AcDbDimStyleTable
71
1
0
ENDTAB
0
TABLE
2
BLOCK_RECORD
5
1622
100
AcDbSymbolTable
70
2
0
BLOCK_RECORD
5
1628
100
AcDbSymbolTableRecord
100
AcDbBlockTableRecord
2
*Model_Space
70
0
280
1
281
0
0
BLOCK_RECORD
5
1629
100
AcDbSymbolTableRecord
100
AcDbBlockTableRecord
2
*Paper_Space
70
0
280
1
281
0
0
ENDTAB
0
ENDSEC
0
SECTION
2
BLOCKS
0
BLOCK
5
162a
100
AcDbEntity
100
AcDbBlockBegin
2
*Model_Space
70
0
10
0
20
0
30
0
3
*Model_Space
1

0
ENDBLK
5
162b
100
AcDbEntity
100
AcDbBlockEnd
0
BLOCK
5
162c
100
AcDbEntity
100
AcDbBlockBegin
2
*Paper_Space
70
0
10
0
20
0
30
0
3
*Paper_Space
1

0
ENDBLK
5
162d
100
AcDbEntity
100
AcDbBlockEnd
0
ENDSEC
0
SECTION
2
ENTITIES
0
LWPOLYLINE
5
1630
100
AcDbEntity
100
AcDbPolyline
90
97
70
1
10
999.0
20
-4213.0
30
0.0
10
1110.0
20
-3762.0
30
0.0
10
1095.0
20
-3284.0
30
0.0
10
1314.0
20
-3238.0
30
0.0
10
1560.0
20
-2980.0
30
0.0
10
1534.0
20
-2614.0
30
0.0
10
1716.0
20
-2292.0
30
0.0
10
1839.0
20
-1803.0
30
0.0
10
2159.0
20
-2004.0
30
0.0
10
2619.0
20
-2127.0
30
0.0
10
2803.0
20
-1910.0
30
0.0
10
2740.0
20
-1624.0
30
0.0
10
3400.0
20
-1437.0
30
0.0
10
3549.0
20
-1550.0
30
0.0
10
3671.0
20
-1509.0
30
0.0
10
3999.0
20
-1739.0
30
0.0
10
4743.0
20
-1836.0
30
0.0
10
5184.0
20
-1630.0
30
0.0
10
5359.0
20
-1338.0
30
0.0
10
5913.0
20
-1068.0
30
0.0
10
6067.0
20
-1119.0
30
0.0
10
6876.0
20
-862.0
30
0.0
10
7097.0
20
-620.0
30
0.0
10
7246.0
20
-202.0
30
0.0
10
7457.0
20
-245.0
30
0.0
10
7820.0
20
-77.0
30
0.0
10
8477.0
20
-307.0
30
0.0
10
8975.0
20
-280.0
30
0.0
10
9276.0
20
-42.0
30
0.0
10
9599.0
20
0.0
30
0.0
10
9776.0
20
-362.0
30
0.0
10
9824.0
20
-866.0
30
0.0
10
9761.0
20
-1180.0
30
0.0
10
9813.0
20
-1273.0
30
0.0
10
9699.0
20
-1529.0
30
0.0
10
9765.0
20
-1892.0
30
0.0
10
9647.0
20
-2076.0
30
0.0
10
9743.0
20
-2775.0
30
0.0
10
9631.0
20
-2793.0
30
0.0
10
9838.0
20
-3001.0
30
0.0
10
9844.0
20
-3211.0
30
0.0
10
9602.0
20
-3604.0
30
0.0
10
9464.0
20
-4020.0
30
0.0
10
9506.0
20
-4843.0
30
0.0
10
9817.0
20
-5646.0
30
0.0
10
10129.0
20
-5952.0
30
0.0
10
10177.0
20
-6200.0
30
0.0
10
10363.0
20
-6420.0
30
0.0
10
10381.0
20
-6720.0
30
0.0
10
10564.0
20
-7113.0
30
0.0
10
10409.0
20
-7485.0
30
0.0
10
10508.0
20
-7958.0
30
0.0
10
10397.0
20
-8270.0
30
0.0
10
10612.0
20
-8641.0
30
0.0
10
10390.0
20
-8922.0
30
0.0
10
9998.0
20
-9040.0
30
0.0
10
9845.0
20
-8820.0
30
0.0
10
9407.0
20
-8776.0
30
0.0
10
9131.0
20
-8906.0
30
0.0
10
8941.0
20
-8879.0
30
0.0
10
8823.0
20
-9049.0
30
0.0
10
8652.0
20
-8967.0
30
0.0
10
8526.0
20
-9067.0
30
0.0
10
7804.0
20
-9120.0
30
0.0
10
7422.0
20
-8822.0
30
0.0
10
6618.0
20
-8591.0
30
0.0
10
6192.0
20
-8574.0
30
0.0
10
5701.0
20
-8757.0
30
0.0
10
5245.0
20
-8711.0
30
0.0
10
4688.0
20
-8845.0
30
0.0
10
4667.0
20
-8692.0
30
0.0
10
4156.0
20
-8726.0
30
0.0
10
3887.0
20
-9034.0
30
0.0
10
3698.0
20
-9131.0
30
0.0
10
3566.0
20
-8785.0
30
0.0
10
3450.0
20
-8907.0
30
0.0
10
2986.0
20
-9099.0
30
0.0
10
2506.0
20
-9098.0
30
0.0
10
2302.0
20
-8812.0
30
0.0
10
2363.0
20
-8305.0
30
0.0
10
2497.0
20
-8266.0
30
0.0
10
2442.0
20
-8165.0
30
0.0
10
1811.0
20
-7946.0
30
0.0
10
1759.0
20
-7650.0
30
0.0
10
1635.0
20
-7663.0
30
0.0
10
1380.0
20
-7517.0
30
0.0
10
1330.0
20
-7253.0
30
0.0
10
1194.0
20
-7126.0
30
0.0
10
315.0
20
-6816.0
30
0.0
10
368.0
20
-6503.0
30
0.0
10
209.0
20
-5935.0
30
0.0
10
61.0
20
-5707.0
30
0.0
10
130.0
20
-5557.0
30
0.0
10
0.0
20
-5443.0
30
0.0
10
76.0
20
-5247.0
30
0.0
10
29.0
20
-4662.0
30
0.0
10
999.0
20
-4213.0
30
0.0
6
Solid
370
35
62
0
0
LWPOLYLINE
5
1632
100
AcDbEntity
100
AcDbPolyline
90
19
70
1
10
6182.0
20
-1402.0
30
0.0
10
6130.0
20
-1888.0
30
0.0
10
5611.0
20
-2239.0
30
0.0
10
4638.0
20
-2519.0
30
0.0
10
4163.0
20
-2236.0
30
0.0
10
3815.0
20
-1947.0
30
0.0
10
3671.0
20
-1509.0
30
0.0
10
3844.0
20
-1659.0
30
0.0
10
3999.0
20
-1739.0
30
0.0
10
4452.0
20
-1842.0
30
0.0
10
4703.0
20
-1844.0
30
0.0
10
5115.0
20
-1679.0
30
0.0
10
5246.0
20
-1561.0
30
0.0
10
5359.0
20
-1338.0
30
0.0
10
5727.0
20
-1214.0
30
0.0
10
5913.0
20
-1068.0
30
0.0
10
6148.0
20
-1171.0
30
0.0
10
6223.0
20
-1115.0
30
0.0
10
6182.0
20
-1402.0
30
0.0
6
Solid
370
35
62
0
0
LWPOLYLINE
5
1634
100
AcDbEntity
100
AcDbPolyline
90
18
70
1
10
4650.0
20
-8561.0
30
0.0
10
4801.0
20
-8192.0
30
0.0
10
5074.0
20
-7775.0
30
0.0
10
5398.0
20
-7570.0
30
0.0
10
5779.0
20
-7506.0
30
0.0
10
6183.0
20
-7487.0
30
0.0
10
6539.0
20
-7695.0
30
0.0
10
6632.0
20
-7945.0
30
0.0
10
6719.0
20
-8366.0
30
0.0
10
6744.0
20
-8627.0
30
0.0
10
6525.0
20
-8577.0
30
0.0
10
6117.0
20
-8576.0
30
0.0
10
5701.0
20
-8757.0
30
0.0
10
5245.0
20
-8711.0
30
0.0
10
5066.0
20
-8802.0
30
0.0
10
4870.0
20
-8771.0
30
0.0
10
4688.0
20
-8845.0
30
0.0
10
4650.0
20
-8561.0
30
0.0
6
Solid
370
35
62
0
0
LWPOLYLINE
5
1636
100
AcDbEntity
100
AcDbPolyline
90
5
70
1
10
4615.0
20
-7696.0
30
0.0
10
4652.0
20
-7811.0
30
0.0
10
4546.0
20
-7860.0
30
0.0
10
4486.0
20
-7682.0
30
0.0
10
4615.0
20
-7696.0
30
0.0
6
Solid
370
35
62
0
0
LWPOLYLINE
5
1638
100
AcDbEntity
100
AcDbPolyline
90
7
70
1
10
2434.0
20
-8039.0
30
0.0
10
2529.0
20
-8016.0
30
0.0
10
2612.0
20
-8073.0
30
0.0
10
2670.0
20
-8190.0
30
0.0
10
2631.0
20
-8284.0
30
0.0
10
2388.0
20
-8112.0
30
0.0
10
2434.0
20
-8039.0
30
0.0
6
Solid
370
35
62
0
0
LWPOLYLINE
5
163a
100
AcDbEntity
100
AcDbPolyline
90
5
70
1
10
10506.0
20
-7107.0
30
0.0
10
10422.0
20
-7211.0
30
0.0
10
10373.0
20
-7125.0
30
0.0
10
10451.0
20
-7040.0
30
0.0
10
10506.0
20
-7107.0
30
0.0
6
Solid
370
35
62
0
0
LWPOLYLINE
5
163c
100
AcDbEntity
100
AcDbPolyline
90
5
70
1
10
8288.0
20
-7598.0
30
0.0
10
8290.0
20
-7724.0
30
0.0
10
8220.0
20
-7750.0
30
0.0
10
8189.0
20
-7626.0
30
0.0
10
8288.0
20
-7598.0
30
0.0
6
Solid
370
35
62
0
0
LWPOLYLINE
5
163e
100
AcDbEntity
100
AcDbPolyline
90
5
70
1
10
9707.0
20
-975.0
30
0.0
10
9627.0
20
-985.0
30
0.0
10
9613.0
20
-876.0
30
0.0
10
9693.0
20
-869.0
30
0.0
10
9707.0
20
-975.0
30
0.0
6
Solid
370
35
62
0
0
LWPOLYLINE
5
1640
100
AcDbEntity
100
AcDbPolyline
90
5
70
1
10
2417.0
20
-4144.0
30
0.0
10
2411.0
20
-4227.0
30
0.0
10
2327.0
20
-4214.0
30
0.0
10
2331.0
20
-4134.0
30
0.0
10
2417.0
20
-4144.0
30
0.0
6
Solid
370
35
62
0
0
LWPOLYLINE
5
1642
100
AcDbEntity
100
AcDbPolyline
90
6
70
1
10
1361.0
20
-4250.0
30
0.0
10
1374.0
20
-4305.0
30
0.0
10
1262.0
20
-4362.0
30
0.0
10
1224.0
20
-4297.0
30
0.0
10
1299.0
20
-4209.0
30
0.0
10
1361.0
20
-4250.0
30
0.0
6
Solid
370
35
62
0
0
LWPOLYLINE
5
1644
100
AcDbEntity
100
AcDbPolyline
90
6
70
1
10
1820.0
20
-2735.0
30
0.0
10
1754.0
20
-2778.0
30
0.0
10
1674.0
20
-2760.0
30
0.0
10
1675.0
20
-2664.0
30
0.0
10
1793.0
20
-2666.0
30
0.0
10
1820.0
20
-2735.0
30
0.0
6
Solid
370
35
62
0
0
LWPOLYLINE
5
1646
100
AcDbEntity
100
AcDbPolyline
90
11
70
1
10
6159.0
20
-2151.0
30
0.0
10
6538.0
20
-2001.0
30
0.0
10
7393.0
20
-1827.0
30
0.0
10
7695.0
20
-2104.0
30
0.0
10
7558.0
20
-2343.0
30
0.0
10
7205.0
20
-2651.0
30
0.0
10
6785.0
20
-2877.0
30
0.0
10
6531.0
20
-2815.0
30
0.0
10
6083.0
20
-2604.0
30
0.0
10
6020.0
20
-2284.0
30
0.0
10
6159.0
20
-2151.0
30
0.0
6
Solid
370
35
62
0
0
LWPOLYLINE
5
1649
100
AcDbEntity
8
zone_0_q1
100
AcDbPolyline
90
5
70
1
10
9501.0
20
-8450.0
30
0.0
10
8538.0
20
-8607.0
30
0.0
10
8428.0
20
-7806.0
30
0.0
10
9172.0
20
-7641.0
30
0.0
10
9501.0
20
-8450.0
30
0.0
6
Solid
370
35
62
40
0
LWPOLYLINE
5
164c
100
AcDbEntity
8
zone_1_q1
100
AcDbPolyline
90
5
70
1
10
3545.0
20
-8461.0
30
0.0
10
3620.0
20
-7711.0
30
0.0
10
4297.0
20
-7700.0
30
0.0
10
4192.0
20
-8492.0
30
0.0
10
3545.0
20
-8461.0
30
0.0
6
Solid
370
35
62
40
0
LWPOLYLINE
5
164f
100
AcDbEntity
8
zone_2_q1
100
AcDbPolyline
90
5
70
1
10
3931.0
20
-2704.0
30
0.0
10
2979.0
20
-2773.0
30
0.0
10
2804.0
20
-1735.0
30
0.0
10
3848.0
20
-1826.0
30
0.0
10
3931.0
20
-2704.0
30
0.0
6
Solid
370
35
62
40
0
LWPOLYLINE
5
1652
100
AcDbEntity
8
zone_3_q1
100
AcDbPolyline
90
5
70
1
10
7693.0
20
-601.0
30
0.0
10
8794.0
20
-545.0
30
0.0
10
8941.0
20
-1173.0
30
0.0
10
8022.0
20
-1439.0
30
0.0
10
7693.0
20
-601.0
30
0.0
6
Solid
370
35
62
40
0
ENDSEC
0
SECTION
2
OBJECTS
0
DICTIONARY
5
162e
330
0
100
AcDbDictionary
281
1
3
ACAD_GROUP
350
162f
0
DICTIONARY
5
162f
330
162e
100
AcDbDictionary
281
1
0
ENDSEC
0
EOF
