999

0
SECTION
2
HEADER
9
$ACADVER
1
AC1021
9
$HANDSEED
5
322e
0
ENDSEC
0
SECTION
2
CLASSES
0
ENDSEC
0
SECTION
2
TABLES
0
TABLE
2
VPORT
5
31f0
100
AcDbSymbolTable
70
1
0
VPORT
5
31ef
100
AcDbSymbolTableRecord
100
AcDbViewportTableRecord
2
*ACTIVE
10
0
20
0
11
1
21
1
12
500.0
22
500.0
40
1000.0
70
0
0
ENDTAB
0
TABLE
2
LTYPE
5
31f1
100
AcDbSymbolTable
70
3
0
LTYPE
5
31f9
100
AcDbSymbolTableRecord
100
AcDbLinetypeTableRecord
2
Solid
70
0
72
65
73
0
3

0
LTYPE
5
31fa
100
AcDbSymbolTableRecord
100
AcDbLinetypeTableRecord
2
ByBlock
70
0
72
65
73
0
3

0
LTYPE
5
31fb
100
AcDbSymbolTableRecord
100
AcDbLinetypeTableRecord
2
ByLayer
70
0
72
65
73
0
3

0
ENDTAB
0
TABLE
2
LAYER
5
31f2
100
AcDbSymbolTable
70
5
0
LAYER
5
31fc
100
AcDbSymbolTableRecord
100
AcDbLayerTableRecord
2
0
70
0
390
0
0
LAYER
5
3222
100
AcDbSymbolTableRecord
100
AcDbLayerTableRecord
2
zone_0_q1
70
0
390
0
0
LAYER
5
3225
100
AcDbSymbolTableRecord
100
AcDbLayerTableRecord
2
zone_1_q1
70
0
390
0
0
LAYER
5
3228
100
AcDbSymbolTableRecord
100
AcDbLayerTableRecord
2
zone_2_q1
70
0
390
0
0
LAYER
5
322b
100
AcDbSymbolTableRecord
100
AcDbLayerTableRecord
2
zone_3_q1
70
0
390
0
0
ENDTAB
0
TABLE
2
STYLE
5
31f3
100
AcDbSymbolTable
70
0
0
ENDTAB
0
TABLE
2
VIEW
5
31f4
100
AcDbSymbolTable
70
0
0
ENDTAB
0
TABLE
2
UCS
5
31f5
100
AcDbSymbolTable
70
0
0
ENDTAB
0
TABLE
2
APPID
5
31f6
100
AcDbSymbolTable
70
1
0
APPID
5
31fd
100
AcDbSymbolTableRecord
100
AcDbRegAppTableRecord
2
ACAD
70
0
0
ENDTAB
0
TABLE
2
DIMSTYLE
5
31f7
100
AcDbSymbolTable
70
0
100
AcDbDimStyleTable
71
1
0
ENDTAB
0
TABLE
2
BLOCK_RECORD
5
31f8
100
AcDbSymbolTable
70
2
0
BLOCK_RECORD
5
31fe
100
AcDbSymbolTableRecord
100
AcDbBlockTableRecord
2
*Model_Space
70
0
280
1
281
0
0
BLOCK_RECORD
5
31ff
100
AcDbSymbolTableRecord
100
AcDbBlockTableRecord
2
*Paper_Space
70
0
280
1
281
0
0
ENDTAB
0
ENDSEC
0
SECTION
2
BLOCKS
0
BLOCK
5
3200
100
AcDbEntity
100
AcDbBlockBegin
2
*Model_Space
70
0
10
0
20
0
30
0
3
*Model_Space
1

0
ENDBLK
5
3201
100
AcDbEntity
100
AcDbBlockEnd
0
BLOCK
5
3202
100
AcDbEntity
100
AcDbBlockBegin
2
*Paper_Space
70
0
10
0
20
0
30
0
3
*Paper_Space
1

0
ENDBLK
5
3203
100
AcDbEntity
100
AcDbBlockEnd
0
ENDSEC
0
SECTION
2
ENTITIES
0
LWPOLYLINE
5
3206
100
AcDbEntity
100
AcDbPolyline
90
70
70
1
10
66.0
20
-4161.0
30
0.0
10
330.0
20
-3772.0
30
0.0
10
605.0
20
-3498.0
30
0.0
10
899.0
20
-3435.0
30
0.0
10
1164.0
20
-3273.0
30
0.0
10
1545.0
20
-2831.0
30
0.0
10
1623.0
20
-2233.0
30
0.0
10
1929.0
20
-1728.0
30
0.0
10
2171.0
20
-1784.0
30
0.0
10
2375.0
20
-1634.0
30
0.0
10
2656.0
20
-718.0
30
0.0
10
2936.0
20
-664.0
30
0.0
10
3092.0
20
-521.0
30
0.0
10
4854.0
20
-902.0
30
0.0
10
5542.0
20
-950.0
30
0.0
10
5978.0
20
-734.0
30
0.0
10
6528.0
20
-673.0
30
0.0
10
7355.0
20
-201.0
30
0.0
10
7883.0
20
-306.0
30
0.0
10
8551.0
20
0.0
30
0.0
10
9560.0
20
-108.0
30
0.0
10
9747.0
20
-227.0
30
0.0
10
10150.0
20
-93.0
30
0.0
10
10413.0
20
-396.0
30
0.0
10
10387.0
20
-726.0
30
0.0
10
10223.0
20
-966.0
30
0.0
10
9842.0
20
-1198.0
30
0.0
10
10079.0
20
-1585.0
30
0.0
10
10145.0
20
-2107.0
30
0.0
10
10310.0
20
-2264.0
30
0.0
10
10156.0
20
-2575.0
30
0.0
10
10253.0
20
-2768.0
30
0.0
10
9880.0
20
-3672.0
30
0.0
10
9822.0
20
-4327.0
30
0.0
10
9932.0
20
-5054.0
30
0.0
10
10135.0
20
-5400.0
30
0.0
10
10284.0
20
-6098.0
30
0.0
10
10203.0
20
-6774.0
30
0.0
10
10045.0
20
-7322.0
30
0.0
10
10161.0
20
-7782.0
30
0.0
10
10122.0
20
-8092.0
30
0.0
10
10604.0
20
-8779.0
30
0.0
10
10619.0
20
-9047.0
30
0.0
10
9841.0
20
-9083.0
30
0.0
10
8610.0
20
-8742.0
30
0.0
10
7935.0
20
-8737.0
30
0.0
10
7074.0
20
-8553.0
30
0.0
10
6412.0
20
-8688.0
30
0.0
10
5879.0
20
-8390.0
30
0.0
10
5573.0
20
-8306.0
30
0.0
10
5378.0
20
-8130.0
30
0.0
10
5167.0
20
-8128.0
30
0.0
10
4917.0
20
-8249.0
30
0.0
10
4682.0
20
-8087.0
30
0.0
10
4360.0
20
-8054.0
30
0.0
10
4055.0
20
-8096.0
30
0.0
10
2859.0
20
-8733.0
30
0.0
10
2707.0
20
-8302.0
30
0.0
10
2694.0
20
-7693.0
30
0.0
10
2468.0
20
-7466.0
30
0.0
10
2120.0
20
-7504.0
30
0.0
10
1743.0
20
-6725.0
30
0.0
10
1394.0
20
-6456.0
30
0.0
10
1354.0
20
-6267.0
30
0.0
10
1092.0
20
-6088.0
30
0.0
10
681.0
20
-6021.0
30
0.0
10
294.0
20
-5235.0
30
0.0
10
314.0
20
-4957.0
30
0.0
10
0.0
20
-4516.0
30
0.0
10
66.0
20
-4161.0
30
0.0
6
Solid
370
35
62
0
0
LWPOLYLINE
5
3208
100
AcDbEntity
100
AcDbPolyline
90
5
70
1
10
901.0
20
-5114.0
30
0.0
10
857.0
20
-5154.0
30
0.0
10
817.0
20
-5105.0
30
0.0
10
859.0
20
-5070.0
30
0.0
10
901.0
20
-5114.0
30
0.0
6
Solid
370
35
62
0
0
LWPOLYLINE
5
320a
100
AcDbEntity
100
AcDbPolyline
90
5
70
1
10
916.0
20
-3617.0
30
0.0
10
864.0
20
-3654.0
30
0.0
10
826.0
20
-3606.0
30
0.0
10
871.0
20
-3564.0
30
0.0
10
916.0
20
-3617.0
30
0.0
6
Solid
370
35
62
0
0
LWPOLYLINE
5
320c
100
AcDbEntity
100
AcDbPolyline
90
5
70
1
10
2184.0
20
-5353.0
30
0.0
10
2146.0
20
-5377.0
30
0.0
10
2121.0
20
-5337.0
30
0.0
10
2152.0
20
-5313.0
30
0.0
10
2184.0
20
-5353.0
30
0.0
6
Solid
370
35
62
0
0
LWPOLYLINE
5
320e
100
AcDbEntity
100
AcDbPolyline
90
5
70
1
10
1973.0
20
-5667.0
30
0.0
10
1934.0
20
-5690.0
30
0.0
10
1910.0
20
-5651.0
30
0.0
10
1942.0
20
-5627.0
30
0.0
10
1973.0
20
-5667.0
30
0.0
6
Solid
370
35
62
0
0
LWPOLYLINE
5
3210
100
AcDbEntity
100
AcDbPolyline
90
8
70
1
10
10185.0
20
-8821.0
30
0.0
10
10202.0
20
-8879.0
30
0.0
10
10172.0
20
-8930.0
30
0.0
10
10120.0
20
-8944.0
30
0.0
10
10072.0
20
-8920.0
30
0.0
10
10053.0
20
-8862.0
30
0.0
10
10128.0
20
-8795.0
30
0.0
10
10185.0
20
-8821.0
30
0.0
6
Solid
370
35
62
0
0
LWPOLYLINE
5
3212
100
AcDbEntity
100
AcDbPolyline
90
5
70
1
10
10146.0
20
-8700.0
30
0.0
10
10101.0
20
-8735.0
30
0.0
10
10060.0
20
-8683.0
30
0.0
10
10103.0
20
-8648.0
30
0.0
10
10146.0
20
-8700.0
30
0.0
6
Solid
370
35
62
0
0
LWPOLYLINE
5
3214
100
AcDbEntity
100
AcDbPolyline
90
22
70
1
10
9442.0
20
-468.0
30
0.0
10
9382.0
20
-728.0
30
0.0
10
9062.0
20
-1108.0
30
0.0
10
8382.0
20
-1448.0
30
0.0
10
7882.0
20
-1648.0
30
0.0
10
7522.0
20
-1688.0
30
0.0
10
7202.0
20
-1768.0
30
0.0
10
6842.0
20
-1608.0
30
0.0
10
6682.0
20
-1328.0
30
0.0
10
6562.0
20
-888.0
30
0.0
10
6649.0
20
-605.0
30
0.0
10
6811.0
20
-473.0
30
0.0
10
7018.0
20
-435.0
30
0.0
10
7235.0
20
-255.0
30
0.0
10
7378.0
20
-197.0
30
0.0
10
7485.0
20
-212.0
30
0.0
10
7677.0
20
-309.0
30
0.0
10
7883.0
20
-306.0
30
0.0
10
8095.0
20
-239.0
30
0.0
10
8551.0
20
0.0
30
0.0
10
9560.0
20
-108.0
30
0.0
10
9442.0
20
-468.0
30
0.0
6
Solid
370
35
62
0
0
LWPOLYLINE
5
3216
100
AcDbEntity
100
AcDbPolyline
90
7
70
1
10
8236.0
20
-7659.0
30
0.0
10
7996.0
20
-7758.0
30
0.0
10
7785.0
20
-7624.0
30
0.0
10
7815.0
20
-7432.0
30
0.0
10
8039.0
20
-7295.0
30
0.0
10
8469.0
20
-7397.0
30
0.0
10
8236.0
20
-7659.0
30
0.0
6
Solid
370
35
62
0
0
LWPOLYLINE
5
3218
100
AcDbEntity
100
AcDbPolyline
90
6
70
1
10
9855.0
20
-7459.0
30
0.0
10
9749.0
20
-7474.0
30
0.0
10
9724.0
20
-7335.0
30
0.0
10
9802.0
20
-7259.0
30
0.0
10
9902.0
20
-7335.0
30
0.0
10
9855.0
20
-7459.0
30
0.0
6
Solid
370
35
62
0
0
LWPOLYLINE
5
321a
100
AcDbEntity
100
AcDbPolyline
90
6
70
1
10
7596.0
20
-5679.0
30
0.0
10
7462.0
20
-5738.0
30
0.0
10
7371.0
20
-5643.0
30
0.0
10
7458.0
20
-5562.0
30
0.0
10
7592.0
20
-5583.0
30
0.0
10
7596.0
20
-5679.0
30
0.0
6
Solid
370
35
62
0
0
LWPOLYLINE
5
321c
100
AcDbEntity
100
AcDbPolyline
90
8
70
1
10
8239.0
20
-4628.0
30
0.0
10
7986.0
20
-4617.0
30
0.0
10
7888.0
20
-4558.0
30
0.0
10
7853.0
20
-4475.0
30
0.0
10
7993.0
20
-4404.0
30
0.0
10
8184.0
20
-4437.0
30
0.0
10
8337.0
20
-4511.0
30
0.0
10
8239.0
20
-4628.0
30
0.0
6
Solid
370
35
62
0
0
LWPOLYLINE
5
321e
100
AcDbEntity
100
AcDbPolyline
90
6
70
1
10
2179.0
20
-5513.0
30
0.0
10
2093.0
20
-5590.0
30
0.0
10
2021.0
20
-5584.0
30
0.0
10
2007.0
20
-5500.0
30
0.0
10
2066.0
20
-5433.0
30
0.0
10
2179.0
20
-5513.0
30
0.0
6
Solid
370
35
62
0
0
LWPOLYLINE
5
3220
100
AcDbEntity
100
AcDbPolyline
90
7
70
1
10
3442.0
20
-1279.0
30
0.0
10
3587.0
20
-1550.0
30
0.0
10
3435.0
20
-1507.0
30
0.0
10
3227.0
20
-1322.0
30
0.0
10
3232.0
20
-1160.0
30
0.0
10
3337.0
20
-1139.0
30
0.0
10
3442.0
20
-1279.0
30
0.0
6
Solid
370
35
62
0
0
LWPOLYLINE
5
3223
100
AcDbEntity
8
zone_0_q1
100
AcDbPolyline
90
5
70
1
10
9104.0
20
-61.0
30
0.0
10
9151.0
20
-736.0
30
0.0
10
9043.0
20
-806.0
30
0.0
10
8497.0
20
-162.0
30
0.0
10
9104.0
20
-61.0
30
0.0
6
Solid
370
35
62
40
0
LWPOLYLINE
5
3226
100
AcDbEntity
8
zone_1_q1
100
AcDbPolyline
90
5
70
1
10
9108.0
20
-8636.0
30
0.0
10
8280.0
20
-8583.0
30
0.0
10
8452.0
20
-7971.0
30
0.0
10
9099.0
20
-7916.0
30
0.0
10
9108.0
20
-8636.0
30
0.0
6
Solid
370
35
62
40
0
LWPOLYLINE
5
3229
100
AcDbEntity
8
zone_2_q1
100
AcDbPolyline
90
5
70
1
10
4421.0
20
-7558.0
30
0.0
10
4585.0
20
-7976.0
30
0.0
10
4037.0
20
-7972.0
30
0.0
10
4032.0
20
-7448.0
30
0.0
10
4421.0
20
-7558.0
30
0.0
6
Solid
370
35
62
40
0
LWPOLYLINE
5
322c
100
AcDbEntity
8
zone_3_q1
100
AcDbPolyline
90
5
70
1
10
3375.0
20
-820.0
30
0.0
10
3834.0
20
-765.0
30
0.0
10
4138.0
20
-1445.0
30
0.0
10
3663.0
20
-1345.0
30
0.0
10
3375.0
20
-820.0
30
0.0
6
Solid
370
35
62
40
0
ENDSEC
0
SECTION
2
OBJECTS
0
DICTIONARY
5
3204
330
0
100
AcDbDictionary
281
1
3
ACAD_GROUP
350
3205
0
DICTIONARY
5
3205
330
3204
100
AcDbDictionary
281
1
0
ENDSEC
0
EOF
