999

0
SECTION
2
HEADER
9
$ACADVER
1
AC1021
9
$HANDSEED
5
2852
0
ENDSEC
0
SECTION
2
CLASSES
0
ENDSEC
0
SECTION
2
TABLES
0
TABLE
2
VPORT
5
283a
100
AcDbSymbolTable
70
1
0
VPORT
5
2839
100
AcDbSymbolTableRecord
100
AcDbViewportTableRecord
2
*ACTIVE
10
0
20
0
11
1
21
1
12
500.0
22
500.0
40
1000.0
70
0
0
ENDTAB
0
TABLE
2
LTYPE
5
283b
100
AcDbSymbolTable
70
3
0
LTYPE
5
2843
100
AcDbSymbolTableRecord
100
AcDbLinetypeTableRecord
2
Solid
70
0
72
65
73
0
3

0
LTYPE
5
2844
100
AcDbSymbolTableRecord
100
AcDbLinetypeTableRecord
2
ByBlock
70
0
72
65
73
0
3

0
LTYPE
5
2845
100
AcDbSymbolTableRecord
100
AcDbLinetypeTableRecord
2
ByLayer
70
0
72
65
73
0
3

0
ENDTAB
0
TABLE
2
LAYER
5
283c
100
AcDbSymbolTable
70
1
0
LAYER
5
2846
100
AcDbSymbolTableRecord
100
AcDbLayerTableRecord
2
0
70
0
390
0
0
ENDTAB
0
TABLE
2
STYLE
5
283d
100
AcDbSymbolTable
70
0
0
ENDTAB
0
TABLE
2
VIEW
5
283e
100
AcDbSymbolTable
70
0
0
ENDTAB
0
TABLE
2
UCS
5
283f
100
AcDbSymbolTable
70
0
0
ENDTAB
0
TABLE
2
APPID
5
2840
100
AcDbSymbolTable
70
1
0
APPID
5
2847
100
AcDbSymbolTableRecord
100
AcDbRegAppTableRecord
2
ACAD
70
0
0
ENDTAB
0
TABLE
2
DIMSTYLE
5
2841
100
AcDbSymbolTable
70
0
100
AcDbDimStyleTable
71
1
0
ENDTAB
0
TABLE
2
BLOCK_RECORD
5
2842
100
AcDbSymbolTable
70
2
0
BLOCK_RECORD
5
2848
100
AcDbSymbolTableRecord
100
AcDbBlockTableRecord
2
*Model_Space
70
0
280
1
281
0
0
BLOCK_RECORD
5
2849
100
AcDbSymbolTableRecord
100
AcDbBlockTableRecord
2
*Paper_Space
70
0
280
1
281
0
0
ENDTAB
0
ENDSEC
0
SECTION
2
BLOCKS
0
BLOCK
5
284a
100
AcDbEntity
100
AcDbBlockBegin
2
*Model_Space
70
0
10
0
20
0
30
0
3
*Model_Space
1

0
ENDBLK
5
284b
100
AcDbEntity
100
AcDbBlockEnd
0
BLOCK
5
284c
100
AcDbEntity
100
AcDbBlockBegin
2
*Paper_Space
70
0
10
0
20
0
30
0
3
*Paper_Space
1

0
ENDBLK
5
284d
100
AcDbEntity
100
AcDbBlockEnd
0
ENDSEC
0
SECTION
2
ENTITIES
0
LWPOLYLINE
5
2850
100
AcDbEntity
100
AcDbPolyline
90
47
70
1
10
0.0
20
-1047.0
30
0.0
10
3.0
20
-456.0
30
0.0
10
2.0
20
-447.0
30
0.0
10
2.0
20
-421.0
30
0.0
10
3.0
20
-384.0
30
0.0
10
9.0
20
-341.0
30
0.0
10
19.0
20
-294.0
30
0.0
10
35.0
20
-251.0
30
0.0
10
60.0
20
-213.0
30
0.0
10
89.0
20
-190.0
30
0.0
10
122.0
20
-173.0
30
0.0
10
157.0
20
-162.0
30
0.0
10
189.0
20
-156.0
30
0.0
10
216.0
20
-153.0
30
0.0
10
234.0
20
-152.0
30
0.0
10
241.0
20
-152.0
30
0.0
10
292.0
20
-144.0
30
0.0
10
425.0
20
-122.0
30
0.0
10
606.0
20
-92.0
30
0.0
10
804.0
20
-60.0
30
0.0
10
985.0
20
-30.0
30
0.0
10
1117.0
20
-8.0
30
0.0
10
1169.0
20
0.0
30
0.0
10
1220.0
20
-9.0
30
0.0
10
1353.0
20
-31.0
30
0.0
10
1534.0
20
-62.0
30
0.0
10
1731.0
20
-95.0
30
0.0
10
1912.0
20
-125.0
30
0.0
10
2045.0
20
-148.0
30
0.0
10
2096.0
20
-156.0
30
0.0
10
2103.0
20
-156.0
30
0.0
10
2121.0
20
-157.0
30
0.0
10
2148.0
20
-160.0
30
0.0
10
2180.0
20
-166.0
30
0.0
10
2215.0
20
-177.0
30
0.0
10
2248.0
20
-194.0
30
0.0
10
2276.0
20
-218.0
30
0.0
10
2301.0
20
-256.0
30
0.0
10
2318.0
20
-299.0
30
0.0
10
2328.0
20
-346.0
30
0.0
10
2333.0
20
-389.0
30
0.0
10
2334.0
20
-426.0
30
0.0
10
2334.0
20
-452.0
30
0.0
10
2333.0
20
-461.0
30
0.0
10
2333.0
20
-1052.0
30
0.0
10
1167.0
20
-1052.0
30
0.0
10
0.0
20
-1047.0
30
0.0
6
Solid
370
35
62
0
0
ENDSEC
0
SECTION
2
OBJECTS
0
DICTIONARY
5
284e
330
0
100
AcDbDictionary
281
1
3
ACAD_GROUP
350
284f
0
DICTIONARY
5
284f
330
284e
100
AcDbDictionary
281
1
0
ENDSEC
0
EOF
