999

0
SECTION
2
HEADER
9
$ACADVER
1
AC1021
9
$HANDSEED
5
286b
0
ENDSEC
0
SECTION
2
CLASSES
0
ENDSEC
0
SECTION
2
TABLES
0
TABLE
2
VPORT
5
2853
100
AcDbSymbolTable
70
1
0
VPORT
5
2852
100
AcDbSymbolTableRecord
100
AcDbViewportTableRecord
2
*ACTIVE
10
0
20
0
11
1
21
1
12
500.0
22
500.0
40
1000.0
70
0
0
ENDTAB
0
TABLE
2
LTYPE
5
2854
100
AcDbSymbolTable
70
3
0
LTYPE
5
285c
100
AcDbSymbolTableRecord
100
AcDbLinetypeTableRecord
2
Solid
70
0
72
65
73
0
3

0
LTYPE
5
285d
100
AcDbSymbolTableRecord
100
AcDbLinetypeTableRecord
2
ByBlock
70
0
72
65
73
0
3

0
LTYPE
5
285e
100
AcDbSymbolTableRecord
100
AcDbLinetypeTableRecord
2
ByLayer
70
0
72
65
73
0
3

0
ENDTAB
0
TABLE
2
LAYER
5
2855
100
AcDbSymbolTable
70
1
0
LAYER
5
285f
100
AcDbSymbolTableRecord
100
AcDbLayerTableRecord
2
0
70
0
390
0
0
ENDTAB
0
TABLE
2
STYLE
5
2856
100
AcDbSymbolTable
70
0
0
ENDTAB
0
TABLE
2
VIEW
5
2857
100
AcDbSymbolTable
70
0
0
ENDTAB
0
TABLE
2
UCS
5
2858
100
AcDbSymbolTable
70
0
0
ENDTAB
0
TABLE
2
APPID
5
2859
100
AcDbSymbolTable
70
1
0
APPID
5
2860
100
AcDbSymbolTableRecord
100
AcDbRegAppTableRecord
2
ACAD
70
0
0
ENDTAB
0
TABLE
2
DIMSTYLE
5
285a
100
AcDbSymbolTable
70
0
100
AcDbDimStyleTable
71
1
0
ENDTAB
0
TABLE
2
BLOCK_RECORD
5
285b
100
AcDbSymbolTable
70
2
0
BLOCK_RECORD
5
2861
100
AcDbSymbolTableRecord
100
AcDbBlockTableRecord
2
*Model_Space
70
0
280
1
281
0
0
BLOCK_RECORD
5
2862
100
AcDbSymbolTableRecord
100
AcDbBlockTableRecord
2
*Paper_Space
70
0
280
1
281
0
0
ENDTAB
0
ENDSEC
0
SECTION
2
BLOCKS
0
BLOCK
5
2863
100
AcDbEntity
100
AcDbBlockBegin
2
*Model_Space
70
0
10
0
20
0
30
0
3
*Model_Space
1

0
ENDBLK
5
2864
100
AcDbEntity
100
AcDbBlockEnd
0
BLOCK
5
2865
100
AcDbEntity
100
AcDbBlockBegin
2
*Paper_Space
70
0
10
0
20
0
30
0
3
*Paper_Space
1

0
ENDBLK
5
2866
100
AcDbEntity
100
AcDbBlockEnd
0
ENDSEC
0
SECTION
2
ENTITIES
0
LWPOLYLINE
5
2869
100
AcDbEntity
100
AcDbPolyline
90
58
70
1
10
13.0
20
-2598.0
30
0.0
10
14.0
20
-2302.0
30
0.0
10
8.0
20
-1894.0
30
0.0
10
211.0
20
-1892.0
30
0.0
10
207.0
20
-506.0
30
0.0
10
4.0
20
-509.0
30
0.0
10
3.0
20
-496.0
30
0.0
10
1.0
20
-462.0
30
0.0
10
0.0
20
-412.0
30
0.0
10
1.0
20
-351.0
30
0.0
10
7.0
20
-286.0
30
0.0
10
19.0
20
-221.0
30
0.0
10
39.0
20
-163.0
30
0.0
10
61.0
20
-125.0
30
0.0
10
88.0
20
-93.0
30
0.0
10
120.0
20
-68.0
30
0.0
10
156.0
20
-47.0
30
0.0
10
195.0
20
-32.0
30
0.0
10
238.0
20
-20.0
30
0.0
10
283.0
20
-11.0
30
0.0
10
330.0
20
-6.0
30
0.0
10
376.0
20
-2.0
30
0.0
10
419.0
20
-1.0
30
0.0
10
457.0
20
0.0
30
0.0
10
487.0
20
0.0
30
0.0
10
507.0
20
-1.0
30
0.0
10
514.0
20
-1.0
30
0.0
10
590.0
20
-1.0
30
0.0
10
785.0
20
-2.0
30
0.0
10
1051.0
20
-4.0
30
0.0
10
1341.0
20
-5.0
30
0.0
10
1608.0
20
-6.0
30
0.0
10
1802.0
20
-7.0
30
0.0
10
1878.0
20
-8.0
30
0.0
10
1890.0
20
-6.0
30
0.0
10
1923.0
20
-3.0
30
0.0
10
1971.0
20
-1.0
30
0.0
10
2030.0
20
-5.0
30
0.0
10
2092.0
20
-16.0
30
0.0
10
2154.0
20
-38.0
30
0.0
10
2209.0
20
-73.0
30
0.0
10
2235.0
20
-101.0
30
0.0
10
2258.0
20
-134.0
30
0.0
10
2278.0
20
-172.0
30
0.0
10
2293.0
20
-214.0
30
0.0
10
2306.0
20
-261.0
30
0.0
10
2315.0
20
-313.0
30
0.0
10
2322.0
20
-368.0
30
0.0
10
2325.0
20
-432.0
30
0.0
10
2326.0
20
-497.0
30
0.0
10
2325.0
20
-558.0
30
0.0
10
2323.0
20
-612.0
30
0.0
10
2320.0
20
-656.0
30
0.0
10
2318.0
20
-685.0
30
0.0
10
2317.0
20
-695.0
30
0.0
10
2321.0
20
-2300.0
30
0.0
10
2324.0
20
-2600.0
30
0.0
10
13.0
20
-2598.0
30
0.0
6
Solid
370
35
62
0
0
ENDSEC
0
SECTION
2
OBJECTS
0
DICTIONARY
5
2867
330
0
100
AcDbDictionary
281
1
3
ACAD_GROUP
350
2868
0
DICTIONARY
5
2868
330
2867
100
AcDbDictionary
281
1
0
ENDSEC
0
EOF
