999

0
SECTION
2
HEADER
9
$ACADVER
1
AC1021
9
$HANDSEED
5
2997
0
ENDSEC
0
SECTION
2
CLASSES
0
ENDSEC
0
SECTION
2
TABLES
0
TABLE
2
VPORT
5
297f
100
AcDbSymbolTable
70
1
0
VPORT
5
297e
100
AcDbSymbolTableRecord
100
AcDbViewportTableRecord
2
*ACTIVE
10
0
20
0
11
1
21
1
12
500.0
22
500.0
40
1000.0
70
0
0
ENDTAB
0
TABLE
2
LTYPE
5
2980
100
AcDbSymbolTable
70
3
0
LTYPE
5
2988
100
AcDbSymbolTableRecord
100
AcDbLinetypeTableRecord
2
Solid
70
0
72
65
73
0
3

0
LTYPE
5
2989
100
AcDbSymbolTableRecord
100
AcDbLinetypeTableRecord
2
ByBlock
70
0
72
65
73
0
3

0
LTYPE
5
298a
100
AcDbSymbolTableRecord
100
AcDbLinetypeTableRecord
2
ByLayer
70
0
72
65
73
0
3

0
ENDTAB
0
TABLE
2
LAYER
5
2981
100
AcDbSymbolTable
70
1
0
LAYER
5
298b
100
AcDbSymbolTableRecord
100
AcDbLayerTableRecord
2
0
70
0
390
0
0
ENDTAB
0
TABLE
2
STYLE
5
2982
100
AcDbSymbolTable
70
0
0
ENDTAB
0
TABLE
2
VIEW
5
2983
100
AcDbSymbolTable
70
0
0
ENDTAB
0
TABLE
2
UCS
5
2984
100
AcDbSymbolTable
70
0
0
ENDTAB
0
TABLE
2
APPID
5
2985
100
AcDbSymbolTable
70
1
0
APPID
5
298c
100
AcDbSymbolTableRecord
100
AcDbRegAppTableRecord
2
ACAD
70
0
0
ENDTAB
0
TABLE
2
DIMSTYLE
5
2986
100
AcDbSymbolTable
70
0
100
AcDbDimStyleTable
71
1
0
ENDTAB
0
TABLE
2
BLOCK_RECORD
5
2987
100
AcDbSymbolTable
70
2
0
BLOCK_RECORD
5
298d
100
AcDbSymbolTableRecord
100
AcDbBlockTableRecord
2
*Model_Space
70
0
280
1
281
0
0
BLOCK_RECORD
5
298e
100
AcDbSymbolTableRecord
100
AcDbBlockTableRecord
2
*Paper_Space
70
0
280
1
281
0
0
ENDTAB
0
ENDSEC
0
SECTION
2
BLOCKS
0
BLOCK
5
298f
100
AcDbEntity
100
AcDbBlockBegin
2
*Model_Space
70
0
10
0
20
0
30
0
3
*Model_Space
1

0
ENDBLK
5
2990
100
AcDbEntity
100
AcDbBlockEnd
0
BLOCK
5
2991
100
AcDbEntity
100
AcDbBlockBegin
2
*Paper_Space
70
0
10
0
20
0
30
0
3
*Paper_Space
1

0
ENDBLK
5
2992
100
AcDbEntity
100
AcDbBlockEnd
0
ENDSEC
0
SECTION
2
ENTITIES
0
LWPOLYLINE
5
2995
100
AcDbEntity
100
AcDbPolyline
90
107
70
1
10
20.0
20
-2559.0
30
0.0
10
25.0
20
-2550.0
30
0.0
10
31.0
20
-2535.0
30
0.0
10
37.0
20
-2514.0
30
0.0
10
43.0
20
-2488.0
30
0.0
10
46.0
20
-2457.0
30
0.0
10
46.0
20
-2421.0
30
0.0
10
42.0
20
-2380.0
30
0.0
10
35.0
20
-2337.0
30
0.0
10
26.0
20
-2296.0
30
0.0
10
17.0
20
-2258.0
30
0.0
10
8.0
20
-2227.0
30
0.0
10
2.0
20
-2207.0
30
0.0
10
0.0
20
-2199.0
30
0.0
10
20.0
20
-2197.0
30
0.0
10
78.0
20
-2191.0
30
0.0
10
168.0
20
-2181.0
30
0.0
10
288.0
20
-2168.0
30
0.0
10
433.0
20
-2151.0
30
0.0
10
598.0
20
-2131.0
30
0.0
10
780.0
20
-2107.0
30
0.0
10
954.0
20
-2084.0
30
0.0
10
1136.0
20
-2056.0
30
0.0
10
1322.0
20
-2024.0
30
0.0
10
1508.0
20
-1987.0
30
0.0
10
1694.0
20
-1942.0
30
0.0
10
1875.0
20
-1890.0
30
0.0
10
2048.0
20
-1829.0
30
0.0
10
2296.0
20
-1716.0
30
0.0
10
2516.0
20
-1591.0
30
0.0
10
2704.0
20
-1464.0
30
0.0
10
2857.0
20
-1346.0
30
0.0
10
2971.0
20
-1248.0
30
0.0
10
3041.0
20
-1181.0
30
0.0
10
3066.0
20
-1156.0
30
0.0
10
3077.0
20
-1145.0
30
0.0
10
3107.0
20
-1115.0
30
0.0
10
3154.0
20
-1066.0
30
0.0
10
3213.0
20
-1000.0
30
0.0
10
3281.0
20
-920.0
30
0.0
10
3354.0
20
-825.0
30
0.0
10
3430.0
20
-719.0
30
0.0
10
3515.0
20
-584.0
30
0.0
10
3596.0
20
-444.0
30
0.0
10
3668.0
20
-309.0
30
0.0
10
3729.0
20
-188.0
30
0.0
10
3777.0
20
-90.0
30
0.0
10
3807.0
20
-24.0
30
0.0
10
3818.0
20
0.0
30
0.0
10
3832.0
20
-6.0
30
0.0
10
3871.0
20
-22.0
30
0.0
10
3931.0
20
-47.0
30
0.0
10
4008.0
20
-77.0
30
0.0
10
4098.0
20
-112.0
30
0.0
10
4198.0
20
-149.0
30
0.0
10
4302.0
20
-185.0
30
0.0
10
4410.0
20
-220.0
30
0.0
10
4515.0
20
-253.0
30
0.0
10
4611.0
20
-281.0
30
0.0
10
4694.0
20
-304.0
30
0.0
10
4759.0
20
-322.0
30
0.0
10
4802.0
20
-334.0
30
0.0
10
4817.0
20
-337.0
30
0.0
10
4819.0
20
-359.0
30
0.0
10
4823.0
20
-419.0
30
0.0
10
4830.0
20
-512.0
30
0.0
10
4839.0
20
-634.0
30
0.0
10
4850.0
20
-779.0
30
0.0
10
4863.0
20
-943.0
30
0.0
10
4876.0
20
-1118.0
30
0.0
10
4893.0
20
-1333.0
30
0.0
10
4910.0
20
-1547.0
30
0.0
10
4925.0
20
-1747.0
30
0.0
10
4939.0
20
-1924.0
30
0.0
10
4950.0
20
-2064.0
30
0.0
10
4958.0
20
-2157.0
30
0.0
10
4960.0
20
-2190.0
30
0.0
10
4964.0
20
-2253.0
30
0.0
10
4975.0
20
-2415.0
30
0.0
10
4989.0
20
-2637.0
30
0.0
10
5004.0
20
-2879.0
30
0.0
10
5018.0
20
-3100.0
30
0.0
10
5028.0
20
-3263.0
30
0.0
10
5032.0
20
-3326.0
30
0.0
10
4029.0
20
-3333.0
30
0.0
10
3955.0
20
-3333.0
30
0.0
10
3748.0
20
-3329.0
30
0.0
10
3433.0
20
-3316.0
30
0.0
10
3034.0
20
-3289.0
30
0.0
10
2575.0
20
-3241.0
30
0.0
10
2080.0
20
-3168.0
30
0.0
10
1574.0
20
-3063.0
30
0.0
10
1410.0
20
-3021.0
30
0.0
10
1250.0
20
-2977.0
30
0.0
10
1093.0
20
-2931.0
30
0.0
10
941.0
20
-2883.0
30
0.0
10
796.0
20
-2836.0
30
0.0
10
658.0
20
-2790.0
30
0.0
10
530.0
20
-2745.0
30
0.0
10
407.0
20
-2702.0
30
0.0
10
297.0
20
-2663.0
30
0.0
10
202.0
20
-2629.0
30
0.0
10
125.0
20
-2601.0
30
0.0
10
67.0
20
-2580.0
30
0.0
10
31.0
20
-2567.0
30
0.0
10
19.0
20
-2562.0
30
0.0
10
20.0
20
-2559.0
30
0.0
6
Solid
370
35
62
0
0
ENDSEC
0
SECTION
2
OBJECTS
0
DICTIONARY
5
2993
330
0
100
AcDbDictionary
281
1
3
ACAD_GROUP
350
2994
0
DICTIONARY
5
2994
330
2993
100
AcDbDictionary
281
1
0
ENDSEC
0
EOF
