999

0
SECTION
2
HEADER
9
$ACADVER
1
AC1021
9
$HANDSEED
5
29b0
0
ENDSEC
0
SECTION
2
CLASSES
0
ENDSEC
0
SECTION
2
TABLES
0
TABLE
2
VPORT
5
2998
100
AcDbSymbolTable
70
1
0
VPORT
5
2997
100
AcDbSymbolTableRecord
100
AcDbViewportTableRecord
2
*ACTIVE
10
0
20
0
11
1
21
1
12
500.0
22
500.0
40
1000.0
70
0
0
ENDTAB
0
TABLE
2
LTYPE
5
2999
100
AcDbSymbolTable
70
3
0
LTYPE
5
29a1
100
AcDbSymbolTableRecord
100
AcDbLinetypeTableRecord
2
Solid
70
0
72
65
73
0
3

0
LTYPE
5
29a2
100
AcDbSymbolTableRecord
100
AcDbLinetypeTableRecord
2
ByBlock
70
0
72
65
73
0
3

0
LTYPE
5
29a3
100
AcDbSymbolTableRecord
100
AcDbLinetypeTableRecord
2
ByLayer
70
0
72
65
73
0
3

0
ENDTAB
0
TABLE
2
LAYER
5
299a
100
AcDbSymbolTable
70
1
0
LAYER
5
29a4
100
AcDbSymbolTableRecord
100
AcDbLayerTableRecord
2
0
70
0
390
0
0
ENDTAB
0
TABLE
2
STYLE
5
299b
100
AcDbSymbolTable
70
0
0
ENDTAB
0
TABLE
2
VIEW
5
299c
100
AcDbSymbolTable
70
0
0
ENDTAB
0
TABLE
2
UCS
5
299d
100
AcDbSymbolTable
70
0
0
ENDTAB
0
TABLE
2
APPID
5
299e
100
AcDbSymbolTable
70
1
0
APPID
5
29a5
100
AcDbSymbolTableRecord
100
AcDbRegAppTableRecord
2
ACAD
70
0
0
ENDTAB
0
TABLE
2
DIMSTYLE
5
299f
100
AcDbSymbolTable
70
0
100
AcDbDimStyleTable
71
1
0
ENDTAB
0
TABLE
2
BLOCK_RECORD
5
29a0
100
AcDbSymbolTable
70
2
0
BLOCK_RECORD
5
29a6
100
AcDbSymbolTableRecord
100
AcDbBlockTableRecord
2
*Model_Space
70
0
280
1
281
0
0
BLOCK_RECORD
5
29a7
100
AcDbSymbolTableRecord
100
AcDbBlockTableRecord
2
*Paper_Space
70
0
280
1
281
0
0
ENDTAB
0
ENDSEC
0
SECTION
2
BLOCKS
0
BLOCK
5
29a8
100
AcDbEntity
100
AcDbBlockBegin
2
*Model_Space
70
0
10
0
20
0
30
0
3
*Model_Space
1

0
ENDBLK
5
29a9
100
AcDbEntity
100
AcDbBlockEnd
0
BLOCK
5
29aa
100
AcDbEntity
100
AcDbBlockBegin
2
*Paper_Space
70
0
10
0
20
0
30
0
3
*Paper_Space
1

0
ENDBLK
5
29ab
100
AcDbEntity
100
AcDbBlockEnd
0
ENDSEC
0
SECTION
2
ENTITIES
0
LWPOLYLINE
5
29ae
100
AcDbEntity
100
AcDbPolyline
90
41
70
1
10
152.0
20
-1646.0
30
0.0
10
0.0
20
0.0
30
0.0
10
37.0
20
-12.0
30
0.0
10
143.0
20
-47.0
30
0.0
10
310.0
20
-99.0
30
0.0
10
529.0
20
-165.0
30
0.0
10
793.0
20
-242.0
30
0.0
10
1091.0
20
-325.0
30
0.0
10
1417.0
20
-411.0
30
0.0
10
1830.0
20
-512.0
30
0.0
10
2246.0
20
-607.0
30
0.0
10
2640.0
20
-692.0
30
0.0
10
2989.0
20
-765.0
30
0.0
10
3269.0
20
-822.0
30
0.0
10
3454.0
20
-858.0
30
0.0
10
3521.0
20
-871.0
30
0.0
10
3519.0
20
-897.0
30
0.0
10
3515.0
20
-962.0
30
0.0
10
3508.0
20
-1051.0
30
0.0
10
3501.0
20
-1148.0
30
0.0
10
3494.0
20
-1238.0
30
0.0
10
3490.0
20
-1303.0
30
0.0
10
3488.0
20
-1328.0
30
0.0
10
3474.0
20
-1592.0
30
0.0
10
3473.0
20
-1606.0
30
0.0
10
3471.0
20
-1646.0
30
0.0
10
3469.0
20
-1708.0
30
0.0
10
3467.0
20
-1789.0
30
0.0
10
3464.0
20
-1885.0
30
0.0
10
3461.0
20
-1991.0
30
0.0
10
3459.0
20
-2105.0
30
0.0
10
3456.0
20
-2234.0
30
0.0
10
3455.0
20
-2362.0
30
0.0
10
3454.0
20
-2481.0
30
0.0
10
3453.0
20
-2585.0
30
0.0
10
3453.0
20
-2667.0
30
0.0
10
3453.0
20
-2721.0
30
0.0
10
3453.0
20
-2741.0
30
0.0
10
2742.0
20
-2747.0
30
0.0
10
260.0
20
-2790.0
30
0.0
10
152.0
20
-1646.0
30
0.0
6
Solid
370
35
62
0
0
ENDSEC
0
SECTION
2
OBJECTS
0
DICTIONARY
5
29ac
330
0
100
AcDbDictionary
281
1
3
ACAD_GROUP
350
29ad
0
DICTIONARY
5
29ad
330
29ac
100
AcDbDictionary
281
1
0
ENDSEC
0
EOF
