999

0
SECTION
2
HEADER
9
$ACADVER
1
AC1021
9
$HANDSEED
5
29c9
0
ENDSEC
0
SECTION
2
CLASSES
0
ENDSEC
0
SECTION
2
TABLES
0
TABLE
2
VPORT
5
29b1
100
AcDbSymbolTable
70
1
0
VPORT
5
29b0
100
AcDbSymbolTableRecord
100
AcDbViewportTableRecord
2
*ACTIVE
10
0
20
0
11
1
21
1
12
500.0
22
500.0
40
1000.0
70
0
0
ENDTAB
0
TABLE
2
LTYPE
5
29b2
100
AcDbSymbolTable
70
3
0
LTYPE
5
29ba
100
AcDbSymbolTableRecord
100
AcDbLinetypeTableRecord
2
Solid
70
0
72
65
73
0
3

0
LTYPE
5
29bb
100
AcDbSymbolTableRecord
100
AcDbLinetypeTableRecord
2
ByBlock
70
0
72
65
73
0
3

0
LTYPE
5
29bc
100
AcDbSymbolTableRecord
100
AcDbLinetypeTableRecord
2
ByLayer
70
0
72
65
73
0
3

0
ENDTAB
0
TABLE
2
LAYER
5
29b3
100
AcDbSymbolTable
70
1
0
LAYER
5
29bd
100
AcDbSymbolTableRecord
100
AcDbLayerTableRecord
2
0
70
0
390
0
0
ENDTAB
0
TABLE
2
STYLE
5
29b4
100
AcDbSymbolTable
70
0
0
ENDTAB
0
TABLE
2
VIEW
5
29b5
100
AcDbSymbolTable
70
0
0
ENDTAB
0
TABLE
2
UCS
5
29b6
100
AcDbSymbolTable
70
0
0
ENDTAB
0
TABLE
2
APPID
5
29b7
100
AcDbSymbolTable
70
1
0
APPID
5
29be
100
AcDbSymbolTableRecord
100
AcDbRegAppTableRecord
2
ACAD
70
0
0
ENDTAB
0
TABLE
2
DIMSTYLE
5
29b8
100
AcDbSymbolTable
70
0
100
AcDbDimStyleTable
71
1
0
ENDTAB
0
TABLE
2
BLOCK_RECORD
5
29b9
100
AcDbSymbolTable
70
2
0
BLOCK_RECORD
5
29bf
100
AcDbSymbolTableRecord
100
AcDbBlockTableRecord
2
*Model_Space
70
0
280
1
281
0
0
BLOCK_RECORD
5
29c0
100
AcDbSymbolTableRecord
100
AcDbBlockTableRecord
2
*Paper_Space
70
0
280
1
281
0
0
ENDTAB
0
ENDSEC
0
SECTION
2
BLOCKS
0
BLOCK
5
29c1
100
AcDbEntity
100
AcDbBlockBegin
2
*Model_Space
70
0
10
0
20
0
30
0
3
*Model_Space
1

0
ENDBLK
5
29c2
100
AcDbEntity
100
AcDbBlockEnd
0
BLOCK
5
29c3
100
AcDbEntity
100
AcDbBlockBegin
2
*Paper_Space
70
0
10
0
20
0
30
0
3
*Paper_Space
1

0
ENDBLK
5
29c4
100
AcDbEntity
100
AcDbBlockEnd
0
ENDSEC
0
SECTION
2
ENTITIES
0
LWPOLYLINE
5
29c7
100
AcDbEntity
100
AcDbPolyline
90
134
70
1
10
3495.0
20
-3031.0
30
0.0
10
3485.0
20
-2947.0
30
0.0
10
3467.0
20
-2825.0
30
0.0
10
3440.0
20
-2677.0
30
0.0
10
3403.0
20
-2516.0
30
0.0
10
3355.0
20
-2357.0
30
0.0
10
3294.0
20
-2213.0
30
0.0
10
3242.0
20
-2125.0
30
0.0
10
3185.0
20
-2050.0
30
0.0
10
3125.0
20
-1988.0
30
0.0
10
3062.0
20
-1935.0
30
0.0
10
3000.0
20
-1893.0
30
0.0
10
2940.0
20
-1858.0
30
0.0
10
2883.0
20
-1830.0
30
0.0
10
2843.0
20
-1811.0
30
0.0
10
2806.0
20
-1796.0
30
0.0
10
2775.0
20
-1784.0
30
0.0
10
2749.0
20
-1774.0
30
0.0
10
2730.0
20
-1768.0
30
0.0
10
2718.0
20
-1764.0
30
0.0
10
2714.0
20
-1763.0
30
0.0
10
2695.0
20
-1757.0
30
0.0
10
2642.0
20
-1741.0
30
0.0
10
2561.0
20
-1719.0
30
0.0
10
2457.0
20
-1694.0
30
0.0
10
2336.0
20
-1668.0
30
0.0
10
2205.0
20
-1646.0
30
0.0
10
2067.0
20
-1629.0
30
0.0
10
1965.0
20
-1622.0
30
0.0
10
1868.0
20
-1619.0
30
0.0
10
1779.0
20
-1618.0
30
0.0
10
1702.0
20
-1620.0
30
0.0
10
1642.0
20
-1622.0
30
0.0
10
1603.0
20
-1625.0
30
0.0
10
1589.0
20
-1626.0
30
0.0
10
1568.0
20
-1627.0
30
0.0
10
1510.0
20
-1630.0
30
0.0
10
1420.0
20
-1635.0
30
0.0
10
1307.0
20
-1643.0
30
0.0
10
1176.0
20
-1654.0
30
0.0
10
1036.0
20
-1668.0
30
0.0
10
892.0
20
-1685.0
30
0.0
10
748.0
20
-1705.0
30
0.0
10
613.0
20
-1727.0
30
0.0
10
492.0
20
-1749.0
30
0.0
10
389.0
20
-1769.0
30
0.0
10
310.0
20
-1785.0
30
0.0
10
258.0
20
-1796.0
30
0.0
10
240.0
20
-1800.0
30
0.0
10
237.0
20
-1794.0
30
0.0
10
229.0
20
-1778.0
30
0.0
10
216.0
20
-1752.0
30
0.0
10
199.0
20
-1720.0
30
0.0
10
179.0
20
-1683.0
30
0.0
10
156.0
20
-1643.0
30
0.0
10
131.0
20
-1603.0
30
0.0
10
105.0
20
-1565.0
30
0.0
10
79.0
20
-1529.0
30
0.0
10
54.0
20
-1496.0
30
0.0
10
33.0
20
-1469.0
30
0.0
10
16.0
20
-1448.0
30
0.0
10
4.0
20
-1434.0
30
0.0
10
0.0
20
-1430.0
30
0.0
10
38.0
20
-1401.0
30
0.0
10
144.0
20
-1324.0
30
0.0
10
306.0
20
-1209.0
30
0.0
10
512.0
20
-1069.0
30
0.0
10
748.0
20
-916.0
30
0.0
10
1003.0
20
-761.0
30
0.0
10
1264.0
20
-616.0
30
0.0
10
1524.0
20
-490.0
30
0.0
10
1778.0
20
-384.0
30
0.0
10
2026.0
20
-297.0
30
0.0
10
2267.0
20
-226.0
30
0.0
10
2502.0
20
-169.0
30
0.0
10
2729.0
20
-125.0
30
0.0
10
2950.0
20
-89.0
30
0.0
10
3122.0
20
-67.0
30
0.0
10
3284.0
20
-48.0
30
0.0
10
3430.0
20
-34.0
30
0.0
10
3553.0
20
-24.0
30
0.0
10
3649.0
20
-17.0
30
0.0
10
3710.0
20
-14.0
30
0.0
10
3732.0
20
-12.0
30
0.0
10
3752.0
20
-11.0
30
0.0
10
3809.0
20
-9.0
30
0.0
10
3896.0
20
-6.0
30
0.0
10
4007.0
20
-2.0
30
0.0
10
4137.0
20
0.0
30
0.0
10
4278.0
20
0.0
30
0.0
10
4425.0
20
-2.0
30
0.0
10
4495.0
20
-4.0
30
0.0
10
4561.0
20
-7.0
30
0.0
10
4622.0
20
-10.0
30
0.0
10
4675.0
20
-12.0
30
0.0
10
4716.0
20
-15.0
30
0.0
10
4743.0
20
-16.0
30
0.0
10
4752.0
20
-17.0
30
0.0
10
4750.0
20
-30.0
30
0.0
10
4746.0
20
-67.0
30
0.0
10
4739.0
20
-125.0
30
0.0
10
4730.0
20
-200.0
30
0.0
10
4719.0
20
-289.0
30
0.0
10
4709.0
20
-388.0
30
0.0
10
4698.0
20
-494.0
30
0.0
10
4685.0
20
-630.0
30
0.0
10
4674.0
20
-764.0
30
0.0
10
4664.0
20
-890.0
30
0.0
10
4656.0
20
-1000.0
30
0.0
10
4650.0
20
-1087.0
30
0.0
10
4647.0
20
-1144.0
30
0.0
10
4645.0
20
-1165.0
30
0.0
10
4638.0
20
-1252.0
30
0.0
10
4619.0
20
-1478.0
30
0.0
10
4594.0
20
-1786.0
30
0.0
10
4566.0
20
-2121.0
30
0.0
10
4540.0
20
-2429.0
30
0.0
10
4521.0
20
-2654.0
30
0.0
10
4514.0
20
-2741.0
30
0.0
10
4501.0
20
-2745.0
30
0.0
10
4465.0
20
-2754.0
30
0.0
10
4408.0
20
-2769.0
30
0.0
10
4335.0
20
-2789.0
30
0.0
10
4249.0
20
-2813.0
30
0.0
10
4154.0
20
-2840.0
30
0.0
10
4052.0
20
-2871.0
30
0.0
10
3938.0
20
-2908.0
30
0.0
10
3826.0
20
-2945.0
30
0.0
10
3722.0
20
-2981.0
30
0.0
10
3632.0
20
-3012.0
30
0.0
10
3561.0
20
-3038.0
30
0.0
10
3514.0
20
-3055.0
30
0.0
10
3498.0
20
-3061.0
30
0.0
10
3495.0
20
-3031.0
30
0.0
6
Solid
370
35
62
0
0
ENDSEC
0
SECTION
2
OBJECTS
0
DICTIONARY
5
29c5
330
0
100
AcDbDictionary
281
1
3
ACAD_GROUP
350
29c6
0
DICTIONARY
5
29c6
330
29c5
100
AcDbDictionary
281
1
0
ENDSEC
0
EOF
