999

0
SECTION
2
HEADER
9
$ACADVER
1
AC1021
9
$HANDSEED
5
29e2
0
ENDSEC
0
SECTION
2
CLASSES
0
ENDSEC
0
SECTION
2
TABLES
0
TABLE
2
VPORT
5
29ca
100
AcDbSymbolTable
70
1
0
VPORT
5
29c9
100
AcDbSymbolTableRecord
100
AcDbViewportTableRecord
2
*ACTIVE
10
0
20
0
11
1
21
1
12
500.0
22
500.0
40
1000.0
70
0
0
ENDTAB
0
TABLE
2
LTYPE
5
29cb
100
AcDbSymbolTable
70
3
0
LTYPE
5
29d3
100
AcDbSymbolTableRecord
100
AcDbLinetypeTableRecord
2
Solid
70
0
72
65
73
0
3

0
LTYPE
5
29d4
100
AcDbSymbolTableRecord
100
AcDbLinetypeTableRecord
2
ByBlock
70
0
72
65
73
0
3

0
LTYPE
5
29d5
100
AcDbSymbolTableRecord
100
AcDbLinetypeTableRecord
2
ByLayer
70
0
72
65
73
0
3

0
ENDTAB
0
TABLE
2
LAYER
5
29cc
100
AcDbSymbolTable
70
1
0
LAYER
5
29d6
100
AcDbSymbolTableRecord
100
AcDbLayerTableRecord
2
0
70
0
390
0
0
ENDTAB
0
TABLE
2
STYLE
5
29cd
100
AcDbSymbolTable
70
0
0
ENDTAB
0
TABLE
2
VIEW
5
29ce
100
AcDbSymbolTable
70
0
0
ENDTAB
0
TABLE
2
UCS
5
29cf
100
AcDbSymbolTable
70
0
0
ENDTAB
0
TABLE
2
APPID
5
29d0
100
AcDbSymbolTable
70
1
0
APPID
5
29d7
100
AcDbSymbolTableRecord
100
AcDbRegAppTableRecord
2
ACAD
70
0
0
ENDTAB
0
TABLE
2
DIMSTYLE
5
29d1
100
AcDbSymbolTable
70
0
100
AcDbDimStyleTable
71
1
0
ENDTAB
0
TABLE
2
BLOCK_RECORD
5
29d2
100
AcDbSymbolTable
70
2
0
BLOCK_RECORD
5
29d8
100
AcDbSymbolTableRecord
100
AcDbBlockTableRecord
2
*Model_Space
70
0
280
1
281
0
0
BLOCK_RECORD
5
29d9
100
AcDbSymbolTableRecord
100
AcDbBlockTableRecord
2
*Paper_Space
70
0
280
1
281
0
0
ENDTAB
0
ENDSEC
0
SECTION
2
BLOCKS
0
BLOCK
5
29da
100
AcDbEntity
100
AcDbBlockBegin
2
*Model_Space
70
0
10
0
20
0
30
0
3
*Model_Space
1

0
ENDBLK
5
29db
100
AcDbEntity
100
AcDbBlockEnd
0
BLOCK
5
29dc
100
AcDbEntity
100
AcDbBlockBegin
2
*Paper_Space
70
0
10
0
20
0
30
0
3
*Paper_Space
1

0
ENDBLK
5
29dd
100
AcDbEntity
100
AcDbBlockEnd
0
ENDSEC
0
SECTION
2
ENTITIES
0
LWPOLYLINE
5
29e0
100
AcDbEntity
100
AcDbPolyline
90
114
70
1
10
4708.0
20
-3303.0
30
0.0
10
4665.0
20
-3256.0
30
0.0
10
4595.0
20
-3181.0
30
0.0
10
4501.0
20
-3083.0
30
0.0
10
4386.0
20
-2966.0
30
0.0
10
4252.0
20
-2835.0
30
0.0
10
4100.0
20
-2691.0
30
0.0
10
3962.0
20
-2565.0
30
0.0
10
3814.0
20
-2436.0
30
0.0
10
3660.0
20
-2306.0
30
0.0
10
3500.0
20
-2177.0
30
0.0
10
3336.0
20
-2051.0
30
0.0
10
3169.0
20
-1931.0
30
0.0
10
3002.0
20
-1818.0
30
0.0
10
2686.0
20
-1628.0
30
0.0
10
2385.0
20
-1471.0
30
0.0
10
2111.0
20
-1346.0
30
0.0
10
1876.0
20
-1252.0
30
0.0
10
1694.0
20
-1186.0
30
0.0
10
1575.0
20
-1148.0
30
0.0
10
1533.0
20
-1135.0
30
0.0
10
1509.0
20
-1129.0
30
0.0
10
1443.0
20
-1109.0
30
0.0
10
1341.0
20
-1078.0
30
0.0
10
1211.0
20
-1035.0
30
0.0
10
1061.0
20
-981.0
30
0.0
10
898.0
20
-918.0
30
0.0
10
728.0
20
-847.0
30
0.0
10
643.0
20
-807.0
30
0.0
10
559.0
20
-765.0
30
0.0
10
477.0
20
-721.0
30
0.0
10
400.0
20
-675.0
30
0.0
10
328.0
20
-626.0
30
0.0
10
262.0
20
-575.0
30
0.0
10
204.0
20
-521.0
30
0.0
10
142.0
20
-450.0
30
0.0
10
94.0
20
-378.0
30
0.0
10
57.0
20
-310.0
30
0.0
10
30.0
20
-251.0
30
0.0
10
12.0
20
-203.0
30
0.0
10
3.0
20
-172.0
30
0.0
10
0.0
20
-160.0
30
0.0
10
1333.0
20
0.0
30
0.0
10
1340.0
20
-10.0
30
0.0
10
1361.0
20
-37.0
30
0.0
10
1395.0
20
-77.0
30
0.0
10
1443.0
20
-128.0
30
0.0
10
1504.0
20
-184.0
30
0.0
10
1579.0
20
-242.0
30
0.0
10
1666.0
20
-299.0
30
0.0
10
1713.0
20
-325.0
30
0.0
10
1762.0
20
-350.0
30
0.0
10
1814.0
20
-374.0
30
0.0
10
1866.0
20
-398.0
30
0.0
10
1920.0
20
-420.0
30
0.0
10
1974.0
20
-442.0
30
0.0
10
2029.0
20
-464.0
30
0.0
10
2133.0
20
-504.0
30
0.0
10
2232.0
20
-543.0
30
0.0
10
2321.0
20
-577.0
30
0.0
10
2397.0
20
-607.0
30
0.0
10
2456.0
20
-629.0
30
0.0
10
2495.0
20
-644.0
30
0.0
10
2508.0
20
-649.0
30
0.0
10
2532.0
20
-659.0
30
0.0
10
2596.0
20
-687.0
30
0.0
10
2693.0
20
-730.0
30
0.0
10
2814.0
20
-786.0
30
0.0
10
2952.0
20
-851.0
30
0.0
10
3096.0
20
-923.0
30
0.0
10
3239.0
20
-999.0
30
0.0
10
3402.0
20
-1093.0
30
0.0
10
3554.0
20
-1190.0
30
0.0
10
3696.0
20
-1291.0
30
0.0
10
3832.0
20
-1399.0
30
0.0
10
3964.0
20
-1516.0
30
0.0
10
4094.0
20
-1641.0
30
0.0
10
4226.0
20
-1778.0
30
0.0
10
4390.0
20
-1962.0
30
0.0
10
4552.0
20
-2153.0
30
0.0
10
4703.0
20
-2337.0
30
0.0
10
4834.0
20
-2503.0
30
0.0
10
4938.0
20
-2638.0
30
0.0
10
5007.0
20
-2728.0
30
0.0
10
5031.0
20
-2761.0
30
0.0
10
5027.0
20
-2763.0
30
0.0
10
5014.0
20
-2771.0
30
0.0
10
4996.0
20
-2782.0
30
0.0
10
4974.0
20
-2796.0
30
0.0
10
4950.0
20
-2813.0
30
0.0
10
4925.0
20
-2832.0
30
0.0
10
4902.0
20
-2852.0
30
0.0
10
4882.0
20
-2872.0
30
0.0
10
4864.0
20
-2893.0
30
0.0
10
4850.0
20
-2915.0
30
0.0
10
4837.0
20
-2936.0
30
0.0
10
4827.0
20
-2956.0
30
0.0
10
4817.0
20
-2977.0
30
0.0
10
4808.0
20
-2998.0
30
0.0
10
4799.0
20
-3018.0
30
0.0
10
4790.0
20
-3038.0
30
0.0
10
4781.0
20
-3059.0
30
0.0
10
4772.0
20
-3081.0
30
0.0
10
4764.0
20
-3105.0
30
0.0
10
4756.0
20
-3131.0
30
0.0
10
4749.0
20
-3159.0
30
0.0
10
4743.0
20
-3190.0
30
0.0
10
4737.0
20
-3221.0
30
0.0
10
4732.0
20
-3251.0
30
0.0
10
4728.0
20
-3278.0
30
0.0
10
4726.0
20
-3300.0
30
0.0
10
4724.0
20
-3315.0
30
0.0
10
4723.0
20
-3320.0
30
0.0
10
4708.0
20
-3303.0
30
0.0
6
Solid
370
35
62
0
0
ENDSEC
0
SECTION
2
OBJECTS
0
DICTIONARY
5
29de
330
0
100
AcDbDictionary
281
1
3
ACAD_GROUP
350
29df
0
DICTIONARY
5
29df
330
29de
100
AcDbDictionary
281
1
0
ENDSEC
0
EOF
