999

0
SECTION
2
HEADER
9
$ACADVER
1
AC1021
9
$HANDSEED
5
29fb
0
ENDSEC
0
SECTION
2
CLASSES
0
ENDSEC
0
SECTION
2
TABLES
0
TABLE
2
VPORT
5
29e3
100
AcDbSymbolTable
70
1
0
VPORT
5
29e2
100
AcDbSymbolTableRecord
100
AcDbViewportTableRecord
2
*ACTIVE
10
0
20
0
11
1
21
1
12
500.0
22
500.0
40
1000.0
70
0
0
ENDTAB
0
TABLE
2
LTYPE
5
29e4
100
AcDbSymbolTable
70
3
0
LTYPE
5
29ec
100
AcDbSymbolTableRecord
100
AcDbLinetypeTableRecord
2
Solid
70
0
72
65
73
0
3

0
LTYPE
5
29ed
100
AcDbSymbolTableRecord
100
AcDbLinetypeTableRecord
2
ByBlock
70
0
72
65
73
0
3

0
LTYPE
5
29ee
100
AcDbSymbolTableRecord
100
AcDbLinetypeTableRecord
2
ByLayer
70
0
72
65
73
0
3

0
ENDTAB
0
TABLE
2
LAYER
5
29e5
100
AcDbSymbolTable
70
1
0
LAYER
5
29ef
100
AcDbSymbolTableRecord
100
AcDbLayerTableRecord
2
0
70
0
390
0
0
ENDTAB
0
TABLE
2
STYLE
5
29e6
100
AcDbSymbolTable
70
0
0
ENDTAB
0
TABLE
2
VIEW
5
29e7
100
AcDbSymbolTable
70
0
0
ENDTAB
0
TABLE
2
UCS
5
29e8
100
AcDbSymbolTable
70
0
0
ENDTAB
0
TABLE
2
APPID
5
29e9
100
AcDbSymbolTable
70
1
0
APPID
5
29f0
100
AcDbSymbolTableRecord
100
AcDbRegAppTableRecord
2
ACAD
70
0
0
ENDTAB
0
TABLE
2
DIMSTYLE
5
29ea
100
AcDbSymbolTable
70
0
100
AcDbDimStyleTable
71
1
0
ENDTAB
0
TABLE
2
BLOCK_RECORD
5
29eb
100
AcDbSymbolTable
70
2
0
BLOCK_RECORD
5
29f1
100
AcDbSymbolTableRecord
100
AcDbBlockTableRecord
2
*Model_Space
70
0
280
1
281
0
0
BLOCK_RECORD
5
29f2
100
AcDbSymbolTableRecord
100
AcDbBlockTableRecord
2
*Paper_Space
70
0
280
1
281
0
0
ENDTAB
0
ENDSEC
0
SECTION
2
BLOCKS
0
BLOCK
5
29f3
100
AcDbEntity
100
AcDbBlockBegin
2
*Model_Space
70
0
10
0
20
0
30
0
3
*Model_Space
1

0
ENDBLK
5
29f4
100
AcDbEntity
100
AcDbBlockEnd
0
BLOCK
5
29f5
100
AcDbEntity
100
AcDbBlockBegin
2
*Paper_Space
70
0
10
0
20
0
30
0
3
*Paper_Space
1

0
ENDBLK
5
29f6
100
AcDbEntity
100
AcDbBlockEnd
0
ENDSEC
0
SECTION
2
ENTITIES
0
LWPOLYLINE
5
29f9
100
AcDbEntity
100
AcDbPolyline
90
67
70
1
10
0.0
20
-3480.0
30
0.0
10
5.0
20
-2532.0
30
0.0
10
5.0
20
-71.0
30
0.0
10
18.0
20
-70.0
30
0.0
10
55.0
20
-67.0
30
0.0
10
112.0
20
-63.0
30
0.0
10
186.0
20
-58.0
30
0.0
10
272.0
20
-51.0
30
0.0
10
369.0
20
-45.0
30
0.0
10
471.0
20
-37.0
30
0.0
10
585.0
20
-30.0
30
0.0
10
696.0
20
-22.0
30
0.0
10
800.0
20
-15.0
30
0.0
10
890.0
20
-9.0
30
0.0
10
960.0
20
-4.0
30
0.0
10
1007.0
20
-1.0
30
0.0
10
1024.0
20
0.0
30
0.0
10
1029.0
20
-14.0
30
0.0
10
1047.0
20
-52.0
30
0.0
10
1080.0
20
-110.0
30
0.0
10
1131.0
20
-182.0
30
0.0
10
1201.0
20
-263.0
30
0.0
10
1293.0
20
-348.0
30
0.0
10
1410.0
20
-432.0
30
0.0
10
1574.0
20
-523.0
30
0.0
10
1758.0
20
-603.0
30
0.0
10
1945.0
20
-673.0
30
0.0
10
2119.0
20
-730.0
30
0.0
10
2263.0
20
-773.0
30
0.0
10
2361.0
20
-800.0
30
0.0
10
2398.0
20
-809.0
30
0.0
10
2450.0
20
-825.0
30
0.0
10
2598.0
20
-876.0
30
0.0
10
2825.0
20
-964.0
30
0.0
10
3115.0
20
-1092.0
30
0.0
10
3453.0
20
-1264.0
30
0.0
10
3824.0
20
-1484.0
30
0.0
10
4211.0
20
-1753.0
30
0.0
10
4369.0
20
-1877.0
30
0.0
10
4525.0
20
-2006.0
30
0.0
10
4677.0
20
-2138.0
30
0.0
10
4823.0
20
-2271.0
30
0.0
10
4962.0
20
-2400.0
30
0.0
10
5090.0
20
-2525.0
30
0.0
10
5207.0
20
-2640.0
30
0.0
10
5289.0
20
-2723.0
30
0.0
10
5361.0
20
-2798.0
30
0.0
10
5423.0
20
-2862.0
30
0.0
10
5472.0
20
-2915.0
30
0.0
10
5509.0
20
-2954.0
30
0.0
10
5532.0
20
-2979.0
30
0.0
10
5540.0
20
-2988.0
30
0.0
10
5538.0
20
-2991.0
30
0.0
10
5533.0
20
-3001.0
30
0.0
10
5526.0
20
-3017.0
30
0.0
10
5517.0
20
-3040.0
30
0.0
10
5507.0
20
-3069.0
30
0.0
10
5498.0
20
-3104.0
30
0.0
10
5491.0
20
-3146.0
30
0.0
10
5484.0
20
-3205.0
30
0.0
10
5480.0
20
-3268.0
30
0.0
10
5478.0
20
-3332.0
30
0.0
10
5478.0
20
-3390.0
30
0.0
10
5478.0
20
-3437.0
30
0.0
10
5479.0
20
-3469.0
30
0.0
10
5479.0
20
-3481.0
30
0.0
10
0.0
20
-3480.0
30
0.0
6
Solid
370
35
62
0
0
ENDSEC
0
SECTION
2
OBJECTS
0
DICTIONARY
5
29f7
330
0
100
AcDbDictionary
281
1
3
ACAD_GROUP
350
29f8
0
DICTIONARY
5
29f8
330
29f7
100
AcDbDictionary
281
1
0
ENDSEC
0
EOF
