999

0
SECTION
2
HEADER
9
$ACADVER
1
AC1021
9
$HANDSEED
5
2a14
0
ENDSEC
0
SECTION
2
CLASSES
0
ENDSEC
0
SECTION
2
TABLES
0
TABLE
2
VPORT
5
29fc
100
AcDbSymbolTable
70
1
0
VPORT
5
29fb
100
AcDbSymbolTableRecord
100
AcDbViewportTableRecord
2
*ACTIVE
10
0
20
0
11
1
21
1
12
500.0
22
500.0
40
1000.0
70
0
0
ENDTAB
0
TABLE
2
LTYPE
5
29fd
100
AcDbSymbolTable
70
3
0
LTYPE
5
2a05
100
AcDbSymbolTableRecord
100
AcDbLinetypeTableRecord
2
Solid
70
0
72
65
73
0
3

0
LTYPE
5
2a06
100
AcDbSymbolTableRecord
100
AcDbLinetypeTableRecord
2
ByBlock
70
0
72
65
73
0
3

0
LTYPE
5
2a07
100
AcDbSymbolTableRecord
100
AcDbLinetypeTableRecord
2
ByLayer
70
0
72
65
73
0
3

0
ENDTAB
0
TABLE
2
LAYER
5
29fe
100
AcDbSymbolTable
70
1
0
LAYER
5
2a08
100
AcDbSymbolTableRecord
100
AcDbLayerTableRecord
2
0
70
0
390
0
0
ENDTAB
0
TABLE
2
STYLE
5
29ff
100
AcDbSymbolTable
70
0
0
ENDTAB
0
TABLE
2
VIEW
5
2a00
100
AcDbSymbolTable
70
0
0
ENDTAB
0
TABLE
2
UCS
5
2a01
100
AcDbSymbolTable
70
0
0
ENDTAB
0
TABLE
2
APPID
5
2a02
100
AcDbSymbolTable
70
1
0
APPID
5
2a09
100
AcDbSymbolTableRecord
100
AcDbRegAppTableRecord
2
ACAD
70
0
0
ENDTAB
0
TABLE
2
DIMSTYLE
5
2a03
100
AcDbSymbolTable
70
0
100
AcDbDimStyleTable
71
1
0
ENDTAB
0
TABLE
2
BLOCK_RECORD
5
2a04
100
AcDbSymbolTable
70
2
0
BLOCK_RECORD
5
2a0a
100
AcDbSymbolTableRecord
100
AcDbBlockTableRecord
2
*Model_Space
70
0
280
1
281
0
0
BLOCK_RECORD
5
2a0b
100
AcDbSymbolTableRecord
100
AcDbBlockTableRecord
2
*Paper_Space
70
0
280
1
281
0
0
ENDTAB
0
ENDSEC
0
SECTION
2
BLOCKS
0
BLOCK
5
2a0c
100
AcDbEntity
100
AcDbBlockBegin
2
*Model_Space
70
0
10
0
20
0
30
0
3
*Model_Space
1

0
ENDBLK
5
2a0d
100
AcDbEntity
100
AcDbBlockEnd
0
BLOCK
5
2a0e
100
AcDbEntity
100
AcDbBlockBegin
2
*Paper_Space
70
0
10
0
20
0
30
0
3
*Paper_Space
1

0
ENDBLK
5
2a0f
100
AcDbEntity
100
AcDbBlockEnd
0
ENDSEC
0
SECTION
2
ENTITIES
0
LWPOLYLINE
5
2a12
100
AcDbEntity
100
AcDbPolyline
90
54
70
1
10
403.0
20
-3009.0
30
0.0
10
401.0
20
-2999.0
30
0.0
10
393.0
20
-2972.0
30
0.0
10
380.0
20
-2933.0
30
0.0
10
359.0
20
-2884.0
30
0.0
10
331.0
20
-2829.0
30
0.0
10
295.0
20
-2773.0
30
0.0
10
250.0
20
-2718.0
30
0.0
10
205.0
20
-2677.0
30
0.0
10
158.0
20
-2640.0
30
0.0
10
111.0
20
-2608.0
30
0.0
10
68.0
20
-2582.0
30
0.0
10
33.0
20
-2563.0
30
0.0
10
9.0
20
-2551.0
30
0.0
10
0.0
20
-2547.0
30
0.0
10
25.0
20
-2517.0
30
0.0
10
97.0
20
-2434.0
30
0.0
10
210.0
20
-2311.0
30
0.0
10
359.0
20
-2159.0
30
0.0
10
538.0
20
-1988.0
30
0.0
10
741.0
20
-1812.0
30
0.0
10
964.0
20
-1641.0
30
0.0
10
1216.0
20
-1475.0
30
0.0
10
1469.0
20
-1330.0
30
0.0
10
1709.0
20
-1208.0
30
0.0
10
1920.0
20
-1110.0
30
0.0
10
2090.0
20
-1038.0
30
0.0
10
2202.0
20
-994.0
30
0.0
10
2242.0
20
-979.0
30
0.0
10
2255.0
20
-974.0
30
0.0
10
2291.0
20
-961.0
30
0.0
10
2347.0
20
-940.0
30
0.0
10
2421.0
20
-912.0
30
0.0
10
2509.0
20
-877.0
30
0.0
10
2609.0
20
-836.0
30
0.0
10
2717.0
20
-790.0
30
0.0
10
2813.0
20
-748.0
30
0.0
10
2911.0
20
-703.0
30
0.0
10
3010.0
20
-656.0
30
0.0
10
3108.0
20
-608.0
30
0.0
10
3205.0
20
-558.0
30
0.0
10
3299.0
20
-507.0
30
0.0
10
3388.0
20
-456.0
30
0.0
10
3543.0
20
-358.0
30
0.0
10
3674.0
20
-265.0
30
0.0
10
3782.0
20
-180.0
30
0.0
10
3867.0
20
-107.0
30
0.0
10
3927.0
20
-50.0
30
0.0
10
3964.0
20
-13.0
30
0.0
10
3976.0
20
0.0
30
0.0
10
4908.0
20
-31.0
30
0.0
10
4913.0
20
-1482.0
30
0.0
10
4925.0
20
-2994.0
30
0.0
10
403.0
20
-3009.0
30
0.0
6
Solid
370
35
62
0
0
ENDSEC
0
SECTION
2
OBJECTS
0
DICTIONARY
5
2a10
330
0
100
AcDbDictionary
281
1
3
ACAD_GROUP
350
2a11
0
DICTIONARY
5
2a11
330
2a10
100
AcDbDictionary
281
1
0
ENDSEC
0
EOF
