999

0
SECTION
2
HEADER
9
$ACADVER
1
AC1021
9
$HANDSEED
5
2884
0
ENDSEC
0
SECTION
2
CLASSES
0
ENDSEC
0
SECTION
2
TABLES
0
TABLE
2
VPORT
5
286c
100
AcDbSymbolTable
70
1
0
VPORT
5
286b
100
AcDbSymbolTableRecord
100
AcDbViewportTableRecord
2
*ACTIVE
10
0
20
0
11
1
21
1
12
500.0
22
500.0
40
1000.0
70
0
0
ENDTAB
0
TABLE
2
LTYPE
5
286d
100
AcDbSymbolTable
70
3
0
LTYPE
5
2875
100
AcDbSymbolTableRecord
100
AcDbLinetypeTableRecord
2
Solid
70
0
72
65
73
0
3

0
LTYPE
5
2876
100
AcDbSymbolTableRecord
100
AcDbLinetypeTableRecord
2
ByBlock
70
0
72
65
73
0
3

0
LTYPE
5
2877
100
AcDbSymbolTableRecord
100
AcDbLinetypeTableRecord
2
ByLayer
70
0
72
65
73
0
3

0
ENDTAB
0
TABLE
2
LAYER
5
286e
100
AcDbSymbolTable
70
1
0
LAYER
5
2878
100
AcDbSymbolTableRecord
100
AcDbLayerTableRecord
2
0
70
0
390
0
0
ENDTAB
0
TABLE
2
STYLE
5
286f
100
AcDbSymbolTable
70
0
0
ENDTAB
0
TABLE
2
VIEW
5
2870
100
AcDbSymbolTable
70
0
0
ENDTAB
0
TABLE
2
UCS
5
2871
100
AcDbSymbolTable
70
0
0
ENDTAB
0
TABLE
2
APPID
5
2872
100
AcDbSymbolTable
70
1
0
APPID
5
2879
100
AcDbSymbolTableRecord
100
AcDbRegAppTableRecord
2
ACAD
70
0
0
ENDTAB
0
TABLE
2
DIMSTYLE
5
2873
100
AcDbSymbolTable
70
0
100
AcDbDimStyleTable
71
1
0
ENDTAB
0
TABLE
2
BLOCK_RECORD
5
2874
100
AcDbSymbolTable
70
2
0
BLOCK_RECORD
5
287a
100
AcDbSymbolTableRecord
100
AcDbBlockTableRecord
2
*Model_Space
70
0
280
1
281
0
0
BLOCK_RECORD
5
287b
100
AcDbSymbolTableRecord
100
AcDbBlockTableRecord
2
*Paper_Space
70
0
280
1
281
0
0
ENDTAB
0
ENDSEC
0
SECTION
2
BLOCKS
0
BLOCK
5
287c
100
AcDbEntity
100
AcDbBlockBegin
2
*Model_Space
70
0
10
0
20
0
30
0
3
*Model_Space
1

0
ENDBLK
5
287d
100
AcDbEntity
100
AcDbBlockEnd
0
BLOCK
5
287e
100
AcDbEntity
100
AcDbBlockBegin
2
*Paper_Space
70
0
10
0
20
0
30
0
3
*Paper_Space
1

0
ENDBLK
5
287f
100
AcDbEntity
100
AcDbBlockEnd
0
ENDSEC
0
SECTION
2
ENTITIES
0
LWPOLYLINE
5
2882
100
AcDbEntity
100
AcDbPolyline
90
73
70
1
10
3014.0
20
-1448.0
30
0.0
10
2915.0
20
-1454.0
30
0.0
10
2756.0
20
-1459.0
30
0.0
10
2541.0
20
-1461.0
30
0.0
10
2277.0
20
-1456.0
30
0.0
10
1968.0
20
-1441.0
30
0.0
10
1618.0
20
-1412.0
30
0.0
10
1304.0
20
-1378.0
30
0.0
10
986.0
20
-1336.0
30
0.0
10
683.0
20
-1292.0
30
0.0
10
413.0
20
-1250.0
30
0.0
10
196.0
20
-1215.0
30
0.0
10
52.0
20
-1191.0
30
0.0
10
0.0
20
-1181.0
30
0.0
10
0.0
20
-1176.0
30
0.0
10
1.0
20
-1162.0
30
0.0
10
2.0
20
-1141.0
30
0.0
10
3.0
20
-1114.0
30
0.0
10
4.0
20
-1082.0
30
0.0
10
5.0
20
-1049.0
30
0.0
10
6.0
20
-1015.0
30
0.0
10
7.0
20
-985.0
30
0.0
10
7.0
20
-957.0
30
0.0
10
7.0
20
-932.0
30
0.0
10
8.0
20
-910.0
30
0.0
10
8.0
20
-894.0
30
0.0
10
8.0
20
-883.0
30
0.0
10
8.0
20
-880.0
30
0.0
10
9.0
20
-847.0
30
0.0
10
13.0
20
-763.0
30
0.0
10
17.0
20
-648.0
30
0.0
10
22.0
20
-523.0
30
0.0
10
27.0
20
-408.0
30
0.0
10
30.0
20
-325.0
30
0.0
10
31.0
20
-292.0
30
0.0
10
40.0
20
0.0
30
0.0
10
68.0
20
-4.0
30
0.0
10
142.0
20
-16.0
30
0.0
10
249.0
20
-34.0
30
0.0
10
379.0
20
-55.0
30
0.0
10
516.0
20
-78.0
30
0.0
10
650.0
20
-101.0
30
0.0
10
768.0
20
-123.0
30
0.0
10
839.0
20
-137.0
30
0.0
10
898.0
20
-150.0
30
0.0
10
950.0
20
-161.0
30
0.0
10
999.0
20
-172.0
30
0.0
10
1049.0
20
-182.0
30
0.0
10
1105.0
20
-192.0
30
0.0
10
1172.0
20
-202.0
30
0.0
10
1267.0
20
-216.0
30
0.0
10
1373.0
20
-230.0
30
0.0
10
1481.0
20
-243.0
30
0.0
10
1582.0
20
-254.0
30
0.0
10
1666.0
20
-264.0
30
0.0
10
1723.0
20
-270.0
30
0.0
10
1744.0
20
-272.0
30
0.0
10
1767.0
20
-273.0
30
0.0
10
1830.0
20
-277.0
30
0.0
10
1927.0
20
-281.0
30
0.0
10
2048.0
20
-286.0
30
0.0
10
2187.0
20
-291.0
30
0.0
10
2335.0
20
-295.0
30
0.0
10
2484.0
20
-297.0
30
0.0
10
2609.0
20
-297.0
30
0.0
10
2725.0
20
-296.0
30
0.0
10
2828.0
20
-293.0
30
0.0
10
2916.0
20
-291.0
30
0.0
10
2983.0
20
-288.0
30
0.0
10
3026.0
20
-286.0
30
0.0
10
3041.0
20
-285.0
30
0.0
10
3048.0
20
-1446.0
30
0.0
10
3014.0
20
-1448.0
30
0.0
6
Solid
370
35
62
0
0
ENDSEC
0
SECTION
2
OBJECTS
0
DICTIONARY
5
2880
330
0
100
AcDbDictionary
281
1
3
ACAD_GROUP
350
2881
0
DICTIONARY
5
2881
330
2880
100
AcDbDictionary
281
1
0
ENDSEC
0
EOF
