999

0
SECTION
2
HEADER
9
$ACADVER
1
AC1021
9
$HANDSEED
5
2a5f
0
ENDSEC
0
SECTION
2
CLASSES
0
ENDSEC
0
SECTION
2
TABLES
0
TABLE
2
VPORT
5
2a47
100
AcDbSymbolTable
70
1
0
VPORT
5
2a46
100
AcDbSymbolTableRecord
100
AcDbViewportTableRecord
2
*ACTIVE
10
0
20
0
11
1
21
1
12
500.0
22
500.0
40
1000.0
70
0
0
ENDTAB
0
TABLE
2
LTYPE
5
2a48
100
AcDbSymbolTable
70
3
0
LTYPE
5
2a50
100
AcDbSymbolTableRecord
100
AcDbLinetypeTableRecord
2
Solid
70
0
72
65
73
0
3

0
LTYPE
5
2a51
100
AcDbSymbolTableRecord
100
AcDbLinetypeTableRecord
2
ByBlock
70
0
72
65
73
0
3

0
LTYPE
5
2a52
100
AcDbSymbolTableRecord
100
AcDbLinetypeTableRecord
2
ByLayer
70
0
72
65
73
0
3

0
ENDTAB
0
TABLE
2
LAYER
5
2a49
100
AcDbSymbolTable
70
1
0
LAYER
5
2a53
100
AcDbSymbolTableRecord
100
AcDbLayerTableRecord
2
0
70
0
390
0
0
ENDTAB
0
TABLE
2
STYLE
5
2a4a
100
AcDbSymbolTable
70
0
0
ENDTAB
0
TABLE
2
VIEW
5
2a4b
100
AcDbSymbolTable
70
0
0
ENDTAB
0
TABLE
2
UCS
5
2a4c
100
AcDbSymbolTable
70
0
0
ENDTAB
0
TABLE
2
APPID
5
2a4d
100
AcDbSymbolTable
70
1
0
APPID
5
2a54
100
AcDbSymbolTableRecord
100
AcDbRegAppTableRecord
2
ACAD
70
0
0
ENDTAB
0
TABLE
2
DIMSTYLE
5
2a4e
100
AcDbSymbolTable
70
0
100
AcDbDimStyleTable
71
1
0
ENDTAB
0
TABLE
2
BLOCK_RECORD
5
2a4f
100
AcDbSymbolTable
70
2
0
BLOCK_RECORD
5
2a55
100
AcDbSymbolTableRecord
100
AcDbBlockTableRecord
2
*Model_Space
70
0
280
1
281
0
0
BLOCK_RECORD
5
2a56
100
AcDbSymbolTableRecord
100
AcDbBlockTableRecord
2
*Paper_Space
70
0
280
1
281
0
0
ENDTAB
0
ENDSEC
0
SECTION
2
BLOCKS
0
BLOCK
5
2a57
100
AcDbEntity
100
AcDbBlockBegin
2
*Model_Space
70
0
10
0
20
0
30
0
3
*Model_Space
1

0
ENDBLK
5
2a58
100
AcDbEntity
100
AcDbBlockEnd
0
BLOCK
5
2a59
100
AcDbEntity
100
AcDbBlockBegin
2
*Paper_Space
70
0
10
0
20
0
30
0
3
*Paper_Space
1

0
ENDBLK
5
2a5a
100
AcDbEntity
100
AcDbBlockEnd
0
ENDSEC
0
SECTION
2
ENTITIES
0
LWPOLYLINE
5
2a5d
100
AcDbEntity
100
AcDbPolyline
90
100
70
1
10
624.0
20
-2677.0
30
0.0
10
599.0
20
-2661.0
30
0.0
10
560.0
20
-2637.0
30
0.0
10
511.0
20
-2607.0
30
0.0
10
452.0
20
-2573.0
30
0.0
10
388.0
20
-2538.0
30
0.0
10
321.0
20
-2503.0
30
0.0
10
254.0
20
-2471.0
30
0.0
10
188.0
20
-2442.0
30
0.0
10
129.0
20
-2417.0
30
0.0
10
77.0
20
-2396.0
30
0.0
10
36.0
20
-2381.0
30
0.0
10
10.0
20
-2371.0
30
0.0
10
0.0
20
-2368.0
30
0.0
10
12.0
20
-2353.0
30
0.0
10
46.0
20
-2311.0
30
0.0
10
101.0
20
-2246.0
30
0.0
10
173.0
20
-2163.0
30
0.0
10
261.0
20
-2064.0
30
0.0
10
363.0
20
-1955.0
30
0.0
10
476.0
20
-1839.0
30
0.0
10
579.0
20
-1737.0
30
0.0
10
683.0
20
-1638.0
30
0.0
10
782.0
20
-1547.0
30
0.0
10
869.0
20
-1468.0
30
0.0
10
939.0
20
-1406.0
30
0.0
10
985.0
20
-1365.0
30
0.0
10
1002.0
20
-1350.0
30
0.0
10
1020.0
20
-1337.0
30
0.0
10
1073.0
20
-1303.0
30
0.0
10
1153.0
20
-1251.0
30
0.0
10
1254.0
20
-1187.0
30
0.0
10
1370.0
20
-1116.0
30
0.0
10
1495.0
20
-1043.0
30
0.0
10
1623.0
20
-972.0
30
0.0
10
1719.0
20
-923.0
30
0.0
10
1810.0
20
-880.0
30
0.0
10
1892.0
20
-842.0
30
0.0
10
1962.0
20
-812.0
30
0.0
10
2016.0
20
-789.0
30
0.0
10
2051.0
20
-775.0
30
0.0
10
2064.0
20
-770.0
30
0.0
10
2071.0
20
-768.0
30
0.0
10
2093.0
20
-760.0
30
0.0
10
2127.0
20
-749.0
30
0.0
10
2172.0
20
-734.0
30
0.0
10
2227.0
20
-716.0
30
0.0
10
2289.0
20
-695.0
30
0.0
10
2359.0
20
-671.0
30
0.0
10
2483.0
20
-630.0
30
0.0
10
2615.0
20
-583.0
30
0.0
10
2750.0
20
-532.0
30
0.0
10
2880.0
20
-475.0
30
0.0
10
3002.0
20
-413.0
30
0.0
10
3108.0
20
-345.0
30
0.0
10
3193.0
20
-272.0
30
0.0
10
3236.0
20
-218.0
30
0.0
10
3269.0
20
-164.0
30
0.0
10
3292.0
20
-113.0
30
0.0
10
3306.0
20
-68.0
30
0.0
10
3315.0
20
-32.0
30
0.0
10
3319.0
20
-9.0
30
0.0
10
3320.0
20
0.0
30
0.0
10
4723.0
20
-132.0
30
0.0
10
4713.0
20
-146.0
30
0.0
10
4683.0
20
-186.0
30
0.0
10
4633.0
20
-247.0
30
0.0
10
4563.0
20
-323.0
30
0.0
10
4474.0
20
-411.0
30
0.0
10
4366.0
20
-505.0
30
0.0
10
4239.0
20
-601.0
30
0.0
10
4151.0
20
-659.0
30
0.0
10
4057.0
20
-716.0
30
0.0
10
3959.0
20
-771.0
30
0.0
10
3858.0
20
-824.0
30
0.0
10
3755.0
20
-875.0
30
0.0
10
3652.0
20
-923.0
30
0.0
10
3551.0
20
-969.0
30
0.0
10
3387.0
20
-1038.0
30
0.0
10
3235.0
20
-1099.0
30
0.0
10
3100.0
20
-1151.0
30
0.0
10
2987.0
20
-1192.0
30
0.0
10
2901.0
20
-1222.0
30
0.0
10
2846.0
20
-1240.0
30
0.0
10
2826.0
20
-1247.0
30
0.0
10
2779.0
20
-1262.0
30
0.0
10
2650.0
20
-1306.0
30
0.0
10
2457.0
20
-1380.0
30
0.0
10
2216.0
20
-1483.0
30
0.0
10
1945.0
20
-1615.0
30
0.0
10
1662.0
20
-1775.0
30
0.0
10
1383.0
20
-1964.0
30
0.0
10
1211.0
20
-2101.0
30
0.0
10
1053.0
20
-2242.0
30
0.0
10
914.0
20
-2377.0
30
0.0
10
798.0
20
-2498.0
30
0.0
10
709.0
20
-2595.0
30
0.0
10
653.0
20
-2659.0
30
0.0
10
633.0
20
-2683.0
30
0.0
10
624.0
20
-2677.0
30
0.0
6
Solid
370
35
62
0
0
ENDSEC
0
SECTION
2
OBJECTS
0
DICTIONARY
5
2a5b
330
0
100
AcDbDictionary
281
1
3
ACAD_GROUP
350
2a5c
0
DICTIONARY
5
2a5c
330
2a5b
100
AcDbDictionary
281
1
0
ENDSEC
0
EOF
