999

0
SECTION
2
HEADER
9
$ACADVER
1
AC1021
9
$HANDSEED
5
289d
0
ENDSEC
0
SECTION
2
CLASSES
0
ENDSEC
0
SECTION
2
TABLES
0
TABLE
2
VPORT
5
2885
100
AcDbSymbolTable
70
1
0
VPORT
5
2884
100
AcDbSymbolTableRecord
100
AcDbViewportTableRecord
2
*ACTIVE
10
0
20
0
11
1
21
1
12
500.0
22
500.0
40
1000.0
70
0
0
ENDTAB
0
TABLE
2
LTYPE
5
2886
100
AcDbSymbolTable
70
3
0
LTYPE
5
288e
100
AcDbSymbolTableRecord
100
AcDbLinetypeTableRecord
2
Solid
70
0
72
65
73
0
3

0
LTYPE
5
288f
100
AcDbSymbolTableRecord
100
AcDbLinetypeTableRecord
2
ByBlock
70
0
72
65
73
0
3

0
LTYPE
5
2890
100
AcDbSymbolTableRecord
100
AcDbLinetypeTableRecord
2
ByLayer
70
0
72
65
73
0
3

0
ENDTAB
0
TABLE
2
LAYER
5
2887
100
AcDbSymbolTable
70
1
0
LAYER
5
2891
100
AcDbSymbolTableRecord
100
AcDbLayerTableRecord
2
0
70
0
390
0
0
ENDTAB
0
TABLE
2
STYLE
5
2888
100
AcDbSymbolTable
70
0
0
ENDTAB
0
TABLE
2
VIEW
5
2889
100
AcDbSymbolTable
70
0
0
ENDTAB
0
TABLE
2
UCS
5
288a
100
AcDbSymbolTable
70
0
0
ENDTAB
0
TABLE
2
APPID
5
288b
100
AcDbSymbolTable
70
1
0
APPID
5
2892
100
AcDbSymbolTableRecord
100
AcDbRegAppTableRecord
2
ACAD
70
0
0
ENDTAB
0
TABLE
2
DIMSTYLE
5
288c
100
AcDbSymbolTable
70
0
100
AcDbDimStyleTable
71
1
0
ENDTAB
0
TABLE
2
BLOCK_RECORD
5
288d
100
AcDbSymbolTable
70
2
0
BLOCK_RECORD
5
2893
100
AcDbSymbolTableRecord
100
AcDbBlockTableRecord
2
*Model_Space
70
0
280
1
281
0
0
BLOCK_RECORD
5
2894
100
AcDbSymbolTableRecord
100
AcDbBlockTableRecord
2
*Paper_Space
70
0
280
1
281
0
0
ENDTAB
0
ENDSEC
0
SECTION
2
BLOCKS
0
BLOCK
5
2895
100
AcDbEntity
100
AcDbBlockBegin
2
*Model_Space
70
0
10
0
20
0
30
0
3
*Model_Space
1

0
ENDBLK
5
2896
100
AcDbEntity
100
AcDbBlockEnd
0
BLOCK
5
2897
100
AcDbEntity
100
AcDbBlockBegin
2
*Paper_Space
70
0
10
0
20
0
30
0
3
*Paper_Space
1

0
ENDBLK
5
2898
100
AcDbEntity
100
AcDbBlockEnd
0
ENDSEC
0
SECTION
2
ENTITIES
0
LWPOLYLINE
5
289b
100
AcDbEntity
100
AcDbPolyline
90
32
70
1
10
1025.0
20
-1027.0
30
0.0
10
1007.0
20
-1027.0
30
0.0
10
958.0
20
-1029.0
30
0.0
10
885.0
20
-1031.0
30
0.0
10
794.0
20
-1031.0
30
0.0
10
693.0
20
-1030.0
30
0.0
10
588.0
20
-1025.0
30
0.0
10
486.0
20
-1016.0
30
0.0
10
385.0
20
-1000.0
30
0.0
10
296.0
20
-978.0
30
0.0
10
219.0
20
-947.0
30
0.0
10
153.0
20
-906.0
30
0.0
10
100.0
20
-855.0
30
0.0
10
59.0
20
-793.0
30
0.0
10
30.0
20
-718.0
30
0.0
10
19.0
20
-671.0
30
0.0
10
11.0
20
-621.0
30
0.0
10
5.0
20
-568.0
30
0.0
10
2.0
20
-512.0
30
0.0
10
0.0
20
-455.0
30
0.0
10
0.0
20
-397.0
30
0.0
10
0.0
20
-338.0
30
0.0
10
1.0
20
-266.0
30
0.0
10
1.0
20
-197.0
30
0.0
10
2.0
20
-134.0
30
0.0
10
2.0
20
-79.0
30
0.0
10
3.0
20
-37.0
30
0.0
10
3.0
20
-10.0
30
0.0
10
3.0
20
0.0
30
0.0
10
3653.0
20
0.0
30
0.0
10
3673.0
20
-1028.0
30
0.0
10
1025.0
20
-1027.0
30
0.0
6
Solid
370
35
62
0
0
ENDSEC
0
SECTION
2
OBJECTS
0
DICTIONARY
5
2899
330
0
100
AcDbDictionary
281
1
3
ACAD_GROUP
350
289a
0
DICTIONARY
5
289a
330
2899
100
AcDbDictionary
281
1
0
ENDSEC
0
EOF
