999

0
SECTION
2
HEADER
9
$ACADVER
1
AC1021
9
$HANDSEED
5
28cf
0
ENDSEC
0
SECTION
2
CLASSES
0
ENDSEC
0
SECTION
2
TABLES
0
TABLE
2
VPORT
5
28b7
100
AcDbSymbolTable
70
1
0
VPORT
5
28b6
100
AcDbSymbolTableRecord
100
AcDbViewportTableRecord
2
*ACTIVE
10
0
20
0
11
1
21
1
12
500.0
22
500.0
40
1000.0
70
0
0
ENDTAB
0
TABLE
2
LTYPE
5
28b8
100
AcDbSymbolTable
70
3
0
LTYPE
5
28c0
100
AcDbSymbolTableRecord
100
AcDbLinetypeTableRecord
2
Solid
70
0
72
65
73
0
3

0
LTYPE
5
28c1
100
AcDbSymbolTableRecord
100
AcDbLinetypeTableRecord
2
ByBlock
70
0
72
65
73
0
3

0
LTYPE
5
28c2
100
AcDbSymbolTableRecord
100
AcDbLinetypeTableRecord
2
ByLayer
70
0
72
65
73
0
3

0
ENDTAB
0
TABLE
2
LAYER
5
28b9
100
AcDbSymbolTable
70
1
0
LAYER
5
28c3
100
AcDbSymbolTableRecord
100
AcDbLayerTableRecord
2
0
70
0
390
0
0
ENDTAB
0
TABLE
2
STYLE
5
28ba
100
AcDbSymbolTable
70
0
0
ENDTAB
0
TABLE
2
VIEW
5
28bb
100
AcDbSymbolTable
70
0
0
ENDTAB
0
TABLE
2
UCS
5
28bc
100
AcDbSymbolTable
70
0
0
ENDTAB
0
TABLE
2
APPID
5
28bd
100
AcDbSymbolTable
70
1
0
APPID
5
28c4
100
AcDbSymbolTableRecord
100
AcDbRegAppTableRecord
2
ACAD
70
0
0
ENDTAB
0
TABLE
2
DIMSTYLE
5
28be
100
AcDbSymbolTable
70
0
100
AcDbDimStyleTable
71
1
0
ENDTAB
0
TABLE
2
BLOCK_RECORD
5
28bf
100
AcDbSymbolTable
70
2
0
BLOCK_RECORD
5
28c5
100
AcDbSymbolTableRecord
100
AcDbBlockTableRecord
2
*Model_Space
70
0
280
1
281
0
0
BLOCK_RECORD
5
28c6
100
AcDbSymbolTableRecord
100
AcDbBlockTableRecord
2
*Paper_Space
70
0
280
1
281
0
0
ENDTAB
0
ENDSEC
0
SECTION
2
BLOCKS
0
BLOCK
5
28c7
100
AcDbEntity
100
AcDbBlockBegin
2
*Model_Space
70
0
10
0
20
0
30
0
3
*Model_Space
1

0
ENDBLK
5
28c8
100
AcDbEntity
100
AcDbBlockEnd
0
BLOCK
5
28c9
100
AcDbEntity
100
AcDbBlockBegin
2
*Paper_Space
70
0
10
0
20
0
30
0
3
*Paper_Space
1

0
ENDBLK
5
28ca
100
AcDbEntity
100
AcDbBlockEnd
0
ENDSEC
0
SECTION
2
ENTITIES
0
LWPOLYLINE
5
28cd
100
AcDbEntity
100
AcDbPolyline
90
73
70
1
10
826.0
20
0.0
30
0.0
10
827.0
20
-13.0
30
0.0
10
828.0
20
-48.0
30
0.0
10
830.0
20
-101.0
30
0.0
10
831.0
20
-167.0
30
0.0
10
833.0
20
-242.0
30
0.0
10
834.0
20
-322.0
30
0.0
10
833.0
20
-401.0
30
0.0
10
833.0
20
-428.0
30
0.0
10
832.0
20
-454.0
30
0.0
10
832.0
20
-479.0
30
0.0
10
831.0
20
-503.0
30
0.0
10
831.0
20
-527.0
30
0.0
10
830.0
20
-550.0
30
0.0
10
829.0
20
-572.0
30
0.0
10
829.0
20
-595.0
30
0.0
10
828.0
20
-617.0
30
0.0
10
827.0
20
-637.0
30
0.0
10
826.0
20
-656.0
30
0.0
10
823.0
20
-674.0
30
0.0
10
820.0
20
-691.0
30
0.0
10
816.0
20
-706.0
30
0.0
10
805.0
20
-727.0
30
0.0
10
791.0
20
-745.0
30
0.0
10
774.0
20
-760.0
30
0.0
10
753.0
20
-771.0
30
0.0
10
730.0
20
-780.0
30
0.0
10
704.0
20
-787.0
30
0.0
10
676.0
20
-793.0
30
0.0
10
627.0
20
-799.0
30
0.0
10
577.0
20
-803.0
30
0.0
10
528.0
20
-805.0
30
0.0
10
484.0
20
-805.0
30
0.0
10
449.0
20
-805.0
30
0.0
10
425.0
20
-804.0
30
0.0
10
417.0
20
-804.0
30
0.0
10
408.0
20
-804.0
30
0.0
10
385.0
20
-805.0
30
0.0
10
349.0
20
-805.0
30
0.0
10
306.0
20
-805.0
30
0.0
10
257.0
20
-803.0
30
0.0
10
206.0
20
-799.0
30
0.0
10
157.0
20
-793.0
30
0.0
10
130.0
20
-787.0
30
0.0
10
104.0
20
-780.0
30
0.0
10
81.0
20
-771.0
30
0.0
10
60.0
20
-760.0
30
0.0
10
43.0
20
-745.0
30
0.0
10
28.0
20
-727.0
30
0.0
10
18.0
20
-706.0
30
0.0
10
13.0
20
-691.0
30
0.0
10
10.0
20
-674.0
30
0.0
10
8.0
20
-656.0
30
0.0
10
6.0
20
-637.0
30
0.0
10
5.0
20
-617.0
30
0.0
10
5.0
20
-595.0
30
0.0
10
4.0
20
-572.0
30
0.0
10
4.0
20
-550.0
30
0.0
10
3.0
20
-527.0
30
0.0
10
2.0
20
-503.0
30
0.0
10
2.0
20
-479.0
30
0.0
10
1.0
20
-454.0
30
0.0
10
1.0
20
-428.0
30
0.0
10
0.0
20
-401.0
30
0.0
10
0.0
20
-322.0
30
0.0
10
1.0
20
-242.0
30
0.0
10
2.0
20
-167.0
30
0.0
10
4.0
20
-101.0
30
0.0
10
6.0
20
-48.0
30
0.0
10
7.0
20
-13.0
30
0.0
10
8.0
20
0.0
30
0.0
10
417.0
20
0.0
30
0.0
10
826.0
20
0.0
30
0.0
6
Solid
370
35
62
0
0
ENDSEC
0
SECTION
2
OBJECTS
0
DICTIONARY
5
28cb
330
0
100
AcDbDictionary
281
1
3
ACAD_GROUP
350
28cc
0
DICTIONARY
5
28cc
330
28cb
100
AcDbDictionary
281
1
0
ENDSEC
0
EOF
