999

0
SECTION
2
HEADER
9
$ACADVER
1
AC1021
9
$HANDSEED
5
28e8
0
ENDSEC
0
SECTION
2
CLASSES
0
ENDSEC
0
SECTION
2
TABLES
0
TABLE
2
VPORT
5
28d0
100
AcDbSymbolTable
70
1
0
VPORT
5
28cf
100
AcDbSymbolTableRecord
100
AcDbViewportTableRecord
2
*ACTIVE
10
0
20
0
11
1
21
1
12
500.0
22
500.0
40
1000.0
70
0
0
ENDTAB
0
TABLE
2
LTYPE
5
28d1
100
AcDbSymbolTable
70
3
0
LTYPE
5
28d9
100
AcDbSymbolTableRecord
100
AcDbLinetypeTableRecord
2
Solid
70
0
72
65
73
0
3

0
LTYPE
5
28da
100
AcDbSymbolTableRecord
100
AcDbLinetypeTableRecord
2
ByBlock
70
0
72
65
73
0
3

0
LTYPE
5
28db
100
AcDbSymbolTableRecord
100
AcDbLinetypeTableRecord
2
ByLayer
70
0
72
65
73
0
3

0
ENDTAB
0
TABLE
2
LAYER
5
28d2
100
AcDbSymbolTable
70
1
0
LAYER
5
28dc
100
AcDbSymbolTableRecord
100
AcDbLayerTableRecord
2
0
70
0
390
0
0
ENDTAB
0
TABLE
2
STYLE
5
28d3
100
AcDbSymbolTable
70
0
0
ENDTAB
0
TABLE
2
VIEW
5
28d4
100
AcDbSymbolTable
70
0
0
ENDTAB
0
TABLE
2
UCS
5
28d5
100
AcDbSymbolTable
70
0
0
ENDTAB
0
TABLE
2
APPID
5
28d6
100
AcDbSymbolTable
70
1
0
APPID
5
28dd
100
AcDbSymbolTableRecord
100
AcDbRegAppTableRecord
2
ACAD
70
0
0
ENDTAB
0
TABLE
2
DIMSTYLE
5
28d7
100
AcDbSymbolTable
70
0
100
AcDbDimStyleTable
71
1
0
ENDTAB
0
TABLE
2
BLOCK_RECORD
5
28d8
100
AcDbSymbolTable
70
2
0
BLOCK_RECORD
5
28de
100
AcDbSymbolTableRecord
100
AcDbBlockTableRecord
2
*Model_Space
70
0
280
1
281
0
0
BLOCK_RECORD
5
28df
100
AcDbSymbolTableRecord
100
AcDbBlockTableRecord
2
*Paper_Space
70
0
280
1
281
0
0
ENDTAB
0
ENDSEC
0
SECTION
2
BLOCKS
0
BLOCK
5
28e0
100
AcDbEntity
100
AcDbBlockBegin
2
*Model_Space
70
0
10
0
20
0
30
0
3
*Model_Space
1

0
ENDBLK
5
28e1
100
AcDbEntity
100
AcDbBlockEnd
0
BLOCK
5
28e2
100
AcDbEntity
100
AcDbBlockBegin
2
*Paper_Space
70
0
10
0
20
0
30
0
3
*Paper_Space
1

0
ENDBLK
5
28e3
100
AcDbEntity
100
AcDbBlockEnd
0
ENDSEC
0
SECTION
2
ENTITIES
0
LWPOLYLINE
5
28e6
100
AcDbEntity
100
AcDbPolyline
90
75
70
1
10
7107.0
20
0.0
30
0.0
10
7107.0
20
-270.0
30
0.0
10
7107.0
20
-286.0
30
0.0
10
7107.0
20
-328.0
30
0.0
10
7104.0
20
-392.0
30
0.0
10
7098.0
20
-469.0
30
0.0
10
7088.0
20
-555.0
30
0.0
10
7071.0
20
-642.0
30
0.0
10
7047.0
20
-725.0
30
0.0
10
7034.0
20
-757.0
30
0.0
10
7020.0
20
-788.0
30
0.0
10
7003.0
20
-817.0
30
0.0
10
6985.0
20
-843.0
30
0.0
10
6964.0
20
-867.0
30
0.0
10
6942.0
20
-890.0
30
0.0
10
6917.0
20
-909.0
30
0.0
10
6836.0
20
-954.0
30
0.0
10
6745.0
20
-983.0
30
0.0
10
6653.0
20
-1000.0
30
0.0
10
6567.0
20
-1008.0
30
0.0
10
6495.0
20
-1009.0
30
0.0
10
6446.0
20
-1008.0
30
0.0
10
6428.0
20
-1007.0
30
0.0
10
6340.0
20
-1007.0
30
0.0
10
6103.0
20
-1007.0
30
0.0
10
5756.0
20
-1007.0
30
0.0
10
5341.0
20
-1007.0
30
0.0
10
4898.0
20
-1007.0
30
0.0
10
4466.0
20
-1007.0
30
0.0
10
4086.0
20
-1007.0
30
0.0
10
3952.0
20
-1007.0
30
0.0
10
3835.0
20
-1007.0
30
0.0
10
3737.0
20
-1007.0
30
0.0
10
3659.0
20
-1007.0
30
0.0
10
3601.0
20
-1007.0
30
0.0
10
3566.0
20
-1007.0
30
0.0
10
3554.0
20
-1007.0
30
0.0
10
3541.0
20
-1007.0
30
0.0
10
3506.0
20
-1007.0
30
0.0
10
3448.0
20
-1007.0
30
0.0
10
3370.0
20
-1007.0
30
0.0
10
3272.0
20
-1007.0
30
0.0
10
3155.0
20
-1007.0
30
0.0
10
3021.0
20
-1007.0
30
0.0
10
2641.0
20
-1007.0
30
0.0
10
2209.0
20
-1007.0
30
0.0
10
1766.0
20
-1007.0
30
0.0
10
1351.0
20
-1007.0
30
0.0
10
1004.0
20
-1007.0
30
0.0
10
767.0
20
-1007.0
30
0.0
10
679.0
20
-1007.0
30
0.0
10
661.0
20
-1008.0
30
0.0
10
612.0
20
-1009.0
30
0.0
10
540.0
20
-1008.0
30
0.0
10
454.0
20
-1000.0
30
0.0
10
362.0
20
-983.0
30
0.0
10
271.0
20
-954.0
30
0.0
10
190.0
20
-909.0
30
0.0
10
165.0
20
-890.0
30
0.0
10
143.0
20
-867.0
30
0.0
10
122.0
20
-843.0
30
0.0
10
104.0
20
-817.0
30
0.0
10
87.0
20
-788.0
30
0.0
10
73.0
20
-757.0
30
0.0
10
60.0
20
-725.0
30
0.0
10
36.0
20
-642.0
30
0.0
10
19.0
20
-555.0
30
0.0
10
9.0
20
-469.0
30
0.0
10
3.0
20
-392.0
30
0.0
10
0.0
20
-328.0
30
0.0
10
0.0
20
-286.0
30
0.0
10
0.0
20
-270.0
30
0.0
10
0.0
20
0.0
30
0.0
10
3554.0
20
0.0
30
0.0
10
7107.0
20
0.0
30
0.0
6
Solid
370
35
62
0
0
ENDSEC
0
SECTION
2
OBJECTS
0
DICTIONARY
5
28e4
330
0
100
AcDbDictionary
281
1
3
ACAD_GROUP
350
28e5
0
DICTIONARY
5
28e5
330
28e4
100
AcDbDictionary
281
1
0
ENDSEC
0
EOF
