999

0
SECTION
2
HEADER
9
$ACADVER
1
AC1021
9
$HANDSEED
5
2901
0
ENDSEC
0
SECTION
2
CLASSES
0
ENDSEC
0
SECTION
2
TABLES
0
TABLE
2
VPORT
5
28e9
100
AcDbSymbolTable
70
1
0
VPORT
5
28e8
100
AcDbSymbolTableRecord
100
AcDbViewportTableRecord
2
*ACTIVE
10
0
20
0
11
1
21
1
12
500.0
22
500.0
40
1000.0
70
0
0
ENDTAB
0
TABLE
2
LTYPE
5
28ea
100
AcDbSymbolTable
70
3
0
LTYPE
5
28f2
100
AcDbSymbolTableRecord
100
AcDbLinetypeTableRecord
2
Solid
70
0
72
65
73
0
3

0
LTYPE
5
28f3
100
AcDbSymbolTableRecord
100
AcDbLinetypeTableRecord
2
ByBlock
70
0
72
65
73
0
3

0
LTYPE
5
28f4
100
AcDbSymbolTableRecord
100
AcDbLinetypeTableRecord
2
ByLayer
70
0
72
65
73
0
3

0
ENDTAB
0
TABLE
2
LAYER
5
28eb
100
AcDbSymbolTable
70
1
0
LAYER
5
28f5
100
AcDbSymbolTableRecord
100
AcDbLayerTableRecord
2
0
70
0
390
0
0
ENDTAB
0
TABLE
2
STYLE
5
28ec
100
AcDbSymbolTable
70
0
0
ENDTAB
0
TABLE
2
VIEW
5
28ed
100
AcDbSymbolTable
70
0
0
ENDTAB
0
TABLE
2
UCS
5
28ee
100
AcDbSymbolTable
70
0
0
ENDTAB
0
TABLE
2
APPID
5
28ef
100
AcDbSymbolTable
70
1
0
APPID
5
28f6
100
AcDbSymbolTableRecord
100
AcDbRegAppTableRecord
2
ACAD
70
0
0
ENDTAB
0
TABLE
2
DIMSTYLE
5
28f0
100
AcDbSymbolTable
70
0
100
AcDbDimStyleTable
71
1
0
ENDTAB
0
TABLE
2
BLOCK_RECORD
5
28f1
100
AcDbSymbolTable
70
2
0
BLOCK_RECORD
5
28f7
100
AcDbSymbolTableRecord
100
AcDbBlockTableRecord
2
*Model_Space
70
0
280
1
281
0
0
BLOCK_RECORD
5
28f8
100
AcDbSymbolTableRecord
100
AcDbBlockTableRecord
2
*Paper_Space
70
0
280
1
281
0
0
ENDTAB
0
ENDSEC
0
SECTION
2
BLOCKS
0
BLOCK
5
28f9
100
AcDbEntity
100
AcDbBlockBegin
2
*Model_Space
70
0
10
0
20
0
30
0
3
*Model_Space
1

0
ENDBLK
5
28fa
100
AcDbEntity
100
AcDbBlockEnd
0
BLOCK
5
28fb
100
AcDbEntity
100
AcDbBlockBegin
2
*Paper_Space
70
0
10
0
20
0
30
0
3
*Paper_Space
1

0
ENDBLK
5
28fc
100
AcDbEntity
100
AcDbBlockEnd
0
ENDSEC
0
SECTION
2
ENTITIES
0
LWPOLYLINE
5
28ff
100
AcDbEntity
100
AcDbPolyline
90
58
70
1
10
5498.0
20
-1544.0
30
0.0
10
5387.0
20
-1547.0
30
0.0
10
5213.0
20
-1550.0
30
0.0
10
4985.0
20
-1554.0
30
0.0
10
4712.0
20
-1558.0
30
0.0
10
4404.0
20
-1561.0
30
0.0
10
4069.0
20
-1564.0
30
0.0
10
3836.0
20
-1566.0
30
0.0
10
3599.0
20
-1567.0
30
0.0
10
3358.0
20
-1567.0
30
0.0
10
3118.0
20
-1567.0
30
0.0
10
2879.0
20
-1566.0
30
0.0
10
2646.0
20
-1564.0
30
0.0
10
2420.0
20
-1562.0
30
0.0
10
2121.0
20
-1557.0
30
0.0
10
1849.0
20
-1552.0
30
0.0
10
1610.0
20
-1546.0
30
0.0
10
1413.0
20
-1541.0
30
0.0
10
1263.0
20
-1536.0
30
0.0
10
1168.0
20
-1533.0
30
0.0
10
1134.0
20
-1532.0
30
0.0
10
1134.0
20
-1510.0
30
0.0
10
1131.0
20
-1450.0
30
0.0
10
1117.0
20
-1361.0
30
0.0
10
1089.0
20
-1253.0
30
0.0
10
1039.0
20
-1133.0
30
0.0
10
963.0
20
-1011.0
30
0.0
10
855.0
20
-896.0
30
0.0
10
718.0
20
-798.0
30
0.0
10
561.0
20
-716.0
30
0.0
10
399.0
20
-648.0
30
0.0
10
247.0
20
-595.0
30
0.0
10
120.0
20
-557.0
30
0.0
10
32.0
20
-534.0
30
0.0
10
0.0
20
-527.0
30
0.0
10
138.0
20
0.0
30
0.0
10
215.0
20
-18.0
30
0.0
10
427.0
20
-65.0
30
0.0
10
748.0
20
-135.0
30
0.0
10
1149.0
20
-218.0
30
0.0
10
1604.0
20
-307.0
30
0.0
10
2085.0
20
-395.0
30
0.0
10
2564.0
20
-472.0
30
0.0
10
3210.0
20
-555.0
30
0.0
10
3786.0
20
-607.0
30
0.0
10
4280.0
20
-636.0
30
0.0
10
4683.0
20
-646.0
30
0.0
10
4984.0
20
-645.0
30
0.0
10
5172.0
20
-640.0
30
0.0
10
5237.0
20
-637.0
30
0.0
10
5253.0
20
-687.0
30
0.0
10
5296.0
20
-816.0
30
0.0
10
5355.0
20
-993.0
30
0.0
10
5419.0
20
-1186.0
30
0.0
10
5477.0
20
-1364.0
30
0.0
10
5520.0
20
-1493.0
30
0.0
10
5537.0
20
-1543.0
30
0.0
10
5498.0
20
-1544.0
30
0.0
6
Solid
370
35
62
0
0
ENDSEC
0
SECTION
2
OBJECTS
0
DICTIONARY
5
28fd
330
0
100
AcDbDictionary
281
1
3
ACAD_GROUP
350
28fe
0
DICTIONARY
5
28fe
330
28fd
100
AcDbDictionary
281
1
0
ENDSEC
0
EOF
