999

0
SECTION
2
HEADER
9
$ACADVER
1
AC1021
9
$HANDSEED
5
291a
0
ENDSEC
0
SECTION
2
CLASSES
0
ENDSEC
0
SECTION
2
TABLES
0
TABLE
2
VPORT
5
2902
100
AcDbSymbolTable
70
1
0
VPORT
5
2901
100
AcDbSymbolTableRecord
100
AcDbViewportTableRecord
2
*ACTIVE
10
0
20
0
11
1
21
1
12
500.0
22
500.0
40
1000.0
70
0
0
ENDTAB
0
TABLE
2
LTYPE
5
2903
100
AcDbSymbolTable
70
3
0
LTYPE
5
290b
100
AcDbSymbolTableRecord
100
AcDbLinetypeTableRecord
2
Solid
70
0
72
65
73
0
3

0
LTYPE
5
290c
100
AcDbSymbolTableRecord
100
AcDbLinetypeTableRecord
2
ByBlock
70
0
72
65
73
0
3

0
LTYPE
5
290d
100
AcDbSymbolTableRecord
100
AcDbLinetypeTableRecord
2
ByLayer
70
0
72
65
73
0
3

0
ENDTAB
0
TABLE
2
LAYER
5
2904
100
AcDbSymbolTable
70
1
0
LAYER
5
290e
100
AcDbSymbolTableRecord
100
AcDbLayerTableRecord
2
0
70
0
390
0
0
ENDTAB
0
TABLE
2
STYLE
5
2905
100
AcDbSymbolTable
70
0
0
ENDTAB
0
TABLE
2
VIEW
5
2906
100
AcDbSymbolTable
70
0
0
ENDTAB
0
TABLE
2
UCS
5
2907
100
AcDbSymbolTable
70
0
0
ENDTAB
0
TABLE
2
APPID
5
2908
100
AcDbSymbolTable
70
1
0
APPID
5
290f
100
AcDbSymbolTableRecord
100
AcDbRegAppTableRecord
2
ACAD
70
0
0
ENDTAB
0
TABLE
2
DIMSTYLE
5
2909
100
AcDbSymbolTable
70
0
100
AcDbDimStyleTable
71
1
0
ENDTAB
0
TABLE
2
BLOCK_RECORD
5
290a
100
AcDbSymbolTable
70
2
0
BLOCK_RECORD
5
2910
100
AcDbSymbolTableRecord
100
AcDbBlockTableRecord
2
*Model_Space
70
0
280
1
281
0
0
BLOCK_RECORD
5
2911
100
AcDbSymbolTableRecord
100
AcDbBlockTableRecord
2
*Paper_Space
70
0
280
1
281
0
0
ENDTAB
0
ENDSEC
0
SECTION
2
BLOCKS
0
BLOCK
5
2912
100
AcDbEntity
100
AcDbBlockBegin
2
*Model_Space
70
0
10
0
20
0
30
0
3
*Model_Space
1

0
ENDBLK
5
2913
100
AcDbEntity
100
AcDbBlockEnd
0
BLOCK
5
2914
100
AcDbEntity
100
AcDbBlockBegin
2
*Paper_Space
70
0
10
0
20
0
30
0
3
*Paper_Space
1

0
ENDBLK
5
2915
100
AcDbEntity
100
AcDbBlockEnd
0
ENDSEC
0
SECTION
2
ENTITIES
0
LWPOLYLINE
5
2918
100
AcDbEntity
100
AcDbPolyline
90
106
70
1
10
5800.0
20
-1143.0
30
0.0
10
5649.0
20
-1181.0
30
0.0
10
5418.0
20
-1237.0
30
0.0
10
5123.0
20
-1305.0
30
0.0
10
4782.0
20
-1378.0
30
0.0
10
4411.0
20
-1449.0
30
0.0
10
4027.0
20
-1514.0
30
0.0
10
3796.0
20
-1546.0
30
0.0
10
3566.0
20
-1574.0
30
0.0
10
3336.0
20
-1596.0
30
0.0
10
3106.0
20
-1612.0
30
0.0
10
2875.0
20
-1623.0
30
0.0
10
2642.0
20
-1629.0
30
0.0
10
2408.0
20
-1628.0
30
0.0
10
1909.0
20
-1608.0
30
0.0
10
1424.0
20
-1568.0
30
0.0
10
973.0
20
-1517.0
30
0.0
10
583.0
20
-1464.0
30
0.0
10
275.0
20
-1416.0
30
0.0
10
73.0
20
-1381.0
30
0.0
10
0.0
20
-1367.0
30
0.0
10
1.0
20
-1353.0
30
0.0
10
2.0
20
-1314.0
30
0.0
10
4.0
20
-1252.0
30
0.0
10
7.0
20
-1172.0
30
0.0
10
9.0
20
-1078.0
30
0.0
10
12.0
20
-972.0
30
0.0
10
15.0
20
-858.0
30
0.0
10
17.0
20
-725.0
30
0.0
10
19.0
20
-593.0
30
0.0
10
21.0
20
-470.0
30
0.0
10
22.0
20
-363.0
30
0.0
10
22.0
20
-277.0
30
0.0
10
23.0
20
-221.0
30
0.0
10
23.0
20
-201.0
30
0.0
10
39.0
20
-203.0
30
0.0
10
84.0
20
-209.0
30
0.0
10
154.0
20
-219.0
30
0.0
10
246.0
20
-232.0
30
0.0
10
356.0
20
-250.0
30
0.0
10
479.0
20
-270.0
30
0.0
10
612.0
20
-293.0
30
0.0
10
710.0
20
-311.0
30
0.0
10
809.0
20
-329.0
30
0.0
10
909.0
20
-348.0
30
0.0
10
1008.0
20
-367.0
30
0.0
10
1104.0
20
-385.0
30
0.0
10
1196.0
20
-401.0
30
0.0
10
1283.0
20
-415.0
30
0.0
10
1396.0
20
-430.0
30
0.0
10
1495.0
20
-441.0
30
0.0
10
1577.0
20
-449.0
30
0.0
10
1644.0
20
-453.0
30
0.0
10
1692.0
20
-455.0
30
0.0
10
1722.0
20
-455.0
30
0.0
10
1732.0
20
-455.0
30
0.0
10
1768.0
20
-458.0
30
0.0
10
1868.0
20
-463.0
30
0.0
10
2024.0
20
-469.0
30
0.0
10
2228.0
20
-474.0
30
0.0
10
2468.0
20
-475.0
30
0.0
10
2738.0
20
-470.0
30
0.0
10
3026.0
20
-457.0
30
0.0
10
3247.0
20
-441.0
30
0.0
10
3462.0
20
-421.0
30
0.0
10
3662.0
20
-400.0
30
0.0
10
3836.0
20
-379.0
30
0.0
10
3973.0
20
-362.0
30
0.0
10
4064.0
20
-350.0
30
0.0
10
4096.0
20
-346.0
30
0.0
10
4118.0
20
-342.0
30
0.0
10
4177.0
20
-332.0
30
0.0
10
4264.0
20
-317.0
30
0.0
10
4370.0
20
-298.0
30
0.0
10
4487.0
20
-276.0
30
0.0
10
4606.0
20
-252.0
30
0.0
10
4717.0
20
-227.0
30
0.0
10
4793.0
20
-207.0
30
0.0
10
4862.0
20
-188.0
30
0.0
10
4927.0
20
-168.0
30
0.0
10
4990.0
20
-149.0
30
0.0
10
5053.0
20
-131.0
30
0.0
10
5120.0
20
-113.0
30
0.0
10
5193.0
20
-95.0
30
0.0
10
5296.0
20
-74.0
30
0.0
10
5405.0
20
-54.0
30
0.0
10
5513.0
20
-36.0
30
0.0
10
5610.0
20
-21.0
30
0.0
10
5689.0
20
-10.0
30
0.0
10
5742.0
20
-3.0
30
0.0
10
5762.0
20
0.0
30
0.0
10
5763.0
20
-16.0
30
0.0
10
5767.0
20
-62.0
30
0.0
10
5773.0
20
-133.0
30
0.0
10
5780.0
20
-223.0
30
0.0
10
5788.0
20
-328.0
30
0.0
10
5798.0
20
-443.0
30
0.0
10
5807.0
20
-563.0
30
0.0
10
5817.0
20
-683.0
30
0.0
10
5826.0
20
-799.0
30
0.0
10
5835.0
20
-904.0
30
0.0
10
5842.0
20
-995.0
30
0.0
10
5848.0
20
-1066.0
30
0.0
10
5852.0
20
-1112.0
30
0.0
10
5853.0
20
-1128.0
30
0.0
10
5800.0
20
-1143.0
30
0.0
6
Solid
370
35
62
0
0
ENDSEC
0
SECTION
2
OBJECTS
0
DICTIONARY
5
2916
330
0
100
AcDbDictionary
281
1
3
ACAD_GROUP
350
2917
0
DICTIONARY
5
2917
330
2916
100
AcDbDictionary
281
1
0
ENDSEC
0
EOF
