999

0
SECTION
2
HEADER
9
$ACADVER
1
AC1021
9
$HANDSEED
5
2933
0
ENDSEC
0
SECTION
2
CLASSES
0
ENDSEC
0
SECTION
2
TABLES
0
TABLE
2
VPORT
5
291b
100
AcDbSymbolTable
70
1
0
VPORT
5
291a
100
AcDbSymbolTableRecord
100
AcDbViewportTableRecord
2
*ACTIVE
10
0
20
0
11
1
21
1
12
500.0
22
500.0
40
1000.0
70
0
0
ENDTAB
0
TABLE
2
LTYPE
5
291c
100
AcDbSymbolTable
70
3
0
LTYPE
5
2924
100
AcDbSymbolTableRecord
100
AcDbLinetypeTableRecord
2
Solid
70
0
72
65
73
0
3

0
LTYPE
5
2925
100
AcDbSymbolTableRecord
100
AcDbLinetypeTableRecord
2
ByBlock
70
0
72
65
73
0
3

0
LTYPE
5
2926
100
AcDbSymbolTableRecord
100
AcDbLinetypeTableRecord
2
ByLayer
70
0
72
65
73
0
3

0
ENDTAB
0
TABLE
2
LAYER
5
291d
100
AcDbSymbolTable
70
1
0
LAYER
5
2927
100
AcDbSymbolTableRecord
100
AcDbLayerTableRecord
2
0
70
0
390
0
0
ENDTAB
0
TABLE
2
STYLE
5
291e
100
AcDbSymbolTable
70
0
0
ENDTAB
0
TABLE
2
VIEW
5
291f
100
AcDbSymbolTable
70
0
0
ENDTAB
0
TABLE
2
UCS
5
2920
100
AcDbSymbolTable
70
0
0
ENDTAB
0
TABLE
2
APPID
5
2921
100
AcDbSymbolTable
70
1
0
APPID
5
2928
100
AcDbSymbolTableRecord
100
AcDbRegAppTableRecord
2
ACAD
70
0
0
ENDTAB
0
TABLE
2
DIMSTYLE
5
2922
100
AcDbSymbolTable
70
0
100
AcDbDimStyleTable
71
1
0
ENDTAB
0
TABLE
2
BLOCK_RECORD
5
2923
100
AcDbSymbolTable
70
2
0
BLOCK_RECORD
5
2929
100
AcDbSymbolTableRecord
100
AcDbBlockTableRecord
2
*Model_Space
70
0
280
1
281
0
0
BLOCK_RECORD
5
292a
100
AcDbSymbolTableRecord
100
AcDbBlockTableRecord
2
*Paper_Space
70
0
280
1
281
0
0
ENDTAB
0
ENDSEC
0
SECTION
2
BLOCKS
0
BLOCK
5
292b
100
AcDbEntity
100
AcDbBlockBegin
2
*Model_Space
70
0
10
0
20
0
30
0
3
*Model_Space
1

0
ENDBLK
5
292c
100
AcDbEntity
100
AcDbBlockEnd
0
BLOCK
5
292d
100
AcDbEntity
100
AcDbBlockBegin
2
*Paper_Space
70
0
10
0
20
0
30
0
3
*Paper_Space
1

0
ENDBLK
5
292e
100
AcDbEntity
100
AcDbBlockEnd
0
ENDSEC
0
SECTION
2
ENTITIES
0
LWPOLYLINE
5
2931
100
AcDbEntity
100
AcDbPolyline
90
89
70
1
10
3481.0
20
-2079.0
30
0.0
10
3419.0
20
-2094.0
30
0.0
10
3321.0
20
-2118.0
30
0.0
10
3190.0
20
-2149.0
30
0.0
10
3032.0
20
-2187.0
30
0.0
10
2851.0
20
-2231.0
30
0.0
10
2651.0
20
-2280.0
30
0.0
10
2461.0
20
-2326.0
30
0.0
10
2263.0
20
-2375.0
30
0.0
10
2060.0
20
-2426.0
30
0.0
10
1854.0
20
-2479.0
30
0.0
10
1649.0
20
-2534.0
30
0.0
10
1448.0
20
-2589.0
30
0.0
10
1254.0
20
-2644.0
30
0.0
10
951.0
20
-2737.0
30
0.0
10
681.0
20
-2826.0
30
0.0
10
449.0
20
-2907.0
30
0.0
10
260.0
20
-2977.0
30
0.0
10
119.0
20
-3031.0
30
0.0
10
31.0
20
-3067.0
30
0.0
10
0.0
20
-3080.0
30
0.0
10
2.0
20
-3055.0
30
0.0
10
7.0
20
-2987.0
30
0.0
10
16.0
20
-2880.0
30
0.0
10
26.0
20
-2743.0
30
0.0
10
39.0
20
-2583.0
30
0.0
10
52.0
20
-2405.0
30
0.0
10
66.0
20
-2216.0
30
0.0
10
81.0
20
-1995.0
30
0.0
10
96.0
20
-1779.0
30
0.0
10
109.0
20
-1579.0
30
0.0
10
120.0
20
-1406.0
30
0.0
10
128.0
20
-1269.0
30
0.0
10
134.0
20
-1180.0
30
0.0
10
136.0
20
-1147.0
30
0.0
10
141.0
20
-1084.0
30
0.0
10
152.0
20
-921.0
30
0.0
10
168.0
20
-699.0
30
0.0
10
185.0
20
-456.0
30
0.0
10
201.0
20
-233.0
30
0.0
10
213.0
20
-70.0
30
0.0
10
218.0
20
-7.0
30
0.0
10
2701.0
20
-1.0
30
0.0
10
3399.0
20
0.0
30
0.0
10
3399.0
20
-9.0
30
0.0
10
3399.0
20
-33.0
30
0.0
10
3399.0
20
-70.0
30
0.0
10
3399.0
20
-118.0
30
0.0
10
3399.0
20
-173.0
30
0.0
10
3400.0
20
-234.0
30
0.0
10
3401.0
20
-297.0
30
0.0
10
3402.0
20
-360.0
30
0.0
10
3403.0
20
-421.0
30
0.0
10
3405.0
20
-476.0
30
0.0
10
3406.0
20
-523.0
30
0.0
10
3408.0
20
-560.0
30
0.0
10
3409.0
20
-584.0
30
0.0
10
3409.0
20
-593.0
30
0.0
10
3416.0
20
-790.0
30
0.0
10
3416.0
20
-798.0
30
0.0
10
3416.0
20
-818.0
30
0.0
10
3417.0
20
-850.0
30
0.0
10
3419.0
20
-890.0
30
0.0
10
3420.0
20
-936.0
30
0.0
10
3423.0
20
-987.0
30
0.0
10
3425.0
20
-1039.0
30
0.0
10
3428.0
20
-1089.0
30
0.0
10
3431.0
20
-1136.0
30
0.0
10
3434.0
20
-1179.0
30
0.0
10
3437.0
20
-1215.0
30
0.0
10
3439.0
20
-1244.0
30
0.0
10
3441.0
20
-1262.0
30
0.0
10
3442.0
20
-1269.0
30
0.0
10
3455.0
20
-1519.0
30
0.0
10
3455.0
20
-1529.0
30
0.0
10
3457.0
20
-1557.0
30
0.0
10
3460.0
20
-1599.0
30
0.0
10
3463.0
20
-1652.0
30
0.0
10
3468.0
20
-1713.0
30
0.0
10
3473.0
20
-1777.0
30
0.0
10
3478.0
20
-1841.0
30
0.0
10
3483.0
20
-1894.0
30
0.0
10
3488.0
20
-1942.0
30
0.0
10
3493.0
20
-1986.0
30
0.0
10
3497.0
20
-2022.0
30
0.0
10
3500.0
20
-2050.0
30
0.0
10
3502.0
20
-2068.0
30
0.0
10
3503.0
20
-2074.0
30
0.0
10
3481.0
20
-2079.0
30
0.0
6
Solid
370
35
62
0
0
ENDSEC
0
SECTION
2
OBJECTS
0
DICTIONARY
5
292f
330
0
100
AcDbDictionary
281
1
3
ACAD_GROUP
350
2930
0
DICTIONARY
5
2930
330
292f
100
AcDbDictionary
281
1
0
ENDSEC
0
EOF
