999

0
SECTION
2
HEADER
9
$ACADVER
1
AC1021
9
$HANDSEED
5
2cd4
0
ENDSEC
0
SECTION
2
CLASSES
0
ENDSEC
0
SECTION
2
TABLES
0
TABLE
2
VPORT
5
2c9e
100
AcDbSymbolTable
70
1
0
VPORT
5
2c9d
100
AcDbSymbolTableRecord
100
AcDbViewportTableRecord
2
*ACTIVE
10
0
20
0
11
1
21
1
12
500.0
22
500.0
40
1000.0
70
0
0
ENDTAB
0
TABLE
2
LTYPE
5
2c9f
100
AcDbSymbolTable
70
3
0
LTYPE
5
2ca7
100
AcDbSymbolTableRecord
100
AcDbLinetypeTableRecord
2
Solid
70
0
72
65
73
0
3

0
LTYPE
5
2ca8
100
AcDbSymbolTableRecord
100
AcDbLinetypeTableRecord
2
ByBlock
70
0
72
65
73
0
3

0
LTYPE
5
2ca9
100
AcDbSymbolTableRecord
100
AcDbLinetypeTableRecord
2
ByLayer
70
0
72
65
73
0
3

0
ENDTAB
0
TABLE
2
LAYER
5
2ca0
100
AcDbSymbolTable
70
5
0
LAYER
5
2caa
100
AcDbSymbolTableRecord
100
AcDbLayerTableRecord
2
0
70
0
390
0
0
LAYER
5
2cc8
100
AcDbSymbolTableRecord
100
AcDbLayerTableRecord
2
zone_0_q1
70
0
390
0
0
LAYER
5
2ccb
100
AcDbSymbolTableRecord
100
AcDbLayerTableRecord
2
zone_1_q1
70
0
390
0
0
LAYER
5
2cce
100
AcDbSymbolTableRecord
100
AcDbLayerTableRecord
2
zone_2_q1
70
0
390
0
0
LAYER
5
2cd1
100
AcDbSymbolTableRecord
100
AcDbLayerTableRecord
2
zone_3_q1
70
0
390
0
0
ENDTAB
0
TABLE
2
STYLE
5
2ca1
100
AcDbSymbolTable
70
0
0
ENDTAB
0
TABLE
2
VIEW
5
2ca2
100
AcDbSymbolTable
70
0
0
ENDTAB
0
TABLE
2
UCS
5
2ca3
100
AcDbSymbolTable
70
0
0
ENDTAB
0
TABLE
2
APPID
5
2ca4
100
AcDbSymbolTable
70
1
0
APPID
5
2cab
100
AcDbSymbolTableRecord
100
AcDbRegAppTableRecord
2
ACAD
70
0
0
ENDTAB
0
TABLE
2
DIMSTYLE
5
2ca5
100
AcDbSymbolTable
70
0
100
AcDbDimStyleTable
71
1
0
ENDTAB
0
TABLE
2
BLOCK_RECORD
5
2ca6
100
AcDbSymbolTable
70
2
0
BLOCK_RECORD
5
2cac
100
AcDbSymbolTableRecord
100
AcDbBlockTableRecord
2
*Model_Space
70
0
280
1
281
0
0
BLOCK_RECORD
5
2cad
100
AcDbSymbolTableRecord
100
AcDbBlockTableRecord
2
*Paper_Space
70
0
280
1
281
0
0
ENDTAB
0
ENDSEC
0
SECTION
2
BLOCKS
0
BLOCK
5
2cae
100
AcDbEntity
100
AcDbBlockBegin
2
*Model_Space
70
0
10
0
20
0
30
0
3
*Model_Space
1

0
ENDBLK
5
2caf
100
AcDbEntity
100
AcDbBlockEnd
0
BLOCK
5
2cb0
100
AcDbEntity
100
AcDbBlockBegin
2
*Paper_Space
70
0
10
0
20
0
30
0
3
*Paper_Space
1

0
ENDBLK
5
2cb1
100
AcDbEntity
100
AcDbBlockEnd
0
ENDSEC
0
SECTION
2
ENTITIES
0
LWPOLYLINE
5
2cb4
100
AcDbEntity
100
AcDbPolyline
90
78
70
1
10
880.0
20
-3894.0
30
0.0
10
1485.0
20
-3228.0
30
0.0
10
1694.0
20
-2627.0
30
0.0
10
1822.0
20
-2467.0
30
0.0
10
2291.0
20
-2570.0
30
0.0
10
2491.0
20
-2447.0
30
0.0
10
2560.0
20
-2278.0
30
0.0
10
2529.0
20
-2095.0
30
0.0
10
2123.0
20
-1411.0
30
0.0
10
2457.0
20
-879.0
30
0.0
10
2813.0
20
-1207.0
30
0.0
10
3269.0
20
-1376.0
30
0.0
10
4857.0
20
-1616.0
30
0.0
10
5689.0
20
-1595.0
30
0.0
10
5957.0
20
-1758.0
30
0.0
10
6465.0
20
-1742.0
30
0.0
10
7033.0
20
-1505.0
30
0.0
10
7200.0
20
-1229.0
30
0.0
10
7445.0
20
-1069.0
30
0.0
10
7562.0
20
-828.0
30
0.0
10
8299.0
20
-303.0
30
0.0
10
8495.0
20
-50.0
30
0.0
10
8748.0
20
-87.0
30
0.0
10
9091.0
20
0.0
30
0.0
10
9585.0
20
-74.0
30
0.0
10
9544.0
20
-271.0
30
0.0
10
9618.0
20
-509.0
30
0.0
10
9475.0
20
-923.0
30
0.0
10
9599.0
20
-1423.0
30
0.0
10
9849.0
20
-1873.0
30
0.0
10
9879.0
20
-2285.0
30
0.0
10
9524.0
20
-4088.0
30
0.0
10
9571.0
20
-4641.0
30
0.0
10
9265.0
20
-4645.0
30
0.0
10
9085.0
20
-4769.0
30
0.0
10
9452.0
20
-4906.0
30
0.0
10
9722.0
20
-5321.0
30
0.0
10
9695.0
20
-5682.0
30
0.0
10
9918.0
20
-6623.0
30
0.0
10
9870.0
20
-6862.0
30
0.0
10
9968.0
20
-7471.0
30
0.0
10
9912.0
20
-7824.0
30
0.0
10
10012.0
20
-8424.0
30
0.0
10
9878.0
20
-8501.0
30
0.0
10
9908.0
20
-8716.0
30
0.0
10
9663.0
20
-8999.0
30
0.0
10
9450.0
20
-8795.0
30
0.0
10
9220.0
20
-8795.0
30
0.0
10
9406.0
20
-9098.0
30
0.0
10
8738.0
20
-9106.0
30
0.0
10
8061.0
20
-8828.0
30
0.0
10
7561.0
20
-8888.0
30
0.0
10
7399.0
20
-8545.0
30
0.0
10
6772.0
20
-8463.0
30
0.0
10
6430.0
20
-8253.0
30
0.0
10
6128.0
20
-8202.0
30
0.0
10
5919.0
20
-8223.0
30
0.0
10
5524.0
20
-8436.0
30
0.0
10
4876.0
20
-8280.0
30
0.0
10
4686.0
20
-8418.0
30
0.0
10
4429.0
20
-8950.0
30
0.0
10
4103.0
20
-9023.0
30
0.0
10
3911.0
20
-8743.0
30
0.0
10
3351.0
20
-8788.0
30
0.0
10
3237.0
20
-8549.0
30
0.0
10
2873.0
20
-8280.0
30
0.0
10
2974.0
20
-8003.0
30
0.0
10
2979.0
20
-7693.0
30
0.0
10
2804.0
20
-7399.0
30
0.0
10
2277.0
20
-7395.0
30
0.0
10
2063.0
20
-7149.0
30
0.0
10
1981.0
20
-6909.0
30
0.0
10
1320.0
20
-6579.0
30
0.0
10
906.0
20
-6705.0
30
0.0
10
230.0
20
-6743.0
30
0.0
10
207.0
20
-5158.0
30
0.0
10
1.0
20
-4244.0
30
0.0
10
880.0
20
-3894.0
30
0.0
6
Solid
370
35
62
0
0
LWPOLYLINE
5
2cb6
100
AcDbEntity
100
AcDbPolyline
90
6
70
1
10
3514.0
20
-7843.0
30
0.0
10
3586.0
20
-7876.0
30
0.0
10
3604.0
20
-7951.0
30
0.0
10
3555.0
20
-8001.0
30
0.0
10
3469.0
20
-7917.0
30
0.0
10
3514.0
20
-7843.0
30
0.0
6
Solid
370
35
62
0
0
LWPOLYLINE
5
2cb8
100
AcDbEntity
100
AcDbPolyline
90
5
70
1
10
9511.0
20
-5942.0
30
0.0
10
9506.0
20
-6012.0
30
0.0
10
9433.0
20
-6018.0
30
0.0
10
9429.0
20
-5937.0
30
0.0
10
9511.0
20
-5942.0
30
0.0
6
Solid
370
35
62
0
0
LWPOLYLINE
5
2cba
100
AcDbEntity
100
AcDbPolyline
90
4
70
1
10
8164.0
20
-7720.0
30
0.0
10
8049.0
20
-7738.0
30
0.0
10
8086.0
20
-7674.0
30
0.0
10
8164.0
20
-7720.0
30
0.0
6
Solid
370
35
62
0
0
LWPOLYLINE
5
2cbc
100
AcDbEntity
100
AcDbPolyline
90
5
70
1
10
4762.0
20
-6244.0
30
0.0
10
4795.0
20
-6323.0
30
0.0
10
4731.0
20
-6373.0
30
0.0
10
4691.0
20
-6289.0
30
0.0
10
4762.0
20
-6244.0
30
0.0
6
Solid
370
35
62
0
0
LWPOLYLINE
5
2cbe
100
AcDbEntity
100
AcDbPolyline
90
6
70
1
10
4591.0
20
-4592.0
30
0.0
10
4522.0
20
-4605.0
30
0.0
10
4464.0
20
-4517.0
30
0.0
10
4521.0
20
-4461.0
30
0.0
10
4600.0
20
-4512.0
30
0.0
10
4591.0
20
-4592.0
30
0.0
6
Solid
370
35
62
0
0
LWPOLYLINE
5
2cc0
100
AcDbEntity
100
AcDbPolyline
90
7
70
1
10
8515.0
20
-1603.0
30
0.0
10
8472.0
20
-1646.0
30
0.0
10
8403.0
20
-1655.0
30
0.0
10
8361.0
20
-1592.0
30
0.0
10
8423.0
20
-1527.0
30
0.0
10
8510.0
20
-1535.0
30
0.0
10
8515.0
20
-1603.0
30
0.0
6
Solid
370
35
62
0
0
LWPOLYLINE
5
2cc2
100
AcDbEntity
100
AcDbPolyline
90
6
70
1
10
9639.0
20
-2122.0
30
0.0
10
9549.0
20
-2138.0
30
0.0
10
9496.0
20
-2070.0
30
0.0
10
9567.0
20
-1998.0
30
0.0
10
9672.0
20
-2028.0
30
0.0
10
9639.0
20
-2122.0
30
0.0
6
Solid
370
35
62
0
0
LWPOLYLINE
5
2cc4
100
AcDbEntity
100
AcDbPolyline
90
16
70
1
10
7650.0
20
-1512.0
30
0.0
10
7615.0
20
-1804.0
30
0.0
10
7482.0
20
-2090.0
30
0.0
10
7269.0
20
-2332.0
30
0.0
10
6898.0
20
-2402.0
30
0.0
10
6597.0
20
-2278.0
30
0.0
10
6291.0
20
-2318.0
30
0.0
10
6044.0
20
-2125.0
30
0.0
10
5916.0
20
-1748.0
30
0.0
10
6465.0
20
-1742.0
30
0.0
10
6845.0
20
-1613.0
30
0.0
10
7062.0
20
-1480.0
30
0.0
10
7200.0
20
-1229.0
30
0.0
10
7398.0
20
-1120.0
30
0.0
10
7511.0
20
-948.0
30
0.0
10
7650.0
20
-1512.0
30
0.0
6
Solid
370
35
62
0
0
LWPOLYLINE
5
2cc6
100
AcDbEntity
100
AcDbPolyline
90
20
70
1
10
5325.0
20
-7928.0
30
0.0
10
5662.0
20
-7618.0
30
0.0
10
5998.0
20
-7614.0
30
0.0
10
6358.0
20
-7395.0
30
0.0
10
6808.0
20
-7400.0
30
0.0
10
7199.0
20
-7609.0
30
0.0
10
7422.0
20
-7964.0
30
0.0
10
7618.0
20
-8642.0
30
0.0
10
7534.0
20
-8761.0
30
0.0
10
7468.0
20
-8606.0
30
0.0
10
7359.0
20
-8527.0
30
0.0
10
6997.0
20
-8455.0
30
0.0
10
6772.0
20
-8463.0
30
0.0
10
6500.0
20
-8284.0
30
0.0
10
6255.0
20
-8214.0
30
0.0
10
5948.0
20
-8214.0
30
0.0
10
5524.0
20
-8436.0
30
0.0
10
5409.0
20
-8371.0
30
0.0
10
5316.0
20
-8360.0
30
0.0
10
5325.0
20
-7928.0
30
0.0
6
Solid
370
35
62
0
0
LWPOLYLINE
5
2cc9
100
AcDbEntity
8
zone_0_q1
100
AcDbPolyline
90
5
70
1
10
8789.0
20
-8085.0
30
0.0
10
8945.0
20
-8840.0
30
0.0
10
8028.0
20
-8594.0
30
0.0
10
8047.0
20
-7988.0
30
0.0
10
8789.0
20
-8085.0
30
0.0
6
Solid
370
35
62
40
0
LWPOLYLINE
5
2ccc
100
AcDbEntity
8
zone_1_q1
100
AcDbPolyline
90
5
70
1
10
4158.0
20
-8368.0
30
0.0
10
3943.0
20
-7551.0
30
0.0
10
4612.0
20
-7781.0
30
0.0
10
4589.0
20
-8660.0
30
0.0
10
4158.0
20
-8368.0
30
0.0
6
Solid
370
35
62
40
0
LWPOLYLINE
5
2ccf
100
AcDbEntity
8
zone_2_q1
100
AcDbPolyline
90
5
70
1
10
4247.0
20
-1580.0
30
0.0
10
4365.0
20
-2414.0
30
0.0
10
3524.0
20
-2542.0
30
0.0
10
3337.0
20
-1627.0
30
0.0
10
4247.0
20
-1580.0
30
0.0
6
Solid
370
35
62
40
0
LWPOLYLINE
5
2cd2
100
AcDbEntity
8
zone_3_q1
100
AcDbPolyline
90
5
70
1
10
9072.0
20
-309.0
30
0.0
10
8991.0
20
-1192.0
30
0.0
10
8166.0
20
-1404.0
30
0.0
10
8191.0
20
-446.0
30
0.0
10
9072.0
20
-309.0
30
0.0
6
Solid
370
35
62
40
0
ENDSEC
0
SECTION
2
OBJECTS
0
DICTIONARY
5
2cb2
330
0
100
AcDbDictionary
281
1
3
ACAD_GROUP
350
2cb3
0
DICTIONARY
5
2cb3
330
2cb2
100
AcDbDictionary
281
1
0
ENDSEC
0
EOF
