999

0
SECTION
2
HEADER
9
$ACADVER
1
AC1021
9
$HANDSEED
5
1a
0
ENDSEC
0
SECTION
2
CLASSES
0
ENDSEC
0
SECTION
2
TABLES
0
TABLE
2
VPORT
5
2
100
AcDbSymbolTable
70
1
0
VPORT
5
1
100
AcDbSymbolTableRecord
100
AcDbViewportTableRecord
2
*ACTIVE
10
0
20
0
11
1
21
1
12
500.0
22
500.0
40
1000.0
70
0
0
ENDTAB
0
TABLE
2
LTYPE
5
3
100
AcDbSymbolTable
70
3
0
LTYPE
5
b
100
AcDbSymbolTableRecord
100
AcDbLinetypeTableRecord
2
Solid
70
0
72
65
73
0
3

0
LTYPE
5
c
100
AcDbSymbolTableRecord
100
AcDbLinetypeTableRecord
2
ByBlock
70
0
72
65
73
0
3

0
LTYPE
5
d
100
AcDbSymbolTableRecord
100
AcDbLinetypeTableRecord
2
ByLayer
70
0
72
65
73
0
3

0
ENDTAB
0
TABLE
2
LAYER
5
4
100
AcDbSymbolTable
70
1
0
LAYER
5
e
100
AcDbSymbolTableRecord
100
AcDbLayerTableRecord
2
0
70
0
390
0
0
ENDTAB
0
TABLE
2
STYLE
5
5
100
AcDbSymbolTable
70
0
0
ENDTAB
0
TABLE
2
VIEW
5
6
100
AcDbSymbolTable
70
0
0
ENDTAB
0
TABLE
2
UCS
5
7
100
AcDbSymbolTable
70
0
0
ENDTAB
0
TABLE
2
APPID
5
8
100
AcDbSymbolTable
70
1
0
APPID
5
f
100
AcDbSymbolTableRecord
100
AcDbRegAppTableRecord
2
ACAD
70
0
0
ENDTAB
0
TABLE
2
DIMSTYLE
5
9
100
AcDbSymbolTable
70
0
100
AcDbDimStyleTable
71
1
0
ENDTAB
0
TABLE
2
BLOCK_RECORD
5
a
100
AcDbSymbolTable
70
2
0
BLOCK_RECORD
5
10
100
AcDbSymbolTableRecord
100
AcDbBlockTableRecord
2
*Model_Space
70
0
280
1
281
0
0
BLOCK_RECORD
5
11
100
AcDbSymbolTableRecord
100
AcDbBlockTableRecord
2
*Paper_Space
70
0
280
1
281
0
0
ENDTAB
0
ENDSEC
0
SECTION
2
BLOCKS
0
BLOCK
5
12
100
AcDbEntity
100
AcDbBlockBegin
2
*Model_Space
70
0
10
0
20
0
30
0
3
*Model_Space
1

0
ENDBLK
5
13
100
AcDbEntity
100
AcDbBlockEnd
0
BLOCK
5
14
100
AcDbEntity
100
AcDbBlockBegin
2
*Paper_Space
70
0
10
0
20
0
30
0
3
*Paper_Space
1

0
ENDBLK
5
15
100
AcDbEntity
100
AcDbBlockEnd
0
ENDSEC
0
SECTION
2
ENTITIES
0
LWPOLYLINE
5
18
100
AcDbEntity
100
AcDbPolyline
90
33
70
1
10
0.0
20
0.0
30
0.0
10
-5.0
20
321.0
30
0.0
10
1.0
20
642.0
30
0.0
10
151.0
20
660.0
30
0.0
10
259.0
20
691.0
30
0.0
10
423.0
20
738.0
30
0.0
10
547.0
20
770.0
30
0.0
10
680.0
20
801.0
30
0.0
10
858.0
20
837.0
30
0.0
10
988.0
20
682.0
30
0.0
10
1075.0
20
620.0
30
0.0
10
1211.0
20
553.0
30
0.0
10
1319.0
20
527.0
30
0.0
10
1481.0
20
526.0
30
0.0
10
1597.0
20
540.0
30
0.0
10
1737.0
20
564.0
30
0.0
10
1719.0
20
440.0
30
0.0
10
1708.0
20
317.0
30
0.0
10
1718.0
20
194.0
30
0.0
10
1736.0
20
70.0
30
0.0
10
1596.0
20
95.0
30
0.0
10
1480.0
20
109.0
30
0.0
10
1318.0
20
109.0
30
0.0
10
1210.0
20
83.0
30
0.0
10
1074.0
20
17.0
30
0.0
10
986.0
20
-45.0
30
0.0
10
856.0
20
-199.0
30
0.0
10
678.0
20
-162.0
30
0.0
10
545.0
20
-131.0
30
0.0
10
421.0
20
-98.0
30
0.0
10
257.0
20
-50.0
30
0.0
10
149.0
20
-19.0
30
0.0
10
0.0
20
0.0
30
0.0
6
Solid
370
35
62
0
0
ENDSEC
0
SECTION
2
OBJECTS
0
DICTIONARY
5
16
330
0
100
AcDbDictionary
281
1
3
ACAD_GROUP
350
17
0
DICTIONARY
5
17
330
16
100
AcDbDictionary
281
1
0
ENDSEC
0
EOF
