999

0
SECTION
2
HEADER
9
$ACADVER
1
AC1021
9
$HANDSEED
5
b0
0
ENDSEC
0
SECTION
2
CLASSES
0
ENDSEC
0
SECTION
2
TABLES
0
TABLE
2
VPORT
5
98
100
AcDbSymbolTable
70
1
0
VPORT
5
97
100
AcDbSymbolTableRecord
100
AcDbViewportTableRecord
2
*ACTIVE
10
0
20
0
11
1
21
1
12
500.0
22
500.0
40
1000.0
70
0
0
ENDTAB
0
TABLE
2
LTYPE
5
99
100
AcDbSymbolTable
70
3
0
LTYPE
5
a1
100
AcDbSymbolTableRecord
100
AcDbLinetypeTableRecord
2
Solid
70
0
72
65
73
0
3

0
LTYPE
5
a2
100
AcDbSymbolTableRecord
100
AcDbLinetypeTableRecord
2
ByBlock
70
0
72
65
73
0
3

0
LTYPE
5
a3
100
AcDbSymbolTableRecord
100
AcDbLinetypeTableRecord
2
ByLayer
70
0
72
65
73
0
3

0
ENDTAB
0
TABLE
2
LAYER
5
9a
100
AcDbSymbolTable
70
1
0
LAYER
5
a4
100
AcDbSymbolTableRecord
100
AcDbLayerTableRecord
2
0
70
0
390
0
0
ENDTAB
0
TABLE
2
STYLE
5
9b
100
AcDbSymbolTable
70
0
0
ENDTAB
0
TABLE
2
VIEW
5
9c
100
AcDbSymbolTable
70
0
0
ENDTAB
0
TABLE
2
UCS
5
9d
100
AcDbSymbolTable
70
0
0
ENDTAB
0
TABLE
2
APPID
5
9e
100
AcDbSymbolTable
70
1
0
APPID
5
a5
100
AcDbSymbolTableRecord
100
AcDbRegAppTableRecord
2
ACAD
70
0
0
ENDTAB
0
TABLE
2
DIMSTYLE
5
9f
100
AcDbSymbolTable
70
0
100
AcDbDimStyleTable
71
1
0
ENDTAB
0
TABLE
2
BLOCK_RECORD
5
a0
100
AcDbSymbolTable
70
2
0
BLOCK_RECORD
5
a6
100
AcDbSymbolTableRecord
100
AcDbBlockTableRecord
2
*Model_Space
70
0
280
1
281
0
0
BLOCK_RECORD
5
a7
100
AcDbSymbolTableRecord
100
AcDbBlockTableRecord
2
*Paper_Space
70
0
280
1
281
0
0
ENDTAB
0
ENDSEC
0
SECTION
2
BLOCKS
0
BLOCK
5
a8
100
AcDbEntity
100
AcDbBlockBegin
2
*Model_Space
70
0
10
0
20
0
30
0
3
*Model_Space
1

0
ENDBLK
5
a9
100
AcDbEntity
100
AcDbBlockEnd
0
BLOCK
5
aa
100
AcDbEntity
100
AcDbBlockBegin
2
*Paper_Space
70
0
10
0
20
0
30
0
3
*Paper_Space
1

0
ENDBLK
5
ab
100
AcDbEntity
100
AcDbBlockEnd
0
ENDSEC
0
SECTION
2
ENTITIES
0
LWPOLYLINE
5
ae
100
AcDbEntity
100
AcDbPolyline
90
28
70
1
10
0.0
20
0.0
30
0.0
10
-4.0
20
123.0
30
0.0
10
-8.0
20
291.0
30
0.0
10
-17.0
20
454.0
30
0.0
10
-40.0
20
620.0
30
0.0
10
119.0
20
619.0
30
0.0
10
246.0
20
538.0
30
0.0
10
352.0
20
501.0
30
0.0
10
492.0
20
458.0
30
0.0
10
647.0
20
416.0
30
0.0
10
766.0
20
369.0
30
0.0
10
913.0
20
302.0
30
0.0
10
1061.0
20
224.0
30
0.0
10
1046.0
20
100.0
30
0.0
10
1037.0
20
-2.0
30
0.0
10
1061.0
20
-224.0
30
0.0
10
913.0
20
-302.0
30
0.0
10
766.0
20
-369.0
30
0.0
10
647.0
20
-416.0
30
0.0
10
492.0
20
-458.0
30
0.0
10
352.0
20
-501.0
30
0.0
10
246.0
20
-538.0
30
0.0
10
119.0
20
-619.0
30
0.0
10
-40.0
20
-620.0
30
0.0
10
-17.0
20
-454.0
30
0.0
10
-8.0
20
-291.0
30
0.0
10
-4.0
20
-123.0
30
0.0
10
0.0
20
0.0
30
0.0
6
Solid
370
35
62
0
0
ENDSEC
0
SECTION
2
OBJECTS
0
DICTIONARY
5
ac
330
0
100
AcDbDictionary
281
1
3
ACAD_GROUP
350
ad
0
DICTIONARY
5
ad
330
ac
100
AcDbDictionary
281
1
0
ENDSEC
0
EOF
