999

0
SECTION
2
HEADER
9
$ACADVER
1
AC1021
9
$HANDSEED
5
fb
0
ENDSEC
0
SECTION
2
CLASSES
0
ENDSEC
0
SECTION
2
TABLES
0
TABLE
2
VPORT
5
e3
100
AcDbSymbolTable
70
1
0
VPORT
5
e2
100
AcDbSymbolTableRecord
100
AcDbViewportTableRecord
2
*ACTIVE
10
0
20
0
11
1
21
1
12
500.0
22
500.0
40
1000.0
70
0
0
ENDTAB
0
TABLE
2
LTYPE
5
e4
100
AcDbSymbolTable
70
3
0
LTYPE
5
ec
100
AcDbSymbolTableRecord
100
AcDbLinetypeTableRecord
2
Solid
70
0
72
65
73
0
3

0
LTYPE
5
ed
100
AcDbSymbolTableRecord
100
AcDbLinetypeTableRecord
2
ByBlock
70
0
72
65
73
0
3

0
LTYPE
5
ee
100
AcDbSymbolTableRecord
100
AcDbLinetypeTableRecord
2
ByLayer
70
0
72
65
73
0
3

0
ENDTAB
0
TABLE
2
LAYER
5
e5
100
AcDbSymbolTable
70
1
0
LAYER
5
ef
100
AcDbSymbolTableRecord
100
AcDbLayerTableRecord
2
0
70
0
390
0
0
ENDTAB
0
TABLE
2
STYLE
5
e6
100
AcDbSymbolTable
70
0
0
ENDTAB
0
TABLE
2
VIEW
5
e7
100
AcDbSymbolTable
70
0
0
ENDTAB
0
TABLE
2
UCS
5
e8
100
AcDbSymbolTable
70
0
0
ENDTAB
0
TABLE
2
APPID
5
e9
100
AcDbSymbolTable
70
1
0
APPID
5
f0
100
AcDbSymbolTableRecord
100
AcDbRegAppTableRecord
2
ACAD
70
0
0
ENDTAB
0
TABLE
2
DIMSTYLE
5
ea
100
AcDbSymbolTable
70
0
100
AcDbDimStyleTable
71
1
0
ENDTAB
0
TABLE
2
BLOCK_RECORD
5
eb
100
AcDbSymbolTable
70
2
0
BLOCK_RECORD
5
f1
100
AcDbSymbolTableRecord
100
AcDbBlockTableRecord
2
*Model_Space
70
0
280
1
281
0
0
BLOCK_RECORD
5
f2
100
AcDbSymbolTableRecord
100
AcDbBlockTableRecord
2
*Paper_Space
70
0
280
1
281
0
0
ENDTAB
0
ENDSEC
0
SECTION
2
BLOCKS
0
BLOCK
5
f3
100
AcDbEntity
100
AcDbBlockBegin
2
*Model_Space
70
0
10
0
20
0
30
0
3
*Model_Space
1

0
ENDBLK
5
f4
100
AcDbEntity
100
AcDbBlockEnd
0
BLOCK
5
f5
100
AcDbEntity
100
AcDbBlockBegin
2
*Paper_Space
70
0
10
0
20
0
30
0
3
*Paper_Space
1

0
ENDBLK
5
f6
100
AcDbEntity
100
AcDbBlockEnd
0
ENDSEC
0
SECTION
2
ENTITIES
0
LWPOLYLINE
5
f9
100
AcDbEntity
100
AcDbPolyline
90
37
70
1
10
-175.388889
20
72.479532
30
0.0
10
-304.0
20
151.0
30
0.0
10
-407.0
20
193.0
30
0.0
10
-510.0
20
208.0
30
0.0
10
-673.0
20
192.0
30
0.0
10
-790.0
20
169.0
30
0.0
10
-990.0
20
124.0
30
0.0
10
-1029.0
20
292.0
30
0.0
10
-760.0
20
353.0
30
0.0
10
-531.0
20
404.0
30
0.0
10
-413.0
20
430.0
30
0.0
10
-288.0
20
510.0
30
0.0
10
-252.0
20
700.0
30
0.0
10
-252.0
20
862.0
30
0.0
10
-274.0
20
1015.0
30
0.0
10
-533.0
20
1157.0
30
0.0
10
-762.0
20
1207.0
30
0.0
10
-1031.0
20
1267.0
30
0.0
10
-993.0
20
1435.0
30
0.0
10
-793.0
20
1391.0
30
0.0
10
-675.0
20
1368.0
30
0.0
10
-512.0
20
1353.0
30
0.0
10
-409.0
20
1368.0
30
0.0
10
-307.0
20
1411.0
30
0.0
10
-180.411765
20
1488.285449
30
0.0
10
6.421687
20
1568.918833
30
0.0
10
319.0
20
1499.0
30
0.0
10
270.0
20
1290.0
30
0.0
10
248.0
20
1143.0
30
0.0
10
241.0
20
922.0
30
0.0
10
242.0
20
782.0
30
0.0
10
242.0
20
642.0
30
0.0
10
246.0
20
494.0
30
0.0
10
257.0
20
358.0
30
0.0
10
322.0
20
65.0
30
0.0
10
15.847507
20
-8.041056
30
0.0
10
-175.388889
20
72.479532
30
0.0
6
Solid
370
35
62
0
0
ENDSEC
0
SECTION
2
OBJECTS
0
DICTIONARY
5
f7
330
0
100
AcDbDictionary
281
1
3
ACAD_GROUP
350
f8
0
DICTIONARY
5
f8
330
f7
100
AcDbDictionary
281
1
0
ENDSEC
0
EOF
