999

0
SECTION
2
HEADER
9
$ACADVER
1
AC1021
9
$HANDSEED
5
1129
0
ENDSEC
0
SECTION
2
CLASSES
0
ENDSEC
0
SECTION
2
TABLES
0
TABLE
2
VPORT
5
10f7
100
AcDbSymbolTable
70
1
0
VPORT
5
10f6
100
AcDbSymbolTableRecord
100
AcDbViewportTableRecord
2
*ACTIVE
10
0
20
0
11
1
21
1
12
500.0
22
500.0
40
1000.0
70
0
0
ENDTAB
0
TABLE
2
LTYPE
5
10f8
100
AcDbSymbolTable
70
3
0
LTYPE
5
1100
100
AcDbSymbolTableRecord
100
AcDbLinetypeTableRecord
2
Solid
70
0
72
65
73
0
3

0
LTYPE
5
1101
100
AcDbSymbolTableRecord
100
AcDbLinetypeTableRecord
2
ByBlock
70
0
72
65
73
0
3

0
LTYPE
5
1102
100
AcDbSymbolTableRecord
100
AcDbLinetypeTableRecord
2
ByLayer
70
0
72
65
73
0
3

0
ENDTAB
0
TABLE
2
LAYER
5
10f9
100
AcDbSymbolTable
70
5
0
LAYER
5
1103
100
AcDbSymbolTableRecord
100
AcDbLayerTableRecord
2
0
70
0
390
0
0
LAYER
5
111d
100
AcDbSymbolTableRecord
100
AcDbLayerTableRecord
2
zone_0_q1
70
0
390
0
0
LAYER
5
1120
100
AcDbSymbolTableRecord
100
AcDbLayerTableRecord
2
zone_1_q2
70
0
390
0
0
LAYER
5
1123
100
AcDbSymbolTableRecord
100
AcDbLayerTableRecord
2
zone_2_q2
70
0
390
0
0
LAYER
5
1126
100
AcDbSymbolTableRecord
100
AcDbLayerTableRecord
2
zone_3_q3
70
0
390
0
0
ENDTAB
0
TABLE
2
STYLE
5
10fa
100
AcDbSymbolTable
70
0
0
ENDTAB
0
TABLE
2
VIEW
5
10fb
100
AcDbSymbolTable
70
0
0
ENDTAB
0
TABLE
2
UCS
5
10fc
100
AcDbSymbolTable
70
0
0
ENDTAB
0
TABLE
2
APPID
5
10fd
100
AcDbSymbolTable
70
1
0
APPID
5
1104
100
AcDbSymbolTableRecord
100
AcDbRegAppTableRecord
2
ACAD
70
0
0
ENDTAB
0
TABLE
2
DIMSTYLE
5
10fe
100
AcDbSymbolTable
70
0
100
AcDbDimStyleTable
71
1
0
ENDTAB
0
TABLE
2
BLOCK_RECORD
5
10ff
100
AcDbSymbolTable
70
2
0
BLOCK_RECORD
5
1105
100
AcDbSymbolTableRecord
100
AcDbBlockTableRecord
2
*Model_Space
70
0
280
1
281
0
0
BLOCK_RECORD
5
1106
100
AcDbSymbolTableRecord
100
AcDbBlockTableRecord
2
*Paper_Space
70
0
280
1
281
0
0
ENDTAB
0
ENDSEC
0
SECTION
2
BLOCKS
0
BLOCK
5
1107
100
AcDbEntity
100
AcDbBlockBegin
2
*Model_Space
70
0
10
0
20
0
30
0
3
*Model_Space
1

0
ENDBLK
5
1108
100
AcDbEntity
100
AcDbBlockEnd
0
BLOCK
5
1109
100
AcDbEntity
100
AcDbBlockBegin
2
*Paper_Space
70
0
10
0
20
0
30
0
3
*Paper_Space
1

0
ENDBLK
5
110a
100
AcDbEntity
100
AcDbBlockEnd
0
ENDSEC
0
SECTION
2
ENTITIES
0
LWPOLYLINE
5
110d
100
AcDbEntity
100
AcDbPolyline
90
80
70
1
10
559.0
20
-5124.0
30
0.0
10
223.0
20
-5145.0
30
0.0
10
0.0
20
-4614.0
30
0.0
10
337.0
20
-3486.0
30
0.0
10
970.0
20
-3088.0
30
0.0
10
1174.0
20
-2230.0
30
0.0
10
1289.0
20
-2172.0
30
0.0
10
1634.0
20
-2206.0
30
0.0
10
1817.0
20
-1878.0
30
0.0
10
2066.0
20
-2057.0
30
0.0
10
2311.0
20
-2103.0
30
0.0
10
1973.0
20
-1637.0
30
0.0
10
2193.0
20
-1457.0
30
0.0
10
2768.0
20
-1371.0
30
0.0
10
2876.0
20
-1473.0
30
0.0
10
2903.0
20
-1322.0
30
0.0
10
3116.0
20
-1217.0
30
0.0
10
3336.0
20
-1330.0
30
0.0
10
3471.0
20
-1138.0
30
0.0
10
3607.0
20
-1258.0
30
0.0
10
4403.0
20
-936.0
30
0.0
10
4728.0
20
-1012.0
30
0.0
10
4913.0
20
-970.0
30
0.0
10
5259.0
20
-814.0
30
0.0
10
5885.0
20
-354.0
30
0.0
10
6390.0
20
-351.0
30
0.0
10
7307.0
20
-3.0
30
0.0
10
7673.0
20
-161.0
30
0.0
10
7915.0
20
-140.0
30
0.0
10
8136.0
20
-10.0
30
0.0
10
8296.0
20
-40.0
30
0.0
10
8526.0
20
-145.0
30
0.0
10
8633.0
20
-297.0
30
0.0
10
8624.0
20
-441.0
30
0.0
10
8779.0
20
-727.0
30
0.0
10
8729.0
20
-918.0
30
0.0
10
8890.0
20
-1214.0
30
0.0
10
8918.0
20
-1556.0
30
0.0
10
8791.0
20
-1925.0
30
0.0
10
8842.0
20
-2244.0
30
0.0
10
8718.0
20
-2480.0
30
0.0
10
8712.0
20
-3706.0
30
0.0
10
9122.0
20
-4834.0
30
0.0
10
9084.0
20
-5740.0
30
0.0
10
9360.0
20
-7107.0
30
0.0
10
9384.0
20
-7651.0
30
0.0
10
9105.0
20
-7790.0
30
0.0
10
8927.0
20
-8019.0
30
0.0
10
8572.0
20
-7894.0
30
0.0
10
7868.0
20
-7882.0
30
0.0
10
7409.0
20
-8026.0
30
0.0
10
7130.0
20
-7988.0
30
0.0
10
6656.0
20
-8085.0
30
0.0
10
6393.0
20
-8382.0
30
0.0
10
6128.0
20
-8394.0
30
0.0
10
6053.0
20
-8317.0
30
0.0
10
5173.0
20
-8343.0
30
0.0
10
4564.0
20
-8097.0
30
0.0
10
4132.0
20
-8270.0
30
0.0
10
3767.0
20
-8528.0
30
0.0
10
3445.0
20
-8582.0
30
0.0
10
3427.0
20
-8329.0
30
0.0
10
3167.0
20
-8168.0
30
0.0
10
2987.0
20
-8169.0
30
0.0
10
3007.0
20
-7980.0
30
0.0
10
2765.0
20
-8154.0
30
0.0
10
2525.0
20
-8086.0
30
0.0
10
2280.0
20
-7660.0
30
0.0
10
1783.0
20
-7406.0
30
0.0
10
1825.0
20
-7233.0
30
0.0
10
1700.0
20
-7096.0
30
0.0
10
1697.0
20
-6696.0
30
0.0
10
1609.0
20
-6438.0
30
0.0
10
1786.0
20
-6049.0
30
0.0
10
1732.0
20
-5825.0
30
0.0
10
1429.0
20
-5666.0
30
0.0
10
712.0
20
-5642.0
30
0.0
10
495.0
20
-5449.0
30
0.0
10
374.0
20
-5154.0
30
0.0
10
559.0
20
-5124.0
30
0.0
6
Solid
370
35
62
0
0
LWPOLYLINE
5
110f
100
AcDbEntity
100
AcDbPolyline
90
6
70
1
10
1778.0
20
-3053.0
30
0.0
10
1792.0
20
-3104.0
30
0.0
10
1729.0
20
-3158.0
30
0.0
10
1665.0
20
-3091.0
30
0.0
10
1729.0
20
-3031.0
30
0.0
10
1778.0
20
-3053.0
30
0.0
6
Solid
370
35
62
0
0
LWPOLYLINE
5
1111
100
AcDbEntity
100
AcDbPolyline
90
5
70
1
10
8718.0
20
-6815.0
30
0.0
10
8659.0
20
-6862.0
30
0.0
10
8616.0
20
-6805.0
30
0.0
10
8667.0
20
-6760.0
30
0.0
10
8718.0
20
-6815.0
30
0.0
6
Solid
370
35
62
0
0
LWPOLYLINE
5
1113
100
AcDbEntity
100
AcDbPolyline
90
5
70
1
10
8520.0
20
-6854.0
30
0.0
10
8467.0
20
-6897.0
30
0.0
10
8418.0
20
-6844.0
30
0.0
10
8469.0
20
-6795.0
30
0.0
10
8520.0
20
-6854.0
30
0.0
6
Solid
370
35
62
0
0
LWPOLYLINE
5
1115
100
AcDbEntity
100
AcDbPolyline
90
26
70
1
10
5510.0
20
-857.0
30
0.0
10
5685.0
20
-1007.0
30
0.0
10
5940.0
20
-1130.0
30
0.0
10
6098.0
20
-1275.0
30
0.0
10
6913.0
20
-1381.0
30
0.0
10
7194.0
20
-1614.0
30
0.0
10
7204.0
20
-1914.0
30
0.0
10
7060.0
20
-2120.0
30
0.0
10
6296.0
20
-2334.0
30
0.0
10
5996.0
20
-2330.0
30
0.0
10
5382.0
20
-2203.0
30
0.0
10
5010.0
20
-1873.0
30
0.0
10
4731.0
20
-1705.0
30
0.0
10
4455.0
20
-1630.0
30
0.0
10
3807.0
20
-1812.0
30
0.0
10
3593.0
20
-1653.0
30
0.0
10
3550.0
20
-1533.0
30
0.0
10
3537.0
20
-1272.0
30
0.0
10
3695.0
20
-1305.0
30
0.0
10
3890.0
20
-1270.0
30
0.0
10
4604.0
20
-985.0
30
0.0
10
4772.0
20
-1071.0
30
0.0
10
4940.0
20
-1067.0
30
0.0
10
5182.0
20
-960.0
30
0.0
10
5457.0
20
-755.0
30
0.0
10
5510.0
20
-857.0
30
0.0
6
Solid
370
35
62
0
0
LWPOLYLINE
5
1117
100
AcDbEntity
100
AcDbPolyline
90
4
70
1
10
672.0
20
-4170.0
30
0.0
10
707.0
20
-4248.0
30
0.0
10
669.0
20
-4224.0
30
0.0
10
672.0
20
-4170.0
30
0.0
6
Solid
370
35
62
0
0
LWPOLYLINE
5
1119
100
AcDbEntity
100
AcDbPolyline
90
5
70
1
10
705.0
20
-4508.0
30
0.0
10
742.0
20
-4543.0
30
0.0
10
705.0
20
-4588.0
30
0.0
10
655.0
20
-4529.0
30
0.0
10
705.0
20
-4508.0
30
0.0
6
Solid
370
35
62
0
0
LWPOLYLINE
5
111b
100
AcDbEntity
100
AcDbPolyline
90
13
70
1
10
3963.0
20
-8284.0
30
0.0
10
3746.0
20
-8002.0
30
0.0
10
3947.0
20
-7892.0
30
0.0
10
3967.0
20
-7583.0
30
0.0
10
4120.0
20
-7379.0
30
0.0
10
4331.0
20
-7425.0
30
0.0
10
4377.0
20
-7259.0
30
0.0
10
5260.0
20
-7210.0
30
0.0
10
6156.0
20
-7040.0
30
0.0
10
7087.0
20
-7041.0
30
0.0
10
7241.0
20
-7974.0
30
0.0
10
4027.0
20
-8111.0
30
0.0
10
3963.0
20
-8284.0
30
0.0
6
Solid
370
35
62
0
0
LWPOLYLINE
5
111e
100
AcDbEntity
8
zone_0_q1
100
AcDbPolyline
90
5
70
1
10
7954.0
20
-7170.0
30
0.0
10
8103.0
20
-7818.0
30
0.0
10
7410.0
20
-7860.0
30
0.0
10
7280.0
20
-7261.0
30
0.0
10
7954.0
20
-7170.0
30
0.0
6
Solid
370
35
62
40
0
LWPOLYLINE
5
1121
100
AcDbEntity
8
zone_1_q2
100
AcDbPolyline
90
5
70
1
10
2735.0
20
-1740.0
30
0.0
10
2963.0
20
-2177.0
30
0.0
10
2401.0
20
-2293.0
30
0.0
10
2208.0
20
-1663.0
30
0.0
10
2735.0
20
-1740.0
30
0.0
6
Solid
370
35
62
2
0
LWPOLYLINE
5
1124
100
AcDbEntity
8
zone_2_q2
100
AcDbPolyline
90
5
70
1
10
3719.0
20
-8165.0
30
0.0
10
2995.0
20
-7967.0
30
0.0
10
3084.0
20
-7366.0
30
0.0
10
3788.0
20
-7331.0
30
0.0
10
3719.0
20
-8165.0
30
0.0
6
Solid
370
35
62
2
0
LWPOLYLINE
5
1127
100
AcDbEntity
8
zone_3_q3
100
AcDbPolyline
90
10
70
1
10
8185.0
20
-999.0
30
0.0
10
7294.0
20
-1085.0
30
0.0
10
7225.0
20
-212.0
30
0.0
10
7335.0
20
0.0
30
0.0
10
7405.0
20
-23.0
30
0.0
10
7535.0
20
-149.0
30
0.0
10
7673.0
20
-161.0
30
0.0
10
7915.0
20
-140.0
30
0.0
10
8136.0
20
-10.0
30
0.0
10
8185.0
20
-999.0
30
0.0
6
Solid
370
35
62
3
0
ENDSEC
0
SECTION
2
OBJECTS
0
DICTIONARY
5
110b
330
0
100
AcDbDictionary
281
1
3
ACAD_GROUP
350
110c
0
DICTIONARY
5
110c
330
110b
100
AcDbDictionary
281
1
0
ENDSEC
0
EOF
