999

0
SECTION
2
HEADER
9
$ACADVER
1
AC1021
9
$HANDSEED
5
191
0
ENDSEC
0
SECTION
2
CLASSES
0
ENDSEC
0
SECTION
2
TABLES
0
TABLE
2
VPORT
5
179
100
AcDbSymbolTable
70
1
0
VPORT
5
178
100
AcDbSymbolTableRecord
100
AcDbViewportTableRecord
2
*ACTIVE
10
0
20
0
11
1
21
1
12
500.0
22
500.0
40
1000.0
70
0
0
ENDTAB
0
TABLE
2
LTYPE
5
17a
100
AcDbSymbolTable
70
3
0
LTYPE
5
182
100
AcDbSymbolTableRecord
100
AcDbLinetypeTableRecord
2
Solid
70
0
72
65
73
0
3

0
LTYPE
5
183
100
AcDbSymbolTableRecord
100
AcDbLinetypeTableRecord
2
ByBlock
70
0
72
65
73
0
3

0
LTYPE
5
184
100
AcDbSymbolTableRecord
100
AcDbLinetypeTableRecord
2
ByLayer
70
0
72
65
73
0
3

0
ENDTAB
0
TABLE
2
LAYER
5
17b
100
AcDbSymbolTable
70
1
0
LAYER
5
185
100
AcDbSymbolTableRecord
100
AcDbLayerTableRecord
2
0
70
0
390
0
0
ENDTAB
0
TABLE
2
STYLE
5
17c
100
AcDbSymbolTable
70
0
0
ENDTAB
0
TABLE
2
VIEW
5
17d
100
AcDbSymbolTable
70
0
0
ENDTAB
0
TABLE
2
UCS
5
17e
100
AcDbSymbolTable
70
0
0
ENDTAB
0
TABLE
2
APPID
5
17f
100
AcDbSymbolTable
70
1
0
APPID
5
186
100
AcDbSymbolTableRecord
100
AcDbRegAppTableRecord
2
ACAD
70
0
0
ENDTAB
0
TABLE
2
DIMSTYLE
5
180
100
AcDbSymbolTable
70
0
100
AcDbDimStyleTable
71
1
0
ENDTAB
0
TABLE
2
BLOCK_RECORD
5
181
100
AcDbSymbolTable
70
2
0
BLOCK_RECORD
5
187
100
AcDbSymbolTableRecord
100
AcDbBlockTableRecord
2
*Model_Space
70
0
280
1
281
0
0
BLOCK_RECORD
5
188
100
AcDbSymbolTableRecord
100
AcDbBlockTableRecord
2
*Paper_Space
70
0
280
1
281
0
0
ENDTAB
0
ENDSEC
0
SECTION
2
BLOCKS
0
BLOCK
5
189
100
AcDbEntity
100
AcDbBlockBegin
2
*Model_Space
70
0
10
0
20
0
30
0
3
*Model_Space
1

0
ENDBLK
5
18a
100
AcDbEntity
100
AcDbBlockEnd
0
BLOCK
5
18b
100
AcDbEntity
100
AcDbBlockBegin
2
*Paper_Space
70
0
10
0
20
0
30
0
3
*Paper_Space
1

0
ENDBLK
5
18c
100
AcDbEntity
100
AcDbBlockEnd
0
ENDSEC
0
SECTION
2
ENTITIES
0
LWPOLYLINE
5
18f
100
AcDbEntity
100
AcDbPolyline
90
336
70
1
10
504.0
20
0.0
30
0.0
10
506.0
20
0.0
30
0.0
10
508.0
20
0.0
30
0.0
10
509.0
20
-2.0
30
0.0
10
509.0
20
-5.0
30
0.0
10
509.0
20
-7.0
30
0.0
10
510.0
20
-11.0
30
0.0
10
510.0
20
-15.0
30
0.0
10
510.0
20
-19.0
30
0.0
10
511.0
20
-24.0
30
0.0
10
511.0
20
-29.0
30
0.0
10
511.0
20
-33.0
30
0.0
10
511.0
20
-38.0
30
0.0
10
512.0
20
-43.0
30
0.0
10
512.0
20
-47.0
30
0.0
10
512.0
20
-52.0
30
0.0
10
513.0
20
-57.0
30
0.0
10
513.0
20
-61.0
30
0.0
10
514.0
20
-66.0
30
0.0
10
514.0
20
-71.0
30
0.0
10
514.0
20
-75.0
30
0.0
10
515.0
20
-80.0
30
0.0
10
515.0
20
-85.0
30
0.0
10
516.0
20
-89.0
30
0.0
10
516.0
20
-94.0
30
0.0
10
517.0
20
-99.0
30
0.0
10
518.0
20
-104.0
30
0.0
10
518.0
20
-108.0
30
0.0
10
519.0
20
-113.0
30
0.0
10
520.0
20
-118.0
30
0.0
10
520.0
20
-123.0
30
0.0
10
521.0
20
-127.0
30
0.0
10
522.0
20
-132.0
30
0.0
10
523.0
20
-137.0
30
0.0
10
524.0
20
-142.0
30
0.0
10
524.0
20
-147.0
30
0.0
10
525.0
20
-152.0
30
0.0
10
526.0
20
-156.0
30
0.0
10
527.0
20
-161.0
30
0.0
10
528.0
20
-165.0
30
0.0
10
529.0
20
-170.0
30
0.0
10
529.0
20
-174.0
30
0.0
10
530.0
20
-179.0
30
0.0
10
531.0
20
-183.0
30
0.0
10
532.0
20
-188.0
30
0.0
10
533.0
20
-192.0
30
0.0
10
534.0
20
-197.0
30
0.0
10
534.0
20
-201.0
30
0.0
10
535.0
20
-206.0
30
0.0
10
536.0
20
-211.0
30
0.0
10
537.0
20
-216.0
30
0.0
10
538.0
20
-220.0
30
0.0
10
539.0
20
-225.0
30
0.0
10
540.0
20
-230.0
30
0.0
10
541.0
20
-234.0
30
0.0
10
541.0
20
-239.0
30
0.0
10
542.0
20
-243.0
30
0.0
10
543.0
20
-248.0
30
0.0
10
544.0
20
-252.0
30
0.0
10
545.0
20
-257.0
30
0.0
10
546.0
20
-261.0
30
0.0
10
547.0
20
-265.0
30
0.0
10
547.0
20
-270.0
30
0.0
10
548.0
20
-274.0
30
0.0
10
549.0
20
-279.0
30
0.0
10
550.0
20
-284.0
30
0.0
10
551.0
20
-288.0
30
0.0
10
552.0
20
-293.0
30
0.0
10
553.0
20
-298.0
30
0.0
10
554.0
20
-302.0
30
0.0
10
555.0
20
-307.0
30
0.0
10
555.0
20
-312.0
30
0.0
10
556.0
20
-316.0
30
0.0
10
557.0
20
-321.0
30
0.0
10
558.0
20
-325.0
30
0.0
10
559.0
20
-330.0
30
0.0
10
560.0
20
-334.0
30
0.0
10
560.0
20
-339.0
30
0.0
10
561.0
20
-343.0
30
0.0
10
562.0
20
-347.0
30
0.0
10
563.0
20
-352.0
30
0.0
10
563.0
20
-356.0
30
0.0
10
564.0
20
-361.0
30
0.0
10
565.0
20
-365.0
30
0.0
10
566.0
20
-370.0
30
0.0
10
567.0
20
-375.0
30
0.0
10
567.0
20
-379.0
30
0.0
10
568.0
20
-384.0
30
0.0
10
569.0
20
-389.0
30
0.0
10
570.0
20
-393.0
30
0.0
10
571.0
20
-398.0
30
0.0
10
572.0
20
-403.0
30
0.0
10
573.0
20
-407.0
30
0.0
10
573.0
20
-412.0
30
0.0
10
574.0
20
-416.0
30
0.0
10
575.0
20
-420.0
30
0.0
10
576.0
20
-425.0
30
0.0
10
577.0
20
-429.0
30
0.0
10
578.0
20
-433.0
30
0.0
10
578.0
20
-437.0
30
0.0
10
579.0
20
-441.0
30
0.0
10
580.0
20
-444.0
30
0.0
10
580.0
20
-448.0
30
0.0
10
581.0
20
-451.0
30
0.0
10
581.0
20
-454.0
30
0.0
10
581.0
20
-458.0
30
0.0
10
581.0
20
-462.0
30
0.0
10
579.0
20
-464.0
30
0.0
10
576.0
20
-466.0
30
0.0
10
573.0
20
-467.0
30
0.0
10
570.0
20
-468.0
30
0.0
10
565.0
20
-470.0
30
0.0
10
561.0
20
-471.0
30
0.0
10
556.0
20
-473.0
30
0.0
10
551.0
20
-475.0
30
0.0
10
547.0
20
-476.0
30
0.0
10
542.0
20
-478.0
30
0.0
10
537.0
20
-480.0
30
0.0
10
533.0
20
-481.0
30
0.0
10
528.0
20
-483.0
30
0.0
10
523.0
20
-485.0
30
0.0
10
519.0
20
-486.0
30
0.0
10
514.0
20
-488.0
30
0.0
10
509.0
20
-489.0
30
0.0
10
504.0
20
-491.0
30
0.0
10
500.0
20
-493.0
30
0.0
10
495.0
20
-494.0
30
0.0
10
490.0
20
-496.0
30
0.0
10
485.0
20
-497.0
30
0.0
10
481.0
20
-498.0
30
0.0
10
476.0
20
-500.0
30
0.0
10
471.0
20
-501.0
30
0.0
10
466.0
20
-503.0
30
0.0
10
462.0
20
-504.0
30
0.0
10
457.0
20
-505.0
30
0.0
10
452.0
20
-506.0
30
0.0
10
448.0
20
-508.0
30
0.0
10
443.0
20
-509.0
30
0.0
10
438.0
20
-510.0
30
0.0
10
433.0
20
-511.0
30
0.0
10
429.0
20
-512.0
30
0.0
10
424.0
20
-513.0
30
0.0
10
419.0
20
-514.0
30
0.0
10
414.0
20
-515.0
30
0.0
10
409.0
20
-516.0
30
0.0
10
405.0
20
-516.0
30
0.0
10
400.0
20
-517.0
30
0.0
10
395.0
20
-518.0
30
0.0
10
390.0
20
-518.0
30
0.0
10
386.0
20
-519.0
30
0.0
10
381.0
20
-519.0
30
0.0
10
376.0
20
-520.0
30
0.0
10
371.0
20
-520.0
30
0.0
10
366.0
20
-520.0
30
0.0
10
362.0
20
-521.0
30
0.0
10
357.0
20
-521.0
30
0.0
10
352.0
20
-521.0
30
0.0
10
347.0
20
-521.0
30
0.0
10
342.0
20
-521.0
30
0.0
10
338.0
20
-522.0
30
0.0
10
333.0
20
-522.0
30
0.0
10
328.0
20
-522.0
30
0.0
10
323.0
20
-522.0
30
0.0
10
319.0
20
-522.0
30
0.0
10
314.0
20
-522.0
30
0.0
10
309.0
20
-522.0
30
0.0
10
305.0
20
-522.0
30
0.0
10
300.0
20
-522.0
30
0.0
10
295.0
20
-522.0
30
0.0
10
291.0
20
-522.0
30
0.0
10
286.0
20
-522.0
30
0.0
10
281.0
20
-522.0
30
0.0
10
276.0
20
-522.0
30
0.0
10
272.0
20
-522.0
30
0.0
10
267.0
20
-522.0
30
0.0
10
262.0
20
-522.0
30
0.0
10
258.0
20
-522.0
30
0.0
10
253.0
20
-522.0
30
0.0
10
248.0
20
-522.0
30
0.0
10
244.0
20
-522.0
30
0.0
10
239.0
20
-521.0
30
0.0
10
234.0
20
-521.0
30
0.0
10
229.0
20
-521.0
30
0.0
10
224.0
20
-521.0
30
0.0
10
219.0
20
-520.0
30
0.0
10
215.0
20
-520.0
30
0.0
10
210.0
20
-520.0
30
0.0
10
205.0
20
-519.0
30
0.0
10
200.0
20
-519.0
30
0.0
10
195.0
20
-518.0
30
0.0
10
190.0
20
-518.0
30
0.0
10
185.0
20
-517.0
30
0.0
10
180.0
20
-517.0
30
0.0
10
175.0
20
-516.0
30
0.0
10
170.0
20
-515.0
30
0.0
10
165.0
20
-515.0
30
0.0
10
160.0
20
-514.0
30
0.0
10
155.0
20
-513.0
30
0.0
10
151.0
20
-512.0
30
0.0
10
146.0
20
-511.0
30
0.0
10
141.0
20
-510.0
30
0.0
10
136.0
20
-510.0
30
0.0
10
132.0
20
-509.0
30
0.0
10
127.0
20
-508.0
30
0.0
10
122.0
20
-506.0
30
0.0
10
118.0
20
-505.0
30
0.0
10
113.0
20
-504.0
30
0.0
10
108.0
20
-503.0
30
0.0
10
104.0
20
-502.0
30
0.0
10
99.0
20
-501.0
30
0.0
10
94.0
20
-499.0
30
0.0
10
90.0
20
-498.0
30
0.0
10
85.0
20
-497.0
30
0.0
10
80.0
20
-495.0
30
0.0
10
76.0
20
-494.0
30
0.0
10
71.0
20
-492.0
30
0.0
10
67.0
20
-491.0
30
0.0
10
62.0
20
-489.0
30
0.0
10
57.0
20
-488.0
30
0.0
10
53.0
20
-486.0
30
0.0
10
48.0
20
-485.0
30
0.0
10
44.0
20
-483.0
30
0.0
10
39.0
20
-482.0
30
0.0
10
34.0
20
-480.0
30
0.0
10
30.0
20
-478.0
30
0.0
10
26.0
20
-477.0
30
0.0
10
22.0
20
-475.0
30
0.0
10
17.0
20
-474.0
30
0.0
10
13.0
20
-472.0
30
0.0
10
9.0
20
-470.0
30
0.0
10
6.0
20
-469.0
30
0.0
10
3.0
20
-468.0
30
0.0
10
1.0
20
-466.0
30
0.0
10
0.0
20
-463.0
30
0.0
10
0.0
20
-458.0
30
0.0
10
0.0
20
-453.0
30
0.0
10
1.0
20
-449.0
30
0.0
10
2.0
20
-444.0
30
0.0
10
3.0
20
-439.0
30
0.0
10
4.0
20
-435.0
30
0.0
10
5.0
20
-430.0
30
0.0
10
6.0
20
-425.0
30
0.0
10
6.0
20
-420.0
30
0.0
10
7.0
20
-415.0
30
0.0
10
8.0
20
-411.0
30
0.0
10
9.0
20
-406.0
30
0.0
10
10.0
20
-401.0
30
0.0
10
11.0
20
-396.0
30
0.0
10
11.0
20
-391.0
30
0.0
10
12.0
20
-387.0
30
0.0
10
13.0
20
-382.0
30
0.0
10
14.0
20
-377.0
30
0.0
10
15.0
20
-373.0
30
0.0
10
16.0
20
-368.0
30
0.0
10
16.0
20
-363.0
30
0.0
10
17.0
20
-359.0
30
0.0
10
18.0
20
-354.0
30
0.0
10
19.0
20
-349.0
30
0.0
10
20.0
20
-345.0
30
0.0
10
20.0
20
-340.0
30
0.0
10
21.0
20
-335.0
30
0.0
10
22.0
20
-330.0
30
0.0
10
23.0
20
-326.0
30
0.0
10
24.0
20
-321.0
30
0.0
10
24.0
20
-316.0
30
0.0
10
25.0
20
-312.0
30
0.0
10
26.0
20
-307.0
30
0.0
10
27.0
20
-302.0
30
0.0
10
28.0
20
-298.0
30
0.0
10
28.0
20
-293.0
30
0.0
10
29.0
20
-288.0
30
0.0
10
30.0
20
-284.0
30
0.0
10
31.0
20
-279.0
30
0.0
10
31.0
20
-274.0
30
0.0
10
32.0
20
-270.0
30
0.0
10
33.0
20
-265.0
30
0.0
10
34.0
20
-260.0
30
0.0
10
34.0
20
-256.0
30
0.0
10
35.0
20
-251.0
30
0.0
10
36.0
20
-246.0
30
0.0
10
37.0
20
-241.0
30
0.0
10
38.0
20
-237.0
30
0.0
10
38.0
20
-232.0
30
0.0
10
39.0
20
-227.0
30
0.0
10
40.0
20
-222.0
30
0.0
10
41.0
20
-217.0
30
0.0
10
42.0
20
-213.0
30
0.0
10
43.0
20
-208.0
30
0.0
10
43.0
20
-203.0
30
0.0
10
44.0
20
-198.0
30
0.0
10
45.0
20
-193.0
30
0.0
10
46.0
20
-189.0
30
0.0
10
47.0
20
-184.0
30
0.0
10
47.0
20
-179.0
30
0.0
10
48.0
20
-174.0
30
0.0
10
49.0
20
-169.0
30
0.0
10
50.0
20
-165.0
30
0.0
10
50.0
20
-160.0
30
0.0
10
51.0
20
-155.0
30
0.0
10
52.0
20
-151.0
30
0.0
10
52.0
20
-146.0
30
0.0
10
53.0
20
-141.0
30
0.0
10
54.0
20
-136.0
30
0.0
10
54.0
20
-132.0
30
0.0
10
55.0
20
-127.0
30
0.0
10
56.0
20
-122.0
30
0.0
10
56.0
20
-117.0
30
0.0
10
57.0
20
-112.0
30
0.0
10
57.0
20
-107.0
30
0.0
10
58.0
20
-102.0
30
0.0
10
58.0
20
-97.0
30
0.0
10
59.0
20
-92.0
30
0.0
10
59.0
20
-87.0
30
0.0
10
60.0
20
-82.0
30
0.0
10
60.0
20
-77.0
30
0.0
10
60.0
20
-73.0
30
0.0
10
61.0
20
-68.0
30
0.0
10
61.0
20
-63.0
30
0.0
10
62.0
20
-59.0
30
0.0
10
62.0
20
-54.0
30
0.0
10
62.0
20
-49.0
30
0.0
10
62.0
20
-45.0
30
0.0
10
63.0
20
-40.0
30
0.0
10
63.0
20
-35.0
30
0.0
10
63.0
20
-31.0
30
0.0
10
63.0
20
-26.0
30
0.0
10
63.0
20
-22.0
30
0.0
10
63.0
20
-17.0
30
0.0
10
63.0
20
-13.0
30
0.0
10
63.0
20
-9.0
30
0.0
10
63.0
20
-4.0
30
0.0
10
64.0
20
-2.0
30
0.0
10
65.0
20
0.0
30
0.0
10
67.0
20
0.0
30
0.0
10
69.0
20
0.0
30
0.0
10
504.0
20
0.0
30
0.0
6
Solid
370
35
62
0
0
ENDSEC
0
SECTION
2
OBJECTS
0
DICTIONARY
5
18d
330
0
100
AcDbDictionary
281
1
3
ACAD_GROUP
350
18e
0
DICTIONARY
5
18e
330
18d
100
AcDbDictionary
281
1
0
ENDSEC
0
EOF
