999

0
SECTION
2
HEADER
9
$ACADVER
1
AC1021
9
$HANDSEED
5
1aa
0
ENDSEC
0
SECTION
2
CLASSES
0
ENDSEC
0
SECTION
2
TABLES
0
TABLE
2
VPORT
5
192
100
AcDbSymbolTable
70
1
0
VPORT
5
191
100
AcDbSymbolTableRecord
100
AcDbViewportTableRecord
2
*ACTIVE
10
0
20
0
11
1
21
1
12
500.0
22
500.0
40
1000.0
70
0
0
ENDTAB
0
TABLE
2
LTYPE
5
193
100
AcDbSymbolTable
70
3
0
LTYPE
5
19b
100
AcDbSymbolTableRecord
100
AcDbLinetypeTableRecord
2
Solid
70
0
72
65
73
0
3

0
LTYPE
5
19c
100
AcDbSymbolTableRecord
100
AcDbLinetypeTableRecord
2
ByBlock
70
0
72
65
73
0
3

0
LTYPE
5
19d
100
AcDbSymbolTableRecord
100
AcDbLinetypeTableRecord
2
ByLayer
70
0
72
65
73
0
3

0
ENDTAB
0
TABLE
2
LAYER
5
194
100
AcDbSymbolTable
70
1
0
LAYER
5
19e
100
AcDbSymbolTableRecord
100
AcDbLayerTableRecord
2
0
70
0
390
0
0
ENDTAB
0
TABLE
2
STYLE
5
195
100
AcDbSymbolTable
70
0
0
ENDTAB
0
TABLE
2
VIEW
5
196
100
AcDbSymbolTable
70
0
0
ENDTAB
0
TABLE
2
UCS
5
197
100
AcDbSymbolTable
70
0
0
ENDTAB
0
TABLE
2
APPID
5
198
100
AcDbSymbolTable
70
1
0
APPID
5
19f
100
AcDbSymbolTableRecord
100
AcDbRegAppTableRecord
2
ACAD
70
0
0
ENDTAB
0
TABLE
2
DIMSTYLE
5
199
100
AcDbSymbolTable
70
0
100
AcDbDimStyleTable
71
1
0
ENDTAB
0
TABLE
2
BLOCK_RECORD
5
19a
100
AcDbSymbolTable
70
2
0
BLOCK_RECORD
5
1a0
100
AcDbSymbolTableRecord
100
AcDbBlockTableRecord
2
*Model_Space
70
0
280
1
281
0
0
BLOCK_RECORD
5
1a1
100
AcDbSymbolTableRecord
100
AcDbBlockTableRecord
2
*Paper_Space
70
0
280
1
281
0
0
ENDTAB
0
ENDSEC
0
SECTION
2
BLOCKS
0
BLOCK
5
1a2
100
AcDbEntity
100
AcDbBlockBegin
2
*Model_Space
70
0
10
0
20
0
30
0
3
*Model_Space
1

0
ENDBLK
5
1a3
100
AcDbEntity
100
AcDbBlockEnd
0
BLOCK
5
1a4
100
AcDbEntity
100
AcDbBlockBegin
2
*Paper_Space
70
0
10
0
20
0
30
0
3
*Paper_Space
1

0
ENDBLK
5
1a5
100
AcDbEntity
100
AcDbBlockEnd
0
ENDSEC
0
SECTION
2
ENTITIES
0
LWPOLYLINE
5
1a8
100
AcDbEntity
100
AcDbPolyline
90
374
70
1
10
53.0
20
0.0
30
0.0
10
57.0
20
0.0
30
0.0
10
62.0
20
0.0
30
0.0
10
66.0
20
0.0
30
0.0
10
71.0
20
0.0
30
0.0
10
75.0
20
0.0
30
0.0
10
80.0
20
0.0
30
0.0
10
84.0
20
0.0
30
0.0
10
89.0
20
0.0
30
0.0
10
94.0
20
0.0
30
0.0
10
99.0
20
0.0
30
0.0
10
103.0
20
0.0
30
0.0
10
108.0
20
0.0
30
0.0
10
113.0
20
0.0
30
0.0
10
118.0
20
0.0
30
0.0
10
123.0
20
0.0
30
0.0
10
128.0
20
0.0
30
0.0
10
132.0
20
0.0
30
0.0
10
137.0
20
0.0
30
0.0
10
142.0
20
0.0
30
0.0
10
147.0
20
0.0
30
0.0
10
152.0
20
0.0
30
0.0
10
156.0
20
0.0
30
0.0
10
161.0
20
0.0
30
0.0
10
166.0
20
0.0
30
0.0
10
171.0
20
0.0
30
0.0
10
176.0
20
0.0
30
0.0
10
180.0
20
0.0
30
0.0
10
185.0
20
0.0
30
0.0
10
190.0
20
0.0
30
0.0
10
195.0
20
0.0
30
0.0
10
199.0
20
0.0
30
0.0
10
204.0
20
0.0
30
0.0
10
209.0
20
0.0
30
0.0
10
214.0
20
0.0
30
0.0
10
218.0
20
0.0
30
0.0
10
223.0
20
0.0
30
0.0
10
228.0
20
0.0
30
0.0
10
233.0
20
0.0
30
0.0
10
238.0
20
0.0
30
0.0
10
242.0
20
0.0
30
0.0
10
247.0
20
0.0
30
0.0
10
252.0
20
0.0
30
0.0
10
257.0
20
0.0
30
0.0
10
262.0
20
0.0
30
0.0
10
266.0
20
0.0
30
0.0
10
271.0
20
0.0
30
0.0
10
276.0
20
0.0
30
0.0
10
281.0
20
0.0
30
0.0
10
286.0
20
0.0
30
0.0
10
291.0
20
0.0
30
0.0
10
296.0
20
0.0
30
0.0
10
301.0
20
0.0
30
0.0
10
306.0
20
0.0
30
0.0
10
311.0
20
0.0
30
0.0
10
316.0
20
0.0
30
0.0
10
321.0
20
0.0
30
0.0
10
326.0
20
0.0
30
0.0
10
331.0
20
0.0
30
0.0
10
335.0
20
0.0
30
0.0
10
340.0
20
0.0
30
0.0
10
345.0
20
0.0
30
0.0
10
350.0
20
0.0
30
0.0
10
355.0
20
0.0
30
0.0
10
360.0
20
0.0
30
0.0
10
365.0
20
0.0
30
0.0
10
370.0
20
0.0
30
0.0
10
375.0
20
0.0
30
0.0
10
380.0
20
0.0
30
0.0
10
385.0
20
0.0
30
0.0
10
390.0
20
0.0
30
0.0
10
395.0
20
0.0
30
0.0
10
399.0
20
0.0
30
0.0
10
404.0
20
0.0
30
0.0
10
409.0
20
0.0
30
0.0
10
414.0
20
0.0
30
0.0
10
419.0
20
0.0
30
0.0
10
424.0
20
0.0
30
0.0
10
429.0
20
0.0
30
0.0
10
434.0
20
-1.0
30
0.0
10
439.0
20
-1.0
30
0.0
10
444.0
20
-1.0
30
0.0
10
449.0
20
-2.0
30
0.0
10
452.0
20
-2.0
30
0.0
10
455.0
20
-3.0
30
0.0
10
457.0
20
-7.0
30
0.0
10
458.0
20
-12.0
30
0.0
10
459.0
20
-16.0
30
0.0
10
459.0
20
-20.0
30
0.0
10
460.0
20
-24.0
30
0.0
10
460.0
20
-28.0
30
0.0
10
461.0
20
-32.0
30
0.0
10
461.0
20
-37.0
30
0.0
10
462.0
20
-41.0
30
0.0
10
462.0
20
-46.0
30
0.0
10
463.0
20
-51.0
30
0.0
10
464.0
20
-56.0
30
0.0
10
464.0
20
-61.0
30
0.0
10
465.0
20
-65.0
30
0.0
10
465.0
20
-70.0
30
0.0
10
466.0
20
-75.0
30
0.0
10
466.0
20
-80.0
30
0.0
10
467.0
20
-85.0
30
0.0
10
467.0
20
-90.0
30
0.0
10
468.0
20
-95.0
30
0.0
10
468.0
20
-100.0
30
0.0
10
469.0
20
-105.0
30
0.0
10
469.0
20
-110.0
30
0.0
10
470.0
20
-115.0
30
0.0
10
470.0
20
-120.0
30
0.0
10
471.0
20
-124.0
30
0.0
10
471.0
20
-129.0
30
0.0
10
472.0
20
-134.0
30
0.0
10
472.0
20
-139.0
30
0.0
10
473.0
20
-144.0
30
0.0
10
473.0
20
-149.0
30
0.0
10
474.0
20
-154.0
30
0.0
10
474.0
20
-159.0
30
0.0
10
475.0
20
-164.0
30
0.0
10
475.0
20
-169.0
30
0.0
10
476.0
20
-174.0
30
0.0
10
476.0
20
-179.0
30
0.0
10
477.0
20
-184.0
30
0.0
10
477.0
20
-188.0
30
0.0
10
478.0
20
-193.0
30
0.0
10
478.0
20
-198.0
30
0.0
10
479.0
20
-203.0
30
0.0
10
479.0
20
-208.0
30
0.0
10
480.0
20
-213.0
30
0.0
10
480.0
20
-218.0
30
0.0
10
481.0
20
-223.0
30
0.0
10
481.0
20
-228.0
30
0.0
10
481.0
20
-233.0
30
0.0
10
482.0
20
-238.0
30
0.0
10
482.0
20
-243.0
30
0.0
10
483.0
20
-247.0
30
0.0
10
483.0
20
-252.0
30
0.0
10
484.0
20
-257.0
30
0.0
10
484.0
20
-262.0
30
0.0
10
485.0
20
-267.0
30
0.0
10
485.0
20
-272.0
30
0.0
10
486.0
20
-277.0
30
0.0
10
486.0
20
-282.0
30
0.0
10
487.0
20
-287.0
30
0.0
10
487.0
20
-291.0
30
0.0
10
488.0
20
-296.0
30
0.0
10
488.0
20
-301.0
30
0.0
10
488.0
20
-306.0
30
0.0
10
489.0
20
-311.0
30
0.0
10
489.0
20
-316.0
30
0.0
10
490.0
20
-321.0
30
0.0
10
490.0
20
-325.0
30
0.0
10
490.0
20
-330.0
30
0.0
10
491.0
20
-335.0
30
0.0
10
491.0
20
-340.0
30
0.0
10
491.0
20
-345.0
30
0.0
10
492.0
20
-350.0
30
0.0
10
492.0
20
-355.0
30
0.0
10
493.0
20
-359.0
30
0.0
10
493.0
20
-364.0
30
0.0
10
493.0
20
-369.0
30
0.0
10
494.0
20
-374.0
30
0.0
10
494.0
20
-379.0
30
0.0
10
494.0
20
-384.0
30
0.0
10
495.0
20
-388.0
30
0.0
10
495.0
20
-393.0
30
0.0
10
495.0
20
-398.0
30
0.0
10
496.0
20
-403.0
30
0.0
10
496.0
20
-408.0
30
0.0
10
496.0
20
-413.0
30
0.0
10
497.0
20
-418.0
30
0.0
10
497.0
20
-422.0
30
0.0
10
497.0
20
-427.0
30
0.0
10
497.0
20
-431.0
30
0.0
10
497.0
20
-434.0
30
0.0
10
494.0
20
-436.0
30
0.0
10
491.0
20
-436.0
30
0.0
10
488.0
20
-437.0
30
0.0
10
483.0
20
-438.0
30
0.0
10
479.0
20
-438.0
30
0.0
10
474.0
20
-439.0
30
0.0
10
469.0
20
-439.0
30
0.0
10
464.0
20
-440.0
30
0.0
10
459.0
20
-441.0
30
0.0
10
454.0
20
-441.0
30
0.0
10
449.0
20
-442.0
30
0.0
10
444.0
20
-442.0
30
0.0
10
440.0
20
-443.0
30
0.0
10
435.0
20
-443.0
30
0.0
10
430.0
20
-444.0
30
0.0
10
425.0
20
-444.0
30
0.0
10
420.0
20
-445.0
30
0.0
10
415.0
20
-445.0
30
0.0
10
410.0
20
-446.0
30
0.0
10
405.0
20
-446.0
30
0.0
10
401.0
20
-447.0
30
0.0
10
396.0
20
-447.0
30
0.0
10
391.0
20
-447.0
30
0.0
10
386.0
20
-448.0
30
0.0
10
381.0
20
-448.0
30
0.0
10
376.0
20
-449.0
30
0.0
10
372.0
20
-449.0
30
0.0
10
367.0
20
-449.0
30
0.0
10
362.0
20
-449.0
30
0.0
10
358.0
20
-450.0
30
0.0
10
353.0
20
-450.0
30
0.0
10
348.0
20
-450.0
30
0.0
10
344.0
20
-451.0
30
0.0
10
339.0
20
-451.0
30
0.0
10
334.0
20
-451.0
30
0.0
10
330.0
20
-451.0
30
0.0
10
325.0
20
-451.0
30
0.0
10
321.0
20
-452.0
30
0.0
10
316.0
20
-452.0
30
0.0
10
311.0
20
-452.0
30
0.0
10
306.0
20
-452.0
30
0.0
10
301.0
20
-452.0
30
0.0
10
296.0
20
-452.0
30
0.0
10
291.0
20
-452.0
30
0.0
10
286.0
20
-453.0
30
0.0
10
282.0
20
-453.0
30
0.0
10
277.0
20
-453.0
30
0.0
10
272.0
20
-453.0
30
0.0
10
267.0
20
-453.0
30
0.0
10
262.0
20
-453.0
30
0.0
10
257.0
20
-453.0
30
0.0
10
252.0
20
-453.0
30
0.0
10
247.0
20
-453.0
30
0.0
10
243.0
20
-453.0
30
0.0
10
238.0
20
-453.0
30
0.0
10
233.0
20
-453.0
30
0.0
10
228.0
20
-453.0
30
0.0
10
224.0
20
-453.0
30
0.0
10
219.0
20
-453.0
30
0.0
10
214.0
20
-453.0
30
0.0
10
210.0
20
-453.0
30
0.0
10
205.0
20
-453.0
30
0.0
10
200.0
20
-453.0
30
0.0
10
195.0
20
-453.0
30
0.0
10
191.0
20
-453.0
30
0.0
10
186.0
20
-453.0
30
0.0
10
181.0
20
-453.0
30
0.0
10
176.0
20
-453.0
30
0.0
10
172.0
20
-453.0
30
0.0
10
167.0
20
-453.0
30
0.0
10
162.0
20
-453.0
30
0.0
10
157.0
20
-452.0
30
0.0
10
152.0
20
-452.0
30
0.0
10
147.0
20
-452.0
30
0.0
10
142.0
20
-452.0
30
0.0
10
137.0
20
-452.0
30
0.0
10
132.0
20
-451.0
30
0.0
10
127.0
20
-451.0
30
0.0
10
122.0
20
-451.0
30
0.0
10
117.0
20
-451.0
30
0.0
10
112.0
20
-450.0
30
0.0
10
107.0
20
-450.0
30
0.0
10
102.0
20
-450.0
30
0.0
10
97.0
20
-449.0
30
0.0
10
92.0
20
-449.0
30
0.0
10
87.0
20
-449.0
30
0.0
10
83.0
20
-448.0
30
0.0
10
78.0
20
-448.0
30
0.0
10
73.0
20
-448.0
30
0.0
10
68.0
20
-447.0
30
0.0
10
63.0
20
-447.0
30
0.0
10
58.0
20
-446.0
30
0.0
10
53.0
20
-446.0
30
0.0
10
48.0
20
-445.0
30
0.0
10
44.0
20
-444.0
30
0.0
10
39.0
20
-444.0
30
0.0
10
35.0
20
-443.0
30
0.0
10
30.0
20
-442.0
30
0.0
10
26.0
20
-442.0
30
0.0
10
21.0
20
-441.0
30
0.0
10
17.0
20
-440.0
30
0.0
10
13.0
20
-440.0
30
0.0
10
9.0
20
-439.0
30
0.0
10
5.0
20
-438.0
30
0.0
10
1.0
20
-436.0
30
0.0
10
0.0
20
-432.0
30
0.0
10
0.0
20
-428.0
30
0.0
10
0.0
20
-423.0
30
0.0
10
0.0
20
-418.0
30
0.0
10
1.0
20
-413.0
30
0.0
10
1.0
20
-409.0
30
0.0
10
2.0
20
-404.0
30
0.0
10
2.0
20
-399.0
30
0.0
10
3.0
20
-394.0
30
0.0
10
3.0
20
-389.0
30
0.0
10
3.0
20
-384.0
30
0.0
10
4.0
20
-379.0
30
0.0
10
4.0
20
-374.0
30
0.0
10
5.0
20
-370.0
30
0.0
10
5.0
20
-365.0
30
0.0
10
5.0
20
-360.0
30
0.0
10
6.0
20
-355.0
30
0.0
10
6.0
20
-350.0
30
0.0
10
7.0
20
-345.0
30
0.0
10
7.0
20
-340.0
30
0.0
10
8.0
20
-335.0
30
0.0
10
8.0
20
-331.0
30
0.0
10
8.0
20
-326.0
30
0.0
10
9.0
20
-321.0
30
0.0
10
9.0
20
-316.0
30
0.0
10
10.0
20
-311.0
30
0.0
10
10.0
20
-307.0
30
0.0
10
10.0
20
-302.0
30
0.0
10
11.0
20
-297.0
30
0.0
10
11.0
20
-292.0
30
0.0
10
11.0
20
-287.0
30
0.0
10
12.0
20
-282.0
30
0.0
10
12.0
20
-278.0
30
0.0
10
13.0
20
-273.0
30
0.0
10
13.0
20
-268.0
30
0.0
10
13.0
20
-263.0
30
0.0
10
14.0
20
-258.0
30
0.0
10
14.0
20
-254.0
30
0.0
10
15.0
20
-249.0
30
0.0
10
15.0
20
-244.0
30
0.0
10
15.0
20
-239.0
30
0.0
10
16.0
20
-234.0
30
0.0
10
16.0
20
-230.0
30
0.0
10
17.0
20
-225.0
30
0.0
10
17.0
20
-220.0
30
0.0
10
18.0
20
-215.0
30
0.0
10
18.0
20
-210.0
30
0.0
10
18.0
20
-206.0
30
0.0
10
19.0
20
-201.0
30
0.0
10
19.0
20
-196.0
30
0.0
10
20.0
20
-191.0
30
0.0
10
20.0
20
-186.0
30
0.0
10
21.0
20
-182.0
30
0.0
10
21.0
20
-177.0
30
0.0
10
22.0
20
-172.0
30
0.0
10
22.0
20
-167.0
30
0.0
10
23.0
20
-162.0
30
0.0
10
23.0
20
-158.0
30
0.0
10
24.0
20
-153.0
30
0.0
10
24.0
20
-148.0
30
0.0
10
25.0
20
-143.0
30
0.0
10
25.0
20
-139.0
30
0.0
10
26.0
20
-134.0
30
0.0
10
26.0
20
-129.0
30
0.0
10
27.0
20
-124.0
30
0.0
10
27.0
20
-119.0
30
0.0
10
28.0
20
-114.0
30
0.0
10
28.0
20
-110.0
30
0.0
10
29.0
20
-105.0
30
0.0
10
29.0
20
-100.0
30
0.0
10
30.0
20
-95.0
30
0.0
10
30.0
20
-90.0
30
0.0
10
31.0
20
-86.0
30
0.0
10
31.0
20
-81.0
30
0.0
10
32.0
20
-76.0
30
0.0
10
32.0
20
-71.0
30
0.0
10
33.0
20
-66.0
30
0.0
10
33.0
20
-62.0
30
0.0
10
34.0
20
-57.0
30
0.0
10
34.0
20
-52.0
30
0.0
10
35.0
20
-47.0
30
0.0
10
35.0
20
-42.0
30
0.0
10
36.0
20
-37.0
30
0.0
10
36.0
20
-33.0
30
0.0
10
37.0
20
-28.0
30
0.0
10
37.0
20
-23.0
30
0.0
10
38.0
20
-18.0
30
0.0
10
38.0
20
-13.0
30
0.0
10
39.0
20
-9.0
30
0.0
10
40.0
20
-5.0
30
0.0
10
42.0
20
-2.0
30
0.0
10
44.0
20
-1.0
30
0.0
10
48.0
20
0.0
30
0.0
10
53.0
20
0.0
30
0.0
6
Solid
370
35
62
0
0
ENDSEC
0
SECTION
2
OBJECTS
0
DICTIONARY
5
1a6
330
0
100
AcDbDictionary
281
1
3
ACAD_GROUP
350
1a7
0
DICTIONARY
5
1a7
330
1a6
100
AcDbDictionary
281
1
0
ENDSEC
0
EOF
