999

0
SECTION
2
HEADER
9
$ACADVER
1
AC1021
9
$HANDSEED
5
2a9
0
ENDSEC
0
SECTION
2
CLASSES
0
ENDSEC
0
SECTION
2
TABLES
0
TABLE
2
VPORT
5
28e
100
AcDbSymbolTable
70
1
0
VPORT
5
28d
100
AcDbSymbolTableRecord
100
AcDbViewportTableRecord
2
*ACTIVE
10
0
20
0
11
1
21
1
12
500.0
22
500.0
40
1000.0
70
0
0
ENDTAB
0
TABLE
2
LTYPE
5
28f
100
AcDbSymbolTable
70
3
0
LTYPE
5
297
100
AcDbSymbolTableRecord
100
AcDbLinetypeTableRecord
2
Solid
70
0
72
65
73
0
3

0
LTYPE
5
298
100
AcDbSymbolTableRecord
100
AcDbLinetypeTableRecord
2
ByBlock
70
0
72
65
73
0
3

0
LTYPE
5
299
100
AcDbSymbolTableRecord
100
AcDbLinetypeTableRecord
2
ByLayer
70
0
72
65
73
0
3

0
ENDTAB
0
TABLE
2
LAYER
5
290
100
AcDbSymbolTable
70
2
0
LAYER
5
29a
100
AcDbSymbolTableRecord
100
AcDbLayerTableRecord
2
0
70
0
390
0
0
LAYER
5
2a6
100
AcDbSymbolTableRecord
100
AcDbLayerTableRecord
2
zone_0_q3
70
0
390
0
0
ENDTAB
0
TABLE
2
STYLE
5
291
100
AcDbSymbolTable
70
0
0
ENDTAB
0
TABLE
2
VIEW
5
292
100
AcDbSymbolTable
70
0
0
ENDTAB
0
TABLE
2
UCS
5
293
100
AcDbSymbolTable
70
0
0
ENDTAB
0
TABLE
2
APPID
5
294
100
AcDbSymbolTable
70
1
0
APPID
5
29b
100
AcDbSymbolTableRecord
100
AcDbRegAppTableRecord
2
ACAD
70
0
0
ENDTAB
0
TABLE
2
DIMSTYLE
5
295
100
AcDbSymbolTable
70
0
100
AcDbDimStyleTable
71
1
0
ENDTAB
0
TABLE
2
BLOCK_RECORD
5
296
100
AcDbSymbolTable
70
2
0
BLOCK_RECORD
5
29c
100
AcDbSymbolTableRecord
100
AcDbBlockTableRecord
2
*Model_Space
70
0
280
1
281
0
0
BLOCK_RECORD
5
29d
100
AcDbSymbolTableRecord
100
AcDbBlockTableRecord
2
*Paper_Space
70
0
280
1
281
0
0
ENDTAB
0
ENDSEC
0
SECTION
2
BLOCKS
0
BLOCK
5
29e
100
AcDbEntity
100
AcDbBlockBegin
2
*Model_Space
70
0
10
0
20
0
30
0
3
*Model_Space
1

0
ENDBLK
5
29f
100
AcDbEntity
100
AcDbBlockEnd
0
BLOCK
5
2a0
100
AcDbEntity
100
AcDbBlockBegin
2
*Paper_Space
70
0
10
0
20
0
30
0
3
*Paper_Space
1

0
ENDBLK
5
2a1
100
AcDbEntity
100
AcDbBlockEnd
0
ENDSEC
0
SECTION
2
ENTITIES
0
LWPOLYLINE
5
2a4
100
AcDbEntity
100
AcDbPolyline
90
139
70
1
10
44.0
20
-249.0
30
0.0
10
47.0
20
-248.0
30
0.0
10
48.0
20
-247.0
30
0.0
10
49.0
20
-243.0
30
0.0
10
50.0
20
-240.0
30
0.0
10
50.0
20
-236.0
30
0.0
10
58.0
20
-15.0
30
0.0
10
58.0
20
-11.0
30
0.0
10
58.0
20
-7.0
30
0.0
10
59.0
20
-3.0
30
0.0
10
61.0
20
-1.0
30
0.0
10
62.0
20
-1.0
30
0.0
10
279.0
20
0.0
30
0.0
10
281.0
20
0.0
30
0.0
10
283.0
20
-1.0
30
0.0
10
284.0
20
-3.0
30
0.0
10
285.0
20
-5.0
30
0.0
10
285.0
20
-812.0
30
0.0
10
13.0
20
-813.0
30
0.0
10
9.0
20
-813.0
30
0.0
10
6.0
20
-811.0
30
0.0
10
5.0
20
-807.0
30
0.0
10
5.0
20
-804.0
30
0.0
10
5.0
20
-799.0
30
0.0
10
5.0
20
-794.0
30
0.0
10
4.0
20
-789.0
30
0.0
10
4.0
20
-784.0
30
0.0
10
4.0
20
-780.0
30
0.0
10
4.0
20
-775.0
30
0.0
10
4.0
20
-770.0
30
0.0
10
4.0
20
-765.0
30
0.0
10
3.0
20
-760.0
30
0.0
10
3.0
20
-755.0
30
0.0
10
3.0
20
-751.0
30
0.0
10
3.0
20
-746.0
30
0.0
10
3.0
20
-741.0
30
0.0
10
3.0
20
-736.0
30
0.0
10
3.0
20
-731.0
30
0.0
10
2.0
20
-727.0
30
0.0
10
2.0
20
-722.0
30
0.0
10
2.0
20
-717.0
30
0.0
10
2.0
20
-712.0
30
0.0
10
2.0
20
-707.0
30
0.0
10
2.0
20
-702.0
30
0.0
10
2.0
20
-697.0
30
0.0
10
2.0
20
-693.0
30
0.0
10
2.0
20
-688.0
30
0.0
10
1.0
20
-683.0
30
0.0
10
1.0
20
-678.0
30
0.0
10
1.0
20
-673.0
30
0.0
10
1.0
20
-668.0
30
0.0
10
1.0
20
-663.0
30
0.0
10
1.0
20
-658.0
30
0.0
10
1.0
20
-653.0
30
0.0
10
1.0
20
-648.0
30
0.0
10
1.0
20
-643.0
30
0.0
10
1.0
20
-639.0
30
0.0
10
1.0
20
-634.0
30
0.0
10
0.0
20
-629.0
30
0.0
10
0.0
20
-624.0
30
0.0
10
0.0
20
-619.0
30
0.0
10
0.0
20
-614.0
30
0.0
10
0.0
20
-609.0
30
0.0
10
0.0
20
-604.0
30
0.0
10
0.0
20
-599.0
30
0.0
10
0.0
20
-594.0
30
0.0
10
0.0
20
-589.0
30
0.0
10
0.0
20
-585.0
30
0.0
10
0.0
20
-580.0
30
0.0
10
0.0
20
-575.0
30
0.0
10
0.0
20
-570.0
30
0.0
10
0.0
20
-565.0
30
0.0
10
0.0
20
-560.0
30
0.0
10
0.0
20
-555.0
30
0.0
10
0.0
20
-550.0
30
0.0
10
0.0
20
-545.0
30
0.0
10
0.0
20
-540.0
30
0.0
10
0.0
20
-535.0
30
0.0
10
0.0
20
-530.0
30
0.0
10
0.0
20
-525.0
30
0.0
10
0.0
20
-520.0
30
0.0
10
0.0
20
-515.0
30
0.0
10
0.0
20
-510.0
30
0.0
10
0.0
20
-505.0
30
0.0
10
0.0
20
-500.0
30
0.0
10
0.0
20
-495.0
30
0.0
10
0.0
20
-490.0
30
0.0
10
0.0
20
-485.0
30
0.0
10
0.0
20
-480.0
30
0.0
10
0.0
20
-475.0
30
0.0
10
0.0
20
-471.0
30
0.0
10
0.0
20
-466.0
30
0.0
10
0.0
20
-461.0
30
0.0
10
0.0
20
-456.0
30
0.0
10
0.0
20
-452.0
30
0.0
10
0.0
20
-447.0
30
0.0
10
0.0
20
-442.0
30
0.0
10
0.0
20
-437.0
30
0.0
10
0.0
20
-433.0
30
0.0
10
0.0
20
-428.0
30
0.0
10
0.0
20
-423.0
30
0.0
10
0.0
20
-418.0
30
0.0
10
0.0
20
-414.0
30
0.0
10
0.0
20
-409.0
30
0.0
10
0.0
20
-404.0
30
0.0
10
0.0
20
-400.0
30
0.0
10
0.0
20
-395.0
30
0.0
10
1.0
20
-390.0
30
0.0
10
1.0
20
-385.0
30
0.0
10
1.0
20
-380.0
30
0.0
10
1.0
20
-376.0
30
0.0
10
1.0
20
-371.0
30
0.0
10
1.0
20
-366.0
30
0.0
10
1.0
20
-361.0
30
0.0
10
1.0
20
-356.0
30
0.0
10
1.0
20
-351.0
30
0.0
10
2.0
20
-347.0
30
0.0
10
2.0
20
-342.0
30
0.0
10
2.0
20
-337.0
30
0.0
10
2.0
20
-332.0
30
0.0
10
2.0
20
-327.0
30
0.0
10
2.0
20
-323.0
30
0.0
10
2.0
20
-318.0
30
0.0
10
3.0
20
-313.0
30
0.0
10
3.0
20
-308.0
30
0.0
10
3.0
20
-304.0
30
0.0
10
3.0
20
-299.0
30
0.0
10
3.0
20
-294.0
30
0.0
10
3.0
20
-290.0
30
0.0
10
4.0
20
-285.0
30
0.0
10
4.0
20
-280.0
30
0.0
10
4.0
20
-275.0
30
0.0
10
4.0
20
-271.0
30
0.0
10
4.0
20
-266.0
30
0.0
10
5.0
20
-261.0
30
0.0
10
5.0
20
-257.0
30
0.0
10
5.0
20
-252.0
30
0.0
10
5.0
20
-247.0
30
0.0
10
44.0
20
-249.0
30
0.0
6
Solid
370
35
62
0
0
LWPOLYLINE
5
2a7
100
AcDbEntity
8
zone_0_q3
100
AcDbPolyline
90
49
70
1
10
285.0
20
-600.0
30
0.0
10
285.0
20
-812.0
30
0.0
10
13.0
20
-813.0
30
0.0
10
9.0
20
-813.0
30
0.0
10
6.0
20
-811.0
30
0.0
10
5.0
20
-807.0
30
0.0
10
5.0
20
-804.0
30
0.0
10
5.0
20
-799.0
30
0.0
10
5.0
20
-794.0
30
0.0
10
4.0
20
-789.0
30
0.0
10
4.0
20
-784.0
30
0.0
10
4.0
20
-780.0
30
0.0
10
4.0
20
-775.0
30
0.0
10
4.0
20
-770.0
30
0.0
10
4.0
20
-765.0
30
0.0
10
3.0
20
-760.0
30
0.0
10
3.0
20
-755.0
30
0.0
10
3.0
20
-751.0
30
0.0
10
3.0
20
-746.0
30
0.0
10
3.0
20
-741.0
30
0.0
10
3.0
20
-736.0
30
0.0
10
3.0
20
-731.0
30
0.0
10
2.0
20
-727.0
30
0.0
10
2.0
20
-722.0
30
0.0
10
2.0
20
-717.0
30
0.0
10
2.0
20
-712.0
30
0.0
10
2.0
20
-707.0
30
0.0
10
2.0
20
-702.0
30
0.0
10
2.0
20
-697.0
30
0.0
10
2.0
20
-693.0
30
0.0
10
2.0
20
-688.0
30
0.0
10
1.0
20
-683.0
30
0.0
10
1.0
20
-678.0
30
0.0
10
1.0
20
-673.0
30
0.0
10
1.0
20
-668.0
30
0.0
10
1.0
20
-663.0
30
0.0
10
1.0
20
-658.0
30
0.0
10
1.0
20
-653.0
30
0.0
10
1.0
20
-648.0
30
0.0
10
1.0
20
-643.0
30
0.0
10
1.0
20
-639.0
30
0.0
10
1.0
20
-634.0
30
0.0
10
0.0
20
-629.0
30
0.0
10
0.0
20
-624.0
30
0.0
10
0.0
20
-619.0
30
0.0
10
0.0
20
-609.0
30
0.0
10
0.0
20
-614.0
30
0.0
10
0.0
20
-599.0
30
0.0
10
285.0
20
-600.0
30
0.0
6
Solid
370
35
62
3
0
ENDSEC
0
SECTION
2
OBJECTS
0
DICTIONARY
5
2a2
330
0
100
AcDbDictionary
281
1
3
ACAD_GROUP
350
2a3
0
DICTIONARY
5
2a3
330
2a2
100
AcDbDictionary
281
1
0
ENDSEC
0
EOF
