999

0
SECTION
2
HEADER
9
$ACADVER
1
AC1021
9
$HANDSEED
5
2fa
0
ENDSEC
0
SECTION
2
CLASSES
0
ENDSEC
0
SECTION
2
TABLES
0
TABLE
2
VPORT
5
2dc
100
AcDbSymbolTable
70
1
0
VPORT
5
2db
100
AcDbSymbolTableRecord
100
AcDbViewportTableRecord
2
*ACTIVE
10
0
20
0
11
1
21
1
12
500.0
22
500.0
40
1000.0
70
0
0
ENDTAB
0
TABLE
2
LTYPE
5
2dd
100
AcDbSymbolTable
70
3
0
LTYPE
5
2e5
100
AcDbSymbolTableRecord
100
AcDbLinetypeTableRecord
2
Solid
70
0
72
65
73
0
3

0
LTYPE
5
2e6
100
AcDbSymbolTableRecord
100
AcDbLinetypeTableRecord
2
ByBlock
70
0
72
65
73
0
3

0
LTYPE
5
2e7
100
AcDbSymbolTableRecord
100
AcDbLinetypeTableRecord
2
ByLayer
70
0
72
65
73
0
3

0
ENDTAB
0
TABLE
2
LAYER
5
2de
100
AcDbSymbolTable
70
3
0
LAYER
5
2e8
100
AcDbSymbolTableRecord
100
AcDbLayerTableRecord
2
0
70
0
390
0
0
LAYER
5
2f4
100
AcDbSymbolTableRecord
100
AcDbLayerTableRecord
2
zone_0_q4
70
0
390
0
0
LAYER
5
2f7
100
AcDbSymbolTableRecord
100
AcDbLayerTableRecord
2
zone_1_q2
70
0
390
0
0
ENDTAB
0
TABLE
2
STYLE
5
2df
100
AcDbSymbolTable
70
0
0
ENDTAB
0
TABLE
2
VIEW
5
2e0
100
AcDbSymbolTable
70
0
0
ENDTAB
0
TABLE
2
UCS
5
2e1
100
AcDbSymbolTable
70
0
0
ENDTAB
0
TABLE
2
APPID
5
2e2
100
AcDbSymbolTable
70
1
0
APPID
5
2e9
100
AcDbSymbolTableRecord
100
AcDbRegAppTableRecord
2
ACAD
70
0
0
ENDTAB
0
TABLE
2
DIMSTYLE
5
2e3
100
AcDbSymbolTable
70
0
100
AcDbDimStyleTable
71
1
0
ENDTAB
0
TABLE
2
BLOCK_RECORD
5
2e4
100
AcDbSymbolTable
70
2
0
BLOCK_RECORD
5
2ea
100
AcDbSymbolTableRecord
100
AcDbBlockTableRecord
2
*Model_Space
70
0
280
1
281
0
0
BLOCK_RECORD
5
2eb
100
AcDbSymbolTableRecord
100
AcDbBlockTableRecord
2
*Paper_Space
70
0
280
1
281
0
0
ENDTAB
0
ENDSEC
0
SECTION
2
BLOCKS
0
BLOCK
5
2ec
100
AcDbEntity
100
AcDbBlockBegin
2
*Model_Space
70
0
10
0
20
0
30
0
3
*Model_Space
1

0
ENDBLK
5
2ed
100
AcDbEntity
100
AcDbBlockEnd
0
BLOCK
5
2ee
100
AcDbEntity
100
AcDbBlockBegin
2
*Paper_Space
70
0
10
0
20
0
30
0
3
*Paper_Space
1

0
ENDBLK
5
2ef
100
AcDbEntity
100
AcDbBlockEnd
0
ENDSEC
0
SECTION
2
ENTITIES
0
LWPOLYLINE
5
2f2
100
AcDbEntity
100
AcDbPolyline
90
232
70
1
10
107.0
20
-449.0
30
0.0
10
104.0
20
-448.0
30
0.0
10
101.0
20
-447.0
30
0.0
10
98.0
20
-445.0
30
0.0
10
96.0
20
-443.0
30
0.0
10
96.0
20
-440.0
30
0.0
10
96.0
20
-436.0
30
0.0
10
96.0
20
-431.0
30
0.0
10
95.0
20
-427.0
30
0.0
10
95.0
20
-423.0
30
0.0
10
95.0
20
-418.0
30
0.0
10
95.0
20
-413.0
30
0.0
10
95.0
20
-409.0
30
0.0
10
95.0
20
-404.0
30
0.0
10
95.0
20
-400.0
30
0.0
10
95.0
20
-395.0
30
0.0
10
95.0
20
-391.0
30
0.0
10
95.0
20
-386.0
30
0.0
10
95.0
20
-381.0
30
0.0
10
95.0
20
-376.0
30
0.0
10
94.0
20
-372.0
30
0.0
10
94.0
20
-367.0
30
0.0
10
94.0
20
-362.0
30
0.0
10
93.0
20
-357.0
30
0.0
10
93.0
20
-352.0
30
0.0
10
92.0
20
-348.0
30
0.0
10
92.0
20
-343.0
30
0.0
10
91.0
20
-338.0
30
0.0
10
91.0
20
-333.0
30
0.0
10
90.0
20
-328.0
30
0.0
10
90.0
20
-324.0
30
0.0
10
89.0
20
-319.0
30
0.0
10
88.0
20
-314.0
30
0.0
10
88.0
20
-310.0
30
0.0
10
87.0
20
-305.0
30
0.0
10
86.0
20
-301.0
30
0.0
10
85.0
20
-296.0
30
0.0
10
85.0
20
-291.0
30
0.0
10
84.0
20
-287.0
30
0.0
10
83.0
20
-282.0
30
0.0
10
82.0
20
-278.0
30
0.0
10
81.0
20
-273.0
30
0.0
10
80.0
20
-268.0
30
0.0
10
80.0
20
-264.0
30
0.0
10
79.0
20
-259.0
30
0.0
10
78.0
20
-254.0
30
0.0
10
77.0
20
-250.0
30
0.0
10
76.0
20
-245.0
30
0.0
10
75.0
20
-241.0
30
0.0
10
74.0
20
-236.0
30
0.0
10
73.0
20
-231.0
30
0.0
10
72.0
20
-227.0
30
0.0
10
71.0
20
-222.0
30
0.0
10
70.0
20
-217.0
30
0.0
10
69.0
20
-213.0
30
0.0
10
68.0
20
-208.0
30
0.0
10
67.0
20
-204.0
30
0.0
10
66.0
20
-199.0
30
0.0
10
65.0
20
-194.0
30
0.0
10
63.0
20
-190.0
30
0.0
10
62.0
20
-185.0
30
0.0
10
61.0
20
-181.0
30
0.0
10
60.0
20
-176.0
30
0.0
10
58.0
20
-172.0
30
0.0
10
57.0
20
-167.0
30
0.0
10
55.0
20
-163.0
30
0.0
10
54.0
20
-158.0
30
0.0
10
53.0
20
-154.0
30
0.0
10
51.0
20
-149.0
30
0.0
10
50.0
20
-145.0
30
0.0
10
48.0
20
-140.0
30
0.0
10
46.0
20
-136.0
30
0.0
10
45.0
20
-131.0
30
0.0
10
43.0
20
-127.0
30
0.0
10
41.0
20
-122.0
30
0.0
10
40.0
20
-117.0
30
0.0
10
38.0
20
-113.0
30
0.0
10
36.0
20
-108.0
30
0.0
10
35.0
20
-103.0
30
0.0
10
33.0
20
-99.0
30
0.0
10
31.0
20
-94.0
30
0.0
10
29.0
20
-89.0
30
0.0
10
28.0
20
-85.0
30
0.0
10
26.0
20
-80.0
30
0.0
10
24.0
20
-76.0
30
0.0
10
23.0
20
-71.0
30
0.0
10
21.0
20
-67.0
30
0.0
10
19.0
20
-63.0
30
0.0
10
18.0
20
-58.0
30
0.0
10
16.0
20
-54.0
30
0.0
10
15.0
20
-49.0
30
0.0
10
13.0
20
-45.0
30
0.0
10
11.0
20
-40.0
30
0.0
10
10.0
20
-36.0
30
0.0
10
8.0
20
-31.0
30
0.0
10
7.0
20
-28.0
30
0.0
10
5.0
20
-24.0
30
0.0
10
4.0
20
-20.0
30
0.0
10
3.0
20
-16.0
30
0.0
10
1.0
20
-12.0
30
0.0
10
0.0
20
-9.0
30
0.0
10
0.0
20
-6.0
30
0.0
10
0.0
20
-1.0
30
0.0
10
2.0
20
0.0
30
0.0
10
5.0
20
0.0
30
0.0
10
8.0
20
0.0
30
0.0
10
11.0
20
0.0
30
0.0
10
588.0
20
0.0
30
0.0
10
592.0
20
0.0
30
0.0
10
596.0
20
0.0
30
0.0
10
600.0
20
0.0
30
0.0
10
602.0
20
-2.0
30
0.0
10
603.0
20
-5.0
30
0.0
10
604.0
20
-8.0
30
0.0
10
605.0
20
-10.0
30
0.0
10
606.0
20
-15.0
30
0.0
10
608.0
20
-19.0
30
0.0
10
609.0
20
-24.0
30
0.0
10
611.0
20
-28.0
30
0.0
10
612.0
20
-32.0
30
0.0
10
613.0
20
-37.0
30
0.0
10
615.0
20
-41.0
30
0.0
10
616.0
20
-46.0
30
0.0
10
618.0
20
-50.0
30
0.0
10
619.0
20
-54.0
30
0.0
10
620.0
20
-59.0
30
0.0
10
622.0
20
-63.0
30
0.0
10
623.0
20
-68.0
30
0.0
10
624.0
20
-72.0
30
0.0
10
625.0
20
-77.0
30
0.0
10
627.0
20
-81.0
30
0.0
10
628.0
20
-86.0
30
0.0
10
629.0
20
-90.0
30
0.0
10
630.0
20
-95.0
30
0.0
10
631.0
20
-99.0
30
0.0
10
632.0
20
-104.0
30
0.0
10
633.0
20
-109.0
30
0.0
10
634.0
20
-113.0
30
0.0
10
635.0
20
-118.0
30
0.0
10
636.0
20
-122.0
30
0.0
10
637.0
20
-127.0
30
0.0
10
637.0
20
-132.0
30
0.0
10
638.0
20
-136.0
30
0.0
10
639.0
20
-141.0
30
0.0
10
640.0
20
-146.0
30
0.0
10
640.0
20
-150.0
30
0.0
10
641.0
20
-155.0
30
0.0
10
641.0
20
-160.0
30
0.0
10
642.0
20
-165.0
30
0.0
10
642.0
20
-169.0
30
0.0
10
643.0
20
-174.0
30
0.0
10
643.0
20
-179.0
30
0.0
10
644.0
20
-183.0
30
0.0
10
644.0
20
-188.0
30
0.0
10
644.0
20
-193.0
30
0.0
10
645.0
20
-198.0
30
0.0
10
645.0
20
-202.0
30
0.0
10
645.0
20
-207.0
30
0.0
10
645.0
20
-212.0
30
0.0
10
645.0
20
-217.0
30
0.0
10
646.0
20
-222.0
30
0.0
10
646.0
20
-227.0
30
0.0
10
646.0
20
-232.0
30
0.0
10
646.0
20
-237.0
30
0.0
10
646.0
20
-241.0
30
0.0
10
646.0
20
-246.0
30
0.0
10
646.0
20
-251.0
30
0.0
10
645.0
20
-256.0
30
0.0
10
645.0
20
-261.0
30
0.0
10
645.0
20
-266.0
30
0.0
10
645.0
20
-271.0
30
0.0
10
645.0
20
-276.0
30
0.0
10
644.0
20
-281.0
30
0.0
10
644.0
20
-286.0
30
0.0
10
644.0
20
-291.0
30
0.0
10
643.0
20
-295.0
30
0.0
10
643.0
20
-300.0
30
0.0
10
642.0
20
-305.0
30
0.0
10
642.0
20
-310.0
30
0.0
10
641.0
20
-314.0
30
0.0
10
640.0
20
-319.0
30
0.0
10
640.0
20
-324.0
30
0.0
10
639.0
20
-328.0
30
0.0
10
638.0
20
-333.0
30
0.0
10
638.0
20
-337.0
30
0.0
10
637.0
20
-342.0
30
0.0
10
636.0
20
-347.0
30
0.0
10
635.0
20
-351.0
30
0.0
10
634.0
20
-356.0
30
0.0
10
633.0
20
-361.0
30
0.0
10
632.0
20
-365.0
30
0.0
10
631.0
20
-370.0
30
0.0
10
630.0
20
-375.0
30
0.0
10
629.0
20
-379.0
30
0.0
10
628.0
20
-384.0
30
0.0
10
627.0
20
-389.0
30
0.0
10
626.0
20
-394.0
30
0.0
10
625.0
20
-398.0
30
0.0
10
623.0
20
-403.0
30
0.0
10
622.0
20
-408.0
30
0.0
10
621.0
20
-412.0
30
0.0
10
619.0
20
-417.0
30
0.0
10
618.0
20
-422.0
30
0.0
10
617.0
20
-426.0
30
0.0
10
615.0
20
-431.0
30
0.0
10
614.0
20
-436.0
30
0.0
10
613.0
20
-440.0
30
0.0
10
611.0
20
-445.0
30
0.0
10
610.0
20
-450.0
30
0.0
10
608.0
20
-455.0
30
0.0
10
607.0
20
-459.0
30
0.0
10
605.0
20
-464.0
30
0.0
10
604.0
20
-469.0
30
0.0
10
602.0
20
-473.0
30
0.0
10
601.0
20
-478.0
30
0.0
10
599.0
20
-483.0
30
0.0
10
597.0
20
-487.0
30
0.0
10
596.0
20
-492.0
30
0.0
10
594.0
20
-497.0
30
0.0
10
592.0
20
-501.0
30
0.0
10
590.0
20
-506.0
30
0.0
10
589.0
20
-510.0
30
0.0
10
587.0
20
-515.0
30
0.0
10
585.0
20
-519.0
30
0.0
10
583.0
20
-524.0
30
0.0
10
581.0
20
-528.0
30
0.0
10
579.0
20
-533.0
30
0.0
10
577.0
20
-537.0
30
0.0
10
575.0
20
-542.0
30
0.0
10
573.0
20
-546.0
30
0.0
10
571.0
20
-551.0
30
0.0
10
107.0
20
-449.0
30
0.0
6
Solid
370
35
62
40
0
LWPOLYLINE
5
2f5
100
AcDbEntity
8
zone_0_q4
100
AcDbPolyline
90
204
70
1
10
615.0
20
-41.0
30
0.0
10
616.0
20
-46.0
30
0.0
10
618.0
20
-50.0
30
0.0
10
619.0
20
-54.0
30
0.0
10
620.0
20
-59.0
30
0.0
10
622.0
20
-63.0
30
0.0
10
623.0
20
-68.0
30
0.0
10
624.0
20
-72.0
30
0.0
10
625.0
20
-77.0
30
0.0
10
627.0
20
-81.0
30
0.0
10
628.0
20
-86.0
30
0.0
10
629.0
20
-90.0
30
0.0
10
630.0
20
-95.0
30
0.0
10
631.0
20
-99.0
30
0.0
10
632.0
20
-104.0
30
0.0
10
633.0
20
-109.0
30
0.0
10
634.0
20
-113.0
30
0.0
10
635.0
20
-118.0
30
0.0
10
636.0
20
-122.0
30
0.0
10
637.0
20
-127.0
30
0.0
10
637.0
20
-132.0
30
0.0
10
638.0
20
-136.0
30
0.0
10
639.0
20
-141.0
30
0.0
10
640.0
20
-146.0
30
0.0
10
640.0
20
-150.0
30
0.0
10
641.0
20
-155.0
30
0.0
10
641.0
20
-160.0
30
0.0
10
642.0
20
-165.0
30
0.0
10
642.0
20
-169.0
30
0.0
10
643.0
20
-174.0
30
0.0
10
643.0
20
-179.0
30
0.0
10
644.0
20
-183.0
30
0.0
10
644.0
20
-188.0
30
0.0
10
644.0
20
-193.0
30
0.0
10
645.0
20
-198.0
30
0.0
10
645.0
20
-202.0
30
0.0
10
645.0
20
-207.0
30
0.0
10
645.0
20
-212.0
30
0.0
10
645.0
20
-217.0
30
0.0
10
646.0
20
-222.0
30
0.0
10
646.0
20
-227.0
30
0.0
10
646.0
20
-232.0
30
0.0
10
646.0
20
-237.0
30
0.0
10
646.0
20
-241.0
30
0.0
10
646.0
20
-246.0
30
0.0
10
646.0
20
-251.0
30
0.0
10
645.0
20
-256.0
30
0.0
10
645.0
20
-261.0
30
0.0
10
645.0
20
-266.0
30
0.0
10
645.0
20
-271.0
30
0.0
10
645.0
20
-276.0
30
0.0
10
644.0
20
-281.0
30
0.0
10
644.0
20
-286.0
30
0.0
10
644.0
20
-291.0
30
0.0
10
643.0
20
-295.0
30
0.0
10
643.0
20
-300.0
30
0.0
10
642.0
20
-305.0
30
0.0
10
642.0
20
-310.0
30
0.0
10
641.0
20
-314.0
30
0.0
10
640.0
20
-319.0
30
0.0
10
640.0
20
-324.0
30
0.0
10
639.0
20
-328.0
30
0.0
10
638.0
20
-333.0
30
0.0
10
638.0
20
-337.0
30
0.0
10
637.0
20
-342.0
30
0.0
10
636.0
20
-347.0
30
0.0
10
635.0
20
-351.0
30
0.0
10
634.0
20
-356.0
30
0.0
10
633.0
20
-361.0
30
0.0
10
632.0
20
-365.0
30
0.0
10
631.0
20
-370.0
30
0.0
10
630.0
20
-375.0
30
0.0
10
629.0
20
-379.0
30
0.0
10
628.0
20
-384.0
30
0.0
10
627.0
20
-389.0
30
0.0
10
626.0
20
-394.0
30
0.0
10
625.0
20
-398.0
30
0.0
10
623.0
20
-403.0
30
0.0
10
622.0
20
-408.0
30
0.0
10
621.0
20
-412.0
30
0.0
10
619.0
20
-417.0
30
0.0
10
618.0
20
-422.0
30
0.0
10
617.0
20
-426.0
30
0.0
10
615.0
20
-431.0
30
0.0
10
614.0
20
-436.0
30
0.0
10
613.0
20
-440.0
30
0.0
10
611.0
20
-445.0
30
0.0
10
610.0
20
-450.0
30
0.0
10
608.0
20
-455.0
30
0.0
10
607.0
20
-459.0
30
0.0
10
605.0
20
-464.0
30
0.0
10
604.0
20
-469.0
30
0.0
10
602.0
20
-473.0
30
0.0
10
601.0
20
-478.0
30
0.0
10
599.0
20
-483.0
30
0.0
10
597.0
20
-487.0
30
0.0
10
596.0
20
-492.0
30
0.0
10
594.0
20
-497.0
30
0.0
10
592.0
20
-501.0
30
0.0
10
590.0
20
-506.0
30
0.0
10
589.0
20
-510.0
30
0.0
10
587.0
20
-515.0
30
0.0
10
585.0
20
-519.0
30
0.0
10
583.0
20
-524.0
30
0.0
10
581.0
20
-528.0
30
0.0
10
579.0
20
-533.0
30
0.0
10
577.0
20
-537.0
30
0.0
10
575.0
20
-542.0
30
0.0
10
573.0
20
-546.0
30
0.0
10
571.0
20
-551.0
30
0.0
10
107.0
20
-449.0
30
0.0
10
104.0
20
-448.0
30
0.0
10
101.0
20
-447.0
30
0.0
10
98.0
20
-445.0
30
0.0
10
96.0
20
-443.0
30
0.0
10
96.0
20
-440.0
30
0.0
10
96.0
20
-436.0
30
0.0
10
96.0
20
-431.0
30
0.0
10
95.0
20
-427.0
30
0.0
10
95.0
20
-423.0
30
0.0
10
95.0
20
-418.0
30
0.0
10
95.0
20
-413.0
30
0.0
10
95.0
20
-409.0
30
0.0
10
95.0
20
-404.0
30
0.0
10
95.0
20
-400.0
30
0.0
10
95.0
20
-395.0
30
0.0
10
95.0
20
-391.0
30
0.0
10
95.0
20
-386.0
30
0.0
10
95.0
20
-381.0
30
0.0
10
95.0
20
-376.0
30
0.0
10
94.0
20
-372.0
30
0.0
10
94.0
20
-367.0
30
0.0
10
94.0
20
-362.0
30
0.0
10
93.0
20
-357.0
30
0.0
10
93.0
20
-352.0
30
0.0
10
92.0
20
-348.0
30
0.0
10
92.0
20
-343.0
30
0.0
10
91.0
20
-338.0
30
0.0
10
91.0
20
-333.0
30
0.0
10
90.0
20
-328.0
30
0.0
10
90.0
20
-324.0
30
0.0
10
89.0
20
-319.0
30
0.0
10
88.0
20
-314.0
30
0.0
10
88.0
20
-310.0
30
0.0
10
87.0
20
-305.0
30
0.0
10
86.0
20
-301.0
30
0.0
10
85.0
20
-296.0
30
0.0
10
85.0
20
-291.0
30
0.0
10
84.0
20
-287.0
30
0.0
10
83.0
20
-282.0
30
0.0
10
82.0
20
-278.0
30
0.0
10
81.0
20
-273.0
30
0.0
10
80.0
20
-268.0
30
0.0
10
80.0
20
-264.0
30
0.0
10
79.0
20
-259.0
30
0.0
10
78.0
20
-254.0
30
0.0
10
77.0
20
-250.0
30
0.0
10
76.0
20
-245.0
30
0.0
10
75.0
20
-241.0
30
0.0
10
74.0
20
-236.0
30
0.0
10
73.0
20
-231.0
30
0.0
10
72.0
20
-227.0
30
0.0
10
71.0
20
-222.0
30
0.0
10
70.0
20
-217.0
30
0.0
10
69.0
20
-213.0
30
0.0
10
68.0
20
-208.0
30
0.0
10
67.0
20
-204.0
30
0.0
10
66.0
20
-199.0
30
0.0
10
65.0
20
-194.0
30
0.0
10
63.0
20
-190.0
30
0.0
10
62.0
20
-185.0
30
0.0
10
61.0
20
-181.0
30
0.0
10
60.0
20
-176.0
30
0.0
10
58.0
20
-172.0
30
0.0
10
57.0
20
-167.0
30
0.0
10
55.0
20
-163.0
30
0.0
10
54.0
20
-158.0
30
0.0
10
53.0
20
-154.0
30
0.0
10
51.0
20
-149.0
30
0.0
10
50.0
20
-145.0
30
0.0
10
48.0
20
-140.0
30
0.0
10
46.0
20
-136.0
30
0.0
10
45.0
20
-131.0
30
0.0
10
43.0
20
-127.0
30
0.0
10
41.0
20
-122.0
30
0.0
10
40.0
20
-117.0
30
0.0
10
38.0
20
-113.0
30
0.0
10
36.0
20
-108.0
30
0.0
10
35.0
20
-103.0
30
0.0
10
33.0
20
-99.0
30
0.0
10
31.0
20
-94.0
30
0.0
10
29.0
20
-89.0
30
0.0
10
28.0
20
-85.0
30
0.0
10
26.0
20
-80.0
30
0.0
10
24.0
20
-76.0
30
0.0
10
23.0
20
-71.0
30
0.0
10
21.0
20
-67.0
30
0.0
10
19.0
20
-63.0
30
0.0
10
18.0
20
-58.0
30
0.0
10
16.0
20
-54.0
30
0.0
10
15.0
20
-49.0
30
0.0
10
13.0
20
-45.0
30
0.0
10
11.0
20
-40.0
30
0.0
10
615.0
20
-41.0
30
0.0
6
Solid
370
35
62
5
0
LWPOLYLINE
5
2f8
100
AcDbEntity
8
zone_1_q2
100
AcDbPolyline
90
111
70
0
10
590.0
20
-506.0
30
0.0
10
589.0
20
-510.0
30
0.0
10
587.0
20
-515.0
30
0.0
10
585.0
20
-519.0
30
0.0
10
583.0
20
-524.0
30
0.0
10
581.0
20
-528.0
30
0.0
10
579.0
20
-533.0
30
0.0
10
577.0
20
-537.0
30
0.0
10
575.0
20
-542.0
30
0.0
10
573.0
20
-546.0
30
0.0
10
571.0
20
-551.0
30
0.0
10
107.0
20
-449.0
30
0.0
10
104.0
20
-448.0
30
0.0
10
101.0
20
-447.0
30
0.0
10
98.0
20
-445.0
30
0.0
10
96.0
20
-443.0
30
0.0
10
96.0
20
-440.0
30
0.0
10
96.0
20
-436.0
30
0.0
10
96.0
20
-431.0
30
0.0
10
95.0
20
-427.0
30
0.0
10
95.0
20
-423.0
30
0.0
10
95.0
20
-418.0
30
0.0
10
95.0
20
-413.0
30
0.0
10
95.0
20
-409.0
30
0.0
10
95.0
20
-404.0
30
0.0
10
95.0
20
-400.0
30
0.0
10
95.0
20
-395.0
30
0.0
10
95.0
20
-391.0
30
0.0
10
95.0
20
-386.0
30
0.0
10
95.0
20
-381.0
30
0.0
10
95.0
20
-376.0
30
0.0
10
94.0
20
-372.0
30
0.0
10
94.0
20
-367.0
30
0.0
10
94.0
20
-362.0
30
0.0
10
93.0
20
-357.0
30
0.0
10
93.0
20
-352.0
30
0.0
10
92.0
20
-348.0
30
0.0
10
92.0
20
-343.0
30
0.0
10
91.0
20
-338.0
30
0.0
10
91.0
20
-333.0
30
0.0
10
90.0
20
-328.0
30
0.0
10
90.0
20
-324.0
30
0.0
10
89.0
20
-319.0
30
0.0
10
88.0
20
-314.0
30
0.0
10
88.0
20
-310.0
30
0.0
10
87.0
20
-305.0
30
0.0
10
86.0
20
-301.0
30
0.0
10
85.0
20
-296.0
30
0.0
10
85.0
20
-291.0
30
0.0
10
84.0
20
-287.0
30
0.0
10
83.0
20
-282.0
30
0.0
10
82.0
20
-278.0
30
0.0
10
81.0
20
-273.0
30
0.0
10
80.0
20
-268.0
30
0.0
10
80.0
20
-264.0
30
0.0
10
79.0
20
-259.0
30
0.0
10
78.0
20
-254.0
30
0.0
10
77.0
20
-250.0
30
0.0
10
76.0
20
-245.0
30
0.0
10
75.0
20
-241.0
30
0.0
10
74.0
20
-236.0
30
0.0
10
73.0
20
-231.0
30
0.0
10
72.0
20
-227.0
30
0.0
10
71.0
20
-222.0
30
0.0
10
70.0
20
-217.0
30
0.0
10
69.0
20
-213.0
30
0.0
10
68.0
20
-208.0
30
0.0
10
67.0
20
-204.0
30
0.0
10
66.0
20
-199.0
30
0.0
10
65.0
20
-194.0
30
0.0
10
63.0
20
-190.0
30
0.0
10
62.0
20
-185.0
30
0.0
10
61.0
20
-181.0
30
0.0
10
60.0
20
-176.0
30
0.0
10
58.0
20
-172.0
30
0.0
10
57.0
20
-167.0
30
0.0
10
55.0
20
-163.0
30
0.0
10
54.0
20
-158.0
30
0.0
10
53.0
20
-154.0
30
0.0
10
51.0
20
-149.0
30
0.0
10
50.0
20
-145.0
30
0.0
10
48.0
20
-140.0
30
0.0
10
46.0
20
-136.0
30
0.0
10
45.0
20
-131.0
30
0.0
10
43.0
20
-127.0
30
0.0
10
41.0
20
-122.0
30
0.0
10
40.0
20
-117.0
30
0.0
10
38.0
20
-113.0
30
0.0
10
36.0
20
-108.0
30
0.0
10
35.0
20
-103.0
30
0.0
10
33.0
20
-99.0
30
0.0
10
31.0
20
-94.0
30
0.0
10
29.0
20
-89.0
30
0.0
10
28.0
20
-85.0
30
0.0
10
26.0
20
-80.0
30
0.0
10
24.0
20
-76.0
30
0.0
10
23.0
20
-71.0
30
0.0
10
21.0
20
-67.0
30
0.0
10
19.0
20
-63.0
30
0.0
10
18.0
20
-58.0
30
0.0
10
16.0
20
-54.0
30
0.0
10
15.0
20
-49.0
30
0.0
10
13.0
20
-45.0
30
0.0
10
11.0
20
-40.0
30
0.0
10
80.0
20
-41.0
30
0.0
10
90.0
20
-60.0
30
0.0
10
110.0
20
-120.0
30
0.0
10
126.0
20
-165.0
30
0.0
10
160.0
20
-300.0
30
0.0
10
173.0
20
-410.0
30
0.0
10
591.0
20
-504.0
30
0.0
6
Solid
370
35
62
2
0
ENDSEC
0
SECTION
2
OBJECTS
0
DICTIONARY
5
2f0
330
0
100
AcDbDictionary
281
1
3
ACAD_GROUP
350
2f1
0
DICTIONARY
5
2f1
330
2f0
100
AcDbDictionary
281
1
0
ENDSEC
0
EOF
