999

0
SECTION
2
HEADER
9
$ACADVER
1
AC1021
9
$HANDSEED
5
319
0
ENDSEC
0
SECTION
2
CLASSES
0
ENDSEC
0
SECTION
2
TABLES
0
TABLE
2
VPORT
5
2fb
100
AcDbSymbolTable
70
1
0
VPORT
5
2fa
100
AcDbSymbolTableRecord
100
AcDbViewportTableRecord
2
*ACTIVE
10
0
20
0
11
1
21
1
12
500.0
22
500.0
40
1000.0
70
0
0
ENDTAB
0
TABLE
2
LTYPE
5
2fc
100
AcDbSymbolTable
70
3
0
LTYPE
5
304
100
AcDbSymbolTableRecord
100
AcDbLinetypeTableRecord
2
Solid
70
0
72
65
73
0
3

0
LTYPE
5
305
100
AcDbSymbolTableRecord
100
AcDbLinetypeTableRecord
2
ByBlock
70
0
72
65
73
0
3

0
LTYPE
5
306
100
AcDbSymbolTableRecord
100
AcDbLinetypeTableRecord
2
ByLayer
70
0
72
65
73
0
3

0
ENDTAB
0
TABLE
2
LAYER
5
2fd
100
AcDbSymbolTable
70
3
0
LAYER
5
307
100
AcDbSymbolTableRecord
100
AcDbLayerTableRecord
2
0
70
0
390
0
0
LAYER
5
313
100
AcDbSymbolTableRecord
100
AcDbLayerTableRecord
2
zone_0_q4
70
0
390
0
0
LAYER
5
316
100
AcDbSymbolTableRecord
100
AcDbLayerTableRecord
2
zone_1_q2
70
0
390
0
0
ENDTAB
0
TABLE
2
STYLE
5
2fe
100
AcDbSymbolTable
70
0
0
ENDTAB
0
TABLE
2
VIEW
5
2ff
100
AcDbSymbolTable
70
0
0
ENDTAB
0
TABLE
2
UCS
5
300
100
AcDbSymbolTable
70
0
0
ENDTAB
0
TABLE
2
APPID
5
301
100
AcDbSymbolTable
70
1
0
APPID
5
308
100
AcDbSymbolTableRecord
100
AcDbRegAppTableRecord
2
ACAD
70
0
0
ENDTAB
0
TABLE
2
DIMSTYLE
5
302
100
AcDbSymbolTable
70
0
100
AcDbDimStyleTable
71
1
0
ENDTAB
0
TABLE
2
BLOCK_RECORD
5
303
100
AcDbSymbolTable
70
2
0
BLOCK_RECORD
5
309
100
AcDbSymbolTableRecord
100
AcDbBlockTableRecord
2
*Model_Space
70
0
280
1
281
0
0
BLOCK_RECORD
5
30a
100
AcDbSymbolTableRecord
100
AcDbBlockTableRecord
2
*Paper_Space
70
0
280
1
281
0
0
ENDTAB
0
ENDSEC
0
SECTION
2
BLOCKS
0
BLOCK
5
30b
100
AcDbEntity
100
AcDbBlockBegin
2
*Model_Space
70
0
10
0
20
0
30
0
3
*Model_Space
1

0
ENDBLK
5
30c
100
AcDbEntity
100
AcDbBlockEnd
0
BLOCK
5
30d
100
AcDbEntity
100
AcDbBlockBegin
2
*Paper_Space
70
0
10
0
20
0
30
0
3
*Paper_Space
1

0
ENDBLK
5
30e
100
AcDbEntity
100
AcDbBlockEnd
0
ENDSEC
0
SECTION
2
ENTITIES
0
LWPOLYLINE
5
311
100
AcDbEntity
100
AcDbPolyline
90
470
70
1
10
279.0
20
-4.0
30
0.0
10
279.0
20
-9.0
30
0.0
10
279.0
20
-14.0
30
0.0
10
278.0
20
-19.0
30
0.0
10
278.0
20
-24.0
30
0.0
10
278.0
20
-29.0
30
0.0
10
278.0
20
-34.0
30
0.0
10
277.0
20
-39.0
30
0.0
10
277.0
20
-44.0
30
0.0
10
277.0
20
-49.0
30
0.0
10
277.0
20
-54.0
30
0.0
10
276.0
20
-59.0
30
0.0
10
276.0
20
-64.0
30
0.0
10
276.0
20
-69.0
30
0.0
10
276.0
20
-74.0
30
0.0
10
276.0
20
-78.0
30
0.0
10
275.0
20
-83.0
30
0.0
10
275.0
20
-88.0
30
0.0
10
275.0
20
-93.0
30
0.0
10
275.0
20
-98.0
30
0.0
10
275.0
20
-103.0
30
0.0
10
275.0
20
-107.0
30
0.0
10
275.0
20
-112.0
30
0.0
10
274.0
20
-117.0
30
0.0
10
274.0
20
-122.0
30
0.0
10
274.0
20
-127.0
30
0.0
10
274.0
20
-132.0
30
0.0
10
274.0
20
-136.0
30
0.0
10
274.0
20
-141.0
30
0.0
10
274.0
20
-146.0
30
0.0
10
274.0
20
-151.0
30
0.0
10
274.0
20
-156.0
30
0.0
10
273.0
20
-160.0
30
0.0
10
273.0
20
-165.0
30
0.0
10
273.0
20
-170.0
30
0.0
10
273.0
20
-175.0
30
0.0
10
273.0
20
-180.0
30
0.0
10
273.0
20
-184.0
30
0.0
10
273.0
20
-189.0
30
0.0
10
272.0
20
-194.0
30
0.0
10
272.0
20
-199.0
30
0.0
10
272.0
20
-204.0
30
0.0
10
272.0
20
-208.0
30
0.0
10
272.0
20
-213.0
30
0.0
10
272.0
20
-218.0
30
0.0
10
271.0
20
-223.0
30
0.0
10
271.0
20
-227.0
30
0.0
10
271.0
20
-232.0
30
0.0
10
271.0
20
-237.0
30
0.0
10
271.0
20
-242.0
30
0.0
10
271.0
20
-247.0
30
0.0
10
271.0
20
-251.0
30
0.0
10
271.0
20
-256.0
30
0.0
10
271.0
20
-261.0
30
0.0
10
270.0
20
-266.0
30
0.0
10
270.0
20
-270.0
30
0.0
10
270.0
20
-275.0
30
0.0
10
270.0
20
-280.0
30
0.0
10
270.0
20
-285.0
30
0.0
10
270.0
20
-290.0
30
0.0
10
270.0
20
-294.0
30
0.0
10
270.0
20
-299.0
30
0.0
10
270.0
20
-304.0
30
0.0
10
270.0
20
-309.0
30
0.0
10
270.0
20
-313.0
30
0.0
10
270.0
20
-318.0
30
0.0
10
270.0
20
-323.0
30
0.0
10
270.0
20
-328.0
30
0.0
10
270.0
20
-333.0
30
0.0
10
271.0
20
-338.0
30
0.0
10
271.0
20
-343.0
30
0.0
10
271.0
20
-348.0
30
0.0
10
271.0
20
-352.0
30
0.0
10
271.0
20
-357.0
30
0.0
10
271.0
20
-362.0
30
0.0
10
272.0
20
-367.0
30
0.0
10
272.0
20
-372.0
30
0.0
10
272.0
20
-377.0
30
0.0
10
272.0
20
-382.0
30
0.0
10
273.0
20
-387.0
30
0.0
10
273.0
20
-391.0
30
0.0
10
273.0
20
-396.0
30
0.0
10
273.0
20
-401.0
30
0.0
10
274.0
20
-406.0
30
0.0
10
274.0
20
-411.0
30
0.0
10
274.0
20
-416.0
30
0.0
10
275.0
20
-421.0
30
0.0
10
275.0
20
-426.0
30
0.0
10
275.0
20
-431.0
30
0.0
10
276.0
20
-436.0
30
0.0
10
276.0
20
-440.0
30
0.0
10
277.0
20
-445.0
30
0.0
10
277.0
20
-450.0
30
0.0
10
278.0
20
-455.0
30
0.0
10
278.0
20
-460.0
30
0.0
10
279.0
20
-465.0
30
0.0
10
279.0
20
-470.0
30
0.0
10
280.0
20
-475.0
30
0.0
10
280.0
20
-479.0
30
0.0
10
281.0
20
-484.0
30
0.0
10
282.0
20
-489.0
30
0.0
10
282.0
20
-494.0
30
0.0
10
283.0
20
-499.0
30
0.0
10
284.0
20
-503.0
30
0.0
10
284.0
20
-508.0
30
0.0
10
285.0
20
-513.0
30
0.0
10
286.0
20
-518.0
30
0.0
10
287.0
20
-522.0
30
0.0
10
288.0
20
-527.0
30
0.0
10
288.0
20
-532.0
30
0.0
10
289.0
20
-537.0
30
0.0
10
290.0
20
-541.0
30
0.0
10
291.0
20
-546.0
30
0.0
10
292.0
20
-550.0
30
0.0
10
293.0
20
-555.0
30
0.0
10
294.0
20
-560.0
30
0.0
10
295.0
20
-564.0
30
0.0
10
296.0
20
-569.0
30
0.0
10
297.0
20
-573.0
30
0.0
10
298.0
20
-578.0
30
0.0
10
299.0
20
-582.0
30
0.0
10
300.0
20
-587.0
30
0.0
10
301.0
20
-591.0
30
0.0
10
302.0
20
-596.0
30
0.0
10
303.0
20
-601.0
30
0.0
10
304.0
20
-605.0
30
0.0
10
305.0
20
-610.0
30
0.0
10
306.0
20
-615.0
30
0.0
10
307.0
20
-620.0
30
0.0
10
308.0
20
-624.0
30
0.0
10
309.0
20
-629.0
30
0.0
10
310.0
20
-634.0
30
0.0
10
311.0
20
-639.0
30
0.0
10
312.0
20
-643.0
30
0.0
10
313.0
20
-648.0
30
0.0
10
314.0
20
-653.0
30
0.0
10
315.0
20
-658.0
30
0.0
10
316.0
20
-662.0
30
0.0
10
317.0
20
-667.0
30
0.0
10
318.0
20
-672.0
30
0.0
10
319.0
20
-676.0
30
0.0
10
320.0
20
-681.0
30
0.0
10
321.0
20
-685.0
30
0.0
10
323.0
20
-690.0
30
0.0
10
324.0
20
-694.0
30
0.0
10
325.0
20
-699.0
30
0.0
10
326.0
20
-703.0
30
0.0
10
327.0
20
-708.0
30
0.0
10
328.0
20
-712.0
30
0.0
10
329.0
20
-716.0
30
0.0
10
330.0
20
-720.0
30
0.0
10
331.0
20
-724.0
30
0.0
10
332.0
20
-728.0
30
0.0
10
326.0
20
-728.0
30
0.0
10
327.0
20
-733.0
30
0.0
10
327.0
20
-738.0
30
0.0
10
328.0
20
-743.0
30
0.0
10
329.0
20
-748.0
30
0.0
10
330.0
20
-753.0
30
0.0
10
331.0
20
-757.0
30
0.0
10
332.0
20
-762.0
30
0.0
10
333.0
20
-767.0
30
0.0
10
333.0
20
-771.0
30
0.0
10
334.0
20
-776.0
30
0.0
10
335.0
20
-780.0
30
0.0
10
336.0
20
-785.0
30
0.0
10
337.0
20
-789.0
30
0.0
10
337.0
20
-794.0
30
0.0
10
338.0
20
-799.0
30
0.0
10
339.0
20
-804.0
30
0.0
10
340.0
20
-808.0
30
0.0
10
340.0
20
-813.0
30
0.0
10
340.0
20
-816.0
30
0.0
10
340.0
20
-819.0
30
0.0
10
340.0
20
-824.0
30
0.0
10
339.0
20
-826.0
30
0.0
10
338.0
20
-828.0
30
0.0
10
335.0
20
-829.0
30
0.0
10
331.0
20
-831.0
30
0.0
10
328.0
20
-832.0
30
0.0
10
324.0
20
-833.0
30
0.0
10
320.0
20
-834.0
30
0.0
10
315.0
20
-835.0
30
0.0
10
310.0
20
-835.0
30
0.0
10
306.0
20
-836.0
30
0.0
10
301.0
20
-837.0
30
0.0
10
296.0
20
-838.0
30
0.0
10
291.0
20
-838.0
30
0.0
10
287.0
20
-839.0
30
0.0
10
282.0
20
-839.0
30
0.0
10
277.0
20
-840.0
30
0.0
10
273.0
20
-840.0
30
0.0
10
268.0
20
-841.0
30
0.0
10
263.0
20
-841.0
30
0.0
10
259.0
20
-842.0
30
0.0
10
254.0
20
-842.0
30
0.0
10
249.0
20
-843.0
30
0.0
10
244.0
20
-843.0
30
0.0
10
240.0
20
-844.0
30
0.0
10
235.0
20
-844.0
30
0.0
10
230.0
20
-844.0
30
0.0
10
226.0
20
-845.0
30
0.0
10
221.0
20
-845.0
30
0.0
10
216.0
20
-846.0
30
0.0
10
211.0
20
-846.0
30
0.0
10
207.0
20
-847.0
30
0.0
10
202.0
20
-847.0
30
0.0
10
197.0
20
-847.0
30
0.0
10
192.0
20
-848.0
30
0.0
10
188.0
20
-848.0
30
0.0
10
183.0
20
-848.0
30
0.0
10
178.0
20
-849.0
30
0.0
10
173.0
20
-849.0
30
0.0
10
168.0
20
-850.0
30
0.0
10
163.0
20
-850.0
30
0.0
10
158.0
20
-850.0
30
0.0
10
153.0
20
-851.0
30
0.0
10
148.0
20
-851.0
30
0.0
10
144.0
20
-851.0
30
0.0
10
139.0
20
-851.0
30
0.0
10
134.0
20
-852.0
30
0.0
10
129.0
20
-852.0
30
0.0
10
124.0
20
-852.0
30
0.0
10
119.0
20
-852.0
30
0.0
10
114.0
20
-852.0
30
0.0
10
110.0
20
-852.0
30
0.0
10
105.0
20
-852.0
30
0.0
10
100.0
20
-852.0
30
0.0
10
95.0
20
-852.0
30
0.0
10
90.0
20
-852.0
30
0.0
10
85.0
20
-852.0
30
0.0
10
80.0
20
-852.0
30
0.0
10
76.0
20
-852.0
30
0.0
10
71.0
20
-852.0
30
0.0
10
66.0
20
-852.0
30
0.0
10
61.0
20
-852.0
30
0.0
10
57.0
20
-852.0
30
0.0
10
52.0
20
-852.0
30
0.0
10
47.0
20
-852.0
30
0.0
10
42.0
20
-852.0
30
0.0
10
38.0
20
-852.0
30
0.0
10
34.0
20
-852.0
30
0.0
10
30.0
20
-851.0
30
0.0
10
26.0
20
-851.0
30
0.0
10
22.0
20
-850.0
30
0.0
10
18.0
20
-849.0
30
0.0
10
17.0
20
-845.0
30
0.0
10
15.0
20
-842.0
30
0.0
10
14.0
20
-838.0
30
0.0
10
14.0
20
-834.0
30
0.0
10
13.0
20
-830.0
30
0.0
10
12.0
20
-826.0
30
0.0
10
11.0
20
-822.0
30
0.0
10
11.0
20
-817.0
30
0.0
10
10.0
20
-813.0
30
0.0
10
9.0
20
-808.0
30
0.0
10
9.0
20
-804.0
30
0.0
10
8.0
20
-800.0
30
0.0
10
8.0
20
-795.0
30
0.0
10
7.0
20
-791.0
30
0.0
10
7.0
20
-786.0
30
0.0
10
7.0
20
-782.0
30
0.0
10
6.0
20
-777.0
30
0.0
10
6.0
20
-772.0
30
0.0
10
6.0
20
-767.0
30
0.0
10
5.0
20
-762.0
30
0.0
10
5.0
20
-758.0
30
0.0
10
5.0
20
-753.0
30
0.0
10
4.0
20
-748.0
30
0.0
10
4.0
20
-743.0
30
0.0
10
4.0
20
-738.0
30
0.0
10
4.0
20
-734.0
30
0.0
10
3.0
20
-729.0
30
0.0
10
3.0
20
-724.0
30
0.0
10
3.0
20
-719.0
30
0.0
10
3.0
20
-715.0
30
0.0
10
2.0
20
-710.0
30
0.0
10
2.0
20
-705.0
30
0.0
10
2.0
20
-700.0
30
0.0
10
2.0
20
-695.0
30
0.0
10
1.0
20
-690.0
30
0.0
10
1.0
20
-686.0
30
0.0
10
1.0
20
-681.0
30
0.0
10
1.0
20
-676.0
30
0.0
10
1.0
20
-671.0
30
0.0
10
1.0
20
-666.0
30
0.0
10
0.0
20
-661.0
30
0.0
10
0.0
20
-657.0
30
0.0
10
0.0
20
-652.0
30
0.0
10
0.0
20
-647.0
30
0.0
10
0.0
20
-642.0
30
0.0
10
0.0
20
-637.0
30
0.0
10
0.0
20
-633.0
30
0.0
10
0.0
20
-628.0
30
0.0
10
0.0
20
-623.0
30
0.0
10
0.0
20
-618.0
30
0.0
10
0.0
20
-613.0
30
0.0
10
0.0
20
-608.0
30
0.0
10
0.0
20
-603.0
30
0.0
10
0.0
20
-598.0
30
0.0
10
0.0
20
-593.0
30
0.0
10
0.0
20
-588.0
30
0.0
10
0.0
20
-583.0
30
0.0
10
0.0
20
-578.0
30
0.0
10
0.0
20
-574.0
30
0.0
10
0.0
20
-569.0
30
0.0
10
1.0
20
-564.0
30
0.0
10
1.0
20
-559.0
30
0.0
10
1.0
20
-554.0
30
0.0
10
1.0
20
-549.0
30
0.0
10
2.0
20
-544.0
30
0.0
10
2.0
20
-539.0
30
0.0
10
2.0
20
-534.0
30
0.0
10
3.0
20
-530.0
30
0.0
10
3.0
20
-525.0
30
0.0
10
4.0
20
-520.0
30
0.0
10
4.0
20
-516.0
30
0.0
10
5.0
20
-511.0
30
0.0
10
5.0
20
-506.0
30
0.0
10
6.0
20
-502.0
30
0.0
10
6.0
20
-497.0
30
0.0
10
7.0
20
-492.0
30
0.0
10
7.0
20
-488.0
30
0.0
10
8.0
20
-483.0
30
0.0
10
8.0
20
-479.0
30
0.0
10
9.0
20
-474.0
30
0.0
10
10.0
20
-469.0
30
0.0
10
10.0
20
-465.0
30
0.0
10
11.0
20
-460.0
30
0.0
10
11.0
20
-455.0
30
0.0
10
12.0
20
-451.0
30
0.0
10
13.0
20
-446.0
30
0.0
10
13.0
20
-441.0
30
0.0
10
14.0
20
-437.0
30
0.0
10
15.0
20
-432.0
30
0.0
10
15.0
20
-427.0
30
0.0
10
16.0
20
-423.0
30
0.0
10
17.0
20
-418.0
30
0.0
10
17.0
20
-413.0
30
0.0
10
18.0
20
-409.0
30
0.0
10
19.0
20
-404.0
30
0.0
10
19.0
20
-399.0
30
0.0
10
20.0
20
-394.0
30
0.0
10
21.0
20
-390.0
30
0.0
10
21.0
20
-385.0
30
0.0
10
22.0
20
-380.0
30
0.0
10
23.0
20
-375.0
30
0.0
10
23.0
20
-371.0
30
0.0
10
24.0
20
-366.0
30
0.0
10
25.0
20
-361.0
30
0.0
10
25.0
20
-357.0
30
0.0
10
26.0
20
-352.0
30
0.0
10
27.0
20
-347.0
30
0.0
10
28.0
20
-342.0
30
0.0
10
28.0
20
-338.0
30
0.0
10
29.0
20
-333.0
30
0.0
10
30.0
20
-328.0
30
0.0
10
30.0
20
-323.0
30
0.0
10
31.0
20
-319.0
30
0.0
10
32.0
20
-314.0
30
0.0
10
32.0
20
-309.0
30
0.0
10
33.0
20
-304.0
30
0.0
10
34.0
20
-299.0
30
0.0
10
35.0
20
-294.0
30
0.0
10
35.0
20
-289.0
30
0.0
10
36.0
20
-285.0
30
0.0
10
37.0
20
-280.0
30
0.0
10
37.0
20
-275.0
30
0.0
10
38.0
20
-270.0
30
0.0
10
39.0
20
-265.0
30
0.0
10
40.0
20
-260.0
30
0.0
10
40.0
20
-256.0
30
0.0
10
41.0
20
-251.0
30
0.0
10
42.0
20
-246.0
30
0.0
10
43.0
20
-241.0
30
0.0
10
43.0
20
-236.0
30
0.0
10
44.0
20
-231.0
30
0.0
10
45.0
20
-227.0
30
0.0
10
46.0
20
-222.0
30
0.0
10
47.0
20
-217.0
30
0.0
10
48.0
20
-212.0
30
0.0
10
48.0
20
-207.0
30
0.0
10
49.0
20
-202.0
30
0.0
10
50.0
20
-197.0
30
0.0
10
51.0
20
-192.0
30
0.0
10
52.0
20
-187.0
30
0.0
10
53.0
20
-182.0
30
0.0
10
54.0
20
-178.0
30
0.0
10
54.0
20
-173.0
30
0.0
10
55.0
20
-168.0
30
0.0
10
56.0
20
-163.0
30
0.0
10
57.0
20
-158.0
30
0.0
10
57.0
20
-153.0
30
0.0
10
58.0
20
-148.0
30
0.0
10
59.0
20
-143.0
30
0.0
10
59.0
20
-138.0
30
0.0
10
60.0
20
-133.0
30
0.0
10
61.0
20
-128.0
30
0.0
10
61.0
20
-123.0
30
0.0
10
62.0
20
-118.0
30
0.0
10
62.0
20
-114.0
30
0.0
10
63.0
20
-109.0
30
0.0
10
64.0
20
-104.0
30
0.0
10
64.0
20
-99.0
30
0.0
10
65.0
20
-94.0
30
0.0
10
66.0
20
-89.0
30
0.0
10
66.0
20
-85.0
30
0.0
10
67.0
20
-80.0
30
0.0
10
67.0
20
-75.0
30
0.0
10
68.0
20
-70.0
30
0.0
10
69.0
20
-65.0
30
0.0
10
69.0
20
-60.0
30
0.0
10
70.0
20
-56.0
30
0.0
10
71.0
20
-51.0
30
0.0
10
71.0
20
-46.0
30
0.0
10
72.0
20
-41.0
30
0.0
10
73.0
20
-36.0
30
0.0
10
73.0
20
-32.0
30
0.0
10
74.0
20
-27.0
30
0.0
10
75.0
20
-23.0
30
0.0
10
75.0
20
-18.0
30
0.0
10
76.0
20
-15.0
30
0.0
10
77.0
20
-13.0
30
0.0
10
77.0
20
-9.0
30
0.0
10
79.0
20
-6.0
30
0.0
10
81.0
20
-5.0
30
0.0
10
84.0
20
-5.0
30
0.0
10
87.0
20
-5.0
30
0.0
10
91.0
20
-5.0
30
0.0
10
94.0
20
-5.0
30
0.0
10
99.0
20
-5.0
30
0.0
10
103.0
20
-5.0
30
0.0
10
108.0
20
-5.0
30
0.0
10
113.0
20
-4.0
30
0.0
10
117.0
20
-4.0
30
0.0
10
122.0
20
-4.0
30
0.0
10
127.0
20
-4.0
30
0.0
10
131.0
20
-4.0
30
0.0
10
136.0
20
-4.0
30
0.0
10
141.0
20
-4.0
30
0.0
10
146.0
20
-3.0
30
0.0
10
151.0
20
-3.0
30
0.0
10
156.0
20
-3.0
30
0.0
10
160.0
20
-3.0
30
0.0
10
165.0
20
-2.0
30
0.0
10
170.0
20
-2.0
30
0.0
10
175.0
20
-2.0
30
0.0
10
180.0
20
-2.0
30
0.0
10
184.0
20
-1.0
30
0.0
10
189.0
20
-1.0
30
0.0
10
194.0
20
-1.0
30
0.0
10
199.0
20
-1.0
30
0.0
10
204.0
20
-1.0
30
0.0
10
209.0
20
-1.0
30
0.0
10
214.0
20
-1.0
30
0.0
10
219.0
20
-1.0
30
0.0
10
224.0
20
0.0
30
0.0
10
229.0
20
0.0
30
0.0
10
234.0
20
0.0
30
0.0
10
239.0
20
0.0
30
0.0
10
243.0
20
0.0
30
0.0
10
248.0
20
0.0
30
0.0
10
252.0
20
0.0
30
0.0
10
257.0
20
0.0
30
0.0
10
261.0
20
0.0
30
0.0
10
266.0
20
0.0
30
0.0
10
270.0
20
0.0
30
0.0
10
275.0
20
0.0
30
0.0
10
279.0
20
0.0
30
0.0
10
279.0
20
-4.0
30
0.0
6
Solid
370
35
62
40
0
LWPOLYLINE
5
314
100
AcDbEntity
8
zone_0_q4
100
AcDbPolyline
90
410
70
1
10
278.0
20
-34.0
30
0.0
10
277.0
20
-39.0
30
0.0
10
277.0
20
-44.0
30
0.0
10
277.0
20
-49.0
30
0.0
10
277.0
20
-54.0
30
0.0
10
276.0
20
-59.0
30
0.0
10
276.0
20
-64.0
30
0.0
10
276.0
20
-69.0
30
0.0
10
276.0
20
-74.0
30
0.0
10
276.0
20
-78.0
30
0.0
10
275.0
20
-83.0
30
0.0
10
275.0
20
-88.0
30
0.0
10
275.0
20
-93.0
30
0.0
10
275.0
20
-98.0
30
0.0
10
275.0
20
-103.0
30
0.0
10
275.0
20
-107.0
30
0.0
10
275.0
20
-112.0
30
0.0
10
274.0
20
-117.0
30
0.0
10
274.0
20
-122.0
30
0.0
10
274.0
20
-127.0
30
0.0
10
274.0
20
-132.0
30
0.0
10
274.0
20
-136.0
30
0.0
10
274.0
20
-141.0
30
0.0
10
274.0
20
-146.0
30
0.0
10
274.0
20
-151.0
30
0.0
10
274.0
20
-156.0
30
0.0
10
273.0
20
-160.0
30
0.0
10
273.0
20
-165.0
30
0.0
10
273.0
20
-170.0
30
0.0
10
273.0
20
-175.0
30
0.0
10
273.0
20
-180.0
30
0.0
10
273.0
20
-184.0
30
0.0
10
273.0
20
-189.0
30
0.0
10
272.0
20
-194.0
30
0.0
10
272.0
20
-199.0
30
0.0
10
272.0
20
-204.0
30
0.0
10
272.0
20
-208.0
30
0.0
10
272.0
20
-213.0
30
0.0
10
272.0
20
-218.0
30
0.0
10
271.0
20
-223.0
30
0.0
10
271.0
20
-227.0
30
0.0
10
271.0
20
-232.0
30
0.0
10
271.0
20
-237.0
30
0.0
10
271.0
20
-242.0
30
0.0
10
271.0
20
-247.0
30
0.0
10
271.0
20
-251.0
30
0.0
10
271.0
20
-256.0
30
0.0
10
271.0
20
-261.0
30
0.0
10
270.0
20
-266.0
30
0.0
10
270.0
20
-270.0
30
0.0
10
270.0
20
-275.0
30
0.0
10
270.0
20
-280.0
30
0.0
10
270.0
20
-285.0
30
0.0
10
270.0
20
-290.0
30
0.0
10
270.0
20
-294.0
30
0.0
10
270.0
20
-299.0
30
0.0
10
270.0
20
-304.0
30
0.0
10
270.0
20
-309.0
30
0.0
10
270.0
20
-313.0
30
0.0
10
270.0
20
-318.0
30
0.0
10
270.0
20
-323.0
30
0.0
10
270.0
20
-328.0
30
0.0
10
270.0
20
-333.0
30
0.0
10
271.0
20
-338.0
30
0.0
10
271.0
20
-343.0
30
0.0
10
271.0
20
-348.0
30
0.0
10
271.0
20
-352.0
30
0.0
10
271.0
20
-357.0
30
0.0
10
271.0
20
-362.0
30
0.0
10
272.0
20
-367.0
30
0.0
10
272.0
20
-372.0
30
0.0
10
272.0
20
-377.0
30
0.0
10
272.0
20
-382.0
30
0.0
10
273.0
20
-387.0
30
0.0
10
273.0
20
-391.0
30
0.0
10
273.0
20
-396.0
30
0.0
10
273.0
20
-401.0
30
0.0
10
274.0
20
-406.0
30
0.0
10
274.0
20
-411.0
30
0.0
10
274.0
20
-416.0
30
0.0
10
275.0
20
-421.0
30
0.0
10
275.0
20
-426.0
30
0.0
10
275.0
20
-431.0
30
0.0
10
276.0
20
-436.0
30
0.0
10
276.0
20
-440.0
30
0.0
10
277.0
20
-445.0
30
0.0
10
277.0
20
-450.0
30
0.0
10
278.0
20
-455.0
30
0.0
10
278.0
20
-460.0
30
0.0
10
279.0
20
-465.0
30
0.0
10
279.0
20
-470.0
30
0.0
10
280.0
20
-475.0
30
0.0
10
280.0
20
-479.0
30
0.0
10
281.0
20
-484.0
30
0.0
10
282.0
20
-489.0
30
0.0
10
282.0
20
-494.0
30
0.0
10
283.0
20
-499.0
30
0.0
10
284.0
20
-503.0
30
0.0
10
284.0
20
-508.0
30
0.0
10
285.0
20
-513.0
30
0.0
10
286.0
20
-518.0
30
0.0
10
287.0
20
-522.0
30
0.0
10
288.0
20
-527.0
30
0.0
10
288.0
20
-532.0
30
0.0
10
289.0
20
-537.0
30
0.0
10
290.0
20
-541.0
30
0.0
10
291.0
20
-546.0
30
0.0
10
292.0
20
-550.0
30
0.0
10
293.0
20
-555.0
30
0.0
10
294.0
20
-560.0
30
0.0
10
295.0
20
-564.0
30
0.0
10
296.0
20
-569.0
30
0.0
10
297.0
20
-573.0
30
0.0
10
298.0
20
-578.0
30
0.0
10
299.0
20
-582.0
30
0.0
10
300.0
20
-587.0
30
0.0
10
301.0
20
-591.0
30
0.0
10
302.0
20
-596.0
30
0.0
10
303.0
20
-601.0
30
0.0
10
304.0
20
-605.0
30
0.0
10
305.0
20
-610.0
30
0.0
10
306.0
20
-615.0
30
0.0
10
307.0
20
-620.0
30
0.0
10
308.0
20
-624.0
30
0.0
10
309.0
20
-629.0
30
0.0
10
310.0
20
-634.0
30
0.0
10
311.0
20
-639.0
30
0.0
10
312.0
20
-643.0
30
0.0
10
313.0
20
-648.0
30
0.0
10
314.0
20
-653.0
30
0.0
10
315.0
20
-658.0
30
0.0
10
316.0
20
-662.0
30
0.0
10
317.0
20
-667.0
30
0.0
10
318.0
20
-672.0
30
0.0
10
319.0
20
-676.0
30
0.0
10
320.0
20
-681.0
30
0.0
10
321.0
20
-685.0
30
0.0
10
323.0
20
-690.0
30
0.0
10
324.0
20
-694.0
30
0.0
10
325.0
20
-699.0
30
0.0
10
326.0
20
-703.0
30
0.0
10
327.0
20
-708.0
30
0.0
10
328.0
20
-712.0
30
0.0
10
329.0
20
-716.0
30
0.0
10
330.0
20
-720.0
30
0.0
10
331.0
20
-724.0
30
0.0
10
332.0
20
-728.0
30
0.0
10
326.0
20
-728.0
30
0.0
10
327.0
20
-733.0
30
0.0
10
327.0
20
-738.0
30
0.0
10
328.0
20
-743.0
30
0.0
10
329.0
20
-748.0
30
0.0
10
330.0
20
-753.0
30
0.0
10
331.0
20
-757.0
30
0.0
10
332.0
20
-762.0
30
0.0
10
333.0
20
-767.0
30
0.0
10
333.0
20
-771.0
30
0.0
10
334.0
20
-776.0
30
0.0
10
335.0
20
-780.0
30
0.0
10
336.0
20
-785.0
30
0.0
10
337.0
20
-789.0
30
0.0
10
337.0
20
-794.0
30
0.0
10
338.0
20
-799.0
30
0.0
10
339.0
20
-804.0
30
0.0
10
340.0
20
-808.0
30
0.0
10
340.0
20
-813.0
30
0.0
10
340.0
20
-816.0
30
0.0
10
340.0
20
-819.0
30
0.0
10
340.0
20
-824.0
30
0.0
10
339.0
20
-826.0
30
0.0
10
338.0
20
-828.0
30
0.0
10
335.0
20
-829.0
30
0.0
10
331.0
20
-831.0
30
0.0
10
328.0
20
-832.0
30
0.0
10
324.0
20
-833.0
30
0.0
10
320.0
20
-834.0
30
0.0
10
315.0
20
-835.0
30
0.0
10
310.0
20
-835.0
30
0.0
10
306.0
20
-836.0
30
0.0
10
301.0
20
-837.0
30
0.0
10
296.0
20
-838.0
30
0.0
10
291.0
20
-838.0
30
0.0
10
287.0
20
-839.0
30
0.0
10
282.0
20
-839.0
30
0.0
10
277.0
20
-840.0
30
0.0
10
273.0
20
-840.0
30
0.0
10
268.0
20
-841.0
30
0.0
10
263.0
20
-841.0
30
0.0
10
259.0
20
-842.0
30
0.0
10
254.0
20
-842.0
30
0.0
10
249.0
20
-843.0
30
0.0
10
244.0
20
-843.0
30
0.0
10
240.0
20
-844.0
30
0.0
10
235.0
20
-844.0
30
0.0
10
230.0
20
-844.0
30
0.0
10
226.0
20
-845.0
30
0.0
10
221.0
20
-845.0
30
0.0
10
216.0
20
-846.0
30
0.0
10
211.0
20
-846.0
30
0.0
10
207.0
20
-847.0
30
0.0
10
202.0
20
-847.0
30
0.0
10
197.0
20
-847.0
30
0.0
10
192.0
20
-848.0
30
0.0
10
188.0
20
-848.0
30
0.0
10
183.0
20
-848.0
30
0.0
10
178.0
20
-849.0
30
0.0
10
173.0
20
-849.0
30
0.0
10
168.0
20
-850.0
30
0.0
10
163.0
20
-850.0
30
0.0
10
158.0
20
-850.0
30
0.0
10
153.0
20
-851.0
30
0.0
10
148.0
20
-851.0
30
0.0
10
144.0
20
-851.0
30
0.0
10
139.0
20
-851.0
30
0.0
10
134.0
20
-852.0
30
0.0
10
129.0
20
-852.0
30
0.0
10
124.0
20
-852.0
30
0.0
10
119.0
20
-852.0
30
0.0
10
114.0
20
-852.0
30
0.0
10
110.0
20
-852.0
30
0.0
10
105.0
20
-852.0
30
0.0
10
100.0
20
-852.0
30
0.0
10
95.0
20
-852.0
30
0.0
10
90.0
20
-852.0
30
0.0
10
85.0
20
-852.0
30
0.0
10
80.0
20
-852.0
30
0.0
10
76.0
20
-852.0
30
0.0
10
71.0
20
-852.0
30
0.0
10
66.0
20
-852.0
30
0.0
10
61.0
20
-852.0
30
0.0
10
57.0
20
-852.0
30
0.0
10
52.0
20
-852.0
30
0.0
10
47.0
20
-852.0
30
0.0
10
42.0
20
-852.0
30
0.0
10
38.0
20
-852.0
30
0.0
10
34.0
20
-852.0
30
0.0
10
30.0
20
-851.0
30
0.0
10
26.0
20
-851.0
30
0.0
10
22.0
20
-850.0
30
0.0
10
18.0
20
-849.0
30
0.0
10
17.0
20
-845.0
30
0.0
10
15.0
20
-842.0
30
0.0
10
14.0
20
-838.0
30
0.0
10
14.0
20
-834.0
30
0.0
10
13.0
20
-830.0
30
0.0
10
12.0
20
-826.0
30
0.0
10
11.0
20
-822.0
30
0.0
10
11.0
20
-817.0
30
0.0
10
10.0
20
-813.0
30
0.0
10
9.0
20
-808.0
30
0.0
10
9.0
20
-804.0
30
0.0
10
8.0
20
-800.0
30
0.0
10
8.0
20
-795.0
30
0.0
10
7.0
20
-791.0
30
0.0
10
7.0
20
-786.0
30
0.0
10
7.0
20
-782.0
30
0.0
10
6.0
20
-777.0
30
0.0
10
6.0
20
-772.0
30
0.0
10
6.0
20
-767.0
30
0.0
10
5.0
20
-762.0
30
0.0
10
5.0
20
-758.0
30
0.0
10
5.0
20
-753.0
30
0.0
10
4.0
20
-748.0
30
0.0
10
4.0
20
-743.0
30
0.0
10
4.0
20
-738.0
30
0.0
10
4.0
20
-734.0
30
0.0
10
3.0
20
-729.0
30
0.0
10
3.0
20
-724.0
30
0.0
10
3.0
20
-719.0
30
0.0
10
3.0
20
-715.0
30
0.0
10
2.0
20
-710.0
30
0.0
10
2.0
20
-705.0
30
0.0
10
2.0
20
-700.0
30
0.0
10
2.0
20
-695.0
30
0.0
10
1.0
20
-690.0
30
0.0
10
1.0
20
-686.0
30
0.0
10
1.0
20
-681.0
30
0.0
10
1.0
20
-676.0
30
0.0
10
1.0
20
-671.0
30
0.0
10
1.0
20
-666.0
30
0.0
10
0.0
20
-661.0
30
0.0
10
0.0
20
-657.0
30
0.0
10
0.0
20
-652.0
30
0.0
10
0.0
20
-647.0
30
0.0
10
0.0
20
-642.0
30
0.0
10
0.0
20
-637.0
30
0.0
10
0.0
20
-633.0
30
0.0
10
0.0
20
-628.0
30
0.0
10
0.0
20
-623.0
30
0.0
10
0.0
20
-618.0
30
0.0
10
0.0
20
-613.0
30
0.0
10
0.0
20
-608.0
30
0.0
10
0.0
20
-603.0
30
0.0
10
0.0
20
-598.0
30
0.0
10
0.0
20
-593.0
30
0.0
10
0.0
20
-588.0
30
0.0
10
0.0
20
-583.0
30
0.0
10
0.0
20
-578.0
30
0.0
10
0.0
20
-574.0
30
0.0
10
0.0
20
-569.0
30
0.0
10
1.0
20
-564.0
30
0.0
10
1.0
20
-559.0
30
0.0
10
1.0
20
-554.0
30
0.0
10
1.0
20
-549.0
30
0.0
10
2.0
20
-544.0
30
0.0
10
2.0
20
-539.0
30
0.0
10
2.0
20
-534.0
30
0.0
10
3.0
20
-530.0
30
0.0
10
3.0
20
-525.0
30
0.0
10
4.0
20
-520.0
30
0.0
10
4.0
20
-516.0
30
0.0
10
5.0
20
-511.0
30
0.0
10
5.0
20
-506.0
30
0.0
10
6.0
20
-502.0
30
0.0
10
6.0
20
-497.0
30
0.0
10
7.0
20
-492.0
30
0.0
10
7.0
20
-488.0
30
0.0
10
8.0
20
-483.0
30
0.0
10
8.0
20
-479.0
30
0.0
10
9.0
20
-474.0
30
0.0
10
10.0
20
-469.0
30
0.0
10
10.0
20
-465.0
30
0.0
10
11.0
20
-460.0
30
0.0
10
11.0
20
-455.0
30
0.0
10
12.0
20
-451.0
30
0.0
10
13.0
20
-446.0
30
0.0
10
13.0
20
-441.0
30
0.0
10
14.0
20
-437.0
30
0.0
10
15.0
20
-432.0
30
0.0
10
15.0
20
-427.0
30
0.0
10
16.0
20
-423.0
30
0.0
10
17.0
20
-418.0
30
0.0
10
17.0
20
-413.0
30
0.0
10
18.0
20
-409.0
30
0.0
10
19.0
20
-404.0
30
0.0
10
19.0
20
-399.0
30
0.0
10
20.0
20
-394.0
30
0.0
10
21.0
20
-390.0
30
0.0
10
21.0
20
-385.0
30
0.0
10
22.0
20
-380.0
30
0.0
10
23.0
20
-375.0
30
0.0
10
23.0
20
-371.0
30
0.0
10
24.0
20
-366.0
30
0.0
10
25.0
20
-361.0
30
0.0
10
25.0
20
-357.0
30
0.0
10
26.0
20
-352.0
30
0.0
10
27.0
20
-347.0
30
0.0
10
28.0
20
-342.0
30
0.0
10
28.0
20
-338.0
30
0.0
10
29.0
20
-333.0
30
0.0
10
30.0
20
-328.0
30
0.0
10
30.0
20
-323.0
30
0.0
10
31.0
20
-319.0
30
0.0
10
32.0
20
-314.0
30
0.0
10
32.0
20
-309.0
30
0.0
10
33.0
20
-304.0
30
0.0
10
34.0
20
-299.0
30
0.0
10
35.0
20
-294.0
30
0.0
10
35.0
20
-289.0
30
0.0
10
36.0
20
-285.0
30
0.0
10
37.0
20
-280.0
30
0.0
10
37.0
20
-275.0
30
0.0
10
38.0
20
-270.0
30
0.0
10
39.0
20
-265.0
30
0.0
10
40.0
20
-260.0
30
0.0
10
40.0
20
-256.0
30
0.0
10
41.0
20
-251.0
30
0.0
10
42.0
20
-246.0
30
0.0
10
43.0
20
-241.0
30
0.0
10
43.0
20
-236.0
30
0.0
10
44.0
20
-231.0
30
0.0
10
45.0
20
-227.0
30
0.0
10
46.0
20
-222.0
30
0.0
10
47.0
20
-217.0
30
0.0
10
48.0
20
-212.0
30
0.0
10
48.0
20
-207.0
30
0.0
10
49.0
20
-202.0
30
0.0
10
50.0
20
-197.0
30
0.0
10
51.0
20
-192.0
30
0.0
10
52.0
20
-187.0
30
0.0
10
53.0
20
-182.0
30
0.0
10
54.0
20
-178.0
30
0.0
10
54.0
20
-173.0
30
0.0
10
55.0
20
-168.0
30
0.0
10
56.0
20
-163.0
30
0.0
10
57.0
20
-158.0
30
0.0
10
57.0
20
-153.0
30
0.0
10
58.0
20
-148.0
30
0.0
10
59.0
20
-143.0
30
0.0
10
59.0
20
-138.0
30
0.0
10
60.0
20
-133.0
30
0.0
10
61.0
20
-128.0
30
0.0
10
61.0
20
-123.0
30
0.0
10
62.0
20
-118.0
30
0.0
10
62.0
20
-114.0
30
0.0
10
63.0
20
-109.0
30
0.0
10
64.0
20
-104.0
30
0.0
10
64.0
20
-99.0
30
0.0
10
65.0
20
-94.0
30
0.0
10
66.0
20
-89.0
30
0.0
10
66.0
20
-85.0
30
0.0
10
67.0
20
-80.0
30
0.0
10
67.0
20
-75.0
30
0.0
10
68.0
20
-70.0
30
0.0
10
69.0
20
-65.0
30
0.0
10
69.0
20
-60.0
30
0.0
10
70.0
20
-56.0
30
0.0
10
71.0
20
-51.0
30
0.0
10
71.0
20
-46.0
30
0.0
10
278.0
20
-34.0
30
0.0
6
Solid
370
35
62
5
0
LWPOLYLINE
5
317
100
AcDbEntity
8
zone_1_q2
100
AcDbPolyline
90
182
70
1
10
260.0
20
-550.0
30
0.0
10
240.0
20
-400.0
30
0.0
10
240.0
20
-300.0
30
0.0
10
240.0
20
-200.0
30
0.0
10
247.0
20
-100.0
30
0.0
10
247.0
20
-32.0
30
0.0
10
278.0
20
-34.0
30
0.0
10
277.0
20
-39.0
30
0.0
10
277.0
20
-44.0
30
0.0
10
277.0
20
-49.0
30
0.0
10
277.0
20
-54.0
30
0.0
10
276.0
20
-59.0
30
0.0
10
276.0
20
-64.0
30
0.0
10
276.0
20
-69.0
30
0.0
10
276.0
20
-74.0
30
0.0
10
276.0
20
-78.0
30
0.0
10
275.0
20
-83.0
30
0.0
10
275.0
20
-88.0
30
0.0
10
275.0
20
-93.0
30
0.0
10
275.0
20
-98.0
30
0.0
10
275.0
20
-103.0
30
0.0
10
275.0
20
-107.0
30
0.0
10
275.0
20
-112.0
30
0.0
10
274.0
20
-117.0
30
0.0
10
274.0
20
-122.0
30
0.0
10
274.0
20
-127.0
30
0.0
10
274.0
20
-132.0
30
0.0
10
274.0
20
-136.0
30
0.0
10
274.0
20
-141.0
30
0.0
10
274.0
20
-146.0
30
0.0
10
274.0
20
-151.0
30
0.0
10
274.0
20
-156.0
30
0.0
10
273.0
20
-160.0
30
0.0
10
273.0
20
-165.0
30
0.0
10
273.0
20
-170.0
30
0.0
10
273.0
20
-175.0
30
0.0
10
273.0
20
-180.0
30
0.0
10
273.0
20
-184.0
30
0.0
10
273.0
20
-189.0
30
0.0
10
272.0
20
-194.0
30
0.0
10
272.0
20
-199.0
30
0.0
10
272.0
20
-204.0
30
0.0
10
272.0
20
-208.0
30
0.0
10
272.0
20
-213.0
30
0.0
10
272.0
20
-218.0
30
0.0
10
271.0
20
-223.0
30
0.0
10
271.0
20
-227.0
30
0.0
10
271.0
20
-232.0
30
0.0
10
271.0
20
-237.0
30
0.0
10
271.0
20
-242.0
30
0.0
10
271.0
20
-247.0
30
0.0
10
271.0
20
-251.0
30
0.0
10
271.0
20
-256.0
30
0.0
10
271.0
20
-261.0
30
0.0
10
270.0
20
-266.0
30
0.0
10
270.0
20
-270.0
30
0.0
10
270.0
20
-275.0
30
0.0
10
270.0
20
-280.0
30
0.0
10
270.0
20
-285.0
30
0.0
10
270.0
20
-290.0
30
0.0
10
270.0
20
-294.0
30
0.0
10
270.0
20
-299.0
30
0.0
10
270.0
20
-304.0
30
0.0
10
270.0
20
-309.0
30
0.0
10
270.0
20
-313.0
30
0.0
10
270.0
20
-318.0
30
0.0
10
270.0
20
-323.0
30
0.0
10
270.0
20
-328.0
30
0.0
10
270.0
20
-333.0
30
0.0
10
271.0
20
-338.0
30
0.0
10
271.0
20
-343.0
30
0.0
10
271.0
20
-348.0
30
0.0
10
271.0
20
-352.0
30
0.0
10
271.0
20
-357.0
30
0.0
10
271.0
20
-362.0
30
0.0
10
272.0
20
-367.0
30
0.0
10
272.0
20
-372.0
30
0.0
10
272.0
20
-377.0
30
0.0
10
272.0
20
-382.0
30
0.0
10
273.0
20
-387.0
30
0.0
10
273.0
20
-391.0
30
0.0
10
273.0
20
-396.0
30
0.0
10
273.0
20
-401.0
30
0.0
10
274.0
20
-406.0
30
0.0
10
274.0
20
-411.0
30
0.0
10
274.0
20
-416.0
30
0.0
10
275.0
20
-421.0
30
0.0
10
275.0
20
-426.0
30
0.0
10
275.0
20
-431.0
30
0.0
10
276.0
20
-436.0
30
0.0
10
276.0
20
-440.0
30
0.0
10
277.0
20
-445.0
30
0.0
10
277.0
20
-450.0
30
0.0
10
278.0
20
-455.0
30
0.0
10
278.0
20
-460.0
30
0.0
10
279.0
20
-465.0
30
0.0
10
279.0
20
-470.0
30
0.0
10
280.0
20
-475.0
30
0.0
10
280.0
20
-479.0
30
0.0
10
281.0
20
-484.0
30
0.0
10
282.0
20
-489.0
30
0.0
10
282.0
20
-494.0
30
0.0
10
283.0
20
-499.0
30
0.0
10
284.0
20
-503.0
30
0.0
10
284.0
20
-508.0
30
0.0
10
285.0
20
-513.0
30
0.0
10
286.0
20
-518.0
30
0.0
10
287.0
20
-522.0
30
0.0
10
288.0
20
-527.0
30
0.0
10
288.0
20
-532.0
30
0.0
10
289.0
20
-537.0
30
0.0
10
290.0
20
-541.0
30
0.0
10
291.0
20
-546.0
30
0.0
10
292.0
20
-550.0
30
0.0
10
293.0
20
-555.0
30
0.0
10
294.0
20
-560.0
30
0.0
10
295.0
20
-564.0
30
0.0
10
296.0
20
-569.0
30
0.0
10
297.0
20
-573.0
30
0.0
10
298.0
20
-578.0
30
0.0
10
299.0
20
-582.0
30
0.0
10
300.0
20
-587.0
30
0.0
10
301.0
20
-591.0
30
0.0
10
302.0
20
-596.0
30
0.0
10
303.0
20
-601.0
30
0.0
10
304.0
20
-605.0
30
0.0
10
305.0
20
-610.0
30
0.0
10
306.0
20
-615.0
30
0.0
10
307.0
20
-620.0
30
0.0
10
308.0
20
-624.0
30
0.0
10
309.0
20
-629.0
30
0.0
10
310.0
20
-634.0
30
0.0
10
311.0
20
-639.0
30
0.0
10
312.0
20
-643.0
30
0.0
10
313.0
20
-648.0
30
0.0
10
314.0
20
-653.0
30
0.0
10
315.0
20
-658.0
30
0.0
10
316.0
20
-662.0
30
0.0
10
317.0
20
-667.0
30
0.0
10
318.0
20
-672.0
30
0.0
10
319.0
20
-676.0
30
0.0
10
320.0
20
-681.0
30
0.0
10
321.0
20
-685.0
30
0.0
10
323.0
20
-690.0
30
0.0
10
324.0
20
-694.0
30
0.0
10
325.0
20
-699.0
30
0.0
10
326.0
20
-703.0
30
0.0
10
327.0
20
-708.0
30
0.0
10
328.0
20
-712.0
30
0.0
10
329.0
20
-716.0
30
0.0
10
330.0
20
-720.0
30
0.0
10
331.0
20
-724.0
30
0.0
10
326.0
20
-728.0
30
0.0
10
327.0
20
-733.0
30
0.0
10
327.0
20
-738.0
30
0.0
10
328.0
20
-743.0
30
0.0
10
329.0
20
-748.0
30
0.0
10
330.0
20
-753.0
30
0.0
10
331.0
20
-757.0
30
0.0
10
332.0
20
-762.0
30
0.0
10
333.0
20
-767.0
30
0.0
10
333.0
20
-771.0
30
0.0
10
334.0
20
-776.0
30
0.0
10
335.0
20
-780.0
30
0.0
10
336.0
20
-785.0
30
0.0
10
337.0
20
-789.0
30
0.0
10
337.0
20
-794.0
30
0.0
10
338.0
20
-799.0
30
0.0
10
339.0
20
-804.0
30
0.0
10
340.0
20
-808.0
30
0.0
10
340.0
20
-813.0
30
0.0
10
340.0
20
-816.0
30
0.0
10
340.0
20
-819.0
30
0.0
10
340.0
20
-824.0
30
0.0
10
339.0
20
-826.0
30
0.0
10
338.0
20
-828.0
30
0.0
10
335.0
20
-829.0
30
0.0
10
331.0
20
-831.0
30
0.0
10
328.0
20
-832.0
30
0.0
10
324.0
20
-833.0
30
0.0
10
320.0
20
-834.0
30
0.0
10
260.0
20
-550.0
30
0.0
6
Solid
370
35
62
2
0
ENDSEC
0
SECTION
2
OBJECTS
0
DICTIONARY
5
30f
330
0
100
AcDbDictionary
281
1
3
ACAD_GROUP
350
310
0
DICTIONARY
5
310
330
30f
100
AcDbDictionary
281
1
0
ENDSEC
0
EOF
