999

0
SECTION
2
HEADER
9
$ACADVER
1
AC1021
9
$HANDSEED
5
335
0
ENDSEC
0
SECTION
2
CLASSES
0
ENDSEC
0
SECTION
2
TABLES
0
TABLE
2
VPORT
5
31a
100
AcDbSymbolTable
70
1
0
VPORT
5
319
100
AcDbSymbolTableRecord
100
AcDbViewportTableRecord
2
*ACTIVE
10
0
20
0
11
1
21
1
12
500.0
22
500.0
40
1000.0
70
0
0
ENDTAB
0
TABLE
2
LTYPE
5
31b
100
AcDbSymbolTable
70
3
0
LTYPE
5
323
100
AcDbSymbolTableRecord
100
AcDbLinetypeTableRecord
2
Solid
70
0
72
65
73
0
3

0
LTYPE
5
324
100
AcDbSymbolTableRecord
100
AcDbLinetypeTableRecord
2
ByBlock
70
0
72
65
73
0
3

0
LTYPE
5
325
100
AcDbSymbolTableRecord
100
AcDbLinetypeTableRecord
2
ByLayer
70
0
72
65
73
0
3

0
ENDTAB
0
TABLE
2
LAYER
5
31c
100
AcDbSymbolTable
70
2
0
LAYER
5
326
100
AcDbSymbolTableRecord
100
AcDbLayerTableRecord
2
0
70
0
390
0
0
LAYER
5
332
100
AcDbSymbolTableRecord
100
AcDbLayerTableRecord
2
zone_0_q4
70
0
390
0
0
ENDTAB
0
TABLE
2
STYLE
5
31d
100
AcDbSymbolTable
70
0
0
ENDTAB
0
TABLE
2
VIEW
5
31e
100
AcDbSymbolTable
70
0
0
ENDTAB
0
TABLE
2
UCS
5
31f
100
AcDbSymbolTable
70
0
0
ENDTAB
0
TABLE
2
APPID
5
320
100
AcDbSymbolTable
70
1
0
APPID
5
327
100
AcDbSymbolTableRecord
100
AcDbRegAppTableRecord
2
ACAD
70
0
0
ENDTAB
0
TABLE
2
DIMSTYLE
5
321
100
AcDbSymbolTable
70
0
100
AcDbDimStyleTable
71
1
0
ENDTAB
0
TABLE
2
BLOCK_RECORD
5
322
100
AcDbSymbolTable
70
2
0
BLOCK_RECORD
5
328
100
AcDbSymbolTableRecord
100
AcDbBlockTableRecord
2
*Model_Space
70
0
280
1
281
0
0
BLOCK_RECORD
5
329
100
AcDbSymbolTableRecord
100
AcDbBlockTableRecord
2
*Paper_Space
70
0
280
1
281
0
0
ENDTAB
0
ENDSEC
0
SECTION
2
BLOCKS
0
BLOCK
5
32a
100
AcDbEntity
100
AcDbBlockBegin
2
*Model_Space
70
0
10
0
20
0
30
0
3
*Model_Space
1

0
ENDBLK
5
32b
100
AcDbEntity
100
AcDbBlockEnd
0
BLOCK
5
32c
100
AcDbEntity
100
AcDbBlockBegin
2
*Paper_Space
70
0
10
0
20
0
30
0
3
*Paper_Space
1

0
ENDBLK
5
32d
100
AcDbEntity
100
AcDbBlockEnd
0
ENDSEC
0
SECTION
2
ENTITIES
0
LWPOLYLINE
5
330
100
AcDbEntity
100
AcDbPolyline
90
308
70
1
10
13.0
20
-255.0
30
0.0
10
16.0
20
-254.0
30
0.0
10
19.0
20
-253.0
30
0.0
10
24.0
20
-253.0
30
0.0
10
29.0
20
-252.0
30
0.0
10
34.0
20
-252.0
30
0.0
10
39.0
20
-252.0
30
0.0
10
43.0
20
-251.0
30
0.0
10
48.0
20
-251.0
30
0.0
10
53.0
20
-251.0
30
0.0
10
58.0
20
-250.0
30
0.0
10
63.0
20
-250.0
30
0.0
10
68.0
20
-249.0
30
0.0
10
72.0
20
-249.0
30
0.0
10
77.0
20
-248.0
30
0.0
10
82.0
20
-248.0
30
0.0
10
87.0
20
-247.0
30
0.0
10
92.0
20
-247.0
30
0.0
10
96.0
20
-247.0
30
0.0
10
101.0
20
-246.0
30
0.0
10
106.0
20
-246.0
30
0.0
10
111.0
20
-245.0
30
0.0
10
116.0
20
-245.0
30
0.0
10
121.0
20
-244.0
30
0.0
10
126.0
20
-244.0
30
0.0
10
131.0
20
-243.0
30
0.0
10
136.0
20
-243.0
30
0.0
10
141.0
20
-242.0
30
0.0
10
146.0
20
-242.0
30
0.0
10
151.0
20
-241.0
30
0.0
10
156.0
20
-241.0
30
0.0
10
161.0
20
-241.0
30
0.0
10
166.0
20
-240.0
30
0.0
10
171.0
20
-240.0
30
0.0
10
176.0
20
-239.0
30
0.0
10
181.0
20
-239.0
30
0.0
10
186.0
20
-238.0
30
0.0
10
191.0
20
-238.0
30
0.0
10
196.0
20
-238.0
30
0.0
10
200.0
20
-237.0
30
0.0
10
205.0
20
-237.0
30
0.0
10
210.0
20
-236.0
30
0.0
10
215.0
20
-236.0
30
0.0
10
220.0
20
-236.0
30
0.0
10
225.0
20
-235.0
30
0.0
10
230.0
20
-235.0
30
0.0
10
235.0
20
-234.0
30
0.0
10
240.0
20
-234.0
30
0.0
10
245.0
20
-233.0
30
0.0
10
250.0
20
-233.0
30
0.0
10
255.0
20
-233.0
30
0.0
10
260.0
20
-232.0
30
0.0
10
265.0
20
-232.0
30
0.0
10
270.0
20
-231.0
30
0.0
10
275.0
20
-231.0
30
0.0
10
280.0
20
-230.0
30
0.0
10
285.0
20
-230.0
30
0.0
10
290.0
20
-229.0
30
0.0
10
294.0
20
-229.0
30
0.0
10
299.0
20
-229.0
30
0.0
10
304.0
20
-228.0
30
0.0
10
309.0
20
-228.0
30
0.0
10
314.0
20
-227.0
30
0.0
10
319.0
20
-227.0
30
0.0
10
324.0
20
-226.0
30
0.0
10
329.0
20
-226.0
30
0.0
10
334.0
20
-225.0
30
0.0
10
339.0
20
-225.0
30
0.0
10
344.0
20
-224.0
30
0.0
10
349.0
20
-224.0
30
0.0
10
354.0
20
-224.0
30
0.0
10
359.0
20
-223.0
30
0.0
10
364.0
20
-223.0
30
0.0
10
369.0
20
-222.0
30
0.0
10
374.0
20
-222.0
30
0.0
10
379.0
20
-221.0
30
0.0
10
383.0
20
-221.0
30
0.0
10
388.0
20
-220.0
30
0.0
10
393.0
20
-220.0
30
0.0
10
398.0
20
-219.0
30
0.0
10
403.0
20
-219.0
30
0.0
10
408.0
20
-218.0
30
0.0
10
413.0
20
-218.0
30
0.0
10
418.0
20
-217.0
30
0.0
10
423.0
20
-217.0
30
0.0
10
428.0
20
-217.0
30
0.0
10
433.0
20
-216.0
30
0.0
10
438.0
20
-216.0
30
0.0
10
443.0
20
-215.0
30
0.0
10
448.0
20
-215.0
30
0.0
10
453.0
20
-214.0
30
0.0
10
458.0
20
-214.0
30
0.0
10
462.0
20
-213.0
30
0.0
10
467.0
20
-213.0
30
0.0
10
472.0
20
-213.0
30
0.0
10
476.0
20
-212.0
30
0.0
10
481.0
20
-212.0
30
0.0
10
483.0
20
-189.0
30
0.0
10
501.0
20
-9.0
30
0.0
10
502.0
20
-7.0
30
0.0
10
502.0
20
-4.0
30
0.0
10
503.0
20
-2.0
30
0.0
10
505.0
20
0.0
30
0.0
10
507.0
20
0.0
30
0.0
10
512.0
20
0.0
30
0.0
10
553.0
20
-6.0
30
0.0
10
556.0
20
-6.0
30
0.0
10
558.0
20
-7.0
30
0.0
10
558.0
20
-9.0
30
0.0
10
558.0
20
-11.0
30
0.0
10
557.0
20
-15.0
30
0.0
10
557.0
20
-20.0
30
0.0
10
556.0
20
-25.0
30
0.0
10
556.0
20
-30.0
30
0.0
10
555.0
20
-35.0
30
0.0
10
555.0
20
-39.0
30
0.0
10
554.0
20
-44.0
30
0.0
10
554.0
20
-49.0
30
0.0
10
553.0
20
-54.0
30
0.0
10
553.0
20
-59.0
30
0.0
10
552.0
20
-64.0
30
0.0
10
552.0
20
-69.0
30
0.0
10
551.0
20
-74.0
30
0.0
10
551.0
20
-79.0
30
0.0
10
550.0
20
-84.0
30
0.0
10
550.0
20
-89.0
30
0.0
10
549.0
20
-93.0
30
0.0
10
549.0
20
-98.0
30
0.0
10
548.0
20
-103.0
30
0.0
10
548.0
20
-108.0
30
0.0
10
547.0
20
-113.0
30
0.0
10
547.0
20
-118.0
30
0.0
10
547.0
20
-123.0
30
0.0
10
546.0
20
-128.0
30
0.0
10
546.0
20
-133.0
30
0.0
10
545.0
20
-138.0
30
0.0
10
545.0
20
-143.0
30
0.0
10
545.0
20
-148.0
30
0.0
10
544.0
20
-153.0
30
0.0
10
544.0
20
-158.0
30
0.0
10
544.0
20
-163.0
30
0.0
10
543.0
20
-168.0
30
0.0
10
543.0
20
-173.0
30
0.0
10
543.0
20
-177.0
30
0.0
10
543.0
20
-182.0
30
0.0
10
542.0
20
-187.0
30
0.0
10
542.0
20
-192.0
30
0.0
10
542.0
20
-197.0
30
0.0
10
542.0
20
-202.0
30
0.0
10
541.0
20
-207.0
30
0.0
10
541.0
20
-212.0
30
0.0
10
541.0
20
-217.0
30
0.0
10
541.0
20
-222.0
30
0.0
10
541.0
20
-227.0
30
0.0
10
541.0
20
-231.0
30
0.0
10
541.0
20
-236.0
30
0.0
10
541.0
20
-241.0
30
0.0
10
541.0
20
-246.0
30
0.0
10
541.0
20
-250.0
30
0.0
10
541.0
20
-255.0
30
0.0
10
541.0
20
-260.0
30
0.0
10
541.0
20
-265.0
30
0.0
10
541.0
20
-269.0
30
0.0
10
541.0
20
-274.0
30
0.0
10
541.0
20
-279.0
30
0.0
10
541.0
20
-284.0
30
0.0
10
541.0
20
-288.0
30
0.0
10
541.0
20
-293.0
30
0.0
10
541.0
20
-298.0
30
0.0
10
541.0
20
-303.0
30
0.0
10
541.0
20
-307.0
30
0.0
10
542.0
20
-312.0
30
0.0
10
542.0
20
-317.0
30
0.0
10
542.0
20
-322.0
30
0.0
10
542.0
20
-327.0
30
0.0
10
542.0
20
-332.0
30
0.0
10
542.0
20
-336.0
30
0.0
10
542.0
20
-341.0
30
0.0
10
542.0
20
-346.0
30
0.0
10
542.0
20
-351.0
30
0.0
10
541.0
20
-356.0
30
0.0
10
541.0
20
-360.0
30
0.0
10
541.0
20
-365.0
30
0.0
10
541.0
20
-370.0
30
0.0
10
541.0
20
-375.0
30
0.0
10
541.0
20
-379.0
30
0.0
10
540.0
20
-384.0
30
0.0
10
540.0
20
-389.0
30
0.0
10
540.0
20
-393.0
30
0.0
10
539.0
20
-398.0
30
0.0
10
539.0
20
-403.0
30
0.0
10
539.0
20
-407.0
30
0.0
10
538.0
20
-412.0
30
0.0
10
538.0
20
-417.0
30
0.0
10
538.0
20
-422.0
30
0.0
10
537.0
20
-426.0
30
0.0
10
537.0
20
-431.0
30
0.0
10
537.0
20
-436.0
30
0.0
10
536.0
20
-441.0
30
0.0
10
536.0
20
-446.0
30
0.0
10
536.0
20
-451.0
30
0.0
10
535.0
20
-456.0
30
0.0
10
535.0
20
-461.0
30
0.0
10
534.0
20
-465.0
30
0.0
10
534.0
20
-470.0
30
0.0
10
533.0
20
-475.0
30
0.0
10
533.0
20
-480.0
30
0.0
10
532.0
20
-485.0
30
0.0
10
532.0
20
-490.0
30
0.0
10
531.0
20
-495.0
30
0.0
10
531.0
20
-500.0
30
0.0
10
530.0
20
-504.0
30
0.0
10
530.0
20
-509.0
30
0.0
10
529.0
20
-514.0
30
0.0
10
529.0
20
-519.0
30
0.0
10
528.0
20
-524.0
30
0.0
10
527.0
20
-529.0
30
0.0
10
527.0
20
-534.0
30
0.0
10
526.0
20
-539.0
30
0.0
10
525.0
20
-544.0
30
0.0
10
525.0
20
-548.0
30
0.0
10
524.0
20
-553.0
30
0.0
10
523.0
20
-558.0
30
0.0
10
523.0
20
-562.0
30
0.0
10
522.0
20
-567.0
30
0.0
10
521.0
20
-572.0
30
0.0
10
520.0
20
-576.0
30
0.0
10
519.0
20
-579.0
30
0.0
10
518.0
20
-580.0
30
0.0
10
462.0
20
-575.0
30
0.0
10
449.0
20
-628.0
30
0.0
10
59.0
20
-545.0
30
0.0
10
55.0
20
-544.0
30
0.0
10
50.0
20
-543.0
30
0.0
10
45.0
20
-542.0
30
0.0
10
40.0
20
-541.0
30
0.0
10
35.0
20
-540.0
30
0.0
10
31.0
20
-539.0
30
0.0
10
26.0
20
-538.0
30
0.0
10
21.0
20
-537.0
30
0.0
10
16.0
20
-536.0
30
0.0
10
13.0
20
-535.0
30
0.0
10
9.0
20
-534.0
30
0.0
10
6.0
20
-533.0
30
0.0
10
3.0
20
-533.0
30
0.0
10
1.0
20
-531.0
30
0.0
10
1.0
20
-529.0
30
0.0
10
1.0
20
-526.0
30
0.0
10
2.0
20
-521.0
30
0.0
10
2.0
20
-517.0
30
0.0
10
3.0
20
-512.0
30
0.0
10
4.0
20
-508.0
30
0.0
10
5.0
20
-503.0
30
0.0
10
5.0
20
-499.0
30
0.0
10
6.0
20
-494.0
30
0.0
10
7.0
20
-489.0
30
0.0
10
7.0
20
-485.0
30
0.0
10
8.0
20
-480.0
30
0.0
10
9.0
20
-475.0
30
0.0
10
10.0
20
-470.0
30
0.0
10
10.0
20
-465.0
30
0.0
10
11.0
20
-460.0
30
0.0
10
12.0
20
-455.0
30
0.0
10
12.0
20
-450.0
30
0.0
10
13.0
20
-446.0
30
0.0
10
14.0
20
-441.0
30
0.0
10
14.0
20
-436.0
30
0.0
10
15.0
20
-431.0
30
0.0
10
15.0
20
-426.0
30
0.0
10
16.0
20
-421.0
30
0.0
10
16.0
20
-417.0
30
0.0
10
17.0
20
-412.0
30
0.0
10
17.0
20
-407.0
30
0.0
10
17.0
20
-403.0
30
0.0
10
18.0
20
-398.0
30
0.0
10
18.0
20
-393.0
30
0.0
10
18.0
20
-388.0
30
0.0
10
18.0
20
-384.0
30
0.0
10
19.0
20
-379.0
30
0.0
10
19.0
20
-374.0
30
0.0
10
19.0
20
-370.0
30
0.0
10
19.0
20
-365.0
30
0.0
10
18.0
20
-360.0
30
0.0
10
18.0
20
-356.0
30
0.0
10
18.0
20
-351.0
30
0.0
10
18.0
20
-347.0
30
0.0
10
18.0
20
-342.0
30
0.0
10
17.0
20
-338.0
30
0.0
10
17.0
20
-333.0
30
0.0
10
17.0
20
-329.0
30
0.0
10
16.0
20
-324.0
30
0.0
10
16.0
20
-320.0
30
0.0
10
15.0
20
-315.0
30
0.0
10
15.0
20
-310.0
30
0.0
10
14.0
20
-306.0
30
0.0
10
14.0
20
-301.0
30
0.0
10
13.0
20
-297.0
30
0.0
10
13.0
20
-292.0
30
0.0
10
12.0
20
-288.0
30
0.0
10
11.0
20
-284.0
30
0.0
10
11.0
20
-280.0
30
0.0
10
10.0
20
-276.0
30
0.0
10
10.0
20
-271.0
30
0.0
10
9.0
20
-267.0
30
0.0
10
9.0
20
-263.0
30
0.0
10
9.0
20
-260.0
30
0.0
10
9.0
20
-256.0
30
0.0
10
13.0
20
-255.0
30
0.0
6
Solid
370
35
62
40
0
LWPOLYLINE
5
333
100
AcDbEntity
8
zone_0_q4
100
AcDbPolyline
90
213
70
1
10
443.0
20
-215.0
30
0.0
10
448.0
20
-215.0
30
0.0
10
453.0
20
-214.0
30
0.0
10
458.0
20
-214.0
30
0.0
10
462.0
20
-213.0
30
0.0
10
467.0
20
-213.0
30
0.0
10
472.0
20
-213.0
30
0.0
10
476.0
20
-212.0
30
0.0
10
481.0
20
-212.0
30
0.0
10
483.0
20
-189.0
30
0.0
10
501.0
20
-9.0
30
0.0
10
502.0
20
-7.0
30
0.0
10
502.0
20
-4.0
30
0.0
10
503.0
20
-2.0
30
0.0
10
505.0
20
0.0
30
0.0
10
507.0
20
0.0
30
0.0
10
512.0
20
0.0
30
0.0
10
553.0
20
-6.0
30
0.0
10
556.0
20
-6.0
30
0.0
10
558.0
20
-7.0
30
0.0
10
558.0
20
-9.0
30
0.0
10
558.0
20
-11.0
30
0.0
10
557.0
20
-15.0
30
0.0
10
557.0
20
-20.0
30
0.0
10
556.0
20
-25.0
30
0.0
10
556.0
20
-30.0
30
0.0
10
555.0
20
-35.0
30
0.0
10
555.0
20
-39.0
30
0.0
10
554.0
20
-44.0
30
0.0
10
554.0
20
-49.0
30
0.0
10
553.0
20
-54.0
30
0.0
10
553.0
20
-59.0
30
0.0
10
552.0
20
-64.0
30
0.0
10
552.0
20
-69.0
30
0.0
10
551.0
20
-74.0
30
0.0
10
551.0
20
-79.0
30
0.0
10
550.0
20
-84.0
30
0.0
10
550.0
20
-89.0
30
0.0
10
549.0
20
-93.0
30
0.0
10
549.0
20
-98.0
30
0.0
10
548.0
20
-103.0
30
0.0
10
548.0
20
-108.0
30
0.0
10
547.0
20
-113.0
30
0.0
10
547.0
20
-118.0
30
0.0
10
547.0
20
-123.0
30
0.0
10
546.0
20
-128.0
30
0.0
10
546.0
20
-133.0
30
0.0
10
545.0
20
-138.0
30
0.0
10
545.0
20
-143.0
30
0.0
10
545.0
20
-148.0
30
0.0
10
544.0
20
-153.0
30
0.0
10
544.0
20
-158.0
30
0.0
10
544.0
20
-163.0
30
0.0
10
543.0
20
-168.0
30
0.0
10
543.0
20
-173.0
30
0.0
10
543.0
20
-177.0
30
0.0
10
543.0
20
-182.0
30
0.0
10
542.0
20
-187.0
30
0.0
10
542.0
20
-192.0
30
0.0
10
542.0
20
-197.0
30
0.0
10
542.0
20
-202.0
30
0.0
10
541.0
20
-207.0
30
0.0
10
541.0
20
-212.0
30
0.0
10
541.0
20
-217.0
30
0.0
10
541.0
20
-222.0
30
0.0
10
541.0
20
-227.0
30
0.0
10
541.0
20
-231.0
30
0.0
10
541.0
20
-236.0
30
0.0
10
541.0
20
-241.0
30
0.0
10
541.0
20
-246.0
30
0.0
10
541.0
20
-250.0
30
0.0
10
541.0
20
-255.0
30
0.0
10
541.0
20
-260.0
30
0.0
10
541.0
20
-265.0
30
0.0
10
541.0
20
-269.0
30
0.0
10
541.0
20
-274.0
30
0.0
10
541.0
20
-279.0
30
0.0
10
541.0
20
-284.0
30
0.0
10
541.0
20
-288.0
30
0.0
10
541.0
20
-293.0
30
0.0
10
541.0
20
-298.0
30
0.0
10
541.0
20
-303.0
30
0.0
10
541.0
20
-307.0
30
0.0
10
542.0
20
-312.0
30
0.0
10
542.0
20
-317.0
30
0.0
10
542.0
20
-322.0
30
0.0
10
542.0
20
-327.0
30
0.0
10
542.0
20
-332.0
30
0.0
10
542.0
20
-336.0
30
0.0
10
542.0
20
-341.0
30
0.0
10
542.0
20
-346.0
30
0.0
10
542.0
20
-351.0
30
0.0
10
541.0
20
-356.0
30
0.0
10
541.0
20
-360.0
30
0.0
10
541.0
20
-365.0
30
0.0
10
541.0
20
-370.0
30
0.0
10
541.0
20
-375.0
30
0.0
10
541.0
20
-379.0
30
0.0
10
540.0
20
-384.0
30
0.0
10
540.0
20
-389.0
30
0.0
10
540.0
20
-393.0
30
0.0
10
539.0
20
-398.0
30
0.0
10
539.0
20
-403.0
30
0.0
10
539.0
20
-407.0
30
0.0
10
538.0
20
-412.0
30
0.0
10
538.0
20
-417.0
30
0.0
10
538.0
20
-422.0
30
0.0
10
537.0
20
-426.0
30
0.0
10
537.0
20
-431.0
30
0.0
10
537.0
20
-436.0
30
0.0
10
536.0
20
-441.0
30
0.0
10
536.0
20
-446.0
30
0.0
10
536.0
20
-451.0
30
0.0
10
535.0
20
-456.0
30
0.0
10
535.0
20
-461.0
30
0.0
10
534.0
20
-465.0
30
0.0
10
534.0
20
-470.0
30
0.0
10
533.0
20
-475.0
30
0.0
10
533.0
20
-480.0
30
0.0
10
532.0
20
-485.0
30
0.0
10
532.0
20
-490.0
30
0.0
10
531.0
20
-495.0
30
0.0
10
531.0
20
-500.0
30
0.0
10
530.0
20
-504.0
30
0.0
10
530.0
20
-509.0
30
0.0
10
529.0
20
-514.0
30
0.0
10
529.0
20
-519.0
30
0.0
10
528.0
20
-524.0
30
0.0
10
527.0
20
-529.0
30
0.0
10
527.0
20
-534.0
30
0.0
10
526.0
20
-539.0
30
0.0
10
525.0
20
-544.0
30
0.0
10
525.0
20
-548.0
30
0.0
10
524.0
20
-553.0
30
0.0
10
523.0
20
-558.0
30
0.0
10
523.0
20
-562.0
30
0.0
10
522.0
20
-567.0
30
0.0
10
521.0
20
-572.0
30
0.0
10
520.0
20
-576.0
30
0.0
10
519.0
20
-579.0
30
0.0
10
518.0
20
-580.0
30
0.0
10
462.0
20
-575.0
30
0.0
10
449.0
20
-628.0
30
0.0
10
59.0
20
-545.0
30
0.0
10
55.0
20
-544.0
30
0.0
10
50.0
20
-543.0
30
0.0
10
45.0
20
-542.0
30
0.0
10
40.0
20
-541.0
30
0.0
10
35.0
20
-540.0
30
0.0
10
31.0
20
-539.0
30
0.0
10
26.0
20
-538.0
30
0.0
10
21.0
20
-537.0
30
0.0
10
16.0
20
-536.0
30
0.0
10
13.0
20
-535.0
30
0.0
10
9.0
20
-534.0
30
0.0
10
6.0
20
-533.0
30
0.0
10
3.0
20
-533.0
30
0.0
10
1.0
20
-531.0
30
0.0
10
1.0
20
-529.0
30
0.0
10
1.0
20
-526.0
30
0.0
10
2.0
20
-521.0
30
0.0
10
2.0
20
-517.0
30
0.0
10
3.0
20
-512.0
30
0.0
10
4.0
20
-508.0
30
0.0
10
5.0
20
-503.0
30
0.0
10
5.0
20
-499.0
30
0.0
10
6.0
20
-494.0
30
0.0
10
7.0
20
-489.0
30
0.0
10
7.0
20
-485.0
30
0.0
10
8.0
20
-480.0
30
0.0
10
9.0
20
-475.0
30
0.0
10
10.0
20
-470.0
30
0.0
10
10.0
20
-465.0
30
0.0
10
11.0
20
-460.0
30
0.0
10
12.0
20
-455.0
30
0.0
10
12.0
20
-450.0
30
0.0
10
13.0
20
-446.0
30
0.0
10
14.0
20
-441.0
30
0.0
10
14.0
20
-436.0
30
0.0
10
15.0
20
-431.0
30
0.0
10
15.0
20
-426.0
30
0.0
10
16.0
20
-421.0
30
0.0
10
16.0
20
-417.0
30
0.0
10
17.0
20
-412.0
30
0.0
10
17.0
20
-407.0
30
0.0
10
17.0
20
-403.0
30
0.0
10
18.0
20
-398.0
30
0.0
10
18.0
20
-393.0
30
0.0
10
18.0
20
-388.0
30
0.0
10
18.0
20
-384.0
30
0.0
10
19.0
20
-379.0
30
0.0
10
19.0
20
-374.0
30
0.0
10
19.0
20
-370.0
30
0.0
10
19.0
20
-365.0
30
0.0
10
18.0
20
-360.0
30
0.0
10
18.0
20
-356.0
30
0.0
10
18.0
20
-351.0
30
0.0
10
18.0
20
-347.0
30
0.0
10
18.0
20
-342.0
30
0.0
10
17.0
20
-338.0
30
0.0
10
17.0
20
-333.0
30
0.0
10
17.0
20
-329.0
30
0.0
10
16.0
20
-324.0
30
0.0
10
16.0
20
-320.0
30
0.0
10
15.0
20
-315.0
30
0.0
10
15.0
20
-310.0
30
0.0
10
14.0
20
-306.0
30
0.0
10
14.0
20
-301.0
30
0.0
10
13.0
20
-297.0
30
0.0
10
13.0
20
-292.0
30
0.0
10
12.0
20
-288.0
30
0.0
10
423.0
20
-255.0
30
0.0
10
443.0
20
-215.0
30
0.0
6
Solid
370
35
62
5
0
ENDSEC
0
SECTION
2
OBJECTS
0
DICTIONARY
5
32e
330
0
100
AcDbDictionary
281
1
3
ACAD_GROUP
350
32f
0
DICTIONARY
5
32f
330
32e
100
AcDbDictionary
281
1
0
ENDSEC
0
EOF
