999

0
SECTION
2
HEADER
9
$ACADVER
1
AC1021
9
$HANDSEED
5
351
0
ENDSEC
0
SECTION
2
CLASSES
0
ENDSEC
0
SECTION
2
TABLES
0
TABLE
2
VPORT
5
336
100
AcDbSymbolTable
70
1
0
VPORT
5
335
100
AcDbSymbolTableRecord
100
AcDbViewportTableRecord
2
*ACTIVE
10
0
20
0
11
1
21
1
12
500.0
22
500.0
40
1000.0
70
0
0
ENDTAB
0
TABLE
2
LTYPE
5
337
100
AcDbSymbolTable
70
3
0
LTYPE
5
33f
100
AcDbSymbolTableRecord
100
AcDbLinetypeTableRecord
2
Solid
70
0
72
65
73
0
3

0
LTYPE
5
340
100
AcDbSymbolTableRecord
100
AcDbLinetypeTableRecord
2
ByBlock
70
0
72
65
73
0
3

0
LTYPE
5
341
100
AcDbSymbolTableRecord
100
AcDbLinetypeTableRecord
2
ByLayer
70
0
72
65
73
0
3

0
ENDTAB
0
TABLE
2
LAYER
5
338
100
AcDbSymbolTable
70
2
0
LAYER
5
342
100
AcDbSymbolTableRecord
100
AcDbLayerTableRecord
2
0
70
0
390
0
0
LAYER
5
34e
100
AcDbSymbolTableRecord
100
AcDbLayerTableRecord
2
zone_0_q1
70
0
390
0
0
ENDTAB
0
TABLE
2
STYLE
5
339
100
AcDbSymbolTable
70
0
0
ENDTAB
0
TABLE
2
VIEW
5
33a
100
AcDbSymbolTable
70
0
0
ENDTAB
0
TABLE
2
UCS
5
33b
100
AcDbSymbolTable
70
0
0
ENDTAB
0
TABLE
2
APPID
5
33c
100
AcDbSymbolTable
70
1
0
APPID
5
343
100
AcDbSymbolTableRecord
100
AcDbRegAppTableRecord
2
ACAD
70
0
0
ENDTAB
0
TABLE
2
DIMSTYLE
5
33d
100
AcDbSymbolTable
70
0
100
AcDbDimStyleTable
71
1
0
ENDTAB
0
TABLE
2
BLOCK_RECORD
5
33e
100
AcDbSymbolTable
70
2
0
BLOCK_RECORD
5
344
100
AcDbSymbolTableRecord
100
AcDbBlockTableRecord
2
*Model_Space
70
0
280
1
281
0
0
BLOCK_RECORD
5
345
100
AcDbSymbolTableRecord
100
AcDbBlockTableRecord
2
*Paper_Space
70
0
280
1
281
0
0
ENDTAB
0
ENDSEC
0
SECTION
2
BLOCKS
0
BLOCK
5
346
100
AcDbEntity
100
AcDbBlockBegin
2
*Model_Space
70
0
10
0
20
0
30
0
3
*Model_Space
1

0
ENDBLK
5
347
100
AcDbEntity
100
AcDbBlockEnd
0
BLOCK
5
348
100
AcDbEntity
100
AcDbBlockBegin
2
*Paper_Space
70
0
10
0
20
0
30
0
3
*Paper_Space
1

0
ENDBLK
5
349
100
AcDbEntity
100
AcDbBlockEnd
0
ENDSEC
0
SECTION
2
ENTITIES
0
LWPOLYLINE
5
34c
100
AcDbEntity
100
AcDbPolyline
90
470
70
1
10
84.0
20
-219.0
30
0.0
10
88.0
20
-221.0
30
0.0
10
93.0
20
-222.0
30
0.0
10
97.0
20
-223.0
30
0.0
10
102.0
20
-224.0
30
0.0
10
106.0
20
-225.0
30
0.0
10
110.0
20
-226.0
30
0.0
10
114.0
20
-227.0
30
0.0
10
117.0
20
-228.0
30
0.0
10
121.0
20
-229.0
30
0.0
10
125.0
20
-230.0
30
0.0
10
130.0
20
-230.0
30
0.0
10
134.0
20
-230.0
30
0.0
10
138.0
20
-229.0
30
0.0
10
141.0
20
-228.0
30
0.0
10
143.0
20
-225.0
30
0.0
10
144.0
20
-220.0
30
0.0
10
145.0
20
-216.0
30
0.0
10
146.0
20
-212.0
30
0.0
10
147.0
20
-207.0
30
0.0
10
148.0
20
-203.0
30
0.0
10
149.0
20
-198.0
30
0.0
10
149.0
20
-194.0
30
0.0
10
150.0
20
-189.0
30
0.0
10
151.0
20
-185.0
30
0.0
10
151.0
20
-180.0
30
0.0
10
152.0
20
-175.0
30
0.0
10
152.0
20
-171.0
30
0.0
10
153.0
20
-166.0
30
0.0
10
154.0
20
-161.0
30
0.0
10
154.0
20
-157.0
30
0.0
10
155.0
20
-152.0
30
0.0
10
155.0
20
-147.0
30
0.0
10
156.0
20
-142.0
30
0.0
10
157.0
20
-137.0
30
0.0
10
157.0
20
-132.0
30
0.0
10
158.0
20
-127.0
30
0.0
10
158.0
20
-122.0
30
0.0
10
159.0
20
-118.0
30
0.0
10
160.0
20
-113.0
30
0.0
10
160.0
20
-108.0
30
0.0
10
161.0
20
-103.0
30
0.0
10
161.0
20
-98.0
30
0.0
10
161.0
20
-94.0
30
0.0
10
162.0
20
-89.0
30
0.0
10
162.0
20
-84.0
30
0.0
10
163.0
20
-80.0
30
0.0
10
163.0
20
-75.0
30
0.0
10
163.0
20
-70.0
30
0.0
10
163.0
20
-65.0
30
0.0
10
164.0
20
-61.0
30
0.0
10
164.0
20
-56.0
30
0.0
10
164.0
20
-51.0
30
0.0
10
164.0
20
-46.0
30
0.0
10
165.0
20
-41.0
30
0.0
10
165.0
20
-37.0
30
0.0
10
165.0
20
-32.0
30
0.0
10
165.0
20
-27.0
30
0.0
10
166.0
20
-22.0
30
0.0
10
166.0
20
-18.0
30
0.0
10
166.0
20
-13.0
30
0.0
10
167.0
20
-9.0
30
0.0
10
167.0
20
-4.0
30
0.0
10
167.0
20
-2.0
30
0.0
10
169.0
20
0.0
30
0.0
10
171.0
20
0.0
30
0.0
10
350.0
20
0.0
30
0.0
10
529.0
20
0.0
30
0.0
10
531.0
20
0.0
30
0.0
10
533.0
20
-2.0
30
0.0
10
533.0
20
-4.0
30
0.0
10
533.0
20
-9.0
30
0.0
10
534.0
20
-13.0
30
0.0
10
534.0
20
-18.0
30
0.0
10
534.0
20
-22.0
30
0.0
10
535.0
20
-27.0
30
0.0
10
535.0
20
-32.0
30
0.0
10
535.0
20
-37.0
30
0.0
10
535.0
20
-41.0
30
0.0
10
536.0
20
-46.0
30
0.0
10
536.0
20
-51.0
30
0.0
10
536.0
20
-56.0
30
0.0
10
536.0
20
-61.0
30
0.0
10
537.0
20
-65.0
30
0.0
10
537.0
20
-70.0
30
0.0
10
537.0
20
-75.0
30
0.0
10
537.0
20
-80.0
30
0.0
10
538.0
20
-84.0
30
0.0
10
538.0
20
-89.0
30
0.0
10
539.0
20
-94.0
30
0.0
10
539.0
20
-98.0
30
0.0
10
539.0
20
-103.0
30
0.0
10
540.0
20
-108.0
30
0.0
10
540.0
20
-113.0
30
0.0
10
541.0
20
-118.0
30
0.0
10
542.0
20
-122.0
30
0.0
10
542.0
20
-127.0
30
0.0
10
543.0
20
-132.0
30
0.0
10
543.0
20
-137.0
30
0.0
10
544.0
20
-142.0
30
0.0
10
545.0
20
-147.0
30
0.0
10
545.0
20
-152.0
30
0.0
10
546.0
20
-157.0
30
0.0
10
546.0
20
-161.0
30
0.0
10
547.0
20
-166.0
30
0.0
10
547.0
20
-171.0
30
0.0
10
548.0
20
-175.0
30
0.0
10
549.0
20
-180.0
30
0.0
10
549.0
20
-185.0
30
0.0
10
550.0
20
-189.0
30
0.0
10
551.0
20
-194.0
30
0.0
10
551.0
20
-198.0
30
0.0
10
552.0
20
-203.0
30
0.0
10
553.0
20
-207.0
30
0.0
10
554.0
20
-212.0
30
0.0
10
555.0
20
-216.0
30
0.0
10
555.0
20
-220.0
30
0.0
10
557.0
20
-225.0
30
0.0
10
559.0
20
-228.0
30
0.0
10
562.0
20
-229.0
30
0.0
10
566.0
20
-230.0
30
0.0
10
570.0
20
-230.0
30
0.0
10
575.0
20
-230.0
30
0.0
10
579.0
20
-229.0
30
0.0
10
582.0
20
-228.0
30
0.0
10
586.0
20
-227.0
30
0.0
10
590.0
20
-226.0
30
0.0
10
594.0
20
-225.0
30
0.0
10
598.0
20
-224.0
30
0.0
10
603.0
20
-223.0
30
0.0
10
607.0
20
-222.0
30
0.0
10
612.0
20
-221.0
30
0.0
10
616.0
20
-219.0
30
0.0
10
621.0
20
-218.0
30
0.0
10
622.0
20
-223.0
30
0.0
10
623.0
20
-228.0
30
0.0
10
623.0
20
-233.0
30
0.0
10
624.0
20
-238.0
30
0.0
10
625.0
20
-243.0
30
0.0
10
626.0
20
-248.0
30
0.0
10
627.0
20
-252.0
30
0.0
10
627.0
20
-257.0
30
0.0
10
628.0
20
-262.0
30
0.0
10
629.0
20
-267.0
30
0.0
10
630.0
20
-272.0
30
0.0
10
631.0
20
-277.0
30
0.0
10
632.0
20
-282.0
30
0.0
10
633.0
20
-286.0
30
0.0
10
634.0
20
-291.0
30
0.0
10
635.0
20
-296.0
30
0.0
10
636.0
20
-301.0
30
0.0
10
636.0
20
-306.0
30
0.0
10
637.0
20
-311.0
30
0.0
10
638.0
20
-315.0
30
0.0
10
639.0
20
-320.0
30
0.0
10
640.0
20
-325.0
30
0.0
10
641.0
20
-329.0
30
0.0
10
642.0
20
-334.0
30
0.0
10
643.0
20
-339.0
30
0.0
10
644.0
20
-343.0
30
0.0
10
645.0
20
-348.0
30
0.0
10
646.0
20
-352.0
30
0.0
10
647.0
20
-357.0
30
0.0
10
648.0
20
-361.0
30
0.0
10
649.0
20
-366.0
30
0.0
10
650.0
20
-371.0
30
0.0
10
651.0
20
-375.0
30
0.0
10
652.0
20
-380.0
30
0.0
10
653.0
20
-384.0
30
0.0
10
654.0
20
-389.0
30
0.0
10
655.0
20
-394.0
30
0.0
10
656.0
20
-398.0
30
0.0
10
658.0
20
-403.0
30
0.0
10
659.0
20
-408.0
30
0.0
10
660.0
20
-412.0
30
0.0
10
661.0
20
-417.0
30
0.0
10
662.0
20
-422.0
30
0.0
10
663.0
20
-426.0
30
0.0
10
664.0
20
-431.0
30
0.0
10
665.0
20
-436.0
30
0.0
10
666.0
20
-441.0
30
0.0
10
667.0
20
-445.0
30
0.0
10
668.0
20
-450.0
30
0.0
10
669.0
20
-455.0
30
0.0
10
670.0
20
-459.0
30
0.0
10
671.0
20
-464.0
30
0.0
10
672.0
20
-469.0
30
0.0
10
673.0
20
-473.0
30
0.0
10
674.0
20
-478.0
30
0.0
10
675.0
20
-483.0
30
0.0
10
676.0
20
-488.0
30
0.0
10
677.0
20
-493.0
30
0.0
10
678.0
20
-497.0
30
0.0
10
679.0
20
-502.0
30
0.0
10
680.0
20
-507.0
30
0.0
10
681.0
20
-512.0
30
0.0
10
682.0
20
-517.0
30
0.0
10
683.0
20
-522.0
30
0.0
10
684.0
20
-526.0
30
0.0
10
685.0
20
-531.0
30
0.0
10
686.0
20
-536.0
30
0.0
10
686.0
20
-541.0
30
0.0
10
687.0
20
-546.0
30
0.0
10
688.0
20
-550.0
30
0.0
10
689.0
20
-555.0
30
0.0
10
690.0
20
-560.0
30
0.0
10
691.0
20
-565.0
30
0.0
10
692.0
20
-569.0
30
0.0
10
693.0
20
-574.0
30
0.0
10
694.0
20
-578.0
30
0.0
10
694.0
20
-583.0
30
0.0
10
695.0
20
-587.0
30
0.0
10
696.0
20
-592.0
30
0.0
10
697.0
20
-596.0
30
0.0
10
698.0
20
-601.0
30
0.0
10
699.0
20
-605.0
30
0.0
10
699.0
20
-608.0
30
0.0
10
699.0
20
-610.0
30
0.0
10
700.0
20
-613.0
30
0.0
10
700.0
20
-616.0
30
0.0
10
700.0
20
-619.0
30
0.0
10
698.0
20
-621.0
30
0.0
10
695.0
20
-622.0
30
0.0
10
692.0
20
-623.0
30
0.0
10
688.0
20
-625.0
30
0.0
10
684.0
20
-626.0
30
0.0
10
680.0
20
-627.0
30
0.0
10
676.0
20
-629.0
30
0.0
10
672.0
20
-630.0
30
0.0
10
668.0
20
-632.0
30
0.0
10
664.0
20
-633.0
30
0.0
10
660.0
20
-634.0
30
0.0
10
655.0
20
-635.0
30
0.0
10
651.0
20
-637.0
30
0.0
10
666.0
20
-688.0
30
0.0
10
663.0
20
-690.0
30
0.0
10
661.0
20
-691.0
30
0.0
10
657.0
20
-694.0
30
0.0
10
652.0
20
-696.0
30
0.0
10
648.0
20
-698.0
30
0.0
10
644.0
20
-699.0
30
0.0
10
639.0
20
-701.0
30
0.0
10
635.0
20
-703.0
30
0.0
10
630.0
20
-704.0
30
0.0
10
626.0
20
-705.0
30
0.0
10
621.0
20
-707.0
30
0.0
10
617.0
20
-708.0
30
0.0
10
612.0
20
-709.0
30
0.0
10
607.0
20
-711.0
30
0.0
10
602.0
20
-712.0
30
0.0
10
597.0
20
-713.0
30
0.0
10
593.0
20
-714.0
30
0.0
10
588.0
20
-715.0
30
0.0
10
583.0
20
-717.0
30
0.0
10
578.0
20
-718.0
30
0.0
10
573.0
20
-718.0
30
0.0
10
568.0
20
-719.0
30
0.0
10
563.0
20
-720.0
30
0.0
10
559.0
20
-721.0
30
0.0
10
554.0
20
-722.0
30
0.0
10
549.0
20
-722.0
30
0.0
10
544.0
20
-723.0
30
0.0
10
539.0
20
-723.0
30
0.0
10
534.0
20
-724.0
30
0.0
10
530.0
20
-724.0
30
0.0
10
525.0
20
-725.0
30
0.0
10
520.0
20
-725.0
30
0.0
10
515.0
20
-725.0
30
0.0
10
510.0
20
-726.0
30
0.0
10
505.0
20
-726.0
30
0.0
10
500.0
20
-726.0
30
0.0
10
496.0
20
-726.0
30
0.0
10
491.0
20
-727.0
30
0.0
10
486.0
20
-727.0
30
0.0
10
481.0
20
-727.0
30
0.0
10
476.0
20
-728.0
30
0.0
10
471.0
20
-728.0
30
0.0
10
467.0
20
-728.0
30
0.0
10
462.0
20
-729.0
30
0.0
10
457.0
20
-729.0
30
0.0
10
452.0
20
-729.0
30
0.0
10
447.0
20
-729.0
30
0.0
10
443.0
20
-730.0
30
0.0
10
438.0
20
-730.0
30
0.0
10
433.0
20
-730.0
30
0.0
10
428.0
20
-730.0
30
0.0
10
423.0
20
-730.0
30
0.0
10
418.0
20
-731.0
30
0.0
10
414.0
20
-731.0
30
0.0
10
409.0
20
-731.0
30
0.0
10
404.0
20
-731.0
30
0.0
10
399.0
20
-731.0
30
0.0
10
394.0
20
-731.0
30
0.0
10
389.0
20
-731.0
30
0.0
10
384.0
20
-731.0
30
0.0
10
379.0
20
-731.0
30
0.0
10
374.0
20
-731.0
30
0.0
10
370.0
20
-731.0
30
0.0
10
365.0
20
-731.0
30
0.0
10
360.0
20
-731.0
30
0.0
10
355.0
20
-731.0
30
0.0
10
350.0
20
-731.0
30
0.0
10
345.0
20
-731.0
30
0.0
10
340.0
20
-731.0
30
0.0
10
335.0
20
-731.0
30
0.0
10
330.0
20
-731.0
30
0.0
10
326.0
20
-731.0
30
0.0
10
321.0
20
-731.0
30
0.0
10
316.0
20
-731.0
30
0.0
10
311.0
20
-731.0
30
0.0
10
306.0
20
-731.0
30
0.0
10
301.0
20
-731.0
30
0.0
10
296.0
20
-731.0
30
0.0
10
291.0
20
-731.0
30
0.0
10
286.0
20
-731.0
30
0.0
10
282.0
20
-731.0
30
0.0
10
277.0
20
-730.0
30
0.0
10
272.0
20
-730.0
30
0.0
10
267.0
20
-730.0
30
0.0
10
262.0
20
-730.0
30
0.0
10
257.0
20
-730.0
30
0.0
10
253.0
20
-729.0
30
0.0
10
248.0
20
-729.0
30
0.0
10
243.0
20
-729.0
30
0.0
10
238.0
20
-729.0
30
0.0
10
233.0
20
-728.0
30
0.0
10
229.0
20
-728.0
30
0.0
10
224.0
20
-728.0
30
0.0
10
219.0
20
-727.0
30
0.0
10
214.0
20
-727.0
30
0.0
10
209.0
20
-727.0
30
0.0
10
204.0
20
-726.0
30
0.0
10
199.0
20
-726.0
30
0.0
10
195.0
20
-726.0
30
0.0
10
190.0
20
-726.0
30
0.0
10
185.0
20
-725.0
30
0.0
10
180.0
20
-725.0
30
0.0
10
175.0
20
-725.0
30
0.0
10
170.0
20
-724.0
30
0.0
10
166.0
20
-724.0
30
0.0
10
161.0
20
-723.0
30
0.0
10
156.0
20
-723.0
30
0.0
10
151.0
20
-722.0
30
0.0
10
146.0
20
-722.0
30
0.0
10
141.0
20
-721.0
30
0.0
10
137.0
20
-720.0
30
0.0
10
132.0
20
-719.0
30
0.0
10
127.0
20
-718.0
30
0.0
10
122.0
20
-718.0
30
0.0
10
117.0
20
-717.0
30
0.0
10
112.0
20
-715.0
30
0.0
10
107.0
20
-714.0
30
0.0
10
103.0
20
-713.0
30
0.0
10
98.0
20
-712.0
30
0.0
10
93.0
20
-711.0
30
0.0
10
88.0
20
-709.0
30
0.0
10
83.0
20
-708.0
30
0.0
10
79.0
20
-707.0
30
0.0
10
74.0
20
-705.0
30
0.0
10
70.0
20
-704.0
30
0.0
10
65.0
20
-703.0
30
0.0
10
61.0
20
-701.0
30
0.0
10
56.0
20
-699.0
30
0.0
10
52.0
20
-698.0
30
0.0
10
48.0
20
-696.0
30
0.0
10
43.0
20
-694.0
30
0.0
10
39.0
20
-691.0
30
0.0
10
37.0
20
-690.0
30
0.0
10
34.0
20
-688.0
30
0.0
10
49.0
20
-637.0
30
0.0
10
45.0
20
-635.0
30
0.0
10
40.0
20
-634.0
30
0.0
10
36.0
20
-633.0
30
0.0
10
32.0
20
-632.0
30
0.0
10
28.0
20
-630.0
30
0.0
10
24.0
20
-629.0
30
0.0
10
20.0
20
-628.0
30
0.0
10
16.0
20
-626.0
30
0.0
10
12.0
20
-625.0
30
0.0
10
8.0
20
-623.0
30
0.0
10
4.0
20
-621.0
30
0.0
10
0.0
20
-619.0
30
0.0
10
0.0
20
-616.0
30
0.0
10
0.0
20
-613.0
30
0.0
10
0.0
20
-610.0
30
0.0
10
1.0
20
-608.0
30
0.0
10
1.0
20
-605.0
30
0.0
10
2.0
20
-601.0
30
0.0
10
3.0
20
-596.0
30
0.0
10
4.0
20
-592.0
30
0.0
10
5.0
20
-587.0
30
0.0
10
6.0
20
-583.0
30
0.0
10
6.0
20
-578.0
30
0.0
10
7.0
20
-574.0
30
0.0
10
8.0
20
-569.0
30
0.0
10
9.0
20
-565.0
30
0.0
10
10.0
20
-560.0
30
0.0
10
11.0
20
-555.0
30
0.0
10
12.0
20
-550.0
30
0.0
10
13.0
20
-546.0
30
0.0
10
13.0
20
-541.0
30
0.0
10
14.0
20
-536.0
30
0.0
10
15.0
20
-531.0
30
0.0
10
16.0
20
-526.0
30
0.0
10
17.0
20
-522.0
30
0.0
10
18.0
20
-517.0
30
0.0
10
19.0
20
-512.0
30
0.0
10
20.0
20
-507.0
30
0.0
10
21.0
20
-502.0
30
0.0
10
22.0
20
-497.0
30
0.0
10
23.0
20
-493.0
30
0.0
10
24.0
20
-488.0
30
0.0
10
25.0
20
-483.0
30
0.0
10
26.0
20
-478.0
30
0.0
10
27.0
20
-473.0
30
0.0
10
28.0
20
-469.0
30
0.0
10
29.0
20
-464.0
30
0.0
10
30.0
20
-459.0
30
0.0
10
31.0
20
-455.0
30
0.0
10
32.0
20
-450.0
30
0.0
10
33.0
20
-445.0
30
0.0
10
34.0
20
-441.0
30
0.0
10
35.0
20
-436.0
30
0.0
10
36.0
20
-431.0
30
0.0
10
37.0
20
-426.0
30
0.0
10
38.0
20
-422.0
30
0.0
10
39.0
20
-417.0
30
0.0
10
40.0
20
-412.0
30
0.0
10
41.0
20
-408.0
30
0.0
10
42.0
20
-403.0
30
0.0
10
43.0
20
-398.0
30
0.0
10
45.0
20
-394.0
30
0.0
10
46.0
20
-389.0
30
0.0
10
47.0
20
-384.0
30
0.0
10
48.0
20
-380.0
30
0.0
10
49.0
20
-375.0
30
0.0
10
50.0
20
-371.0
30
0.0
10
51.0
20
-366.0
30
0.0
10
52.0
20
-361.0
30
0.0
10
53.0
20
-357.0
30
0.0
10
54.0
20
-352.0
30
0.0
10
55.0
20
-348.0
30
0.0
10
56.0
20
-343.0
30
0.0
10
57.0
20
-339.0
30
0.0
10
58.0
20
-334.0
30
0.0
10
59.0
20
-329.0
30
0.0
10
60.0
20
-325.0
30
0.0
10
61.0
20
-320.0
30
0.0
10
62.0
20
-315.0
30
0.0
10
63.0
20
-311.0
30
0.0
10
63.0
20
-306.0
30
0.0
10
64.0
20
-301.0
30
0.0
10
65.0
20
-296.0
30
0.0
10
66.0
20
-291.0
30
0.0
10
67.0
20
-286.0
30
0.0
10
68.0
20
-282.0
30
0.0
10
69.0
20
-277.0
30
0.0
10
70.0
20
-272.0
30
0.0
10
71.0
20
-267.0
30
0.0
10
72.0
20
-262.0
30
0.0
10
73.0
20
-257.0
30
0.0
10
73.0
20
-252.0
30
0.0
10
74.0
20
-248.0
30
0.0
10
75.0
20
-243.0
30
0.0
10
76.0
20
-238.0
30
0.0
10
77.0
20
-233.0
30
0.0
10
77.0
20
-228.0
30
0.0
10
78.0
20
-223.0
30
0.0
10
79.0
20
-218.0
30
0.0
10
84.0
20
-219.0
30
0.0
6
Solid
370
35
62
0
0
LWPOLYLINE
5
34f
100
AcDbEntity
8
zone_0_q1
100
AcDbPolyline
90
26
70
1
10
165.0
20
-41.0
30
0.0
10
165.0
20
-37.0
30
0.0
10
165.0
20
-32.0
30
0.0
10
165.0
20
-27.0
30
0.0
10
166.0
20
-22.0
30
0.0
10
166.0
20
-18.0
30
0.0
10
166.0
20
-13.0
30
0.0
10
167.0
20
-9.0
30
0.0
10
167.0
20
-4.0
30
0.0
10
167.0
20
-2.0
30
0.0
10
169.0
20
0.0
30
0.0
10
171.0
20
0.0
30
0.0
10
350.0
20
0.0
30
0.0
10
529.0
20
0.0
30
0.0
10
531.0
20
0.0
30
0.0
10
533.0
20
-2.0
30
0.0
10
533.0
20
-4.0
30
0.0
10
533.0
20
-9.0
30
0.0
10
534.0
20
-13.0
30
0.0
10
534.0
20
-18.0
30
0.0
10
534.0
20
-22.0
30
0.0
10
535.0
20
-27.0
30
0.0
10
535.0
20
-32.0
30
0.0
10
535.0
20
-37.0
30
0.0
10
535.0
20
-41.0
30
0.0
10
165.0
20
-41.0
30
0.0
6
Solid
370
35
62
40
0
ENDSEC
0
SECTION
2
OBJECTS
0
DICTIONARY
5
34a
330
0
100
AcDbDictionary
281
1
3
ACAD_GROUP
350
34b
0
DICTIONARY
5
34b
330
34a
100
AcDbDictionary
281
1
0
ENDSEC
0
EOF
