999

0
SECTION
2
HEADER
9
$ACADVER
1
AC1021
9
$HANDSEED
5
376
0
ENDSEC
0
SECTION
2
CLASSES
0
ENDSEC
0
SECTION
2
TABLES
0
TABLE
2
VPORT
5
352
100
AcDbSymbolTable
70
1
0
VPORT
5
351
100
AcDbSymbolTableRecord
100
AcDbViewportTableRecord
2
*ACTIVE
10
0
20
0
11
1
21
1
12
500.0
22
500.0
40
1000.0
70
0
0
ENDTAB
0
TABLE
2
LTYPE
5
353
100
AcDbSymbolTable
70
3
0
LTYPE
5
35b
100
AcDbSymbolTableRecord
100
AcDbLinetypeTableRecord
2
Solid
70
0
72
65
73
0
3

0
LTYPE
5
35c
100
AcDbSymbolTableRecord
100
AcDbLinetypeTableRecord
2
ByBlock
70
0
72
65
73
0
3

0
LTYPE
5
35d
100
AcDbSymbolTableRecord
100
AcDbLinetypeTableRecord
2
ByLayer
70
0
72
65
73
0
3

0
ENDTAB
0
TABLE
2
LAYER
5
354
100
AcDbSymbolTable
70
5
0
LAYER
5
35e
100
AcDbSymbolTableRecord
100
AcDbLayerTableRecord
2
0
70
0
390
0
0
LAYER
5
36a
100
AcDbSymbolTableRecord
100
AcDbLayerTableRecord
2
zone_0_q1
70
0
390
0
0
LAYER
5
36d
100
AcDbSymbolTableRecord
100
AcDbLayerTableRecord
2
zone_1_q1
70
0
390
0
0
LAYER
5
370
100
AcDbSymbolTableRecord
100
AcDbLayerTableRecord
2
zone_2_q1
70
0
390
0
0
LAYER
5
373
100
AcDbSymbolTableRecord
100
AcDbLayerTableRecord
2
zone_3_q1
70
0
390
0
0
ENDTAB
0
TABLE
2
STYLE
5
355
100
AcDbSymbolTable
70
0
0
ENDTAB
0
TABLE
2
VIEW
5
356
100
AcDbSymbolTable
70
0
0
ENDTAB
0
TABLE
2
UCS
5
357
100
AcDbSymbolTable
70
0
0
ENDTAB
0
TABLE
2
APPID
5
358
100
AcDbSymbolTable
70
1
0
APPID
5
35f
100
AcDbSymbolTableRecord
100
AcDbRegAppTableRecord
2
ACAD
70
0
0
ENDTAB
0
TABLE
2
DIMSTYLE
5
359
100
AcDbSymbolTable
70
0
100
AcDbDimStyleTable
71
1
0
ENDTAB
0
TABLE
2
BLOCK_RECORD
5
35a
100
AcDbSymbolTable
70
2
0
BLOCK_RECORD
5
360
100
AcDbSymbolTableRecord
100
AcDbBlockTableRecord
2
*Model_Space
70
0
280
1
281
0
0
BLOCK_RECORD
5
361
100
AcDbSymbolTableRecord
100
AcDbBlockTableRecord
2
*Paper_Space
70
0
280
1
281
0
0
ENDTAB
0
ENDSEC
0
SECTION
2
BLOCKS
0
BLOCK
5
362
100
AcDbEntity
100
AcDbBlockBegin
2
*Model_Space
70
0
10
0
20
0
30
0
3
*Model_Space
1

0
ENDBLK
5
363
100
AcDbEntity
100
AcDbBlockEnd
0
BLOCK
5
364
100
AcDbEntity
100
AcDbBlockBegin
2
*Paper_Space
70
0
10
0
20
0
30
0
3
*Paper_Space
1

0
ENDBLK
5
365
100
AcDbEntity
100
AcDbBlockEnd
0
ENDSEC
0
SECTION
2
ENTITIES
0
LWPOLYLINE
5
368
100
AcDbEntity
100
AcDbPolyline
90
134
70
1
10
571.0
20
-46.0
30
0.0
10
617.0
20
-52.0
30
0.0
10
618.0
20
-52.0
30
0.0
10
620.0
20
-53.0
30
0.0
10
621.0
20
-54.0
30
0.0
10
622.0
20
-57.0
30
0.0
10
746.0
20
-524.0
30
0.0
10
645.0
20
-562.0
30
0.0
10
643.0
20
-882.0
30
0.0
10
643.0
20
-883.0
30
0.0
10
643.0
20
-884.0
30
0.0
10
642.0
20
-885.0
30
0.0
10
639.0
20
-886.0
30
0.0
10
635.0
20
-887.0
30
0.0
10
630.0
20
-887.0
30
0.0
10
625.0
20
-887.0
30
0.0
10
621.0
20
-887.0
30
0.0
10
616.0
20
-888.0
30
0.0
10
611.0
20
-888.0
30
0.0
10
606.0
20
-889.0
30
0.0
10
601.0
20
-889.0
30
0.0
10
597.0
20
-890.0
30
0.0
10
592.0
20
-890.0
30
0.0
10
587.0
20
-891.0
30
0.0
10
582.0
20
-891.0
30
0.0
10
577.0
20
-892.0
30
0.0
10
573.0
20
-893.0
30
0.0
10
568.0
20
-893.0
30
0.0
10
563.0
20
-894.0
30
0.0
10
558.0
20
-895.0
30
0.0
10
553.0
20
-895.0
30
0.0
10
549.0
20
-896.0
30
0.0
10
544.0
20
-896.0
30
0.0
10
539.0
20
-897.0
30
0.0
10
534.0
20
-897.0
30
0.0
10
529.0
20
-898.0
30
0.0
10
525.0
20
-898.0
30
0.0
10
520.0
20
-898.0
30
0.0
10
515.0
20
-899.0
30
0.0
10
510.0
20
-899.0
30
0.0
10
505.0
20
-900.0
30
0.0
10
501.0
20
-900.0
30
0.0
10
496.0
20
-900.0
30
0.0
10
491.0
20
-900.0
30
0.0
10
486.0
20
-901.0
30
0.0
10
481.0
20
-901.0
30
0.0
10
477.0
20
-901.0
30
0.0
10
472.0
20
-901.0
30
0.0
10
467.0
20
-902.0
30
0.0
10
462.0
20
-902.0
30
0.0
10
457.0
20
-902.0
30
0.0
10
453.0
20
-902.0
30
0.0
10
448.0
20
-902.0
30
0.0
10
443.0
20
-902.0
30
0.0
10
438.0
20
-902.0
30
0.0
10
433.0
20
-903.0
30
0.0
10
429.0
20
-903.0
30
0.0
10
424.0
20
-903.0
30
0.0
10
419.0
20
-903.0
30
0.0
10
414.0
20
-903.0
30
0.0
10
410.0
20
-903.0
30
0.0
10
405.0
20
-903.0
30
0.0
10
400.0
20
-903.0
30
0.0
10
395.0
20
-903.0
30
0.0
10
390.0
20
-903.0
30
0.0
10
386.0
20
-903.0
30
0.0
10
381.0
20
-903.0
30
0.0
10
376.0
20
-903.0
30
0.0
10
371.0
20
-903.0
30
0.0
10
366.0
20
-903.0
30
0.0
10
362.0
20
-903.0
30
0.0
10
357.0
20
-903.0
30
0.0
10
352.0
20
-903.0
30
0.0
10
347.0
20
-903.0
30
0.0
10
342.0
20
-903.0
30
0.0
10
338.0
20
-903.0
30
0.0
10
333.0
20
-903.0
30
0.0
10
328.0
20
-903.0
30
0.0
10
323.0
20
-903.0
30
0.0
10
318.0
20
-902.0
30
0.0
10
313.0
20
-902.0
30
0.0
10
309.0
20
-902.0
30
0.0
10
304.0
20
-902.0
30
0.0
10
299.0
20
-902.0
30
0.0
10
294.0
20
-902.0
30
0.0
10
289.0
20
-901.0
30
0.0
10
285.0
20
-901.0
30
0.0
10
280.0
20
-901.0
30
0.0
10
275.0
20
-901.0
30
0.0
10
270.0
20
-900.0
30
0.0
10
266.0
20
-900.0
30
0.0
10
261.0
20
-900.0
30
0.0
10
256.0
20
-900.0
30
0.0
10
252.0
20
-899.0
30
0.0
10
247.0
20
-899.0
30
0.0
10
242.0
20
-899.0
30
0.0
10
237.0
20
-898.0
30
0.0
10
233.0
20
-898.0
30
0.0
10
228.0
20
-897.0
30
0.0
10
223.0
20
-897.0
30
0.0
10
219.0
20
-897.0
30
0.0
10
214.0
20
-896.0
30
0.0
10
209.0
20
-896.0
30
0.0
10
205.0
20
-896.0
30
0.0
10
200.0
20
-895.0
30
0.0
10
195.0
20
-895.0
30
0.0
10
190.0
20
-894.0
30
0.0
10
186.0
20
-894.0
30
0.0
10
181.0
20
-893.0
30
0.0
10
176.0
20
-893.0
30
0.0
10
172.0
20
-892.0
30
0.0
10
167.0
20
-892.0
30
0.0
10
162.0
20
-891.0
30
0.0
10
158.0
20
-891.0
30
0.0
10
153.0
20
-890.0
30
0.0
10
148.0
20
-889.0
30
0.0
10
143.0
20
-889.0
30
0.0
10
138.0
20
-888.0
30
0.0
10
134.0
20
-887.0
30
0.0
10
129.0
20
-887.0
30
0.0
10
124.0
20
-886.0
30
0.0
10
119.0
20
-885.0
30
0.0
10
114.0
20
-884.0
30
0.0
10
109.0
20
-883.0
30
0.0
10
105.0
20
-882.0
30
0.0
10
100.0
20
-882.0
30
0.0
10
100.0
20
-561.0
30
0.0
10
0.0
20
-527.0
30
0.0
10
120.0
20
-58.0
30
0.0
10
121.0
20
-55.0
30
0.0
10
122.0
20
-53.0
30
0.0
10
123.0
20
-52.0
30
0.0
10
125.0
20
-51.0
30
0.0
10
571.0
20
-46.0
30
0.0
6
Solid
370
35
62
0
0
LWPOLYLINE
5
36b
100
AcDbEntity
8
zone_0_q1
100
AcDbPolyline
90
5
70
1
10
575.0
20
-51.0
30
0.0
10
171.0
20
-51.0
30
0.0
10
187.0
20
0.0
30
0.0
10
555.0
20
0.0
30
0.0
10
575.0
20
-51.0
30
0.0
6
Solid
370
35
62
40
0
LWPOLYLINE
5
36e
100
AcDbEntity
8
zone_1_q1
100
AcDbPolyline
90
9
70
1
10
100.0
20
-561.0
30
0.0
10
0.0
20
-527.0
30
0.0
10
120.0
20
-58.0
30
0.0
10
121.0
20
-55.0
30
0.0
10
122.0
20
-53.0
30
0.0
10
125.0
20
-51.0
30
0.0
10
123.0
20
-52.0
30
0.0
10
171.0
20
-51.0
30
0.0
10
100.0
20
-561.0
30
0.0
6
Solid
370
35
62
40
0
LWPOLYLINE
5
371
100
AcDbEntity
8
zone_2_q1
100
AcDbPolyline
90
9
70
1
10
571.0
20
-46.0
30
0.0
10
617.0
20
-52.0
30
0.0
10
618.0
20
-52.0
30
0.0
10
620.0
20
-53.0
30
0.0
10
621.0
20
-54.0
30
0.0
10
622.0
20
-57.0
30
0.0
10
746.0
20
-524.0
30
0.0
10
645.0
20
-562.0
30
0.0
10
571.0
20
-46.0
30
0.0
6
Solid
370
35
62
40
0
LWPOLYLINE
5
374
100
AcDbEntity
8
zone_3_q1
100
AcDbPolyline
90
119
70
1
10
643.0
20
-882.0
30
0.0
10
643.0
20
-883.0
30
0.0
10
643.0
20
-884.0
30
0.0
10
642.0
20
-885.0
30
0.0
10
639.0
20
-886.0
30
0.0
10
635.0
20
-887.0
30
0.0
10
630.0
20
-887.0
30
0.0
10
625.0
20
-887.0
30
0.0
10
621.0
20
-887.0
30
0.0
10
616.0
20
-888.0
30
0.0
10
611.0
20
-888.0
30
0.0
10
606.0
20
-889.0
30
0.0
10
601.0
20
-889.0
30
0.0
10
597.0
20
-890.0
30
0.0
10
592.0
20
-890.0
30
0.0
10
587.0
20
-891.0
30
0.0
10
582.0
20
-891.0
30
0.0
10
577.0
20
-892.0
30
0.0
10
573.0
20
-893.0
30
0.0
10
568.0
20
-893.0
30
0.0
10
563.0
20
-894.0
30
0.0
10
558.0
20
-895.0
30
0.0
10
553.0
20
-895.0
30
0.0
10
549.0
20
-896.0
30
0.0
10
544.0
20
-896.0
30
0.0
10
539.0
20
-897.0
30
0.0
10
534.0
20
-897.0
30
0.0
10
529.0
20
-898.0
30
0.0
10
525.0
20
-898.0
30
0.0
10
520.0
20
-898.0
30
0.0
10
515.0
20
-899.0
30
0.0
10
510.0
20
-899.0
30
0.0
10
505.0
20
-900.0
30
0.0
10
501.0
20
-900.0
30
0.0
10
496.0
20
-900.0
30
0.0
10
491.0
20
-900.0
30
0.0
10
486.0
20
-901.0
30
0.0
10
481.0
20
-901.0
30
0.0
10
477.0
20
-901.0
30
0.0
10
472.0
20
-901.0
30
0.0
10
467.0
20
-902.0
30
0.0
10
462.0
20
-902.0
30
0.0
10
457.0
20
-902.0
30
0.0
10
453.0
20
-902.0
30
0.0
10
448.0
20
-902.0
30
0.0
10
443.0
20
-902.0
30
0.0
10
438.0
20
-902.0
30
0.0
10
433.0
20
-903.0
30
0.0
10
429.0
20
-903.0
30
0.0
10
424.0
20
-903.0
30
0.0
10
419.0
20
-903.0
30
0.0
10
414.0
20
-903.0
30
0.0
10
410.0
20
-903.0
30
0.0
10
405.0
20
-903.0
30
0.0
10
400.0
20
-903.0
30
0.0
10
395.0
20
-903.0
30
0.0
10
390.0
20
-903.0
30
0.0
10
386.0
20
-903.0
30
0.0
10
381.0
20
-903.0
30
0.0
10
376.0
20
-903.0
30
0.0
10
371.0
20
-903.0
30
0.0
10
366.0
20
-903.0
30
0.0
10
362.0
20
-903.0
30
0.0
10
357.0
20
-903.0
30
0.0
10
352.0
20
-903.0
30
0.0
10
347.0
20
-903.0
30
0.0
10
342.0
20
-903.0
30
0.0
10
338.0
20
-903.0
30
0.0
10
333.0
20
-903.0
30
0.0
10
328.0
20
-903.0
30
0.0
10
323.0
20
-903.0
30
0.0
10
318.0
20
-902.0
30
0.0
10
313.0
20
-902.0
30
0.0
10
309.0
20
-902.0
30
0.0
10
304.0
20
-902.0
30
0.0
10
299.0
20
-902.0
30
0.0
10
294.0
20
-902.0
30
0.0
10
289.0
20
-901.0
30
0.0
10
285.0
20
-901.0
30
0.0
10
280.0
20
-901.0
30
0.0
10
275.0
20
-901.0
30
0.0
10
270.0
20
-900.0
30
0.0
10
266.0
20
-900.0
30
0.0
10
261.0
20
-900.0
30
0.0
10
256.0
20
-900.0
30
0.0
10
252.0
20
-899.0
30
0.0
10
247.0
20
-899.0
30
0.0
10
242.0
20
-899.0
30
0.0
10
237.0
20
-898.0
30
0.0
10
233.0
20
-898.0
30
0.0
10
228.0
20
-897.0
30
0.0
10
223.0
20
-897.0
30
0.0
10
219.0
20
-897.0
30
0.0
10
214.0
20
-896.0
30
0.0
10
209.0
20
-896.0
30
0.0
10
205.0
20
-896.0
30
0.0
10
200.0
20
-895.0
30
0.0
10
195.0
20
-895.0
30
0.0
10
190.0
20
-894.0
30
0.0
10
186.0
20
-894.0
30
0.0
10
181.0
20
-893.0
30
0.0
10
176.0
20
-893.0
30
0.0
10
172.0
20
-892.0
30
0.0
10
167.0
20
-892.0
30
0.0
10
162.0
20
-891.0
30
0.0
10
158.0
20
-891.0
30
0.0
10
153.0
20
-890.0
30
0.0
10
148.0
20
-889.0
30
0.0
10
143.0
20
-889.0
30
0.0
10
138.0
20
-888.0
30
0.0
10
134.0
20
-887.0
30
0.0
10
129.0
20
-887.0
30
0.0
10
124.0
20
-886.0
30
0.0
10
119.0
20
-885.0
30
0.0
10
114.0
20
-884.0
30
0.0
10
109.0
20
-883.0
30
0.0
10
105.0
20
-882.0
30
0.0
10
100.0
20
-882.0
30
0.0
10
643.0
20
-882.0
30
0.0
6
Solid
370
35
62
40
0
ENDSEC
0
SECTION
2
OBJECTS
0
DICTIONARY
5
366
330
0
100
AcDbDictionary
281
1
3
ACAD_GROUP
350
367
0
DICTIONARY
5
367
330
366
100
AcDbDictionary
281
1
0
ENDSEC
0
EOF
