999

0
SECTION
2
HEADER
9
$ACADVER
1
AC1021
9
$HANDSEED
5
1c6
0
ENDSEC
0
SECTION
2
CLASSES
0
ENDSEC
0
SECTION
2
TABLES
0
TABLE
2
VPORT
5
1ab
100
AcDbSymbolTable
70
1
0
VPORT
5
1aa
100
AcDbSymbolTableRecord
100
AcDbViewportTableRecord
2
*ACTIVE
10
0
20
0
11
1
21
1
12
500.0
22
500.0
40
1000.0
70
0
0
ENDTAB
0
TABLE
2
LTYPE
5
1ac
100
AcDbSymbolTable
70
3
0
LTYPE
5
1b4
100
AcDbSymbolTableRecord
100
AcDbLinetypeTableRecord
2
Solid
70
0
72
65
73
0
3

0
LTYPE
5
1b5
100
AcDbSymbolTableRecord
100
AcDbLinetypeTableRecord
2
ByBlock
70
0
72
65
73
0
3

0
LTYPE
5
1b6
100
AcDbSymbolTableRecord
100
AcDbLinetypeTableRecord
2
ByLayer
70
0
72
65
73
0
3

0
ENDTAB
0
TABLE
2
LAYER
5
1ad
100
AcDbSymbolTable
70
2
0
LAYER
5
1b7
100
AcDbSymbolTableRecord
100
AcDbLayerTableRecord
2
0
70
0
390
0
0
LAYER
5
1c3
100
AcDbSymbolTableRecord
100
AcDbLayerTableRecord
2
zone_0_q4
70
0
390
0
0
ENDTAB
0
TABLE
2
STYLE
5
1ae
100
AcDbSymbolTable
70
0
0
ENDTAB
0
TABLE
2
VIEW
5
1af
100
AcDbSymbolTable
70
0
0
ENDTAB
0
TABLE
2
UCS
5
1b0
100
AcDbSymbolTable
70
0
0
ENDTAB
0
TABLE
2
APPID
5
1b1
100
AcDbSymbolTable
70
1
0
APPID
5
1b8
100
AcDbSymbolTableRecord
100
AcDbRegAppTableRecord
2
ACAD
70
0
0
ENDTAB
0
TABLE
2
DIMSTYLE
5
1b2
100
AcDbSymbolTable
70
0
100
AcDbDimStyleTable
71
1
0
ENDTAB
0
TABLE
2
BLOCK_RECORD
5
1b3
100
AcDbSymbolTable
70
2
0
BLOCK_RECORD
5
1b9
100
AcDbSymbolTableRecord
100
AcDbBlockTableRecord
2
*Model_Space
70
0
280
1
281
0
0
BLOCK_RECORD
5
1ba
100
AcDbSymbolTableRecord
100
AcDbBlockTableRecord
2
*Paper_Space
70
0
280
1
281
0
0
ENDTAB
0
ENDSEC
0
SECTION
2
BLOCKS
0
BLOCK
5
1bb
100
AcDbEntity
100
AcDbBlockBegin
2
*Model_Space
70
0
10
0
20
0
30
0
3
*Model_Space
1

0
ENDBLK
5
1bc
100
AcDbEntity
100
AcDbBlockEnd
0
BLOCK
5
1bd
100
AcDbEntity
100
AcDbBlockBegin
2
*Paper_Space
70
0
10
0
20
0
30
0
3
*Paper_Space
1

0
ENDBLK
5
1be
100
AcDbEntity
100
AcDbBlockEnd
0
ENDSEC
0
SECTION
2
ENTITIES
0
LWPOLYLINE
5
1c1
100
AcDbEntity
100
AcDbPolyline
90
661
70
1
10
773.0
20
-2.0
30
0.0
10
777.0
20
-2.0
30
0.0
10
782.0
20
-2.0
30
0.0
10
787.0
20
-2.0
30
0.0
10
792.0
20
-2.0
30
0.0
10
796.0
20
-2.0
30
0.0
10
801.0
20
-2.0
30
0.0
10
806.0
20
-2.0
30
0.0
10
810.0
20
-3.0
30
0.0
10
815.0
20
-3.0
30
0.0
10
820.0
20
-3.0
30
0.0
10
825.0
20
-3.0
30
0.0
10
829.0
20
-3.0
30
0.0
10
834.0
20
-3.0
30
0.0
10
839.0
20
-3.0
30
0.0
10
844.0
20
-3.0
30
0.0
10
849.0
20
-3.0
30
0.0
10
854.0
20
-3.0
30
0.0
10
859.0
20
-3.0
30
0.0
10
864.0
20
-3.0
30
0.0
10
869.0
20
-3.0
30
0.0
10
874.0
20
-3.0
30
0.0
10
879.0
20
-3.0
30
0.0
10
884.0
20
-3.0
30
0.0
10
889.0
20
-3.0
30
0.0
10
893.0
20
-3.0
30
0.0
10
898.0
20
-3.0
30
0.0
10
903.0
20
-3.0
30
0.0
10
908.0
20
-3.0
30
0.0
10
913.0
20
-3.0
30
0.0
10
918.0
20
-4.0
30
0.0
10
923.0
20
-4.0
30
0.0
10
928.0
20
-4.0
30
0.0
10
933.0
20
-4.0
30
0.0
10
937.0
20
-4.0
30
0.0
10
942.0
20
-4.0
30
0.0
10
947.0
20
-4.0
30
0.0
10
952.0
20
-4.0
30
0.0
10
957.0
20
-4.0
30
0.0
10
962.0
20
-5.0
30
0.0
10
966.0
20
-5.0
30
0.0
10
971.0
20
-5.0
30
0.0
10
976.0
20
-5.0
30
0.0
10
981.0
20
-5.0
30
0.0
10
986.0
20
-5.0
30
0.0
10
991.0
20
-5.0
30
0.0
10
995.0
20
-6.0
30
0.0
10
1000.0
20
-6.0
30
0.0
10
1005.0
20
-6.0
30
0.0
10
1010.0
20
-6.0
30
0.0
10
1015.0
20
-6.0
30
0.0
10
1020.0
20
-6.0
30
0.0
10
1024.0
20
-6.0
30
0.0
10
1029.0
20
-7.0
30
0.0
10
1034.0
20
-7.0
30
0.0
10
1039.0
20
-7.0
30
0.0
10
1044.0
20
-7.0
30
0.0
10
1049.0
20
-7.0
30
0.0
10
1054.0
20
-7.0
30
0.0
10
1059.0
20
-8.0
30
0.0
10
1064.0
20
-8.0
30
0.0
10
1069.0
20
-8.0
30
0.0
10
1074.0
20
-8.0
30
0.0
10
1079.0
20
-8.0
30
0.0
10
1084.0
20
-8.0
30
0.0
10
1089.0
20
-8.0
30
0.0
10
1094.0
20
-9.0
30
0.0
10
1099.0
20
-9.0
30
0.0
10
1104.0
20
-9.0
30
0.0
10
1109.0
20
-9.0
30
0.0
10
1114.0
20
-9.0
30
0.0
10
1119.0
20
-10.0
30
0.0
10
1124.0
20
-10.0
30
0.0
10
1129.0
20
-10.0
30
0.0
10
1134.0
20
-10.0
30
0.0
10
1139.0
20
-10.0
30
0.0
10
1144.0
20
-11.0
30
0.0
10
1149.0
20
-11.0
30
0.0
10
1154.0
20
-11.0
30
0.0
10
1159.0
20
-12.0
30
0.0
10
1164.0
20
-12.0
30
0.0
10
1168.0
20
-12.0
30
0.0
10
1173.0
20
-12.0
30
0.0
10
1178.0
20
-13.0
30
0.0
10
1183.0
20
-13.0
30
0.0
10
1188.0
20
-13.0
30
0.0
10
1193.0
20
-14.0
30
0.0
10
1198.0
20
-14.0
30
0.0
10
1202.0
20
-14.0
30
0.0
10
1207.0
20
-15.0
30
0.0
10
1212.0
20
-15.0
30
0.0
10
1217.0
20
-15.0
30
0.0
10
1222.0
20
-16.0
30
0.0
10
1227.0
20
-16.0
30
0.0
10
1232.0
20
-17.0
30
0.0
10
1236.0
20
-17.0
30
0.0
10
1241.0
20
-17.0
30
0.0
10
1246.0
20
-18.0
30
0.0
10
1251.0
20
-18.0
30
0.0
10
1256.0
20
-18.0
30
0.0
10
1260.0
20
-19.0
30
0.0
10
1265.0
20
-19.0
30
0.0
10
1270.0
20
-19.0
30
0.0
10
1275.0
20
-20.0
30
0.0
10
1279.0
20
-20.0
30
0.0
10
1284.0
20
-20.0
30
0.0
10
1289.0
20
-21.0
30
0.0
10
1294.0
20
-21.0
30
0.0
10
1298.0
20
-21.0
30
0.0
10
1303.0
20
-22.0
30
0.0
10
1308.0
20
-22.0
30
0.0
10
1313.0
20
-22.0
30
0.0
10
1317.0
20
-23.0
30
0.0
10
1322.0
20
-23.0
30
0.0
10
1327.0
20
-24.0
30
0.0
10
1332.0
20
-24.0
30
0.0
10
1336.0
20
-24.0
30
0.0
10
1341.0
20
-25.0
30
0.0
10
1346.0
20
-25.0
30
0.0
10
1350.0
20
-26.0
30
0.0
10
1355.0
20
-26.0
30
0.0
10
1360.0
20
-26.0
30
0.0
10
1364.0
20
-27.0
30
0.0
10
1369.0
20
-27.0
30
0.0
10
1374.0
20
-28.0
30
0.0
10
1378.0
20
-28.0
30
0.0
10
1379.0
20
-30.0
30
0.0
10
1379.0
20
-33.0
30
0.0
10
1379.0
20
-38.0
30
0.0
10
1379.0
20
-42.0
30
0.0
10
1379.0
20
-46.0
30
0.0
10
1379.0
20
-50.0
30
0.0
10
1379.0
20
-55.0
30
0.0
10
1379.0
20
-59.0
30
0.0
10
1379.0
20
-64.0
30
0.0
10
1380.0
20
-68.0
30
0.0
10
1380.0
20
-72.0
30
0.0
10
1380.0
20
-77.0
30
0.0
10
1380.0
20
-81.0
30
0.0
10
1381.0
20
-86.0
30
0.0
10
1381.0
20
-91.0
30
0.0
10
1382.0
20
-96.0
30
0.0
10
1383.0
20
-100.0
30
0.0
10
1384.0
20
-105.0
30
0.0
10
1385.0
20
-110.0
30
0.0
10
1387.0
20
-114.0
30
0.0
10
1388.0
20
-119.0
30
0.0
10
1390.0
20
-124.0
30
0.0
10
1392.0
20
-129.0
30
0.0
10
1393.0
20
-133.0
30
0.0
10
1395.0
20
-138.0
30
0.0
10
1397.0
20
-142.0
30
0.0
10
1399.0
20
-146.0
30
0.0
10
1401.0
20
-149.0
30
0.0
10
1402.0
20
-153.0
30
0.0
10
1404.0
20
-157.0
30
0.0
10
1407.0
20
-160.0
30
0.0
10
1409.0
20
-164.0
30
0.0
10
1412.0
20
-168.0
30
0.0
10
1414.0
20
-172.0
30
0.0
10
1417.0
20
-175.0
30
0.0
10
1420.0
20
-179.0
30
0.0
10
1422.0
20
-182.0
30
0.0
10
1425.0
20
-185.0
30
0.0
10
1428.0
20
-189.0
30
0.0
10
1430.0
20
-192.0
30
0.0
10
1432.0
20
-194.0
30
0.0
10
1432.0
20
-195.0
30
0.0
10
1430.0
20
-198.0
30
0.0
10
1412.0
20
-221.0
30
0.0
10
1408.0
20
-219.0
30
0.0
10
1403.0
20
-218.0
30
0.0
10
1399.0
20
-216.0
30
0.0
10
1394.0
20
-214.0
30
0.0
10
1390.0
20
-213.0
30
0.0
10
1385.0
20
-211.0
30
0.0
10
1381.0
20
-209.0
30
0.0
10
1377.0
20
-208.0
30
0.0
10
1372.0
20
-206.0
30
0.0
10
1368.0
20
-205.0
30
0.0
10
1364.0
20
-203.0
30
0.0
10
1359.0
20
-202.0
30
0.0
10
1355.0
20
-200.0
30
0.0
10
1351.0
20
-199.0
30
0.0
10
1346.0
20
-197.0
30
0.0
10
1342.0
20
-196.0
30
0.0
10
1337.0
20
-194.0
30
0.0
10
1333.0
20
-193.0
30
0.0
10
1329.0
20
-192.0
30
0.0
10
1324.0
20
-190.0
30
0.0
10
1319.0
20
-189.0
30
0.0
10
1314.0
20
-188.0
30
0.0
10
1310.0
20
-186.0
30
0.0
10
1305.0
20
-185.0
30
0.0
10
1300.0
20
-184.0
30
0.0
10
1295.0
20
-183.0
30
0.0
10
1290.0
20
-182.0
30
0.0
10
1285.0
20
-180.0
30
0.0
10
1280.0
20
-179.0
30
0.0
10
1276.0
20
-178.0
30
0.0
10
1271.0
20
-177.0
30
0.0
10
1266.0
20
-176.0
30
0.0
10
1261.0
20
-175.0
30
0.0
10
1257.0
20
-174.0
30
0.0
10
1252.0
20
-173.0
30
0.0
10
1247.0
20
-172.0
30
0.0
10
1243.0
20
-171.0
30
0.0
10
1238.0
20
-170.0
30
0.0
10
1233.0
20
-170.0
30
0.0
10
1229.0
20
-169.0
30
0.0
10
1224.0
20
-168.0
30
0.0
10
1220.0
20
-167.0
30
0.0
10
1215.0
20
-166.0
30
0.0
10
1210.0
20
-165.0
30
0.0
10
1206.0
20
-165.0
30
0.0
10
1201.0
20
-164.0
30
0.0
10
1196.0
20
-163.0
30
0.0
10
1191.0
20
-162.0
30
0.0
10
1187.0
20
-161.0
30
0.0
10
1182.0
20
-161.0
30
0.0
10
1177.0
20
-160.0
30
0.0
10
1172.0
20
-159.0
30
0.0
10
1167.0
20
-159.0
30
0.0
10
1162.0
20
-158.0
30
0.0
10
1158.0
20
-157.0
30
0.0
10
1153.0
20
-157.0
30
0.0
10
1148.0
20
-156.0
30
0.0
10
1143.0
20
-156.0
30
0.0
10
1138.0
20
-155.0
30
0.0
10
1133.0
20
-155.0
30
0.0
10
1128.0
20
-155.0
30
0.0
10
1123.0
20
-154.0
30
0.0
10
1119.0
20
-154.0
30
0.0
10
1114.0
20
-154.0
30
0.0
10
1109.0
20
-154.0
30
0.0
10
1104.0
20
-154.0
30
0.0
10
1099.0
20
-154.0
30
0.0
10
1094.0
20
-154.0
30
0.0
10
1089.0
20
-154.0
30
0.0
10
1084.0
20
-154.0
30
0.0
10
1079.0
20
-154.0
30
0.0
10
1074.0
20
-154.0
30
0.0
10
1069.0
20
-154.0
30
0.0
10
1064.0
20
-154.0
30
0.0
10
1059.0
20
-154.0
30
0.0
10
1054.0
20
-154.0
30
0.0
10
1050.0
20
-155.0
30
0.0
10
1045.0
20
-155.0
30
0.0
10
1040.0
20
-155.0
30
0.0
10
1035.0
20
-155.0
30
0.0
10
1030.0
20
-156.0
30
0.0
10
1026.0
20
-156.0
30
0.0
10
1021.0
20
-156.0
30
0.0
10
1016.0
20
-156.0
30
0.0
10
1011.0
20
-157.0
30
0.0
10
1006.0
20
-157.0
30
0.0
10
1002.0
20
-157.0
30
0.0
10
997.0
20
-158.0
30
0.0
10
992.0
20
-158.0
30
0.0
10
987.0
20
-158.0
30
0.0
10
982.0
20
-159.0
30
0.0
10
977.0
20
-159.0
30
0.0
10
972.0
20
-159.0
30
0.0
10
967.0
20
-160.0
30
0.0
10
962.0
20
-160.0
30
0.0
10
957.0
20
-160.0
30
0.0
10
952.0
20
-160.0
30
0.0
10
947.0
20
-161.0
30
0.0
10
943.0
20
-161.0
30
0.0
10
938.0
20
-161.0
30
0.0
10
933.0
20
-161.0
30
0.0
10
928.0
20
-161.0
30
0.0
10
924.0
20
-161.0
30
0.0
10
919.0
20
-161.0
30
0.0
10
914.0
20
-161.0
30
0.0
10
909.0
20
-161.0
30
0.0
10
904.0
20
-161.0
30
0.0
10
900.0
20
-161.0
30
0.0
10
895.0
20
-161.0
30
0.0
10
890.0
20
-161.0
30
0.0
10
885.0
20
-161.0
30
0.0
10
880.0
20
-161.0
30
0.0
10
875.0
20
-161.0
30
0.0
10
870.0
20
-161.0
30
0.0
10
865.0
20
-161.0
30
0.0
10
861.0
20
-161.0
30
0.0
10
856.0
20
-161.0
30
0.0
10
851.0
20
-161.0
30
0.0
10
846.0
20
-161.0
30
0.0
10
841.0
20
-161.0
30
0.0
10
836.0
20
-161.0
30
0.0
10
831.0
20
-161.0
30
0.0
10
826.0
20
-161.0
30
0.0
10
821.0
20
-161.0
30
0.0
10
816.0
20
-161.0
30
0.0
10
812.0
20
-161.0
30
0.0
10
807.0
20
-161.0
30
0.0
10
802.0
20
-161.0
30
0.0
10
797.0
20
-161.0
30
0.0
10
792.0
20
-161.0
30
0.0
10
787.0
20
-161.0
30
0.0
10
782.0
20
-161.0
30
0.0
10
777.0
20
-161.0
30
0.0
10
772.0
20
-161.0
30
0.0
10
767.0
20
-161.0
30
0.0
10
762.0
20
-161.0
30
0.0
10
758.0
20
-161.0
30
0.0
10
753.0
20
-161.0
30
0.0
10
748.0
20
-161.0
30
0.0
10
743.0
20
-160.0
30
0.0
10
738.0
20
-160.0
30
0.0
10
733.0
20
-160.0
30
0.0
10
728.0
20
-160.0
30
0.0
10
723.0
20
-160.0
30
0.0
10
718.0
20
-160.0
30
0.0
10
714.0
20
-160.0
30
0.0
10
709.0
20
-160.0
30
0.0
10
704.0
20
-160.0
30
0.0
10
699.0
20
-160.0
30
0.0
10
694.0
20
-160.0
30
0.0
10
689.0
20
-160.0
30
0.0
10
685.0
20
-160.0
30
0.0
10
680.0
20
-160.0
30
0.0
10
675.0
20
-160.0
30
0.0
10
670.0
20
-160.0
30
0.0
10
666.0
20
-160.0
30
0.0
10
661.0
20
-160.0
30
0.0
10
656.0
20
-160.0
30
0.0
10
651.0
20
-160.0
30
0.0
10
647.0
20
-160.0
30
0.0
10
642.0
20
-160.0
30
0.0
10
637.0
20
-160.0
30
0.0
10
633.0
20
-160.0
30
0.0
10
628.0
20
-160.0
30
0.0
10
623.0
20
-160.0
30
0.0
10
618.0
20
-160.0
30
0.0
10
614.0
20
-160.0
30
0.0
10
609.0
20
-160.0
30
0.0
10
604.0
20
-160.0
30
0.0
10
599.0
20
-160.0
30
0.0
10
595.0
20
-160.0
30
0.0
10
590.0
20
-160.0
30
0.0
10
585.0
20
-160.0
30
0.0
10
580.0
20
-160.0
30
0.0
10
576.0
20
-160.0
30
0.0
10
571.0
20
-160.0
30
0.0
10
566.0
20
-160.0
30
0.0
10
561.0
20
-160.0
30
0.0
10
557.0
20
-160.0
30
0.0
10
552.0
20
-160.0
30
0.0
10
547.0
20
-160.0
30
0.0
10
542.0
20
-160.0
30
0.0
10
538.0
20
-160.0
30
0.0
10
533.0
20
-160.0
30
0.0
10
528.0
20
-160.0
30
0.0
10
523.0
20
-160.0
30
0.0
10
519.0
20
-160.0
30
0.0
10
514.0
20
-160.0
30
0.0
10
509.0
20
-159.0
30
0.0
10
504.0
20
-159.0
30
0.0
10
500.0
20
-159.0
30
0.0
10
495.0
20
-159.0
30
0.0
10
490.0
20
-159.0
30
0.0
10
486.0
20
-158.0
30
0.0
10
481.0
20
-158.0
30
0.0
10
476.0
20
-158.0
30
0.0
10
472.0
20
-158.0
30
0.0
10
467.0
20
-157.0
30
0.0
10
462.0
20
-157.0
30
0.0
10
458.0
20
-156.0
30
0.0
10
453.0
20
-156.0
30
0.0
10
448.0
20
-156.0
30
0.0
10
444.0
20
-155.0
30
0.0
10
439.0
20
-155.0
30
0.0
10
435.0
20
-154.0
30
0.0
10
430.0
20
-154.0
30
0.0
10
426.0
20
-153.0
30
0.0
10
421.0
20
-153.0
30
0.0
10
417.0
20
-152.0
30
0.0
10
412.0
20
-152.0
30
0.0
10
408.0
20
-151.0
30
0.0
10
403.0
20
-151.0
30
0.0
10
398.0
20
-150.0
30
0.0
10
394.0
20
-150.0
30
0.0
10
389.0
20
-149.0
30
0.0
10
385.0
20
-149.0
30
0.0
10
380.0
20
-149.0
30
0.0
10
376.0
20
-148.0
30
0.0
10
371.0
20
-148.0
30
0.0
10
366.0
20
-148.0
30
0.0
10
362.0
20
-148.0
30
0.0
10
357.0
20
-148.0
30
0.0
10
353.0
20
-148.0
30
0.0
10
348.0
20
-148.0
30
0.0
10
344.0
20
-148.0
30
0.0
10
339.0
20
-148.0
30
0.0
10
334.0
20
-148.0
30
0.0
10
329.0
20
-148.0
30
0.0
10
324.0
20
-148.0
30
0.0
10
319.0
20
-148.0
30
0.0
10
314.0
20
-148.0
30
0.0
10
309.0
20
-148.0
30
0.0
10
305.0
20
-148.0
30
0.0
10
300.0
20
-148.0
30
0.0
10
295.0
20
-149.0
30
0.0
10
290.0
20
-149.0
30
0.0
10
286.0
20
-149.0
30
0.0
10
281.0
20
-149.0
30
0.0
10
276.0
20
-150.0
30
0.0
10
272.0
20
-150.0
30
0.0
10
267.0
20
-150.0
30
0.0
10
262.0
20
-151.0
30
0.0
10
258.0
20
-151.0
30
0.0
10
253.0
20
-152.0
30
0.0
10
248.0
20
-152.0
30
0.0
10
244.0
20
-153.0
30
0.0
10
239.0
20
-153.0
30
0.0
10
234.0
20
-154.0
30
0.0
10
229.0
20
-154.0
30
0.0
10
224.0
20
-155.0
30
0.0
10
219.0
20
-156.0
30
0.0
10
214.0
20
-156.0
30
0.0
10
209.0
20
-157.0
30
0.0
10
205.0
20
-158.0
30
0.0
10
200.0
20
-159.0
30
0.0
10
195.0
20
-159.0
30
0.0
10
190.0
20
-160.0
30
0.0
10
185.0
20
-161.0
30
0.0
10
181.0
20
-162.0
30
0.0
10
176.0
20
-163.0
30
0.0
10
172.0
20
-163.0
30
0.0
10
167.0
20
-164.0
30
0.0
10
163.0
20
-165.0
30
0.0
10
159.0
20
-166.0
30
0.0
10
154.0
20
-167.0
30
0.0
10
150.0
20
-168.0
30
0.0
10
145.0
20
-169.0
30
0.0
10
141.0
20
-170.0
30
0.0
10
136.0
20
-171.0
30
0.0
10
131.0
20
-172.0
30
0.0
10
127.0
20
-173.0
30
0.0
10
122.0
20
-174.0
30
0.0
10
117.0
20
-175.0
30
0.0
10
113.0
20
-177.0
30
0.0
10
108.0
20
-178.0
30
0.0
10
103.0
20
-179.0
30
0.0
10
99.0
20
-180.0
30
0.0
10
94.0
20
-182.0
30
0.0
10
89.0
20
-183.0
30
0.0
10
85.0
20
-184.0
30
0.0
10
80.0
20
-186.0
30
0.0
10
76.0
20
-187.0
30
0.0
10
71.0
20
-189.0
30
0.0
10
66.0
20
-190.0
30
0.0
10
62.0
20
-192.0
30
0.0
10
57.0
20
-193.0
30
0.0
10
53.0
20
-195.0
30
0.0
10
49.0
20
-196.0
30
0.0
10
45.0
20
-197.0
30
0.0
10
40.0
20
-199.0
30
0.0
10
36.0
20
-200.0
30
0.0
10
32.0
20
-201.0
30
0.0
10
27.0
20
-203.0
30
0.0
10
22.0
20
-204.0
30
0.0
10
18.0
20
-206.0
30
0.0
10
15.0
20
-206.0
30
0.0
10
14.0
20
-206.0
30
0.0
10
12.0
20
-204.0
30
0.0
10
1.0
20
-187.0
30
0.0
10
0.0
20
-185.0
30
0.0
10
0.0
20
-184.0
30
0.0
10
0.0
20
-182.0
30
0.0
10
1.0
20
-180.0
30
0.0
10
3.0
20
-177.0
30
0.0
10
6.0
20
-174.0
30
0.0
10
9.0
20
-170.0
30
0.0
10
11.0
20
-167.0
30
0.0
10
14.0
20
-164.0
30
0.0
10
17.0
20
-160.0
30
0.0
10
20.0
20
-157.0
30
0.0
10
22.0
20
-153.0
30
0.0
10
25.0
20
-149.0
30
0.0
10
27.0
20
-145.0
30
0.0
10
30.0
20
-141.0
30
0.0
10
32.0
20
-137.0
30
0.0
10
34.0
20
-133.0
30
0.0
10
36.0
20
-129.0
30
0.0
10
38.0
20
-126.0
30
0.0
10
40.0
20
-122.0
30
0.0
10
41.0
20
-118.0
30
0.0
10
43.0
20
-114.0
30
0.0
10
44.0
20
-109.0
30
0.0
10
46.0
20
-105.0
30
0.0
10
47.0
20
-100.0
30
0.0
10
48.0
20
-96.0
30
0.0
10
49.0
20
-91.0
30
0.0
10
50.0
20
-86.0
30
0.0
10
51.0
20
-81.0
30
0.0
10
52.0
20
-77.0
30
0.0
10
53.0
20
-72.0
30
0.0
10
54.0
20
-67.0
30
0.0
10
55.0
20
-63.0
30
0.0
10
55.0
20
-58.0
30
0.0
10
56.0
20
-54.0
30
0.0
10
56.0
20
-49.0
30
0.0
10
57.0
20
-45.0
30
0.0
10
57.0
20
-41.0
30
0.0
10
57.0
20
-37.0
30
0.0
10
57.0
20
-32.0
30
0.0
10
57.0
20
-28.0
30
0.0
10
57.0
20
-24.0
30
0.0
10
57.0
20
-19.0
30
0.0
10
56.0
20
-15.0
30
0.0
10
61.0
20
-15.0
30
0.0
10
66.0
20
-15.0
30
0.0
10
70.0
20
-14.0
30
0.0
10
75.0
20
-14.0
30
0.0
10
80.0
20
-14.0
30
0.0
10
85.0
20
-14.0
30
0.0
10
89.0
20
-14.0
30
0.0
10
94.0
20
-13.0
30
0.0
10
99.0
20
-13.0
30
0.0
10
103.0
20
-13.0
30
0.0
10
108.0
20
-13.0
30
0.0
10
113.0
20
-13.0
30
0.0
10
117.0
20
-12.0
30
0.0
10
122.0
20
-12.0
30
0.0
10
127.0
20
-12.0
30
0.0
10
132.0
20
-12.0
30
0.0
10
137.0
20
-11.0
30
0.0
10
142.0
20
-11.0
30
0.0
10
147.0
20
-11.0
30
0.0
10
152.0
20
-11.0
30
0.0
10
157.0
20
-11.0
30
0.0
10
162.0
20
-10.0
30
0.0
10
167.0
20
-10.0
30
0.0
10
172.0
20
-10.0
30
0.0
10
177.0
20
-10.0
30
0.0
10
182.0
20
-10.0
30
0.0
10
187.0
20
-9.0
30
0.0
10
192.0
20
-9.0
30
0.0
10
196.0
20
-9.0
30
0.0
10
201.0
20
-9.0
30
0.0
10
206.0
20
-9.0
30
0.0
10
211.0
20
-8.0
30
0.0
10
216.0
20
-8.0
30
0.0
10
221.0
20
-8.0
30
0.0
10
226.0
20
-8.0
30
0.0
10
231.0
20
-8.0
30
0.0
10
236.0
20
-7.0
30
0.0
10
241.0
20
-7.0
30
0.0
10
246.0
20
-7.0
30
0.0
10
251.0
20
-7.0
30
0.0
10
256.0
20
-7.0
30
0.0
10
260.0
20
-7.0
30
0.0
10
265.0
20
-6.0
30
0.0
10
270.0
20
-6.0
30
0.0
10
275.0
20
-6.0
30
0.0
10
280.0
20
-6.0
30
0.0
10
285.0
20
-6.0
30
0.0
10
289.0
20
-5.0
30
0.0
10
294.0
20
-5.0
30
0.0
10
299.0
20
-5.0
30
0.0
10
304.0
20
-5.0
30
0.0
10
309.0
20
-5.0
30
0.0
10
314.0
20
-5.0
30
0.0
10
318.0
20
-4.0
30
0.0
10
323.0
20
-4.0
30
0.0
10
328.0
20
-4.0
30
0.0
10
333.0
20
-4.0
30
0.0
10
338.0
20
-4.0
30
0.0
10
343.0
20
-4.0
30
0.0
10
347.0
20
-3.0
30
0.0
10
352.0
20
-3.0
30
0.0
10
357.0
20
-3.0
30
0.0
10
362.0
20
-3.0
30
0.0
10
367.0
20
-3.0
30
0.0
10
371.0
20
-3.0
30
0.0
10
376.0
20
-3.0
30
0.0
10
381.0
20
-3.0
30
0.0
10
386.0
20
-2.0
30
0.0
10
390.0
20
-2.0
30
0.0
10
395.0
20
-2.0
30
0.0
10
400.0
20
-2.0
30
0.0
10
405.0
20
-2.0
30
0.0
10
410.0
20
-2.0
30
0.0
10
414.0
20
-2.0
30
0.0
10
419.0
20
-2.0
30
0.0
10
424.0
20
-2.0
30
0.0
10
429.0
20
-2.0
30
0.0
10
434.0
20
-1.0
30
0.0
10
438.0
20
-1.0
30
0.0
10
443.0
20
-1.0
30
0.0
10
448.0
20
-1.0
30
0.0
10
453.0
20
-1.0
30
0.0
10
457.0
20
-1.0
30
0.0
10
462.0
20
-1.0
30
0.0
10
467.0
20
-1.0
30
0.0
10
472.0
20
-1.0
30
0.0
10
476.0
20
-1.0
30
0.0
10
481.0
20
-1.0
30
0.0
10
486.0
20
0.0
30
0.0
10
490.0
20
0.0
30
0.0
10
495.0
20
0.0
30
0.0
10
500.0
20
0.0
30
0.0
10
505.0
20
0.0
30
0.0
10
509.0
20
0.0
30
0.0
10
514.0
20
0.0
30
0.0
10
519.0
20
0.0
30
0.0
10
524.0
20
0.0
30
0.0
10
529.0
20
0.0
30
0.0
10
533.0
20
0.0
30
0.0
10
538.0
20
0.0
30
0.0
10
543.0
20
0.0
30
0.0
10
548.0
20
0.0
30
0.0
10
553.0
20
0.0
30
0.0
10
558.0
20
0.0
30
0.0
10
563.0
20
0.0
30
0.0
10
568.0
20
0.0
30
0.0
10
573.0
20
0.0
30
0.0
10
577.0
20
0.0
30
0.0
10
582.0
20
0.0
30
0.0
10
587.0
20
0.0
30
0.0
10
592.0
20
0.0
30
0.0
10
597.0
20
0.0
30
0.0
10
602.0
20
0.0
30
0.0
10
607.0
20
0.0
30
0.0
10
612.0
20
0.0
30
0.0
10
617.0
20
0.0
30
0.0
10
622.0
20
0.0
30
0.0
10
626.0
20
0.0
30
0.0
10
631.0
20
0.0
30
0.0
10
636.0
20
0.0
30
0.0
10
641.0
20
0.0
30
0.0
10
646.0
20
0.0
30
0.0
10
651.0
20
0.0
30
0.0
10
656.0
20
0.0
30
0.0
10
661.0
20
0.0
30
0.0
10
666.0
20
0.0
30
0.0
10
670.0
20
0.0
30
0.0
10
675.0
20
0.0
30
0.0
10
680.0
20
-1.0
30
0.0
10
685.0
20
-1.0
30
0.0
10
690.0
20
-1.0
30
0.0
10
695.0
20
-1.0
30
0.0
10
700.0
20
-1.0
30
0.0
10
705.0
20
-1.0
30
0.0
10
710.0
20
-1.0
30
0.0
10
714.0
20
-1.0
30
0.0
10
719.0
20
-1.0
30
0.0
10
724.0
20
-1.0
30
0.0
10
729.0
20
-1.0
30
0.0
10
734.0
20
-1.0
30
0.0
10
739.0
20
-2.0
30
0.0
10
744.0
20
-2.0
30
0.0
10
749.0
20
-2.0
30
0.0
10
753.0
20
-2.0
30
0.0
10
758.0
20
-2.0
30
0.0
10
763.0
20
-2.0
30
0.0
10
768.0
20
-2.0
30
0.0
10
773.0
20
-2.0
30
0.0
6
Solid
370
35
62
3
0
LWPOLYLINE
5
1c4
100
AcDbEntity
8
zone_0_q4
100
AcDbPolyline
90
292
70
1
10
367.0
20
-3.0
30
0.0
10
371.0
20
-3.0
30
0.0
10
376.0
20
-3.0
30
0.0
10
381.0
20
-3.0
30
0.0
10
386.0
20
-2.0
30
0.0
10
390.0
20
-2.0
30
0.0
10
395.0
20
-2.0
30
0.0
10
400.0
20
-2.0
30
0.0
10
405.0
20
-2.0
30
0.0
10
410.0
20
-2.0
30
0.0
10
414.0
20
-2.0
30
0.0
10
419.0
20
-2.0
30
0.0
10
424.0
20
-2.0
30
0.0
10
429.0
20
-2.0
30
0.0
10
434.0
20
-1.0
30
0.0
10
438.0
20
-1.0
30
0.0
10
443.0
20
-1.0
30
0.0
10
448.0
20
-1.0
30
0.0
10
453.0
20
-1.0
30
0.0
10
457.0
20
-1.0
30
0.0
10
462.0
20
-1.0
30
0.0
10
467.0
20
-1.0
30
0.0
10
472.0
20
-1.0
30
0.0
10
476.0
20
-1.0
30
0.0
10
481.0
20
-1.0
30
0.0
10
486.0
20
0.0
30
0.0
10
490.0
20
0.0
30
0.0
10
495.0
20
0.0
30
0.0
10
500.0
20
0.0
30
0.0
10
505.0
20
0.0
30
0.0
10
509.0
20
0.0
30
0.0
10
514.0
20
0.0
30
0.0
10
519.0
20
0.0
30
0.0
10
524.0
20
0.0
30
0.0
10
529.0
20
0.0
30
0.0
10
533.0
20
0.0
30
0.0
10
538.0
20
0.0
30
0.0
10
543.0
20
0.0
30
0.0
10
548.0
20
0.0
30
0.0
10
553.0
20
0.0
30
0.0
10
558.0
20
0.0
30
0.0
10
563.0
20
0.0
30
0.0
10
568.0
20
0.0
30
0.0
10
573.0
20
0.0
30
0.0
10
577.0
20
0.0
30
0.0
10
582.0
20
0.0
30
0.0
10
587.0
20
0.0
30
0.0
10
592.0
20
0.0
30
0.0
10
597.0
20
0.0
30
0.0
10
602.0
20
0.0
30
0.0
10
607.0
20
0.0
30
0.0
10
612.0
20
0.0
30
0.0
10
617.0
20
0.0
30
0.0
10
622.0
20
0.0
30
0.0
10
626.0
20
0.0
30
0.0
10
631.0
20
0.0
30
0.0
10
636.0
20
0.0
30
0.0
10
641.0
20
0.0
30
0.0
10
646.0
20
0.0
30
0.0
10
651.0
20
0.0
30
0.0
10
656.0
20
0.0
30
0.0
10
661.0
20
0.0
30
0.0
10
666.0
20
0.0
30
0.0
10
670.0
20
0.0
30
0.0
10
675.0
20
0.0
30
0.0
10
680.0
20
-1.0
30
0.0
10
685.0
20
-1.0
30
0.0
10
690.0
20
-1.0
30
0.0
10
695.0
20
-1.0
30
0.0
10
700.0
20
-1.0
30
0.0
10
705.0
20
-1.0
30
0.0
10
710.0
20
-1.0
30
0.0
10
714.0
20
-1.0
30
0.0
10
719.0
20
-1.0
30
0.0
10
724.0
20
-1.0
30
0.0
10
729.0
20
-1.0
30
0.0
10
734.0
20
-1.0
30
0.0
10
739.0
20
-2.0
30
0.0
10
744.0
20
-2.0
30
0.0
10
749.0
20
-2.0
30
0.0
10
753.0
20
-2.0
30
0.0
10
758.0
20
-2.0
30
0.0
10
763.0
20
-2.0
30
0.0
10
768.0
20
-2.0
30
0.0
10
773.0
20
-2.0
30
0.0
10
777.0
20
-2.0
30
0.0
10
782.0
20
-2.0
30
0.0
10
787.0
20
-2.0
30
0.0
10
792.0
20
-2.0
30
0.0
10
796.0
20
-2.0
30
0.0
10
801.0
20
-2.0
30
0.0
10
806.0
20
-2.0
30
0.0
10
810.0
20
-3.0
30
0.0
10
815.0
20
-3.0
30
0.0
10
820.0
20
-3.0
30
0.0
10
825.0
20
-3.0
30
0.0
10
829.0
20
-3.0
30
0.0
10
834.0
20
-3.0
30
0.0
10
839.0
20
-3.0
30
0.0
10
844.0
20
-3.0
30
0.0
10
849.0
20
-3.0
30
0.0
10
854.0
20
-3.0
30
0.0
10
859.0
20
-3.0
30
0.0
10
864.0
20
-3.0
30
0.0
10
869.0
20
-3.0
30
0.0
10
874.0
20
-3.0
30
0.0
10
879.0
20
-3.0
30
0.0
10
884.0
20
-3.0
30
0.0
10
889.0
20
-3.0
30
0.0
10
893.0
20
-3.0
30
0.0
10
898.0
20
-3.0
30
0.0
10
903.0
20
-3.0
30
0.0
10
908.0
20
-3.0
30
0.0
10
913.0
20
-3.0
30
0.0
10
918.0
20
-4.0
30
0.0
10
923.0
20
-4.0
30
0.0
10
928.0
20
-4.0
30
0.0
10
933.0
20
-4.0
30
0.0
10
937.0
20
-4.0
30
0.0
10
942.0
20
-4.0
30
0.0
10
947.0
20
-4.0
30
0.0
10
952.0
20
-4.0
30
0.0
10
957.0
20
-4.0
30
0.0
10
962.0
20
-5.0
30
0.0
10
966.0
20
-5.0
30
0.0
10
971.0
20
-5.0
30
0.0
10
976.0
20
-5.0
30
0.0
10
981.0
20
-5.0
30
0.0
10
986.0
20
-5.0
30
0.0
10
991.0
20
-5.0
30
0.0
10
995.0
20
-6.0
30
0.0
10
1000.0
20
-6.0
30
0.0
10
1005.0
20
-6.0
30
0.0
10
1010.0
20
-6.0
30
0.0
10
1015.0
20
-6.0
30
0.0
10
1020.0
20
-6.0
30
0.0
10
1024.0
20
-6.0
30
0.0
10
1029.0
20
-7.0
30
0.0
10
1034.0
20
-7.0
30
0.0
10
1039.0
20
-7.0
30
0.0
10
1044.0
20
-7.0
30
0.0
10
1049.0
20
-7.0
30
0.0
10
1054.0
20
-7.0
30
0.0
10
1059.0
20
-8.0
30
0.0
10
1064.0
20
-8.0
30
0.0
10
1064.0
20
-154.0
30
0.0
10
1059.0
20
-154.0
30
0.0
10
1054.0
20
-154.0
30
0.0
10
1050.0
20
-155.0
30
0.0
10
1045.0
20
-155.0
30
0.0
10
1040.0
20
-155.0
30
0.0
10
1035.0
20
-155.0
30
0.0
10
1030.0
20
-156.0
30
0.0
10
1026.0
20
-156.0
30
0.0
10
1021.0
20
-156.0
30
0.0
10
1016.0
20
-156.0
30
0.0
10
1011.0
20
-157.0
30
0.0
10
1006.0
20
-157.0
30
0.0
10
1002.0
20
-157.0
30
0.0
10
997.0
20
-158.0
30
0.0
10
992.0
20
-158.0
30
0.0
10
987.0
20
-158.0
30
0.0
10
982.0
20
-159.0
30
0.0
10
977.0
20
-159.0
30
0.0
10
972.0
20
-159.0
30
0.0
10
967.0
20
-160.0
30
0.0
10
962.0
20
-160.0
30
0.0
10
957.0
20
-160.0
30
0.0
10
952.0
20
-160.0
30
0.0
10
947.0
20
-161.0
30
0.0
10
943.0
20
-161.0
30
0.0
10
938.0
20
-161.0
30
0.0
10
933.0
20
-161.0
30
0.0
10
928.0
20
-161.0
30
0.0
10
924.0
20
-161.0
30
0.0
10
919.0
20
-161.0
30
0.0
10
914.0
20
-161.0
30
0.0
10
909.0
20
-161.0
30
0.0
10
904.0
20
-161.0
30
0.0
10
900.0
20
-161.0
30
0.0
10
895.0
20
-161.0
30
0.0
10
890.0
20
-161.0
30
0.0
10
885.0
20
-161.0
30
0.0
10
880.0
20
-161.0
30
0.0
10
875.0
20
-161.0
30
0.0
10
870.0
20
-161.0
30
0.0
10
865.0
20
-161.0
30
0.0
10
861.0
20
-161.0
30
0.0
10
856.0
20
-161.0
30
0.0
10
851.0
20
-161.0
30
0.0
10
846.0
20
-161.0
30
0.0
10
841.0
20
-161.0
30
0.0
10
836.0
20
-161.0
30
0.0
10
831.0
20
-161.0
30
0.0
10
826.0
20
-161.0
30
0.0
10
821.0
20
-161.0
30
0.0
10
816.0
20
-161.0
30
0.0
10
812.0
20
-161.0
30
0.0
10
807.0
20
-161.0
30
0.0
10
802.0
20
-161.0
30
0.0
10
797.0
20
-161.0
30
0.0
10
792.0
20
-161.0
30
0.0
10
787.0
20
-161.0
30
0.0
10
782.0
20
-161.0
30
0.0
10
777.0
20
-161.0
30
0.0
10
772.0
20
-161.0
30
0.0
10
767.0
20
-161.0
30
0.0
10
762.0
20
-161.0
30
0.0
10
758.0
20
-161.0
30
0.0
10
753.0
20
-161.0
30
0.0
10
748.0
20
-161.0
30
0.0
10
743.0
20
-160.0
30
0.0
10
738.0
20
-160.0
30
0.0
10
733.0
20
-160.0
30
0.0
10
728.0
20
-160.0
30
0.0
10
723.0
20
-160.0
30
0.0
10
718.0
20
-160.0
30
0.0
10
714.0
20
-160.0
30
0.0
10
709.0
20
-160.0
30
0.0
10
704.0
20
-160.0
30
0.0
10
699.0
20
-160.0
30
0.0
10
694.0
20
-160.0
30
0.0
10
689.0
20
-160.0
30
0.0
10
685.0
20
-160.0
30
0.0
10
680.0
20
-160.0
30
0.0
10
675.0
20
-160.0
30
0.0
10
670.0
20
-160.0
30
0.0
10
666.0
20
-160.0
30
0.0
10
661.0
20
-160.0
30
0.0
10
656.0
20
-160.0
30
0.0
10
651.0
20
-160.0
30
0.0
10
647.0
20
-160.0
30
0.0
10
642.0
20
-160.0
30
0.0
10
637.0
20
-160.0
30
0.0
10
633.0
20
-160.0
30
0.0
10
628.0
20
-160.0
30
0.0
10
623.0
20
-160.0
30
0.0
10
618.0
20
-160.0
30
0.0
10
614.0
20
-160.0
30
0.0
10
609.0
20
-160.0
30
0.0
10
604.0
20
-160.0
30
0.0
10
599.0
20
-160.0
30
0.0
10
595.0
20
-160.0
30
0.0
10
590.0
20
-160.0
30
0.0
10
585.0
20
-160.0
30
0.0
10
580.0
20
-160.0
30
0.0
10
576.0
20
-160.0
30
0.0
10
571.0
20
-160.0
30
0.0
10
566.0
20
-160.0
30
0.0
10
561.0
20
-160.0
30
0.0
10
557.0
20
-160.0
30
0.0
10
552.0
20
-160.0
30
0.0
10
547.0
20
-160.0
30
0.0
10
542.0
20
-160.0
30
0.0
10
538.0
20
-160.0
30
0.0
10
533.0
20
-160.0
30
0.0
10
528.0
20
-160.0
30
0.0
10
523.0
20
-160.0
30
0.0
10
519.0
20
-160.0
30
0.0
10
514.0
20
-160.0
30
0.0
10
509.0
20
-159.0
30
0.0
10
504.0
20
-159.0
30
0.0
10
500.0
20
-159.0
30
0.0
10
495.0
20
-159.0
30
0.0
10
490.0
20
-159.0
30
0.0
10
486.0
20
-158.0
30
0.0
10
481.0
20
-158.0
30
0.0
10
476.0
20
-158.0
30
0.0
10
472.0
20
-158.0
30
0.0
10
467.0
20
-157.0
30
0.0
10
462.0
20
-157.0
30
0.0
10
458.0
20
-156.0
30
0.0
10
453.0
20
-156.0
30
0.0
10
448.0
20
-156.0
30
0.0
10
444.0
20
-155.0
30
0.0
10
439.0
20
-155.0
30
0.0
10
435.0
20
-154.0
30
0.0
10
430.0
20
-154.0
30
0.0
10
426.0
20
-153.0
30
0.0
10
421.0
20
-153.0
30
0.0
10
417.0
20
-152.0
30
0.0
10
412.0
20
-152.0
30
0.0
10
408.0
20
-151.0
30
0.0
10
403.0
20
-151.0
30
0.0
10
398.0
20
-150.0
30
0.0
10
394.0
20
-150.0
30
0.0
10
389.0
20
-149.0
30
0.0
10
385.0
20
-149.0
30
0.0
10
380.0
20
-149.0
30
0.0
10
376.0
20
-148.0
30
0.0
10
371.0
20
-148.0
30
0.0
10
367.0
20
-3.0
30
0.0
6
Solid
370
35
62
5
0
ENDSEC
0
SECTION
2
OBJECTS
0
DICTIONARY
5
1bf
330
0
100
AcDbDictionary
281
1
3
ACAD_GROUP
350
1c0
0
DICTIONARY
5
1c0
330
1bf
100
AcDbDictionary
281
1
0
ENDSEC
0
EOF
