999

0
SECTION
2
HEADER
9
$ACADVER
1
AC1021
9
$HANDSEED
5
1e5
0
ENDSEC
0
SECTION
2
CLASSES
0
ENDSEC
0
SECTION
2
TABLES
0
TABLE
2
VPORT
5
1c7
100
AcDbSymbolTable
70
1
0
VPORT
5
1c6
100
AcDbSymbolTableRecord
100
AcDbViewportTableRecord
2
*ACTIVE
10
0
20
0
11
1
21
1
12
500.0
22
500.0
40
1000.0
70
0
0
ENDTAB
0
TABLE
2
LTYPE
5
1c8
100
AcDbSymbolTable
70
3
0
LTYPE
5
1d0
100
AcDbSymbolTableRecord
100
AcDbLinetypeTableRecord
2
Solid
70
0
72
65
73
0
3

0
LTYPE
5
1d1
100
AcDbSymbolTableRecord
100
AcDbLinetypeTableRecord
2
ByBlock
70
0
72
65
73
0
3

0
LTYPE
5
1d2
100
AcDbSymbolTableRecord
100
AcDbLinetypeTableRecord
2
ByLayer
70
0
72
65
73
0
3

0
ENDTAB
0
TABLE
2
LAYER
5
1c9
100
AcDbSymbolTable
70
3
0
LAYER
5
1d3
100
AcDbSymbolTableRecord
100
AcDbLayerTableRecord
2
0
70
0
390
0
0
LAYER
5
1df
100
AcDbSymbolTableRecord
100
AcDbLayerTableRecord
2
zone_0_q3
70
0
390
0
0
LAYER
5
1e2
100
AcDbSymbolTableRecord
100
AcDbLayerTableRecord
2
zone_1_q2
70
0
390
0
0
ENDTAB
0
TABLE
2
STYLE
5
1ca
100
AcDbSymbolTable
70
0
0
ENDTAB
0
TABLE
2
VIEW
5
1cb
100
AcDbSymbolTable
70
0
0
ENDTAB
0
TABLE
2
UCS
5
1cc
100
AcDbSymbolTable
70
0
0
ENDTAB
0
TABLE
2
APPID
5
1cd
100
AcDbSymbolTable
70
1
0
APPID
5
1d4
100
AcDbSymbolTableRecord
100
AcDbRegAppTableRecord
2
ACAD
70
0
0
ENDTAB
0
TABLE
2
DIMSTYLE
5
1ce
100
AcDbSymbolTable
70
0
100
AcDbDimStyleTable
71
1
0
ENDTAB
0
TABLE
2
BLOCK_RECORD
5
1cf
100
AcDbSymbolTable
70
2
0
BLOCK_RECORD
5
1d5
100
AcDbSymbolTableRecord
100
AcDbBlockTableRecord
2
*Model_Space
70
0
280
1
281
0
0
BLOCK_RECORD
5
1d6
100
AcDbSymbolTableRecord
100
AcDbBlockTableRecord
2
*Paper_Space
70
0
280
1
281
0
0
ENDTAB
0
ENDSEC
0
SECTION
2
BLOCKS
0
BLOCK
5
1d7
100
AcDbEntity
100
AcDbBlockBegin
2
*Model_Space
70
0
10
0
20
0
30
0
3
*Model_Space
1

0
ENDBLK
5
1d8
100
AcDbEntity
100
AcDbBlockEnd
0
BLOCK
5
1d9
100
AcDbEntity
100
AcDbBlockBegin
2
*Paper_Space
70
0
10
0
20
0
30
0
3
*Paper_Space
1

0
ENDBLK
5
1da
100
AcDbEntity
100
AcDbBlockEnd
0
ENDSEC
0
SECTION
2
ENTITIES
0
LWPOLYLINE
5
1dd
100
AcDbEntity
100
AcDbPolyline
90
418
70
1
10
86.0
20
0.0
30
0.0
10
90.0
20
0.0
30
0.0
10
95.0
20
-1.0
30
0.0
10
100.0
20
-2.0
30
0.0
10
104.0
20
-2.0
30
0.0
10
109.0
20
-3.0
30
0.0
10
114.0
20
-4.0
30
0.0
10
118.0
20
-4.0
30
0.0
10
123.0
20
-5.0
30
0.0
10
127.0
20
-6.0
30
0.0
10
132.0
20
-7.0
30
0.0
10
137.0
20
-8.0
30
0.0
10
142.0
20
-8.0
30
0.0
10
146.0
20
-9.0
30
0.0
10
151.0
20
-10.0
30
0.0
10
156.0
20
-10.0
30
0.0
10
161.0
20
-11.0
30
0.0
10
165.0
20
-12.0
30
0.0
10
170.0
20
-13.0
30
0.0
10
175.0
20
-13.0
30
0.0
10
179.0
20
-14.0
30
0.0
10
184.0
20
-15.0
30
0.0
10
188.0
20
-16.0
30
0.0
10
193.0
20
-16.0
30
0.0
10
197.0
20
-17.0
30
0.0
10
202.0
20
-18.0
30
0.0
10
206.0
20
-19.0
30
0.0
10
211.0
20
-19.0
30
0.0
10
215.0
20
-20.0
30
0.0
10
219.0
20
-21.0
30
0.0
10
223.0
20
-22.0
30
0.0
10
227.0
20
-22.0
30
0.0
10
230.0
20
-23.0
30
0.0
10
233.0
20
-24.0
30
0.0
10
238.0
20
-25.0
30
0.0
10
241.0
20
-27.0
30
0.0
10
242.0
20
-29.0
30
0.0
10
242.0
20
-32.0
30
0.0
10
242.0
20
-36.0
30
0.0
10
242.0
20
-40.0
30
0.0
10
242.0
20
-44.0
30
0.0
10
242.0
20
-48.0
30
0.0
10
242.0
20
-53.0
30
0.0
10
242.0
20
-58.0
30
0.0
10
242.0
20
-63.0
30
0.0
10
241.0
20
-68.0
30
0.0
10
241.0
20
-73.0
30
0.0
10
241.0
20
-78.0
30
0.0
10
241.0
20
-83.0
30
0.0
10
241.0
20
-87.0
30
0.0
10
241.0
20
-92.0
30
0.0
10
241.0
20
-97.0
30
0.0
10
242.0
20
-102.0
30
0.0
10
242.0
20
-107.0
30
0.0
10
242.0
20
-111.0
30
0.0
10
242.0
20
-116.0
30
0.0
10
243.0
20
-121.0
30
0.0
10
243.0
20
-125.0
30
0.0
10
243.0
20
-130.0
30
0.0
10
244.0
20
-135.0
30
0.0
10
245.0
20
-140.0
30
0.0
10
245.0
20
-144.0
30
0.0
10
246.0
20
-149.0
30
0.0
10
246.0
20
-154.0
30
0.0
10
247.0
20
-158.0
30
0.0
10
248.0
20
-163.0
30
0.0
10
248.0
20
-168.0
30
0.0
10
249.0
20
-172.0
30
0.0
10
250.0
20
-177.0
30
0.0
10
251.0
20
-182.0
30
0.0
10
252.0
20
-187.0
30
0.0
10
252.0
20
-191.0
30
0.0
10
253.0
20
-196.0
30
0.0
10
254.0
20
-201.0
30
0.0
10
255.0
20
-206.0
30
0.0
10
256.0
20
-211.0
30
0.0
10
257.0
20
-215.0
30
0.0
10
258.0
20
-220.0
30
0.0
10
259.0
20
-225.0
30
0.0
10
260.0
20
-229.0
30
0.0
10
261.0
20
-234.0
30
0.0
10
262.0
20
-239.0
30
0.0
10
263.0
20
-244.0
30
0.0
10
264.0
20
-248.0
30
0.0
10
265.0
20
-253.0
30
0.0
10
266.0
20
-258.0
30
0.0
10
267.0
20
-262.0
30
0.0
10
268.0
20
-267.0
30
0.0
10
269.0
20
-272.0
30
0.0
10
270.0
20
-276.0
30
0.0
10
271.0
20
-281.0
30
0.0
10
272.0
20
-286.0
30
0.0
10
273.0
20
-291.0
30
0.0
10
274.0
20
-295.0
30
0.0
10
275.0
20
-300.0
30
0.0
10
276.0
20
-305.0
30
0.0
10
277.0
20
-309.0
30
0.0
10
278.0
20
-314.0
30
0.0
10
279.0
20
-319.0
30
0.0
10
280.0
20
-323.0
30
0.0
10
281.0
20
-328.0
30
0.0
10
281.0
20
-332.0
30
0.0
10
282.0
20
-337.0
30
0.0
10
283.0
20
-342.0
30
0.0
10
284.0
20
-346.0
30
0.0
10
285.0
20
-351.0
30
0.0
10
286.0
20
-356.0
30
0.0
10
287.0
20
-361.0
30
0.0
10
288.0
20
-365.0
30
0.0
10
288.0
20
-370.0
30
0.0
10
289.0
20
-375.0
30
0.0
10
290.0
20
-379.0
30
0.0
10
291.0
20
-384.0
30
0.0
10
292.0
20
-389.0
30
0.0
10
292.0
20
-393.0
30
0.0
10
293.0
20
-398.0
30
0.0
10
294.0
20
-402.0
30
0.0
10
295.0
20
-407.0
30
0.0
10
296.0
20
-412.0
30
0.0
10
296.0
20
-416.0
30
0.0
10
297.0
20
-421.0
30
0.0
10
298.0
20
-426.0
30
0.0
10
299.0
20
-430.0
30
0.0
10
299.0
20
-435.0
30
0.0
10
300.0
20
-440.0
30
0.0
10
301.0
20
-444.0
30
0.0
10
302.0
20
-449.0
30
0.0
10
302.0
20
-454.0
30
0.0
10
303.0
20
-458.0
30
0.0
10
304.0
20
-463.0
30
0.0
10
304.0
20
-468.0
30
0.0
10
305.0
20
-473.0
30
0.0
10
306.0
20
-477.0
30
0.0
10
306.0
20
-482.0
30
0.0
10
307.0
20
-487.0
30
0.0
10
308.0
20
-492.0
30
0.0
10
308.0
20
-497.0
30
0.0
10
309.0
20
-501.0
30
0.0
10
309.0
20
-506.0
30
0.0
10
310.0
20
-511.0
30
0.0
10
310.0
20
-516.0
30
0.0
10
311.0
20
-521.0
30
0.0
10
311.0
20
-526.0
30
0.0
10
312.0
20
-530.0
30
0.0
10
312.0
20
-535.0
30
0.0
10
313.0
20
-540.0
30
0.0
10
313.0
20
-545.0
30
0.0
10
314.0
20
-550.0
30
0.0
10
314.0
20
-555.0
30
0.0
10
314.0
20
-560.0
30
0.0
10
315.0
20
-565.0
30
0.0
10
315.0
20
-570.0
30
0.0
10
315.0
20
-575.0
30
0.0
10
316.0
20
-580.0
30
0.0
10
316.0
20
-585.0
30
0.0
10
316.0
20
-590.0
30
0.0
10
317.0
20
-594.0
30
0.0
10
317.0
20
-599.0
30
0.0
10
317.0
20
-604.0
30
0.0
10
318.0
20
-609.0
30
0.0
10
318.0
20
-613.0
30
0.0
10
318.0
20
-618.0
30
0.0
10
318.0
20
-623.0
30
0.0
10
319.0
20
-627.0
30
0.0
10
319.0
20
-632.0
30
0.0
10
319.0
20
-637.0
30
0.0
10
319.0
20
-641.0
30
0.0
10
319.0
20
-646.0
30
0.0
10
319.0
20
-651.0
30
0.0
10
319.0
20
-655.0
30
0.0
10
319.0
20
-660.0
30
0.0
10
319.0
20
-665.0
30
0.0
10
319.0
20
-670.0
30
0.0
10
319.0
20
-675.0
30
0.0
10
319.0
20
-679.0
30
0.0
10
319.0
20
-684.0
30
0.0
10
319.0
20
-689.0
30
0.0
10
319.0
20
-694.0
30
0.0
10
319.0
20
-699.0
30
0.0
10
319.0
20
-704.0
30
0.0
10
319.0
20
-708.0
30
0.0
10
319.0
20
-713.0
30
0.0
10
319.0
20
-718.0
30
0.0
10
319.0
20
-723.0
30
0.0
10
319.0
20
-727.0
30
0.0
10
319.0
20
-732.0
30
0.0
10
318.0
20
-736.0
30
0.0
10
318.0
20
-740.0
30
0.0
10
317.0
20
-745.0
30
0.0
10
316.0
20
-749.0
30
0.0
10
315.0
20
-752.0
30
0.0
10
315.0
20
-755.0
30
0.0
10
312.0
20
-756.0
30
0.0
10
309.0
20
-757.0
30
0.0
10
306.0
20
-758.0
30
0.0
10
303.0
20
-759.0
30
0.0
10
299.0
20
-760.0
30
0.0
10
295.0
20
-761.0
30
0.0
10
290.0
20
-761.0
30
0.0
10
286.0
20
-762.0
30
0.0
10
281.0
20
-763.0
30
0.0
10
277.0
20
-763.0
30
0.0
10
272.0
20
-764.0
30
0.0
10
267.0
20
-764.0
30
0.0
10
263.0
20
-765.0
30
0.0
10
258.0
20
-765.0
30
0.0
10
253.0
20
-766.0
30
0.0
10
248.0
20
-766.0
30
0.0
10
243.0
20
-767.0
30
0.0
10
238.0
20
-767.0
30
0.0
10
233.0
20
-767.0
30
0.0
10
229.0
20
-768.0
30
0.0
10
224.0
20
-768.0
30
0.0
10
219.0
20
-768.0
30
0.0
10
214.0
20
-769.0
30
0.0
10
209.0
20
-769.0
30
0.0
10
204.0
20
-769.0
30
0.0
10
200.0
20
-770.0
30
0.0
10
195.0
20
-770.0
30
0.0
10
190.0
20
-770.0
30
0.0
10
185.0
20
-770.0
30
0.0
10
181.0
20
-770.0
30
0.0
10
176.0
20
-771.0
30
0.0
10
171.0
20
-771.0
30
0.0
10
167.0
20
-771.0
30
0.0
10
162.0
20
-771.0
30
0.0
10
157.0
20
-771.0
30
0.0
10
152.0
20
-771.0
30
0.0
10
148.0
20
-771.0
30
0.0
10
143.0
20
-771.0
30
0.0
10
138.0
20
-771.0
30
0.0
10
134.0
20
-771.0
30
0.0
10
129.0
20
-771.0
30
0.0
10
124.0
20
-771.0
30
0.0
10
119.0
20
-771.0
30
0.0
10
114.0
20
-771.0
30
0.0
10
109.0
20
-770.0
30
0.0
10
104.0
20
-770.0
30
0.0
10
99.0
20
-770.0
30
0.0
10
94.0
20
-770.0
30
0.0
10
89.0
20
-770.0
30
0.0
10
84.0
20
-769.0
30
0.0
10
79.0
20
-769.0
30
0.0
10
74.0
20
-769.0
30
0.0
10
69.0
20
-768.0
30
0.0
10
64.0
20
-768.0
30
0.0
10
59.0
20
-767.0
30
0.0
10
54.0
20
-767.0
30
0.0
10
49.0
20
-766.0
30
0.0
10
44.0
20
-766.0
30
0.0
10
39.0
20
-765.0
30
0.0
10
34.0
20
-764.0
30
0.0
10
29.0
20
-764.0
30
0.0
10
25.0
20
-763.0
30
0.0
10
20.0
20
-762.0
30
0.0
10
15.0
20
-762.0
30
0.0
10
11.0
20
-761.0
30
0.0
10
8.0
20
-760.0
30
0.0
10
4.0
20
-759.0
30
0.0
10
1.0
20
-758.0
30
0.0
10
0.0
20
-755.0
30
0.0
10
0.0
20
-750.0
30
0.0
10
0.0
20
-746.0
30
0.0
10
0.0
20
-741.0
30
0.0
10
1.0
20
-736.0
30
0.0
10
1.0
20
-732.0
30
0.0
10
2.0
20
-727.0
30
0.0
10
2.0
20
-722.0
30
0.0
10
3.0
20
-718.0
30
0.0
10
3.0
20
-713.0
30
0.0
10
4.0
20
-708.0
30
0.0
10
4.0
20
-704.0
30
0.0
10
5.0
20
-699.0
30
0.0
10
5.0
20
-694.0
30
0.0
10
6.0
20
-689.0
30
0.0
10
6.0
20
-685.0
30
0.0
10
7.0
20
-680.0
30
0.0
10
7.0
20
-675.0
30
0.0
10
8.0
20
-670.0
30
0.0
10
8.0
20
-665.0
30
0.0
10
9.0
20
-660.0
30
0.0
10
9.0
20
-655.0
30
0.0
10
10.0
20
-650.0
30
0.0
10
10.0
20
-645.0
30
0.0
10
11.0
20
-640.0
30
0.0
10
12.0
20
-635.0
30
0.0
10
12.0
20
-630.0
30
0.0
10
13.0
20
-625.0
30
0.0
10
13.0
20
-620.0
30
0.0
10
14.0
20
-615.0
30
0.0
10
14.0
20
-610.0
30
0.0
10
15.0
20
-605.0
30
0.0
10
15.0
20
-600.0
30
0.0
10
16.0
20
-595.0
30
0.0
10
16.0
20
-590.0
30
0.0
10
17.0
20
-585.0
30
0.0
10
17.0
20
-580.0
30
0.0
10
18.0
20
-575.0
30
0.0
10
18.0
20
-570.0
30
0.0
10
19.0
20
-566.0
30
0.0
10
19.0
20
-561.0
30
0.0
10
20.0
20
-556.0
30
0.0
10
20.0
20
-551.0
30
0.0
10
21.0
20
-546.0
30
0.0
10
21.0
20
-541.0
30
0.0
10
22.0
20
-536.0
30
0.0
10
22.0
20
-531.0
30
0.0
10
23.0
20
-526.0
30
0.0
10
23.0
20
-521.0
30
0.0
10
24.0
20
-516.0
30
0.0
10
24.0
20
-511.0
30
0.0
10
25.0
20
-506.0
30
0.0
10
25.0
20
-501.0
30
0.0
10
26.0
20
-496.0
30
0.0
10
26.0
20
-491.0
30
0.0
10
26.0
20
-487.0
30
0.0
10
27.0
20
-482.0
30
0.0
10
27.0
20
-477.0
30
0.0
10
28.0
20
-472.0
30
0.0
10
28.0
20
-467.0
30
0.0
10
29.0
20
-462.0
30
0.0
10
29.0
20
-457.0
30
0.0
10
30.0
20
-452.0
30
0.0
10
30.0
20
-447.0
30
0.0
10
31.0
20
-443.0
30
0.0
10
31.0
20
-438.0
30
0.0
10
32.0
20
-433.0
30
0.0
10
32.0
20
-428.0
30
0.0
10
33.0
20
-423.0
30
0.0
10
33.0
20
-418.0
30
0.0
10
34.0
20
-413.0
30
0.0
10
34.0
20
-408.0
30
0.0
10
35.0
20
-403.0
30
0.0
10
35.0
20
-398.0
30
0.0
10
36.0
20
-394.0
30
0.0
10
36.0
20
-389.0
30
0.0
10
37.0
20
-384.0
30
0.0
10
37.0
20
-379.0
30
0.0
10
38.0
20
-374.0
30
0.0
10
38.0
20
-369.0
30
0.0
10
39.0
20
-364.0
30
0.0
10
39.0
20
-359.0
30
0.0
10
40.0
20
-354.0
30
0.0
10
40.0
20
-349.0
30
0.0
10
41.0
20
-345.0
30
0.0
10
41.0
20
-340.0
30
0.0
10
42.0
20
-335.0
30
0.0
10
42.0
20
-330.0
30
0.0
10
43.0
20
-325.0
30
0.0
10
43.0
20
-321.0
30
0.0
10
44.0
20
-316.0
30
0.0
10
44.0
20
-311.0
30
0.0
10
44.0
20
-306.0
30
0.0
10
45.0
20
-301.0
30
0.0
10
45.0
20
-297.0
30
0.0
10
46.0
20
-292.0
30
0.0
10
46.0
20
-287.0
30
0.0
10
47.0
20
-282.0
30
0.0
10
47.0
20
-277.0
30
0.0
10
48.0
20
-273.0
30
0.0
10
48.0
20
-268.0
30
0.0
10
49.0
20
-263.0
30
0.0
10
49.0
20
-258.0
30
0.0
10
50.0
20
-254.0
30
0.0
10
50.0
20
-249.0
30
0.0
10
51.0
20
-244.0
30
0.0
10
51.0
20
-239.0
30
0.0
10
52.0
20
-234.0
30
0.0
10
52.0
20
-230.0
30
0.0
10
53.0
20
-225.0
30
0.0
10
53.0
20
-220.0
30
0.0
10
54.0
20
-215.0
30
0.0
10
54.0
20
-210.0
30
0.0
10
55.0
20
-205.0
30
0.0
10
55.0
20
-201.0
30
0.0
10
56.0
20
-196.0
30
0.0
10
56.0
20
-191.0
30
0.0
10
56.0
20
-186.0
30
0.0
10
57.0
20
-181.0
30
0.0
10
57.0
20
-176.0
30
0.0
10
58.0
20
-171.0
30
0.0
10
58.0
20
-166.0
30
0.0
10
59.0
20
-161.0
30
0.0
10
59.0
20
-156.0
30
0.0
10
60.0
20
-152.0
30
0.0
10
60.0
20
-147.0
30
0.0
10
61.0
20
-142.0
30
0.0
10
62.0
20
-137.0
30
0.0
10
62.0
20
-132.0
30
0.0
10
63.0
20
-127.0
30
0.0
10
63.0
20
-122.0
30
0.0
10
64.0
20
-118.0
30
0.0
10
64.0
20
-113.0
30
0.0
10
65.0
20
-108.0
30
0.0
10
65.0
20
-103.0
30
0.0
10
66.0
20
-99.0
30
0.0
10
67.0
20
-94.0
30
0.0
10
67.0
20
-89.0
30
0.0
10
68.0
20
-84.0
30
0.0
10
69.0
20
-79.0
30
0.0
10
69.0
20
-75.0
30
0.0
10
70.0
20
-70.0
30
0.0
10
71.0
20
-65.0
30
0.0
10
71.0
20
-60.0
30
0.0
10
72.0
20
-56.0
30
0.0
10
73.0
20
-51.0
30
0.0
10
73.0
20
-46.0
30
0.0
10
74.0
20
-42.0
30
0.0
10
75.0
20
-37.0
30
0.0
10
76.0
20
-32.0
30
0.0
10
76.0
20
-28.0
30
0.0
10
77.0
20
-23.0
30
0.0
10
78.0
20
-18.0
30
0.0
10
79.0
20
-14.0
30
0.0
10
79.0
20
-9.0
30
0.0
10
80.0
20
-4.0
30
0.0
10
81.0
20
0.0
30
0.0
10
86.0
20
0.0
30
0.0
6
Solid
370
35
62
40
0
LWPOLYLINE
5
1e0
100
AcDbEntity
8
zone_0_q3
100
AcDbPolyline
90
362
70
1
10
241.0
20
-73.0
30
0.0
10
241.0
20
-78.0
30
0.0
10
241.0
20
-83.0
30
0.0
10
241.0
20
-87.0
30
0.0
10
241.0
20
-92.0
30
0.0
10
241.0
20
-97.0
30
0.0
10
242.0
20
-102.0
30
0.0
10
242.0
20
-107.0
30
0.0
10
242.0
20
-111.0
30
0.0
10
242.0
20
-116.0
30
0.0
10
243.0
20
-121.0
30
0.0
10
243.0
20
-125.0
30
0.0
10
243.0
20
-130.0
30
0.0
10
244.0
20
-135.0
30
0.0
10
245.0
20
-140.0
30
0.0
10
245.0
20
-144.0
30
0.0
10
246.0
20
-149.0
30
0.0
10
246.0
20
-154.0
30
0.0
10
247.0
20
-158.0
30
0.0
10
248.0
20
-163.0
30
0.0
10
248.0
20
-168.0
30
0.0
10
249.0
20
-172.0
30
0.0
10
250.0
20
-177.0
30
0.0
10
251.0
20
-182.0
30
0.0
10
252.0
20
-187.0
30
0.0
10
252.0
20
-191.0
30
0.0
10
253.0
20
-196.0
30
0.0
10
254.0
20
-201.0
30
0.0
10
255.0
20
-206.0
30
0.0
10
256.0
20
-211.0
30
0.0
10
257.0
20
-215.0
30
0.0
10
258.0
20
-220.0
30
0.0
10
259.0
20
-225.0
30
0.0
10
260.0
20
-229.0
30
0.0
10
261.0
20
-234.0
30
0.0
10
262.0
20
-239.0
30
0.0
10
263.0
20
-244.0
30
0.0
10
264.0
20
-248.0
30
0.0
10
265.0
20
-253.0
30
0.0
10
266.0
20
-258.0
30
0.0
10
267.0
20
-262.0
30
0.0
10
268.0
20
-267.0
30
0.0
10
269.0
20
-272.0
30
0.0
10
270.0
20
-276.0
30
0.0
10
271.0
20
-281.0
30
0.0
10
272.0
20
-286.0
30
0.0
10
273.0
20
-291.0
30
0.0
10
274.0
20
-295.0
30
0.0
10
275.0
20
-300.0
30
0.0
10
276.0
20
-305.0
30
0.0
10
277.0
20
-309.0
30
0.0
10
278.0
20
-314.0
30
0.0
10
279.0
20
-319.0
30
0.0
10
280.0
20
-323.0
30
0.0
10
281.0
20
-328.0
30
0.0
10
281.0
20
-332.0
30
0.0
10
282.0
20
-337.0
30
0.0
10
283.0
20
-342.0
30
0.0
10
284.0
20
-346.0
30
0.0
10
285.0
20
-351.0
30
0.0
10
286.0
20
-356.0
30
0.0
10
287.0
20
-361.0
30
0.0
10
288.0
20
-365.0
30
0.0
10
288.0
20
-370.0
30
0.0
10
289.0
20
-375.0
30
0.0
10
290.0
20
-379.0
30
0.0
10
291.0
20
-384.0
30
0.0
10
292.0
20
-389.0
30
0.0
10
292.0
20
-393.0
30
0.0
10
293.0
20
-398.0
30
0.0
10
294.0
20
-402.0
30
0.0
10
295.0
20
-407.0
30
0.0
10
296.0
20
-412.0
30
0.0
10
296.0
20
-416.0
30
0.0
10
297.0
20
-421.0
30
0.0
10
298.0
20
-426.0
30
0.0
10
299.0
20
-430.0
30
0.0
10
299.0
20
-435.0
30
0.0
10
300.0
20
-440.0
30
0.0
10
301.0
20
-444.0
30
0.0
10
302.0
20
-449.0
30
0.0
10
302.0
20
-454.0
30
0.0
10
303.0
20
-458.0
30
0.0
10
304.0
20
-463.0
30
0.0
10
304.0
20
-468.0
30
0.0
10
305.0
20
-473.0
30
0.0
10
306.0
20
-477.0
30
0.0
10
306.0
20
-482.0
30
0.0
10
307.0
20
-487.0
30
0.0
10
308.0
20
-492.0
30
0.0
10
308.0
20
-497.0
30
0.0
10
309.0
20
-501.0
30
0.0
10
309.0
20
-506.0
30
0.0
10
310.0
20
-511.0
30
0.0
10
310.0
20
-516.0
30
0.0
10
311.0
20
-521.0
30
0.0
10
311.0
20
-526.0
30
0.0
10
312.0
20
-530.0
30
0.0
10
312.0
20
-535.0
30
0.0
10
313.0
20
-540.0
30
0.0
10
313.0
20
-545.0
30
0.0
10
314.0
20
-550.0
30
0.0
10
314.0
20
-555.0
30
0.0
10
314.0
20
-560.0
30
0.0
10
315.0
20
-565.0
30
0.0
10
315.0
20
-570.0
30
0.0
10
315.0
20
-575.0
30
0.0
10
316.0
20
-580.0
30
0.0
10
316.0
20
-585.0
30
0.0
10
316.0
20
-590.0
30
0.0
10
317.0
20
-594.0
30
0.0
10
317.0
20
-599.0
30
0.0
10
317.0
20
-604.0
30
0.0
10
318.0
20
-609.0
30
0.0
10
318.0
20
-613.0
30
0.0
10
318.0
20
-618.0
30
0.0
10
318.0
20
-623.0
30
0.0
10
319.0
20
-627.0
30
0.0
10
319.0
20
-632.0
30
0.0
10
319.0
20
-637.0
30
0.0
10
319.0
20
-641.0
30
0.0
10
319.0
20
-646.0
30
0.0
10
319.0
20
-651.0
30
0.0
10
319.0
20
-655.0
30
0.0
10
319.0
20
-660.0
30
0.0
10
319.0
20
-665.0
30
0.0
10
319.0
20
-670.0
30
0.0
10
319.0
20
-675.0
30
0.0
10
319.0
20
-679.0
30
0.0
10
319.0
20
-684.0
30
0.0
10
319.0
20
-689.0
30
0.0
10
319.0
20
-694.0
30
0.0
10
319.0
20
-699.0
30
0.0
10
319.0
20
-704.0
30
0.0
10
319.0
20
-708.0
30
0.0
10
319.0
20
-713.0
30
0.0
10
319.0
20
-718.0
30
0.0
10
319.0
20
-723.0
30
0.0
10
319.0
20
-727.0
30
0.0
10
319.0
20
-732.0
30
0.0
10
318.0
20
-736.0
30
0.0
10
318.0
20
-740.0
30
0.0
10
317.0
20
-745.0
30
0.0
10
316.0
20
-749.0
30
0.0
10
315.0
20
-752.0
30
0.0
10
315.0
20
-755.0
30
0.0
10
312.0
20
-756.0
30
0.0
10
309.0
20
-757.0
30
0.0
10
306.0
20
-758.0
30
0.0
10
303.0
20
-759.0
30
0.0
10
299.0
20
-760.0
30
0.0
10
295.0
20
-761.0
30
0.0
10
290.0
20
-761.0
30
0.0
10
286.0
20
-762.0
30
0.0
10
281.0
20
-763.0
30
0.0
10
277.0
20
-763.0
30
0.0
10
272.0
20
-764.0
30
0.0
10
267.0
20
-764.0
30
0.0
10
263.0
20
-765.0
30
0.0
10
258.0
20
-765.0
30
0.0
10
253.0
20
-766.0
30
0.0
10
248.0
20
-766.0
30
0.0
10
243.0
20
-767.0
30
0.0
10
238.0
20
-767.0
30
0.0
10
233.0
20
-767.0
30
0.0
10
229.0
20
-768.0
30
0.0
10
224.0
20
-768.0
30
0.0
10
219.0
20
-768.0
30
0.0
10
214.0
20
-769.0
30
0.0
10
209.0
20
-769.0
30
0.0
10
204.0
20
-769.0
30
0.0
10
200.0
20
-770.0
30
0.0
10
195.0
20
-770.0
30
0.0
10
190.0
20
-770.0
30
0.0
10
185.0
20
-770.0
30
0.0
10
181.0
20
-770.0
30
0.0
10
176.0
20
-771.0
30
0.0
10
171.0
20
-771.0
30
0.0
10
167.0
20
-771.0
30
0.0
10
162.0
20
-771.0
30
0.0
10
157.0
20
-771.0
30
0.0
10
152.0
20
-771.0
30
0.0
10
148.0
20
-771.0
30
0.0
10
143.0
20
-771.0
30
0.0
10
138.0
20
-771.0
30
0.0
10
134.0
20
-771.0
30
0.0
10
129.0
20
-771.0
30
0.0
10
124.0
20
-771.0
30
0.0
10
119.0
20
-771.0
30
0.0
10
114.0
20
-771.0
30
0.0
10
109.0
20
-770.0
30
0.0
10
104.0
20
-770.0
30
0.0
10
99.0
20
-770.0
30
0.0
10
94.0
20
-770.0
30
0.0
10
89.0
20
-770.0
30
0.0
10
84.0
20
-769.0
30
0.0
10
79.0
20
-769.0
30
0.0
10
74.0
20
-769.0
30
0.0
10
69.0
20
-768.0
30
0.0
10
64.0
20
-768.0
30
0.0
10
59.0
20
-767.0
30
0.0
10
54.0
20
-767.0
30
0.0
10
49.0
20
-766.0
30
0.0
10
44.0
20
-766.0
30
0.0
10
39.0
20
-765.0
30
0.0
10
34.0
20
-764.0
30
0.0
10
29.0
20
-764.0
30
0.0
10
25.0
20
-763.0
30
0.0
10
20.0
20
-762.0
30
0.0
10
15.0
20
-762.0
30
0.0
10
11.0
20
-761.0
30
0.0
10
8.0
20
-760.0
30
0.0
10
4.0
20
-759.0
30
0.0
10
1.0
20
-758.0
30
0.0
10
0.0
20
-755.0
30
0.0
10
0.0
20
-750.0
30
0.0
10
0.0
20
-746.0
30
0.0
10
0.0
20
-741.0
30
0.0
10
1.0
20
-736.0
30
0.0
10
1.0
20
-732.0
30
0.0
10
2.0
20
-727.0
30
0.0
10
2.0
20
-722.0
30
0.0
10
3.0
20
-718.0
30
0.0
10
3.0
20
-713.0
30
0.0
10
4.0
20
-708.0
30
0.0
10
4.0
20
-704.0
30
0.0
10
5.0
20
-699.0
30
0.0
10
5.0
20
-694.0
30
0.0
10
6.0
20
-689.0
30
0.0
10
6.0
20
-685.0
30
0.0
10
7.0
20
-680.0
30
0.0
10
7.0
20
-675.0
30
0.0
10
8.0
20
-670.0
30
0.0
10
8.0
20
-665.0
30
0.0
10
9.0
20
-660.0
30
0.0
10
9.0
20
-655.0
30
0.0
10
10.0
20
-650.0
30
0.0
10
10.0
20
-645.0
30
0.0
10
11.0
20
-640.0
30
0.0
10
12.0
20
-635.0
30
0.0
10
12.0
20
-630.0
30
0.0
10
13.0
20
-625.0
30
0.0
10
13.0
20
-620.0
30
0.0
10
14.0
20
-615.0
30
0.0
10
14.0
20
-610.0
30
0.0
10
15.0
20
-605.0
30
0.0
10
15.0
20
-600.0
30
0.0
10
16.0
20
-595.0
30
0.0
10
16.0
20
-590.0
30
0.0
10
17.0
20
-585.0
30
0.0
10
17.0
20
-580.0
30
0.0
10
18.0
20
-575.0
30
0.0
10
18.0
20
-570.0
30
0.0
10
19.0
20
-566.0
30
0.0
10
19.0
20
-561.0
30
0.0
10
20.0
20
-556.0
30
0.0
10
20.0
20
-551.0
30
0.0
10
21.0
20
-546.0
30
0.0
10
21.0
20
-541.0
30
0.0
10
22.0
20
-536.0
30
0.0
10
22.0
20
-531.0
30
0.0
10
23.0
20
-526.0
30
0.0
10
23.0
20
-521.0
30
0.0
10
24.0
20
-516.0
30
0.0
10
24.0
20
-511.0
30
0.0
10
25.0
20
-506.0
30
0.0
10
25.0
20
-501.0
30
0.0
10
26.0
20
-496.0
30
0.0
10
26.0
20
-491.0
30
0.0
10
26.0
20
-487.0
30
0.0
10
27.0
20
-482.0
30
0.0
10
27.0
20
-477.0
30
0.0
10
28.0
20
-472.0
30
0.0
10
28.0
20
-467.0
30
0.0
10
29.0
20
-462.0
30
0.0
10
29.0
20
-457.0
30
0.0
10
30.0
20
-452.0
30
0.0
10
30.0
20
-447.0
30
0.0
10
31.0
20
-443.0
30
0.0
10
31.0
20
-438.0
30
0.0
10
32.0
20
-433.0
30
0.0
10
32.0
20
-428.0
30
0.0
10
33.0
20
-423.0
30
0.0
10
33.0
20
-418.0
30
0.0
10
34.0
20
-413.0
30
0.0
10
34.0
20
-408.0
30
0.0
10
35.0
20
-403.0
30
0.0
10
35.0
20
-398.0
30
0.0
10
36.0
20
-394.0
30
0.0
10
36.0
20
-389.0
30
0.0
10
37.0
20
-384.0
30
0.0
10
37.0
20
-379.0
30
0.0
10
38.0
20
-374.0
30
0.0
10
38.0
20
-369.0
30
0.0
10
39.0
20
-364.0
30
0.0
10
39.0
20
-359.0
30
0.0
10
40.0
20
-354.0
30
0.0
10
40.0
20
-349.0
30
0.0
10
41.0
20
-345.0
30
0.0
10
41.0
20
-340.0
30
0.0
10
42.0
20
-335.0
30
0.0
10
42.0
20
-330.0
30
0.0
10
43.0
20
-325.0
30
0.0
10
43.0
20
-321.0
30
0.0
10
44.0
20
-316.0
30
0.0
10
44.0
20
-311.0
30
0.0
10
44.0
20
-306.0
30
0.0
10
45.0
20
-301.0
30
0.0
10
45.0
20
-297.0
30
0.0
10
46.0
20
-292.0
30
0.0
10
46.0
20
-287.0
30
0.0
10
47.0
20
-282.0
30
0.0
10
47.0
20
-277.0
30
0.0
10
48.0
20
-273.0
30
0.0
10
48.0
20
-268.0
30
0.0
10
49.0
20
-263.0
30
0.0
10
49.0
20
-258.0
30
0.0
10
50.0
20
-254.0
30
0.0
10
50.0
20
-249.0
30
0.0
10
51.0
20
-244.0
30
0.0
10
51.0
20
-239.0
30
0.0
10
52.0
20
-234.0
30
0.0
10
52.0
20
-230.0
30
0.0
10
53.0
20
-225.0
30
0.0
10
53.0
20
-220.0
30
0.0
10
54.0
20
-215.0
30
0.0
10
54.0
20
-210.0
30
0.0
10
55.0
20
-205.0
30
0.0
10
55.0
20
-201.0
30
0.0
10
56.0
20
-196.0
30
0.0
10
56.0
20
-191.0
30
0.0
10
56.0
20
-186.0
30
0.0
10
57.0
20
-181.0
30
0.0
10
57.0
20
-176.0
30
0.0
10
58.0
20
-171.0
30
0.0
10
58.0
20
-166.0
30
0.0
10
59.0
20
-161.0
30
0.0
10
59.0
20
-156.0
30
0.0
10
60.0
20
-152.0
30
0.0
10
60.0
20
-147.0
30
0.0
10
61.0
20
-142.0
30
0.0
10
62.0
20
-137.0
30
0.0
10
62.0
20
-132.0
30
0.0
10
63.0
20
-127.0
30
0.0
10
63.0
20
-122.0
30
0.0
10
64.0
20
-118.0
30
0.0
10
64.0
20
-113.0
30
0.0
10
65.0
20
-108.0
30
0.0
10
65.0
20
-103.0
30
0.0
10
66.0
20
-99.0
30
0.0
10
67.0
20
-94.0
30
0.0
10
67.0
20
-89.0
30
0.0
10
68.0
20
-84.0
30
0.0
10
69.0
20
-79.0
30
0.0
10
69.0
20
-75.0
30
0.0
10
70.0
20
-70.0
30
0.0
10
71.0
20
-65.0
30
0.0
10
71.0
20
-60.0
30
0.0
10
72.0
20
-56.0
30
0.0
10
73.0
20
-51.0
30
0.0
10
73.0
20
-46.0
30
0.0
10
241.0
20
-73.0
30
0.0
6
Solid
370
35
62
3
0
LWPOLYLINE
5
1e3
100
AcDbEntity
8
zone_1_q2
100
AcDbPolyline
90
160
70
1
10
110.0
20
-59.0
30
0.0
10
49.0
20
-766.0
30
0.0
10
44.0
20
-766.0
30
0.0
10
39.0
20
-765.0
30
0.0
10
34.0
20
-764.0
30
0.0
10
29.0
20
-764.0
30
0.0
10
25.0
20
-763.0
30
0.0
10
20.0
20
-762.0
30
0.0
10
15.0
20
-762.0
30
0.0
10
11.0
20
-761.0
30
0.0
10
8.0
20
-760.0
30
0.0
10
4.0
20
-759.0
30
0.0
10
1.0
20
-758.0
30
0.0
10
0.0
20
-755.0
30
0.0
10
0.0
20
-750.0
30
0.0
10
0.0
20
-746.0
30
0.0
10
0.0
20
-741.0
30
0.0
10
1.0
20
-736.0
30
0.0
10
1.0
20
-732.0
30
0.0
10
2.0
20
-727.0
30
0.0
10
2.0
20
-722.0
30
0.0
10
3.0
20
-718.0
30
0.0
10
3.0
20
-713.0
30
0.0
10
4.0
20
-708.0
30
0.0
10
4.0
20
-704.0
30
0.0
10
5.0
20
-699.0
30
0.0
10
5.0
20
-694.0
30
0.0
10
6.0
20
-689.0
30
0.0
10
6.0
20
-685.0
30
0.0
10
7.0
20
-680.0
30
0.0
10
7.0
20
-675.0
30
0.0
10
8.0
20
-670.0
30
0.0
10
8.0
20
-665.0
30
0.0
10
9.0
20
-660.0
30
0.0
10
9.0
20
-655.0
30
0.0
10
10.0
20
-650.0
30
0.0
10
10.0
20
-645.0
30
0.0
10
11.0
20
-640.0
30
0.0
10
12.0
20
-635.0
30
0.0
10
12.0
20
-630.0
30
0.0
10
13.0
20
-625.0
30
0.0
10
13.0
20
-620.0
30
0.0
10
14.0
20
-615.0
30
0.0
10
14.0
20
-610.0
30
0.0
10
15.0
20
-605.0
30
0.0
10
15.0
20
-600.0
30
0.0
10
16.0
20
-595.0
30
0.0
10
16.0
20
-590.0
30
0.0
10
17.0
20
-585.0
30
0.0
10
17.0
20
-580.0
30
0.0
10
18.0
20
-575.0
30
0.0
10
18.0
20
-570.0
30
0.0
10
19.0
20
-566.0
30
0.0
10
19.0
20
-561.0
30
0.0
10
20.0
20
-556.0
30
0.0
10
20.0
20
-551.0
30
0.0
10
21.0
20
-546.0
30
0.0
10
21.0
20
-541.0
30
0.0
10
22.0
20
-536.0
30
0.0
10
22.0
20
-531.0
30
0.0
10
23.0
20
-526.0
30
0.0
10
23.0
20
-521.0
30
0.0
10
24.0
20
-516.0
30
0.0
10
24.0
20
-511.0
30
0.0
10
25.0
20
-506.0
30
0.0
10
25.0
20
-501.0
30
0.0
10
26.0
20
-496.0
30
0.0
10
26.0
20
-491.0
30
0.0
10
26.0
20
-487.0
30
0.0
10
27.0
20
-482.0
30
0.0
10
27.0
20
-477.0
30
0.0
10
28.0
20
-472.0
30
0.0
10
28.0
20
-467.0
30
0.0
10
29.0
20
-462.0
30
0.0
10
29.0
20
-457.0
30
0.0
10
30.0
20
-452.0
30
0.0
10
30.0
20
-447.0
30
0.0
10
31.0
20
-443.0
30
0.0
10
31.0
20
-438.0
30
0.0
10
32.0
20
-433.0
30
0.0
10
32.0
20
-428.0
30
0.0
10
33.0
20
-423.0
30
0.0
10
33.0
20
-418.0
30
0.0
10
34.0
20
-413.0
30
0.0
10
34.0
20
-408.0
30
0.0
10
35.0
20
-403.0
30
0.0
10
35.0
20
-398.0
30
0.0
10
36.0
20
-394.0
30
0.0
10
36.0
20
-389.0
30
0.0
10
37.0
20
-384.0
30
0.0
10
37.0
20
-379.0
30
0.0
10
38.0
20
-374.0
30
0.0
10
38.0
20
-369.0
30
0.0
10
39.0
20
-364.0
30
0.0
10
39.0
20
-359.0
30
0.0
10
40.0
20
-354.0
30
0.0
10
40.0
20
-349.0
30
0.0
10
41.0
20
-345.0
30
0.0
10
41.0
20
-340.0
30
0.0
10
42.0
20
-335.0
30
0.0
10
42.0
20
-330.0
30
0.0
10
43.0
20
-325.0
30
0.0
10
43.0
20
-321.0
30
0.0
10
44.0
20
-316.0
30
0.0
10
44.0
20
-311.0
30
0.0
10
44.0
20
-306.0
30
0.0
10
45.0
20
-301.0
30
0.0
10
45.0
20
-297.0
30
0.0
10
46.0
20
-292.0
30
0.0
10
46.0
20
-287.0
30
0.0
10
47.0
20
-282.0
30
0.0
10
47.0
20
-277.0
30
0.0
10
48.0
20
-273.0
30
0.0
10
48.0
20
-268.0
30
0.0
10
49.0
20
-263.0
30
0.0
10
49.0
20
-258.0
30
0.0
10
50.0
20
-254.0
30
0.0
10
50.0
20
-249.0
30
0.0
10
51.0
20
-244.0
30
0.0
10
51.0
20
-239.0
30
0.0
10
52.0
20
-234.0
30
0.0
10
52.0
20
-230.0
30
0.0
10
53.0
20
-225.0
30
0.0
10
53.0
20
-220.0
30
0.0
10
54.0
20
-215.0
30
0.0
10
54.0
20
-210.0
30
0.0
10
55.0
20
-205.0
30
0.0
10
55.0
20
-201.0
30
0.0
10
56.0
20
-196.0
30
0.0
10
56.0
20
-191.0
30
0.0
10
56.0
20
-186.0
30
0.0
10
57.0
20
-181.0
30
0.0
10
57.0
20
-176.0
30
0.0
10
58.0
20
-171.0
30
0.0
10
58.0
20
-166.0
30
0.0
10
59.0
20
-161.0
30
0.0
10
59.0
20
-156.0
30
0.0
10
60.0
20
-152.0
30
0.0
10
60.0
20
-147.0
30
0.0
10
61.0
20
-142.0
30
0.0
10
62.0
20
-137.0
30
0.0
10
62.0
20
-132.0
30
0.0
10
63.0
20
-127.0
30
0.0
10
63.0
20
-122.0
30
0.0
10
64.0
20
-118.0
30
0.0
10
64.0
20
-113.0
30
0.0
10
65.0
20
-108.0
30
0.0
10
65.0
20
-103.0
30
0.0
10
66.0
20
-99.0
30
0.0
10
67.0
20
-94.0
30
0.0
10
67.0
20
-89.0
30
0.0
10
68.0
20
-84.0
30
0.0
10
69.0
20
-79.0
30
0.0
10
69.0
20
-75.0
30
0.0
10
70.0
20
-70.0
30
0.0
10
71.0
20
-65.0
30
0.0
10
71.0
20
-60.0
30
0.0
10
72.0
20
-56.0
30
0.0
10
73.0
20
-51.0
30
0.0
10
110.0
20
-59.0
30
0.0
6
Solid
370
35
62
2
0
ENDSEC
0
SECTION
2
OBJECTS
0
DICTIONARY
5
1db
330
0
100
AcDbDictionary
281
1
3
ACAD_GROUP
350
1dc
0
DICTIONARY
5
1dc
330
1db
100
AcDbDictionary
281
1
0
ENDSEC
0
EOF
