999

0
SECTION
2
HEADER
9
$ACADVER
1
AC1021
9
$HANDSEED
5
201
0
ENDSEC
0
SECTION
2
CLASSES
0
ENDSEC
0
SECTION
2
TABLES
0
TABLE
2
VPORT
5
1e6
100
AcDbSymbolTable
70
1
0
VPORT
5
1e5
100
AcDbSymbolTableRecord
100
AcDbViewportTableRecord
2
*ACTIVE
10
0
20
0
11
1
21
1
12
500.0
22
500.0
40
1000.0
70
0
0
ENDTAB
0
TABLE
2
LTYPE
5
1e7
100
AcDbSymbolTable
70
3
0
LTYPE
5
1ef
100
AcDbSymbolTableRecord
100
AcDbLinetypeTableRecord
2
Solid
70
0
72
65
73
0
3

0
LTYPE
5
1f0
100
AcDbSymbolTableRecord
100
AcDbLinetypeTableRecord
2
ByBlock
70
0
72
65
73
0
3

0
LTYPE
5
1f1
100
AcDbSymbolTableRecord
100
AcDbLinetypeTableRecord
2
ByLayer
70
0
72
65
73
0
3

0
ENDTAB
0
TABLE
2
LAYER
5
1e8
100
AcDbSymbolTable
70
2
0
LAYER
5
1f2
100
AcDbSymbolTableRecord
100
AcDbLayerTableRecord
2
0
70
0
390
0
0
LAYER
5
1fe
100
AcDbSymbolTableRecord
100
AcDbLayerTableRecord
2
zone_0_q3
70
0
390
0
0
ENDTAB
0
TABLE
2
STYLE
5
1e9
100
AcDbSymbolTable
70
0
0
ENDTAB
0
TABLE
2
VIEW
5
1ea
100
AcDbSymbolTable
70
0
0
ENDTAB
0
TABLE
2
UCS
5
1eb
100
AcDbSymbolTable
70
0
0
ENDTAB
0
TABLE
2
APPID
5
1ec
100
AcDbSymbolTable
70
1
0
APPID
5
1f3
100
AcDbSymbolTableRecord
100
AcDbRegAppTableRecord
2
ACAD
70
0
0
ENDTAB
0
TABLE
2
DIMSTYLE
5
1ed
100
AcDbSymbolTable
70
0
100
AcDbDimStyleTable
71
1
0
ENDTAB
0
TABLE
2
BLOCK_RECORD
5
1ee
100
AcDbSymbolTable
70
2
0
BLOCK_RECORD
5
1f4
100
AcDbSymbolTableRecord
100
AcDbBlockTableRecord
2
*Model_Space
70
0
280
1
281
0
0
BLOCK_RECORD
5
1f5
100
AcDbSymbolTableRecord
100
AcDbBlockTableRecord
2
*Paper_Space
70
0
280
1
281
0
0
ENDTAB
0
ENDSEC
0
SECTION
2
BLOCKS
0
BLOCK
5
1f6
100
AcDbEntity
100
AcDbBlockBegin
2
*Model_Space
70
0
10
0
20
0
30
0
3
*Model_Space
1

0
ENDBLK
5
1f7
100
AcDbEntity
100
AcDbBlockEnd
0
BLOCK
5
1f8
100
AcDbEntity
100
AcDbBlockBegin
2
*Paper_Space
70
0
10
0
20
0
30
0
3
*Paper_Space
1

0
ENDBLK
5
1f9
100
AcDbEntity
100
AcDbBlockEnd
0
ENDSEC
0
SECTION
2
ENTITIES
0
LWPOLYLINE
5
1fc
100
AcDbEntity
100
AcDbPolyline
90
147
70
1
10
4.0
20
-631.0
30
0.0
10
2.0
20
-630.0
30
0.0
10
0.0
20
-629.0
30
0.0
10
0.0
20
-626.0
30
0.0
10
0.0
20
-9.0
30
0.0
10
0.0
20
-6.0
30
0.0
10
1.0
20
-4.0
30
0.0
10
3.0
20
-3.0
30
0.0
10
7.0
20
-2.0
30
0.0
10
234.0
20
0.0
30
0.0
10
237.0
20
0.0
30
0.0
10
239.0
20
-1.0
30
0.0
10
240.0
20
-3.0
30
0.0
10
240.0
20
-7.0
30
0.0
10
240.0
20
-11.0
30
0.0
10
240.0
20
-16.0
30
0.0
10
240.0
20
-20.0
30
0.0
10
240.0
20
-24.0
30
0.0
10
240.0
20
-29.0
30
0.0
10
240.0
20
-33.0
30
0.0
10
240.0
20
-38.0
30
0.0
10
240.0
20
-42.0
30
0.0
10
240.0
20
-47.0
30
0.0
10
241.0
20
-52.0
30
0.0
10
241.0
20
-57.0
30
0.0
10
241.0
20
-61.0
30
0.0
10
241.0
20
-66.0
30
0.0
10
241.0
20
-71.0
30
0.0
10
241.0
20
-76.0
30
0.0
10
241.0
20
-81.0
30
0.0
10
241.0
20
-86.0
30
0.0
10
241.0
20
-91.0
30
0.0
10
241.0
20
-95.0
30
0.0
10
241.0
20
-100.0
30
0.0
10
242.0
20
-105.0
30
0.0
10
242.0
20
-110.0
30
0.0
10
242.0
20
-115.0
30
0.0
10
242.0
20
-120.0
30
0.0
10
242.0
20
-125.0
30
0.0
10
242.0
20
-129.0
30
0.0
10
242.0
20
-134.0
30
0.0
10
242.0
20
-139.0
30
0.0
10
242.0
20
-144.0
30
0.0
10
243.0
20
-149.0
30
0.0
10
243.0
20
-154.0
30
0.0
10
243.0
20
-159.0
30
0.0
10
243.0
20
-163.0
30
0.0
10
243.0
20
-168.0
30
0.0
10
243.0
20
-173.0
30
0.0
10
243.0
20
-178.0
30
0.0
10
243.0
20
-183.0
30
0.0
10
243.0
20
-188.0
30
0.0
10
244.0
20
-193.0
30
0.0
10
244.0
20
-197.0
30
0.0
10
244.0
20
-202.0
30
0.0
10
244.0
20
-207.0
30
0.0
10
244.0
20
-212.0
30
0.0
10
244.0
20
-217.0
30
0.0
10
244.0
20
-222.0
30
0.0
10
245.0
20
-227.0
30
0.0
10
245.0
20
-232.0
30
0.0
10
245.0
20
-236.0
30
0.0
10
245.0
20
-241.0
30
0.0
10
245.0
20
-246.0
30
0.0
10
245.0
20
-251.0
30
0.0
10
245.0
20
-256.0
30
0.0
10
246.0
20
-261.0
30
0.0
10
246.0
20
-266.0
30
0.0
10
246.0
20
-271.0
30
0.0
10
246.0
20
-275.0
30
0.0
10
246.0
20
-280.0
30
0.0
10
246.0
20
-285.0
30
0.0
10
246.0
20
-290.0
30
0.0
10
247.0
20
-295.0
30
0.0
10
247.0
20
-300.0
30
0.0
10
247.0
20
-305.0
30
0.0
10
247.0
20
-310.0
30
0.0
10
247.0
20
-315.0
30
0.0
10
247.0
20
-319.0
30
0.0
10
247.0
20
-324.0
30
0.0
10
247.0
20
-329.0
30
0.0
10
248.0
20
-334.0
30
0.0
10
248.0
20
-339.0
30
0.0
10
248.0
20
-344.0
30
0.0
10
248.0
20
-349.0
30
0.0
10
248.0
20
-354.0
30
0.0
10
248.0
20
-359.0
30
0.0
10
248.0
20
-364.0
30
0.0
10
248.0
20
-368.0
30
0.0
10
248.0
20
-373.0
30
0.0
10
248.0
20
-378.0
30
0.0
10
248.0
20
-383.0
30
0.0
10
248.0
20
-387.0
30
0.0
10
248.0
20
-392.0
30
0.0
10
248.0
20
-397.0
30
0.0
10
248.0
20
-402.0
30
0.0
10
248.0
20
-406.0
30
0.0
10
248.0
20
-411.0
30
0.0
10
248.0
20
-416.0
30
0.0
10
247.0
20
-421.0
30
0.0
10
247.0
20
-426.0
30
0.0
10
247.0
20
-430.0
30
0.0
10
247.0
20
-435.0
30
0.0
10
247.0
20
-440.0
30
0.0
10
247.0
20
-445.0
30
0.0
10
247.0
20
-449.0
30
0.0
10
247.0
20
-454.0
30
0.0
10
247.0
20
-459.0
30
0.0
10
247.0
20
-464.0
30
0.0
10
246.0
20
-469.0
30
0.0
10
246.0
20
-474.0
30
0.0
10
246.0
20
-479.0
30
0.0
10
246.0
20
-483.0
30
0.0
10
246.0
20
-488.0
30
0.0
10
246.0
20
-493.0
30
0.0
10
246.0
20
-498.0
30
0.0
10
246.0
20
-503.0
30
0.0
10
246.0
20
-508.0
30
0.0
10
245.0
20
-513.0
30
0.0
10
245.0
20
-517.0
30
0.0
10
245.0
20
-522.0
30
0.0
10
245.0
20
-527.0
30
0.0
10
245.0
20
-532.0
30
0.0
10
245.0
20
-537.0
30
0.0
10
245.0
20
-542.0
30
0.0
10
245.0
20
-546.0
30
0.0
10
245.0
20
-551.0
30
0.0
10
245.0
20
-556.0
30
0.0
10
245.0
20
-561.0
30
0.0
10
245.0
20
-566.0
30
0.0
10
245.0
20
-571.0
30
0.0
10
245.0
20
-575.0
30
0.0
10
245.0
20
-580.0
30
0.0
10
245.0
20
-585.0
30
0.0
10
245.0
20
-590.0
30
0.0
10
244.0
20
-595.0
30
0.0
10
244.0
20
-600.0
30
0.0
10
244.0
20
-605.0
30
0.0
10
244.0
20
-609.0
30
0.0
10
244.0
20
-614.0
30
0.0
10
244.0
20
-619.0
30
0.0
10
244.0
20
-622.0
30
0.0
10
243.0
20
-625.0
30
0.0
10
239.0
20
-626.0
30
0.0
10
235.0
20
-627.0
30
0.0
10
6.0
20
-631.0
30
0.0
10
4.0
20
-631.0
30
0.0
6
Solid
370
35
62
0
0
LWPOLYLINE
5
1ff
100
AcDbEntity
8
zone_0_q3
100
AcDbPolyline
90
62
70
1
10
0.0
20
-246.0
30
0.0
10
0.0
20
-9.0
30
0.0
10
0.0
20
-6.0
30
0.0
10
1.0
20
-4.0
30
0.0
10
3.0
20
-3.0
30
0.0
10
7.0
20
-2.0
30
0.0
10
234.0
20
0.0
30
0.0
10
237.0
20
0.0
30
0.0
10
239.0
20
-1.0
30
0.0
10
240.0
20
-3.0
30
0.0
10
240.0
20
-7.0
30
0.0
10
240.0
20
-11.0
30
0.0
10
240.0
20
-16.0
30
0.0
10
240.0
20
-20.0
30
0.0
10
240.0
20
-24.0
30
0.0
10
240.0
20
-29.0
30
0.0
10
240.0
20
-33.0
30
0.0
10
240.0
20
-38.0
30
0.0
10
240.0
20
-42.0
30
0.0
10
240.0
20
-47.0
30
0.0
10
241.0
20
-52.0
30
0.0
10
241.0
20
-57.0
30
0.0
10
241.0
20
-61.0
30
0.0
10
241.0
20
-66.0
30
0.0
10
241.0
20
-71.0
30
0.0
10
241.0
20
-76.0
30
0.0
10
241.0
20
-81.0
30
0.0
10
241.0
20
-86.0
30
0.0
10
241.0
20
-91.0
30
0.0
10
241.0
20
-95.0
30
0.0
10
241.0
20
-100.0
30
0.0
10
242.0
20
-105.0
30
0.0
10
242.0
20
-110.0
30
0.0
10
242.0
20
-115.0
30
0.0
10
242.0
20
-120.0
30
0.0
10
242.0
20
-125.0
30
0.0
10
242.0
20
-129.0
30
0.0
10
242.0
20
-134.0
30
0.0
10
242.0
20
-139.0
30
0.0
10
242.0
20
-144.0
30
0.0
10
243.0
20
-149.0
30
0.0
10
243.0
20
-154.0
30
0.0
10
243.0
20
-159.0
30
0.0
10
243.0
20
-163.0
30
0.0
10
243.0
20
-168.0
30
0.0
10
243.0
20
-173.0
30
0.0
10
243.0
20
-178.0
30
0.0
10
243.0
20
-183.0
30
0.0
10
243.0
20
-188.0
30
0.0
10
244.0
20
-193.0
30
0.0
10
244.0
20
-197.0
30
0.0
10
244.0
20
-202.0
30
0.0
10
244.0
20
-207.0
30
0.0
10
244.0
20
-212.0
30
0.0
10
244.0
20
-217.0
30
0.0
10
244.0
20
-222.0
30
0.0
10
245.0
20
-227.0
30
0.0
10
245.0
20
-232.0
30
0.0
10
245.0
20
-236.0
30
0.0
10
245.0
20
-241.0
30
0.0
10
245.0
20
-246.0
30
0.0
10
0.0
20
-246.0
30
0.0
6
Solid
370
35
62
3
0
ENDSEC
0
SECTION
2
OBJECTS
0
DICTIONARY
5
1fa
330
0
100
AcDbDictionary
281
1
3
ACAD_GROUP
350
1fb
0
DICTIONARY
5
1fb
330
1fa
100
AcDbDictionary
281
1
0
ENDSEC
0
EOF
