999

0
SECTION
2
HEADER
9
$ACADVER
1
AC1021
9
$HANDSEED
5
239
0
ENDSEC
0
SECTION
2
CLASSES
0
ENDSEC
0
SECTION
2
TABLES
0
TABLE
2
VPORT
5
21b
100
AcDbSymbolTable
70
1
0
VPORT
5
21a
100
AcDbSymbolTableRecord
100
AcDbViewportTableRecord
2
*ACTIVE
10
0
20
0
11
1
21
1
12
500.0
22
500.0
40
1000.0
70
0
0
ENDTAB
0
TABLE
2
LTYPE
5
21c
100
AcDbSymbolTable
70
3
0
LTYPE
5
224
100
AcDbSymbolTableRecord
100
AcDbLinetypeTableRecord
2
Solid
70
0
72
65
73
0
3

0
LTYPE
5
225
100
AcDbSymbolTableRecord
100
AcDbLinetypeTableRecord
2
ByBlock
70
0
72
65
73
0
3

0
LTYPE
5
226
100
AcDbSymbolTableRecord
100
AcDbLinetypeTableRecord
2
ByLayer
70
0
72
65
73
0
3

0
ENDTAB
0
TABLE
2
LAYER
5
21d
100
AcDbSymbolTable
70
3
0
LAYER
5
227
100
AcDbSymbolTableRecord
100
AcDbLayerTableRecord
2
0
70
0
390
0
0
LAYER
5
233
100
AcDbSymbolTableRecord
100
AcDbLayerTableRecord
2
zone_0_q2
70
0
390
0
0
LAYER
5
236
100
AcDbSymbolTableRecord
100
AcDbLayerTableRecord
2
zone_1_q2
70
0
390
0
0
ENDTAB
0
TABLE
2
STYLE
5
21e
100
AcDbSymbolTable
70
0
0
ENDTAB
0
TABLE
2
VIEW
5
21f
100
AcDbSymbolTable
70
0
0
ENDTAB
0
TABLE
2
UCS
5
220
100
AcDbSymbolTable
70
0
0
ENDTAB
0
TABLE
2
APPID
5
221
100
AcDbSymbolTable
70
1
0
APPID
5
228
100
AcDbSymbolTableRecord
100
AcDbRegAppTableRecord
2
ACAD
70
0
0
ENDTAB
0
TABLE
2
DIMSTYLE
5
222
100
AcDbSymbolTable
70
0
100
AcDbDimStyleTable
71
1
0
ENDTAB
0
TABLE
2
BLOCK_RECORD
5
223
100
AcDbSymbolTable
70
2
0
BLOCK_RECORD
5
229
100
AcDbSymbolTableRecord
100
AcDbBlockTableRecord
2
*Model_Space
70
0
280
1
281
0
0
BLOCK_RECORD
5
22a
100
AcDbSymbolTableRecord
100
AcDbBlockTableRecord
2
*Paper_Space
70
0
280
1
281
0
0
ENDTAB
0
ENDSEC
0
SECTION
2
BLOCKS
0
BLOCK
5
22b
100
AcDbEntity
100
AcDbBlockBegin
2
*Model_Space
70
0
10
0
20
0
30
0
3
*Model_Space
1

0
ENDBLK
5
22c
100
AcDbEntity
100
AcDbBlockEnd
0
BLOCK
5
22d
100
AcDbEntity
100
AcDbBlockBegin
2
*Paper_Space
70
0
10
0
20
0
30
0
3
*Paper_Space
1

0
ENDBLK
5
22e
100
AcDbEntity
100
AcDbBlockEnd
0
ENDSEC
0
SECTION
2
ENTITIES
0
LWPOLYLINE
5
231
100
AcDbEntity
100
AcDbPolyline
90
36
70
1
10
3.0
20
-138.0
30
0.0
10
4.0
20
-136.0
30
0.0
10
4.0
20
-135.0
30
0.0
10
6.0
20
-135.0
30
0.0
10
29.0
20
-141.0
30
0.0
10
29.0
20
-138.0
30
0.0
10
28.0
20
-136.0
30
0.0
10
26.0
20
-133.0
30
0.0
10
25.0
20
-130.0
30
0.0
10
25.0
20
-128.0
30
0.0
10
24.0
20
-125.0
30
0.0
10
23.0
20
-122.0
30
0.0
10
23.0
20
-118.0
30
0.0
10
27.0
20
-6.0
30
0.0
10
27.0
20
-3.0
30
0.0
10
29.0
20
-1.0
30
0.0
10
31.0
20
0.0
30
0.0
10
33.0
20
0.0
30
0.0
10
261.0
20
0.0
30
0.0
10
262.0
20
0.0
30
0.0
10
263.0
20
-1.0
30
0.0
10
264.0
20
-2.0
30
0.0
10
264.0
20
-4.0
30
0.0
10
264.0
20
-590.0
30
0.0
10
264.0
20
-592.0
30
0.0
10
263.0
20
-593.0
30
0.0
10
262.0
20
-593.0
30
0.0
10
39.0
20
-593.0
30
0.0
10
38.0
20
-593.0
30
0.0
10
36.0
20
-592.0
30
0.0
10
36.0
20
-589.0
30
0.0
10
35.0
20
-587.0
30
0.0
10
35.0
20
-584.0
30
0.0
10
36.0
20
-554.0
30
0.0
10
0.0
20
-553.0
30
0.0
10
3.0
20
-138.0
30
0.0
6
Solid
370
35
62
0
0
LWPOLYLINE
5
234
100
AcDbEntity
8
zone_0_q2
100
AcDbPolyline
90
11
70
1
10
3.0
20
-138.0
30
0.0
10
4.0
20
-136.0
30
0.0
10
4.0
20
-135.0
30
0.0
10
6.0
20
-135.0
30
0.0
10
29.0
20
-141.0
30
0.0
10
28.0
20
-136.0
30
0.0
10
29.0
20
-138.0
30
0.0
10
36.0
20
-141.0
30
0.0
10
36.0
20
-554.0
30
0.0
10
0.0
20
-553.0
30
0.0
10
3.0
20
-138.0
30
0.0
6
Solid
370
35
62
2
0
LWPOLYLINE
5
237
100
AcDbEntity
8
zone_1_q2
100
AcDbPolyline
90
8
70
1
10
36.0
20
-554.0
30
0.0
10
264.0
20
-554.0
30
0.0
10
264.0
20
-590.0
30
0.0
10
264.0
20
-592.0
30
0.0
10
263.0
20
-593.0
30
0.0
10
262.0
20
-593.0
30
0.0
10
36.0
20
-592.0
30
0.0
10
36.0
20
-554.0
30
0.0
6
Solid
370
35
62
2
0
ENDSEC
0
SECTION
2
OBJECTS
0
DICTIONARY
5
22f
330
0
100
AcDbDictionary
281
1
3
ACAD_GROUP
350
230
0
DICTIONARY
5
230
330
22f
100
AcDbDictionary
281
1
0
ENDSEC
0
EOF
