999

0
SECTION
2
HEADER
9
$ACADVER
1
AC1021
9
$HANDSEED
5
255
0
ENDSEC
0
SECTION
2
CLASSES
0
ENDSEC
0
SECTION
2
TABLES
0
TABLE
2
VPORT
5
23a
100
AcDbSymbolTable
70
1
0
VPORT
5
239
100
AcDbSymbolTableRecord
100
AcDbViewportTableRecord
2
*ACTIVE
10
0
20
0
11
1
21
1
12
500.0
22
500.0
40
1000.0
70
0
0
ENDTAB
0
TABLE
2
LTYPE
5
23b
100
AcDbSymbolTable
70
3
0
LTYPE
5
243
100
AcDbSymbolTableRecord
100
AcDbLinetypeTableRecord
2
Solid
70
0
72
65
73
0
3

0
LTYPE
5
244
100
AcDbSymbolTableRecord
100
AcDbLinetypeTableRecord
2
ByBlock
70
0
72
65
73
0
3

0
LTYPE
5
245
100
AcDbSymbolTableRecord
100
AcDbLinetypeTableRecord
2
ByLayer
70
0
72
65
73
0
3

0
ENDTAB
0
TABLE
2
LAYER
5
23c
100
AcDbSymbolTable
70
2
0
LAYER
5
246
100
AcDbSymbolTableRecord
100
AcDbLayerTableRecord
2
0
70
0
390
0
0
LAYER
5
252
100
AcDbSymbolTableRecord
100
AcDbLayerTableRecord
2
zone_0_q2
70
0
390
0
0
ENDTAB
0
TABLE
2
STYLE
5
23d
100
AcDbSymbolTable
70
0
0
ENDTAB
0
TABLE
2
VIEW
5
23e
100
AcDbSymbolTable
70
0
0
ENDTAB
0
TABLE
2
UCS
5
23f
100
AcDbSymbolTable
70
0
0
ENDTAB
0
TABLE
2
APPID
5
240
100
AcDbSymbolTable
70
1
0
APPID
5
247
100
AcDbSymbolTableRecord
100
AcDbRegAppTableRecord
2
ACAD
70
0
0
ENDTAB
0
TABLE
2
DIMSTYLE
5
241
100
AcDbSymbolTable
70
0
100
AcDbDimStyleTable
71
1
0
ENDTAB
0
TABLE
2
BLOCK_RECORD
5
242
100
AcDbSymbolTable
70
2
0
BLOCK_RECORD
5
248
100
AcDbSymbolTableRecord
100
AcDbBlockTableRecord
2
*Model_Space
70
0
280
1
281
0
0
BLOCK_RECORD
5
249
100
AcDbSymbolTableRecord
100
AcDbBlockTableRecord
2
*Paper_Space
70
0
280
1
281
0
0
ENDTAB
0
ENDSEC
0
SECTION
2
BLOCKS
0
BLOCK
5
24a
100
AcDbEntity
100
AcDbBlockBegin
2
*Model_Space
70
0
10
0
20
0
30
0
3
*Model_Space
1

0
ENDBLK
5
24b
100
AcDbEntity
100
AcDbBlockEnd
0
BLOCK
5
24c
100
AcDbEntity
100
AcDbBlockBegin
2
*Paper_Space
70
0
10
0
20
0
30
0
3
*Paper_Space
1

0
ENDBLK
5
24d
100
AcDbEntity
100
AcDbBlockEnd
0
ENDSEC
0
SECTION
2
ENTITIES
0
LWPOLYLINE
5
250
100
AcDbEntity
100
AcDbPolyline
90
26
70
1
10
259.0
20
-10.0
30
0.0
10
260.0
20
-14.0
30
0.0
10
260.0
20
-18.0
30
0.0
10
261.0
20
-22.0
30
0.0
10
261.0
20
-27.0
30
0.0
10
262.0
20
-31.0
30
0.0
10
280.0
20
-508.0
30
0.0
10
280.0
20
-512.0
30
0.0
10
279.0
20
-517.0
30
0.0
10
278.0
20
-521.0
30
0.0
10
277.0
20
-523.0
30
0.0
10
273.0
20
-524.0
30
0.0
10
270.0
20
-524.0
30
0.0
10
266.0
20
-525.0
30
0.0
10
263.0
20
-525.0
30
0.0
10
259.0
20
-525.0
30
0.0
10
255.0
20
-525.0
30
0.0
10
252.0
20
-526.0
30
0.0
10
2.0
20
-528.0
30
0.0
10
0.0
20
-528.0
30
0.0
10
0.0
20
-527.0
30
0.0
10
0.0
20
-525.0
30
0.0
10
0.0
20
-524.0
30
0.0
10
0.0
20
-6.0
30
0.0
10
249.0
20
0.0
30
0.0
10
259.0
20
-10.0
30
0.0
6
Solid
370
35
62
0
0
LWPOLYLINE
5
253
100
AcDbEntity
8
zone_0_q2
100
AcDbPolyline
90
8
70
1
10
0.0
20
-6.0
30
0.0
10
30.0
20
-6.0
30
0.0
10
2.0
20
-528.0
30
0.0
10
0.0
20
-528.0
30
0.0
10
0.0
20
-525.0
30
0.0
10
0.0
20
-524.0
30
0.0
10
0.0
20
-527.0
30
0.0
10
0.0
20
-6.0
30
0.0
6
Solid
370
35
62
2
0
ENDSEC
0
SECTION
2
OBJECTS
0
DICTIONARY
5
24e
330
0
100
AcDbDictionary
281
1
3
ACAD_GROUP
350
24f
0
DICTIONARY
5
24f
330
24e
100
AcDbDictionary
281
1
0
ENDSEC
0
EOF
