999

0
SECTION
2
HEADER
9
$ACADVER
1
AC1021
9
$HANDSEED
5
271
0
ENDSEC
0
SECTION
2
CLASSES
0
ENDSEC
0
SECTION
2
TABLES
0
TABLE
2
VPORT
5
256
100
AcDbSymbolTable
70
1
0
VPORT
5
255
100
AcDbSymbolTableRecord
100
AcDbViewportTableRecord
2
*ACTIVE
10
0
20
0
11
1
21
1
12
500.0
22
500.0
40
1000.0
70
0
0
ENDTAB
0
TABLE
2
LTYPE
5
257
100
AcDbSymbolTable
70
3
0
LTYPE
5
25f
100
AcDbSymbolTableRecord
100
AcDbLinetypeTableRecord
2
Solid
70
0
72
65
73
0
3

0
LTYPE
5
260
100
AcDbSymbolTableRecord
100
AcDbLinetypeTableRecord
2
ByBlock
70
0
72
65
73
0
3

0
LTYPE
5
261
100
AcDbSymbolTableRecord
100
AcDbLinetypeTableRecord
2
ByLayer
70
0
72
65
73
0
3

0
ENDTAB
0
TABLE
2
LAYER
5
258
100
AcDbSymbolTable
70
2
0
LAYER
5
262
100
AcDbSymbolTableRecord
100
AcDbLayerTableRecord
2
0
70
0
390
0
0
LAYER
5
26e
100
AcDbSymbolTableRecord
100
AcDbLayerTableRecord
2
zone_0_q2
70
0
390
0
0
ENDTAB
0
TABLE
2
STYLE
5
259
100
AcDbSymbolTable
70
0
0
ENDTAB
0
TABLE
2
VIEW
5
25a
100
AcDbSymbolTable
70
0
0
ENDTAB
0
TABLE
2
UCS
5
25b
100
AcDbSymbolTable
70
0
0
ENDTAB
0
TABLE
2
APPID
5
25c
100
AcDbSymbolTable
70
1
0
APPID
5
263
100
AcDbSymbolTableRecord
100
AcDbRegAppTableRecord
2
ACAD
70
0
0
ENDTAB
0
TABLE
2
DIMSTYLE
5
25d
100
AcDbSymbolTable
70
0
100
AcDbDimStyleTable
71
1
0
ENDTAB
0
TABLE
2
BLOCK_RECORD
5
25e
100
AcDbSymbolTable
70
2
0
BLOCK_RECORD
5
264
100
AcDbSymbolTableRecord
100
AcDbBlockTableRecord
2
*Model_Space
70
0
280
1
281
0
0
BLOCK_RECORD
5
265
100
AcDbSymbolTableRecord
100
AcDbBlockTableRecord
2
*Paper_Space
70
0
280
1
281
0
0
ENDTAB
0
ENDSEC
0
SECTION
2
BLOCKS
0
BLOCK
5
266
100
AcDbEntity
100
AcDbBlockBegin
2
*Model_Space
70
0
10
0
20
0
30
0
3
*Model_Space
1

0
ENDBLK
5
267
100
AcDbEntity
100
AcDbBlockEnd
0
BLOCK
5
268
100
AcDbEntity
100
AcDbBlockBegin
2
*Paper_Space
70
0
10
0
20
0
30
0
3
*Paper_Space
1

0
ENDBLK
5
269
100
AcDbEntity
100
AcDbBlockEnd
0
ENDSEC
0
SECTION
2
ENTITIES
0
LWPOLYLINE
5
26c
100
AcDbEntity
100
AcDbPolyline
90
37
70
1
10
249.0
20
-5.0
30
0.0
10
253.0
20
-5.0
30
0.0
10
256.0
20
-5.0
30
0.0
10
260.0
20
-5.0
30
0.0
10
263.0
20
-5.0
30
0.0
10
267.0
20
-6.0
30
0.0
10
271.0
20
-6.0
30
0.0
10
275.0
20
-7.0
30
0.0
10
279.0
20
-8.0
30
0.0
10
279.0
20
-527.0
30
0.0
10
264.0
20
-529.0
30
0.0
10
26.0
20
-525.0
30
0.0
10
22.0
20
-525.0
30
0.0
10
19.0
20
-526.0
30
0.0
10
15.0
20
-525.0
30
0.0
10
12.0
20
-525.0
30
0.0
10
8.0
20
-525.0
30
0.0
10
5.0
20
-524.0
30
0.0
10
2.0
20
-523.0
30
0.0
10
1.0
20
-519.0
30
0.0
10
0.0
20
-515.0
30
0.0
10
0.0
20
-512.0
30
0.0
10
0.0
20
-509.0
30
0.0
10
0.0
20
-504.0
30
0.0
10
0.0
20
-499.0
30
0.0
10
0.0
20
-494.0
30
0.0
10
17.0
20
-43.0
30
0.0
10
17.0
20
-39.0
30
0.0
10
17.0
20
-36.0
30
0.0
10
18.0
20
-32.0
30
0.0
10
18.0
20
-27.0
30
0.0
10
18.0
20
-23.0
30
0.0
10
19.0
20
-18.0
30
0.0
10
20.0
20
-14.0
30
0.0
10
21.0
20
-10.0
30
0.0
10
30.0
20
0.0
30
0.0
10
249.0
20
-5.0
30
0.0
6
Solid
370
35
62
0
0
LWPOLYLINE
5
26f
100
AcDbEntity
8
zone_0_q2
100
AcDbPolyline
90
12
70
1
10
249.0
20
-5.0
30
0.0
10
253.0
20
-5.0
30
0.0
10
256.0
20
-5.0
30
0.0
10
260.0
20
-5.0
30
0.0
10
263.0
20
-5.0
30
0.0
10
267.0
20
-6.0
30
0.0
10
271.0
20
-6.0
30
0.0
10
275.0
20
-7.0
30
0.0
10
279.0
20
-8.0
30
0.0
10
279.0
20
-527.0
30
0.0
10
264.0
20
-529.0
30
0.0
10
249.0
20
-5.0
30
0.0
6
Solid
370
35
62
2
0
ENDSEC
0
SECTION
2
OBJECTS
0
DICTIONARY
5
26a
330
0
100
AcDbDictionary
281
1
3
ACAD_GROUP
350
26b
0
DICTIONARY
5
26b
330
26a
100
AcDbDictionary
281
1
0
ENDSEC
0
EOF
