999

0
SECTION
2
HEADER
9
$ACADVER
1
AC1021
9
$HANDSEED
5
28d
0
ENDSEC
0
SECTION
2
CLASSES
0
ENDSEC
0
SECTION
2
TABLES
0
TABLE
2
VPORT
5
272
100
AcDbSymbolTable
70
1
0
VPORT
5
271
100
AcDbSymbolTableRecord
100
AcDbViewportTableRecord
2
*ACTIVE
10
0
20
0
11
1
21
1
12
500.0
22
500.0
40
1000.0
70
0
0
ENDTAB
0
TABLE
2
LTYPE
5
273
100
AcDbSymbolTable
70
3
0
LTYPE
5
27b
100
AcDbSymbolTableRecord
100
AcDbLinetypeTableRecord
2
Solid
70
0
72
65
73
0
3

0
LTYPE
5
27c
100
AcDbSymbolTableRecord
100
AcDbLinetypeTableRecord
2
ByBlock
70
0
72
65
73
0
3

0
LTYPE
5
27d
100
AcDbSymbolTableRecord
100
AcDbLinetypeTableRecord
2
ByLayer
70
0
72
65
73
0
3

0
ENDTAB
0
TABLE
2
LAYER
5
274
100
AcDbSymbolTable
70
2
0
LAYER
5
27e
100
AcDbSymbolTableRecord
100
AcDbLayerTableRecord
2
0
70
0
390
0
0
LAYER
5
28a
100
AcDbSymbolTableRecord
100
AcDbLayerTableRecord
2
zone_0_q3
70
0
390
0
0
ENDTAB
0
TABLE
2
STYLE
5
275
100
AcDbSymbolTable
70
0
0
ENDTAB
0
TABLE
2
VIEW
5
276
100
AcDbSymbolTable
70
0
0
ENDTAB
0
TABLE
2
UCS
5
277
100
AcDbSymbolTable
70
0
0
ENDTAB
0
TABLE
2
APPID
5
278
100
AcDbSymbolTable
70
1
0
APPID
5
27f
100
AcDbSymbolTableRecord
100
AcDbRegAppTableRecord
2
ACAD
70
0
0
ENDTAB
0
TABLE
2
DIMSTYLE
5
279
100
AcDbSymbolTable
70
0
100
AcDbDimStyleTable
71
1
0
ENDTAB
0
TABLE
2
BLOCK_RECORD
5
27a
100
AcDbSymbolTable
70
2
0
BLOCK_RECORD
5
280
100
AcDbSymbolTableRecord
100
AcDbBlockTableRecord
2
*Model_Space
70
0
280
1
281
0
0
BLOCK_RECORD
5
281
100
AcDbSymbolTableRecord
100
AcDbBlockTableRecord
2
*Paper_Space
70
0
280
1
281
0
0
ENDTAB
0
ENDSEC
0
SECTION
2
BLOCKS
0
BLOCK
5
282
100
AcDbEntity
100
AcDbBlockBegin
2
*Model_Space
70
0
10
0
20
0
30
0
3
*Model_Space
1

0
ENDBLK
5
283
100
AcDbEntity
100
AcDbBlockEnd
0
BLOCK
5
284
100
AcDbEntity
100
AcDbBlockBegin
2
*Paper_Space
70
0
10
0
20
0
30
0
3
*Paper_Space
1

0
ENDBLK
5
285
100
AcDbEntity
100
AcDbBlockEnd
0
ENDSEC
0
SECTION
2
ENTITIES
0
LWPOLYLINE
5
288
100
AcDbEntity
100
AcDbPolyline
90
116
70
1
10
283.0
20
-618.0
30
0.0
10
283.0
20
-621.0
30
0.0
10
282.0
20
-624.0
30
0.0
10
282.0
20
-625.0
30
0.0
10
279.0
20
-625.0
30
0.0
10
101.0
20
-629.0
30
0.0
10
97.0
20
-629.0
30
0.0
10
93.0
20
-629.0
30
0.0
10
90.0
20
-629.0
30
0.0
10
85.0
20
-627.0
30
0.0
10
83.0
20
-623.0
30
0.0
10
82.0
20
-618.0
30
0.0
10
81.0
20
-614.0
30
0.0
10
41.0
20
-421.0
30
0.0
10
40.0
20
-417.0
30
0.0
10
39.0
20
-413.0
30
0.0
10
39.0
20
-409.0
30
0.0
10
38.0
20
-404.0
30
0.0
10
37.0
20
-400.0
30
0.0
10
36.0
20
-396.0
30
0.0
10
35.0
20
-391.0
30
0.0
10
34.0
20
-387.0
30
0.0
10
32.0
20
-383.0
30
0.0
10
31.0
20
-379.0
30
0.0
10
30.0
20
-375.0
30
0.0
10
28.0
20
-371.0
30
0.0
10
26.0
20
-367.0
30
0.0
10
24.0
20
-363.0
30
0.0
10
21.0
20
-360.0
30
0.0
10
18.0
20
-358.0
30
0.0
10
15.0
20
-356.0
30
0.0
10
11.0
20
-355.0
30
0.0
10
7.0
20
-354.0
30
0.0
10
3.0
20
-352.0
30
0.0
10
0.0
20
-350.0
30
0.0
10
1.0
20
-346.0
30
0.0
10
3.0
20
-341.0
30
0.0
10
4.0
20
-337.0
30
0.0
10
6.0
20
-332.0
30
0.0
10
8.0
20
-328.0
30
0.0
10
9.0
20
-323.0
30
0.0
10
11.0
20
-318.0
30
0.0
10
13.0
20
-314.0
30
0.0
10
14.0
20
-309.0
30
0.0
10
16.0
20
-305.0
30
0.0
10
18.0
20
-300.0
30
0.0
10
19.0
20
-296.0
30
0.0
10
21.0
20
-291.0
30
0.0
10
22.0
20
-286.0
30
0.0
10
24.0
20
-282.0
30
0.0
10
26.0
20
-277.0
30
0.0
10
27.0
20
-273.0
30
0.0
10
29.0
20
-268.0
30
0.0
10
30.0
20
-263.0
30
0.0
10
32.0
20
-259.0
30
0.0
10
33.0
20
-254.0
30
0.0
10
35.0
20
-250.0
30
0.0
10
36.0
20
-245.0
30
0.0
10
38.0
20
-240.0
30
0.0
10
40.0
20
-236.0
30
0.0
10
41.0
20
-231.0
30
0.0
10
43.0
20
-227.0
30
0.0
10
44.0
20
-222.0
30
0.0
10
45.0
20
-218.0
30
0.0
10
47.0
20
-213.0
30
0.0
10
48.0
20
-209.0
30
0.0
10
50.0
20
-204.0
30
0.0
10
51.0
20
-200.0
30
0.0
10
53.0
20
-195.0
30
0.0
10
54.0
20
-191.0
30
0.0
10
56.0
20
-186.0
30
0.0
10
57.0
20
-182.0
30
0.0
10
58.0
20
-178.0
30
0.0
10
60.0
20
-174.0
30
0.0
10
61.0
20
-169.0
30
0.0
10
62.0
20
-165.0
30
0.0
10
64.0
20
-161.0
30
0.0
10
65.0
20
-156.0
30
0.0
10
66.0
20
-152.0
30
0.0
10
67.0
20
-147.0
30
0.0
10
68.0
20
-143.0
30
0.0
10
69.0
20
-138.0
30
0.0
10
70.0
20
-133.0
30
0.0
10
70.0
20
-129.0
30
0.0
10
70.0
20
-124.0
30
0.0
10
70.0
20
-119.0
30
0.0
10
69.0
20
-114.0
30
0.0
10
69.0
20
-110.0
30
0.0
10
68.0
20
-105.0
30
0.0
10
67.0
20
-100.0
30
0.0
10
66.0
20
-95.0
30
0.0
10
65.0
20
-91.0
30
0.0
10
64.0
20
-86.0
30
0.0
10
63.0
20
-81.0
30
0.0
10
62.0
20
-77.0
30
0.0
10
61.0
20
-72.0
30
0.0
10
60.0
20
-67.0
30
0.0
10
59.0
20
-63.0
30
0.0
10
58.0
20
-58.0
30
0.0
10
58.0
20
-54.0
30
0.0
10
57.0
20
-49.0
30
0.0
10
56.0
20
-44.0
30
0.0
10
55.0
20
-40.0
30
0.0
10
54.0
20
-35.0
30
0.0
10
53.0
20
-31.0
30
0.0
10
52.0
20
-27.0
30
0.0
10
51.0
20
-22.0
30
0.0
10
50.0
20
-18.0
30
0.0
10
49.0
20
-14.0
30
0.0
10
48.0
20
-9.0
30
0.0
10
48.0
20
-5.0
30
0.0
10
49.0
20
-1.0
30
0.0
10
52.0
20
-1.0
30
0.0
10
57.0
20
0.0
30
0.0
10
283.0
20
0.0
30
0.0
10
283.0
20
-618.0
30
0.0
6
Solid
370
35
62
0
0
LWPOLYLINE
5
28b
100
AcDbEntity
8
zone_0_q3
100
AcDbPolyline
90
37
70
1
10
283.0
20
-350.0
30
0.0
10
283.0
20
-618.0
30
0.0
10
283.0
20
-621.0
30
0.0
10
282.0
20
-624.0
30
0.0
10
282.0
20
-625.0
30
0.0
10
279.0
20
-625.0
30
0.0
10
101.0
20
-629.0
30
0.0
10
97.0
20
-629.0
30
0.0
10
93.0
20
-629.0
30
0.0
10
90.0
20
-629.0
30
0.0
10
85.0
20
-627.0
30
0.0
10
83.0
20
-623.0
30
0.0
10
82.0
20
-618.0
30
0.0
10
81.0
20
-614.0
30
0.0
10
41.0
20
-421.0
30
0.0
10
40.0
20
-417.0
30
0.0
10
39.0
20
-413.0
30
0.0
10
39.0
20
-409.0
30
0.0
10
38.0
20
-404.0
30
0.0
10
37.0
20
-400.0
30
0.0
10
36.0
20
-396.0
30
0.0
10
35.0
20
-391.0
30
0.0
10
34.0
20
-387.0
30
0.0
10
32.0
20
-383.0
30
0.0
10
31.0
20
-379.0
30
0.0
10
30.0
20
-375.0
30
0.0
10
28.0
20
-371.0
30
0.0
10
26.0
20
-367.0
30
0.0
10
24.0
20
-363.0
30
0.0
10
21.0
20
-360.0
30
0.0
10
18.0
20
-358.0
30
0.0
10
15.0
20
-356.0
30
0.0
10
11.0
20
-355.0
30
0.0
10
7.0
20
-354.0
30
0.0
10
3.0
20
-352.0
30
0.0
10
0.0
20
-350.0
30
0.0
10
283.0
20
-350.0
30
0.0
6
Solid
370
35
62
3
0
ENDSEC
0
SECTION
2
OBJECTS
0
DICTIONARY
5
286
330
0
100
AcDbDictionary
281
1
3
ACAD_GROUP
350
287
0
DICTIONARY
5
287
330
286
100
AcDbDictionary
281
1
0
ENDSEC
0
EOF
