999

0
SECTION
2
HEADER
9
$ACADVER
1
AC1021
9
$HANDSEED
5
468
0
ENDSEC
0
SECTION
2
CLASSES
0
ENDSEC
0
SECTION
2
TABLES
0
TABLE
2
VPORT
5
377
100
AcDbSymbolTable
70
1
0
VPORT
5
376
100
AcDbSymbolTableRecord
100
AcDbViewportTableRecord
2
*ACTIVE
10
0
20
0
11
1
21
1
12
500.0
22
500.0
40
1000.0
70
0
0
ENDTAB
0
TABLE
2
LTYPE
5
378
100
AcDbSymbolTable
70
3
0
LTYPE
5
380
100
AcDbSymbolTableRecord
100
AcDbLinetypeTableRecord
2
Solid
70
0
72
65
73
0
3

0
LTYPE
5
381
100
AcDbSymbolTableRecord
100
AcDbLinetypeTableRecord
2
ByBlock
70
0
72
65
73
0
3

0
LTYPE
5
382
100
AcDbSymbolTableRecord
100
AcDbLinetypeTableRecord
2
ByLayer
70
0
72
65
73
0
3

0
ENDTAB
0
TABLE
2
LAYER
5
379
100
AcDbSymbolTable
70
42
0
LAYER
5
383
100
AcDbSymbolTableRecord
100
AcDbLayerTableRecord
2
0
70
0
390
0
0
LAYER
5
3ed
100
AcDbSymbolTableRecord
100
AcDbLayerTableRecord
2
zone_0_q1
70
0
390
0
0
LAYER
5
3f0
100
AcDbSymbolTableRecord
100
AcDbLayerTableRecord
2
zone_1_q1
70
0
390
0
0
LAYER
5
3f3
100
AcDbSymbolTableRecord
100
AcDbLayerTableRecord
2
zone_2_q1
70
0
390
0
0
LAYER
5
3f6
100
AcDbSymbolTableRecord
100
AcDbLayerTableRecord
2
zone_3_q1
70
0
390
0
0
LAYER
5
3f9
100
AcDbSymbolTableRecord
100
AcDbLayerTableRecord
2
zone_4_q1
70
0
390
0
0
LAYER
5
3fc
100
AcDbSymbolTableRecord
100
AcDbLayerTableRecord
2
zone_5_q1
70
0
390
0
0
LAYER
5
3ff
100
AcDbSymbolTableRecord
100
AcDbLayerTableRecord
2
zone_6_q2
70
0
390
0
0
LAYER
5
402
100
AcDbSymbolTableRecord
100
AcDbLayerTableRecord
2
zone_7_q1
70
0
390
0
0
LAYER
5
405
100
AcDbSymbolTableRecord
100
AcDbLayerTableRecord
2
zone_8_q1
70
0
390
0
0
LAYER
5
408
100
AcDbSymbolTableRecord
100
AcDbLayerTableRecord
2
zone_9_q1
70
0
390
0
0
LAYER
5
40b
100
AcDbSymbolTableRecord
100
AcDbLayerTableRecord
2
zone_10_q2
70
0
390
0
0
LAYER
5
40e
100
AcDbSymbolTableRecord
100
AcDbLayerTableRecord
2
zone_11_q2
70
0
390
0
0
LAYER
5
411
100
AcDbSymbolTableRecord
100
AcDbLayerTableRecord
2
zone_12_q2
70
0
390
0
0
LAYER
5
414
100
AcDbSymbolTableRecord
100
AcDbLayerTableRecord
2
zone_13_q1
70
0
390
0
0
LAYER
5
417
100
AcDbSymbolTableRecord
100
AcDbLayerTableRecord
2
zone_14_q3
70
0
390
0
0
LAYER
5
41a
100
AcDbSymbolTableRecord
100
AcDbLayerTableRecord
2
zone_15_q3
70
0
390
0
0
LAYER
5
41d
100
AcDbSymbolTableRecord
100
AcDbLayerTableRecord
2
zone_16_q2
70
0
390
0
0
LAYER
5
420
100
AcDbSymbolTableRecord
100
AcDbLayerTableRecord
2
zone_17_q3
70
0
390
0
0
LAYER
5
423
100
AcDbSymbolTableRecord
100
AcDbLayerTableRecord
2
zone_18_q2
70
0
390
0
0
LAYER
5
426
100
AcDbSymbolTableRecord
100
AcDbLayerTableRecord
2
zone_19_q2
70
0
390
0
0
LAYER
5
429
100
AcDbSymbolTableRecord
100
AcDbLayerTableRecord
2
zone_20_q3
70
0
390
0
0
LAYER
5
42c
100
AcDbSymbolTableRecord
100
AcDbLayerTableRecord
2
zone_21_q3
70
0
390
0
0
LAYER
5
42f
100
AcDbSymbolTableRecord
100
AcDbLayerTableRecord
2
zone_22_q1
70
0
390
0
0
LAYER
5
432
100
AcDbSymbolTableRecord
100
AcDbLayerTableRecord
2
zone_23_q3
70
0
390
0
0
LAYER
5
435
100
AcDbSymbolTableRecord
100
AcDbLayerTableRecord
2
zone_24_q1
70
0
390
0
0
LAYER
5
438
100
AcDbSymbolTableRecord
100
AcDbLayerTableRecord
2
zone_25_q2
70
0
390
0
0
LAYER
5
43b
100
AcDbSymbolTableRecord
100
AcDbLayerTableRecord
2
zone_26_q1
70
0
390
0
0
LAYER
5
43e
100
AcDbSymbolTableRecord
100
AcDbLayerTableRecord
2
zone_27_q2
70
0
390
0
0
LAYER
5
441
100
AcDbSymbolTableRecord
100
AcDbLayerTableRecord
2
zone_28_q2
70
0
390
0
0
LAYER
5
444
100
AcDbSymbolTableRecord
100
AcDbLayerTableRecord
2
zone_29_q2
70
0
390
0
0
LAYER
5
447
100
AcDbSymbolTableRecord
100
AcDbLayerTableRecord
2
zone_30_q2
70
0
390
0
0
LAYER
5
44a
100
AcDbSymbolTableRecord
100
AcDbLayerTableRecord
2
zone_31_q1
70
0
390
0
0
LAYER
5
44d
100
AcDbSymbolTableRecord
100
AcDbLayerTableRecord
2
zone_32_q1
70
0
390
0
0
LAYER
5
450
100
AcDbSymbolTableRecord
100
AcDbLayerTableRecord
2
zone_33_q1
70
0
390
0
0
LAYER
5
453
100
AcDbSymbolTableRecord
100
AcDbLayerTableRecord
2
zone_34_q1
70
0
390
0
0
LAYER
5
456
100
AcDbSymbolTableRecord
100
AcDbLayerTableRecord
2
zone_35_q1
70
0
390
0
0
LAYER
5
459
100
AcDbSymbolTableRecord
100
AcDbLayerTableRecord
2
zone_36_q1
70
0
390
0
0
LAYER
5
45c
100
AcDbSymbolTableRecord
100
AcDbLayerTableRecord
2
zone_37_q1
70
0
390
0
0
LAYER
5
45f
100
AcDbSymbolTableRecord
100
AcDbLayerTableRecord
2
zone_38_q1
70
0
390
0
0
LAYER
5
462
100
AcDbSymbolTableRecord
100
AcDbLayerTableRecord
2
zone_39_q2
70
0
390
0
0
LAYER
5
465
100
AcDbSymbolTableRecord
100
AcDbLayerTableRecord
2
zone_40_q3
70
0
390
0
0
ENDTAB
0
TABLE
2
STYLE
5
37a
100
AcDbSymbolTable
70
0
0
ENDTAB
0
TABLE
2
VIEW
5
37b
100
AcDbSymbolTable
70
0
0
ENDTAB
0
TABLE
2
UCS
5
37c
100
AcDbSymbolTable
70
0
0
ENDTAB
0
TABLE
2
APPID
5
37d
100
AcDbSymbolTable
70
1
0
APPID
5
384
100
AcDbSymbolTableRecord
100
AcDbRegAppTableRecord
2
ACAD
70
0
0
ENDTAB
0
TABLE
2
DIMSTYLE
5
37e
100
AcDbSymbolTable
70
0
100
AcDbDimStyleTable
71
1
0
ENDTAB
0
TABLE
2
BLOCK_RECORD
5
37f
100
AcDbSymbolTable
70
2
0
BLOCK_RECORD
5
385
100
AcDbSymbolTableRecord
100
AcDbBlockTableRecord
2
*Model_Space
70
0
280
1
281
0
0
BLOCK_RECORD
5
386
100
AcDbSymbolTableRecord
100
AcDbBlockTableRecord
2
*Paper_Space
70
0
280
1
281
0
0
ENDTAB
0
ENDSEC
0
SECTION
2
BLOCKS
0
BLOCK
5
387
100
AcDbEntity
100
AcDbBlockBegin
2
*Model_Space
70
0
10
0
20
0
30
0
3
*Model_Space
1

0
ENDBLK
5
388
100
AcDbEntity
100
AcDbBlockEnd
0
BLOCK
5
389
100
AcDbEntity
100
AcDbBlockBegin
2
*Paper_Space
70
0
10
0
20
0
30
0
3
*Paper_Space
1

0
ENDBLK
5
38a
100
AcDbEntity
100
AcDbBlockEnd
0
ENDSEC
0
SECTION
2
ENTITIES
0
LWPOLYLINE
5
38d
100
AcDbEntity
100
AcDbPolyline
90
291
70
1
10
2404.0
20
-1722.0
30
0.0
10
2399.0
20
-1789.0
30
0.0
10
2387.0
20
-1841.0
30
0.0
10
2381.0
20
-1878.0
30
0.0
10
2364.0
20
-1911.0
30
0.0
10
2350.0
20
-1969.0
30
0.0
10
2310.0
20
-1996.0
30
0.0
10
2277.0
20
-2017.0
30
0.0
10
2264.0
20
-2044.0
30
0.0
10
2258.0
20
-2105.0
30
0.0
10
2246.0
20
-2136.0
30
0.0
10
2226.0
20
-2149.0
30
0.0
10
2176.0
20
-2123.0
30
0.0
10
2139.0
20
-2113.0
30
0.0
10
2102.0
20
-2122.0
30
0.0
10
2078.0
20
-2138.0
30
0.0
10
2063.0
20
-2162.0
30
0.0
10
2044.0
20
-2173.0
30
0.0
10
2020.0
20
-2168.0
30
0.0
10
1986.0
20
-2175.0
30
0.0
10
1956.0
20
-2197.0
30
0.0
10
1926.0
20
-2256.0
30
0.0
10
1908.0
20
-2272.0
30
0.0
10
1885.0
20
-2252.0
30
0.0
10
1865.0
20
-2230.0
30
0.0
10
1863.0
20
-2239.0
30
0.0
10
1891.0
20
-2302.0
30
0.0
10
1887.0
20
-2333.0
30
0.0
10
1880.0
20
-2367.0
30
0.0
10
1873.0
20
-2391.0
30
0.0
10
1842.0
20
-2378.0
30
0.0
10
1828.0
20
-2388.0
30
0.0
10
1847.0
20
-2449.0
30
0.0
10
1822.0
20
-2467.0
30
0.0
10
1816.0
20
-2486.0
30
0.0
10
1821.0
20
-2515.0
30
0.0
10
1843.0
20
-2571.0
30
0.0
10
1842.0
20
-2573.0
30
0.0
10
1796.0
20
-2591.0
30
0.0
10
1771.0
20
-2590.0
30
0.0
10
1734.0
20
-2563.0
30
0.0
10
1724.0
20
-2568.0
30
0.0
10
1732.0
20
-2604.0
30
0.0
10
1785.0
20
-2688.0
30
0.0
10
1785.0
20
-2702.0
30
0.0
10
1741.0
20
-2703.0
30
0.0
10
1727.0
20
-2711.0
30
0.0
10
1717.0
20
-2716.0
30
0.0
10
1667.0
20
-2681.0
30
0.0
10
1608.0
20
-2638.0
30
0.0
10
1580.0
20
-2609.0
30
0.0
10
1559.0
20
-2573.0
30
0.0
10
1531.0
20
-2556.0
30
0.0
10
1516.0
20
-2549.0
30
0.0
10
1499.0
20
-2531.0
30
0.0
10
1455.0
20
-2495.0
30
0.0
10
1439.0
20
-2471.0
30
0.0
10
1418.0
20
-2469.0
30
0.0
10
1397.0
20
-2460.0
30
0.0
10
1378.0
20
-2458.0
30
0.0
10
1363.0
20
-2445.0
30
0.0
10
1336.0
20
-2430.0
30
0.0
10
1287.0
20
-2427.0
30
0.0
10
1211.0
20
-2433.0
30
0.0
10
1175.0
20
-2429.0
30
0.0
10
1135.0
20
-2440.0
30
0.0
10
1104.0
20
-2464.0
30
0.0
10
1095.0
20
-2451.0
30
0.0
10
1077.0
20
-2456.0
30
0.0
10
1058.0
20
-2455.0
30
0.0
10
1019.0
20
-2435.0
30
0.0
10
985.0
20
-2432.0
30
0.0
10
967.0
20
-2427.0
30
0.0
10
955.0
20
-2432.0
30
0.0
10
896.0
20
-2441.0
30
0.0
10
865.0
20
-2460.0
30
0.0
10
846.0
20
-2462.0
30
0.0
10
822.0
20
-2464.0
30
0.0
10
772.0
20
-2471.0
30
0.0
10
751.0
20
-2475.0
30
0.0
10
701.0
20
-2488.0
30
0.0
10
678.0
20
-2509.0
30
0.0
10
660.0
20
-2508.0
30
0.0
10
636.0
20
-2505.0
30
0.0
10
635.0
20
-2503.0
30
0.0
10
614.0
20
-2493.0
30
0.0
10
557.0
20
-2516.0
30
0.0
10
518.0
20
-2543.0
30
0.0
10
480.0
20
-2579.0
30
0.0
10
454.0
20
-2587.0
30
0.0
10
426.0
20
-2583.0
30
0.0
10
404.0
20
-2586.0
30
0.0
10
375.0
20
-2609.0
30
0.0
10
346.0
20
-2660.0
30
0.0
10
325.0
20
-2678.0
30
0.0
10
313.0
20
-2670.0
30
0.0
10
282.0
20
-2661.0
30
0.0
10
272.0
20
-2663.0
30
0.0
10
256.0
20
-2684.0
30
0.0
10
236.0
20
-2709.0
30
0.0
10
206.0
20
-2766.0
30
0.0
10
161.0
20
-2768.0
30
0.0
10
152.0
20
-2757.0
30
0.0
10
130.0
20
-2753.0
30
0.0
10
114.0
20
-2759.0
30
0.0
10
102.0
20
-2761.0
30
0.0
10
97.0
20
-2742.0
30
0.0
10
88.0
20
-2699.0
30
0.0
10
90.0
20
-2683.0
30
0.0
10
44.0
20
-2640.0
30
0.0
10
29.0
20
-2636.0
30
0.0
10
18.0
20
-2609.0
30
0.0
10
9.0
20
-2575.0
30
0.0
10
16.0
20
-2556.0
30
0.0
10
93.0
20
-2477.0
30
0.0
10
158.0
20
-2376.0
30
0.0
10
179.0
20
-2300.0
30
0.0
10
161.0
20
-2211.0
30
0.0
10
155.0
20
-2174.0
30
0.0
10
136.0
20
-2115.0
30
0.0
10
122.0
20
-2088.0
30
0.0
10
91.0
20
-2033.0
30
0.0
10
65.0
20
-1996.0
30
0.0
10
59.0
20
-1956.0
30
0.0
10
14.0
20
-1870.0
30
0.0
10
0.0
20
-1814.0
30
0.0
10
3.0
20
-1783.0
30
0.0
10
28.0
20
-1742.0
30
0.0
10
87.0
20
-1642.0
30
0.0
10
105.0
20
-1638.0
30
0.0
10
138.0
20
-1628.0
30
0.0
10
204.0
20
-1575.0
30
0.0
10
251.0
20
-1512.0
30
0.0
10
264.0
20
-1481.0
30
0.0
10
279.0
20
-1463.0
30
0.0
10
298.0
20
-1426.0
30
0.0
10
296.0
20
-1380.0
30
0.0
10
309.0
20
-1371.0
30
0.0
10
298.0
20
-1363.0
30
0.0
10
293.0
20
-1352.0
30
0.0
10
291.0
20
-1316.0
30
0.0
10
292.0
20
-1276.0
30
0.0
10
284.0
20
-1254.0
30
0.0
10
251.0
20
-1186.0
30
0.0
10
228.0
20
-1152.0
30
0.0
10
114.0
20
-994.0
30
0.0
10
94.0
20
-969.0
30
0.0
10
91.0
20
-950.0
30
0.0
10
98.0
20
-922.0
30
0.0
10
105.0
20
-888.0
30
0.0
10
123.0
20
-807.0
30
0.0
10
127.0
20
-745.0
30
0.0
10
124.0
20
-679.0
30
0.0
10
142.0
20
-661.0
30
0.0
10
147.0
20
-647.0
30
0.0
10
148.0
20
-646.0
30
0.0
10
164.0
20
-599.0
30
0.0
10
177.0
20
-559.0
30
0.0
10
172.0
20
-521.0
30
0.0
10
171.0
20
-464.0
30
0.0
10
151.0
20
-369.0
30
0.0
10
129.0
20
-320.0
30
0.0
10
63.0
20
-247.0
30
0.0
10
52.0
20
-226.0
30
0.0
10
54.0
20
-214.0
30
0.0
10
61.0
20
-188.0
30
0.0
10
75.0
20
-132.0
30
0.0
10
90.0
20
-97.0
30
0.0
10
110.0
20
-96.0
30
0.0
10
149.0
20
-104.0
30
0.0
10
156.0
20
-92.0
30
0.0
10
164.0
20
-79.0
30
0.0
10
180.0
20
-70.0
30
0.0
10
205.0
20
-35.0
30
0.0
10
225.0
20
-22.0
30
0.0
10
236.0
20
0.0
30
0.0
10
326.0
20
-1.0
30
0.0
10
335.0
20
-33.0
30
0.0
10
345.0
20
-53.0
30
0.0
10
373.0
20
-84.0
30
0.0
10
412.0
20
-135.0
30
0.0
10
464.0
20
-159.0
30
0.0
10
496.0
20
-178.0
30
0.0
10
522.0
20
-212.0
30
0.0
10
538.0
20
-222.0
30
0.0
10
582.0
20
-223.0
30
0.0
10
601.0
20
-228.0
30
0.0
10
613.0
20
-224.0
30
0.0
10
632.0
20
-226.0
30
0.0
10
645.0
20
-228.0
30
0.0
10
669.0
20
-212.0
30
0.0
10
679.0
20
-215.0
30
0.0
10
700.0
20
-214.0
30
0.0
10
722.0
20
-203.0
30
0.0
10
759.0
20
-202.0
30
0.0
10
794.0
20
-216.0
30
0.0
10
834.0
20
-220.0
30
0.0
10
882.0
20
-243.0
30
0.0
10
898.0
20
-258.0
30
0.0
10
910.0
20
-262.0
30
0.0
10
941.0
20
-251.0
30
0.0
10
960.0
20
-257.0
30
0.0
10
990.0
20
-251.0
30
0.0
10
1012.0
20
-243.0
30
0.0
10
1024.0
20
-245.0
30
0.0
10
1055.0
20
-250.0
30
0.0
10
1067.0
20
-244.0
30
0.0
10
1095.0
20
-233.0
30
0.0
10
1136.0
20
-255.0
30
0.0
10
1185.0
20
-270.0
30
0.0
10
1207.0
20
-265.0
30
0.0
10
1232.0
20
-267.0
30
0.0
10
1275.0
20
-280.0
30
0.0
10
1318.0
20
-274.0
30
0.0
10
1327.0
20
-289.0
30
0.0
10
1346.0
20
-292.0
30
0.0
10
1438.0
20
-292.0
30
0.0
10
1457.0
20
-269.0
30
0.0
10
1503.0
20
-240.0
30
0.0
10
1559.0
20
-204.0
30
0.0
10
1596.0
20
-154.0
30
0.0
10
1640.0
20
-115.0
30
0.0
10
1703.0
20
-83.0
30
0.0
10
1760.0
20
-39.0
30
0.0
10
1795.0
20
-18.0
30
0.0
10
1808.0
20
-20.0
30
0.0
10
1815.0
20
-35.0
30
0.0
10
1800.0
20
-79.0
30
0.0
10
1737.0
20
-136.0
30
0.0
10
1718.0
20
-163.0
30
0.0
10
1719.0
20
-199.0
30
0.0
10
1731.0
20
-235.0
30
0.0
10
1744.0
20
-243.0
30
0.0
10
1782.0
20
-235.0
30
0.0
10
1829.0
20
-226.0
30
0.0
10
1870.0
20
-204.0
30
0.0
10
1901.0
20
-196.0
30
0.0
10
1919.0
20
-207.0
30
0.0
10
1914.0
20
-253.0
30
0.0
10
1918.0
20
-276.0
30
0.0
10
1916.0
20
-295.0
30
0.0
10
1912.0
20
-341.0
30
0.0
10
1893.0
20
-373.0
30
0.0
10
1903.0
20
-387.0
30
0.0
10
1940.0
20
-390.0
30
0.0
10
1959.0
20
-394.0
30
0.0
10
1966.0
20
-410.0
30
0.0
10
1949.0
20
-468.0
30
0.0
10
1960.0
20
-482.0
30
0.0
10
1997.0
20
-488.0
30
0.0
10
2044.0
20
-473.0
30
0.0
10
2053.0
20
-474.0
30
0.0
10
2080.0
20
-510.0
30
0.0
10
2098.0
20
-535.0
30
0.0
10
2126.0
20
-536.0
30
0.0
10
2145.0
20
-527.0
30
0.0
10
2185.0
20
-512.0
30
0.0
10
2186.0
20
-512.0
30
0.0
10
2237.0
20
-496.0
30
0.0
10
2259.0
20
-497.0
30
0.0
10
2277.0
20
-503.0
30
0.0
10
2288.0
20
-517.0
30
0.0
10
2290.0
20
-549.0
30
0.0
10
2271.0
20
-574.0
30
0.0
10
2276.0
20
-612.0
30
0.0
10
2288.0
20
-634.0
30
0.0
10
2308.0
20
-661.0
30
0.0
10
2312.0
20
-677.0
30
0.0
10
2291.0
20
-709.0
30
0.0
10
2268.0
20
-750.0
30
0.0
10
2251.0
20
-791.0
30
0.0
10
2252.0
20
-812.0
30
0.0
10
2257.0
20
-834.0
30
0.0
10
2263.0
20
-905.0
30
0.0
10
2287.0
20
-972.0
30
0.0
10
2298.0
20
-987.0
30
0.0
10
2339.0
20
-1072.0
30
0.0
10
2396.0
20
-1222.0
30
0.0
10
2393.0
20
-1271.0
30
0.0
10
2385.0
20
-1310.0
30
0.0
10
2386.0
20
-1374.0
30
0.0
10
2374.0
20
-1390.0
30
0.0
10
2386.0
20
-1399.0
30
0.0
10
2376.0
20
-1463.0
30
0.0
10
2386.0
20
-1536.0
30
0.0
10
2370.0
20
-1591.0
30
0.0
10
2378.0
20
-1649.0
30
0.0
10
2399.0
20
-1667.0
30
0.0
10
2402.0
20
-1686.0
30
0.0
10
2405.0
20
-1721.0
30
0.0
10
2404.0
20
-1722.0
30
0.0
6
Solid
370
35
62
0
0
LWPOLYLINE
5
38f
100
AcDbEntity
100
AcDbPolyline
90
13
70
1
10
1939.0
20
-424.0
30
0.0
10
1944.0
20
-425.0
30
0.0
10
1942.0
20
-427.0
30
0.0
10
1932.0
20
-435.0
30
0.0
10
1919.0
20
-451.0
30
0.0
10
1910.0
20
-454.0
30
0.0
10
1902.0
20
-449.0
30
0.0
10
1906.0
20
-442.0
30
0.0
10
1915.0
20
-432.0
30
0.0
10
1936.0
20
-416.0
30
0.0
10
1939.0
20
-415.0
30
0.0
10
1941.0
20
-419.0
30
0.0
10
1939.0
20
-424.0
30
0.0
6
Solid
370
35
62
0
0
LWPOLYLINE
5
391
100
AcDbEntity
100
AcDbPolyline
90
6
70
1
10
2369.0
20
-1389.0
30
0.0
10
2368.0
20
-1390.0
30
0.0
10
2367.0
20
-1390.0
30
0.0
10
2368.0
20
-1387.0
30
0.0
10
2369.0
20
-1388.0
30
0.0
10
2369.0
20
-1389.0
30
0.0
6
Solid
370
35
62
0
0
LWPOLYLINE
5
393
100
AcDbEntity
100
AcDbPolyline
90
15
70
1
10
1958.0
20
-488.0
30
0.0
10
1958.0
20
-492.0
30
0.0
10
1956.0
20
-504.0
30
0.0
10
1954.0
20
-516.0
30
0.0
10
1952.0
20
-523.0
30
0.0
10
1949.0
20
-527.0
30
0.0
10
1946.0
20
-525.0
30
0.0
10
1939.0
20
-523.0
30
0.0
10
1935.0
20
-519.0
30
0.0
10
1932.0
20
-511.0
30
0.0
10
1935.0
20
-492.0
30
0.0
10
1937.0
20
-481.0
30
0.0
10
1943.0
20
-474.0
30
0.0
10
1946.0
20
-472.0
30
0.0
10
1958.0
20
-488.0
30
0.0
6
Solid
370
35
62
0
0
LWPOLYLINE
5
395
100
AcDbEntity
100
AcDbPolyline
90
16
70
1
10
1864.0
20
-2230.0
30
0.0
10
1863.0
20
-2239.0
30
0.0
10
1872.0
20
-2260.0
30
0.0
10
1860.0
20
-2250.0
30
0.0
10
1852.0
20
-2245.0
30
0.0
10
1848.0
20
-2241.0
30
0.0
10
1844.0
20
-2233.0
30
0.0
10
1836.0
20
-2209.0
30
0.0
10
1831.0
20
-2200.0
30
0.0
10
1829.0
20
-2193.0
30
0.0
10
1826.0
20
-2187.0
30
0.0
10
1828.0
20
-2180.0
30
0.0
10
1833.0
20
-2179.0
30
0.0
10
1838.0
20
-2188.0
30
0.0
10
1841.0
20
-2196.0
30
0.0
10
1864.0
20
-2230.0
30
0.0
6
Solid
370
35
62
0
0
LWPOLYLINE
5
397
100
AcDbEntity
100
AcDbPolyline
90
17
70
1
10
1729.0
20
-2601.0
30
0.0
10
1725.0
20
-2599.0
30
0.0
10
1715.0
20
-2589.0
30
0.0
10
1706.0
20
-2579.0
30
0.0
10
1697.0
20
-2571.0
30
0.0
10
1692.0
20
-2558.0
30
0.0
10
1687.0
20
-2539.0
30
0.0
10
1680.0
20
-2509.0
30
0.0
10
1679.0
20
-2493.0
30
0.0
10
1680.0
20
-2480.0
30
0.0
10
1683.0
20
-2478.0
30
0.0
10
1702.0
20
-2492.0
30
0.0
10
1710.0
20
-2507.0
30
0.0
10
1717.0
20
-2523.0
30
0.0
10
1724.0
20
-2553.0
30
0.0
10
1722.0
20
-2565.0
30
0.0
10
1729.0
20
-2601.0
30
0.0
6
Solid
370
35
62
0
0
LWPOLYLINE
5
399
100
AcDbEntity
100
AcDbPolyline
90
10
70
1
10
1653.0
20
-2671.0
30
0.0
10
1640.0
20
-2661.0
30
0.0
10
1639.0
20
-2655.0
30
0.0
10
1644.0
20
-2642.0
30
0.0
10
1654.0
20
-2637.0
30
0.0
10
1655.0
20
-2646.0
30
0.0
10
1656.0
20
-2654.0
30
0.0
10
1657.0
20
-2660.0
30
0.0
10
1655.0
20
-2665.0
30
0.0
10
1653.0
20
-2671.0
30
0.0
6
Solid
370
35
62
0
0
LWPOLYLINE
5
39b
100
AcDbEntity
100
AcDbPolyline
90
11
70
1
10
1444.0
20
-2478.0
30
0.0
10
1439.0
20
-2471.0
30
0.0
10
1418.0
20
-2469.0
30
0.0
10
1420.0
20
-2459.0
30
0.0
10
1436.0
20
-2452.0
30
0.0
10
1440.0
20
-2451.0
30
0.0
10
1442.0
20
-2447.0
30
0.0
10
1444.0
20
-2442.0
30
0.0
10
1450.0
20
-2468.0
30
0.0
10
1445.0
20
-2477.0
30
0.0
10
1444.0
20
-2478.0
30
0.0
6
Solid
370
35
62
0
0
LWPOLYLINE
5
39d
100
AcDbEntity
100
AcDbPolyline
90
16
70
1
10
1496.0
20
-2529.0
30
0.0
10
1464.0
20
-2502.0
30
0.0
10
1466.0
20
-2497.0
30
0.0
10
1475.0
20
-2488.0
30
0.0
10
1487.0
20
-2481.0
30
0.0
10
1490.0
20
-2468.0
30
0.0
10
1495.0
20
-2452.0
30
0.0
10
1499.0
20
-2444.0
30
0.0
10
1502.0
20
-2446.0
30
0.0
10
1505.0
20
-2452.0
30
0.0
10
1508.0
20
-2463.0
30
0.0
10
1510.0
20
-2478.0
30
0.0
10
1509.0
20
-2493.0
30
0.0
10
1505.0
20
-2510.0
30
0.0
10
1500.0
20
-2524.0
30
0.0
10
1496.0
20
-2529.0
30
0.0
6
Solid
370
35
62
0
0
LWPOLYLINE
5
39f
100
AcDbEntity
100
AcDbPolyline
90
18
70
1
10
1367.0
20
-2449.0
30
0.0
10
1363.0
20
-2445.0
30
0.0
10
1356.0
20
-2441.0
30
0.0
10
1357.0
20
-2440.0
30
0.0
10
1353.0
20
-2424.0
30
0.0
10
1355.0
20
-2418.0
30
0.0
10
1356.0
20
-2410.0
30
0.0
10
1357.0
20
-2384.0
30
0.0
10
1361.0
20
-2361.0
30
0.0
10
1362.0
20
-2349.0
30
0.0
10
1365.0
20
-2339.0
30
0.0
10
1373.0
20
-2351.0
30
0.0
10
1382.0
20
-2370.0
30
0.0
10
1402.0
20
-2401.0
30
0.0
10
1406.0
20
-2429.0
30
0.0
10
1403.0
20
-2432.0
30
0.0
10
1390.0
20
-2452.0
30
0.0
10
1367.0
20
-2449.0
30
0.0
6
Solid
370
35
62
0
0
LWPOLYLINE
5
3a1
100
AcDbEntity
100
AcDbPolyline
90
17
70
1
10
1732.0
20
-236.0
30
0.0
10
1744.0
20
-243.0
30
0.0
10
1757.0
20
-241.0
30
0.0
10
1754.0
20
-248.0
30
0.0
10
1750.0
20
-257.0
30
0.0
10
1743.0
20
-276.0
30
0.0
10
1736.0
20
-301.0
30
0.0
10
1733.0
20
-312.0
30
0.0
10
1730.0
20
-316.0
30
0.0
10
1727.0
20
-315.0
30
0.0
10
1722.0
20
-302.0
30
0.0
10
1721.0
20
-289.0
30
0.0
10
1721.0
20
-271.0
30
0.0
10
1723.0
20
-251.0
30
0.0
10
1726.0
20
-243.0
30
0.0
10
1728.0
20
-236.0
30
0.0
10
1732.0
20
-236.0
30
0.0
6
Solid
370
35
62
0
0
LWPOLYLINE
5
3a3
100
AcDbEntity
100
AcDbPolyline
90
12
70
1
10
1571.0
20
-187.0
30
0.0
10
1582.0
20
-173.0
30
0.0
10
1583.0
20
-175.0
30
0.0
10
1586.0
20
-182.0
30
0.0
10
1590.0
20
-191.0
30
0.0
10
1594.0
20
-199.0
30
0.0
10
1595.0
20
-207.0
30
0.0
10
1594.0
20
-214.0
30
0.0
10
1591.0
20
-215.0
30
0.0
10
1585.0
20
-209.0
30
0.0
10
1572.0
20
-188.0
30
0.0
10
1571.0
20
-187.0
30
0.0
6
Solid
370
35
62
0
0
LWPOLYLINE
5
3a5
100
AcDbEntity
100
AcDbPolyline
90
18
70
1
10
1430.0
20
-292.0
30
0.0
10
1438.0
20
-292.0
30
0.0
10
1457.0
20
-269.0
30
0.0
10
1461.0
20
-267.0
30
0.0
10
1461.0
20
-271.0
30
0.0
10
1461.0
20
-284.0
30
0.0
10
1456.0
20
-306.0
30
0.0
10
1451.0
20
-328.0
30
0.0
10
1446.0
20
-353.0
30
0.0
10
1443.0
20
-357.0
30
0.0
10
1435.0
20
-355.0
30
0.0
10
1430.0
20
-348.0
30
0.0
10
1430.0
20
-340.0
30
0.0
10
1430.0
20
-330.0
30
0.0
10
1431.0
20
-314.0
30
0.0
10
1429.0
20
-302.0
30
0.0
10
1428.0
20
-294.0
30
0.0
10
1430.0
20
-292.0
30
0.0
6
Solid
370
35
62
0
0
LWPOLYLINE
5
3a7
100
AcDbEntity
100
AcDbPolyline
90
10
70
1
10
1311.0
20
-275.0
30
0.0
10
1318.0
20
-274.0
30
0.0
10
1327.0
20
-289.0
30
0.0
10
1328.0
20
-289.0
30
0.0
10
1317.0
20
-301.0
30
0.0
10
1301.0
20
-314.0
30
0.0
10
1294.0
20
-312.0
30
0.0
10
1303.0
20
-294.0
30
0.0
10
1311.0
20
-276.0
30
0.0
10
1311.0
20
-275.0
30
0.0
6
Solid
370
35
62
0
0
LWPOLYLINE
5
3a9
100
AcDbEntity
100
AcDbPolyline
90
11
70
1
10
1160.0
20
-262.0
30
0.0
10
1185.0
20
-270.0
30
0.0
10
1184.0
20
-271.0
30
0.0
10
1167.0
20
-291.0
30
0.0
10
1159.0
20
-293.0
30
0.0
10
1153.0
20
-294.0
30
0.0
10
1144.0
20
-292.0
30
0.0
10
1144.0
20
-277.0
30
0.0
10
1154.0
20
-266.0
30
0.0
10
1157.0
20
-264.0
30
0.0
10
1160.0
20
-262.0
30
0.0
6
Solid
370
35
62
0
0
LWPOLYLINE
5
3ab
100
AcDbEntity
100
AcDbPolyline
90
12
70
1
10
937.0
20
-252.0
30
0.0
10
941.0
20
-251.0
30
0.0
10
960.0
20
-257.0
30
0.0
10
963.0
20
-257.0
30
0.0
10
959.0
20
-270.0
30
0.0
10
951.0
20
-286.0
30
0.0
10
947.0
20
-296.0
30
0.0
10
944.0
20
-305.0
30
0.0
10
933.0
20
-309.0
30
0.0
10
929.0
20
-296.0
30
0.0
10
934.0
20
-263.0
30
0.0
10
937.0
20
-252.0
30
0.0
6
Solid
370
35
62
0
0
LWPOLYLINE
5
3ad
100
AcDbEntity
100
AcDbPolyline
90
11
70
1
10
809.0
20
-217.0
30
0.0
10
830.0
20
-219.0
30
0.0
10
825.0
20
-228.0
30
0.0
10
815.0
20
-237.0
30
0.0
10
804.0
20
-245.0
30
0.0
10
800.0
20
-246.0
30
0.0
10
797.0
20
-241.0
30
0.0
10
799.0
20
-236.0
30
0.0
10
806.0
20
-224.0
30
0.0
10
807.0
20
-219.0
30
0.0
10
809.0
20
-217.0
30
0.0
6
Solid
370
35
62
0
0
LWPOLYLINE
5
3af
100
AcDbEntity
100
AcDbPolyline
90
10
70
1
10
1225.0
20
-2431.0
30
0.0
10
1223.0
20
-2429.0
30
0.0
10
1216.0
20
-2413.0
30
0.0
10
1211.0
20
-2395.0
30
0.0
10
1214.0
20
-2394.0
30
0.0
10
1221.0
20
-2400.0
30
0.0
10
1228.0
20
-2409.0
30
0.0
10
1234.0
20
-2415.0
30
0.0
10
1236.0
20
-2421.0
30
0.0
10
1225.0
20
-2431.0
30
0.0
6
Solid
370
35
62
0
0
LWPOLYLINE
5
3b1
100
AcDbEntity
100
AcDbPolyline
90
18
70
1
10
1112.0
20
-2458.0
30
0.0
10
1104.0
20
-2464.0
30
0.0
10
1095.0
20
-2451.0
30
0.0
10
1077.0
20
-2456.0
30
0.0
10
1058.0
20
-2455.0
30
0.0
10
1019.0
20
-2435.0
30
0.0
10
985.0
20
-2432.0
30
0.0
10
967.0
20
-2427.0
30
0.0
10
955.0
20
-2432.0
30
0.0
10
948.0
20
-2433.0
30
0.0
10
942.0
20
-2422.0
30
0.0
10
943.0
20
-2417.0
30
0.0
10
993.0
20
-2413.0
30
0.0
10
1039.0
20
-2433.0
30
0.0
10
1054.0
20
-2441.0
30
0.0
10
1081.0
20
-2439.0
30
0.0
10
1114.0
20
-2447.0
30
0.0
10
1112.0
20
-2458.0
30
0.0
6
Solid
370
35
62
0
0
LWPOLYLINE
5
3b3
100
AcDbEntity
100
AcDbPolyline
90
11
70
1
10
892.0
20
-2441.0
30
0.0
10
890.0
20
-2437.0
30
0.0
10
886.0
20
-2419.0
30
0.0
10
882.0
20
-2401.0
30
0.0
10
884.0
20
-2390.0
30
0.0
10
891.0
20
-2395.0
30
0.0
10
899.0
20
-2407.0
30
0.0
10
904.0
20
-2415.0
30
0.0
10
906.0
20
-2427.0
30
0.0
10
908.0
20
-2432.0
30
0.0
10
892.0
20
-2441.0
30
0.0
6
Solid
370
35
62
0
0
LWPOLYLINE
5
3b5
100
AcDbEntity
100
AcDbPolyline
90
8
70
1
10
755.0
20
-202.0
30
0.0
10
759.0
20
-202.0
30
0.0
10
768.0
20
-205.0
30
0.0
10
766.0
20
-210.0
30
0.0
10
764.0
20
-218.0
30
0.0
10
758.0
20
-218.0
30
0.0
10
754.0
20
-207.0
30
0.0
10
755.0
20
-202.0
30
0.0
6
Solid
370
35
62
0
0
LWPOLYLINE
5
3b7
100
AcDbEntity
100
AcDbPolyline
90
17
70
1
10
641.0
20
-242.0
30
0.0
10
641.0
20
-241.0
30
0.0
10
637.0
20
-242.0
30
0.0
10
637.0
20
-245.0
30
0.0
10
640.0
20
-245.0
30
0.0
10
640.0
20
-246.0
30
0.0
10
635.0
20
-260.0
30
0.0
10
633.0
20
-267.0
30
0.0
10
629.0
20
-267.0
30
0.0
10
623.0
20
-263.0
30
0.0
10
617.0
20
-237.0
30
0.0
10
618.0
20
-224.0
30
0.0
10
630.0
20
-225.0
30
0.0
10
639.0
20
-241.0
30
0.0
10
638.0
20
-233.0
30
0.0
10
642.0
20
-233.0
30
0.0
10
641.0
20
-242.0
30
0.0
6
Solid
370
35
62
0
0
LWPOLYLINE
5
3b9
100
AcDbEntity
100
AcDbPolyline
90
12
70
1
10
505.0
20
-190.0
30
0.0
10
515.0
20
-204.0
30
0.0
10
518.0
20
-209.0
30
0.0
10
520.0
20
-213.0
30
0.0
10
519.0
20
-222.0
30
0.0
10
520.0
20
-236.0
30
0.0
10
520.0
20
-250.0
30
0.0
10
520.0
20
-260.0
30
0.0
10
516.0
20
-261.0
30
0.0
10
499.0
20
-214.0
30
0.0
10
501.0
20
-195.0
30
0.0
10
505.0
20
-190.0
30
0.0
6
Solid
370
35
62
0
0
LWPOLYLINE
5
3bb
100
AcDbEntity
100
AcDbPolyline
90
12
70
1
10
395.0
20
-113.0
30
0.0
10
412.0
20
-135.0
30
0.0
10
415.0
20
-137.0
30
0.0
10
414.0
20
-147.0
30
0.0
10
412.0
20
-177.0
30
0.0
10
406.0
20
-179.0
30
0.0
10
400.0
20
-181.0
30
0.0
10
396.0
20
-174.0
30
0.0
10
392.0
20
-152.0
30
0.0
10
392.0
20
-135.0
30
0.0
10
395.0
20
-118.0
30
0.0
10
395.0
20
-113.0
30
0.0
6
Solid
370
35
62
0
0
LWPOLYLINE
5
3bd
100
AcDbEntity
100
AcDbPolyline
90
9
70
1
10
676.0
20
-2509.0
30
0.0
10
660.0
20
-2508.0
30
0.0
10
636.0
20
-2505.0
30
0.0
10
635.0
20
-2503.0
30
0.0
10
631.0
20
-2502.0
30
0.0
10
635.0
20
-2485.0
30
0.0
10
673.0
20
-2483.0
30
0.0
10
674.0
20
-2502.0
30
0.0
10
676.0
20
-2509.0
30
0.0
6
Solid
370
35
62
0
0
LWPOLYLINE
5
3bf
100
AcDbEntity
100
AcDbPolyline
90
9
70
1
10
558.0
20
-2496.0
30
0.0
10
557.0
20
-2475.0
30
0.0
10
556.0
20
-2456.0
30
0.0
10
560.0
20
-2437.0
30
0.0
10
567.0
20
-2433.0
30
0.0
10
585.0
20
-2454.0
30
0.0
10
589.0
20
-2472.0
30
0.0
10
592.0
20
-2488.0
30
0.0
10
558.0
20
-2496.0
30
0.0
6
Solid
370
35
62
0
0
LWPOLYLINE
5
3c1
100
AcDbEntity
100
AcDbPolyline
90
10
70
1
10
433.0
20
-2584.0
30
0.0
10
426.0
20
-2583.0
30
0.0
10
404.0
20
-2586.0
30
0.0
10
401.0
20
-2589.0
30
0.0
10
400.0
20
-2584.0
30
0.0
10
398.0
20
-2563.0
30
0.0
10
407.0
20
-2546.0
30
0.0
10
419.0
20
-2555.0
30
0.0
10
430.0
20
-2580.0
30
0.0
10
433.0
20
-2584.0
30
0.0
6
Solid
370
35
62
0
0
LWPOLYLINE
5
3c3
100
AcDbEntity
100
AcDbPolyline
90
12
70
1
10
739.0
20
-2474.0
30
0.0
10
739.0
20
-2472.0
30
0.0
10
737.0
20
-2468.0
30
0.0
10
734.0
20
-2436.0
30
0.0
10
731.0
20
-2426.0
30
0.0
10
734.0
20
-2418.0
30
0.0
10
742.0
20
-2410.0
30
0.0
10
745.0
20
-2413.0
30
0.0
10
747.0
20
-2420.0
30
0.0
10
754.0
20
-2459.0
30
0.0
10
753.0
20
-2473.0
30
0.0
10
739.0
20
-2474.0
30
0.0
6
Solid
370
35
62
0
0
LWPOLYLINE
5
3c5
100
AcDbEntity
100
AcDbPolyline
90
9
70
1
10
212.0
20
-31.0
30
0.0
10
225.0
20
-22.0
30
0.0
10
230.0
20
-12.0
30
0.0
10
232.0
20
-15.0
30
0.0
10
250.0
20
-87.0
30
0.0
10
241.0
20
-92.0
30
0.0
10
236.0
20
-83.0
30
0.0
10
229.0
20
-66.0
30
0.0
10
212.0
20
-31.0
30
0.0
6
Solid
370
35
62
0
0
LWPOLYLINE
5
3c7
100
AcDbEntity
100
AcDbPolyline
90
8
70
1
10
125.0
20
-99.0
30
0.0
10
139.0
20
-102.0
30
0.0
10
145.0
20
-114.0
30
0.0
10
143.0
20
-116.0
30
0.0
10
136.0
20
-118.0
30
0.0
10
133.0
20
-113.0
30
0.0
10
129.0
20
-106.0
30
0.0
10
125.0
20
-99.0
30
0.0
6
Solid
370
35
62
0
0
LWPOLYLINE
5
3c9
100
AcDbEntity
100
AcDbPolyline
90
9
70
1
10
65.0
20
-250.0
30
0.0
10
63.0
20
-247.0
30
0.0
10
52.0
20
-226.0
30
0.0
10
54.0
20
-214.0
30
0.0
10
59.0
20
-216.0
30
0.0
10
65.0
20
-221.0
30
0.0
10
69.0
20
-228.0
30
0.0
10
67.0
20
-250.0
30
0.0
10
65.0
20
-250.0
30
0.0
6
Solid
370
35
62
0
0
LWPOLYLINE
5
3cb
100
AcDbEntity
100
AcDbPolyline
90
11
70
1
10
126.0
20
-705.0
30
0.0
10
124.0
20
-679.0
30
0.0
10
142.0
20
-661.0
30
0.0
10
147.0
20
-647.0
30
0.0
10
148.0
20
-646.0
30
0.0
10
149.0
20
-648.0
30
0.0
10
148.0
20
-662.0
30
0.0
10
145.0
20
-672.0
30
0.0
10
140.0
20
-685.0
30
0.0
10
136.0
20
-694.0
30
0.0
10
126.0
20
-705.0
30
0.0
6
Solid
370
35
62
0
0
LWPOLYLINE
5
3cd
100
AcDbEntity
100
AcDbPolyline
90
20
70
1
10
269.0
20
-1163.0
30
0.0
10
276.0
20
-1172.0
30
0.0
10
282.0
20
-1183.0
30
0.0
10
285.0
20
-1191.0
30
0.0
10
290.0
20
-1201.0
30
0.0
10
295.0
20
-1211.0
30
0.0
10
300.0
20
-1220.0
30
0.0
10
306.0
20
-1241.0
30
0.0
10
305.0
20
-1246.0
30
0.0
10
302.0
20
-1247.0
30
0.0
10
300.0
20
-1249.0
30
0.0
10
293.0
20
-1243.0
30
0.0
10
292.0
20
-1238.0
30
0.0
10
289.0
20
-1231.0
30
0.0
10
282.0
20
-1213.0
30
0.0
10
266.0
20
-1187.0
30
0.0
10
261.0
20
-1171.0
30
0.0
10
264.0
20
-1165.0
30
0.0
10
264.0
20
-1164.0
30
0.0
10
269.0
20
-1163.0
30
0.0
6
Solid
370
35
62
0
0
LWPOLYLINE
5
3cf
100
AcDbEntity
100
AcDbPolyline
90
5
70
1
10
303.0
20
-1368.0
30
0.0
10
305.0
20
-1368.0
30
0.0
10
305.0
20
-1369.0
30
0.0
10
303.0
20
-1369.0
30
0.0
10
303.0
20
-1368.0
30
0.0
6
Solid
370
35
62
0
0
LWPOLYLINE
5
3d1
100
AcDbEntity
100
AcDbPolyline
90
5
70
1
10
304.0
20
-1367.0
30
0.0
10
304.0
20
-1368.0
30
0.0
10
305.0
20
-1369.0
30
0.0
10
305.0
20
-1367.0
30
0.0
10
304.0
20
-1367.0
30
0.0
6
Solid
370
35
62
0
0
LWPOLYLINE
5
3d3
100
AcDbEntity
100
AcDbPolyline
90
5
70
1
10
306.0
20
-1366.0
30
0.0
10
306.0
20
-1367.0
30
0.0
10
303.0
20
-1368.0
30
0.0
10
302.0
20
-1368.0
30
0.0
10
306.0
20
-1366.0
30
0.0
6
Solid
370
35
62
0
0
LWPOLYLINE
5
3d5
100
AcDbEntity
100
AcDbPolyline
90
14
70
1
10
244.0
20
-1539.0
30
0.0
10
245.0
20
-1536.0
30
0.0
10
250.0
20
-1534.0
30
0.0
10
259.0
20
-1540.0
30
0.0
10
256.0
20
-1554.0
30
0.0
10
247.0
20
-1566.0
30
0.0
10
244.0
20
-1569.0
30
0.0
10
238.0
20
-1572.0
30
0.0
10
234.0
20
-1570.0
30
0.0
10
232.0
20
-1569.0
30
0.0
10
227.0
20
-1559.0
30
0.0
10
230.0
20
-1555.0
30
0.0
10
242.0
20
-1542.0
30
0.0
10
244.0
20
-1539.0
30
0.0
6
Solid
370
35
62
0
0
LWPOLYLINE
5
3d7
100
AcDbEntity
100
AcDbPolyline
90
5
70
1
10
303.0
20
-1367.0
30
0.0
10
303.0
20
-1366.0
30
0.0
10
302.0
20
-1363.0
30
0.0
10
306.0
20
-1365.0
30
0.0
10
303.0
20
-1367.0
30
0.0
6
Solid
370
35
62
0
0
LWPOLYLINE
5
3d9
100
AcDbEntity
100
AcDbPolyline
90
6
70
1
10
308.0
20
-1370.0
30
0.0
10
304.0
20
-1367.0
30
0.0
10
305.0
20
-1367.0
30
0.0
10
307.0
20
-1368.0
30
0.0
10
307.0
20
-1369.0
30
0.0
10
308.0
20
-1370.0
30
0.0
6
Solid
370
35
62
0
0
LWPOLYLINE
5
3db
100
AcDbEntity
100
AcDbPolyline
90
10
70
1
10
1.0
20
-1803.0
30
0.0
10
3.0
20
-1783.0
30
0.0
10
26.0
20
-1745.0
30
0.0
10
29.0
20
-1751.0
30
0.0
10
26.0
20
-1759.0
30
0.0
10
21.0
20
-1767.0
30
0.0
10
13.0
20
-1784.0
30
0.0
10
10.0
20
-1792.0
30
0.0
10
4.0
20
-1800.0
30
0.0
10
1.0
20
-1803.0
30
0.0
6
Solid
370
35
62
0
0
LWPOLYLINE
5
3dd
100
AcDbEntity
100
AcDbPolyline
90
11
70
1
10
96.0
20
-2042.0
30
0.0
10
91.0
20
-2033.0
30
0.0
10
65.0
20
-1996.0
30
0.0
10
63.0
20
-1982.0
30
0.0
10
68.0
20
-1983.0
30
0.0
10
76.0
20
-1987.0
30
0.0
10
84.0
20
-1995.0
30
0.0
10
91.0
20
-2005.0
30
0.0
10
103.0
20
-2036.0
30
0.0
10
101.0
20
-2039.0
30
0.0
10
96.0
20
-2042.0
30
0.0
6
Solid
370
35
62
0
0
LWPOLYLINE
5
3df
100
AcDbEntity
100
AcDbPolyline
90
8
70
1
10
452.0
20
-2587.0
30
0.0
10
435.0
20
-2584.0
30
0.0
10
435.0
20
-2583.0
30
0.0
10
432.0
20
-2553.0
30
0.0
10
431.0
20
-2539.0
30
0.0
10
445.0
20
-2536.0
30
0.0
10
450.0
20
-2557.0
30
0.0
10
452.0
20
-2587.0
30
0.0
6
Solid
370
35
62
0
0
LWPOLYLINE
5
3e1
100
AcDbEntity
100
AcDbPolyline
90
14
70
1
10
278.0
20
-2656.0
30
0.0
10
280.0
20
-2655.0
30
0.0
10
280.0
20
-2651.0
30
0.0
10
294.0
20
-2600.0
30
0.0
10
300.0
20
-2583.0
30
0.0
10
307.0
20
-2567.0
30
0.0
10
320.0
20
-2543.0
30
0.0
10
320.0
20
-2555.0
30
0.0
10
310.0
20
-2592.0
30
0.0
10
305.0
20
-2613.0
30
0.0
10
301.0
20
-2631.0
30
0.0
10
299.0
20
-2646.0
30
0.0
10
291.0
20
-2662.0
30
0.0
10
278.0
20
-2656.0
30
0.0
6
Solid
370
35
62
0
0
LWPOLYLINE
5
3e3
100
AcDbEntity
100
AcDbPolyline
90
8
70
1
10
265.0
20
-2665.0
30
0.0
10
258.0
20
-2652.0
30
0.0
10
255.0
20
-2638.0
30
0.0
10
257.0
20
-2633.0
30
0.0
10
262.0
20
-2635.0
30
0.0
10
268.0
20
-2646.0
30
0.0
10
272.0
20
-2654.0
30
0.0
10
265.0
20
-2665.0
30
0.0
6
Solid
370
35
62
0
0
LWPOLYLINE
5
3e5
100
AcDbEntity
100
AcDbPolyline
90
12
70
1
10
255.0
20
-2685.0
30
0.0
10
236.0
20
-2709.0
30
0.0
10
227.0
20
-2726.0
30
0.0
10
216.0
20
-2736.0
30
0.0
10
212.0
20
-2732.0
30
0.0
10
209.0
20
-2712.0
30
0.0
10
211.0
20
-2696.0
30
0.0
10
215.0
20
-2668.0
30
0.0
10
225.0
20
-2656.0
30
0.0
10
238.0
20
-2684.0
30
0.0
10
246.0
20
-2677.0
30
0.0
10
255.0
20
-2685.0
30
0.0
6
Solid
370
35
62
0
0
LWPOLYLINE
5
3e7
100
AcDbEntity
100
AcDbPolyline
90
11
70
1
10
149.0
20
-2757.0
30
0.0
10
130.0
20
-2753.0
30
0.0
10
114.0
20
-2759.0
30
0.0
10
108.0
20
-2760.0
30
0.0
10
111.0
20
-2754.0
30
0.0
10
140.0
20
-2713.0
30
0.0
10
154.0
20
-2706.0
30
0.0
10
159.0
20
-2710.0
30
0.0
10
157.0
20
-2742.0
30
0.0
10
150.0
20
-2755.0
30
0.0
10
149.0
20
-2757.0
30
0.0
6
Solid
370
35
62
0
0
LWPOLYLINE
5
3e9
100
AcDbEntity
100
AcDbPolyline
90
11
70
1
10
89.0
20
-2689.0
30
0.0
10
90.0
20
-2683.0
30
0.0
10
78.0
20
-2672.0
30
0.0
10
80.0
20
-2670.0
30
0.0
10
90.0
20
-2661.0
30
0.0
10
98.0
20
-2657.0
30
0.0
10
103.0
20
-2658.0
30
0.0
10
104.0
20
-2671.0
30
0.0
10
98.0
20
-2682.0
30
0.0
10
91.0
20
-2690.0
30
0.0
10
89.0
20
-2689.0
30
0.0
6
Solid
370
35
62
0
0
LWPOLYLINE
5
3eb
100
AcDbEntity
100
AcDbPolyline
90
10
70
1
10
62.0
20
-2657.0
30
0.0
10
54.0
20
-2649.0
30
0.0
10
57.0
20
-2646.0
30
0.0
10
65.0
20
-2638.0
30
0.0
10
81.0
20
-2626.0
30
0.0
10
81.0
20
-2637.0
30
0.0
10
78.0
20
-2646.0
30
0.0
10
72.0
20
-2654.0
30
0.0
10
69.0
20
-2659.0
30
0.0
10
62.0
20
-2657.0
30
0.0
6
Solid
370
35
62
0
0
LWPOLYLINE
5
3ee
100
AcDbEntity
8
zone_0_q1
100
AcDbPolyline
90
7
70
1
10
2316.0
20
-1381.0
30
0.0
10
2313.0
20
-1378.0
30
0.0
10
2313.0
20
-1375.0
30
0.0
10
2315.0
20
-1374.0
30
0.0
10
2317.0
20
-1376.0
30
0.0
10
2317.0
20
-1378.0
30
0.0
10
2316.0
20
-1381.0
30
0.0
6
Solid
370
35
62
40
0
LWPOLYLINE
5
3f1
100
AcDbEntity
8
zone_1_q1
100
AcDbPolyline
90
7
70
1
10
2293.0
20
-1377.0
30
0.0
10
2290.0
20
-1374.0
30
0.0
10
2292.0
20
-1372.0
30
0.0
10
2296.0
20
-1374.0
30
0.0
10
2296.0
20
-1376.0
30
0.0
10
2294.0
20
-1378.0
30
0.0
10
2293.0
20
-1377.0
30
0.0
6
Solid
370
35
62
40
0
LWPOLYLINE
5
3f4
100
AcDbEntity
8
zone_2_q1
100
AcDbPolyline
90
6
70
1
10
2287.0
20
-1367.0
30
0.0
10
2284.0
20
-1365.0
30
0.0
10
2288.0
20
-1361.0
30
0.0
10
2289.0
20
-1363.0
30
0.0
10
2289.0
20
-1365.0
30
0.0
10
2287.0
20
-1367.0
30
0.0
6
Solid
370
35
62
40
0
LWPOLYLINE
5
3f7
100
AcDbEntity
8
zone_3_q1
100
AcDbPolyline
90
8
70
1
10
2293.0
20
-700.0
30
0.0
10
2287.0
20
-689.0
30
0.0
10
2287.0
20
-681.0
30
0.0
10
2290.0
20
-677.0
30
0.0
10
2295.0
20
-661.0
30
0.0
10
2297.0
20
-660.0
30
0.0
10
2300.0
20
-662.0
30
0.0
10
2293.0
20
-700.0
30
0.0
6
Solid
370
35
62
40
0
LWPOLYLINE
5
3fa
100
AcDbEntity
8
zone_4_q1
100
AcDbPolyline
90
11
70
1
10
2254.0
20
-497.0
30
0.0
10
2259.0
20
-497.0
30
0.0
10
2277.0
20
-503.0
30
0.0
10
2286.0
20
-514.0
30
0.0
10
2286.0
20
-515.0
30
0.0
10
2280.0
20
-527.0
30
0.0
10
2276.0
20
-527.0
30
0.0
10
2269.0
20
-521.0
30
0.0
10
2260.0
20
-510.0
30
0.0
10
2257.0
20
-503.0
30
0.0
10
2254.0
20
-497.0
30
0.0
6
Solid
370
35
62
40
0
LWPOLYLINE
5
3fd
100
AcDbEntity
8
zone_5_q1
100
AcDbPolyline
90
12
70
1
10
2094.0
20
-529.0
30
0.0
10
2098.0
20
-535.0
30
0.0
10
2101.0
20
-535.0
30
0.0
10
2093.0
20
-556.0
30
0.0
10
2081.0
20
-566.0
30
0.0
10
2052.0
20
-567.0
30
0.0
10
2050.0
20
-560.0
30
0.0
10
2050.0
20
-553.0
30
0.0
10
2069.0
20
-532.0
30
0.0
10
2079.0
20
-526.0
30
0.0
10
2085.0
20
-524.0
30
0.0
10
2094.0
20
-529.0
30
0.0
6
Solid
370
35
62
40
0
LWPOLYLINE
5
400
100
AcDbEntity
8
zone_6_q2
100
AcDbPolyline
90
7
70
1
10
2102.0
20
-535.0
30
0.0
10
2126.0
20
-536.0
30
0.0
10
2142.0
20
-529.0
30
0.0
10
2141.0
20
-548.0
30
0.0
10
2128.0
20
-572.0
30
0.0
10
2107.0
20
-553.0
30
0.0
10
2102.0
20
-535.0
30
0.0
6
Solid
370
35
62
2
0
LWPOLYLINE
5
403
100
AcDbEntity
8
zone_7_q1
100
AcDbPolyline
90
8
70
1
10
1883.0
20
-201.0
30
0.0
10
1901.0
20
-196.0
30
0.0
10
1908.0
20
-200.0
30
0.0
10
1917.0
20
-213.0
30
0.0
10
1913.0
20
-220.0
30
0.0
10
1899.0
20
-226.0
30
0.0
10
1888.0
20
-216.0
30
0.0
10
1883.0
20
-201.0
30
0.0
6
Solid
370
35
62
40
0
LWPOLYLINE
5
406
100
AcDbEntity
8
zone_8_q1
100
AcDbPolyline
90
8
70
1
10
2393.0
20
-1681.0
30
0.0
10
2392.0
20
-1681.0
30
0.0
10
2388.0
20
-1683.0
30
0.0
10
2374.0
20
-1668.0
30
0.0
10
2373.0
20
-1664.0
30
0.0
10
2373.0
20
-1662.0
30
0.0
10
2373.0
20
-1656.0
30
0.0
10
2393.0
20
-1681.0
30
0.0
6
Solid
370
35
62
40
0
LWPOLYLINE
5
409
100
AcDbEntity
8
zone_9_q1
100
AcDbPolyline
90
10
70
1
10
2307.0
20
-1990.0
30
0.0
10
2306.0
20
-1988.0
30
0.0
10
2303.0
20
-1983.0
30
0.0
10
2306.0
20
-1979.0
30
0.0
10
2313.0
20
-1973.0
30
0.0
10
2324.0
20
-1968.0
30
0.0
10
2328.0
20
-1966.0
30
0.0
10
2334.0
20
-1963.0
30
0.0
10
2340.0
20
-1963.0
30
0.0
10
2307.0
20
-1990.0
30
0.0
6
Solid
370
35
62
40
0
LWPOLYLINE
5
40c
100
AcDbEntity
8
zone_10_q2
100
AcDbPolyline
90
9
70
1
10
2219.0
20
-2093.0
30
0.0
10
2218.0
20
-2093.0
30
0.0
10
2217.0
20
-2093.0
30
0.0
10
2215.0
20
-2090.0
30
0.0
10
2216.0
20
-2088.0
30
0.0
10
2217.0
20
-2085.0
30
0.0
10
2222.0
20
-2085.0
30
0.0
10
2221.0
20
-2092.0
30
0.0
10
2219.0
20
-2093.0
30
0.0
6
Solid
370
35
62
2
0
LWPOLYLINE
5
40f
100
AcDbEntity
8
zone_11_q2
100
AcDbPolyline
90
7
70
1
10
2217.0
20
-2144.0
30
0.0
10
2206.0
20
-2139.0
30
0.0
10
2207.0
20
-2138.0
30
0.0
10
2213.0
20
-2137.0
30
0.0
10
2217.0
20
-2138.0
30
0.0
10
2221.0
20
-2142.0
30
0.0
10
2217.0
20
-2144.0
30
0.0
6
Solid
370
35
62
2
0
LWPOLYLINE
5
412
100
AcDbEntity
8
zone_12_q2
100
AcDbPolyline
90
9
70
1
10
2032.0
20
-2170.0
30
0.0
10
2020.0
20
-2168.0
30
0.0
10
2015.0
20
-2169.0
30
0.0
10
2012.0
20
-2159.0
30
0.0
10
2014.0
20
-2154.0
30
0.0
10
2023.0
20
-2149.0
30
0.0
10
2037.0
20
-2151.0
30
0.0
10
2053.0
20
-2161.0
30
0.0
10
2032.0
20
-2170.0
30
0.0
6
Solid
370
35
62
2
0
LWPOLYLINE
5
415
100
AcDbEntity
8
zone_13_q1
100
AcDbPolyline
90
35
70
1
10
2000.0
20
-1386.0
30
0.0
10
1985.0
20
-1385.0
30
0.0
10
1959.0
20
-1389.0
30
0.0
10
1912.0
20
-1388.0
30
0.0
10
1882.0
20
-1386.0
30
0.0
10
1846.0
20
-1387.0
30
0.0
10
1802.0
20
-1395.0
30
0.0
10
1775.0
20
-1405.0
30
0.0
10
1765.0
20
-1403.0
30
0.0
10
1750.0
20
-1399.0
30
0.0
10
1740.0
20
-1395.0
30
0.0
10
1728.0
20
-1391.0
30
0.0
10
1713.0
20
-1381.0
30
0.0
10
1707.0
20
-1364.0
30
0.0
10
1723.0
20
-1342.0
30
0.0
10
1747.0
20
-1319.0
30
0.0
10
1760.0
20
-1308.0
30
0.0
10
1780.0
20
-1301.0
30
0.0
10
1791.0
20
-1298.0
30
0.0
10
1832.0
20
-1275.0
30
0.0
10
1849.0
20
-1270.0
30
0.0
10
1865.0
20
-1278.0
30
0.0
10
1877.0
20
-1290.0
30
0.0
10
1890.0
20
-1302.0
30
0.0
10
1904.0
20
-1312.0
30
0.0
10
1916.0
20
-1319.0
30
0.0
10
1934.0
20
-1331.0
30
0.0
10
1972.0
20
-1346.0
30
0.0
10
1998.0
20
-1356.0
30
0.0
10
2037.0
20
-1368.0
30
0.0
10
2059.0
20
-1387.0
30
0.0
10
2056.0
20
-1392.0
30
0.0
10
2044.0
20
-1394.0
30
0.0
10
2029.0
20
-1395.0
30
0.0
10
2000.0
20
-1386.0
30
0.0
6
Solid
370
35
62
40
0
LWPOLYLINE
5
418
100
AcDbEntity
8
zone_14_q3
100
AcDbPolyline
90
7
70
1
10
1759.0
20
-2015.0
30
0.0
10
1756.0
20
-2016.0
30
0.0
10
1755.0
20
-2015.0
30
0.0
10
1757.0
20
-2013.0
30
0.0
10
1758.0
20
-2013.0
30
0.0
10
1760.0
20
-2015.0
30
0.0
10
1759.0
20
-2015.0
30
0.0
6
Solid
370
35
62
3
0
LWPOLYLINE
5
41b
100
AcDbEntity
8
zone_15_q3
100
AcDbPolyline
90
11
70
1
10
1670.0
20
-2315.0
30
0.0
10
1674.0
20
-2305.0
30
0.0
10
1679.0
20
-2302.0
30
0.0
10
1684.0
20
-2306.0
30
0.0
10
1688.0
20
-2312.0
30
0.0
10
1689.0
20
-2323.0
30
0.0
10
1689.0
20
-2327.0
30
0.0
10
1685.0
20
-2331.0
30
0.0
10
1679.0
20
-2329.0
30
0.0
10
1676.0
20
-2327.0
30
0.0
10
1670.0
20
-2315.0
30
0.0
6
Solid
370
35
62
3
0
LWPOLYLINE
5
41e
100
AcDbEntity
8
zone_16_q2
100
AcDbPolyline
90
29
70
1
10
1678.0
20
-2506.0
30
0.0
10
1683.0
20
-2523.0
30
0.0
10
1684.0
20
-2546.0
30
0.0
10
1663.0
20
-2571.0
30
0.0
10
1632.0
20
-2542.0
30
0.0
10
1590.0
20
-2464.0
30
0.0
10
1558.0
20
-2409.0
30
0.0
10
1543.0
20
-2373.0
30
0.0
10
1547.0
20
-2332.0
30
0.0
10
1569.0
20
-2308.0
30
0.0
10
1588.0
20
-2304.0
30
0.0
10
1609.0
20
-2302.0
30
0.0
10
1627.0
20
-2308.0
30
0.0
10
1648.0
20
-2329.0
30
0.0
10
1670.0
20
-2359.0
30
0.0
10
1693.0
20
-2389.0
30
0.0
10
1714.0
20
-2420.0
30
0.0
10
1733.0
20
-2463.0
30
0.0
10
1745.0
20
-2495.0
30
0.0
10
1708.0
20
-2503.0
30
0.0
10
1703.0
20
-2488.0
30
0.0
10
1698.0
20
-2481.0
30
0.0
10
1680.0
20
-2471.0
30
0.0
10
1671.0
20
-2480.0
30
0.0
10
1670.0
20
-2490.0
30
0.0
10
1677.0
20
-2514.0
30
0.0
10
1675.0
20
-2532.0
30
0.0
10
1679.0
20
-2532.0
30
0.0
10
1678.0
20
-2506.0
30
0.0
6
Solid
370
35
62
2
0
LWPOLYLINE
5
421
100
AcDbEntity
8
zone_17_q3
100
AcDbPolyline
90
25
70
1
10
1615.0
20
-2290.0
30
0.0
10
1609.0
20
-2296.0
30
0.0
10
1578.0
20
-2312.0
30
0.0
10
1547.0
20
-2317.0
30
0.0
10
1514.0
20
-2306.0
30
0.0
10
1485.0
20
-2291.0
30
0.0
10
1464.0
20
-2263.0
30
0.0
10
1449.0
20
-2229.0
30
0.0
10
1442.0
20
-2187.0
30
0.0
10
1439.0
20
-2140.0
30
0.0
10
1472.0
20
-2071.0
30
0.0
10
1484.0
20
-2056.0
30
0.0
10
1512.0
20
-2036.0
30
0.0
10
1542.0
20
-2020.0
30
0.0
10
1575.0
20
-2017.0
30
0.0
10
1606.0
20
-2022.0
30
0.0
10
1643.0
20
-2040.0
30
0.0
10
1708.0
20
-2082.0
30
0.0
10
1725.0
20
-2116.0
30
0.0
10
1733.0
20
-2160.0
30
0.0
10
1734.0
20
-2198.0
30
0.0
10
1716.0
20
-2233.0
30
0.0
10
1688.0
20
-2264.0
30
0.0
10
1656.0
20
-2290.0
30
0.0
10
1615.0
20
-2290.0
30
0.0
6
Solid
370
35
62
3
0
LWPOLYLINE
5
424
100
AcDbEntity
8
zone_18_q2
100
AcDbPolyline
90
12
70
1
10
1603.0
20
-188.0
30
0.0
10
1615.0
20
-172.0
30
0.0
10
1647.0
20
-203.0
30
0.0
10
1648.0
20
-230.0
30
0.0
10
1640.0
20
-269.0
30
0.0
10
1600.0
20
-306.0
30
0.0
10
1577.0
20
-281.0
30
0.0
10
1565.0
20
-217.0
30
0.0
10
1566.0
20
-210.0
30
0.0
10
1580.0
20
-210.0
30
0.0
10
1588.0
20
-214.0
30
0.0
10
1603.0
20
-188.0
30
0.0
6
Solid
370
35
62
2
0
LWPOLYLINE
5
427
100
AcDbEntity
8
zone_19_q2
100
AcDbPolyline
90
15
70
1
10
1688.0
20
-277.0
30
0.0
10
1719.0
20
-334.0
30
0.0
10
1728.0
20
-340.0
30
0.0
10
1731.0
20
-341.0
30
0.0
10
1791.0
20
-287.0
30
0.0
10
1802.0
20
-303.0
30
0.0
10
1801.0
20
-330.0
30
0.0
10
1781.0
20
-374.0
30
0.0
10
1751.0
20
-392.0
30
0.0
10
1664.0
20
-371.0
30
0.0
10
1659.0
20
-331.0
30
0.0
10
1660.0
20
-307.0
30
0.0
10
1694.0
20
-269.0
30
0.0
10
1704.0
20
-282.0
30
0.0
10
1688.0
20
-277.0
30
0.0
6
Solid
370
35
62
2
0
LWPOLYLINE
5
42a
100
AcDbEntity
8
zone_20_q3
100
AcDbPolyline
90
24
70
1
10
1846.0
20
-413.0
30
0.0
10
1843.0
20
-436.0
30
0.0
10
1835.0
20
-477.0
30
0.0
10
1763.0
20
-600.0
30
0.0
10
1721.0
20
-628.0
30
0.0
10
1681.0
20
-644.0
30
0.0
10
1645.0
20
-653.0
30
0.0
10
1601.0
20
-650.0
30
0.0
10
1527.0
20
-624.0
30
0.0
10
1497.0
20
-586.0
30
0.0
10
1480.0
20
-544.0
30
0.0
10
1471.0
20
-496.0
30
0.0
10
1481.0
20
-427.0
30
0.0
10
1495.0
20
-398.0
30
0.0
10
1524.0
20
-366.0
30
0.0
10
1552.0
20
-352.0
30
0.0
10
1589.0
20
-346.0
30
0.0
10
1625.0
20
-348.0
30
0.0
10
1660.0
20
-358.0
30
0.0
10
1687.0
20
-369.0
30
0.0
10
1705.0
20
-380.0
30
0.0
10
1721.0
20
-389.0
30
0.0
10
1728.0
20
-393.0
30
0.0
10
1846.0
20
-413.0
30
0.0
6
Solid
370
35
62
3
0
LWPOLYLINE
5
42d
100
AcDbEntity
8
zone_21_q3
100
AcDbPolyline
90
12
70
1
10
1250.0
20
-1347.0
30
0.0
10
1256.0
20
-1338.0
30
0.0
10
1260.0
20
-1328.0
30
0.0
10
1267.0
20
-1321.0
30
0.0
10
1279.0
20
-1322.0
30
0.0
10
1292.0
20
-1328.0
30
0.0
10
1299.0
20
-1338.0
30
0.0
10
1297.0
20
-1346.0
30
0.0
10
1290.0
20
-1357.0
30
0.0
10
1271.0
20
-1361.0
30
0.0
10
1260.0
20
-1362.0
30
0.0
10
1250.0
20
-1347.0
30
0.0
6
Solid
370
35
62
3
0
LWPOLYLINE
5
430
100
AcDbEntity
8
zone_22_q1
100
AcDbPolyline
90
13
70
1
10
1073.0
20
-554.0
30
0.0
10
1072.0
20
-552.0
30
0.0
10
1069.0
20
-550.0
30
0.0
10
1070.0
20
-547.0
30
0.0
10
1074.0
20
-546.0
30
0.0
10
1076.0
20
-546.0
30
0.0
10
1077.0
20
-550.0
30
0.0
10
1077.0
20
-551.0
30
0.0
10
1077.0
20
-554.0
30
0.0
10
1077.0
20
-556.0
30
0.0
10
1077.0
20
-557.0
30
0.0
10
1073.0
20
-555.0
30
0.0
10
1073.0
20
-554.0
30
0.0
6
Solid
370
35
62
40
0
LWPOLYLINE
5
433
100
AcDbEntity
8
zone_23_q3
100
AcDbPolyline
90
10
70
1
10
1527.0
20
-1154.0
30
0.0
10
1526.0
20
-1154.0
30
0.0
10
1525.0
20
-1153.0
30
0.0
10
1517.0
20
-1141.0
30
0.0
10
1516.0
20
-1139.0
30
0.0
10
1515.0
20
-1138.0
30
0.0
10
1518.0
20
-1136.0
30
0.0
10
1519.0
20
-1137.0
30
0.0
10
1521.0
20
-1139.0
30
0.0
10
1527.0
20
-1154.0
30
0.0
6
Solid
370
35
62
3
0
LWPOLYLINE
5
436
100
AcDbEntity
8
zone_24_q1
100
AcDbPolyline
90
33
70
1
10
555.0
20
-223.0
30
0.0
10
564.0
20
-223.0
30
0.0
10
572.0
20
-226.0
30
0.0
10
584.0
20
-238.0
30
0.0
10
605.0
20
-256.0
30
0.0
10
610.0
20
-276.0
30
0.0
10
618.0
20
-282.0
30
0.0
10
647.0
20
-265.0
30
0.0
10
674.0
20
-321.0
30
0.0
10
697.0
20
-358.0
30
0.0
10
707.0
20
-385.0
30
0.0
10
701.0
20
-408.0
30
0.0
10
691.0
20
-424.0
30
0.0
10
653.0
20
-414.0
30
0.0
10
617.0
20
-389.0
30
0.0
10
591.0
20
-362.0
30
0.0
10
567.0
20
-336.0
30
0.0
10
545.0
20
-316.0
30
0.0
10
508.0
20
-282.0
30
0.0
10
472.0
20
-252.0
30
0.0
10
428.0
20
-191.0
30
0.0
10
437.0
20
-157.0
30
0.0
10
462.0
20
-190.0
30
0.0
10
477.0
20
-208.0
30
0.0
10
497.0
20
-238.0
30
0.0
10
497.0
20
-253.0
30
0.0
10
517.0
20
-266.0
30
0.0
10
521.0
20
-266.0
30
0.0
10
529.0
20
-263.0
30
0.0
10
537.0
20
-256.0
30
0.0
10
545.0
20
-231.0
30
0.0
10
553.0
20
-223.0
30
0.0
10
555.0
20
-223.0
30
0.0
6
Solid
370
35
62
40
0
LWPOLYLINE
5
439
100
AcDbEntity
8
zone_25_q2
100
AcDbPolyline
90
38
70
1
10
491.0
20
-254.0
30
0.0
10
492.0
20
-255.0
30
0.0
10
499.0
20
-266.0
30
0.0
10
510.0
20
-282.0
30
0.0
10
540.0
20
-326.0
30
0.0
10
568.0
20
-353.0
30
0.0
10
587.0
20
-372.0
30
0.0
10
642.0
20
-409.0
30
0.0
10
669.0
20
-424.0
30
0.0
10
680.0
20
-429.0
30
0.0
10
696.0
20
-425.0
30
0.0
10
708.0
20
-415.0
30
0.0
10
712.0
20
-396.0
30
0.0
10
698.0
20
-355.0
30
0.0
10
681.0
20
-317.0
30
0.0
10
674.0
20
-295.0
30
0.0
10
661.0
20
-253.0
30
0.0
10
676.0
20
-262.0
30
0.0
10
691.0
20
-275.0
30
0.0
10
704.0
20
-298.0
30
0.0
10
724.0
20
-333.0
30
0.0
10
733.0
20
-360.0
30
0.0
10
741.0
20
-385.0
30
0.0
10
745.0
20
-408.0
30
0.0
10
753.0
20
-439.0
30
0.0
10
757.0
20
-460.0
30
0.0
10
757.0
20
-491.0
30
0.0
10
750.0
20
-530.0
30
0.0
10
731.0
20
-558.0
30
0.0
10
699.0
20
-559.0
30
0.0
10
666.0
20
-541.0
30
0.0
10
631.0
20
-508.0
30
0.0
10
600.0
20
-474.0
30
0.0
10
570.0
20
-439.0
30
0.0
10
509.0
20
-351.0
30
0.0
10
447.0
20
-268.0
30
0.0
10
431.0
20
-236.0
30
0.0
10
491.0
20
-254.0
30
0.0
6
Solid
370
35
62
2
0
LWPOLYLINE
5
43c
100
AcDbEntity
8
zone_26_q1
100
AcDbPolyline
90
23
70
1
10
651.0
20
-2444.0
30
0.0
10
645.0
20
-2457.0
30
0.0
10
630.0
20
-2470.0
30
0.0
10
612.0
20
-2463.0
30
0.0
10
577.0
20
-2437.0
30
0.0
10
552.0
20
-2432.0
30
0.0
10
548.0
20
-2458.0
30
0.0
10
543.0
20
-2487.0
30
0.0
10
499.0
20
-2513.0
30
0.0
10
436.0
20
-2538.0
30
0.0
10
405.0
20
-2543.0
30
0.0
10
377.0
20
-2557.0
30
0.0
10
355.0
20
-2532.0
30
0.0
10
367.0
20
-2499.0
30
0.0
10
385.0
20
-2479.0
30
0.0
10
401.0
20
-2453.0
30
0.0
10
451.0
20
-2378.0
30
0.0
10
574.0
20
-2297.0
30
0.0
10
623.0
20
-2304.0
30
0.0
10
653.0
20
-2322.0
30
0.0
10
668.0
20
-2353.0
30
0.0
10
666.0
20
-2396.0
30
0.0
10
651.0
20
-2444.0
30
0.0
6
Solid
370
35
62
40
0
LWPOLYLINE
5
43f
100
AcDbEntity
8
zone_27_q2
100
AcDbPolyline
90
45
70
1
10
1413.0
20
-337.0
30
0.0
10
1415.0
20
-348.0
30
0.0
10
1415.0
20
-356.0
30
0.0
10
1413.0
20
-361.0
30
0.0
10
1393.0
20
-366.0
30
0.0
10
1389.0
20
-368.0
30
0.0
10
1373.0
20
-371.0
30
0.0
10
1278.0
20
-355.0
30
0.0
10
1252.0
20
-334.0
30
0.0
10
1225.0
20
-327.0
30
0.0
10
1175.0
20
-325.0
30
0.0
10
1150.0
20
-324.0
30
0.0
10
1029.0
20
-320.0
30
0.0
10
992.0
20
-321.0
30
0.0
10
959.0
20
-319.0
30
0.0
10
905.0
20
-319.0
30
0.0
10
878.0
20
-308.0
30
0.0
10
840.0
20
-283.0
30
0.0
10
820.0
20
-268.0
30
0.0
10
822.0
20
-243.0
30
0.0
10
851.0
20
-251.0
30
0.0
10
876.0
20
-275.0
30
0.0
10
905.0
20
-299.0
30
0.0
10
924.0
20
-305.0
30
0.0
10
961.0
20
-309.0
30
0.0
10
974.0
20
-288.0
30
0.0
10
981.0
20
-268.0
30
0.0
10
988.0
20
-259.0
30
0.0
10
1008.0
20
-259.0
30
0.0
10
1096.0
20
-270.0
30
0.0
10
1136.0
20
-274.0
30
0.0
10
1131.0
20
-290.0
30
0.0
10
1134.0
20
-304.0
30
0.0
10
1171.0
20
-301.0
30
0.0
10
1185.0
20
-293.0
30
0.0
10
1194.0
20
-291.0
30
0.0
10
1231.0
20
-299.0
30
0.0
10
1275.0
20
-307.0
30
0.0
10
1276.0
20
-312.0
30
0.0
10
1275.0
20
-323.0
30
0.0
10
1323.0
20
-322.0
30
0.0
10
1331.0
20
-319.0
30
0.0
10
1349.0
20
-321.0
30
0.0
10
1402.0
20
-324.0
30
0.0
10
1413.0
20
-337.0
30
0.0
6
Solid
370
35
62
2
0
LWPOLYLINE
5
442
100
AcDbEntity
8
zone_28_q2
100
AcDbPolyline
90
44
70
1
10
1302.0
20
-2410.0
30
0.0
10
1296.0
20
-2407.0
30
0.0
10
1284.0
20
-2405.0
30
0.0
10
1266.0
20
-2402.0
30
0.0
10
1246.0
20
-2399.0
30
0.0
10
1210.0
20
-2384.0
30
0.0
10
1206.0
20
-2395.0
30
0.0
10
1208.0
20
-2406.0
30
0.0
10
1202.0
20
-2408.0
30
0.0
10
1193.0
20
-2414.0
30
0.0
10
1151.0
20
-2415.0
30
0.0
10
1130.0
20
-2422.0
30
0.0
10
1114.0
20
-2431.0
30
0.0
10
1045.0
20
-2410.0
30
0.0
10
981.0
20
-2404.0
30
0.0
10
918.0
20
-2417.0
30
0.0
10
913.0
20
-2410.0
30
0.0
10
882.0
20
-2383.0
30
0.0
10
865.0
20
-2392.0
30
0.0
10
869.0
20
-2412.0
30
0.0
10
868.0
20
-2423.0
30
0.0
10
861.0
20
-2438.0
30
0.0
10
844.0
20
-2447.0
30
0.0
10
821.0
20
-2445.0
30
0.0
10
799.0
20
-2451.0
30
0.0
10
760.0
20
-2439.0
30
0.0
10
753.0
20
-2419.0
30
0.0
10
768.0
20
-2409.0
30
0.0
10
806.0
20
-2413.0
30
0.0
10
833.0
20
-2405.0
30
0.0
10
884.0
20
-2378.0
30
0.0
10
911.0
20
-2377.0
30
0.0
10
935.0
20
-2378.0
30
0.0
10
961.0
20
-2381.0
30
0.0
10
983.0
20
-2388.0
30
0.0
10
1034.0
20
-2386.0
30
0.0
10
1071.0
20
-2386.0
30
0.0
10
1113.0
20
-2384.0
30
0.0
10
1154.0
20
-2378.0
30
0.0
10
1271.0
20
-2367.0
30
0.0
10
1304.0
20
-2372.0
30
0.0
10
1324.0
20
-2380.0
30
0.0
10
1335.0
20
-2379.0
30
0.0
10
1302.0
20
-2410.0
30
0.0
6
Solid
370
35
62
2
0
LWPOLYLINE
5
445
100
AcDbEntity
8
zone_29_q2
100
AcDbPolyline
90
5
70
1
10
732.0
20
-2425.0
30
0.0
10
731.0
20
-2422.0
30
0.0
10
735.0
20
-2421.0
30
0.0
10
736.0
20
-2423.0
30
0.0
10
732.0
20
-2425.0
30
0.0
6
Solid
370
35
62
2
0
LWPOLYLINE
5
448
100
AcDbEntity
8
zone_30_q2
100
AcDbPolyline
90
13
70
1
10
733.0
20
-2425.0
30
0.0
10
736.0
20
-2448.0
30
0.0
10
732.0
20
-2459.0
30
0.0
10
712.0
20
-2456.0
30
0.0
10
688.0
20
-2469.0
30
0.0
10
673.0
20
-2479.0
30
0.0
10
662.0
20
-2477.0
30
0.0
10
651.0
20
-2462.0
30
0.0
10
670.0
20
-2452.0
30
0.0
10
704.0
20
-2440.0
30
0.0
10
722.0
20
-2434.0
30
0.0
10
732.0
20
-2428.0
30
0.0
10
733.0
20
-2425.0
30
0.0
6
Solid
370
35
62
2
0
LWPOLYLINE
5
44b
100
AcDbEntity
8
zone_31_q1
100
AcDbPolyline
90
16
70
1
10
378.0
20
-219.0
30
0.0
10
377.0
20
-220.0
30
0.0
10
367.0
20
-215.0
30
0.0
10
363.0
20
-202.0
30
0.0
10
358.0
20
-185.0
30
0.0
10
352.0
20
-161.0
30
0.0
10
341.0
20
-110.0
30
0.0
10
331.0
20
-72.0
30
0.0
10
328.0
20
-53.0
30
0.0
10
327.0
20
-39.0
30
0.0
10
360.0
20
-88.0
30
0.0
10
365.0
20
-104.0
30
0.0
10
372.0
20
-125.0
30
0.0
10
383.0
20
-181.0
30
0.0
10
386.0
20
-213.0
30
0.0
10
378.0
20
-219.0
30
0.0
6
Solid
370
35
62
40
0
LWPOLYLINE
5
44e
100
AcDbEntity
8
zone_32_q1
100
AcDbPolyline
90
7
70
1
10
149.0
20
-273.0
30
0.0
10
148.0
20
-273.0
30
0.0
10
140.0
20
-269.0
30
0.0
10
141.0
20
-266.0
30
0.0
10
142.0
20
-264.0
30
0.0
10
150.0
20
-270.0
30
0.0
10
149.0
20
-273.0
30
0.0
6
Solid
370
35
62
40
0
LWPOLYLINE
5
451
100
AcDbEntity
8
zone_33_q1
100
AcDbPolyline
90
9
70
1
10
188.0
20
-94.0
30
0.0
10
191.0
20
-95.0
30
0.0
10
197.0
20
-101.0
30
0.0
10
192.0
20
-105.0
30
0.0
10
186.0
20
-104.0
30
0.0
10
183.0
20
-98.0
30
0.0
10
182.0
20
-93.0
30
0.0
10
185.0
20
-91.0
30
0.0
10
188.0
20
-94.0
30
0.0
6
Solid
370
35
62
40
0
LWPOLYLINE
5
454
100
AcDbEntity
8
zone_34_q1
100
AcDbPolyline
90
10
70
1
10
196.0
20
-539.0
30
0.0
10
186.0
20
-524.0
30
0.0
10
190.0
20
-522.0
30
0.0
10
198.0
20
-522.0
30
0.0
10
201.0
20
-525.0
30
0.0
10
203.0
20
-533.0
30
0.0
10
204.0
20
-539.0
30
0.0
10
204.0
20
-544.0
30
0.0
10
203.0
20
-545.0
30
0.0
10
196.0
20
-539.0
30
0.0
6
Solid
370
35
62
40
0
LWPOLYLINE
5
457
100
AcDbEntity
8
zone_35_q1
100
AcDbPolyline
90
5
70
1
10
174.0
20
-457.0
30
0.0
10
174.0
20
-458.0
30
0.0
10
171.0
20
-460.0
30
0.0
10
171.0
20
-459.0
30
0.0
10
174.0
20
-457.0
30
0.0
6
Solid
370
35
62
40
0
LWPOLYLINE
5
45a
100
AcDbEntity
8
zone_36_q1
100
AcDbPolyline
90
6
70
1
10
172.0
20
-458.0
30
0.0
10
170.0
20
-453.0
30
0.0
10
175.0
20
-446.0
30
0.0
10
181.0
20
-447.0
30
0.0
10
175.0
20
-460.0
30
0.0
10
172.0
20
-458.0
30
0.0
6
Solid
370
35
62
40
0
LWPOLYLINE
5
45d
100
AcDbEntity
8
zone_37_q1
100
AcDbPolyline
90
16
70
1
10
215.0
20
-2668.0
30
0.0
10
206.0
20
-2686.0
30
0.0
10
192.0
20
-2703.0
30
0.0
10
177.0
20
-2706.0
30
0.0
10
164.0
20
-2699.0
30
0.0
10
133.0
20
-2709.0
30
0.0
10
110.0
20
-2665.0
30
0.0
10
100.0
20
-2649.0
30
0.0
10
92.0
20
-2640.0
30
0.0
10
95.0
20
-2627.0
30
0.0
10
122.0
20
-2620.0
30
0.0
10
175.0
20
-2615.0
30
0.0
10
205.0
20
-2619.0
30
0.0
10
218.0
20
-2635.0
30
0.0
10
216.0
20
-2665.0
30
0.0
10
215.0
20
-2668.0
30
0.0
6
Solid
370
35
62
40
0
LWPOLYLINE
5
460
100
AcDbEntity
8
zone_38_q1
100
AcDbPolyline
90
11
70
1
10
327.0
20
-2530.0
30
0.0
10
294.0
20
-2580.0
30
0.0
10
258.0
20
-2627.0
30
0.0
10
239.0
20
-2618.0
30
0.0
10
231.0
20
-2599.0
30
0.0
10
251.0
20
-2550.0
30
0.0
10
271.0
20
-2530.0
30
0.0
10
302.0
20
-2522.0
30
0.0
10
327.0
20
-2524.0
30
0.0
10
340.0
20
-2525.0
30
0.0
10
327.0
20
-2530.0
30
0.0
6
Solid
370
35
62
40
0
LWPOLYLINE
5
463
100
AcDbEntity
8
zone_39_q2
100
AcDbPolyline
90
61
70
1
10
672.0
20
-2418.0
30
0.0
10
675.0
20
-2413.0
30
0.0
10
676.0
20
-2401.0
30
0.0
10
679.0
20
-2361.0
30
0.0
10
681.0
20
-2352.0
30
0.0
10
685.0
20
-2328.0
30
0.0
10
679.0
20
-2315.0
30
0.0
10
657.0
20
-2306.0
30
0.0
10
645.0
20
-2302.0
30
0.0
10
634.0
20
-2297.0
30
0.0
10
611.0
20
-2287.0
30
0.0
10
593.0
20
-2282.0
30
0.0
10
578.0
20
-2282.0
30
0.0
10
565.0
20
-2284.0
30
0.0
10
552.0
20
-2287.0
30
0.0
10
538.0
20
-2294.0
30
0.0
10
505.0
20
-2313.0
30
0.0
10
492.0
20
-2325.0
30
0.0
10
484.0
20
-2331.0
30
0.0
10
469.0
20
-2348.0
30
0.0
10
449.0
20
-2376.0
30
0.0
10
438.0
20
-2387.0
30
0.0
10
421.0
20
-2408.0
30
0.0
10
408.0
20
-2420.0
30
0.0
10
400.0
20
-2427.0
30
0.0
10
391.0
20
-2434.0
30
0.0
10
380.0
20
-2447.0
30
0.0
10
370.0
20
-2461.0
30
0.0
10
362.0
20
-2478.0
30
0.0
10
361.0
20
-2481.0
30
0.0
10
349.0
20
-2495.0
30
0.0
10
342.0
20
-2497.0
30
0.0
10
331.0
20
-2500.0
30
0.0
10
321.0
20
-2496.0
30
0.0
10
320.0
20
-2480.0
30
0.0
10
322.0
20
-2472.0
30
0.0
10
330.0
20
-2456.0
30
0.0
10
343.0
20
-2434.0
30
0.0
10
355.0
20
-2410.0
30
0.0
10
366.0
20
-2394.0
30
0.0
10
384.0
20
-2375.0
30
0.0
10
396.0
20
-2360.0
30
0.0
10
435.0
20
-2320.0
30
0.0
10
458.0
20
-2296.0
30
0.0
10
486.0
20
-2267.0
30
0.0
10
512.0
20
-2224.0
30
0.0
10
554.0
20
-2207.0
30
0.0
10
580.0
20
-2211.0
30
0.0
10
607.0
20
-2226.0
30
0.0
10
632.0
20
-2234.0
30
0.0
10
675.0
20
-2241.0
30
0.0
10
698.0
20
-2237.0
30
0.0
10
716.0
20
-2239.0
30
0.0
10
730.0
20
-2252.0
30
0.0
10
731.0
20
-2267.0
30
0.0
10
719.0
20
-2301.0
30
0.0
10
708.0
20
-2323.0
30
0.0
10
723.0
20
-2386.0
30
0.0
10
700.0
20
-2403.0
30
0.0
10
686.0
20
-2410.0
30
0.0
10
672.0
20
-2418.0
30
0.0
6
Solid
370
35
62
2
0
LWPOLYLINE
5
466
100
AcDbEntity
8
zone_40_q3
100
AcDbPolyline
90
12
70
1
10
419.0
20
-1787.0
30
0.0
10
412.0
20
-1781.0
30
0.0
10
406.0
20
-1764.0
30
0.0
10
411.0
20
-1746.0
30
0.0
10
421.0
20
-1732.0
30
0.0
10
432.0
20
-1733.0
30
0.0
10
436.0
20
-1752.0
30
0.0
10
433.0
20
-1764.0
30
0.0
10
421.0
20
-1780.0
30
0.0
10
420.0
20
-1780.0
30
0.0
10
420.0
20
-1783.0
30
0.0
10
419.0
20
-1787.0
30
0.0
6
Solid
370
35
62
3
0
ENDSEC
0
SECTION
2
OBJECTS
0
DICTIONARY
5
38b
330
0
100
AcDbDictionary
281
1
3
ACAD_GROUP
350
38c
0
DICTIONARY
5
38c
330
38b
100
AcDbDictionary
281
1
0
ENDSEC
0
EOF
