999

0
SECTION
2
HEADER
9
$ACADVER
1
AC1021
9
$HANDSEED
5
53c
0
ENDSEC
0
SECTION
2
CLASSES
0
ENDSEC
0
SECTION
2
TABLES
0
TABLE
2
VPORT
5
469
100
AcDbSymbolTable
70
1
0
VPORT
5
468
100
AcDbSymbolTableRecord
100
AcDbViewportTableRecord
2
*ACTIVE
10
0
20
0
11
1
21
1
12
500.0
22
500.0
40
1000.0
70
0
0
ENDTAB
0
TABLE
2
LTYPE
5
46a
100
AcDbSymbolTable
70
3
0
LTYPE
5
472
100
AcDbSymbolTableRecord
100
AcDbLinetypeTableRecord
2
Solid
70
0
72
65
73
0
3

0
LTYPE
5
473
100
AcDbSymbolTableRecord
100
AcDbLinetypeTableRecord
2
ByBlock
70
0
72
65
73
0
3

0
LTYPE
5
474
100
AcDbSymbolTableRecord
100
AcDbLinetypeTableRecord
2
ByLayer
70
0
72
65
73
0
3

0
ENDTAB
0
TABLE
2
LAYER
5
46b
100
AcDbSymbolTable
70
34
0
LAYER
5
475
100
AcDbSymbolTableRecord
100
AcDbLayerTableRecord
2
0
70
0
390
0
0
LAYER
5
4d9
100
AcDbSymbolTableRecord
100
AcDbLayerTableRecord
2
zone_0_q2
70
0
390
0
0
LAYER
5
4dc
100
AcDbSymbolTableRecord
100
AcDbLayerTableRecord
2
zone_1_q1
70
0
390
0
0
LAYER
5
4df
100
AcDbSymbolTableRecord
100
AcDbLayerTableRecord
2
zone_2_q1
70
0
390
0
0
LAYER
5
4e2
100
AcDbSymbolTableRecord
100
AcDbLayerTableRecord
2
zone_3_q1
70
0
390
0
0
LAYER
5
4e5
100
AcDbSymbolTableRecord
100
AcDbLayerTableRecord
2
zone_4_q1
70
0
390
0
0
LAYER
5
4e8
100
AcDbSymbolTableRecord
100
AcDbLayerTableRecord
2
zone_5_q1
70
0
390
0
0
LAYER
5
4eb
100
AcDbSymbolTableRecord
100
AcDbLayerTableRecord
2
zone_6_q1
70
0
390
0
0
LAYER
5
4ee
100
AcDbSymbolTableRecord
100
AcDbLayerTableRecord
2
zone_7_q2
70
0
390
0
0
LAYER
5
4f1
100
AcDbSymbolTableRecord
100
AcDbLayerTableRecord
2
zone_8_q3
70
0
390
0
0
LAYER
5
4f4
100
AcDbSymbolTableRecord
100
AcDbLayerTableRecord
2
zone_9_q1
70
0
390
0
0
LAYER
5
4f7
100
AcDbSymbolTableRecord
100
AcDbLayerTableRecord
2
zone_10_q1
70
0
390
0
0
LAYER
5
4fa
100
AcDbSymbolTableRecord
100
AcDbLayerTableRecord
2
zone_11_q1
70
0
390
0
0
LAYER
5
4fd
100
AcDbSymbolTableRecord
100
AcDbLayerTableRecord
2
zone_12_q1
70
0
390
0
0
LAYER
5
500
100
AcDbSymbolTableRecord
100
AcDbLayerTableRecord
2
zone_13_q1
70
0
390
0
0
LAYER
5
503
100
AcDbSymbolTableRecord
100
AcDbLayerTableRecord
2
zone_14_q1
70
0
390
0
0
LAYER
5
506
100
AcDbSymbolTableRecord
100
AcDbLayerTableRecord
2
zone_15_q1
70
0
390
0
0
LAYER
5
509
100
AcDbSymbolTableRecord
100
AcDbLayerTableRecord
2
zone_16_q2
70
0
390
0
0
LAYER
5
50c
100
AcDbSymbolTableRecord
100
AcDbLayerTableRecord
2
zone_17_q2
70
0
390
0
0
LAYER
5
50f
100
AcDbSymbolTableRecord
100
AcDbLayerTableRecord
2
zone_18_q2
70
0
390
0
0
LAYER
5
512
100
AcDbSymbolTableRecord
100
AcDbLayerTableRecord
2
zone_19_q2
70
0
390
0
0
LAYER
5
515
100
AcDbSymbolTableRecord
100
AcDbLayerTableRecord
2
zone_20_q2
70
0
390
0
0
LAYER
5
518
100
AcDbSymbolTableRecord
100
AcDbLayerTableRecord
2
zone_21_q1
70
0
390
0
0
LAYER
5
51b
100
AcDbSymbolTableRecord
100
AcDbLayerTableRecord
2
zone_22_q1
70
0
390
0
0
LAYER
5
51e
100
AcDbSymbolTableRecord
100
AcDbLayerTableRecord
2
zone_23_q1
70
0
390
0
0
LAYER
5
521
100
AcDbSymbolTableRecord
100
AcDbLayerTableRecord
2
zone_24_q1
70
0
390
0
0
LAYER
5
524
100
AcDbSymbolTableRecord
100
AcDbLayerTableRecord
2
zone_25_q1
70
0
390
0
0
LAYER
5
527
100
AcDbSymbolTableRecord
100
AcDbLayerTableRecord
2
zone_26_q2
70
0
390
0
0
LAYER
5
52a
100
AcDbSymbolTableRecord
100
AcDbLayerTableRecord
2
zone_27_q1
70
0
390
0
0
LAYER
5
52d
100
AcDbSymbolTableRecord
100
AcDbLayerTableRecord
2
zone_28_q1
70
0
390
0
0
LAYER
5
530
100
AcDbSymbolTableRecord
100
AcDbLayerTableRecord
2
zone_29_q2
70
0
390
0
0
LAYER
5
533
100
AcDbSymbolTableRecord
100
AcDbLayerTableRecord
2
zone_30_q2
70
0
390
0
0
LAYER
5
536
100
AcDbSymbolTableRecord
100
AcDbLayerTableRecord
2
zone_31_q1
70
0
390
0
0
LAYER
5
539
100
AcDbSymbolTableRecord
100
AcDbLayerTableRecord
2
zone_32_q1
70
0
390
0
0
ENDTAB
0
TABLE
2
STYLE
5
46c
100
AcDbSymbolTable
70
0
0
ENDTAB
0
TABLE
2
VIEW
5
46d
100
AcDbSymbolTable
70
0
0
ENDTAB
0
TABLE
2
UCS
5
46e
100
AcDbSymbolTable
70
0
0
ENDTAB
0
TABLE
2
APPID
5
46f
100
AcDbSymbolTable
70
1
0
APPID
5
476
100
AcDbSymbolTableRecord
100
AcDbRegAppTableRecord
2
ACAD
70
0
0
ENDTAB
0
TABLE
2
DIMSTYLE
5
470
100
AcDbSymbolTable
70
0
100
AcDbDimStyleTable
71
1
0
ENDTAB
0
TABLE
2
BLOCK_RECORD
5
471
100
AcDbSymbolTable
70
2
0
BLOCK_RECORD
5
477
100
AcDbSymbolTableRecord
100
AcDbBlockTableRecord
2
*Model_Space
70
0
280
1
281
0
0
BLOCK_RECORD
5
478
100
AcDbSymbolTableRecord
100
AcDbBlockTableRecord
2
*Paper_Space
70
0
280
1
281
0
0
ENDTAB
0
ENDSEC
0
SECTION
2
BLOCKS
0
BLOCK
5
479
100
AcDbEntity
100
AcDbBlockBegin
2
*Model_Space
70
0
10
0
20
0
30
0
3
*Model_Space
1

0
ENDBLK
5
47a
100
AcDbEntity
100
AcDbBlockEnd
0
BLOCK
5
47b
100
AcDbEntity
100
AcDbBlockBegin
2
*Paper_Space
70
0
10
0
20
0
30
0
3
*Paper_Space
1

0
ENDBLK
5
47c
100
AcDbEntity
100
AcDbBlockEnd
0
ENDSEC
0
SECTION
2
ENTITIES
0
LWPOLYLINE
5
47f
100
AcDbEntity
100
AcDbPolyline
90
293
70
1
10
2610.0
20
-1111.0
30
0.0
10
2610.0
20
-1114.0
30
0.0
10
2610.0
20
-1115.0
30
0.0
10
2590.0
20
-1171.0
30
0.0
10
2569.0
20
-1195.0
30
0.0
10
2537.0
20
-1275.0
30
0.0
10
2516.0
20
-1348.0
30
0.0
10
2495.0
20
-1387.0
30
0.0
10
2491.0
20
-1415.0
30
0.0
10
2481.0
20
-1442.0
30
0.0
10
2487.0
20
-1466.0
30
0.0
10
2491.0
20
-1491.0
30
0.0
10
2484.0
20
-1506.0
30
0.0
10
2488.0
20
-1567.0
30
0.0
10
2482.0
20
-1600.0
30
0.0
10
2479.0
20
-1646.0
30
0.0
10
2488.0
20
-1683.0
30
0.0
10
2481.0
20
-1710.0
30
0.0
10
2465.0
20
-1762.0
30
0.0
10
2461.0
20
-1826.0
30
0.0
10
2496.0
20
-1916.0
30
0.0
10
2530.0
20
-1984.0
30
0.0
10
2561.0
20
-2050.0
30
0.0
10
2560.0
20
-2066.0
30
0.0
10
2533.0
20
-2085.0
30
0.0
10
2471.0
20
-2141.0
30
0.0
10
2456.0
20
-2145.0
30
0.0
10
2433.0
20
-2132.0
30
0.0
10
2373.0
20
-2076.0
30
0.0
10
2348.0
20
-2052.0
30
0.0
10
2340.0
20
-2056.0
30
0.0
10
2337.0
20
-2084.0
30
0.0
10
2349.0
20
-2119.0
30
0.0
10
2390.0
20
-2173.0
30
0.0
10
2445.0
20
-2243.0
30
0.0
10
2446.0
20
-2259.0
30
0.0
10
2411.0
20
-2265.0
30
0.0
10
2367.0
20
-2247.0
30
0.0
10
2319.0
20
-2199.0
30
0.0
10
2291.0
20
-2182.0
30
0.0
10
2261.0
20
-2132.0
30
0.0
10
2250.0
20
-2113.0
30
0.0
10
2182.0
20
-2091.0
30
0.0
10
2151.0
20
-2088.0
30
0.0
10
2136.0
20
-2101.0
30
0.0
10
2131.0
20
-2129.0
30
0.0
10
2149.0
20
-2182.0
30
0.0
10
2171.0
20
-2216.0
30
0.0
10
2190.0
20
-2233.0
30
0.0
10
2193.0
20
-2243.0
30
0.0
10
2156.0
20
-2237.0
30
0.0
10
2111.0
20
-2194.0
30
0.0
10
2075.0
20
-2156.0
30
0.0
10
2054.0
20
-2148.0
30
0.0
10
2041.0
20
-2156.0
30
0.0
10
2030.0
20
-2177.0
30
0.0
10
2025.0
20
-2208.0
30
0.0
10
2032.0
20
-2246.0
30
0.0
10
2064.0
20
-2322.0
30
0.0
10
2083.0
20
-2363.0
30
0.0
10
2072.0
20
-2365.0
30
0.0
10
2041.0
20
-2353.0
30
0.0
10
1988.0
20
-2308.0
30
0.0
10
1945.0
20
-2284.0
30
0.0
10
1880.0
20
-2213.0
30
0.0
10
1826.0
20
-2184.0
30
0.0
10
1786.0
20
-2185.0
30
0.0
10
1750.0
20
-2179.0
30
0.0
10
1710.0
20
-2151.0
30
0.0
10
1698.0
20
-2155.0
30
0.0
10
1697.0
20
-2171.0
30
0.0
10
1718.0
20
-2208.0
30
0.0
10
1759.0
20
-2255.0
30
0.0
10
1767.0
20
-2274.0
30
0.0
10
1774.0
20
-2284.0
30
0.0
10
1770.0
20
-2302.0
30
0.0
10
1765.0
20
-2315.0
30
0.0
10
1767.0
20
-2328.0
30
0.0
10
1785.0
20
-2391.0
30
0.0
10
1787.0
20
-2414.0
30
0.0
10
1766.0
20
-2421.0
30
0.0
10
1735.0
20
-2402.0
30
0.0
10
1701.0
20
-2389.0
30
0.0
10
1659.0
20
-2367.0
30
0.0
10
1634.0
20
-2365.0
30
0.0
10
1622.0
20
-2363.0
30
0.0
10
1589.0
20
-2343.0
30
0.0
10
1570.0
20
-2327.0
30
0.0
10
1546.0
20
-2313.0
30
0.0
10
1510.0
20
-2307.0
30
0.0
10
1479.0
20
-2300.0
30
0.0
10
1473.0
20
-2289.0
30
0.0
10
1461.0
20
-2288.0
30
0.0
10
1407.0
20
-2282.0
30
0.0
10
1348.0
20
-2299.0
30
0.0
10
1315.0
20
-2293.0
30
0.0
10
1272.0
20
-2308.0
30
0.0
10
1257.0
20
-2325.0
30
0.0
10
1235.0
20
-2357.0
30
0.0
10
1230.0
20
-2379.0
30
0.0
10
1206.0
20
-2384.0
30
0.0
10
1179.0
20
-2367.0
30
0.0
10
1158.0
20
-2358.0
30
0.0
10
1106.0
20
-2358.0
30
0.0
10
1081.0
20
-2363.0
30
0.0
10
1047.0
20
-2376.0
30
0.0
10
1000.0
20
-2396.0
30
0.0
10
986.0
20
-2375.0
30
0.0
10
921.0
20
-2372.0
30
0.0
10
890.0
20
-2366.0
30
0.0
10
881.0
20
-2372.0
30
0.0
10
856.0
20
-2381.0
30
0.0
10
837.0
20
-2394.0
30
0.0
10
805.0
20
-2405.0
30
0.0
10
784.0
20
-2409.0
30
0.0
10
749.0
20
-2419.0
30
0.0
10
737.0
20
-2402.0
30
0.0
10
725.0
20
-2395.0
30
0.0
10
723.0
20
-2373.0
30
0.0
10
689.0
20
-2349.0
30
0.0
10
667.0
20
-2351.0
30
0.0
10
636.0
20
-2355.0
30
0.0
10
628.0
20
-2366.0
30
0.0
10
589.0
20
-2407.0
30
0.0
10
513.0
20
-2458.0
30
0.0
10
494.0
20
-2452.0
30
0.0
10
443.0
20
-2478.0
30
0.0
10
409.0
20
-2508.0
30
0.0
10
405.0
20
-2531.0
30
0.0
10
413.0
20
-2581.0
30
0.0
10
402.0
20
-2619.0
30
0.0
10
399.0
20
-2660.0
30
0.0
10
304.0
20
-2663.0
30
0.0
10
298.0
20
-2655.0
30
0.0
10
270.0
20
-2638.0
30
0.0
10
255.0
20
-2632.0
30
0.0
10
197.0
20
-2640.0
30
0.0
10
193.0
20
-2634.0
30
0.0
10
171.0
20
-2591.0
30
0.0
10
154.0
20
-2578.0
30
0.0
10
145.0
20
-2563.0
30
0.0
10
151.0
20
-2488.0
30
0.0
10
157.0
20
-2451.0
30
0.0
10
155.0
20
-2423.0
30
0.0
10
173.0
20
-2367.0
30
0.0
10
210.0
20
-2291.0
30
0.0
10
220.0
20
-2238.0
30
0.0
10
226.0
20
-2185.0
30
0.0
10
225.0
20
-2145.0
30
0.0
10
191.0
20
-2074.0
30
0.0
10
174.0
20
-2031.0
30
0.0
10
142.0
20
-1988.0
30
0.0
10
73.0
20
-1912.0
30
0.0
10
22.0
20
-1848.0
30
0.0
10
0.0
20
-1805.0
30
0.0
10
8.0
20
-1786.0
30
0.0
10
8.0
20
-1729.0
30
0.0
10
2.0
20
-1664.0
30
0.0
10
13.0
20
-1635.0
30
0.0
10
89.0
20
-1592.0
30
0.0
10
157.0
20
-1544.0
30
0.0
10
201.0
20
-1503.0
30
0.0
10
229.0
20
-1447.0
30
0.0
10
252.0
20
-1376.0
30
0.0
10
255.0
20
-1332.0
30
0.0
10
247.0
20
-1317.0
30
0.0
10
243.0
20
-1301.0
30
0.0
10
245.0
20
-1242.0
30
0.0
10
248.0
20
-1196.0
30
0.0
10
239.0
20
-1158.0
30
0.0
10
231.0
20
-1115.0
30
0.0
10
173.0
20
-980.0
30
0.0
10
154.0
20
-945.0
30
0.0
10
106.0
20
-869.0
30
0.0
10
56.0
20
-830.0
30
0.0
10
70.0
20
-789.0
30
0.0
10
88.0
20
-743.0
30
0.0
10
112.0
20
-656.0
30
0.0
10
138.0
20
-575.0
30
0.0
10
153.0
20
-547.0
30
0.0
10
159.0
20
-526.0
30
0.0
10
154.0
20
-482.0
30
0.0
10
175.0
20
-451.0
30
0.0
10
191.0
20
-426.0
30
0.0
10
190.0
20
-376.0
30
0.0
10
183.0
20
-284.0
30
0.0
10
173.0
20
-243.0
30
0.0
10
132.0
20
-131.0
30
0.0
10
153.0
20
-130.0
30
0.0
10
169.0
20
-118.0
30
0.0
10
212.0
20
-138.0
30
0.0
10
237.0
20
-134.0
30
0.0
10
253.0
20
-119.0
30
0.0
10
275.0
20
-97.0
30
0.0
10
290.0
20
-62.0
30
0.0
10
288.0
20
-53.0
30
0.0
10
296.0
20
-40.0
30
0.0
10
321.0
20
-34.0
30
0.0
10
378.0
20
-93.0
30
0.0
10
393.0
20
-103.0
30
0.0
10
422.0
20
-109.0
30
0.0
10
460.0
20
-103.0
30
0.0
10
485.0
20
-115.0
30
0.0
10
508.0
20
-145.0
30
0.0
10
527.0
20
-143.0
30
0.0
10
594.0
20
-142.0
30
0.0
10
616.0
20
-150.0
30
0.0
10
667.0
20
-158.0
30
0.0
10
709.0
20
-127.0
30
0.0
10
728.0
20
-122.0
30
0.0
10
750.0
20
-134.0
30
0.0
10
801.0
20
-159.0
30
0.0
10
833.0
20
-165.0
30
0.0
10
854.0
20
-164.0
30
0.0
10
899.0
20
-185.0
30
0.0
10
920.0
20
-189.0
30
0.0
10
939.0
20
-201.0
30
0.0
10
989.0
20
-205.0
30
0.0
10
1021.0
20
-217.0
30
0.0
10
1080.0
20
-234.0
30
0.0
10
1095.0
20
-236.0
30
0.0
10
1114.0
20
-229.0
30
0.0
10
1156.0
20
-216.0
30
0.0
10
1203.0
20
-205.0
30
0.0
10
1233.0
20
-202.0
30
0.0
10
1258.0
20
-196.0
30
0.0
10
1288.0
20
-168.0
30
0.0
10
1307.0
20
-170.0
30
0.0
10
1359.0
20
-195.0
30
0.0
10
1387.0
20
-200.0
30
0.0
10
1406.0
20
-207.0
30
0.0
10
1452.0
20
-194.0
30
0.0
10
1492.0
20
-167.0
30
0.0
10
1513.0
20
-159.0
30
0.0
10
1529.0
20
-165.0
30
0.0
10
1566.0
20
-137.0
30
0.0
10
1592.0
20
-91.0
30
0.0
10
1637.0
20
-63.0
30
0.0
10
1696.0
20
-30.0
30
0.0
10
1736.0
20
-17.0
30
0.0
10
1764.0
20
-3.0
30
0.0
10
1805.0
20
0.0
30
0.0
10
1819.0
20
-18.0
30
0.0
10
1829.0
20
-44.0
30
0.0
10
1828.0
20
-77.0
30
0.0
10
1810.0
20
-104.0
30
0.0
10
1798.0
20
-127.0
30
0.0
10
1771.0
20
-193.0
30
0.0
10
1760.0
20
-238.0
30
0.0
10
1781.0
20
-246.0
30
0.0
10
1821.0
20
-273.0
30
0.0
10
1836.0
20
-275.0
30
0.0
10
1876.0
20
-261.0
30
0.0
10
1913.0
20
-267.0
30
0.0
10
1941.0
20
-277.0
30
0.0
10
1990.0
20
-310.0
30
0.0
10
2024.0
20
-309.0
30
0.0
10
2061.0
20
-304.0
30
0.0
10
2067.0
20
-309.0
30
0.0
10
2060.0
20
-344.0
30
0.0
10
2052.0
20
-389.0
30
0.0
10
2062.0
20
-407.0
30
0.0
10
2090.0
20
-415.0
30
0.0
10
2106.0
20
-435.0
30
0.0
10
2114.0
20
-446.0
30
0.0
10
2138.0
20
-447.0
30
0.0
10
2148.0
20
-449.0
30
0.0
10
2166.0
20
-432.0
30
0.0
10
2194.0
20
-429.0
30
0.0
10
2225.0
20
-444.0
30
0.0
10
2256.0
20
-453.0
30
0.0
10
2280.0
20
-476.0
30
0.0
10
2280.0
20
-504.0
30
0.0
10
2277.0
20
-554.0
30
0.0
10
2259.0
20
-608.0
30
0.0
10
2260.0
20
-626.0
30
0.0
10
2283.0
20
-650.0
30
0.0
10
2299.0
20
-693.0
30
0.0
10
2322.0
20
-721.0
30
0.0
10
2365.0
20
-737.0
30
0.0
10
2455.0
20
-766.0
30
0.0
10
2506.0
20
-771.0
30
0.0
10
2528.0
20
-781.0
30
0.0
10
2533.0
20
-821.0
30
0.0
10
2531.0
20
-846.0
30
0.0
10
2527.0
20
-901.0
30
0.0
10
2538.0
20
-926.0
30
0.0
10
2545.0
20
-972.0
30
0.0
10
2554.0
20
-999.0
30
0.0
10
2560.0
20
-1015.0
30
0.0
10
2593.0
20
-1057.0
30
0.0
10
2610.0
20
-1107.0
30
0.0
10
2610.0
20
-1111.0
30
0.0
6
Solid
370
35
62
0
0
LWPOLYLINE
5
481
100
AcDbEntity
100
AcDbPolyline
90
13
70
1
10
2178.0
20
-486.0
30
0.0
10
2182.0
20
-486.0
30
0.0
10
2182.0
20
-487.0
30
0.0
10
2177.0
20
-497.0
30
0.0
10
2174.0
20
-497.0
30
0.0
10
2165.0
20
-506.0
30
0.0
10
2150.0
20
-510.0
30
0.0
10
2151.0
20
-503.0
30
0.0
10
2161.0
20
-487.0
30
0.0
10
2167.0
20
-480.0
30
0.0
10
2172.0
20
-477.0
30
0.0
10
2175.0
20
-477.0
30
0.0
10
2178.0
20
-486.0
30
0.0
6
Solid
370
35
62
0
0
LWPOLYLINE
5
483
100
AcDbEntity
100
AcDbPolyline
90
8
70
1
10
2460.0
20
-1785.0
30
0.0
10
2440.0
20
-1765.0
30
0.0
10
2426.0
20
-1751.0
30
0.0
10
2423.0
20
-1743.0
30
0.0
10
2430.0
20
-1747.0
30
0.0
10
2447.0
20
-1755.0
30
0.0
10
2454.0
20
-1763.0
30
0.0
10
2460.0
20
-1785.0
30
0.0
6
Solid
370
35
62
0
0
LWPOLYLINE
5
485
100
AcDbEntity
100
AcDbPolyline
90
15
70
1
10
2367.0
20
-1795.0
30
0.0
10
2367.0
20
-1802.0
30
0.0
10
2363.0
20
-1843.0
30
0.0
10
2354.0
20
-1880.0
30
0.0
10
2347.0
20
-1931.0
30
0.0
10
2340.0
20
-1967.0
30
0.0
10
2336.0
20
-1985.0
30
0.0
10
2332.0
20
-1988.0
30
0.0
10
2331.0
20
-1964.0
30
0.0
10
2335.0
20
-1937.0
30
0.0
10
2339.0
20
-1912.0
30
0.0
10
2352.0
20
-1867.0
30
0.0
10
2356.0
20
-1833.0
30
0.0
10
2360.0
20
-1803.0
30
0.0
10
2367.0
20
-1795.0
30
0.0
6
Solid
370
35
62
0
0
LWPOLYLINE
5
487
100
AcDbEntity
100
AcDbPolyline
90
15
70
1
10
2494.0
20
-2118.0
30
0.0
10
2489.0
20
-2108.0
30
0.0
10
2483.0
20
-2095.0
30
0.0
10
2476.0
20
-2078.0
30
0.0
10
2459.0
20
-2050.0
30
0.0
10
2429.0
20
-2009.0
30
0.0
10
2417.0
20
-1990.0
30
0.0
10
2411.0
20
-1978.0
30
0.0
10
2428.0
20
-1987.0
30
0.0
10
2460.0
20
-2015.0
30
0.0
10
2496.0
20
-2037.0
30
0.0
10
2515.0
20
-2046.0
30
0.0
10
2533.0
20
-2055.0
30
0.0
10
2547.0
20
-2066.0
30
0.0
10
2494.0
20
-2118.0
30
0.0
6
Solid
370
35
62
0
0
LWPOLYLINE
5
489
100
AcDbEntity
100
AcDbPolyline
90
11
70
1
10
2341.0
20
-2056.0
30
0.0
10
2340.0
20
-2056.0
30
0.0
10
2337.0
20
-2083.0
30
0.0
10
2328.0
20
-2089.0
30
0.0
10
2308.0
20
-2076.0
30
0.0
10
2293.0
20
-2055.0
30
0.0
10
2293.0
20
-2036.0
30
0.0
10
2308.0
20
-2022.0
30
0.0
10
2321.0
20
-2022.0
30
0.0
10
2334.0
20
-2042.0
30
0.0
10
2341.0
20
-2056.0
30
0.0
6
Solid
370
35
62
0
0
LWPOLYLINE
5
48b
100
AcDbEntity
100
AcDbPolyline
90
11
70
1
10
2197.0
20
-2096.0
30
0.0
10
2182.0
20
-2091.0
30
0.0
10
2151.0
20
-2088.0
30
0.0
10
2147.0
20
-2091.0
30
0.0
10
2127.0
20
-2088.0
30
0.0
10
2133.0
20
-2083.0
30
0.0
10
2138.0
20
-2020.0
30
0.0
10
2145.0
20
-2032.0
30
0.0
10
2178.0
20
-2070.0
30
0.0
10
2192.0
20
-2083.0
30
0.0
10
2197.0
20
-2096.0
30
0.0
6
Solid
370
35
62
0
0
LWPOLYLINE
5
48d
100
AcDbEntity
100
AcDbPolyline
90
7
70
1
10
2098.0
20
-439.0
30
0.0
10
2076.0
20
-462.0
30
0.0
10
2068.0
20
-466.0
30
0.0
10
2071.0
20
-457.0
30
0.0
10
2089.0
20
-429.0
30
0.0
10
2095.0
20
-422.0
30
0.0
10
2098.0
20
-439.0
30
0.0
6
Solid
370
35
62
0
0
LWPOLYLINE
5
48f
100
AcDbEntity
100
AcDbPolyline
90
9
70
1
10
2108.0
20
-437.0
30
0.0
10
2114.0
20
-446.0
30
0.0
10
2113.0
20
-448.0
30
0.0
10
2107.0
20
-460.0
30
0.0
10
2087.0
20
-487.0
30
0.0
10
2085.0
20
-467.0
30
0.0
10
2097.0
20
-446.0
30
0.0
10
2104.0
20
-436.0
30
0.0
10
2108.0
20
-437.0
30
0.0
6
Solid
370
35
62
0
0
LWPOLYLINE
5
491
100
AcDbEntity
100
AcDbPolyline
90
11
70
1
10
2130.0
20
-447.0
30
0.0
10
2138.0
20
-447.0
30
0.0
10
2148.0
20
-449.0
30
0.0
10
2166.0
20
-432.0
30
0.0
10
2173.0
20
-432.0
30
0.0
10
2169.0
20
-437.0
30
0.0
10
2151.0
20
-458.0
30
0.0
10
2119.0
20
-491.0
30
0.0
10
2120.0
20
-483.0
30
0.0
10
2126.0
20
-460.0
30
0.0
10
2130.0
20
-447.0
30
0.0
6
Solid
370
35
62
0
0
LWPOLYLINE
5
493
100
AcDbEntity
100
AcDbPolyline
90
9
70
1
10
1986.0
20
-307.0
30
0.0
10
1990.0
20
-310.0
30
0.0
10
2000.0
20
-310.0
30
0.0
10
2000.0
20
-317.0
30
0.0
10
1997.0
20
-324.0
30
0.0
10
1991.0
20
-325.0
30
0.0
10
1986.0
20
-320.0
30
0.0
10
1985.0
20
-313.0
30
0.0
10
1986.0
20
-307.0
30
0.0
6
Solid
370
35
62
0
0
LWPOLYLINE
5
495
100
AcDbEntity
100
AcDbPolyline
90
9
70
1
10
2559.0
20
-1187.0
30
0.0
10
2559.0
20
-1188.0
30
0.0
10
2558.0
20
-1189.0
30
0.0
10
2557.0
20
-1188.0
30
0.0
10
2557.0
20
-1186.0
30
0.0
10
2558.0
20
-1186.0
30
0.0
10
2559.0
20
-1186.0
30
0.0
10
2561.0
20
-1187.0
30
0.0
10
2559.0
20
-1187.0
30
0.0
6
Solid
370
35
62
0
0
LWPOLYLINE
5
497
100
AcDbEntity
100
AcDbPolyline
90
6
70
1
10
2476.0
20
-1870.0
30
0.0
10
2460.0
20
-1865.0
30
0.0
10
2442.0
20
-1852.0
30
0.0
10
2446.0
20
-1849.0
30
0.0
10
2457.0
20
-1849.0
30
0.0
10
2476.0
20
-1870.0
30
0.0
6
Solid
370
35
62
0
0
LWPOLYLINE
5
499
100
AcDbEntity
100
AcDbPolyline
90
14
70
1
10
1818.0
20
-271.0
30
0.0
10
1821.0
20
-273.0
30
0.0
10
1836.0
20
-275.0
30
0.0
10
1845.0
20
-272.0
30
0.0
10
1844.0
20
-275.0
30
0.0
10
1841.0
20
-292.0
30
0.0
10
1843.0
20
-306.0
30
0.0
10
1841.0
20
-325.0
30
0.0
10
1840.0
20
-341.0
30
0.0
10
1839.0
20
-346.0
30
0.0
10
1834.0
20
-348.0
30
0.0
10
1822.0
20
-334.0
30
0.0
10
1819.0
20
-282.0
30
0.0
10
1818.0
20
-271.0
30
0.0
6
Solid
370
35
62
0
0
LWPOLYLINE
5
49b
100
AcDbEntity
100
AcDbPolyline
90
11
70
1
10
1766.0
20
-212.0
30
0.0
10
1760.0
20
-238.0
30
0.0
10
1781.0
20
-246.0
30
0.0
10
1786.0
20
-249.0
30
0.0
10
1784.0
20
-258.0
30
0.0
10
1764.0
20
-288.0
30
0.0
10
1703.0
20
-302.0
30
0.0
10
1710.0
20
-287.0
30
0.0
10
1721.0
20
-260.0
30
0.0
10
1744.0
20
-230.0
30
0.0
10
1766.0
20
-212.0
30
0.0
6
Solid
370
35
62
0
0
LWPOLYLINE
5
49d
100
AcDbEntity
100
AcDbPolyline
90
25
70
1
10
1605.0
20
-205.0
30
0.0
10
1614.0
20
-193.0
30
0.0
10
1644.0
20
-154.0
30
0.0
10
1692.0
20
-93.0
30
0.0
10
1718.0
20
-61.0
30
0.0
10
1746.0
20
-36.0
30
0.0
10
1753.0
20
-38.0
30
0.0
10
1758.0
20
-35.0
30
0.0
10
1754.0
20
-48.0
30
0.0
10
1740.0
20
-75.0
30
0.0
10
1722.0
20
-104.0
30
0.0
10
1699.0
20
-135.0
30
0.0
10
1653.0
20
-199.0
30
0.0
10
1594.0
20
-250.0
30
0.0
10
1589.0
20
-267.0
30
0.0
10
1583.0
20
-278.0
30
0.0
10
1577.0
20
-264.0
30
0.0
10
1572.0
20
-218.0
30
0.0
10
1569.0
20
-131.0
30
0.0
10
1592.0
20
-91.0
30
0.0
10
1613.0
20
-78.0
30
0.0
10
1615.0
20
-87.0
30
0.0
10
1618.0
20
-115.0
30
0.0
10
1613.0
20
-179.0
30
0.0
10
1605.0
20
-205.0
30
0.0
6
Solid
370
35
62
0
0
LWPOLYLINE
5
49f
100
AcDbEntity
100
AcDbPolyline
90
14
70
1
10
1516.0
20
-160.0
30
0.0
10
1529.0
20
-165.0
30
0.0
10
1534.0
20
-161.0
30
0.0
10
1535.0
20
-162.0
30
0.0
10
1536.0
20
-176.0
30
0.0
10
1539.0
20
-195.0
30
0.0
10
1539.0
20
-218.0
30
0.0
10
1538.0
20
-231.0
30
0.0
10
1523.0
20
-248.0
30
0.0
10
1515.0
20
-222.0
30
0.0
10
1509.0
20
-199.0
30
0.0
10
1509.0
20
-179.0
30
0.0
10
1509.0
20
-171.0
30
0.0
10
1516.0
20
-160.0
30
0.0
6
Solid
370
35
62
0
0
LWPOLYLINE
5
4a1
100
AcDbEntity
100
AcDbPolyline
90
10
70
1
10
1727.0
20
-2162.0
30
0.0
10
1710.0
20
-2151.0
30
0.0
10
1704.0
20
-2153.0
30
0.0
10
1705.0
20
-2140.0
30
0.0
10
1709.0
20
-2129.0
30
0.0
10
1718.0
20
-2111.0
30
0.0
10
1724.0
20
-2107.0
30
0.0
10
1730.0
20
-2113.0
30
0.0
10
1732.0
20
-2155.0
30
0.0
10
1727.0
20
-2162.0
30
0.0
6
Solid
370
35
62
0
0
LWPOLYLINE
5
4a3
100
AcDbEntity
100
AcDbPolyline
90
10
70
1
10
1686.0
20
-2163.0
30
0.0
10
1678.0
20
-2163.0
30
0.0
10
1668.0
20
-2155.0
30
0.0
10
1657.0
20
-2132.0
30
0.0
10
1652.0
20
-2089.0
30
0.0
10
1662.0
20
-2086.0
30
0.0
10
1681.0
20
-2111.0
30
0.0
10
1691.0
20
-2142.0
30
0.0
10
1697.0
20
-2150.0
30
0.0
10
1686.0
20
-2163.0
30
0.0
6
Solid
370
35
62
0
0
LWPOLYLINE
5
4a5
100
AcDbEntity
100
AcDbPolyline
90
12
70
1
10
1751.0
20
-2246.0
30
0.0
10
1759.0
20
-2255.0
30
0.0
10
1767.0
20
-2274.0
30
0.0
10
1774.0
20
-2284.0
30
0.0
10
1770.0
20
-2302.0
30
0.0
10
1766.0
20
-2314.0
30
0.0
10
1764.0
20
-2314.0
30
0.0
10
1746.0
20
-2310.0
30
0.0
10
1742.0
20
-2283.0
30
0.0
10
1742.0
20
-2269.0
30
0.0
10
1742.0
20
-2255.0
30
0.0
10
1751.0
20
-2246.0
30
0.0
6
Solid
370
35
62
0
0
LWPOLYLINE
5
4a7
100
AcDbEntity
100
AcDbPolyline
90
11
70
1
10
1586.0
20
-2341.0
30
0.0
10
1570.0
20
-2327.0
30
0.0
10
1549.0
20
-2315.0
30
0.0
10
1546.0
20
-2288.0
30
0.0
10
1547.0
20
-2268.0
30
0.0
10
1550.0
20
-2262.0
30
0.0
10
1557.0
20
-2265.0
30
0.0
10
1566.0
20
-2283.0
30
0.0
10
1588.0
20
-2322.0
30
0.0
10
1590.0
20
-2336.0
30
0.0
10
1586.0
20
-2341.0
30
0.0
6
Solid
370
35
62
0
0
LWPOLYLINE
5
4a9
100
AcDbEntity
100
AcDbPolyline
90
16
70
1
10
1480.0
20
-2300.0
30
0.0
10
1479.0
20
-2300.0
30
0.0
10
1473.0
20
-2289.0
30
0.0
10
1461.0
20
-2288.0
30
0.0
10
1445.0
20
-2286.0
30
0.0
10
1443.0
20
-2272.0
30
0.0
10
1439.0
20
-2248.0
30
0.0
10
1429.0
20
-2226.0
30
0.0
10
1426.0
20
-2206.0
30
0.0
10
1432.0
20
-2191.0
30
0.0
10
1441.0
20
-2188.0
30
0.0
10
1444.0
20
-2199.0
30
0.0
10
1455.0
20
-2215.0
30
0.0
10
1483.0
20
-2259.0
30
0.0
10
1483.0
20
-2292.0
30
0.0
10
1480.0
20
-2300.0
30
0.0
6
Solid
370
35
62
0
0
LWPOLYLINE
5
4ab
100
AcDbEntity
100
AcDbPolyline
90
11
70
1
10
1316.0
20
-2293.0
30
0.0
10
1315.0
20
-2293.0
30
0.0
10
1292.0
20
-2301.0
30
0.0
10
1294.0
20
-2291.0
30
0.0
10
1295.0
20
-2256.0
30
0.0
10
1297.0
20
-2256.0
30
0.0
10
1304.0
20
-2262.0
30
0.0
10
1314.0
20
-2274.0
30
0.0
10
1320.0
20
-2278.0
30
0.0
10
1325.0
20
-2287.0
30
0.0
10
1316.0
20
-2293.0
30
0.0
6
Solid
370
35
62
0
0
LWPOLYLINE
5
4ad
100
AcDbEntity
100
AcDbPolyline
90
11
70
1
10
990.0
20
-2382.0
30
0.0
10
986.0
20
-2375.0
30
0.0
10
954.0
20
-2374.0
30
0.0
10
957.0
20
-2359.0
30
0.0
10
959.0
20
-2331.0
30
0.0
10
962.0
20
-2305.0
30
0.0
10
972.0
20
-2311.0
30
0.0
10
981.0
20
-2332.0
30
0.0
10
991.0
20
-2374.0
30
0.0
10
992.0
20
-2381.0
30
0.0
10
990.0
20
-2382.0
30
0.0
6
Solid
370
35
62
0
0
LWPOLYLINE
5
4af
100
AcDbEntity
100
AcDbPolyline
90
9
70
1
10
1381.0
20
-199.0
30
0.0
10
1387.0
20
-200.0
30
0.0
10
1406.0
20
-207.0
30
0.0
10
1405.0
20
-218.0
30
0.0
10
1400.0
20
-247.0
30
0.0
10
1396.0
20
-266.0
30
0.0
10
1386.0
20
-236.0
30
0.0
10
1385.0
20
-211.0
30
0.0
10
1381.0
20
-199.0
30
0.0
6
Solid
370
35
62
0
0
LWPOLYLINE
5
4b1
100
AcDbEntity
100
AcDbPolyline
90
10
70
1
10
1243.0
20
-200.0
30
0.0
10
1258.0
20
-196.0
30
0.0
10
1276.0
20
-179.0
30
0.0
10
1271.0
20
-196.0
30
0.0
10
1267.0
20
-221.0
30
0.0
10
1235.0
20
-260.0
30
0.0
10
1221.0
20
-257.0
30
0.0
10
1227.0
20
-242.0
30
0.0
10
1239.0
20
-216.0
30
0.0
10
1243.0
20
-200.0
30
0.0
6
Solid
370
35
62
0
0
LWPOLYLINE
5
4b3
100
AcDbEntity
100
AcDbPolyline
90
10
70
1
10
905.0
20
-187.0
30
0.0
10
920.0
20
-189.0
30
0.0
10
938.0
20
-200.0
30
0.0
10
924.0
20
-243.0
30
0.0
10
920.0
20
-259.0
30
0.0
10
911.0
20
-270.0
30
0.0
10
909.0
20
-261.0
30
0.0
10
907.0
20
-247.0
30
0.0
10
905.0
20
-202.0
30
0.0
10
905.0
20
-187.0
30
0.0
6
Solid
370
35
62
0
0
LWPOLYLINE
5
4b5
100
AcDbEntity
100
AcDbPolyline
90
16
70
1
10
491.0
20
-122.0
30
0.0
10
508.0
20
-145.0
30
0.0
10
527.0
20
-143.0
30
0.0
10
531.0
20
-143.0
30
0.0
10
527.0
20
-184.0
30
0.0
10
527.0
20
-203.0
30
0.0
10
529.0
20
-215.0
30
0.0
10
526.0
20
-225.0
30
0.0
10
512.0
20
-234.0
30
0.0
10
514.0
20
-244.0
30
0.0
10
506.0
20
-230.0
30
0.0
10
500.0
20
-204.0
30
0.0
10
497.0
20
-184.0
30
0.0
10
492.0
20
-161.0
30
0.0
10
485.0
20
-122.0
30
0.0
10
491.0
20
-122.0
30
0.0
6
Solid
370
35
62
0
0
LWPOLYLINE
5
4b7
100
AcDbEntity
100
AcDbPolyline
90
12
70
1
10
889.0
20
-2367.0
30
0.0
10
881.0
20
-2372.0
30
0.0
10
878.0
20
-2373.0
30
0.0
10
862.0
20
-2375.0
30
0.0
10
861.0
20
-2367.0
30
0.0
10
861.0
20
-2366.0
30
0.0
10
863.0
20
-2361.0
30
0.0
10
864.0
20
-2358.0
30
0.0
10
867.0
20
-2338.0
30
0.0
10
879.0
20
-2331.0
30
0.0
10
884.0
20
-2349.0
30
0.0
10
889.0
20
-2367.0
30
0.0
6
Solid
370
35
62
0
0
LWPOLYLINE
5
4b9
100
AcDbEntity
100
AcDbPolyline
90
9
70
1
10
725.0
20
-2393.0
30
0.0
10
723.0
20
-2373.0
30
0.0
10
697.0
20
-2355.0
30
0.0
10
704.0
20
-2339.0
30
0.0
10
719.0
20
-2310.0
30
0.0
10
728.0
20
-2335.0
30
0.0
10
730.0
20
-2363.0
30
0.0
10
726.0
20
-2385.0
30
0.0
10
725.0
20
-2393.0
30
0.0
6
Solid
370
35
62
0
0
LWPOLYLINE
5
4bb
100
AcDbEntity
100
AcDbPolyline
90
9
70
1
10
684.0
20
-2349.0
30
0.0
10
667.0
20
-2351.0
30
0.0
10
660.0
20
-2347.0
30
0.0
10
662.0
20
-2346.0
30
0.0
10
666.0
20
-2334.0
30
0.0
10
679.0
20
-2311.0
30
0.0
10
691.0
20
-2322.0
30
0.0
10
687.0
20
-2342.0
30
0.0
10
684.0
20
-2349.0
30
0.0
6
Solid
370
35
62
0
0
LWPOLYLINE
5
4bd
100
AcDbEntity
100
AcDbPolyline
90
9
70
1
10
597.0
20
-2394.0
30
0.0
10
595.0
20
-2393.0
30
0.0
10
590.0
20
-2362.0
30
0.0
10
588.0
20
-2337.0
30
0.0
10
590.0
20
-2322.0
30
0.0
10
600.0
20
-2319.0
30
0.0
10
613.0
20
-2323.0
30
0.0
10
625.0
20
-2359.0
30
0.0
10
597.0
20
-2394.0
30
0.0
6
Solid
370
35
62
0
0
LWPOLYLINE
5
4bf
100
AcDbEntity
100
AcDbPolyline
90
11
70
1
10
640.0
20
-2316.0
30
0.0
10
633.0
20
-2320.0
30
0.0
10
615.0
20
-2322.0
30
0.0
10
602.0
20
-2318.0
30
0.0
10
593.0
20
-2310.0
30
0.0
10
607.0
20
-2283.0
30
0.0
10
622.0
20
-2272.0
30
0.0
10
635.0
20
-2271.0
30
0.0
10
643.0
20
-2282.0
30
0.0
10
644.0
20
-2299.0
30
0.0
10
640.0
20
-2316.0
30
0.0
6
Solid
370
35
62
0
0
LWPOLYLINE
5
4c1
100
AcDbEntity
100
AcDbPolyline
90
8
70
1
10
418.0
20
-2492.0
30
0.0
10
415.0
20
-2474.0
30
0.0
10
420.0
20
-2470.0
30
0.0
10
426.0
20
-2461.0
30
0.0
10
436.0
20
-2463.0
30
0.0
10
440.0
20
-2471.0
30
0.0
10
444.0
20
-2476.0
30
0.0
10
418.0
20
-2492.0
30
0.0
6
Solid
370
35
62
0
0
LWPOLYLINE
5
4c3
100
AcDbEntity
100
AcDbPolyline
90
13
70
1
10
293.0
20
-2652.0
30
0.0
10
270.0
20
-2638.0
30
0.0
10
255.0
20
-2632.0
30
0.0
10
231.0
20
-2635.0
30
0.0
10
234.0
20
-2624.0
30
0.0
10
242.0
20
-2594.0
30
0.0
10
250.0
20
-2565.0
30
0.0
10
260.0
20
-2536.0
30
0.0
10
269.0
20
-2537.0
30
0.0
10
279.0
20
-2559.0
30
0.0
10
291.0
20
-2597.0
30
0.0
10
295.0
20
-2640.0
30
0.0
10
293.0
20
-2652.0
30
0.0
6
Solid
370
35
62
0
0
LWPOLYLINE
5
4c5
100
AcDbEntity
100
AcDbPolyline
90
9
70
1
10
218.0
20
-2637.0
30
0.0
10
197.0
20
-2640.0
30
0.0
10
195.0
20
-2637.0
30
0.0
10
192.0
20
-2623.0
30
0.0
10
198.0
20
-2613.0
30
0.0
10
206.0
20
-2614.0
30
0.0
10
211.0
20
-2620.0
30
0.0
10
220.0
20
-2632.0
30
0.0
10
218.0
20
-2637.0
30
0.0
6
Solid
370
35
62
0
0
LWPOLYLINE
5
4c7
100
AcDbEntity
100
AcDbPolyline
90
13
70
1
10
244.0
20
-1434.0
30
0.0
10
247.0
20
-1427.0
30
0.0
10
255.0
20
-1403.0
30
0.0
10
261.0
20
-1403.0
30
0.0
10
270.0
20
-1404.0
30
0.0
10
273.0
20
-1408.0
30
0.0
10
273.0
20
-1411.0
30
0.0
10
267.0
20
-1424.0
30
0.0
10
263.0
20
-1434.0
30
0.0
10
257.0
20
-1437.0
30
0.0
10
252.0
20
-1435.0
30
0.0
10
248.0
20
-1431.0
30
0.0
10
244.0
20
-1434.0
30
0.0
6
Solid
370
35
62
0
0
LWPOLYLINE
5
4c9
100
AcDbEntity
100
AcDbPolyline
90
14
70
1
10
253.0
20
-1367.0
30
0.0
10
255.0
20
-1332.0
30
0.0
10
247.0
20
-1317.0
30
0.0
10
243.0
20
-1301.0
30
0.0
10
244.0
20
-1260.0
30
0.0
10
247.0
20
-1260.0
30
0.0
10
259.0
20
-1277.0
30
0.0
10
265.0
20
-1291.0
30
0.0
10
269.0
20
-1315.0
30
0.0
10
271.0
20
-1329.0
30
0.0
10
267.0
20
-1351.0
30
0.0
10
264.0
20
-1358.0
30
0.0
10
254.0
20
-1366.0
30
0.0
10
253.0
20
-1367.0
30
0.0
6
Solid
370
35
62
0
0
LWPOLYLINE
5
4cb
100
AcDbEntity
100
AcDbPolyline
90
8
70
1
10
274.0
20
-1298.0
30
0.0
10
275.0
20
-1299.0
30
0.0
10
275.0
20
-1300.0
30
0.0
10
274.0
20
-1303.0
30
0.0
10
273.0
20
-1304.0
30
0.0
10
272.0
20
-1303.0
30
0.0
10
272.0
20
-1299.0
30
0.0
10
274.0
20
-1298.0
30
0.0
6
Solid
370
35
62
0
0
LWPOLYLINE
5
4cd
100
AcDbEntity
100
AcDbPolyline
90
16
70
1
10
406.0
20
-521.0
30
0.0
10
404.0
20
-514.0
30
0.0
10
399.0
20
-506.0
30
0.0
10
400.0
20
-500.0
30
0.0
10
400.0
20
-491.0
30
0.0
10
406.0
20
-483.0
30
0.0
10
416.0
20
-482.0
30
0.0
10
425.0
20
-490.0
30
0.0
10
428.0
20
-499.0
30
0.0
10
428.0
20
-506.0
30
0.0
10
420.0
20
-507.0
30
0.0
10
419.0
20
-515.0
30
0.0
10
418.0
20
-518.0
30
0.0
10
416.0
20
-521.0
30
0.0
10
413.0
20
-523.0
30
0.0
10
406.0
20
-521.0
30
0.0
6
Solid
370
35
62
0
0
LWPOLYLINE
5
4cf
100
AcDbEntity
100
AcDbPolyline
90
9
70
1
10
436.0
20
-536.0
30
0.0
10
436.0
20
-539.0
30
0.0
10
432.0
20
-542.0
30
0.0
10
426.0
20
-537.0
30
0.0
10
426.0
20
-536.0
30
0.0
10
428.0
20
-532.0
30
0.0
10
431.0
20
-532.0
30
0.0
10
434.0
20
-533.0
30
0.0
10
436.0
20
-536.0
30
0.0
6
Solid
370
35
62
0
0
LWPOLYLINE
5
4d1
100
AcDbEntity
100
AcDbPolyline
90
11
70
1
10
371.0
20
-468.0
30
0.0
10
367.0
20
-470.0
30
0.0
10
362.0
20
-469.0
30
0.0
10
359.0
20
-465.0
30
0.0
10
357.0
20
-459.0
30
0.0
10
364.0
20
-453.0
30
0.0
10
367.0
20
-451.0
30
0.0
10
372.0
20
-450.0
30
0.0
10
376.0
20
-458.0
30
0.0
10
375.0
20
-465.0
30
0.0
10
371.0
20
-468.0
30
0.0
6
Solid
370
35
62
0
0
LWPOLYLINE
5
4d3
100
AcDbEntity
100
AcDbPolyline
90
7
70
1
10
190.0
20
-372.0
30
0.0
10
186.0
20
-327.0
30
0.0
10
192.0
20
-332.0
30
0.0
10
196.0
20
-351.0
30
0.0
10
197.0
20
-359.0
30
0.0
10
191.0
20
-372.0
30
0.0
10
190.0
20
-372.0
30
0.0
6
Solid
370
35
62
0
0
LWPOLYLINE
5
4d5
100
AcDbEntity
100
AcDbPolyline
90
7
70
1
10
150.0
20
-179.0
30
0.0
10
142.0
20
-158.0
30
0.0
10
151.0
20
-153.0
30
0.0
10
159.0
20
-154.0
30
0.0
10
160.0
20
-162.0
30
0.0
10
153.0
20
-176.0
30
0.0
10
150.0
20
-179.0
30
0.0
6
Solid
370
35
62
0
0
LWPOLYLINE
5
4d7
100
AcDbEntity
100
AcDbPolyline
90
9
70
1
10
287.0
20
-70.0
30
0.0
10
290.0
20
-62.0
30
0.0
10
288.0
20
-53.0
30
0.0
10
296.0
20
-40.0
30
0.0
10
321.0
20
-34.0
30
0.0
10
335.0
20
-49.0
30
0.0
10
309.0
20
-58.0
30
0.0
10
291.0
20
-70.0
30
0.0
10
287.0
20
-70.0
30
0.0
6
Solid
370
35
62
0
0
LWPOLYLINE
5
4da
100
AcDbEntity
8
zone_0_q2
100
AcDbPolyline
90
11
70
1
10
2074.0
20
-682.0
30
0.0
10
2070.0
20
-681.0
30
0.0
10
2067.0
20
-675.0
30
0.0
10
2069.0
20
-670.0
30
0.0
10
2079.0
20
-654.0
30
0.0
10
2090.0
20
-644.0
30
0.0
10
2094.0
20
-656.0
30
0.0
10
2089.0
20
-666.0
30
0.0
10
2083.0
20
-679.0
30
0.0
10
2073.0
20
-696.0
30
0.0
10
2074.0
20
-682.0
30
0.0
6
Solid
370
35
62
2
0
LWPOLYLINE
5
4dd
100
AcDbEntity
8
zone_1_q1
100
AcDbPolyline
90
11
70
1
10
2554.0
20
-2044.0
30
0.0
10
2521.0
20
-2033.0
30
0.0
10
2462.0
20
-1996.0
30
0.0
10
2437.0
20
-1979.0
30
0.0
10
2409.0
20
-1929.0
30
0.0
10
2383.0
20
-1855.0
30
0.0
10
2418.0
20
-1860.0
30
0.0
10
2445.0
20
-1866.0
30
0.0
10
2460.0
20
-1873.0
30
0.0
10
2467.0
20
-1881.0
30
0.0
10
2554.0
20
-2044.0
30
0.0
6
Solid
370
35
62
40
0
LWPOLYLINE
5
4e0
100
AcDbEntity
8
zone_2_q1
100
AcDbPolyline
90
14
70
1
10
1965.0
20
-1454.0
30
0.0
10
1964.0
20
-1446.0
30
0.0
10
1969.0
20
-1432.0
30
0.0
10
1975.0
20
-1426.0
30
0.0
10
1980.0
20
-1425.0
30
0.0
10
1988.0
20
-1425.0
30
0.0
10
1992.0
20
-1427.0
30
0.0
10
1989.0
20
-1432.0
30
0.0
10
1982.0
20
-1439.0
30
0.0
10
1978.0
20
-1443.0
30
0.0
10
1970.0
20
-1450.0
30
0.0
10
1968.0
20
-1451.0
30
0.0
10
1966.0
20
-1452.0
30
0.0
10
1965.0
20
-1454.0
30
0.0
6
Solid
370
35
62
40
0
LWPOLYLINE
5
4e3
100
AcDbEntity
8
zone_3_q1
100
AcDbPolyline
90
12
70
1
10
1901.0
20
-990.0
30
0.0
10
1903.0
20
-989.0
30
0.0
10
1904.0
20
-989.0
30
0.0
10
1904.0
20
-983.0
30
0.0
10
1904.0
20
-978.0
30
0.0
10
1904.0
20
-971.0
30
0.0
10
1899.0
20
-976.0
30
0.0
10
1897.0
20
-983.0
30
0.0
10
1897.0
20
-989.0
30
0.0
10
1898.0
20
-989.0
30
0.0
10
1899.0
20
-991.0
30
0.0
10
1901.0
20
-990.0
30
0.0
6
Solid
370
35
62
40
0
LWPOLYLINE
5
4e6
100
AcDbEntity
8
zone_4_q1
100
AcDbPolyline
90
54
70
1
10
1633.0
20
-322.0
30
0.0
10
1645.0
20
-247.0
30
0.0
10
1685.0
20
-194.0
30
0.0
10
1717.0
20
-165.0
30
0.0
10
1746.0
20
-146.0
30
0.0
10
1768.0
20
-138.0
30
0.0
10
1782.0
20
-139.0
30
0.0
10
1781.0
20
-169.0
30
0.0
10
1771.0
20
-193.0
30
0.0
10
1767.0
20
-206.0
30
0.0
10
1757.0
20
-209.0
30
0.0
10
1716.0
20
-252.0
30
0.0
10
1719.0
20
-302.0
30
0.0
10
1738.0
20
-302.0
30
0.0
10
1748.0
20
-302.0
30
0.0
10
1750.0
20
-300.0
30
0.0
10
1777.0
20
-278.0
30
0.0
10
1802.0
20
-295.0
30
0.0
10
1820.0
20
-291.0
30
0.0
10
1828.0
20
-294.0
30
0.0
10
1834.0
20
-325.0
30
0.0
10
1817.0
20
-343.0
30
0.0
10
1816.0
20
-347.0
30
0.0
10
1819.0
20
-358.0
30
0.0
10
1827.0
20
-358.0
30
0.0
10
1873.0
20
-344.0
30
0.0
10
1910.0
20
-371.0
30
0.0
10
1910.0
20
-408.0
30
0.0
10
1885.0
20
-456.0
30
0.0
10
1840.0
20
-488.0
30
0.0
10
1785.0
20
-507.0
30
0.0
10
1736.0
20
-506.0
30
0.0
10
1706.0
20
-483.0
30
0.0
10
1661.0
20
-461.0
30
0.0
10
1586.0
20
-400.0
30
0.0
10
1554.0
20
-367.0
30
0.0
10
1528.0
20
-341.0
30
0.0
10
1500.0
20
-316.0
30
0.0
10
1462.0
20
-297.0
30
0.0
10
1440.0
20
-281.0
30
0.0
10
1444.0
20
-255.0
30
0.0
10
1452.0
20
-222.0
30
0.0
10
1482.0
20
-208.0
30
0.0
10
1502.0
20
-228.0
30
0.0
10
1508.0
20
-251.0
30
0.0
10
1552.0
20
-231.0
30
0.0
10
1554.0
20
-248.0
30
0.0
10
1547.0
20
-275.0
30
0.0
10
1546.0
20
-315.0
30
0.0
10
1562.0
20
-346.0
30
0.0
10
1598.0
20
-325.0
30
0.0
10
1609.0
20
-303.0
30
0.0
10
1614.0
20
-304.0
30
0.0
10
1633.0
20
-322.0
30
0.0
6
Solid
370
35
62
40
0
LWPOLYLINE
5
4e9
100
AcDbEntity
8
zone_5_q1
100
AcDbPolyline
90
14
70
1
10
1884.0
20
-2099.0
30
0.0
10
1885.0
20
-2096.0
30
0.0
10
1887.0
20
-2077.0
30
0.0
10
1894.0
20
-2063.0
30
0.0
10
1908.0
20
-2059.0
30
0.0
10
1920.0
20
-2070.0
30
0.0
10
1921.0
20
-2080.0
30
0.0
10
1921.0
20
-2089.0
30
0.0
10
1920.0
20
-2097.0
30
0.0
10
1910.0
20
-2111.0
30
0.0
10
1903.0
20
-2119.0
30
0.0
10
1895.0
20
-2120.0
30
0.0
10
1889.0
20
-2119.0
30
0.0
10
1884.0
20
-2099.0
30
0.0
6
Solid
370
35
62
40
0
LWPOLYLINE
5
4ec
100
AcDbEntity
8
zone_6_q1
100
AcDbPolyline
90
19
70
1
10
1818.0
20
-2184.0
30
0.0
10
1786.0
20
-2185.0
30
0.0
10
1750.0
20
-2179.0
30
0.0
10
1738.0
20
-2170.0
30
0.0
10
1736.0
20
-2131.0
30
0.0
10
1724.0
20
-2102.0
30
0.0
10
1726.0
20
-2070.0
30
0.0
10
1740.0
20
-2032.0
30
0.0
10
1755.0
20
-1994.0
30
0.0
10
1779.0
20
-1994.0
30
0.0
10
1816.0
20
-2033.0
30
0.0
10
1840.0
20
-2057.0
30
0.0
10
1860.0
20
-2079.0
30
0.0
10
1867.0
20
-2094.0
30
0.0
10
1864.0
20
-2103.0
30
0.0
10
1848.0
20
-2125.0
30
0.0
10
1829.0
20
-2161.0
30
0.0
10
1819.0
20
-2182.0
30
0.0
10
1818.0
20
-2184.0
30
0.0
6
Solid
370
35
62
40
0
LWPOLYLINE
5
4ef
100
AcDbEntity
8
zone_7_q2
100
AcDbPolyline
90
17
70
1
10
2317.0
20
-1980.0
30
0.0
10
2301.0
20
-2011.0
30
0.0
10
2258.0
20
-2052.0
30
0.0
10
2218.0
20
-2065.0
30
0.0
10
2177.0
20
-2030.0
30
0.0
10
2137.0
20
-2004.0
30
0.0
10
2060.0
20
-2058.0
30
0.0
10
2062.0
20
-2017.0
30
0.0
10
2090.0
20
-1987.0
30
0.0
10
2123.0
20
-1984.0
30
0.0
10
2158.0
20
-2003.0
30
0.0
10
2184.0
20
-2033.0
30
0.0
10
2218.0
20
-2046.0
30
0.0
10
2254.0
20
-2043.0
30
0.0
10
2310.0
20
-1969.0
30
0.0
10
2318.0
20
-1979.0
30
0.0
10
2317.0
20
-1980.0
30
0.0
6
Solid
370
35
62
2
0
LWPOLYLINE
5
4f2
100
AcDbEntity
8
zone_8_q3
100
AcDbPolyline
90
29
70
1
10
2386.0
20
-1568.0
30
0.0
10
2369.0
20
-1606.0
30
0.0
10
2340.0
20
-1671.0
30
0.0
10
2304.0
20
-1729.0
30
0.0
10
2264.0
20
-1767.0
30
0.0
10
2220.0
20
-1782.0
30
0.0
10
2171.0
20
-1745.0
30
0.0
10
2141.0
20
-1686.0
30
0.0
10
2127.0
20
-1583.0
30
0.0
10
2106.0
20
-1498.0
30
0.0
10
2084.0
20
-1433.0
30
0.0
10
2050.0
20
-1336.0
30
0.0
10
2031.0
20
-1281.0
30
0.0
10
2023.0
20
-1211.0
30
0.0
10
2011.0
20
-1087.0
30
0.0
10
2091.0
20
-792.0
30
0.0
10
2203.0
20
-740.0
30
0.0
10
2324.0
20
-787.0
30
0.0
10
2381.0
20
-845.0
30
0.0
10
2433.0
20
-899.0
30
0.0
10
2472.0
20
-980.0
30
0.0
10
2522.0
20
-1093.0
30
0.0
10
2526.0
20
-1140.0
30
0.0
10
2520.0
20
-1180.0
30
0.0
10
2496.0
20
-1249.0
30
0.0
10
2427.0
20
-1418.0
30
0.0
10
2416.0
20
-1447.0
30
0.0
10
2411.0
20
-1482.0
30
0.0
10
2386.0
20
-1568.0
30
0.0
6
Solid
370
35
62
3
0
LWPOLYLINE
5
4f5
100
AcDbEntity
8
zone_9_q1
100
AcDbPolyline
90
7
70
1
10
1219.0
20
-1812.0
30
0.0
10
1220.0
20
-1813.0
30
0.0
10
1222.0
20
-1813.0
30
0.0
10
1223.0
20
-1815.0
30
0.0
10
1218.0
20
-1815.0
30
0.0
10
1217.0
20
-1815.0
30
0.0
10
1219.0
20
-1812.0
30
0.0
6
Solid
370
35
62
40
0
LWPOLYLINE
5
4f8
100
AcDbEntity
8
zone_10_q1
100
AcDbPolyline
90
8
70
1
10
1174.0
20
-1754.0
30
0.0
10
1173.0
20
-1754.0
30
0.0
10
1173.0
20
-1751.0
30
0.0
10
1173.0
20
-1750.0
30
0.0
10
1174.0
20
-1750.0
30
0.0
10
1174.0
20
-1752.0
30
0.0
10
1175.0
20
-1754.0
30
0.0
10
1174.0
20
-1754.0
30
0.0
6
Solid
370
35
62
40
0
LWPOLYLINE
5
4fb
100
AcDbEntity
8
zone_11_q1
100
AcDbPolyline
90
6
70
1
10
1112.0
20
-1703.0
30
0.0
10
1109.0
20
-1700.0
30
0.0
10
1109.0
20
-1699.0
30
0.0
10
1114.0
20
-1704.0
30
0.0
10
1114.0
20
-1705.0
30
0.0
10
1112.0
20
-1703.0
30
0.0
6
Solid
370
35
62
40
0
LWPOLYLINE
5
4fe
100
AcDbEntity
8
zone_12_q1
100
AcDbPolyline
90
6
70
1
10
1075.0
20
-1673.0
30
0.0
10
1073.0
20
-1672.0
30
0.0
10
1073.0
20
-1669.0
30
0.0
10
1075.0
20
-1671.0
30
0.0
10
1076.0
20
-1672.0
30
0.0
10
1075.0
20
-1673.0
30
0.0
6
Solid
370
35
62
40
0
LWPOLYLINE
5
501
100
AcDbEntity
8
zone_13_q1
100
AcDbPolyline
90
6
70
1
10
1047.0
20
-1664.0
30
0.0
10
1046.0
20
-1664.0
30
0.0
10
1045.0
20
-1662.0
30
0.0
10
1044.0
20
-1661.0
30
0.0
10
1048.0
20
-1661.0
30
0.0
10
1047.0
20
-1664.0
30
0.0
6
Solid
370
35
62
40
0
LWPOLYLINE
5
504
100
AcDbEntity
8
zone_14_q1
100
AcDbPolyline
90
7
70
1
10
1105.0
20
-2036.0
30
0.0
10
1102.0
20
-2034.0
30
0.0
10
1101.0
20
-2032.0
30
0.0
10
1102.0
20
-2028.0
30
0.0
10
1105.0
20
-2033.0
30
0.0
10
1105.0
20
-2035.0
30
0.0
10
1105.0
20
-2036.0
30
0.0
6
Solid
370
35
62
40
0
LWPOLYLINE
5
507
100
AcDbEntity
8
zone_15_q1
100
AcDbPolyline
90
10
70
1
10
1433.0
20
-1163.0
30
0.0
10
1433.0
20
-1161.0
30
0.0
10
1435.0
20
-1157.0
30
0.0
10
1436.0
20
-1156.0
30
0.0
10
1439.0
20
-1157.0
30
0.0
10
1443.0
20
-1165.0
30
0.0
10
1441.0
20
-1168.0
30
0.0
10
1440.0
20
-1169.0
30
0.0
10
1437.0
20
-1170.0
30
0.0
10
1433.0
20
-1163.0
30
0.0
6
Solid
370
35
62
40
0
LWPOLYLINE
5
50a
100
AcDbEntity
8
zone_16_q2
100
AcDbPolyline
90
5
70
1
10
1285.0
20
-202.0
30
0.0
10
1281.0
20
-224.0
30
0.0
10
1277.0
20
-224.0
30
0.0
10
1281.0
20
-202.0
30
0.0
10
1285.0
20
-202.0
30
0.0
6
Solid
370
35
62
2
0
LWPOLYLINE
5
50d
100
AcDbEntity
8
zone_17_q2
100
AcDbPolyline
90
5
70
1
10
1277.0
20
-227.0
30
0.0
10
1277.0
20
-224.0
30
0.0
10
1281.0
20
-224.0
30
0.0
10
1281.0
20
-227.0
30
0.0
10
1277.0
20
-227.0
30
0.0
6
Solid
370
35
62
2
0
LWPOLYLINE
5
510
100
AcDbEntity
8
zone_18_q2
100
AcDbPolyline
90
35
70
1
10
1277.0
20
-228.0
30
0.0
10
1273.0
20
-236.0
30
0.0
10
1239.0
20
-273.0
30
0.0
10
1229.0
20
-275.0
30
0.0
10
1221.0
20
-271.0
30
0.0
10
1220.0
20
-251.0
30
0.0
10
1219.0
20
-238.0
30
0.0
10
1213.0
20
-233.0
30
0.0
10
1196.0
20
-238.0
30
0.0
10
1171.0
20
-249.0
30
0.0
10
1142.0
20
-265.0
30
0.0
10
1109.0
20
-273.0
30
0.0
10
1085.0
20
-270.0
30
0.0
10
1059.0
20
-266.0
30
0.0
10
1034.0
20
-256.0
30
0.0
10
1018.0
20
-251.0
30
0.0
10
1008.0
20
-244.0
30
0.0
10
998.0
20
-243.0
30
0.0
10
972.0
20
-245.0
30
0.0
10
957.0
20
-250.0
30
0.0
10
946.0
20
-255.0
30
0.0
10
930.0
20
-270.0
30
0.0
10
946.0
20
-242.0
30
0.0
10
954.0
20
-220.0
30
0.0
10
1000.0
20
-226.0
30
0.0
10
1028.0
20
-238.0
30
0.0
10
1066.0
20
-249.0
30
0.0
10
1128.0
20
-240.0
30
0.0
10
1164.0
20
-231.0
30
0.0
10
1213.0
20
-218.0
30
0.0
10
1230.0
20
-220.0
30
0.0
10
1224.0
20
-232.0
30
0.0
10
1222.0
20
-261.0
30
0.0
10
1238.0
20
-262.0
30
0.0
10
1277.0
20
-228.0
30
0.0
6
Solid
370
35
62
2
0
LWPOLYLINE
5
513
100
AcDbEntity
8
zone_19_q2
100
AcDbPolyline
90
57
70
1
10
1661.0
20
-2328.0
30
0.0
10
1640.0
20
-2329.0
30
0.0
10
1598.0
20
-2326.0
30
0.0
10
1592.0
20
-2315.0
30
0.0
10
1591.0
20
-2299.0
30
0.0
10
1585.0
20
-2278.0
30
0.0
10
1547.0
20
-2250.0
30
0.0
10
1542.0
20
-2275.0
30
0.0
10
1539.0
20
-2295.0
30
0.0
10
1532.0
20
-2303.0
30
0.0
10
1522.0
20
-2298.0
30
0.0
10
1513.0
20
-2291.0
30
0.0
10
1501.0
20
-2293.0
30
0.0
10
1496.0
20
-2290.0
30
0.0
10
1495.0
20
-2271.0
30
0.0
10
1485.0
20
-2235.0
30
0.0
10
1476.0
20
-2208.0
30
0.0
10
1452.0
20
-2185.0
30
0.0
10
1434.0
20
-2181.0
30
0.0
10
1429.0
20
-2235.0
30
0.0
10
1433.0
20
-2267.0
30
0.0
10
1426.0
20
-2269.0
30
0.0
10
1402.0
20
-2265.0
30
0.0
10
1373.0
20
-2270.0
30
0.0
10
1335.0
20
-2282.0
30
0.0
10
1313.0
20
-2272.0
30
0.0
10
1307.0
20
-2249.0
30
0.0
10
1295.0
20
-2264.0
30
0.0
10
1263.0
20
-2288.0
30
0.0
10
1246.0
20
-2303.0
30
0.0
10
1235.0
20
-2327.0
30
0.0
10
1217.0
20
-2355.0
30
0.0
10
1191.0
20
-2358.0
30
0.0
10
1116.0
20
-2345.0
30
0.0
10
1092.0
20
-2345.0
30
0.0
10
1039.0
20
-2357.0
30
0.0
10
1002.0
20
-2341.0
30
0.0
10
985.0
20
-2319.0
30
0.0
10
984.0
20
-2305.0
30
0.0
10
1022.0
20
-2307.0
30
0.0
10
1053.0
20
-2308.0
30
0.0
10
1088.0
20
-2308.0
30
0.0
10
1123.0
20
-2300.0
30
0.0
10
1168.0
20
-2282.0
30
0.0
10
1221.0
20
-2267.0
30
0.0
10
1273.0
20
-2253.0
30
0.0
10
1331.0
20
-2236.0
30
0.0
10
1370.0
20
-2219.0
30
0.0
10
1427.0
20
-2182.0
30
0.0
10
1448.0
20
-2170.0
30
0.0
10
1485.0
20
-2184.0
30
0.0
10
1526.0
20
-2214.0
30
0.0
10
1561.0
20
-2249.0
30
0.0
10
1629.0
20
-2263.0
30
0.0
10
1649.0
20
-2283.0
30
0.0
10
1660.0
20
-2304.0
30
0.0
10
1661.0
20
-2328.0
30
0.0
6
Solid
370
35
62
2
0
LWPOLYLINE
5
516
100
AcDbEntity
8
zone_20_q2
100
AcDbPolyline
90
20
70
1
10
721.0
20
-2286.0
30
0.0
10
713.0
20
-2276.0
30
0.0
10
643.0
20
-2245.0
30
0.0
10
591.0
20
-2272.0
30
0.0
10
527.0
20
-2345.0
30
0.0
10
501.0
20
-2384.0
30
0.0
10
459.0
20
-2428.0
30
0.0
10
431.0
20
-2451.0
30
0.0
10
416.0
20
-2441.0
30
0.0
10
411.0
20
-2413.0
30
0.0
10
426.0
20
-2375.0
30
0.0
10
471.0
20
-2339.0
30
0.0
10
519.0
20
-2301.0
30
0.0
10
570.0
20
-2256.0
30
0.0
10
622.0
20
-2212.0
30
0.0
10
698.0
20
-2193.0
30
0.0
10
702.0
20
-2206.0
30
0.0
10
705.0
20
-2240.0
30
0.0
10
739.0
20
-2310.0
30
0.0
10
721.0
20
-2286.0
30
0.0
6
Solid
370
35
62
2
0
LWPOLYLINE
5
519
100
AcDbEntity
8
zone_21_q1
100
AcDbPolyline
90
12
70
1
10
179.0
20
-2606.0
30
0.0
10
171.0
20
-2591.0
30
0.0
10
162.0
20
-2584.0
30
0.0
10
152.0
20
-2522.0
30
0.0
10
175.0
20
-2493.0
30
0.0
10
193.0
20
-2488.0
30
0.0
10
208.0
20
-2493.0
30
0.0
10
217.0
20
-2513.0
30
0.0
10
213.0
20
-2542.0
30
0.0
10
201.0
20
-2567.0
30
0.0
10
179.0
20
-2604.0
30
0.0
10
179.0
20
-2606.0
30
0.0
6
Solid
370
35
62
40
0
LWPOLYLINE
5
51c
100
AcDbEntity
8
zone_22_q1
100
AcDbPolyline
90
12
70
1
10
198.0
20
-2341.0
30
0.0
10
194.0
20
-2337.0
30
0.0
10
233.0
20
-2307.0
30
0.0
10
261.0
20
-2309.0
30
0.0
10
279.0
20
-2322.0
30
0.0
10
275.0
20
-2330.0
30
0.0
10
261.0
20
-2329.0
30
0.0
10
246.0
20
-2328.0
30
0.0
10
212.0
20
-2337.0
30
0.0
10
204.0
20
-2343.0
30
0.0
10
200.0
20
-2344.0
30
0.0
10
198.0
20
-2341.0
30
0.0
6
Solid
370
35
62
40
0
LWPOLYLINE
5
51f
100
AcDbEntity
8
zone_23_q1
100
AcDbPolyline
90
5
70
1
10
181.0
20
-2349.0
30
0.0
10
183.0
20
-2350.0
30
0.0
10
182.0
20
-2354.0
30
0.0
10
180.0
20
-2353.0
30
0.0
10
181.0
20
-2349.0
30
0.0
6
Solid
370
35
62
40
0
LWPOLYLINE
5
522
100
AcDbEntity
8
zone_24_q1
100
AcDbPolyline
90
7
70
1
10
240.0
20
-2369.0
30
0.0
10
237.0
20
-2376.0
30
0.0
10
233.0
20
-2373.0
30
0.0
10
232.0
20
-2366.0
30
0.0
10
242.0
20
-2360.0
30
0.0
10
244.0
20
-2368.0
30
0.0
10
240.0
20
-2369.0
30
0.0
6
Solid
370
35
62
40
0
LWPOLYLINE
5
525
100
AcDbEntity
8
zone_25_q1
100
AcDbPolyline
90
9
70
1
10
313.0
20
-2178.0
30
0.0
10
306.0
20
-2179.0
30
0.0
10
288.0
20
-2184.0
30
0.0
10
272.0
20
-2188.0
30
0.0
10
256.0
20
-2191.0
30
0.0
10
259.0
20
-2185.0
30
0.0
10
281.0
20
-2179.0
30
0.0
10
295.0
20
-2176.0
30
0.0
10
313.0
20
-2178.0
30
0.0
6
Solid
370
35
62
40
0
LWPOLYLINE
5
528
100
AcDbEntity
8
zone_26_q2
100
AcDbPolyline
90
11
70
1
10
488.0
20
-2012.0
30
0.0
10
489.0
20
-2018.0
30
0.0
10
487.0
20
-2024.0
30
0.0
10
485.0
20
-2029.0
30
0.0
10
478.0
20
-2032.0
30
0.0
10
477.0
20
-2023.0
30
0.0
10
480.0
20
-2016.0
30
0.0
10
482.0
20
-2011.0
30
0.0
10
485.0
20
-2009.0
30
0.0
10
485.0
20
-2008.0
30
0.0
10
488.0
20
-2012.0
30
0.0
6
Solid
370
35
62
2
0
LWPOLYLINE
5
52b
100
AcDbEntity
8
zone_27_q1
100
AcDbPolyline
90
20
70
1
10
542.0
20
-143.0
30
0.0
10
594.0
20
-142.0
30
0.0
10
616.0
20
-150.0
30
0.0
10
667.0
20
-158.0
30
0.0
10
669.0
20
-156.0
30
0.0
10
670.0
20
-180.0
30
0.0
10
680.0
20
-236.0
30
0.0
10
674.0
20
-275.0
30
0.0
10
658.0
20
-310.0
30
0.0
10
631.0
20
-325.0
30
0.0
10
596.0
20
-318.0
30
0.0
10
566.0
20
-300.0
30
0.0
10
544.0
20
-277.0
30
0.0
10
534.0
20
-249.0
30
0.0
10
534.0
20
-236.0
30
0.0
10
534.0
20
-223.0
30
0.0
10
536.0
20
-209.0
30
0.0
10
539.0
20
-190.0
30
0.0
10
541.0
20
-154.0
30
0.0
10
542.0
20
-143.0
30
0.0
6
Solid
370
35
62
40
0
LWPOLYLINE
5
52e
100
AcDbEntity
8
zone_28_q1
100
AcDbPolyline
90
20
70
1
10
396.0
20
-104.0
30
0.0
10
422.0
20
-109.0
30
0.0
10
460.0
20
-103.0
30
0.0
10
485.0
20
-115.0
30
0.0
10
508.0
20
-145.0
30
0.0
10
513.0
20
-144.0
30
0.0
10
514.0
20
-155.0
30
0.0
10
512.0
20
-206.0
30
0.0
10
512.0
20
-220.0
30
0.0
10
513.0
20
-231.0
30
0.0
10
511.0
20
-247.0
30
0.0
10
504.0
20
-266.0
30
0.0
10
495.0
20
-266.0
30
0.0
10
478.0
20
-254.0
30
0.0
10
464.0
20
-237.0
30
0.0
10
449.0
20
-216.0
30
0.0
10
433.0
20
-190.0
30
0.0
10
416.0
20
-161.0
30
0.0
10
400.0
20
-127.0
30
0.0
10
396.0
20
-104.0
30
0.0
6
Solid
370
35
62
40
0
LWPOLYLINE
5
531
100
AcDbEntity
8
zone_29_q2
100
AcDbPolyline
90
6
70
1
10
525.0
20
-286.0
30
0.0
10
529.0
20
-281.0
30
0.0
10
521.0
20
-257.0
30
0.0
10
518.0
20
-255.0
30
0.0
10
524.0
20
-272.0
30
0.0
10
525.0
20
-286.0
30
0.0
6
Solid
370
35
62
2
0
LWPOLYLINE
5
534
100
AcDbEntity
8
zone_30_q2
100
AcDbPolyline
90
32
70
1
10
560.0
20
-293.0
30
0.0
10
555.0
20
-287.0
30
0.0
10
352.0
20
-113.0
30
0.0
10
329.0
20
-114.0
30
0.0
10
332.0
20
-150.0
30
0.0
10
344.0
20
-187.0
30
0.0
10
378.0
20
-218.0
30
0.0
10
402.0
20
-234.0
30
0.0
10
410.0
20
-241.0
30
0.0
10
444.0
20
-273.0
30
0.0
10
464.0
20
-297.0
30
0.0
10
512.0
20
-343.0
30
0.0
10
558.0
20
-382.0
30
0.0
10
584.0
20
-404.0
30
0.0
10
615.0
20
-426.0
30
0.0
10
641.0
20
-445.0
30
0.0
10
668.0
20
-470.0
30
0.0
10
689.0
20
-494.0
30
0.0
10
709.0
20
-510.0
30
0.0
10
725.0
20
-516.0
30
0.0
10
741.0
20
-511.0
30
0.0
10
742.0
20
-510.0
30
0.0
10
753.0
20
-486.0
30
0.0
10
741.0
20
-395.0
30
0.0
10
712.0
20
-371.0
30
0.0
10
672.0
20
-347.0
30
0.0
10
645.0
20
-334.0
30
0.0
10
621.0
20
-330.0
30
0.0
10
589.0
20
-327.0
30
0.0
10
572.0
20
-317.0
30
0.0
10
560.0
20
-301.0
30
0.0
10
560.0
20
-293.0
30
0.0
6
Solid
370
35
62
2
0
LWPOLYLINE
5
537
100
AcDbEntity
8
zone_31_q1
100
AcDbPolyline
90
5
70
1
10
584.0
20
-1045.0
30
0.0
10
584.0
20
-1044.0
30
0.0
10
584.0
20
-1042.0
30
0.0
10
586.0
20
-1044.0
30
0.0
10
584.0
20
-1045.0
30
0.0
6
Solid
370
35
62
40
0
LWPOLYLINE
5
53a
100
AcDbEntity
8
zone_32_q1
100
AcDbPolyline
90
5
70
1
10
662.0
20
-617.0
30
0.0
10
661.0
20
-616.0
30
0.0
10
665.0
20
-614.0
30
0.0
10
665.0
20
-616.0
30
0.0
10
662.0
20
-617.0
30
0.0
6
Solid
370
35
62
40
0
ENDSEC
0
SECTION
2
OBJECTS
0
DICTIONARY
5
47d
330
0
100
AcDbDictionary
281
1
3
ACAD_GROUP
350
47e
0
DICTIONARY
5
47e
330
47d
100
AcDbDictionary
281
1
0
ENDSEC
0
EOF
