999

0
SECTION
2
HEADER
9
$ACADVER
1
AC1021
9
$HANDSEED
5
5e9
0
ENDSEC
0
SECTION
2
CLASSES
0
ENDSEC
0
SECTION
2
TABLES
0
TABLE
2
VPORT
5
53d
100
AcDbSymbolTable
70
1
0
VPORT
5
53c
100
AcDbSymbolTableRecord
100
AcDbViewportTableRecord
2
*ACTIVE
10
0
20
0
11
1
21
1
12
500.0
22
500.0
40
1000.0
70
0
0
ENDTAB
0
TABLE
2
LTYPE
5
53e
100
AcDbSymbolTable
70
3
0
LTYPE
5
546
100
AcDbSymbolTableRecord
100
AcDbLinetypeTableRecord
2
Solid
70
0
72
65
73
0
3

0
LTYPE
5
547
100
AcDbSymbolTableRecord
100
AcDbLinetypeTableRecord
2
ByBlock
70
0
72
65
73
0
3

0
LTYPE
5
548
100
AcDbSymbolTableRecord
100
AcDbLinetypeTableRecord
2
ByLayer
70
0
72
65
73
0
3

0
ENDTAB
0
TABLE
2
LAYER
5
53f
100
AcDbSymbolTable
70
29
0
LAYER
5
549
100
AcDbSymbolTableRecord
100
AcDbLayerTableRecord
2
0
70
0
390
0
0
LAYER
5
595
100
AcDbSymbolTableRecord
100
AcDbLayerTableRecord
2
zone_0_q1
70
0
390
0
0
LAYER
5
598
100
AcDbSymbolTableRecord
100
AcDbLayerTableRecord
2
zone_1_q1
70
0
390
0
0
LAYER
5
59b
100
AcDbSymbolTableRecord
100
AcDbLayerTableRecord
2
zone_2_q1
70
0
390
0
0
LAYER
5
59e
100
AcDbSymbolTableRecord
100
AcDbLayerTableRecord
2
zone_3_q1
70
0
390
0
0
LAYER
5
5a1
100
AcDbSymbolTableRecord
100
AcDbLayerTableRecord
2
zone_4_q1
70
0
390
0
0
LAYER
5
5a4
100
AcDbSymbolTableRecord
100
AcDbLayerTableRecord
2
zone_5_q2
70
0
390
0
0
LAYER
5
5a7
100
AcDbSymbolTableRecord
100
AcDbLayerTableRecord
2
zone_6_q2
70
0
390
0
0
LAYER
5
5aa
100
AcDbSymbolTableRecord
100
AcDbLayerTableRecord
2
zone_7_q2
70
0
390
0
0
LAYER
5
5ad
100
AcDbSymbolTableRecord
100
AcDbLayerTableRecord
2
zone_8_q2
70
0
390
0
0
LAYER
5
5b0
100
AcDbSymbolTableRecord
100
AcDbLayerTableRecord
2
zone_9_q2
70
0
390
0
0
LAYER
5
5b3
100
AcDbSymbolTableRecord
100
AcDbLayerTableRecord
2
zone_10_q2
70
0
390
0
0
LAYER
5
5b6
100
AcDbSymbolTableRecord
100
AcDbLayerTableRecord
2
zone_11_q1
70
0
390
0
0
LAYER
5
5b9
100
AcDbSymbolTableRecord
100
AcDbLayerTableRecord
2
zone_12_q1
70
0
390
0
0
LAYER
5
5bc
100
AcDbSymbolTableRecord
100
AcDbLayerTableRecord
2
zone_13_q1
70
0
390
0
0
LAYER
5
5bf
100
AcDbSymbolTableRecord
100
AcDbLayerTableRecord
2
zone_14_q1
70
0
390
0
0
LAYER
5
5c2
100
AcDbSymbolTableRecord
100
AcDbLayerTableRecord
2
zone_15_q1
70
0
390
0
0
LAYER
5
5c5
100
AcDbSymbolTableRecord
100
AcDbLayerTableRecord
2
zone_16_q1
70
0
390
0
0
LAYER
5
5c8
100
AcDbSymbolTableRecord
100
AcDbLayerTableRecord
2
zone_17_q1
70
0
390
0
0
LAYER
5
5cb
100
AcDbSymbolTableRecord
100
AcDbLayerTableRecord
2
zone_18_q3
70
0
390
0
0
LAYER
5
5ce
100
AcDbSymbolTableRecord
100
AcDbLayerTableRecord
2
zone_19_q3
70
0
390
0
0
LAYER
5
5d1
100
AcDbSymbolTableRecord
100
AcDbLayerTableRecord
2
zone_20_q3
70
0
390
0
0
LAYER
5
5d4
100
AcDbSymbolTableRecord
100
AcDbLayerTableRecord
2
zone_21_q3
70
0
390
0
0
LAYER
5
5d7
100
AcDbSymbolTableRecord
100
AcDbLayerTableRecord
2
zone_22_q3
70
0
390
0
0
LAYER
5
5da
100
AcDbSymbolTableRecord
100
AcDbLayerTableRecord
2
zone_23_q3
70
0
390
0
0
LAYER
5
5dd
100
AcDbSymbolTableRecord
100
AcDbLayerTableRecord
2
zone_24_q3
70
0
390
0
0
LAYER
5
5e0
100
AcDbSymbolTableRecord
100
AcDbLayerTableRecord
2
zone_25_q3
70
0
390
0
0
LAYER
5
5e3
100
AcDbSymbolTableRecord
100
AcDbLayerTableRecord
2
zone_26_q1
70
0
390
0
0
LAYER
5
5e6
100
AcDbSymbolTableRecord
100
AcDbLayerTableRecord
2
zone_27_q1
70
0
390
0
0
ENDTAB
0
TABLE
2
STYLE
5
540
100
AcDbSymbolTable
70
0
0
ENDTAB
0
TABLE
2
VIEW
5
541
100
AcDbSymbolTable
70
0
0
ENDTAB
0
TABLE
2
UCS
5
542
100
AcDbSymbolTable
70
0
0
ENDTAB
0
TABLE
2
APPID
5
543
100
AcDbSymbolTable
70
1
0
APPID
5
54a
100
AcDbSymbolTableRecord
100
AcDbRegAppTableRecord
2
ACAD
70
0
0
ENDTAB
0
TABLE
2
DIMSTYLE
5
544
100
AcDbSymbolTable
70
0
100
AcDbDimStyleTable
71
1
0
ENDTAB
0
TABLE
2
BLOCK_RECORD
5
545
100
AcDbSymbolTable
70
2
0
BLOCK_RECORD
5
54b
100
AcDbSymbolTableRecord
100
AcDbBlockTableRecord
2
*Model_Space
70
0
280
1
281
0
0
BLOCK_RECORD
5
54c
100
AcDbSymbolTableRecord
100
AcDbBlockTableRecord
2
*Paper_Space
70
0
280
1
281
0
0
ENDTAB
0
ENDSEC
0
SECTION
2
BLOCKS
0
BLOCK
5
54d
100
AcDbEntity
100
AcDbBlockBegin
2
*Model_Space
70
0
10
0
20
0
30
0
3
*Model_Space
1

0
ENDBLK
5
54e
100
AcDbEntity
100
AcDbBlockEnd
0
BLOCK
5
54f
100
AcDbEntity
100
AcDbBlockBegin
2
*Paper_Space
70
0
10
0
20
0
30
0
3
*Paper_Space
1

0
ENDBLK
5
550
100
AcDbEntity
100
AcDbBlockEnd
0
ENDSEC
0
SECTION
2
ENTITIES
0
LWPOLYLINE
5
553
100
AcDbEntity
100
AcDbPolyline
90
288
70
1
10
2288.0
20
-883.0
30
0.0
10
2288.0
20
-901.0
30
0.0
10
2264.0
20
-944.0
30
0.0
10
2243.0
20
-1023.0
30
0.0
10
2208.0
20
-1078.0
30
0.0
10
2197.0
20
-1133.0
30
0.0
10
2200.0
20
-1169.0
30
0.0
10
2198.0
20
-1223.0
30
0.0
10
2182.0
20
-1287.0
30
0.0
10
2172.0
20
-1344.0
30
0.0
10
2173.0
20
-1371.0
30
0.0
10
2164.0
20
-1404.0
30
0.0
10
2159.0
20
-1464.0
30
0.0
10
2146.0
20
-1572.0
30
0.0
10
2152.0
20
-1614.0
30
0.0
10
2144.0
20
-1647.0
30
0.0
10
2141.0
20
-1675.0
30
0.0
10
2133.0
20
-1726.0
30
0.0
10
2136.0
20
-1759.0
30
0.0
10
2132.0
20
-1832.0
30
0.0
10
2132.0
20
-1957.0
30
0.0
10
2131.0
20
-2009.0
30
0.0
10
2113.0
20
-2064.0
30
0.0
10
2106.0
20
-2100.0
30
0.0
10
2090.0
20
-2150.0
30
0.0
10
2070.0
20
-2174.0
30
0.0
10
2052.0
20
-2191.0
30
0.0
10
2015.0
20
-2193.0
30
0.0
10
2000.0
20
-2184.0
30
0.0
10
1960.0
20
-2180.0
30
0.0
10
1936.0
20
-2194.0
30
0.0
10
1918.0
20
-2197.0
30
0.0
10
1907.0
20
-2209.0
30
0.0
10
1905.0
20
-2253.0
30
0.0
10
1922.0
20
-2284.0
30
0.0
10
1919.0
20
-2297.0
30
0.0
10
1903.0
20
-2295.0
30
0.0
10
1876.0
20
-2274.0
30
0.0
10
1857.0
20
-2269.0
30
0.0
10
1833.0
20
-2286.0
30
0.0
10
1823.0
20
-2311.0
30
0.0
10
1806.0
20
-2336.0
30
0.0
10
1776.0
20
-2364.0
30
0.0
10
1754.0
20
-2369.0
30
0.0
10
1724.0
20
-2377.0
30
0.0
10
1702.0
20
-2399.0
30
0.0
10
1690.0
20
-2427.0
30
0.0
10
1666.0
20
-2438.0
30
0.0
10
1655.0
20
-2462.0
30
0.0
10
1663.0
20
-2495.0
30
0.0
10
1697.0
20
-2550.0
30
0.0
10
1731.0
20
-2622.0
30
0.0
10
1736.0
20
-2654.0
30
0.0
10
1725.0
20
-2664.0
30
0.0
10
1697.0
20
-2669.0
30
0.0
10
1657.0
20
-2656.0
30
0.0
10
1623.0
20
-2652.0
30
0.0
10
1579.0
20
-2621.0
30
0.0
10
1561.0
20
-2611.0
30
0.0
10
1503.0
20
-2552.0
30
0.0
10
1442.0
20
-2504.0
30
0.0
10
1425.0
20
-2475.0
30
0.0
10
1402.0
20
-2456.0
30
0.0
10
1381.0
20
-2448.0
30
0.0
10
1360.0
20
-2427.0
30
0.0
10
1339.0
20
-2426.0
30
0.0
10
1305.0
20
-2416.0
30
0.0
10
1278.0
20
-2391.0
30
0.0
10
1251.0
20
-2388.0
30
0.0
10
1205.0
20
-2366.0
30
0.0
10
1162.0
20
-2406.0
30
0.0
10
1152.0
20
-2405.0
30
0.0
10
1118.0
20
-2424.0
30
0.0
10
1057.0
20
-2431.0
30
0.0
10
1023.0
20
-2433.0
30
0.0
10
961.0
20
-2439.0
30
0.0
10
915.0
20
-2419.0
30
0.0
10
888.0
20
-2414.0
30
0.0
10
824.0
20
-2463.0
30
0.0
10
796.0
20
-2465.0
30
0.0
10
762.0
20
-2467.0
30
0.0
10
744.0
20
-2469.0
30
0.0
10
697.0
20
-2471.0
30
0.0
10
666.0
20
-2465.0
30
0.0
10
648.0
20
-2451.0
30
0.0
10
608.0
20
-2420.0
30
0.0
10
593.0
20
-2414.0
30
0.0
10
574.0
20
-2410.0
30
0.0
10
555.0
20
-2426.0
30
0.0
10
528.0
20
-2460.0
30
0.0
10
497.0
20
-2476.0
30
0.0
10
481.0
20
-2502.0
30
0.0
10
454.0
20
-2553.0
30
0.0
10
424.0
20
-2579.0
30
0.0
10
369.0
20
-2595.0
30
0.0
10
321.0
20
-2634.0
30
0.0
10
292.0
20
-2648.0
30
0.0
10
273.0
20
-2637.0
30
0.0
10
240.0
20
-2603.0
30
0.0
10
242.0
20
-2585.0
30
0.0
10
244.0
20
-2556.0
30
0.0
10
213.0
20
-2515.0
30
0.0
10
201.0
20
-2498.0
30
0.0
10
194.0
20
-2467.0
30
0.0
10
185.0
20
-2420.0
30
0.0
10
168.0
20
-2396.0
30
0.0
10
155.0
20
-2394.0
30
0.0
10
133.0
20
-2382.0
30
0.0
10
117.0
20
-2369.0
30
0.0
10
101.0
20
-2344.0
30
0.0
10
103.0
20
-2329.0
30
0.0
10
90.0
20
-2317.0
30
0.0
10
98.0
20
-2276.0
30
0.0
10
112.0
20
-2210.0
30
0.0
10
111.0
20
-2186.0
30
0.0
10
104.0
20
-2167.0
30
0.0
10
100.0
20
-2111.0
30
0.0
10
96.0
20
-2024.0
30
0.0
10
89.0
20
-1994.0
30
0.0
10
81.0
20
-1941.0
30
0.0
10
73.0
20
-1891.0
30
0.0
10
63.0
20
-1820.0
30
0.0
10
58.0
20
-1786.0
30
0.0
10
60.0
20
-1761.0
30
0.0
10
75.0
20
-1739.0
30
0.0
10
102.0
20
-1689.0
30
0.0
10
112.0
20
-1651.0
30
0.0
10
120.0
20
-1595.0
30
0.0
10
134.0
20
-1567.0
30
0.0
10
137.0
20
-1511.0
30
0.0
10
132.0
20
-1471.0
30
0.0
10
137.0
20
-1449.0
30
0.0
10
157.0
20
-1424.0
30
0.0
10
160.0
20
-1399.0
30
0.0
10
184.0
20
-1362.0
30
0.0
10
190.0
20
-1328.0
30
0.0
10
193.0
20
-1305.0
30
0.0
10
193.0
20
-1303.0
30
0.0
10
190.0
20
-1281.0
30
0.0
10
195.0
20
-1247.0
30
0.0
10
186.0
20
-1200.0
30
0.0
10
128.0
20
-1097.0
30
0.0
10
69.0
20
-1037.0
30
0.0
10
20.0
20
-938.0
30
0.0
10
15.0
20
-926.0
30
0.0
10
0.0
20
-869.0
30
0.0
10
3.0
20
-837.0
30
0.0
10
1.0
20
-797.0
30
0.0
10
12.0
20
-750.0
30
0.0
10
46.0
20
-698.0
30
0.0
10
89.0
20
-633.0
30
0.0
10
103.0
20
-587.0
30
0.0
10
129.0
20
-528.0
30
0.0
10
133.0
20
-481.0
30
0.0
10
130.0
20
-412.0
30
0.0
10
120.0
20
-364.0
30
0.0
10
104.0
20
-319.0
30
0.0
10
88.0
20
-294.0
30
0.0
10
73.0
20
-262.0
30
0.0
10
62.0
20
-211.0
30
0.0
10
90.0
20
-193.0
30
0.0
10
88.0
20
-183.0
30
0.0
10
94.0
20
-174.0
30
0.0
10
96.0
20
-155.0
30
0.0
10
97.0
20
-146.0
30
0.0
10
103.0
20
-133.0
30
0.0
10
106.0
20
-102.0
30
0.0
10
114.0
20
-70.0
30
0.0
10
126.0
20
-58.0
30
0.0
10
142.0
20
-57.0
30
0.0
10
185.0
20
-99.0
30
0.0
10
204.0
20
-95.0
30
0.0
10
206.0
20
-60.0
30
0.0
10
211.0
20
-44.0
30
0.0
10
219.0
20
-12.0
30
0.0
10
227.0
20
0.0
30
0.0
10
246.0
20
-3.0
30
0.0
10
299.0
20
-55.0
30
0.0
10
328.0
20
-75.0
30
0.0
10
353.0
20
-82.0
30
0.0
10
370.0
20
-105.0
30
0.0
10
391.0
20
-123.0
30
0.0
10
393.0
20
-123.0
30
0.0
10
418.0
20
-133.0
30
0.0
10
432.0
20
-148.0
30
0.0
10
451.0
20
-155.0
30
0.0
10
479.0
20
-161.0
30
0.0
10
492.0
20
-156.0
30
0.0
10
517.0
20
-150.0
30
0.0
10
529.0
20
-146.0
30
0.0
10
554.0
20
-140.0
30
0.0
10
586.0
20
-134.0
30
0.0
10
607.0
20
-168.0
30
0.0
10
616.0
20
-236.0
30
0.0
10
634.0
20
-251.0
30
0.0
10
646.0
20
-253.0
30
0.0
10
690.0
20
-257.0
30
0.0
10
703.0
20
-259.0
30
0.0
10
717.0
20
-271.0
30
0.0
10
721.0
20
-293.0
30
0.0
10
730.0
20
-322.0
30
0.0
10
746.0
20
-341.0
30
0.0
10
815.0
20
-348.0
30
0.0
10
859.0
20
-372.0
30
0.0
10
884.0
20
-378.0
30
0.0
10
905.0
20
-370.0
30
0.0
10
914.0
20
-355.0
30
0.0
10
932.0
20
-336.0
30
0.0
10
966.0
20
-312.0
30
0.0
10
1002.0
20
-307.0
30
0.0
10
1027.0
20
-299.0
30
0.0
10
1061.0
20
-301.0
30
0.0
10
1091.0
20
-284.0
30
0.0
10
1125.0
20
-285.0
30
0.0
10
1147.0
20
-287.0
30
0.0
10
1181.0
20
-301.0
30
0.0
10
1252.0
20
-321.0
30
0.0
10
1267.0
20
-320.0
30
0.0
10
1289.0
20
-312.0
30
0.0
10
1316.0
20
-300.0
30
0.0
10
1365.0
20
-300.0
30
0.0
10
1374.0
20
-298.0
30
0.0
10
1395.0
20
-278.0
30
0.0
10
1397.0
20
-262.0
30
0.0
10
1429.0
20
-216.0
30
0.0
10
1453.0
20
-197.0
30
0.0
10
1490.0
20
-182.0
30
0.0
10
1530.0
20
-143.0
30
0.0
10
1583.0
20
-89.0
30
0.0
10
1626.0
20
-49.0
30
0.0
10
1645.0
20
-44.0
30
0.0
10
1682.0
20
-54.0
30
0.0
10
1700.0
20
-92.0
30
0.0
10
1706.0
20
-118.0
30
0.0
10
1705.0
20
-132.0
30
0.0
10
1678.0
20
-177.0
30
0.0
10
1667.0
20
-213.0
30
0.0
10
1641.0
20
-259.0
30
0.0
10
1606.0
20
-330.0
30
0.0
10
1549.0
20
-412.0
30
0.0
10
1531.0
20
-444.0
30
0.0
10
1534.0
20
-460.0
30
0.0
10
1532.0
20
-472.0
30
0.0
10
1537.0
20
-480.0
30
0.0
10
1564.0
20
-466.0
30
0.0
10
1610.0
20
-417.0
30
0.0
10
1647.0
20
-381.0
30
0.0
10
1702.0
20
-310.0
30
0.0
10
1745.0
20
-292.0
30
0.0
10
1817.0
20
-245.0
30
0.0
10
1869.0
20
-228.0
30
0.0
10
1888.0
20
-230.0
30
0.0
10
1901.0
20
-251.0
30
0.0
10
1871.0
20
-338.0
30
0.0
10
1872.0
20
-347.0
30
0.0
10
1880.0
20
-360.0
30
0.0
10
1917.0
20
-369.0
30
0.0
10
1913.0
20
-379.0
30
0.0
10
1902.0
20
-411.0
30
0.0
10
1913.0
20
-426.0
30
0.0
10
1931.0
20
-428.0
30
0.0
10
1959.0
20
-418.0
30
0.0
10
1984.0
20
-403.0
30
0.0
10
2009.0
20
-385.0
30
0.0
10
2010.0
20
-412.0
30
0.0
10
1951.0
20
-495.0
30
0.0
10
1940.0
20
-527.0
30
0.0
10
1945.0
20
-552.0
30
0.0
10
1963.0
20
-569.0
30
0.0
10
2002.0
20
-570.0
30
0.0
10
2061.0
20
-534.0
30
0.0
10
2092.0
20
-535.0
30
0.0
10
2133.0
20
-522.0
30
0.0
10
2139.0
20
-527.0
30
0.0
10
2163.0
20
-532.0
30
0.0
10
2194.0
20
-525.0
30
0.0
10
2222.0
20
-519.0
30
0.0
10
2227.0
20
-525.0
30
0.0
10
2181.0
20
-571.0
30
0.0
10
2143.0
20
-614.0
30
0.0
10
2125.0
20
-652.0
30
0.0
10
2121.0
20
-720.0
30
0.0
10
2131.0
20
-750.0
30
0.0
10
2189.0
20
-817.0
30
0.0
10
2219.0
20
-838.0
30
0.0
10
2275.0
20
-860.0
30
0.0
10
2288.0
20
-881.0
30
0.0
10
2288.0
20
-883.0
30
0.0
6
Solid
370
35
62
0
0
LWPOLYLINE
5
555
100
AcDbEntity
100
AcDbPolyline
90
9
70
1
10
2181.0
20
-1131.0
30
0.0
10
2182.0
20
-1131.0
30
0.0
10
2196.0
20
-1126.0
30
0.0
10
2189.0
20
-1120.0
30
0.0
10
2175.0
20
-1118.0
30
0.0
10
2163.0
20
-1120.0
30
0.0
10
2167.0
20
-1125.0
30
0.0
10
2175.0
20
-1129.0
30
0.0
10
2181.0
20
-1131.0
30
0.0
6
Solid
370
35
62
0
0
LWPOLYLINE
5
557
100
AcDbEntity
100
AcDbPolyline
90
10
70
1
10
2154.0
20
-1380.0
30
0.0
10
2154.0
20
-1379.0
30
0.0
10
2155.0
20
-1380.0
30
0.0
10
2155.0
20
-1381.0
30
0.0
10
2155.0
20
-1382.0
30
0.0
10
2154.0
20
-1382.0
30
0.0
10
2153.0
20
-1382.0
30
0.0
10
2153.0
20
-1381.0
30
0.0
10
2153.0
20
-1378.0
30
0.0
10
2154.0
20
-1380.0
30
0.0
6
Solid
370
35
62
0
0
LWPOLYLINE
5
559
100
AcDbEntity
100
AcDbPolyline
90
9
70
1
10
1945.0
20
-562.0
30
0.0
10
1938.0
20
-569.0
30
0.0
10
1933.0
20
-572.0
30
0.0
10
1928.0
20
-575.0
30
0.0
10
1921.0
20
-578.0
30
0.0
10
1918.0
20
-572.0
30
0.0
10
1932.0
20
-557.0
30
0.0
10
1940.0
20
-550.0
30
0.0
10
1945.0
20
-562.0
30
0.0
6
Solid
370
35
62
0
0
LWPOLYLINE
5
55b
100
AcDbEntity
100
AcDbPolyline
90
13
70
1
10
1939.0
20
-2176.0
30
0.0
10
1936.0
20
-2168.0
30
0.0
10
1935.0
20
-2161.0
30
0.0
10
1934.0
20
-2157.0
30
0.0
10
1938.0
20
-2150.0
30
0.0
10
1939.0
20
-2150.0
30
0.0
10
1941.0
20
-2154.0
30
0.0
10
1943.0
20
-2158.0
30
0.0
10
1946.0
20
-2164.0
30
0.0
10
1948.0
20
-2169.0
30
0.0
10
1951.0
20
-2176.0
30
0.0
10
1954.0
20
-2179.0
30
0.0
10
1939.0
20
-2176.0
30
0.0
6
Solid
370
35
62
0
0
LWPOLYLINE
5
55d
100
AcDbEntity
100
AcDbPolyline
90
15
70
1
10
1747.0
20
-2371.0
30
0.0
10
1724.0
20
-2377.0
30
0.0
10
1721.0
20
-2379.0
30
0.0
10
1718.0
20
-2375.0
30
0.0
10
1714.0
20
-2370.0
30
0.0
10
1698.0
20
-2333.0
30
0.0
10
1689.0
20
-2312.0
30
0.0
10
1684.0
20
-2299.0
30
0.0
10
1689.0
20
-2303.0
30
0.0
10
1701.0
20
-2315.0
30
0.0
10
1718.0
20
-2328.0
30
0.0
10
1730.0
20
-2345.0
30
0.0
10
1745.0
20
-2363.0
30
0.0
10
1750.0
20
-2369.0
30
0.0
10
1747.0
20
-2371.0
30
0.0
6
Solid
370
35
62
0
0
LWPOLYLINE
5
55f
100
AcDbEntity
100
AcDbPolyline
90
13
70
1
10
1676.0
20
-2434.0
30
0.0
10
1666.0
20
-2438.0
30
0.0
10
1655.0
20
-2462.0
30
0.0
10
1656.0
20
-2465.0
30
0.0
10
1650.0
20
-2469.0
30
0.0
10
1630.0
20
-2450.0
30
0.0
10
1619.0
20
-2426.0
30
0.0
10
1613.0
20
-2400.0
30
0.0
10
1619.0
20
-2385.0
30
0.0
10
1628.0
20
-2396.0
30
0.0
10
1647.0
20
-2418.0
30
0.0
10
1661.0
20
-2427.0
30
0.0
10
1676.0
20
-2434.0
30
0.0
6
Solid
370
35
62
0
0
LWPOLYLINE
5
561
100
AcDbEntity
100
AcDbPolyline
90
9
70
1
10
1608.0
20
-2641.0
30
0.0
10
1582.0
20
-2623.0
30
0.0
10
1582.0
20
-2608.0
30
0.0
10
1583.0
20
-2581.0
30
0.0
10
1587.0
20
-2572.0
30
0.0
10
1603.0
20
-2590.0
30
0.0
10
1610.0
20
-2603.0
30
0.0
10
1610.0
20
-2629.0
30
0.0
10
1608.0
20
-2641.0
30
0.0
6
Solid
370
35
62
0
0
LWPOLYLINE
5
563
100
AcDbEntity
100
AcDbPolyline
90
7
70
1
10
1463.0
20
-2521.0
30
0.0
10
1442.0
20
-2504.0
30
0.0
10
1432.0
20
-2486.0
30
0.0
10
1463.0
20
-2440.0
30
0.0
10
1492.0
20
-2450.0
30
0.0
10
1478.0
20
-2486.0
30
0.0
10
1463.0
20
-2521.0
30
0.0
6
Solid
370
35
62
0
0
LWPOLYLINE
5
565
100
AcDbEntity
100
AcDbPolyline
90
15
70
1
10
1419.0
20
-2470.0
30
0.0
10
1402.0
20
-2456.0
30
0.0
10
1381.0
20
-2448.0
30
0.0
10
1360.0
20
-2427.0
30
0.0
10
1339.0
20
-2426.0
30
0.0
10
1337.0
20
-2425.0
30
0.0
10
1339.0
20
-2420.0
30
0.0
10
1346.0
20
-2400.0
30
0.0
10
1350.0
20
-2389.0
30
0.0
10
1362.0
20
-2369.0
30
0.0
10
1407.0
20
-2315.0
30
0.0
10
1420.0
20
-2413.0
30
0.0
10
1421.0
20
-2438.0
30
0.0
10
1419.0
20
-2464.0
30
0.0
10
1419.0
20
-2470.0
30
0.0
6
Solid
370
35
62
0
0
LWPOLYLINE
5
567
100
AcDbEntity
100
AcDbPolyline
90
9
70
1
10
1694.0
20
-321.0
30
0.0
10
1702.0
20
-310.0
30
0.0
10
1723.0
20
-301.0
30
0.0
10
1723.0
20
-306.0
30
0.0
10
1716.0
20
-334.0
30
0.0
10
1698.0
20
-369.0
30
0.0
10
1695.0
20
-353.0
30
0.0
10
1694.0
20
-329.0
30
0.0
10
1694.0
20
-321.0
30
0.0
6
Solid
370
35
62
0
0
LWPOLYLINE
5
569
100
AcDbEntity
100
AcDbPolyline
90
14
70
1
10
1544.0
20
-129.0
30
0.0
10
1583.0
20
-89.0
30
0.0
10
1626.0
20
-49.0
30
0.0
10
1645.0
20
-44.0
30
0.0
10
1652.0
20
-46.0
30
0.0
10
1656.0
20
-55.0
30
0.0
10
1657.0
20
-81.0
30
0.0
10
1647.0
20
-118.0
30
0.0
10
1637.0
20
-138.0
30
0.0
10
1616.0
20
-149.0
30
0.0
10
1599.0
20
-146.0
30
0.0
10
1573.0
20
-139.0
30
0.0
10
1557.0
20
-134.0
30
0.0
10
1544.0
20
-129.0
30
0.0
6
Solid
370
35
62
0
0
LWPOLYLINE
5
56b
100
AcDbEntity
100
AcDbPolyline
90
13
70
1
10
1373.0
20
-299.0
30
0.0
10
1374.0
20
-298.0
30
0.0
10
1395.0
20
-278.0
30
0.0
10
1397.0
20
-262.0
30
0.0
10
1410.0
20
-242.0
30
0.0
10
1425.0
20
-316.0
30
0.0
10
1421.0
20
-348.0
30
0.0
10
1402.0
20
-396.0
30
0.0
10
1391.0
20
-393.0
30
0.0
10
1388.0
20
-396.0
30
0.0
10
1377.0
20
-333.0
30
0.0
10
1374.0
20
-305.0
30
0.0
10
1373.0
20
-299.0
30
0.0
6
Solid
370
35
62
0
0
LWPOLYLINE
5
56d
100
AcDbEntity
100
AcDbPolyline
90
13
70
1
10
1232.0
20
-316.0
30
0.0
10
1252.0
20
-321.0
30
0.0
10
1267.0
20
-320.0
30
0.0
10
1289.0
20
-312.0
30
0.0
10
1301.0
20
-307.0
30
0.0
10
1299.0
20
-325.0
30
0.0
10
1286.0
20
-361.0
30
0.0
10
1226.0
20
-404.0
30
0.0
10
1198.0
20
-396.0
30
0.0
10
1194.0
20
-366.0
30
0.0
10
1214.0
20
-342.0
30
0.0
10
1228.0
20
-323.0
30
0.0
10
1232.0
20
-316.0
30
0.0
6
Solid
370
35
62
0
0
LWPOLYLINE
5
56f
100
AcDbEntity
100
AcDbPolyline
90
9
70
1
10
1104.0
20
-284.0
30
0.0
10
1125.0
20
-285.0
30
0.0
10
1147.0
20
-287.0
30
0.0
10
1150.0
20
-288.0
30
0.0
10
1146.0
20
-304.0
30
0.0
10
1099.0
20
-339.0
30
0.0
10
1090.0
20
-339.0
30
0.0
10
1090.0
20
-312.0
30
0.0
10
1104.0
20
-284.0
30
0.0
6
Solid
370
35
62
0
0
LWPOLYLINE
5
571
100
AcDbEntity
100
AcDbPolyline
90
10
70
1
10
1284.0
20
-2396.0
30
0.0
10
1278.0
20
-2391.0
30
0.0
10
1251.0
20
-2388.0
30
0.0
10
1247.0
20
-2386.0
30
0.0
10
1247.0
20
-2383.0
30
0.0
10
1250.0
20
-2333.0
30
0.0
10
1265.0
20
-2349.0
30
0.0
10
1282.0
20
-2379.0
30
0.0
10
1284.0
20
-2395.0
30
0.0
10
1284.0
20
-2396.0
30
0.0
6
Solid
370
35
62
0
0
LWPOLYLINE
5
573
100
AcDbEntity
100
AcDbPolyline
90
8
70
1
10
1117.0
20
-2409.0
30
0.0
10
1105.0
20
-2386.0
30
0.0
10
1093.0
20
-2363.0
30
0.0
10
1105.0
20
-2364.0
30
0.0
10
1132.0
20
-2374.0
30
0.0
10
1153.0
20
-2386.0
30
0.0
10
1162.0
20
-2395.0
30
0.0
10
1117.0
20
-2409.0
30
0.0
6
Solid
370
35
62
0
0
LWPOLYLINE
5
575
100
AcDbEntity
100
AcDbPolyline
90
9
70
1
10
765.0
20
-343.0
30
0.0
10
814.0
20
-348.0
30
0.0
10
800.0
20
-359.0
30
0.0
10
782.0
20
-370.0
30
0.0
10
758.0
20
-390.0
30
0.0
10
734.0
20
-389.0
30
0.0
10
744.0
20
-369.0
30
0.0
10
754.0
20
-355.0
30
0.0
10
765.0
20
-343.0
30
0.0
6
Solid
370
35
62
0
0
LWPOLYLINE
5
577
100
AcDbEntity
100
AcDbPolyline
90
12
70
1
10
766.0
20
-2467.0
30
0.0
10
762.0
20
-2467.0
30
0.0
10
744.0
20
-2469.0
30
0.0
10
736.0
20
-2469.0
30
0.0
10
737.0
20
-2464.0
30
0.0
10
737.0
20
-2451.0
30
0.0
10
738.0
20
-2439.0
30
0.0
10
750.0
20
-2422.0
30
0.0
10
755.0
20
-2436.0
30
0.0
10
760.0
20
-2452.0
30
0.0
10
761.0
20
-2458.0
30
0.0
10
766.0
20
-2467.0
30
0.0
6
Solid
370
35
62
0
0
LWPOLYLINE
5
579
100
AcDbEntity
100
AcDbPolyline
90
12
70
1
10
600.0
20
-2417.0
30
0.0
10
593.0
20
-2414.0
30
0.0
10
574.0
20
-2410.0
30
0.0
10
555.0
20
-2426.0
30
0.0
10
552.0
20
-2430.0
30
0.0
10
554.0
20
-2412.0
30
0.0
10
556.0
20
-2400.0
30
0.0
10
560.0
20
-2385.0
30
0.0
10
566.0
20
-2377.0
30
0.0
10
578.0
20
-2382.0
30
0.0
10
594.0
20
-2402.0
30
0.0
10
600.0
20
-2417.0
30
0.0
6
Solid
370
35
62
0
0
LWPOLYLINE
5
57b
100
AcDbEntity
100
AcDbPolyline
90
13
70
1
10
458.0
20
-156.0
30
0.0
10
479.0
20
-161.0
30
0.0
10
492.0
20
-156.0
30
0.0
10
510.0
20
-152.0
30
0.0
10
507.0
20
-178.0
30
0.0
10
481.0
20
-227.0
30
0.0
10
457.0
20
-251.0
30
0.0
10
449.0
20
-256.0
30
0.0
10
444.0
20
-248.0
30
0.0
10
456.0
20
-205.0
30
0.0
10
460.0
20
-180.0
30
0.0
10
456.0
20
-161.0
30
0.0
10
458.0
20
-156.0
30
0.0
6
Solid
370
35
62
0
0
LWPOLYLINE
5
57d
100
AcDbEntity
100
AcDbPolyline
90
9
70
1
10
369.0
20
-104.0
30
0.0
10
370.0
20
-105.0
30
0.0
10
389.0
20
-121.0
30
0.0
10
385.0
20
-132.0
30
0.0
10
381.0
20
-143.0
30
0.0
10
365.0
20
-147.0
30
0.0
10
370.0
20
-122.0
30
0.0
10
370.0
20
-110.0
30
0.0
10
369.0
20
-104.0
30
0.0
6
Solid
370
35
62
0
0
LWPOLYLINE
5
57f
100
AcDbEntity
100
AcDbPolyline
90
7
70
1
10
86.0
20
-290.0
30
0.0
10
73.0
20
-262.0
30
0.0
10
63.0
20
-216.0
30
0.0
10
72.0
20
-222.0
30
0.0
10
99.0
20
-257.0
30
0.0
10
101.0
20
-272.0
30
0.0
10
86.0
20
-290.0
30
0.0
6
Solid
370
35
62
0
0
LWPOLYLINE
5
581
100
AcDbEntity
100
AcDbPolyline
90
9
70
1
10
107.0
20
-100.0
30
0.0
10
114.0
20
-70.0
30
0.0
10
126.0
20
-58.0
30
0.0
10
142.0
20
-57.0
30
0.0
10
162.0
20
-77.0
30
0.0
10
162.0
20
-90.0
30
0.0
10
148.0
20
-97.0
30
0.0
10
121.0
20
-103.0
30
0.0
10
107.0
20
-100.0
30
0.0
6
Solid
370
35
62
0
0
LWPOLYLINE
5
583
100
AcDbEntity
100
AcDbPolyline
90
9
70
1
10
1.0
20
-811.0
30
0.0
10
1.0
20
-797.0
30
0.0
10
12.0
20
-750.0
30
0.0
10
18.0
20
-741.0
30
0.0
10
17.0
20
-781.0
30
0.0
10
12.0
20
-797.0
30
0.0
10
9.0
20
-807.0
30
0.0
10
4.0
20
-810.0
30
0.0
10
1.0
20
-811.0
30
0.0
6
Solid
370
35
62
0
0
LWPOLYLINE
5
585
100
AcDbEntity
100
AcDbPolyline
90
17
70
1
10
221.0
20
-1382.0
30
0.0
10
219.0
20
-1383.0
30
0.0
10
212.0
20
-1387.0
30
0.0
10
203.0
20
-1389.0
30
0.0
10
204.0
20
-1374.0
30
0.0
10
207.0
20
-1358.0
30
0.0
10
214.0
20
-1307.0
30
0.0
10
218.0
20
-1306.0
30
0.0
10
230.0
20
-1304.0
30
0.0
10
232.0
20
-1309.0
30
0.0
10
230.0
20
-1324.0
30
0.0
10
226.0
20
-1342.0
30
0.0
10
225.0
20
-1355.0
30
0.0
10
224.0
20
-1363.0
30
0.0
10
223.0
20
-1368.0
30
0.0
10
221.0
20
-1381.0
30
0.0
10
221.0
20
-1382.0
30
0.0
6
Solid
370
35
62
0
0
LWPOLYLINE
5
587
100
AcDbEntity
100
AcDbPolyline
90
12
70
1
10
64.0
20
-220.0
30
0.0
10
62.0
20
-211.0
30
0.0
10
90.0
20
-193.0
30
0.0
10
88.0
20
-183.0
30
0.0
10
94.0
20
-174.0
30
0.0
10
96.0
20
-155.0
30
0.0
10
96.0
20
-152.0
30
0.0
10
118.0
20
-152.0
30
0.0
10
139.0
20
-168.0
30
0.0
10
99.0
20
-214.0
30
0.0
10
74.0
20
-220.0
30
0.0
10
64.0
20
-220.0
30
0.0
6
Solid
370
35
62
0
0
LWPOLYLINE
5
589
100
AcDbEntity
100
AcDbPolyline
90
10
70
1
10
156.0
20
-1484.0
30
0.0
10
174.0
20
-1488.0
30
0.0
10
172.0
20
-1510.0
30
0.0
10
168.0
20
-1519.0
30
0.0
10
162.0
20
-1518.0
30
0.0
10
157.0
20
-1518.0
30
0.0
10
151.0
20
-1516.0
30
0.0
10
152.0
20
-1497.0
30
0.0
10
152.0
20
-1490.0
30
0.0
10
156.0
20
-1484.0
30
0.0
6
Solid
370
35
62
0
0
LWPOLYLINE
5
58b
100
AcDbEntity
100
AcDbPolyline
90
9
70
1
10
183.0
20
-1384.0
30
0.0
10
185.0
20
-1385.0
30
0.0
10
185.0
20
-1386.0
30
0.0
10
185.0
20
-1388.0
30
0.0
10
182.0
20
-1389.0
30
0.0
10
181.0
20
-1388.0
30
0.0
10
180.0
20
-1387.0
30
0.0
10
182.0
20
-1383.0
30
0.0
10
183.0
20
-1384.0
30
0.0
6
Solid
370
35
62
0
0
LWPOLYLINE
5
58d
100
AcDbEntity
100
AcDbPolyline
90
8
70
1
10
524.0
20
-2462.0
30
0.0
10
497.0
20
-2476.0
30
0.0
10
496.0
20
-2477.0
30
0.0
10
492.0
20
-2468.0
30
0.0
10
489.0
20
-2457.0
30
0.0
10
501.0
20
-2452.0
30
0.0
10
516.0
20
-2457.0
30
0.0
10
524.0
20
-2462.0
30
0.0
6
Solid
370
35
62
0
0
LWPOLYLINE
5
58f
100
AcDbEntity
100
AcDbPolyline
90
11
70
1
10
378.0
20
-2593.0
30
0.0
10
369.0
20
-2595.0
30
0.0
10
364.0
20
-2599.0
30
0.0
10
363.0
20
-2594.0
30
0.0
10
357.0
20
-2579.0
30
0.0
10
355.0
20
-2561.0
30
0.0
10
358.0
20
-2556.0
30
0.0
10
366.0
20
-2565.0
30
0.0
10
374.0
20
-2579.0
30
0.0
10
382.0
20
-2586.0
30
0.0
10
378.0
20
-2593.0
30
0.0
6
Solid
370
35
62
0
0
LWPOLYLINE
5
591
100
AcDbEntity
100
AcDbPolyline
90
7
70
1
10
338.0
20
-2620.0
30
0.0
10
321.0
20
-2633.0
30
0.0
10
319.0
20
-2609.0
30
0.0
10
328.0
20
-2607.0
30
0.0
10
335.0
20
-2613.0
30
0.0
10
341.0
20
-2617.0
30
0.0
10
338.0
20
-2620.0
30
0.0
6
Solid
370
35
62
0
0
LWPOLYLINE
5
593
100
AcDbEntity
100
AcDbPolyline
90
7
70
1
10
242.0
20
-2553.0
30
0.0
10
225.0
20
-2530.0
30
0.0
10
232.0
20
-2527.0
30
0.0
10
248.0
20
-2517.0
30
0.0
10
254.0
20
-2517.0
30
0.0
10
251.0
20
-2542.0
30
0.0
10
242.0
20
-2553.0
30
0.0
6
Solid
370
35
62
0
0
LWPOLYLINE
5
596
100
AcDbEntity
8
zone_0_q1
100
AcDbPolyline
90
10
70
1
10
1700.0
20
-2405.0
30
0.0
10
1690.0
20
-2427.0
30
0.0
10
1690.0
20
-2428.0
30
0.0
10
1665.0
20
-2427.0
30
0.0
10
1658.0
20
-2421.0
30
0.0
10
1645.0
20
-2408.0
30
0.0
10
1616.0
20
-2366.0
30
0.0
10
1648.0
20
-2348.0
30
0.0
10
1684.0
20
-2381.0
30
0.0
10
1700.0
20
-2405.0
30
0.0
6
Solid
370
35
62
40
0
LWPOLYLINE
5
599
100
AcDbEntity
8
zone_1_q1
100
AcDbPolyline
90
22
70
1
10
1695.0
20
-2548.0
30
0.0
10
1697.0
20
-2550.0
30
0.0
10
1731.0
20
-2622.0
30
0.0
10
1736.0
20
-2654.0
30
0.0
10
1725.0
20
-2664.0
30
0.0
10
1697.0
20
-2669.0
30
0.0
10
1657.0
20
-2656.0
30
0.0
10
1624.0
20
-2652.0
30
0.0
10
1612.0
20
-2597.0
30
0.0
10
1617.0
20
-2566.0
30
0.0
10
1601.0
20
-2541.0
30
0.0
10
1578.0
20
-2517.0
30
0.0
10
1553.0
20
-2489.0
30
0.0
10
1502.0
20
-2446.0
30
0.0
10
1498.0
20
-2429.0
30
0.0
10
1517.0
20
-2405.0
30
0.0
10
1559.0
20
-2383.0
30
0.0
10
1591.0
20
-2400.0
30
0.0
10
1634.0
20
-2462.0
30
0.0
10
1643.0
20
-2477.0
30
0.0
10
1651.0
20
-2491.0
30
0.0
10
1695.0
20
-2548.0
30
0.0
6
Solid
370
35
62
40
0
LWPOLYLINE
5
59c
100
AcDbEntity
8
zone_2_q1
100
AcDbPolyline
90
14
70
1
10
1572.0
20
-2617.0
30
0.0
10
1561.0
20
-2611.0
30
0.0
10
1503.0
20
-2552.0
30
0.0
10
1461.0
20
-2519.0
30
0.0
10
1476.0
20
-2472.0
30
0.0
10
1510.0
20
-2465.0
30
0.0
10
1527.0
20
-2489.0
30
0.0
10
1538.0
20
-2510.0
30
0.0
10
1548.0
20
-2529.0
30
0.0
10
1562.0
20
-2552.0
30
0.0
10
1577.0
20
-2567.0
30
0.0
10
1578.0
20
-2586.0
30
0.0
10
1574.0
20
-2612.0
30
0.0
10
1572.0
20
-2617.0
30
0.0
6
Solid
370
35
62
40
0
LWPOLYLINE
5
59f
100
AcDbEntity
8
zone_3_q1
100
AcDbPolyline
90
10
70
1
10
1604.0
20
-332.0
30
0.0
10
1595.0
20
-346.0
30
0.0
10
1589.0
20
-350.0
30
0.0
10
1564.0
20
-368.0
30
0.0
10
1507.0
20
-398.0
30
0.0
10
1487.0
20
-407.0
30
0.0
10
1493.0
20
-395.0
30
0.0
10
1539.0
20
-366.0
30
0.0
10
1591.0
20
-337.0
30
0.0
10
1604.0
20
-332.0
30
0.0
6
Solid
370
35
62
40
0
LWPOLYLINE
5
5a2
100
AcDbEntity
8
zone_4_q1
100
AcDbPolyline
90
9
70
1
10
1650.0
20
-242.0
30
0.0
10
1641.0
20
-259.0
30
0.0
10
1638.0
20
-264.0
30
0.0
10
1637.0
20
-266.0
30
0.0
10
1625.0
20
-272.0
30
0.0
10
1614.0
20
-272.0
30
0.0
10
1630.0
20
-250.0
30
0.0
10
1638.0
20
-242.0
30
0.0
10
1650.0
20
-242.0
30
0.0
6
Solid
370
35
62
40
0
LWPOLYLINE
5
5a5
100
AcDbEntity
8
zone_5_q2
100
AcDbPolyline
90
9
70
1
10
1456.0
20
-233.0
30
0.0
10
1448.0
20
-307.0
30
0.0
10
1415.0
20
-400.0
30
0.0
10
1405.0
20
-404.0
30
0.0
10
1424.0
20
-353.0
30
0.0
10
1428.0
20
-311.0
30
0.0
10
1425.0
20
-247.0
30
0.0
10
1413.0
20
-227.0
30
0.0
10
1456.0
20
-233.0
30
0.0
6
Solid
370
35
62
2
0
LWPOLYLINE
5
5a8
100
AcDbEntity
8
zone_6_q2
100
AcDbPolyline
90
5
70
1
10
1390.0
20
-417.0
30
0.0
10
1383.0
20
-407.0
30
0.0
10
1392.0
20
-409.0
30
0.0
10
1405.0
20
-404.0
30
0.0
10
1390.0
20
-417.0
30
0.0
6
Solid
370
35
62
2
0
LWPOLYLINE
5
5ab
100
AcDbEntity
8
zone_7_q2
100
AcDbPolyline
90
13
70
1
10
1383.0
20
-407.0
30
0.0
10
1367.0
20
-403.0
30
0.0
10
1345.0
20
-389.0
30
0.0
10
1251.0
20
-408.0
30
0.0
10
1216.0
20
-413.0
30
0.0
10
1215.0
20
-409.0
30
0.0
10
1264.0
20
-402.0
30
0.0
10
1290.0
20
-362.0
30
0.0
10
1309.0
20
-333.0
30
0.0
10
1330.0
20
-320.0
30
0.0
10
1354.0
20
-340.0
30
0.0
10
1363.0
20
-378.0
30
0.0
10
1383.0
20
-407.0
30
0.0
6
Solid
370
35
62
2
0
LWPOLYLINE
5
5ae
100
AcDbEntity
8
zone_8_q2
100
AcDbPolyline
90
6
70
1
10
1207.0
20
-413.0
30
0.0
10
1196.0
20
-405.0
30
0.0
10
1214.0
20
-411.0
30
0.0
10
1215.0
20
-409.0
30
0.0
10
1216.0
20
-413.0
30
0.0
10
1207.0
20
-413.0
30
0.0
6
Solid
370
35
62
2
0
LWPOLYLINE
5
5b1
100
AcDbEntity
8
zone_9_q2
100
AcDbPolyline
90
28
70
1
10
1196.0
20
-405.0
30
0.0
10
1175.0
20
-399.0
30
0.0
10
1151.0
20
-381.0
30
0.0
10
1131.0
20
-365.0
30
0.0
10
1097.0
20
-351.0
30
0.0
10
1062.0
20
-338.0
30
0.0
10
1032.0
20
-337.0
30
0.0
10
992.0
20
-344.0
30
0.0
10
908.0
20
-393.0
30
0.0
10
886.0
20
-403.0
30
0.0
10
860.0
20
-405.0
30
0.0
10
839.0
20
-382.0
30
0.0
10
872.0
20
-399.0
30
0.0
10
890.0
20
-396.0
30
0.0
10
918.0
20
-370.0
30
0.0
10
931.0
20
-353.0
30
0.0
10
974.0
20
-331.0
30
0.0
10
1003.0
20
-322.0
30
0.0
10
1043.0
20
-323.0
30
0.0
10
1064.0
20
-321.0
30
0.0
10
1075.0
20
-327.0
30
0.0
10
1098.0
20
-350.0
30
0.0
10
1150.0
20
-311.0
30
0.0
10
1166.0
20
-312.0
30
0.0
10
1187.0
20
-325.0
30
0.0
10
1192.0
20
-354.0
30
0.0
10
1183.0
20
-397.0
30
0.0
10
1196.0
20
-405.0
30
0.0
6
Solid
370
35
62
2
0
LWPOLYLINE
5
5b4
100
AcDbEntity
8
zone_10_q2
100
AcDbPolyline
90
43
70
1
10
1563.0
20
-2372.0
30
0.0
10
1562.0
20
-2372.0
30
0.0
10
1544.0
20
-2382.0
30
0.0
10
1516.0
20
-2399.0
30
0.0
10
1457.0
20
-2429.0
30
0.0
10
1433.0
20
-2425.0
30
0.0
10
1429.0
20
-2378.0
30
0.0
10
1422.0
20
-2333.0
30
0.0
10
1410.0
20
-2302.0
30
0.0
10
1393.0
20
-2284.0
30
0.0
10
1375.0
20
-2311.0
30
0.0
10
1365.0
20
-2339.0
30
0.0
10
1334.0
20
-2365.0
30
0.0
10
1321.0
20
-2390.0
30
0.0
10
1287.0
20
-2356.0
30
0.0
10
1267.0
20
-2342.0
30
0.0
10
1249.0
20
-2332.0
30
0.0
10
1234.0
20
-2348.0
30
0.0
10
1172.0
20
-2363.0
30
0.0
10
1144.0
20
-2366.0
30
0.0
10
1125.0
20
-2357.0
30
0.0
10
1094.0
20
-2362.0
30
0.0
10
1081.0
20
-2403.0
30
0.0
10
1023.0
20
-2416.0
30
0.0
10
992.0
20
-2412.0
30
0.0
10
964.0
20
-2417.0
30
0.0
10
943.0
20
-2412.0
30
0.0
10
934.0
20
-2403.0
30
0.0
10
1001.0
20
-2387.0
30
0.0
10
1036.0
20
-2378.0
30
0.0
10
1065.0
20
-2364.0
30
0.0
10
1103.0
20
-2349.0
30
0.0
10
1144.0
20
-2336.0
30
0.0
10
1258.0
20
-2321.0
30
0.0
10
1299.0
20
-2321.0
30
0.0
10
1333.0
20
-2306.0
30
0.0
10
1370.0
20
-2291.0
30
0.0
10
1395.0
20
-2279.0
30
0.0
10
1424.0
20
-2289.0
30
0.0
10
1451.0
20
-2326.0
30
0.0
10
1481.0
20
-2368.0
30
0.0
10
1519.0
20
-2371.0
30
0.0
10
1563.0
20
-2372.0
30
0.0
6
Solid
370
35
62
2
0
LWPOLYLINE
5
5b7
100
AcDbEntity
8
zone_11_q1
100
AcDbPolyline
90
5
70
1
10
612.0
20
-2362.0
30
0.0
10
615.0
20
-2360.0
30
0.0
10
628.0
20
-2373.0
30
0.0
10
623.0
20
-2373.0
30
0.0
10
612.0
20
-2362.0
30
0.0
6
Solid
370
35
62
40
0
LWPOLYLINE
5
5ba
100
AcDbEntity
8
zone_12_q1
100
AcDbPolyline
90
13
70
1
10
629.0
20
-2436.0
30
0.0
10
608.0
20
-2420.0
30
0.0
10
593.0
20
-2414.0
30
0.0
10
591.0
20
-2414.0
30
0.0
10
574.0
20
-2404.0
30
0.0
10
589.0
20
-2370.0
30
0.0
10
623.0
20
-2373.0
30
0.0
10
633.0
20
-2384.0
30
0.0
10
643.0
20
-2403.0
30
0.0
10
647.0
20
-2420.0
30
0.0
10
651.0
20
-2440.0
30
0.0
10
650.0
20
-2449.0
30
0.0
10
629.0
20
-2436.0
30
0.0
6
Solid
370
35
62
40
0
LWPOLYLINE
5
5bd
100
AcDbEntity
8
zone_13_q1
100
AcDbPolyline
90
12
70
1
10
380.0
20
-2591.0
30
0.0
10
377.0
20
-2567.0
30
0.0
10
399.0
20
-2499.0
30
0.0
10
432.0
20
-2460.0
30
0.0
10
466.0
20
-2420.0
30
0.0
10
490.0
20
-2391.0
30
0.0
10
536.0
20
-2361.0
30
0.0
10
546.0
20
-2363.0
30
0.0
10
551.0
20
-2384.0
30
0.0
10
550.0
20
-2407.0
30
0.0
10
548.0
20
-2420.0
30
0.0
10
380.0
20
-2591.0
30
0.0
6
Solid
370
35
62
40
0
LWPOLYLINE
5
5c0
100
AcDbEntity
8
zone_14_q1
100
AcDbPolyline
90
17
70
1
10
519.0
20
-150.0
30
0.0
10
529.0
20
-146.0
30
0.0
10
554.0
20
-140.0
30
0.0
10
586.0
20
-134.0
30
0.0
10
607.0
20
-168.0
30
0.0
10
616.0
20
-236.0
30
0.0
10
617.0
20
-237.0
30
0.0
10
601.0
20
-264.0
30
0.0
10
577.0
20
-297.0
30
0.0
10
544.0
20
-319.0
30
0.0
10
508.0
20
-324.0
30
0.0
10
484.0
20
-311.0
30
0.0
10
466.0
20
-291.0
30
0.0
10
450.0
20
-275.0
30
0.0
10
471.0
20
-245.0
30
0.0
10
517.0
20
-160.0
30
0.0
10
519.0
20
-150.0
30
0.0
6
Solid
370
35
62
40
0
LWPOLYLINE
5
5c3
100
AcDbEntity
8
zone_15_q1
100
AcDbPolyline
90
15
70
1
10
393.0
20
-123.0
30
0.0
10
418.0
20
-133.0
30
0.0
10
432.0
20
-148.0
30
0.0
10
451.0
20
-155.0
30
0.0
10
462.0
20
-157.0
30
0.0
10
460.0
20
-163.0
30
0.0
10
453.0
20
-194.0
30
0.0
10
440.0
20
-228.0
30
0.0
10
432.0
20
-240.0
30
0.0
10
425.0
20
-242.0
30
0.0
10
407.0
20
-216.0
30
0.0
10
387.0
20
-187.0
30
0.0
10
370.0
20
-167.0
30
0.0
10
388.0
20
-135.0
30
0.0
10
393.0
20
-123.0
30
0.0
6
Solid
370
35
62
40
0
LWPOLYLINE
5
5c6
100
AcDbEntity
8
zone_16_q1
100
AcDbPolyline
90
9
70
1
10
116.0
20
-353.0
30
0.0
10
104.0
20
-319.0
30
0.0
10
88.0
20
-294.0
30
0.0
10
88.0
20
-293.0
30
0.0
10
94.0
20
-287.0
30
0.0
10
98.0
20
-278.0
30
0.0
10
133.0
20
-291.0
30
0.0
10
131.0
20
-334.0
30
0.0
10
116.0
20
-353.0
30
0.0
6
Solid
370
35
62
40
0
LWPOLYLINE
5
5c9
100
AcDbEntity
8
zone_17_q1
100
AcDbPolyline
90
21
70
1
10
373.0
20
-210.0
30
0.0
10
379.0
20
-248.0
30
0.0
10
361.0
20
-274.0
30
0.0
10
293.0
20
-229.0
30
0.0
10
251.0
20
-211.0
30
0.0
10
208.0
20
-200.0
30
0.0
10
169.0
20
-205.0
30
0.0
10
152.0
20
-198.0
30
0.0
10
150.0
20
-148.0
30
0.0
10
148.0
20
-111.0
30
0.0
10
165.0
20
-106.0
30
0.0
10
204.0
20
-141.0
30
0.0
10
220.0
20
-113.0
30
0.0
10
225.0
20
-42.0
30
0.0
10
244.0
20
-26.0
30
0.0
10
264.0
20
-39.0
30
0.0
10
289.0
20
-60.0
30
0.0
10
309.0
20
-85.0
30
0.0
10
324.0
20
-111.0
30
0.0
10
341.0
20
-162.0
30
0.0
10
373.0
20
-210.0
30
0.0
6
Solid
370
35
62
40
0
LWPOLYLINE
5
5cc
100
AcDbEntity
8
zone_18_q3
100
AcDbPolyline
90
5
70
1
10
291.0
20
-485.0
30
0.0
10
291.0
20
-484.0
30
0.0
10
293.0
20
-487.0
30
0.0
10
292.0
20
-486.0
30
0.0
10
291.0
20
-485.0
30
0.0
6
Solid
370
35
62
3
0
LWPOLYLINE
5
5cf
100
AcDbEntity
8
zone_19_q3
100
AcDbPolyline
90
11
70
1
10
291.0
20
-484.0
30
0.0
10
282.0
20
-482.0
30
0.0
10
265.0
20
-477.0
30
0.0
10
255.0
20
-472.0
30
0.0
10
245.0
20
-464.0
30
0.0
10
232.0
20
-454.0
30
0.0
10
221.0
20
-445.0
30
0.0
10
216.0
20
-439.0
30
0.0
10
259.0
20
-460.0
30
0.0
10
287.0
20
-481.0
30
0.0
10
291.0
20
-484.0
30
0.0
6
Solid
370
35
62
3
0
LWPOLYLINE
5
5d2
100
AcDbEntity
8
zone_20_q3
100
AcDbPolyline
90
6
70
1
10
331.0
20
-1389.0
30
0.0
10
333.0
20
-1386.0
30
0.0
10
334.0
20
-1385.0
30
0.0
10
344.0
20
-1377.0
30
0.0
10
346.0
20
-1376.0
30
0.0
10
331.0
20
-1389.0
30
0.0
6
Solid
370
35
62
3
0
LWPOLYLINE
5
5d5
100
AcDbEntity
8
zone_21_q3
100
AcDbPolyline
90
8
70
1
10
352.0
20
-1345.0
30
0.0
10
349.0
20
-1351.0
30
0.0
10
333.0
20
-1373.0
30
0.0
10
332.0
20
-1373.0
30
0.0
10
331.0
20
-1379.0
30
0.0
10
328.0
20
-1376.0
30
0.0
10
337.0
20
-1364.0
30
0.0
10
352.0
20
-1345.0
30
0.0
6
Solid
370
35
62
3
0
LWPOLYLINE
5
5d8
100
AcDbEntity
8
zone_22_q3
100
AcDbPolyline
90
8
70
1
10
312.0
20
-1373.0
30
0.0
10
319.0
20
-1369.0
30
0.0
10
321.0
20
-1368.0
30
0.0
10
324.0
20
-1363.0
30
0.0
10
330.0
20
-1351.0
30
0.0
10
333.0
20
-1354.0
30
0.0
10
315.0
20
-1376.0
30
0.0
10
312.0
20
-1373.0
30
0.0
6
Solid
370
35
62
3
0
LWPOLYLINE
5
5db
100
AcDbEntity
8
zone_23_q3
100
AcDbPolyline
90
5
70
1
10
306.0
20
-1379.0
30
0.0
10
288.0
20
-1392.0
30
0.0
10
278.0
20
-1397.0
30
0.0
10
303.0
20
-1376.0
30
0.0
10
306.0
20
-1379.0
30
0.0
6
Solid
370
35
62
3
0
LWPOLYLINE
5
5de
100
AcDbEntity
8
zone_24_q3
100
AcDbPolyline
90
13
70
1
10
262.0
20
-1489.0
30
0.0
10
260.0
20
-1490.0
30
0.0
10
268.0
20
-1473.0
30
0.0
10
267.0
20
-1481.0
30
0.0
10
263.0
20
-1491.0
30
0.0
10
239.0
20
-1547.0
30
0.0
10
236.0
20
-1546.0
30
0.0
10
242.0
20
-1535.0
30
0.0
10
246.0
20
-1524.0
30
0.0
10
250.0
20
-1515.0
30
0.0
10
254.0
20
-1505.0
30
0.0
10
261.0
20
-1492.0
30
0.0
10
262.0
20
-1489.0
30
0.0
6
Solid
370
35
62
3
0
LWPOLYLINE
5
5e1
100
AcDbEntity
8
zone_25_q3
100
AcDbPolyline
90
10
70
1
10
259.0
20
-1700.0
30
0.0
10
260.0
20
-1699.0
30
0.0
10
267.0
20
-1695.0
30
0.0
10
274.0
20
-1695.0
30
0.0
10
275.0
20
-1696.0
30
0.0
10
274.0
20
-1700.0
30
0.0
10
272.0
20
-1703.0
30
0.0
10
264.0
20
-1705.0
30
0.0
10
260.0
20
-1704.0
30
0.0
10
259.0
20
-1700.0
30
0.0
6
Solid
370
35
62
3
0
LWPOLYLINE
5
5e4
100
AcDbEntity
8
zone_26_q1
100
AcDbPolyline
90
8
70
1
10
352.0
20
-1871.0
30
0.0
10
352.0
20
-1860.0
30
0.0
10
354.0
20
-1851.0
30
0.0
10
360.0
20
-1844.0
30
0.0
10
366.0
20
-1855.0
30
0.0
10
365.0
20
-1868.0
30
0.0
10
353.0
20
-1880.0
30
0.0
10
352.0
20
-1871.0
30
0.0
6
Solid
370
35
62
40
0
LWPOLYLINE
5
5e7
100
AcDbEntity
8
zone_27_q1
100
AcDbPolyline
90
15
70
1
10
373.0
20
-2542.0
30
0.0
10
368.0
20
-2545.0
30
0.0
10
355.0
20
-2565.0
30
0.0
10
335.0
20
-2589.0
30
0.0
10
315.0
20
-2613.0
30
0.0
10
299.0
20
-2630.0
30
0.0
10
278.0
20
-2631.0
30
0.0
10
265.0
20
-2611.0
30
0.0
10
257.0
20
-2589.0
30
0.0
10
270.0
20
-2529.0
30
0.0
10
297.0
20
-2525.0
30
0.0
10
337.0
20
-2515.0
30
0.0
10
356.0
20
-2537.0
30
0.0
10
361.0
20
-2547.0
30
0.0
10
373.0
20
-2542.0
30
0.0
6
Solid
370
35
62
40
0
ENDSEC
0
SECTION
2
OBJECTS
0
DICTIONARY
5
551
330
0
100
AcDbDictionary
281
1
3
ACAD_GROUP
350
552
0
DICTIONARY
5
552
330
551
100
AcDbDictionary
281
1
0
ENDSEC
0
EOF
