999

0
SECTION
2
HEADER
9
$ACADVER
1
AC1021
9
$HANDSEED
5
690
0
ENDSEC
0
SECTION
2
CLASSES
0
ENDSEC
0
SECTION
2
TABLES
0
TABLE
2
VPORT
5
5ea
100
AcDbSymbolTable
70
1
0
VPORT
5
5e9
100
AcDbSymbolTableRecord
100
AcDbViewportTableRecord
2
*ACTIVE
10
0
20
0
11
1
21
1
12
500.0
22
500.0
40
1000.0
70
0
0
ENDTAB
0
TABLE
2
LTYPE
5
5eb
100
AcDbSymbolTable
70
3
0
LTYPE
5
5f3
100
AcDbSymbolTableRecord
100
AcDbLinetypeTableRecord
2
Solid
70
0
72
65
73
0
3

0
LTYPE
5
5f4
100
AcDbSymbolTableRecord
100
AcDbLinetypeTableRecord
2
ByBlock
70
0
72
65
73
0
3

0
LTYPE
5
5f5
100
AcDbSymbolTableRecord
100
AcDbLinetypeTableRecord
2
ByLayer
70
0
72
65
73
0
3

0
ENDTAB
0
TABLE
2
LAYER
5
5ec
100
AcDbSymbolTable
70
27
0
LAYER
5
5f6
100
AcDbSymbolTableRecord
100
AcDbLayerTableRecord
2
0
70
0
390
0
0
LAYER
5
642
100
AcDbSymbolTableRecord
100
AcDbLayerTableRecord
2
zone_0_q2
70
0
390
0
0
LAYER
5
645
100
AcDbSymbolTableRecord
100
AcDbLayerTableRecord
2
zone_1_q2
70
0
390
0
0
LAYER
5
648
100
AcDbSymbolTableRecord
100
AcDbLayerTableRecord
2
zone_2_q1
70
0
390
0
0
LAYER
5
64b
100
AcDbSymbolTableRecord
100
AcDbLayerTableRecord
2
zone_3_q2
70
0
390
0
0
LAYER
5
64e
100
AcDbSymbolTableRecord
100
AcDbLayerTableRecord
2
zone_4_q2
70
0
390
0
0
LAYER
5
651
100
AcDbSymbolTableRecord
100
AcDbLayerTableRecord
2
zone_5_q2
70
0
390
0
0
LAYER
5
654
100
AcDbSymbolTableRecord
100
AcDbLayerTableRecord
2
zone_6_q2
70
0
390
0
0
LAYER
5
657
100
AcDbSymbolTableRecord
100
AcDbLayerTableRecord
2
zone_7_q2
70
0
390
0
0
LAYER
5
65a
100
AcDbSymbolTableRecord
100
AcDbLayerTableRecord
2
zone_8_q2
70
0
390
0
0
LAYER
5
65d
100
AcDbSymbolTableRecord
100
AcDbLayerTableRecord
2
zone_9_q2
70
0
390
0
0
LAYER
5
660
100
AcDbSymbolTableRecord
100
AcDbLayerTableRecord
2
zone_10_q2
70
0
390
0
0
LAYER
5
663
100
AcDbSymbolTableRecord
100
AcDbLayerTableRecord
2
zone_11_q2
70
0
390
0
0
LAYER
5
666
100
AcDbSymbolTableRecord
100
AcDbLayerTableRecord
2
zone_12_q3
70
0
390
0
0
LAYER
5
669
100
AcDbSymbolTableRecord
100
AcDbLayerTableRecord
2
zone_13_q1
70
0
390
0
0
LAYER
5
66c
100
AcDbSymbolTableRecord
100
AcDbLayerTableRecord
2
zone_14_q1
70
0
390
0
0
LAYER
5
66f
100
AcDbSymbolTableRecord
100
AcDbLayerTableRecord
2
zone_15_q1
70
0
390
0
0
LAYER
5
672
100
AcDbSymbolTableRecord
100
AcDbLayerTableRecord
2
zone_16_q2
70
0
390
0
0
LAYER
5
675
100
AcDbSymbolTableRecord
100
AcDbLayerTableRecord
2
zone_17_q2
70
0
390
0
0
LAYER
5
678
100
AcDbSymbolTableRecord
100
AcDbLayerTableRecord
2
zone_18_q2
70
0
390
0
0
LAYER
5
67b
100
AcDbSymbolTableRecord
100
AcDbLayerTableRecord
2
zone_19_q1
70
0
390
0
0
LAYER
5
67e
100
AcDbSymbolTableRecord
100
AcDbLayerTableRecord
2
zone_20_q2
70
0
390
0
0
LAYER
5
681
100
AcDbSymbolTableRecord
100
AcDbLayerTableRecord
2
zone_21_q1
70
0
390
0
0
LAYER
5
684
100
AcDbSymbolTableRecord
100
AcDbLayerTableRecord
2
zone_22_q1
70
0
390
0
0
LAYER
5
687
100
AcDbSymbolTableRecord
100
AcDbLayerTableRecord
2
zone_23_q2
70
0
390
0
0
LAYER
5
68a
100
AcDbSymbolTableRecord
100
AcDbLayerTableRecord
2
zone_24_q3
70
0
390
0
0
LAYER
5
68d
100
AcDbSymbolTableRecord
100
AcDbLayerTableRecord
2
zone_25_q2
70
0
390
0
0
ENDTAB
0
TABLE
2
STYLE
5
5ed
100
AcDbSymbolTable
70
0
0
ENDTAB
0
TABLE
2
VIEW
5
5ee
100
AcDbSymbolTable
70
0
0
ENDTAB
0
TABLE
2
UCS
5
5ef
100
AcDbSymbolTable
70
0
0
ENDTAB
0
TABLE
2
APPID
5
5f0
100
AcDbSymbolTable
70
1
0
APPID
5
5f7
100
AcDbSymbolTableRecord
100
AcDbRegAppTableRecord
2
ACAD
70
0
0
ENDTAB
0
TABLE
2
DIMSTYLE
5
5f1
100
AcDbSymbolTable
70
0
100
AcDbDimStyleTable
71
1
0
ENDTAB
0
TABLE
2
BLOCK_RECORD
5
5f2
100
AcDbSymbolTable
70
2
0
BLOCK_RECORD
5
5f8
100
AcDbSymbolTableRecord
100
AcDbBlockTableRecord
2
*Model_Space
70
0
280
1
281
0
0
BLOCK_RECORD
5
5f9
100
AcDbSymbolTableRecord
100
AcDbBlockTableRecord
2
*Paper_Space
70
0
280
1
281
0
0
ENDTAB
0
ENDSEC
0
SECTION
2
BLOCKS
0
BLOCK
5
5fa
100
AcDbEntity
100
AcDbBlockBegin
2
*Model_Space
70
0
10
0
20
0
30
0
3
*Model_Space
1

0
ENDBLK
5
5fb
100
AcDbEntity
100
AcDbBlockEnd
0
BLOCK
5
5fc
100
AcDbEntity
100
AcDbBlockBegin
2
*Paper_Space
70
0
10
0
20
0
30
0
3
*Paper_Space
1

0
ENDBLK
5
5fd
100
AcDbEntity
100
AcDbBlockEnd
0
ENDSEC
0
SECTION
2
ENTITIES
0
LWPOLYLINE
5
600
100
AcDbEntity
100
AcDbPolyline
90
310
70
1
10
2632.0
20
-1942.0
30
0.0
10
2612.0
20
-2000.0
30
0.0
10
2598.0
20
-2017.0
30
0.0
10
2585.0
20
-2018.0
30
0.0
10
2560.0
20
-2013.0
30
0.0
10
2510.0
20
-2056.0
30
0.0
10
2494.0
20
-2065.0
30
0.0
10
2459.0
20
-2070.0
30
0.0
10
2428.0
20
-2100.0
30
0.0
10
2410.0
20
-2118.0
30
0.0
10
2369.0
20
-2128.0
30
0.0
10
2323.0
20
-2145.0
30
0.0
10
2301.0
20
-2147.0
30
0.0
10
2272.0
20
-2126.0
30
0.0
10
2250.0
20
-2106.0
30
0.0
10
2213.0
20
-2099.0
30
0.0
10
2176.0
20
-2102.0
30
0.0
10
2160.0
20
-2100.0
30
0.0
10
2120.0
20
-2081.0
30
0.0
10
2059.0
20
-2092.0
30
0.0
10
2051.0
20
-2103.0
30
0.0
10
2112.0
20
-2169.0
30
0.0
10
2143.0
20
-2192.0
30
0.0
10
2142.0
20
-2204.0
30
0.0
10
2123.0
20
-2229.0
30
0.0
10
2089.0
20
-2239.0
30
0.0
10
2061.0
20
-2251.0
30
0.0
10
2051.0
20
-2268.0
30
0.0
10
2034.0
20
-2293.0
30
0.0
10
2010.0
20
-2299.0
30
0.0
10
2001.0
20
-2297.0
30
0.0
10
1987.0
20
-2311.0
30
0.0
10
1964.0
20
-2345.0
30
0.0
10
1949.0
20
-2354.0
30
0.0
10
1912.0
20
-2352.0
30
0.0
10
1869.0
20
-2315.0
30
0.0
10
1820.0
20
-2297.0
30
0.0
10
1798.0
20
-2303.0
30
0.0
10
1750.0
20
-2323.0
30
0.0
10
1750.0
20
-2333.0
30
0.0
10
1735.0
20
-2342.0
30
0.0
10
1715.0
20
-2380.0
30
0.0
10
1721.0
20
-2444.0
30
0.0
10
1735.0
20
-2470.0
30
0.0
10
1746.0
20
-2502.0
30
0.0
10
1773.0
20
-2564.0
30
0.0
10
1781.0
20
-2587.0
30
0.0
10
1773.0
20
-2603.0
30
0.0
10
1755.0
20
-2614.0
30
0.0
10
1733.0
20
-2600.0
30
0.0
10
1705.0
20
-2588.0
30
0.0
10
1634.0
20
-2544.0
30
0.0
10
1588.0
20
-2495.0
30
0.0
10
1573.0
20
-2440.0
30
0.0
10
1550.0
20
-2408.0
30
0.0
10
1509.0
20
-2360.0
30
0.0
10
1507.0
20
-2346.0
30
0.0
10
1506.0
20
-2344.0
30
0.0
10
1481.0
20
-2332.0
30
0.0
10
1421.0
20
-2314.0
30
0.0
10
1387.0
20
-2299.0
30
0.0
10
1372.0
20
-2305.0
30
0.0
10
1351.0
20
-2291.0
30
0.0
10
1296.0
20
-2297.0
30
0.0
10
1259.0
20
-2310.0
30
0.0
10
1214.0
20
-2309.0
30
0.0
10
1181.0
20
-2292.0
30
0.0
10
1147.0
20
-2294.0
30
0.0
10
1101.0
20
-2318.0
30
0.0
10
1027.0
20
-2333.0
30
0.0
10
974.0
20
-2352.0
30
0.0
10
952.0
20
-2364.0
30
0.0
10
943.0
20
-2372.0
30
0.0
10
961.0
20
-2323.0
30
0.0
10
970.0
20
-2291.0
30
0.0
10
998.0
20
-2203.0
30
0.0
10
1017.0
20
-2156.0
30
0.0
10
1037.0
20
-2097.0
30
0.0
10
1053.0
20
-2045.0
30
0.0
10
1070.0
20
-2014.0
30
0.0
10
1067.0
20
-2005.0
30
0.0
10
1046.0
20
-1997.0
30
0.0
10
997.0
20
-2016.0
30
0.0
10
966.0
20
-2052.0
30
0.0
10
952.0
20
-2077.0
30
0.0
10
925.0
20
-2124.0
30
0.0
10
910.0
20
-2167.0
30
0.0
10
906.0
20
-2198.0
30
0.0
10
900.0
20
-2214.0
30
0.0
10
881.0
20
-2270.0
30
0.0
10
876.0
20
-2302.0
30
0.0
10
847.0
20
-2299.0
30
0.0
10
816.0
20
-2296.0
30
0.0
10
763.0
20
-2296.0
30
0.0
10
714.0
20
-2290.0
30
0.0
10
680.0
20
-2299.0
30
0.0
10
658.0
20
-2304.0
30
0.0
10
645.0
20
-2296.0
30
0.0
10
596.0
20
-2276.0
30
0.0
10
574.0
20
-2274.0
30
0.0
10
562.0
20
-2279.0
30
0.0
10
533.0
20
-2291.0
30
0.0
10
507.0
20
-2313.0
30
0.0
10
458.0
20
-2318.0
30
0.0
10
457.0
20
-2318.0
30
0.0
10
431.0
20
-2324.0
30
0.0
10
415.0
20
-2326.0
30
0.0
10
381.0
20
-2329.0
30
0.0
10
312.0
20
-2385.0
30
0.0
10
283.0
20
-2395.0
30
0.0
10
271.0
20
-2394.0
30
0.0
10
255.0
20
-2388.0
30
0.0
10
230.0
20
-2371.0
30
0.0
10
201.0
20
-2373.0
30
0.0
10
180.0
20
-2360.0
30
0.0
10
157.0
20
-2332.0
30
0.0
10
123.0
20
-2290.0
30
0.0
10
109.0
20
-2278.0
30
0.0
10
77.0
20
-2261.0
30
0.0
10
64.0
20
-2251.0
30
0.0
10
43.0
20
-2227.0
30
0.0
10
58.0
20
-2192.0
30
0.0
10
83.0
20
-2117.0
30
0.0
10
87.0
20
-2086.0
30
0.0
10
102.0
20
-2042.0
30
0.0
10
104.0
20
-1973.0
30
0.0
10
83.0
20
-1927.0
30
0.0
10
85.0
20
-1893.0
30
0.0
10
60.0
20
-1850.0
30
0.0
10
52.0
20
-1822.0
30
0.0
10
30.0
20
-1754.0
30
0.0
10
11.0
20
-1711.0
30
0.0
10
6.0
20
-1667.0
30
0.0
10
0.0
20
-1618.0
30
0.0
10
1.0
20
-1602.0
30
0.0
10
6.0
20
-1577.0
30
0.0
10
50.0
20
-1536.0
30
0.0
10
152.0
20
-1417.0
30
0.0
10
233.0
20
-1337.0
30
0.0
10
253.0
20
-1312.0
30
0.0
10
261.0
20
-1288.0
30
0.0
10
253.0
20
-1248.0
30
0.0
10
256.0
20
-1192.0
30
0.0
10
260.0
20
-1127.0
30
0.0
10
266.0
20
-1096.0
30
0.0
10
256.0
20
-1062.0
30
0.0
10
238.0
20
-1025.0
30
0.0
10
194.0
20
-965.0
30
0.0
10
48.0
20
-843.0
30
0.0
10
42.0
20
-808.0
30
0.0
10
44.0
20
-774.0
30
0.0
10
59.0
20
-740.0
30
0.0
10
73.0
20
-659.0
30
0.0
10
79.0
20
-625.0
30
0.0
10
121.0
20
-519.0
30
0.0
10
138.0
20
-495.0
30
0.0
10
167.0
20
-439.0
30
0.0
10
191.0
20
-352.0
30
0.0
10
195.0
20
-324.0
30
0.0
10
173.0
20
-266.0
30
0.0
10
160.0
20
-202.0
30
0.0
10
145.0
20
-174.0
30
0.0
10
159.0
20
-136.0
30
0.0
10
186.0
20
-113.0
30
0.0
10
214.0
20
-101.0
30
0.0
10
239.0
20
-79.0
30
0.0
10
274.0
20
-65.0
30
0.0
10
285.0
20
-50.0
30
0.0
10
305.0
20
-53.0
30
0.0
10
331.0
20
-73.0
30
0.0
10
359.0
20
-82.0
30
0.0
10
360.0
20
-82.0
30
0.0
10
362.0
20
-96.0
30
0.0
10
372.0
20
-119.0
30
0.0
10
387.0
20
-131.0
30
0.0
10
400.0
20
-136.0
30
0.0
10
458.0
20
-168.0
30
0.0
10
519.0
20
-204.0
30
0.0
10
551.0
20
-224.0
30
0.0
10
567.0
20
-236.0
30
0.0
10
603.0
20
-256.0
30
0.0
10
628.0
20
-276.0
30
0.0
10
644.0
20
-283.0
30
0.0
10
685.0
20
-295.0
30
0.0
10
710.0
20
-289.0
30
0.0
10
731.0
20
-280.0
30
0.0
10
742.0
20
-263.0
30
0.0
10
750.0
20
-224.0
30
0.0
10
739.0
20
-127.0
30
0.0
10
764.0
20
-123.0
30
0.0
10
801.0
20
-127.0
30
0.0
10
849.0
20
-163.0
30
0.0
10
884.0
20
-175.0
30
0.0
10
896.0
20
-174.0
30
0.0
10
949.0
20
-172.0
30
0.0
10
993.0
20
-188.0
30
0.0
10
1015.0
20
-200.0
30
0.0
10
1044.0
20
-199.0
30
0.0
10
1045.0
20
-199.0
30
0.0
10
1073.0
20
-203.0
30
0.0
10
1085.0
20
-195.0
30
0.0
10
1107.0
20
-184.0
30
0.0
10
1135.0
20
-182.0
30
0.0
10
1166.0
20
-187.0
30
0.0
10
1218.0
20
-175.0
30
0.0
10
1233.0
20
-167.0
30
0.0
10
1237.0
20
-152.0
30
0.0
10
1239.0
20
-152.0
30
0.0
10
1305.0
20
-130.0
30
0.0
10
1307.0
20
-132.0
30
0.0
10
1335.0
20
-148.0
30
0.0
10
1347.0
20
-147.0
30
0.0
10
1362.0
20
-153.0
30
0.0
10
1372.0
20
-148.0
30
0.0
10
1396.0
20
-140.0
30
0.0
10
1415.0
20
-129.0
30
0.0
10
1449.0
20
-111.0
30
0.0
10
1486.0
20
-98.0
30
0.0
10
1501.0
20
-83.0
30
0.0
10
1529.0
20
-70.0
30
0.0
10
1530.0
20
-60.0
30
0.0
10
1540.0
20
-43.0
30
0.0
10
1554.0
20
-37.0
30
0.0
10
1579.0
20
-22.0
30
0.0
10
1610.0
20
-20.0
30
0.0
10
1625.0
20
-18.0
30
0.0
10
1663.0
20
-15.0
30
0.0
10
1691.0
20
-3.0
30
0.0
10
1707.0
20
0.0
30
0.0
10
1741.0
20
-1.0
30
0.0
10
1753.0
20
-8.0
30
0.0
10
1752.0
20
-16.0
30
0.0
10
1745.0
20
-39.0
30
0.0
10
1723.0
20
-106.0
30
0.0
10
1715.0
20
-142.0
30
0.0
10
1719.0
20
-184.0
30
0.0
10
1723.0
20
-207.0
30
0.0
10
1718.0
20
-226.0
30
0.0
10
1738.0
20
-246.0
30
0.0
10
1754.0
20
-246.0
30
0.0
10
1781.0
20
-240.0
30
0.0
10
1809.0
20
-231.0
30
0.0
10
1866.0
20
-196.0
30
0.0
10
1887.0
20
-197.0
30
0.0
10
1913.0
20
-221.0
30
0.0
10
1930.0
20
-231.0
30
0.0
10
1937.0
20
-269.0
30
0.0
10
1954.0
20
-285.0
30
0.0
10
1990.0
20
-304.0
30
0.0
10
2015.0
20
-305.0
30
0.0
10
2053.0
20
-274.0
30
0.0
10
2072.0
20
-262.0
30
0.0
10
2084.0
20
-267.0
30
0.0
10
2083.0
20
-280.0
30
0.0
10
2074.0
20
-302.0
30
0.0
10
2069.0
20
-328.0
30
0.0
10
2073.0
20
-350.0
30
0.0
10
2085.0
20
-355.0
30
0.0
10
2094.0
20
-340.0
30
0.0
10
2114.0
20
-317.0
30
0.0
10
2130.0
20
-312.0
30
0.0
10
2195.0
20
-336.0
30
0.0
10
2267.0
20
-328.0
30
0.0
10
2281.0
20
-336.0
30
0.0
10
2259.0
20
-394.0
30
0.0
10
2237.0
20
-461.0
30
0.0
10
2205.0
20
-546.0
30
0.0
10
2206.0
20
-577.0
30
0.0
10
2217.0
20
-596.0
30
0.0
10
2250.0
20
-612.0
30
0.0
10
2284.0
20
-628.0
30
0.0
10
2318.0
20
-652.0
30
0.0
10
2340.0
20
-663.0
30
0.0
10
2388.0
20
-700.0
30
0.0
10
2436.0
20
-738.0
30
0.0
10
2476.0
20
-776.0
30
0.0
10
2474.0
20
-794.0
30
0.0
10
2434.0
20
-838.0
30
0.0
10
2418.0
20
-873.0
30
0.0
10
2411.0
20
-901.0
30
0.0
10
2412.0
20
-928.0
30
0.0
10
2409.0
20
-942.0
30
0.0
10
2409.0
20
-944.0
30
0.0
10
2404.0
20
-962.0
30
0.0
10
2404.0
20
-1026.0
30
0.0
10
2394.0
20
-1072.0
30
0.0
10
2378.0
20
-1109.0
30
0.0
10
2384.0
20
-1130.0
30
0.0
10
2398.0
20
-1150.0
30
0.0
10
2400.0
20
-1173.0
30
0.0
10
2404.0
20
-1185.0
30
0.0
10
2409.0
20
-1213.0
30
0.0
10
2415.0
20
-1255.0
30
0.0
10
2422.0
20
-1298.0
30
0.0
10
2427.0
20
-1322.0
30
0.0
10
2468.0
20
-1386.0
30
0.0
10
2461.0
20
-1447.0
30
0.0
10
2450.0
20
-1484.0
30
0.0
10
2452.0
20
-1511.0
30
0.0
10
2463.0
20
-1542.0
30
0.0
10
2487.0
20
-1631.0
30
0.0
10
2513.0
20
-1677.0
30
0.0
10
2526.0
20
-1711.0
30
0.0
10
2552.0
20
-1758.0
30
0.0
10
2566.0
20
-1776.0
30
0.0
10
2576.0
20
-1798.0
30
0.0
10
2607.0
20
-1827.0
30
0.0
10
2625.0
20
-1880.0
30
0.0
10
2634.0
20
-1941.0
30
0.0
10
2632.0
20
-1942.0
30
0.0
6
Solid
370
35
62
0
0
LWPOLYLINE
5
602
100
AcDbEntity
100
AcDbPolyline
90
80
70
1
10
1599.0
20
-1860.0
30
0.0
10
1597.0
20
-1813.0
30
0.0
10
1611.0
20
-1817.0
30
0.0
10
1621.0
20
-1825.0
30
0.0
10
1632.0
20
-1830.0
30
0.0
10
1633.0
20
-1821.0
30
0.0
10
1660.0
20
-1794.0
30
0.0
10
1681.0
20
-1789.0
30
0.0
10
1735.0
20
-1796.0
30
0.0
10
1754.0
20
-1799.0
30
0.0
10
1768.0
20
-1777.0
30
0.0
10
1777.0
20
-1773.0
30
0.0
10
1778.0
20
-1777.0
30
0.0
10
1778.0
20
-1789.0
30
0.0
10
1779.0
20
-1807.0
30
0.0
10
1779.0
20
-1808.0
30
0.0
10
1913.0
20
-1882.0
30
0.0
10
1974.0
20
-1939.0
30
0.0
10
2004.0
20
-1992.0
30
0.0
10
2030.0
20
-2013.0
30
0.0
10
2054.0
20
-2039.0
30
0.0
10
2078.0
20
-2058.0
30
0.0
10
2082.0
20
-2025.0
30
0.0
10
2086.0
20
-2028.0
30
0.0
10
2089.0
20
-2035.0
30
0.0
10
2098.0
20
-2048.0
30
0.0
10
2104.0
20
-2072.0
30
0.0
10
2105.0
20
-2075.0
30
0.0
10
2110.0
20
-2077.0
30
0.0
10
2114.0
20
-2082.0
30
0.0
10
2059.0
20
-2092.0
30
0.0
10
2051.0
20
-2103.0
30
0.0
10
2112.0
20
-2169.0
30
0.0
10
2143.0
20
-2192.0
30
0.0
10
2142.0
20
-2204.0
30
0.0
10
2123.0
20
-2229.0
30
0.0
10
2089.0
20
-2239.0
30
0.0
10
2061.0
20
-2251.0
30
0.0
10
2051.0
20
-2268.0
30
0.0
10
2034.0
20
-2293.0
30
0.0
10
2010.0
20
-2299.0
30
0.0
10
2001.0
20
-2297.0
30
0.0
10
1987.0
20
-2311.0
30
0.0
10
1964.0
20
-2345.0
30
0.0
10
1949.0
20
-2354.0
30
0.0
10
1912.0
20
-2352.0
30
0.0
10
1869.0
20
-2315.0
30
0.0
10
1820.0
20
-2297.0
30
0.0
10
1806.0
20
-2301.0
30
0.0
10
1799.0
20
-2266.0
30
0.0
10
1799.0
20
-2261.0
30
0.0
10
1785.0
20
-2309.0
30
0.0
10
1750.0
20
-2323.0
30
0.0
10
1750.0
20
-2333.0
30
0.0
10
1735.0
20
-2342.0
30
0.0
10
1715.0
20
-2380.0
30
0.0
10
1721.0
20
-2444.0
30
0.0
10
1735.0
20
-2470.0
30
0.0
10
1746.0
20
-2502.0
30
0.0
10
1773.0
20
-2564.0
30
0.0
10
1781.0
20
-2587.0
30
0.0
10
1773.0
20
-2603.0
30
0.0
10
1755.0
20
-2614.0
30
0.0
10
1733.0
20
-2600.0
30
0.0
10
1705.0
20
-2588.0
30
0.0
10
1634.0
20
-2544.0
30
0.0
10
1588.0
20
-2495.0
30
0.0
10
1573.0
20
-2440.0
30
0.0
10
1550.0
20
-2408.0
30
0.0
10
1509.0
20
-2360.0
30
0.0
10
1507.0
20
-2346.0
30
0.0
10
1506.0
20
-2344.0
30
0.0
10
1481.0
20
-2332.0
30
0.0
10
1470.0
20
-2328.0
30
0.0
10
1493.0
20
-2243.0
30
0.0
10
1557.0
20
-2119.0
30
0.0
10
1585.0
20
-2036.0
30
0.0
10
1594.0
20
-1973.0
30
0.0
10
1597.0
20
-1892.0
30
0.0
10
1599.0
20
-1860.0
30
0.0
6
Solid
370
35
62
0
0
LWPOLYLINE
5
604
100
AcDbEntity
100
AcDbPolyline
90
12
70
1
10
2591.0
20
-2018.0
30
0.0
10
2585.0
20
-2018.0
30
0.0
10
2560.0
20
-2013.0
30
0.0
10
2545.0
20
-2025.0
30
0.0
10
2539.0
20
-2017.0
30
0.0
10
2528.0
20
-2000.0
30
0.0
10
2518.0
20
-1983.0
30
0.0
10
2506.0
20
-1970.0
30
0.0
10
2508.0
20
-1970.0
30
0.0
10
2547.0
20
-1987.0
30
0.0
10
2588.0
20
-2014.0
30
0.0
10
2591.0
20
-2018.0
30
0.0
6
Solid
370
35
62
0
0
LWPOLYLINE
5
606
100
AcDbEntity
100
AcDbPolyline
90
8
70
1
10
2417.0
20
-2101.0
30
0.0
10
2414.0
20
-2093.0
30
0.0
10
2415.0
20
-2078.0
30
0.0
10
2424.0
20
-2055.0
30
0.0
10
2428.0
20
-2063.0
30
0.0
10
2433.0
20
-2074.0
30
0.0
10
2440.0
20
-2084.0
30
0.0
10
2417.0
20
-2101.0
30
0.0
6
Solid
370
35
62
0
0
LWPOLYLINE
5
608
100
AcDbEntity
100
AcDbPolyline
90
9
70
1
10
2339.0
20
-2014.0
30
0.0
10
2337.0
20
-2014.0
30
0.0
10
2326.0
20
-2009.0
30
0.0
10
2322.0
20
-2005.0
30
0.0
10
2327.0
20
-2002.0
30
0.0
10
2331.0
20
-2002.0
30
0.0
10
2334.0
20
-2004.0
30
0.0
10
2338.0
20
-2008.0
30
0.0
10
2339.0
20
-2014.0
30
0.0
6
Solid
370
35
62
0
0
LWPOLYLINE
5
60a
100
AcDbEntity
100
AcDbPolyline
90
9
70
1
10
2327.0
20
-1978.0
30
0.0
10
2323.0
20
-1983.0
30
0.0
10
2319.0
20
-1982.0
30
0.0
10
2317.0
20
-1979.0
30
0.0
10
2321.0
20
-1975.0
30
0.0
10
2322.0
20
-1974.0
30
0.0
10
2325.0
20
-1974.0
30
0.0
10
2327.0
20
-1974.0
30
0.0
10
2327.0
20
-1978.0
30
0.0
6
Solid
370
35
62
0
0
LWPOLYLINE
5
60c
100
AcDbEntity
100
AcDbPolyline
90
9
70
1
10
2497.0
20
-1705.0
30
0.0
10
2477.0
20
-1692.0
30
0.0
10
2469.0
20
-1684.0
30
0.0
10
2461.0
20
-1671.0
30
0.0
10
2463.0
20
-1663.0
30
0.0
10
2475.0
20
-1668.0
30
0.0
10
2482.0
20
-1675.0
30
0.0
10
2491.0
20
-1687.0
30
0.0
10
2497.0
20
-1705.0
30
0.0
6
Solid
370
35
62
0
0
LWPOLYLINE
5
60e
100
AcDbEntity
100
AcDbPolyline
90
16
70
1
10
2390.0
20
-1138.0
30
0.0
10
2395.0
20
-1146.0
30
0.0
10
2393.0
20
-1147.0
30
0.0
10
2381.0
20
-1146.0
30
0.0
10
2371.0
20
-1146.0
30
0.0
10
2355.0
20
-1146.0
30
0.0
10
2336.0
20
-1146.0
30
0.0
10
2327.0
20
-1145.0
30
0.0
10
2316.0
20
-1145.0
30
0.0
10
2309.0
20
-1145.0
30
0.0
10
2311.0
20
-1144.0
30
0.0
10
2321.0
20
-1138.0
30
0.0
10
2339.0
20
-1133.0
30
0.0
10
2363.0
20
-1128.0
30
0.0
10
2375.0
20
-1126.0
30
0.0
10
2390.0
20
-1138.0
30
0.0
6
Solid
370
35
62
0
0
LWPOLYLINE
5
610
100
AcDbEntity
100
AcDbPolyline
90
9
70
1
10
2353.0
20
-1217.0
30
0.0
10
2353.0
20
-1218.0
30
0.0
10
2352.0
20
-1223.0
30
0.0
10
2346.0
20
-1221.0
30
0.0
10
2345.0
20
-1220.0
30
0.0
10
2346.0
20
-1216.0
30
0.0
10
2351.0
20
-1213.0
30
0.0
10
2354.0
20
-1216.0
30
0.0
10
2353.0
20
-1217.0
30
0.0
6
Solid
370
35
62
0
0
LWPOLYLINE
5
612
100
AcDbEntity
100
AcDbPolyline
90
13
70
1
10
2375.0
20
-1192.0
30
0.0
10
2376.0
20
-1191.0
30
0.0
10
2377.0
20
-1191.0
30
0.0
10
2378.0
20
-1191.0
30
0.0
10
2379.0
20
-1192.0
30
0.0
10
2380.0
20
-1193.0
30
0.0
10
2381.0
20
-1194.0
30
0.0
10
2380.0
20
-1195.0
30
0.0
10
2379.0
20
-1195.0
30
0.0
10
2378.0
20
-1195.0
30
0.0
10
2377.0
20
-1195.0
30
0.0
10
2375.0
20
-1194.0
30
0.0
10
2375.0
20
-1192.0
30
0.0
6
Solid
370
35
62
0
0
LWPOLYLINE
5
614
100
AcDbEntity
100
AcDbPolyline
90
5
70
1
10
2087.0
20
-357.0
30
0.0
10
2084.0
20
-337.0
30
0.0
10
2088.0
20
-336.0
30
0.0
10
2088.0
20
-347.0
30
0.0
10
2087.0
20
-357.0
30
0.0
6
Solid
370
35
62
0
0
LWPOLYLINE
5
616
100
AcDbEntity
100
AcDbPolyline
90
5
70
1
10
2089.0
20
-357.0
30
0.0
10
2089.0
20
-358.0
30
0.0
10
2085.0
20
-358.0
30
0.0
10
2085.0
20
-357.0
30
0.0
10
2089.0
20
-357.0
30
0.0
6
Solid
370
35
62
0
0
LWPOLYLINE
5
618
100
AcDbEntity
100
AcDbPolyline
90
16
70
1
10
2073.0
20
-349.0
30
0.0
10
2073.0
20
-350.0
30
0.0
10
2078.0
20
-352.0
30
0.0
10
2087.0
20
-358.0
30
0.0
10
2086.0
20
-368.0
30
0.0
10
2083.0
20
-387.0
30
0.0
10
2066.0
20
-403.0
30
0.0
10
2057.0
20
-401.0
30
0.0
10
2056.0
20
-399.0
30
0.0
10
2053.0
20
-392.0
30
0.0
10
2052.0
20
-380.0
30
0.0
10
2053.0
20
-366.0
30
0.0
10
2051.0
20
-354.0
30
0.0
10
2050.0
20
-347.0
30
0.0
10
2057.0
20
-338.0
30
0.0
10
2073.0
20
-349.0
30
0.0
6
Solid
370
35
62
0
0
LWPOLYLINE
5
61a
100
AcDbEntity
100
AcDbPolyline
90
9
70
1
10
2004.0
20
-304.0
30
0.0
10
2015.0
20
-305.0
30
0.0
10
2028.0
20
-294.0
30
0.0
10
2032.0
20
-306.0
30
0.0
10
2024.0
20
-333.0
30
0.0
10
2003.0
20
-351.0
30
0.0
10
1997.0
20
-338.0
30
0.0
10
2003.0
20
-314.0
30
0.0
10
2004.0
20
-304.0
30
0.0
6
Solid
370
35
62
0
0
LWPOLYLINE
5
61c
100
AcDbEntity
100
AcDbPolyline
90
11
70
1
10
1946.0
20
-277.0
30
0.0
10
1954.0
20
-285.0
30
0.0
10
1974.0
20
-295.0
30
0.0
10
1969.0
20
-301.0
30
0.0
10
1959.0
20
-308.0
30
0.0
10
1949.0
20
-320.0
30
0.0
10
1934.0
20
-332.0
30
0.0
10
1931.0
20
-334.0
30
0.0
10
1932.0
20
-324.0
30
0.0
10
1937.0
20
-276.0
30
0.0
10
1946.0
20
-277.0
30
0.0
6
Solid
370
35
62
0
0
LWPOLYLINE
5
61e
100
AcDbEntity
100
AcDbPolyline
90
9
70
1
10
2271.0
20
-1172.0
30
0.0
10
2273.0
20
-1170.0
30
0.0
10
2276.0
20
-1170.0
30
0.0
10
2276.0
20
-1171.0
30
0.0
10
2276.0
20
-1174.0
30
0.0
10
2275.0
20
-1174.0
30
0.0
10
2272.0
20
-1176.0
30
0.0
10
2265.0
20
-1175.0
30
0.0
10
2271.0
20
-1172.0
30
0.0
6
Solid
370
35
62
0
0
LWPOLYLINE
5
620
100
AcDbEntity
100
AcDbPolyline
90
5
70
1
10
1821.0
20
-2298.0
30
0.0
10
1820.0
20
-2297.0
30
0.0
10
1813.0
20
-2299.0
30
0.0
10
1822.0
20
-2277.0
30
0.0
10
1821.0
20
-2298.0
30
0.0
6
Solid
370
35
62
0
0
LWPOLYLINE
5
622
100
AcDbEntity
100
AcDbPolyline
90
19
70
1
10
1721.0
20
-196.0
30
0.0
10
1723.0
20
-207.0
30
0.0
10
1718.0
20
-226.0
30
0.0
10
1738.0
20
-246.0
30
0.0
10
1754.0
20
-246.0
30
0.0
10
1765.0
20
-243.0
30
0.0
10
1767.0
20
-247.0
30
0.0
10
1766.0
20
-273.0
30
0.0
10
1748.0
20
-320.0
30
0.0
10
1727.0
20
-352.0
30
0.0
10
1708.0
20
-371.0
30
0.0
10
1693.0
20
-377.0
30
0.0
10
1682.0
20
-365.0
30
0.0
10
1687.0
20
-343.0
30
0.0
10
1702.0
20
-313.0
30
0.0
10
1690.0
20
-285.0
30
0.0
10
1692.0
20
-255.0
30
0.0
10
1707.0
20
-224.0
30
0.0
10
1721.0
20
-196.0
30
0.0
6
Solid
370
35
62
0
0
LWPOLYLINE
5
624
100
AcDbEntity
100
AcDbPolyline
90
17
70
1
10
1515.0
20
-76.0
30
0.0
10
1529.0
20
-70.0
30
0.0
10
1530.0
20
-60.0
30
0.0
10
1540.0
20
-43.0
30
0.0
10
1544.0
20
-41.0
30
0.0
10
1546.0
20
-40.0
30
0.0
10
1546.0
20
-50.0
30
0.0
10
1547.0
20
-80.0
30
0.0
10
1547.0
20
-103.0
30
0.0
10
1537.0
20
-140.0
30
0.0
10
1534.0
20
-185.0
30
0.0
10
1534.0
20
-192.0
30
0.0
10
1524.0
20
-184.0
30
0.0
10
1516.0
20
-153.0
30
0.0
10
1514.0
20
-120.0
30
0.0
10
1515.0
20
-93.0
30
0.0
10
1515.0
20
-76.0
30
0.0
6
Solid
370
35
62
0
0
LWPOLYLINE
5
626
100
AcDbEntity
100
AcDbPolyline
90
11
70
1
10
1472.0
20
-103.0
30
0.0
10
1486.0
20
-98.0
30
0.0
10
1495.0
20
-89.0
30
0.0
10
1504.0
20
-89.0
30
0.0
10
1503.0
20
-105.0
30
0.0
10
1500.0
20
-128.0
30
0.0
10
1499.0
20
-152.0
30
0.0
10
1494.0
20
-198.0
30
0.0
10
1486.0
20
-193.0
30
0.0
10
1473.0
20
-114.0
30
0.0
10
1472.0
20
-103.0
30
0.0
6
Solid
370
35
62
0
0
LWPOLYLINE
5
628
100
AcDbEntity
100
AcDbPolyline
90
18
70
1
10
1345.0
20
-147.0
30
0.0
10
1347.0
20
-147.0
30
0.0
10
1362.0
20
-153.0
30
0.0
10
1372.0
20
-148.0
30
0.0
10
1396.0
20
-140.0
30
0.0
10
1415.0
20
-129.0
30
0.0
10
1418.0
20
-127.0
30
0.0
10
1431.0
20
-144.0
30
0.0
10
1436.0
20
-173.0
30
0.0
10
1428.0
20
-201.0
30
0.0
10
1413.0
20
-234.0
30
0.0
10
1406.0
20
-266.0
30
0.0
10
1399.0
20
-296.0
30
0.0
10
1388.0
20
-318.0
30
0.0
10
1367.0
20
-260.0
30
0.0
10
1365.0
20
-222.0
30
0.0
10
1347.0
20
-162.0
30
0.0
10
1345.0
20
-147.0
30
0.0
6
Solid
370
35
62
0
0
LWPOLYLINE
5
62a
100
AcDbEntity
100
AcDbPolyline
90
31
70
1
10
958.0
20
-2331.0
30
0.0
10
961.0
20
-2323.0
30
0.0
10
970.0
20
-2291.0
30
0.0
10
998.0
20
-2203.0
30
0.0
10
1017.0
20
-2156.0
30
0.0
10
1037.0
20
-2097.0
30
0.0
10
1053.0
20
-2045.0
30
0.0
10
1070.0
20
-2014.0
30
0.0
10
1067.0
20
-2005.0
30
0.0
10
1046.0
20
-1997.0
30
0.0
10
997.0
20
-2016.0
30
0.0
10
986.0
20
-2029.0
30
0.0
10
987.0
20
-2022.0
30
0.0
10
989.0
20
-2009.0
30
0.0
10
1008.0
20
-1991.0
30
0.0
10
1034.0
20
-1982.0
30
0.0
10
1064.0
20
-1967.0
30
0.0
10
1088.0
20
-1954.0
30
0.0
10
1126.0
20
-1931.0
30
0.0
10
1194.0
20
-1905.0
30
0.0
10
1265.0
20
-1881.0
30
0.0
10
1283.0
20
-1886.0
30
0.0
10
1286.0
20
-1902.0
30
0.0
10
1230.0
20
-1951.0
30
0.0
10
1171.0
20
-1979.0
30
0.0
10
1133.0
20
-1991.0
30
0.0
10
1103.0
20
-2012.0
30
0.0
10
1062.0
20
-2100.0
30
0.0
10
1005.0
20
-2288.0
30
0.0
10
974.0
20
-2325.0
30
0.0
10
958.0
20
-2331.0
30
0.0
6
Solid
370
35
62
0
0
LWPOLYLINE
5
62c
100
AcDbEntity
100
AcDbPolyline
90
12
70
1
10
1404.0
20
-2306.0
30
0.0
10
1387.0
20
-2299.0
30
0.0
10
1372.0
20
-2305.0
30
0.0
10
1357.0
20
-2295.0
30
0.0
10
1359.0
20
-2279.0
30
0.0
10
1360.0
20
-2226.0
30
0.0
10
1368.0
20
-2166.0
30
0.0
10
1373.0
20
-2158.0
30
0.0
10
1382.0
20
-2179.0
30
0.0
10
1406.0
20
-2257.0
30
0.0
10
1407.0
20
-2285.0
30
0.0
10
1404.0
20
-2306.0
30
0.0
6
Solid
370
35
62
0
0
LWPOLYLINE
5
62e
100
AcDbEntity
100
AcDbPolyline
90
7
70
1
10
1226.0
20
-1832.0
30
0.0
10
1222.0
20
-1832.0
30
0.0
10
1219.0
20
-1822.0
30
0.0
10
1220.0
20
-1821.0
30
0.0
10
1228.0
20
-1826.0
30
0.0
10
1228.0
20
-1831.0
30
0.0
10
1226.0
20
-1832.0
30
0.0
6
Solid
370
35
62
0
0
LWPOLYLINE
5
630
100
AcDbEntity
100
AcDbPolyline
90
13
70
1
10
1059.0
20
-201.0
30
0.0
10
1073.0
20
-203.0
30
0.0
10
1085.0
20
-195.0
30
0.0
10
1107.0
20
-184.0
30
0.0
10
1110.0
20
-183.0
30
0.0
10
1103.0
20
-200.0
30
0.0
10
1097.0
20
-220.0
30
0.0
10
1088.0
20
-240.0
30
0.0
10
1071.0
20
-260.0
30
0.0
10
1052.0
20
-273.0
30
0.0
10
1041.0
20
-245.0
30
0.0
10
1054.0
20
-208.0
30
0.0
10
1059.0
20
-201.0
30
0.0
6
Solid
370
35
62
0
0
LWPOLYLINE
5
632
100
AcDbEntity
100
AcDbPolyline
90
10
70
1
10
922.0
20
-173.0
30
0.0
10
949.0
20
-172.0
30
0.0
10
952.0
20
-173.0
30
0.0
10
952.0
20
-174.0
30
0.0
10
947.0
20
-187.0
30
0.0
10
942.0
20
-203.0
30
0.0
10
935.0
20
-223.0
30
0.0
10
918.0
20
-243.0
30
0.0
10
913.0
20
-234.0
30
0.0
10
922.0
20
-173.0
30
0.0
6
Solid
370
35
62
0
0
LWPOLYLINE
5
634
100
AcDbEntity
100
AcDbPolyline
90
19
70
1
10
894.0
20
-178.0
30
0.0
10
894.0
20
-174.0
30
0.0
10
896.0
20
-174.0
30
0.0
10
902.0
20
-174.0
30
0.0
10
906.0
20
-175.0
30
0.0
10
906.0
20
-179.0
30
0.0
10
905.0
20
-193.0
30
0.0
10
893.0
20
-212.0
30
0.0
10
892.0
20
-200.0
30
0.0
10
892.0
20
-194.0
30
0.0
10
884.0
20
-208.0
30
0.0
10
866.0
20
-235.0
30
0.0
10
860.0
20
-230.0
30
0.0
10
860.0
20
-223.0
30
0.0
10
871.0
20
-177.0
30
0.0
10
872.0
20
-171.0
30
0.0
10
884.0
20
-175.0
30
0.0
10
893.0
20
-174.0
30
0.0
10
894.0
20
-178.0
30
0.0
6
Solid
370
35
62
0
0
LWPOLYLINE
5
636
100
AcDbEntity
100
AcDbPolyline
90
9
70
1
10
1205.0
20
-2304.0
30
0.0
10
1187.0
20
-2295.0
30
0.0
10
1190.0
20
-2292.0
30
0.0
10
1199.0
20
-2282.0
30
0.0
10
1206.0
20
-2273.0
30
0.0
10
1207.0
20
-2279.0
30
0.0
10
1206.0
20
-2300.0
30
0.0
10
1205.0
20
-2305.0
30
0.0
10
1205.0
20
-2304.0
30
0.0
6
Solid
370
35
62
0
0
LWPOLYLINE
5
638
100
AcDbEntity
100
AcDbPolyline
90
11
70
1
10
578.0
20
-2275.0
30
0.0
10
574.0
20
-2274.0
30
0.0
10
562.0
20
-2279.0
30
0.0
10
555.0
20
-2282.0
30
0.0
10
555.0
20
-2276.0
30
0.0
10
554.0
20
-2231.0
30
0.0
10
557.0
20
-2224.0
30
0.0
10
561.0
20
-2228.0
30
0.0
10
564.0
20
-2241.0
30
0.0
10
580.0
20
-2271.0
30
0.0
10
578.0
20
-2275.0
30
0.0
6
Solid
370
35
62
0
0
LWPOLYLINE
5
63a
100
AcDbEntity
100
AcDbPolyline
90
12
70
1
10
287.0
20
-1179.0
30
0.0
10
283.0
20
-1176.0
30
0.0
10
283.0
20
-1155.0
30
0.0
10
283.0
20
-1142.0
30
0.0
10
285.0
20
-1093.0
30
0.0
10
288.0
20
-1081.0
30
0.0
10
293.0
20
-1072.0
30
0.0
10
303.0
20
-1079.0
30
0.0
10
310.0
20
-1108.0
30
0.0
10
299.0
20
-1169.0
30
0.0
10
286.0
20
-1175.0
30
0.0
10
287.0
20
-1179.0
30
0.0
6
Solid
370
35
62
0
0
LWPOLYLINE
5
63c
100
AcDbEntity
100
AcDbPolyline
90
12
70
1
10
282.0
20
-1229.0
30
0.0
10
283.0
20
-1231.0
30
0.0
10
283.0
20
-1232.0
30
0.0
10
281.0
20
-1235.0
30
0.0
10
280.0
20
-1236.0
30
0.0
10
279.0
20
-1236.0
30
0.0
10
278.0
20
-1235.0
30
0.0
10
277.0
20
-1233.0
30
0.0
10
277.0
20
-1232.0
30
0.0
10
278.0
20
-1231.0
30
0.0
10
280.0
20
-1230.0
30
0.0
10
282.0
20
-1229.0
30
0.0
6
Solid
370
35
62
0
0
LWPOLYLINE
5
63e
100
AcDbEntity
100
AcDbPolyline
90
15
70
1
10
208.0
20
-1407.0
30
0.0
10
204.0
20
-1411.0
30
0.0
10
200.0
20
-1417.0
30
0.0
10
195.0
20
-1420.0
30
0.0
10
189.0
20
-1416.0
30
0.0
10
185.0
20
-1411.0
30
0.0
10
182.0
20
-1407.0
30
0.0
10
185.0
20
-1401.0
30
0.0
10
190.0
20
-1396.0
30
0.0
10
199.0
20
-1386.0
30
0.0
10
205.0
20
-1385.0
30
0.0
10
211.0
20
-1392.0
30
0.0
10
214.0
20
-1397.0
30
0.0
10
213.0
20
-1399.0
30
0.0
10
208.0
20
-1407.0
30
0.0
6
Solid
370
35
62
0
0
LWPOLYLINE
5
640
100
AcDbEntity
100
AcDbPolyline
90
9
70
1
10
297.0
20
-2390.0
30
0.0
10
283.0
20
-2395.0
30
0.0
10
271.0
20
-2394.0
30
0.0
10
269.0
20
-2393.0
30
0.0
10
272.0
20
-2380.0
30
0.0
10
281.0
20
-2354.0
30
0.0
10
289.0
20
-2368.0
30
0.0
10
297.0
20
-2388.0
30
0.0
10
297.0
20
-2390.0
30
0.0
6
Solid
370
35
62
0
0
LWPOLYLINE
5
643
100
AcDbEntity
8
zone_0_q2
100
AcDbPolyline
90
29
70
1
10
2228.0
20
-374.0
30
0.0
10
2099.0
20
-434.0
30
0.0
10
2029.0
20
-407.0
30
0.0
10
1967.0
20
-360.0
30
0.0
10
1910.0
20
-335.0
30
0.0
10
1873.0
20
-319.0
30
0.0
10
1828.0
20
-312.0
30
0.0
10
1768.0
20
-304.0
30
0.0
10
1763.0
20
-297.0
30
0.0
10
1823.0
20
-257.0
30
0.0
10
1879.0
20
-236.0
30
0.0
10
1899.0
20
-257.0
30
0.0
10
1915.0
20
-280.0
30
0.0
10
1920.0
20
-306.0
30
0.0
10
1923.0
20
-335.0
30
0.0
10
1942.0
20
-346.0
30
0.0
10
1982.0
20
-323.0
30
0.0
10
1987.0
20
-360.0
30
0.0
10
2009.0
20
-362.0
30
0.0
10
2031.0
20
-348.0
30
0.0
10
2047.0
20
-354.0
30
0.0
10
2048.0
20
-389.0
30
0.0
10
2085.0
20
-420.0
30
0.0
10
2107.0
20
-400.0
30
0.0
10
2124.0
20
-360.0
30
0.0
10
2137.0
20
-343.0
30
0.0
10
2192.0
20
-345.0
30
0.0
10
2236.0
20
-346.0
30
0.0
10
2228.0
20
-374.0
30
0.0
6
Solid
370
35
62
2
0
LWPOLYLINE
5
646
100
AcDbEntity
8
zone_1_q2
100
AcDbPolyline
90
23
70
1
10
2128.0
20
-2037.0
30
0.0
10
2128.0
20
-2036.0
30
0.0
10
2172.0
20
-2028.0
30
0.0
10
2238.0
20
-2033.0
30
0.0
10
2315.0
20
-2038.0
30
0.0
10
2349.0
20
-2049.0
30
0.0
10
2375.0
20
-2073.0
30
0.0
10
2390.0
20
-2088.0
30
0.0
10
2396.0
20
-2090.0
30
0.0
10
2359.0
20
-2111.0
30
0.0
10
2300.0
20
-2109.0
30
0.0
10
2235.0
20
-2094.0
30
0.0
10
2150.0
20
-2065.0
30
0.0
10
2117.0
20
-2051.0
30
0.0
10
2124.0
20
-2041.0
30
0.0
10
2120.0
20
-2029.0
30
0.0
10
2099.0
20
-1995.0
30
0.0
10
2054.0
20
-1971.0
30
0.0
10
2008.0
20
-1941.0
30
0.0
10
1971.0
20
-1909.0
30
0.0
10
2028.0
20
-1929.0
30
0.0
10
2107.0
20
-2002.0
30
0.0
10
2128.0
20
-2037.0
30
0.0
6
Solid
370
35
62
2
0
LWPOLYLINE
5
649
100
AcDbEntity
8
zone_2_q1
100
AcDbPolyline
90
20
70
1
10
1719.0
20
0.0
30
0.0
10
1741.0
20
-1.0
30
0.0
10
1753.0
20
-8.0
30
0.0
10
1752.0
20
-16.0
30
0.0
10
1745.0
20
-39.0
30
0.0
10
1723.0
20
-106.0
30
0.0
10
1715.0
20
-142.0
30
0.0
10
1719.0
20
-184.0
30
0.0
10
1723.0
20
-207.0
30
0.0
10
1719.0
20
-225.0
30
0.0
10
1715.0
20
-238.0
30
0.0
10
1692.0
20
-301.0
30
0.0
10
1653.0
20
-329.0
30
0.0
10
1621.0
20
-311.0
30
0.0
10
1597.0
20
-246.0
30
0.0
10
1610.0
20
-182.0
30
0.0
10
1633.0
20
-127.0
30
0.0
10
1667.0
20
-65.0
30
0.0
10
1700.0
20
-8.0
30
0.0
10
1719.0
20
0.0
30
0.0
6
Solid
370
35
62
40
0
LWPOLYLINE
5
64c
100
AcDbEntity
8
zone_3_q2
100
AcDbPolyline
90
8
70
1
10
1592.0
20
-65.0
30
0.0
10
1572.0
20
-136.0
30
0.0
10
1569.0
20
-154.0
30
0.0
10
1565.0
20
-153.0
30
0.0
10
1574.0
20
-115.0
30
0.0
10
1584.0
20
-57.0
30
0.0
10
1589.0
20
-23.0
30
0.0
10
1592.0
20
-65.0
30
0.0
6
Solid
370
35
62
2
0
LWPOLYLINE
5
64f
100
AcDbEntity
8
zone_4_q2
100
AcDbPolyline
90
5
70
1
10
1565.0
20
-153.0
30
0.0
10
1548.0
20
-198.0
30
0.0
10
1554.0
20
-195.0
30
0.0
10
1569.0
20
-154.0
30
0.0
10
1565.0
20
-153.0
30
0.0
6
Solid
370
35
62
2
0
LWPOLYLINE
5
652
100
AcDbEntity
8
zone_5_q2
100
AcDbPolyline
90
5
70
1
10
1543.0
20
-208.0
30
0.0
10
1514.0
20
-231.0
30
0.0
10
1503.0
20
-222.0
30
0.0
10
1548.0
20
-198.0
30
0.0
10
1543.0
20
-208.0
30
0.0
6
Solid
370
35
62
2
0
LWPOLYLINE
5
655
100
AcDbEntity
8
zone_6_q2
100
AcDbPolyline
90
7
70
1
10
1503.0
20
-222.0
30
0.0
10
1489.0
20
-229.0
30
0.0
10
1466.0
20
-202.0
30
0.0
10
1458.0
20
-193.0
30
0.0
10
1459.0
20
-191.0
30
0.0
10
1478.0
20
-202.0
30
0.0
10
1503.0
20
-222.0
30
0.0
6
Solid
370
35
62
2
0
LWPOLYLINE
5
658
100
AcDbEntity
8
zone_7_q2
100
AcDbPolyline
90
8
70
1
10
1441.0
20
-249.0
30
0.0
10
1424.0
20
-289.0
30
0.0
10
1408.0
20
-298.0
30
0.0
10
1418.0
20
-267.0
30
0.0
10
1435.0
20
-218.0
30
0.0
10
1449.0
20
-183.0
30
0.0
10
1458.0
20
-193.0
30
0.0
10
1441.0
20
-249.0
30
0.0
6
Solid
370
35
62
2
0
LWPOLYLINE
5
65b
100
AcDbEntity
8
zone_8_q2
100
AcDbPolyline
90
40
70
1
10
878.0
20
-235.0
30
0.0
10
889.0
20
-232.0
30
0.0
10
905.0
20
-214.0
30
0.0
10
921.0
20
-244.0
30
0.0
10
941.0
20
-237.0
30
0.0
10
963.0
20
-214.0
30
0.0
10
972.0
20
-225.0
30
0.0
10
1003.0
20
-230.0
30
0.0
10
1024.0
20
-249.0
30
0.0
10
1031.0
20
-272.0
30
0.0
10
1087.0
20
-263.0
30
0.0
10
1116.0
20
-229.0
30
0.0
10
1155.0
20
-220.0
30
0.0
10
1279.0
20
-179.0
30
0.0
10
1279.0
20
-178.0
30
0.0
10
1284.0
20
-182.0
30
0.0
10
1285.0
20
-181.0
30
0.0
10
1296.0
20
-202.0
30
0.0
10
1327.0
20
-269.0
30
0.0
10
1365.0
20
-324.0
30
0.0
10
1408.0
20
-298.0
30
0.0
10
1401.0
20
-320.0
30
0.0
10
1364.0
20
-343.0
30
0.0
10
1267.0
20
-228.0
30
0.0
10
1276.0
20
-205.0
30
0.0
10
1240.0
20
-216.0
30
0.0
10
1185.0
20
-227.0
30
0.0
10
1150.0
20
-229.0
30
0.0
10
1125.0
20
-250.0
30
0.0
10
1089.0
20
-270.0
30
0.0
10
1065.0
20
-273.0
30
0.0
10
1055.0
20
-272.0
30
0.0
10
985.0
20
-276.0
30
0.0
10
900.0
20
-252.0
30
0.0
10
856.0
20
-242.0
30
0.0
10
853.0
20
-240.0
30
0.0
10
858.0
20
-239.0
30
0.0
10
871.0
20
-244.0
30
0.0
10
880.0
20
-236.0
30
0.0
10
878.0
20
-235.0
30
0.0
6
Solid
370
35
62
2
0
LWPOLYLINE
5
65e
100
AcDbEntity
8
zone_9_q2
100
AcDbPolyline
90
5
70
1
10
1360.0
20
-2167.0
30
0.0
10
1358.0
20
-2167.0
30
0.0
10
1359.0
20
-2163.0
30
0.0
10
1360.0
20
-2163.0
30
0.0
10
1360.0
20
-2167.0
30
0.0
6
Solid
370
35
62
2
0
LWPOLYLINE
5
661
100
AcDbEntity
8
zone_10_q2
100
AcDbPolyline
90
9
70
1
10
1346.0
20
-2217.0
30
0.0
10
1324.0
20
-2249.0
30
0.0
10
1309.0
20
-2254.0
30
0.0
10
1311.0
20
-2252.0
30
0.0
10
1323.0
20
-2236.0
30
0.0
10
1331.0
20
-2218.0
30
0.0
10
1347.0
20
-2190.0
30
0.0
10
1358.0
20
-2170.0
30
0.0
10
1346.0
20
-2217.0
30
0.0
6
Solid
370
35
62
2
0
LWPOLYLINE
5
664
100
AcDbEntity
8
zone_11_q2
100
AcDbPolyline
90
19
70
1
10
1309.0
20
-2254.0
30
0.0
10
1287.0
20
-2273.0
30
0.0
10
1253.0
20
-2287.0
30
0.0
10
1178.0
20
-2266.0
30
0.0
10
1133.0
20
-2269.0
30
0.0
10
1104.0
20
-2280.0
30
0.0
10
1067.0
20
-2294.0
30
0.0
10
1033.0
20
-2307.0
30
0.0
10
1012.0
20
-2272.0
30
0.0
10
1021.0
20
-2241.0
30
0.0
10
1065.0
20
-2249.0
30
0.0
10
1123.0
20
-2254.0
30
0.0
10
1171.0
20
-2266.0
30
0.0
10
1206.0
20
-2262.0
30
0.0
10
1226.0
20
-2268.0
30
0.0
10
1250.0
20
-2272.0
30
0.0
10
1279.0
20
-2265.0
30
0.0
10
1301.0
20
-2256.0
30
0.0
10
1309.0
20
-2254.0
30
0.0
6
Solid
370
35
62
2
0
LWPOLYLINE
5
667
100
AcDbEntity
8
zone_12_q3
100
AcDbPolyline
90
17
70
1
10
757.0
20
-409.0
30
0.0
10
749.0
20
-418.0
30
0.0
10
738.0
20
-423.0
30
0.0
10
715.0
20
-426.0
30
0.0
10
691.0
20
-426.0
30
0.0
10
669.0
20
-423.0
30
0.0
10
643.0
20
-407.0
30
0.0
10
630.0
20
-380.0
30
0.0
10
638.0
20
-364.0
30
0.0
10
654.0
20
-356.0
30
0.0
10
680.0
20
-349.0
30
0.0
10
742.0
20
-347.0
30
0.0
10
765.0
20
-362.0
30
0.0
10
775.0
20
-378.0
30
0.0
10
771.0
20
-398.0
30
0.0
10
767.0
20
-402.0
30
0.0
10
757.0
20
-409.0
30
0.0
6
Solid
370
35
62
3
0
LWPOLYLINE
5
66a
100
AcDbEntity
8
zone_13_q1
100
AcDbPolyline
90
10
70
1
10
643.0
20
-1831.0
30
0.0
10
645.0
20
-1831.0
30
0.0
10
649.0
20
-1830.0
30
0.0
10
652.0
20
-1830.0
30
0.0
10
654.0
20
-1833.0
30
0.0
10
654.0
20
-1836.0
30
0.0
10
650.0
20
-1838.0
30
0.0
10
644.0
20
-1837.0
30
0.0
10
640.0
20
-1833.0
30
0.0
10
643.0
20
-1831.0
30
0.0
6
Solid
370
35
62
40
0
LWPOLYLINE
5
66d
100
AcDbEntity
8
zone_14_q1
100
AcDbPolyline
90
16
70
1
10
620.0
20
-1819.0
30
0.0
10
617.0
20
-1819.0
30
0.0
10
620.0
20
-1815.0
30
0.0
10
620.0
20
-1817.0
30
0.0
10
622.0
20
-1813.0
30
0.0
10
622.0
20
-1783.0
30
0.0
10
626.0
20
-1783.0
30
0.0
10
622.0
20
-1817.0
30
0.0
10
624.0
20
-1817.0
30
0.0
10
621.0
20
-1832.0
30
0.0
10
622.0
20
-1847.0
30
0.0
10
619.0
20
-1855.0
30
0.0
10
619.0
20
-1857.0
30
0.0
10
621.0
20
-1859.0
30
0.0
10
617.0
20
-1859.0
30
0.0
10
620.0
20
-1819.0
30
0.0
6
Solid
370
35
62
40
0
LWPOLYLINE
5
670
100
AcDbEntity
8
zone_15_q1
100
AcDbPolyline
90
26
70
1
10
562.0
20
-2144.0
30
0.0
10
565.0
20
-2130.0
30
0.0
10
595.0
20
-2152.0
30
0.0
10
609.0
20
-2192.0
30
0.0
10
608.0
20
-2271.0
30
0.0
10
608.0
20
-2281.0
30
0.0
10
596.0
20
-2276.0
30
0.0
10
575.0
20
-2274.0
30
0.0
10
574.0
20
-2269.0
30
0.0
10
572.0
20
-2252.0
30
0.0
10
576.0
20
-2227.0
30
0.0
10
563.0
20
-2173.0
30
0.0
10
563.0
20
-2183.0
30
0.0
10
546.0
20
-2250.0
30
0.0
10
493.0
20
-2315.0
30
0.0
10
458.0
20
-2318.0
30
0.0
10
457.0
20
-2318.0
30
0.0
10
431.0
20
-2324.0
30
0.0
10
415.0
20
-2326.0
30
0.0
10
381.0
20
-2329.0
30
0.0
10
373.0
20
-2335.0
30
0.0
10
399.0
20
-2249.0
30
0.0
10
430.0
20
-2212.0
30
0.0
10
532.0
20
-2142.0
30
0.0
10
562.0
20
-2142.0
30
0.0
10
562.0
20
-2144.0
30
0.0
6
Solid
370
35
62
40
0
LWPOLYLINE
5
673
100
AcDbEntity
8
zone_16_q2
100
AcDbPolyline
90
16
70
1
10
407.0
20
-140.0
30
0.0
10
458.0
20
-168.0
30
0.0
10
519.0
20
-204.0
30
0.0
10
551.0
20
-224.0
30
0.0
10
567.0
20
-236.0
30
0.0
10
603.0
20
-256.0
30
0.0
10
628.0
20
-276.0
30
0.0
10
642.0
20
-282.0
30
0.0
10
633.0
20
-296.0
30
0.0
10
604.0
20
-321.0
30
0.0
10
574.0
20
-329.0
30
0.0
10
532.0
20
-299.0
30
0.0
10
442.0
20
-195.0
30
0.0
10
421.0
20
-165.0
30
0.0
10
407.0
20
-142.0
30
0.0
10
407.0
20
-140.0
30
0.0
6
Solid
370
35
62
2
0
LWPOLYLINE
5
676
100
AcDbEntity
8
zone_17_q2
100
AcDbPolyline
90
10
70
1
10
430.0
20
-424.0
30
0.0
10
423.0
20
-418.0
30
0.0
10
418.0
20
-407.0
30
0.0
10
421.0
20
-402.0
30
0.0
10
422.0
20
-402.0
30
0.0
10
423.0
20
-402.0
30
0.0
10
429.0
20
-409.0
30
0.0
10
438.0
20
-419.0
30
0.0
10
438.0
20
-420.0
30
0.0
10
430.0
20
-424.0
30
0.0
6
Solid
370
35
62
2
0
LWPOLYLINE
5
679
100
AcDbEntity
8
zone_18_q2
100
AcDbPolyline
90
8
70
1
10
464.0
20
-385.0
30
0.0
10
451.0
20
-379.0
30
0.0
10
452.0
20
-374.0
30
0.0
10
460.0
20
-369.0
30
0.0
10
465.0
20
-378.0
30
0.0
10
465.0
20
-382.0
30
0.0
10
464.0
20
-383.0
30
0.0
10
464.0
20
-385.0
30
0.0
6
Solid
370
35
62
2
0
LWPOLYLINE
5
67c
100
AcDbEntity
8
zone_19_q1
100
AcDbPolyline
90
12
70
1
10
484.0
20
-679.0
30
0.0
10
483.0
20
-680.0
30
0.0
10
482.0
20
-681.0
30
0.0
10
482.0
20
-682.0
30
0.0
10
479.0
20
-685.0
30
0.0
10
477.0
20
-686.0
30
0.0
10
468.0
20
-680.0
30
0.0
10
461.0
20
-667.0
30
0.0
10
466.0
20
-660.0
30
0.0
10
471.0
20
-661.0
30
0.0
10
480.0
20
-669.0
30
0.0
10
484.0
20
-679.0
30
0.0
6
Solid
370
35
62
40
0
LWPOLYLINE
5
67f
100
AcDbEntity
8
zone_20_q2
100
AcDbPolyline
90
13
70
1
10
406.0
20
-755.0
30
0.0
10
396.0
20
-760.0
30
0.0
10
327.0
20
-753.0
30
0.0
10
306.0
20
-736.0
30
0.0
10
304.0
20
-708.0
30
0.0
10
324.0
20
-671.0
30
0.0
10
368.0
20
-661.0
30
0.0
10
385.0
20
-672.0
30
0.0
10
408.0
20
-695.0
30
0.0
10
418.0
20
-749.0
30
0.0
10
417.0
20
-761.0
30
0.0
10
407.0
20
-770.0
30
0.0
10
406.0
20
-755.0
30
0.0
6
Solid
370
35
62
2
0
LWPOLYLINE
5
682
100
AcDbEntity
8
zone_21_q1
100
AcDbPolyline
90
8
70
1
10
195.0
20
-465.0
30
0.0
10
196.0
20
-439.0
30
0.0
10
206.0
20
-409.0
30
0.0
10
215.0
20
-416.0
30
0.0
10
217.0
20
-440.0
30
0.0
10
199.0
20
-468.0
30
0.0
10
185.0
20
-466.0
30
0.0
10
195.0
20
-465.0
30
0.0
6
Solid
370
35
62
40
0
LWPOLYLINE
5
685
100
AcDbEntity
8
zone_22_q1
100
AcDbPolyline
90
8
70
1
10
323.0
20
-1283.0
30
0.0
10
307.0
20
-1286.0
30
0.0
10
288.0
20
-1293.0
30
0.0
10
282.0
20
-1292.0
30
0.0
10
293.0
20
-1284.0
30
0.0
10
303.0
20
-1282.0
30
0.0
10
311.0
20
-1282.0
30
0.0
10
323.0
20
-1283.0
30
0.0
6
Solid
370
35
62
40
0
LWPOLYLINE
5
688
100
AcDbEntity
8
zone_23_q2
100
AcDbPolyline
90
12
70
1
10
453.0
20
-2049.0
30
0.0
10
437.0
20
-2069.0
30
0.0
10
395.0
20
-2095.0
30
0.0
10
375.0
20
-2087.0
30
0.0
10
363.0
20
-2068.0
30
0.0
10
355.0
20
-2019.0
30
0.0
10
372.0
20
-1957.0
30
0.0
10
390.0
20
-1938.0
30
0.0
10
440.0
20
-1916.0
30
0.0
10
473.0
20
-1968.0
30
0.0
10
471.0
20
-1997.0
30
0.0
10
453.0
20
-2049.0
30
0.0
6
Solid
370
35
62
2
0
LWPOLYLINE
5
68b
100
AcDbEntity
8
zone_24_q3
100
AcDbPolyline
90
10
70
1
10
117.0
20
-1931.0
30
0.0
10
120.0
20
-1928.0
30
0.0
10
137.0
20
-1916.0
30
0.0
10
175.0
20
-1888.0
30
0.0
10
196.0
20
-1876.0
30
0.0
10
219.0
20
-1865.0
30
0.0
10
217.0
20
-1871.0
30
0.0
10
162.0
20
-1924.0
30
0.0
10
118.0
20
-1956.0
30
0.0
10
117.0
20
-1931.0
30
0.0
6
Solid
370
35
62
3
0
LWPOLYLINE
5
68e
100
AcDbEntity
8
zone_25_q2
100
AcDbPolyline
90
20
70
1
10
622.0
20
-2249.0
30
0.0
10
623.0
20
-2245.0
30
0.0
10
553.0
20
-2107.0
30
0.0
10
525.0
20
-2118.0
30
0.0
10
377.0
20
-2234.0
30
0.0
10
285.0
20
-2360.0
30
0.0
10
259.0
20
-2344.0
30
0.0
10
292.0
20
-2298.0
30
0.0
10
335.0
20
-2226.0
30
0.0
10
381.0
20
-2174.0
30
0.0
10
422.0
20
-2122.0
30
0.0
10
478.0
20
-2075.0
30
0.0
10
583.0
20
-2048.0
30
0.0
10
600.0
20
-2065.0
30
0.0
10
616.0
20
-2094.0
30
0.0
10
631.0
20
-2117.0
30
0.0
10
636.0
20
-2179.0
30
0.0
10
628.0
20
-2249.0
30
0.0
10
625.0
20
-2283.0
30
0.0
10
622.0
20
-2249.0
30
0.0
6
Solid
370
35
62
2
0
ENDSEC
0
SECTION
2
OBJECTS
0
DICTIONARY
5
5fe
330
0
100
AcDbDictionary
281
1
3
ACAD_GROUP
350
5ff
0
DICTIONARY
5
5ff
330
5fe
100
AcDbDictionary
281
1
0
ENDSEC
0
EOF
