999

0
SECTION
2
HEADER
9
$ACADVER
1
AC1021
9
$HANDSEED
5
728
0
ENDSEC
0
SECTION
2
CLASSES
0
ENDSEC
0
SECTION
2
TABLES
0
TABLE
2
VPORT
5
691
100
AcDbSymbolTable
70
1
0
VPORT
5
690
100
AcDbSymbolTableRecord
100
AcDbViewportTableRecord
2
*ACTIVE
10
0
20
0
11
1
21
1
12
500.0
22
500.0
40
1000.0
70
0
0
ENDTAB
0
TABLE
2
LTYPE
5
692
100
AcDbSymbolTable
70
3
0
LTYPE
5
69a
100
AcDbSymbolTableRecord
100
AcDbLinetypeTableRecord
2
Solid
70
0
72
65
73
0
3

0
LTYPE
5
69b
100
AcDbSymbolTableRecord
100
AcDbLinetypeTableRecord
2
ByBlock
70
0
72
65
73
0
3

0
LTYPE
5
69c
100
AcDbSymbolTableRecord
100
AcDbLinetypeTableRecord
2
ByLayer
70
0
72
65
73
0
3

0
ENDTAB
0
TABLE
2
LAYER
5
693
100
AcDbSymbolTable
70
26
0
LAYER
5
69d
100
AcDbSymbolTableRecord
100
AcDbLayerTableRecord
2
0
70
0
390
0
0
LAYER
5
6dd
100
AcDbSymbolTableRecord
100
AcDbLayerTableRecord
2
zone_0_q2
70
0
390
0
0
LAYER
5
6e0
100
AcDbSymbolTableRecord
100
AcDbLayerTableRecord
2
zone_1_q2
70
0
390
0
0
LAYER
5
6e3
100
AcDbSymbolTableRecord
100
AcDbLayerTableRecord
2
zone_2_q2
70
0
390
0
0
LAYER
5
6e6
100
AcDbSymbolTableRecord
100
AcDbLayerTableRecord
2
zone_3_q2
70
0
390
0
0
LAYER
5
6e9
100
AcDbSymbolTableRecord
100
AcDbLayerTableRecord
2
zone_4_q2
70
0
390
0
0
LAYER
5
6ec
100
AcDbSymbolTableRecord
100
AcDbLayerTableRecord
2
zone_5_q2
70
0
390
0
0
LAYER
5
6ef
100
AcDbSymbolTableRecord
100
AcDbLayerTableRecord
2
zone_6_q2
70
0
390
0
0
LAYER
5
6f2
100
AcDbSymbolTableRecord
100
AcDbLayerTableRecord
2
zone_7_q2
70
0
390
0
0
LAYER
5
6f5
100
AcDbSymbolTableRecord
100
AcDbLayerTableRecord
2
zone_8_q1
70
0
390
0
0
LAYER
5
6f8
100
AcDbSymbolTableRecord
100
AcDbLayerTableRecord
2
zone_9_q1
70
0
390
0
0
LAYER
5
6fb
100
AcDbSymbolTableRecord
100
AcDbLayerTableRecord
2
zone_10_q2
70
0
390
0
0
LAYER
5
6fe
100
AcDbSymbolTableRecord
100
AcDbLayerTableRecord
2
zone_11_q2
70
0
390
0
0
LAYER
5
701
100
AcDbSymbolTableRecord
100
AcDbLayerTableRecord
2
zone_12_q2
70
0
390
0
0
LAYER
5
704
100
AcDbSymbolTableRecord
100
AcDbLayerTableRecord
2
zone_13_q2
70
0
390
0
0
LAYER
5
707
100
AcDbSymbolTableRecord
100
AcDbLayerTableRecord
2
zone_14_q2
70
0
390
0
0
LAYER
5
70a
100
AcDbSymbolTableRecord
100
AcDbLayerTableRecord
2
zone_15_q2
70
0
390
0
0
LAYER
5
70d
100
AcDbSymbolTableRecord
100
AcDbLayerTableRecord
2
zone_16_q2
70
0
390
0
0
LAYER
5
710
100
AcDbSymbolTableRecord
100
AcDbLayerTableRecord
2
zone_17_q2
70
0
390
0
0
LAYER
5
713
100
AcDbSymbolTableRecord
100
AcDbLayerTableRecord
2
zone_18_q2
70
0
390
0
0
LAYER
5
716
100
AcDbSymbolTableRecord
100
AcDbLayerTableRecord
2
zone_19_q2
70
0
390
0
0
LAYER
5
719
100
AcDbSymbolTableRecord
100
AcDbLayerTableRecord
2
zone_20_q1
70
0
390
0
0
LAYER
5
71c
100
AcDbSymbolTableRecord
100
AcDbLayerTableRecord
2
zone_21_q1
70
0
390
0
0
LAYER
5
71f
100
AcDbSymbolTableRecord
100
AcDbLayerTableRecord
2
zone_22_q1
70
0
390
0
0
LAYER
5
722
100
AcDbSymbolTableRecord
100
AcDbLayerTableRecord
2
zone_23_q1
70
0
390
0
0
LAYER
5
725
100
AcDbSymbolTableRecord
100
AcDbLayerTableRecord
2
zone_24_q1
70
0
390
0
0
ENDTAB
0
TABLE
2
STYLE
5
694
100
AcDbSymbolTable
70
0
0
ENDTAB
0
TABLE
2
VIEW
5
695
100
AcDbSymbolTable
70
0
0
ENDTAB
0
TABLE
2
UCS
5
696
100
AcDbSymbolTable
70
0
0
ENDTAB
0
TABLE
2
APPID
5
697
100
AcDbSymbolTable
70
1
0
APPID
5
69e
100
AcDbSymbolTableRecord
100
AcDbRegAppTableRecord
2
ACAD
70
0
0
ENDTAB
0
TABLE
2
DIMSTYLE
5
698
100
AcDbSymbolTable
70
0
100
AcDbDimStyleTable
71
1
0
ENDTAB
0
TABLE
2
BLOCK_RECORD
5
699
100
AcDbSymbolTable
70
2
0
BLOCK_RECORD
5
69f
100
AcDbSymbolTableRecord
100
AcDbBlockTableRecord
2
*Model_Space
70
0
280
1
281
0
0
BLOCK_RECORD
5
6a0
100
AcDbSymbolTableRecord
100
AcDbBlockTableRecord
2
*Paper_Space
70
0
280
1
281
0
0
ENDTAB
0
ENDSEC
0
SECTION
2
BLOCKS
0
BLOCK
5
6a1
100
AcDbEntity
100
AcDbBlockBegin
2
*Model_Space
70
0
10
0
20
0
30
0
3
*Model_Space
1

0
ENDBLK
5
6a2
100
AcDbEntity
100
AcDbBlockEnd
0
BLOCK
5
6a3
100
AcDbEntity
100
AcDbBlockBegin
2
*Paper_Space
70
0
10
0
20
0
30
0
3
*Paper_Space
1

0
ENDBLK
5
6a4
100
AcDbEntity
100
AcDbBlockEnd
0
ENDSEC
0
SECTION
2
ENTITIES
0
LWPOLYLINE
5
6a7
100
AcDbEntity
100
AcDbPolyline
90
298
70
1
10
2655.0
20
-1008.0
30
0.0
10
2652.0
20
-1033.0
30
0.0
10
2624.0
20
-1049.0
30
0.0
10
2575.0
20
-1081.0
30
0.0
10
2559.0
20
-1122.0
30
0.0
10
2548.0
20
-1165.0
30
0.0
10
2545.0
20
-1190.0
30
0.0
10
2546.0
20
-1220.0
30
0.0
10
2557.0
20
-1239.0
30
0.0
10
2562.0
20
-1268.0
30
0.0
10
2562.0
20
-1269.0
30
0.0
10
2547.0
20
-1286.0
30
0.0
10
2496.0
20
-1328.0
30
0.0
10
2473.0
20
-1362.0
30
0.0
10
2459.0
20
-1426.0
30
0.0
10
2463.0
20
-1450.0
30
0.0
10
2471.0
20
-1480.0
30
0.0
10
2489.0
20
-1535.0
30
0.0
10
2512.0
20
-1603.0
30
0.0
10
2540.0
20
-1676.0
30
0.0
10
2538.0
20
-1707.0
30
0.0
10
2505.0
20
-1725.0
30
0.0
10
2467.0
20
-1723.0
30
0.0
10
2435.0
20
-1727.0
30
0.0
10
2426.0
20
-1742.0
30
0.0
10
2429.0
20
-1763.0
30
0.0
10
2448.0
20
-1797.0
30
0.0
10
2499.0
20
-1844.0
30
0.0
10
2520.0
20
-1887.0
30
0.0
10
2560.0
20
-1996.0
30
0.0
10
2562.0
20
-2040.0
30
0.0
10
2567.0
20
-2068.0
30
0.0
10
2601.0
20
-2174.0
30
0.0
10
2596.0
20
-2186.0
30
0.0
10
2584.0
20
-2191.0
30
0.0
10
2564.0
20
-2179.0
30
0.0
10
2522.0
20
-2156.0
30
0.0
10
2507.0
20
-2157.0
30
0.0
10
2491.0
20
-2149.0
30
0.0
10
2471.0
20
-2120.0
30
0.0
10
2446.0
20
-2096.0
30
0.0
10
2417.0
20
-2092.0
30
0.0
10
2386.0
20
-2099.0
30
0.0
10
2358.0
20
-2106.0
30
0.0
10
2286.0
20
-2092.0
30
0.0
10
2274.0
20
-2100.0
30
0.0
10
2265.0
20
-2124.0
30
0.0
10
2279.0
20
-2198.0
30
0.0
10
2277.0
20
-2220.0
30
0.0
10
2267.0
20
-2238.0
30
0.0
10
2248.0
20
-2243.0
30
0.0
10
2201.0
20
-2215.0
30
0.0
10
2164.0
20
-2202.0
30
0.0
10
2121.0
20
-2203.0
30
0.0
10
2073.0
20
-2234.0
30
0.0
10
2051.0
20
-2232.0
30
0.0
10
2021.0
20
-2238.0
30
0.0
10
2004.0
20
-2255.0
30
0.0
10
2001.0
20
-2286.0
30
0.0
10
2008.0
20
-2306.0
30
0.0
10
2006.0
20
-2308.0
30
0.0
10
1982.0
20
-2312.0
30
0.0
10
1951.0
20
-2300.0
30
0.0
10
1943.0
20
-2285.0
30
0.0
10
1932.0
20
-2269.0
30
0.0
10
1917.0
20
-2270.0
30
0.0
10
1901.0
20
-2294.0
30
0.0
10
1895.0
20
-2353.0
30
0.0
10
1906.0
20
-2406.0
30
0.0
10
1906.0
20
-2505.0
30
0.0
10
1899.0
20
-2536.0
30
0.0
10
1884.0
20
-2539.0
30
0.0
10
1846.0
20
-2517.0
30
0.0
10
1809.0
20
-2484.0
30
0.0
10
1769.0
20
-2466.0
30
0.0
10
1751.0
20
-2460.0
30
0.0
10
1736.0
20
-2466.0
30
0.0
10
1711.0
20
-2445.0
30
0.0
10
1678.0
20
-2450.0
30
0.0
10
1653.0
20
-2443.0
30
0.0
10
1644.0
20
-2455.0
30
0.0
10
1646.0
20
-2509.0
30
0.0
10
1662.0
20
-2560.0
30
0.0
10
1734.0
20
-2664.0
30
0.0
10
1738.0
20
-2685.0
30
0.0
10
1737.0
20
-2685.0
30
0.0
10
1703.0
20
-2681.0
30
0.0
10
1666.0
20
-2660.0
30
0.0
10
1610.0
20
-2635.0
30
0.0
10
1534.0
20
-2588.0
30
0.0
10
1473.0
20
-2526.0
30
0.0
10
1450.0
20
-2495.0
30
0.0
10
1436.0
20
-2476.0
30
0.0
10
1376.0
20
-2429.0
30
0.0
10
1355.0
20
-2421.0
30
0.0
10
1319.0
20
-2391.0
30
0.0
10
1279.0
20
-2378.0
30
0.0
10
1243.0
20
-2373.0
30
0.0
10
1188.0
20
-2364.0
30
0.0
10
1167.0
20
-2369.0
30
0.0
10
1112.0
20
-2373.0
30
0.0
10
1106.0
20
-2363.0
30
0.0
10
1081.0
20
-2378.0
30
0.0
10
1054.0
20
-2384.0
30
0.0
10
980.0
20
-2406.0
30
0.0
10
955.0
20
-2392.0
30
0.0
10
925.0
20
-2364.0
30
0.0
10
898.0
20
-2355.0
30
0.0
10
864.0
20
-2348.0
30
0.0
10
821.0
20
-2356.0
30
0.0
10
790.0
20
-2354.0
30
0.0
10
756.0
20
-2351.0
30
0.0
10
703.0
20
-2366.0
30
0.0
10
608.0
20
-2429.0
30
0.0
10
598.0
20
-2429.0
30
0.0
10
592.0
20
-2417.0
30
0.0
10
588.0
20
-2395.0
30
0.0
10
576.0
20
-2377.0
30
0.0
10
562.0
20
-2369.0
30
0.0
10
537.0
20
-2390.0
30
0.0
10
482.0
20
-2418.0
30
0.0
10
463.0
20
-2420.0
30
0.0
10
441.0
20
-2422.0
30
0.0
10
404.0
20
-2407.0
30
0.0
10
356.0
20
-2421.0
30
0.0
10
304.0
20
-2437.0
30
0.0
10
272.0
20
-2455.0
30
0.0
10
193.0
20
-2541.0
30
0.0
10
147.0
20
-2577.0
30
0.0
10
99.0
20
-2582.0
30
0.0
10
64.0
20
-2563.0
30
0.0
10
59.0
20
-2546.0
30
0.0
10
59.0
20
-2544.0
30
0.0
10
54.0
20
-2532.0
30
0.0
10
53.0
20
-2517.0
30
0.0
10
63.0
20
-2495.0
30
0.0
10
121.0
20
-2444.0
30
0.0
10
149.0
20
-2405.0
30
0.0
10
164.0
20
-2390.0
30
0.0
10
162.0
20
-2374.0
30
0.0
10
145.0
20
-2350.0
30
0.0
10
135.0
20
-2334.0
30
0.0
10
109.0
20
-2320.0
30
0.0
10
79.0
20
-2289.0
30
0.0
10
18.0
20
-2241.0
30
0.0
10
4.0
20
-2229.0
30
0.0
10
0.0
20
-2217.0
30
0.0
10
6.0
20
-2192.0
30
0.0
10
48.0
20
-2132.0
30
0.0
10
58.0
20
-2088.0
30
0.0
10
59.0
20
-2063.0
30
0.0
10
69.0
20
-2004.0
30
0.0
10
67.0
20
-1991.0
30
0.0
10
54.0
20
-1960.0
30
0.0
10
47.0
20
-1908.0
30
0.0
10
42.0
20
-1883.0
30
0.0
10
44.0
20
-1873.0
30
0.0
10
25.0
20
-1833.0
30
0.0
10
12.0
20
-1790.0
30
0.0
10
7.0
20
-1759.0
30
0.0
10
0.0
20
-1646.0
30
0.0
10
16.0
20
-1549.0
30
0.0
10
43.0
20
-1512.0
30
0.0
10
103.0
20
-1463.0
30
0.0
10
239.0
20
-1369.0
30
0.0
10
250.0
20
-1335.0
30
0.0
10
262.0
20
-1317.0
30
0.0
10
280.0
20
-1286.0
30
0.0
10
286.0
20
-1240.0
30
0.0
10
291.0
20
-1221.0
30
0.0
10
295.0
20
-1188.0
30
0.0
10
303.0
20
-1166.0
30
0.0
10
314.0
20
-1120.0
30
0.0
10
297.0
20
-1070.0
30
0.0
10
287.0
20
-1033.0
30
0.0
10
270.0
20
-986.0
30
0.0
10
208.0
20
-906.0
30
0.0
10
168.0
20
-855.0
30
0.0
10
167.0
20
-805.0
30
0.0
10
170.0
20
-777.0
30
0.0
10
191.0
20
-718.0
30
0.0
10
203.0
20
-681.0
30
0.0
10
249.0
20
-626.0
30
0.0
10
273.0
20
-586.0
30
0.0
10
287.0
20
-566.0
30
0.0
10
300.0
20
-546.0
30
0.0
10
315.0
20
-522.0
30
0.0
10
327.0
20
-487.0
30
0.0
10
332.0
20
-434.0
30
0.0
10
336.0
20
-374.0
30
0.0
10
350.0
20
-317.0
30
0.0
10
353.0
20
-261.0
30
0.0
10
376.0
20
-267.0
30
0.0
10
391.0
20
-299.0
30
0.0
10
437.0
20
-405.0
30
0.0
10
463.0
20
-430.0
30
0.0
10
483.0
20
-416.0
30
0.0
10
484.0
20
-397.0
30
0.0
10
464.0
20
-314.0
30
0.0
10
449.0
20
-233.0
30
0.0
10
430.0
20
-185.0
30
0.0
10
397.0
20
-145.0
30
0.0
10
368.0
20
-129.0
30
0.0
10
366.0
20
-106.0
30
0.0
10
376.0
20
-74.0
30
0.0
10
404.0
20
-60.0
30
0.0
10
457.0
20
-48.0
30
0.0
10
503.0
20
-14.0
30
0.0
10
521.0
20
0.0
30
0.0
10
540.0
20
-10.0
30
0.0
10
555.0
20
-31.0
30
0.0
10
600.0
20
-97.0
30
0.0
10
619.0
20
-137.0
30
0.0
10
672.0
20
-180.0
30
0.0
10
688.0
20
-200.0
30
0.0
10
721.0
20
-231.0
30
0.0
10
746.0
20
-235.0
30
0.0
10
803.0
20
-262.0
30
0.0
10
854.0
20
-302.0
30
0.0
10
879.0
20
-298.0
30
0.0
10
904.0
20
-306.0
30
0.0
10
919.0
20
-300.0
30
0.0
10
934.0
20
-279.0
30
0.0
10
971.0
20
-262.0
30
0.0
10
989.0
20
-257.0
30
0.0
10
1017.0
20
-258.0
30
0.0
10
1052.0
20
-288.0
30
0.0
10
1068.0
20
-298.0
30
0.0
10
1108.0
20
-316.0
30
0.0
10
1133.0
20
-311.0
30
0.0
10
1173.0
20
-318.0
30
0.0
10
1207.0
20
-317.0
30
0.0
10
1234.0
20
-304.0
30
0.0
10
1290.0
20
-285.0
30
0.0
10
1317.0
20
-282.0
30
0.0
10
1348.0
20
-304.0
30
0.0
10
1385.0
20
-319.0
30
0.0
10
1416.0
20
-324.0
30
0.0
10
1429.0
20
-325.0
30
0.0
10
1453.0
20
-319.0
30
0.0
10
1518.0
20
-324.0
30
0.0
10
1558.0
20
-322.0
30
0.0
10
1601.0
20
-290.0
30
0.0
10
1625.0
20
-283.0
30
0.0
10
1663.0
20
-260.0
30
0.0
10
1694.0
20
-222.0
30
0.0
10
1728.0
20
-176.0
30
0.0
10
1760.0
20
-146.0
30
0.0
10
1804.0
20
-123.0
30
0.0
10
1835.0
20
-111.0
30
0.0
10
1857.0
20
-95.0
30
0.0
10
1904.0
20
-73.0
30
0.0
10
1903.0
20
-95.0
30
0.0
10
1895.0
20
-188.0
30
0.0
10
1879.0
20
-211.0
30
0.0
10
1872.0
20
-251.0
30
0.0
10
1863.0
20
-296.0
30
0.0
10
1870.0
20
-329.0
30
0.0
10
1859.0
20
-355.0
30
0.0
10
1861.0
20
-377.0
30
0.0
10
1874.0
20
-403.0
30
0.0
10
1905.0
20
-420.0
30
0.0
10
1932.0
20
-424.0
30
0.0
10
1973.0
20
-413.0
30
0.0
10
1991.0
20
-430.0
30
0.0
10
1995.0
20
-459.0
30
0.0
10
1973.0
20
-494.0
30
0.0
10
1969.0
20
-519.0
30
0.0
10
1983.0
20
-530.0
30
0.0
10
2004.0
20
-533.0
30
0.0
10
2035.0
20
-540.0
30
0.0
10
2105.0
20
-567.0
30
0.0
10
2112.0
20
-605.0
30
0.0
10
2126.0
20
-627.0
30
0.0
10
2153.0
20
-634.0
30
0.0
10
2134.0
20
-664.0
30
0.0
10
2135.0
20
-686.0
30
0.0
10
2153.0
20
-723.0
30
0.0
10
2191.0
20
-756.0
30
0.0
10
2234.0
20
-775.0
30
0.0
10
2247.0
20
-777.0
30
0.0
10
2319.0
20
-761.0
30
0.0
10
2392.0
20
-719.0
30
0.0
10
2461.0
20
-734.0
30
0.0
10
2483.0
20
-746.0
30
0.0
10
2482.0
20
-764.0
30
0.0
10
2433.0
20
-837.0
30
0.0
10
2415.0
20
-887.0
30
0.0
10
2429.0
20
-906.0
30
0.0
10
2457.0
20
-910.0
30
0.0
10
2530.0
20
-895.0
30
0.0
10
2553.0
20
-899.0
30
0.0
10
2563.0
20
-924.0
30
0.0
10
2606.0
20
-960.0
30
0.0
10
2625.0
20
-984.0
30
0.0
10
2647.0
20
-995.0
30
0.0
10
2655.0
20
-1007.0
30
0.0
10
2655.0
20
-1008.0
30
0.0
6
Solid
370
35
62
0
0
LWPOLYLINE
5
6a9
100
AcDbEntity
100
AcDbPolyline
90
6
70
1
10
1740.0
20
-2457.0
30
0.0
10
1739.0
20
-2457.0
30
0.0
10
1714.0
20
-2430.0
30
0.0
10
1729.0
20
-2434.0
30
0.0
10
1743.0
20
-2454.0
30
0.0
10
1740.0
20
-2457.0
30
0.0
6
Solid
370
35
62
0
0
LWPOLYLINE
5
6ab
100
AcDbEntity
100
AcDbPolyline
90
8
70
1
10
2462.0
20
-1376.0
30
0.0
10
2458.0
20
-1375.0
30
0.0
10
2443.0
20
-1367.0
30
0.0
10
2440.0
20
-1364.0
30
0.0
10
2452.0
20
-1359.0
30
0.0
10
2455.0
20
-1359.0
30
0.0
10
2459.0
20
-1361.0
30
0.0
10
2462.0
20
-1376.0
30
0.0
6
Solid
370
35
62
0
0
LWPOLYLINE
5
6ad
100
AcDbEntity
100
AcDbPolyline
90
17
70
1
10
2450.0
20
-1373.0
30
0.0
10
2452.0
20
-1376.0
30
0.0
10
2451.0
20
-1378.0
30
0.0
10
2451.0
20
-1379.0
30
0.0
10
2448.0
20
-1381.0
30
0.0
10
2447.0
20
-1381.0
30
0.0
10
2445.0
20
-1381.0
30
0.0
10
2444.0
20
-1380.0
30
0.0
10
2442.0
20
-1378.0
30
0.0
10
2442.0
20
-1377.0
30
0.0
10
2443.0
20
-1376.0
30
0.0
10
2444.0
20
-1374.0
30
0.0
10
2446.0
20
-1373.0
30
0.0
10
2447.0
20
-1373.0
30
0.0
10
2448.0
20
-1373.0
30
0.0
10
2449.0
20
-1374.0
30
0.0
10
2450.0
20
-1373.0
30
0.0
6
Solid
370
35
62
0
0
LWPOLYLINE
5
6af
100
AcDbEntity
100
AcDbPolyline
90
8
70
1
10
2427.0
20
-1702.0
30
0.0
10
2425.0
20
-1705.0
30
0.0
10
2415.0
20
-1705.0
30
0.0
10
2418.0
20
-1698.0
30
0.0
10
2424.0
20
-1696.0
30
0.0
10
2429.0
20
-1698.0
30
0.0
10
2427.0
20
-1704.0
30
0.0
10
2427.0
20
-1702.0
30
0.0
6
Solid
370
35
62
0
0
LWPOLYLINE
5
6b1
100
AcDbEntity
100
AcDbPolyline
90
9
70
1
10
2420.0
20
-901.0
30
0.0
10
2417.0
20
-903.0
30
0.0
10
2391.0
20
-914.0
30
0.0
10
2376.0
20
-916.0
30
0.0
10
2384.0
20
-899.0
30
0.0
10
2396.0
20
-887.0
30
0.0
10
2403.0
20
-878.0
30
0.0
10
2408.0
20
-873.0
30
0.0
10
2420.0
20
-901.0
30
0.0
6
Solid
370
35
62
0
0
LWPOLYLINE
5
6b3
100
AcDbEntity
100
AcDbPolyline
90
7
70
1
10
2298.0
20
-766.0
30
0.0
10
2319.0
20
-761.0
30
0.0
10
2324.0
20
-758.0
30
0.0
10
2321.0
20
-762.0
30
0.0
10
2309.0
20
-769.0
30
0.0
10
2299.0
20
-767.0
30
0.0
10
2298.0
20
-766.0
30
0.0
6
Solid
370
35
62
0
0
LWPOLYLINE
5
6b5
100
AcDbEntity
100
AcDbPolyline
90
14
70
1
10
2241.0
20
-776.0
30
0.0
10
2247.0
20
-777.0
30
0.0
10
2266.0
20
-773.0
30
0.0
10
2265.0
20
-774.0
30
0.0
10
2260.0
20
-785.0
30
0.0
10
2255.0
20
-792.0
30
0.0
10
2251.0
20
-800.0
30
0.0
10
2237.0
20
-816.0
30
0.0
10
2231.0
20
-818.0
30
0.0
10
2230.0
20
-811.0
30
0.0
10
2233.0
20
-803.0
30
0.0
10
2237.0
20
-792.0
30
0.0
10
2240.0
20
-779.0
30
0.0
10
2241.0
20
-776.0
30
0.0
6
Solid
370
35
62
0
0
LWPOLYLINE
5
6b7
100
AcDbEntity
100
AcDbPolyline
90
11
70
1
10
2148.0
20
-712.0
30
0.0
10
2153.0
20
-723.0
30
0.0
10
2159.0
20
-728.0
30
0.0
10
2169.0
20
-746.0
30
0.0
10
2168.0
20
-748.0
30
0.0
10
2143.0
20
-771.0
30
0.0
10
2139.0
20
-773.0
30
0.0
10
2130.0
20
-771.0
30
0.0
10
2136.0
20
-745.0
30
0.0
10
2141.0
20
-729.0
30
0.0
10
2148.0
20
-712.0
30
0.0
6
Solid
370
35
62
0
0
LWPOLYLINE
5
6b9
100
AcDbEntity
100
AcDbPolyline
90
9
70
1
10
2138.0
20
-698.0
30
0.0
10
2134.0
20
-702.0
30
0.0
10
2121.0
20
-705.0
30
0.0
10
2087.0
20
-708.0
30
0.0
10
2095.0
20
-695.0
30
0.0
10
2113.0
20
-684.0
30
0.0
10
2125.0
20
-680.0
30
0.0
10
2130.0
20
-678.0
30
0.0
10
2138.0
20
-698.0
30
0.0
6
Solid
370
35
62
0
0
LWPOLYLINE
5
6bb
100
AcDbEntity
100
AcDbPolyline
90
14
70
1
10
1980.0
20
-528.0
30
0.0
10
1983.0
20
-530.0
30
0.0
10
1998.0
20
-532.0
30
0.0
10
1987.0
20
-549.0
30
0.0
10
1978.0
20
-563.0
30
0.0
10
1972.0
20
-574.0
30
0.0
10
1967.0
20
-582.0
30
0.0
10
1951.0
20
-595.0
30
0.0
10
1954.0
20
-575.0
30
0.0
10
1960.0
20
-559.0
30
0.0
10
1965.0
20
-543.0
30
0.0
10
1969.0
20
-534.0
30
0.0
10
1973.0
20
-530.0
30
0.0
10
1980.0
20
-528.0
30
0.0
6
Solid
370
35
62
0
0
LWPOLYLINE
5
6bd
100
AcDbEntity
100
AcDbPolyline
90
19
70
1
10
2002.0
20
-2276.0
30
0.0
10
2001.0
20
-2286.0
30
0.0
10
2008.0
20
-2306.0
30
0.0
10
2006.0
20
-2308.0
30
0.0
10
1982.0
20
-2312.0
30
0.0
10
1951.0
20
-2300.0
30
0.0
10
1943.0
20
-2285.0
30
0.0
10
1932.0
20
-2269.0
30
0.0
10
1917.0
20
-2270.0
30
0.0
10
1911.0
20
-2279.0
30
0.0
10
1906.0
20
-2264.0
30
0.0
10
1902.0
20
-2245.0
30
0.0
10
1905.0
20
-2250.0
30
0.0
10
1934.0
20
-2252.0
30
0.0
10
1968.0
20
-2268.0
30
0.0
10
1986.0
20
-2268.0
30
0.0
10
1992.0
20
-2270.0
30
0.0
10
1997.0
20
-2272.0
30
0.0
10
2002.0
20
-2276.0
30
0.0
6
Solid
370
35
62
0
0
LWPOLYLINE
5
6bf
100
AcDbEntity
100
AcDbPolyline
90
30
70
1
10
1555.0
20
-322.0
30
0.0
10
1558.0
20
-322.0
30
0.0
10
1601.0
20
-290.0
30
0.0
10
1625.0
20
-283.0
30
0.0
10
1663.0
20
-260.0
30
0.0
10
1694.0
20
-222.0
30
0.0
10
1728.0
20
-176.0
30
0.0
10
1760.0
20
-146.0
30
0.0
10
1804.0
20
-123.0
30
0.0
10
1835.0
20
-111.0
30
0.0
10
1857.0
20
-95.0
30
0.0
10
1904.0
20
-73.0
30
0.0
10
1903.0
20
-95.0
30
0.0
10
1895.0
20
-188.0
30
0.0
10
1879.0
20
-211.0
30
0.0
10
1872.0
20
-251.0
30
0.0
10
1863.0
20
-296.0
30
0.0
10
1870.0
20
-329.0
30
0.0
10
1859.0
20
-355.0
30
0.0
10
1861.0
20
-377.0
30
0.0
10
1874.0
20
-403.0
30
0.0
10
1884.0
20
-409.0
30
0.0
10
1870.0
20
-415.0
30
0.0
10
1850.0
20
-421.0
30
0.0
10
1760.0
20
-410.0
30
0.0
10
1669.0
20
-373.0
30
0.0
10
1588.0
20
-367.0
30
0.0
10
1563.0
20
-361.0
30
0.0
10
1551.0
20
-330.0
30
0.0
10
1555.0
20
-322.0
30
0.0
6
Solid
370
35
62
0
0
LWPOLYLINE
5
6c1
100
AcDbEntity
100
AcDbPolyline
90
10
70
1
10
1485.0
20
-321.0
30
0.0
10
1506.0
20
-323.0
30
0.0
10
1509.0
20
-324.0
30
0.0
10
1499.0
20
-343.0
30
0.0
10
1493.0
20
-351.0
30
0.0
10
1486.0
20
-361.0
30
0.0
10
1479.0
20
-358.0
30
0.0
10
1480.0
20
-346.0
30
0.0
10
1484.0
20
-328.0
30
0.0
10
1485.0
20
-321.0
30
0.0
6
Solid
370
35
62
0
0
LWPOLYLINE
5
6c3
100
AcDbEntity
100
AcDbPolyline
90
11
70
1
10
1431.0
20
-325.0
30
0.0
10
1453.0
20
-319.0
30
0.0
10
1459.0
20
-319.0
30
0.0
10
1451.0
20
-329.0
30
0.0
10
1440.0
20
-339.0
30
0.0
10
1428.0
20
-352.0
30
0.0
10
1414.0
20
-359.0
30
0.0
10
1414.0
20
-355.0
30
0.0
10
1417.0
20
-342.0
30
0.0
10
1422.0
20
-329.0
30
0.0
10
1431.0
20
-325.0
30
0.0
6
Solid
370
35
62
0
0
LWPOLYLINE
5
6c5
100
AcDbEntity
100
AcDbPolyline
90
13
70
1
10
1378.0
20
-315.0
30
0.0
10
1385.0
20
-319.0
30
0.0
10
1393.0
20
-320.0
30
0.0
10
1392.0
20
-328.0
30
0.0
10
1380.0
20
-355.0
30
0.0
10
1372.0
20
-373.0
30
0.0
10
1364.0
20
-385.0
30
0.0
10
1355.0
20
-371.0
30
0.0
10
1358.0
20
-362.0
30
0.0
10
1366.0
20
-337.0
30
0.0
10
1372.0
20
-318.0
30
0.0
10
1373.0
20
-316.0
30
0.0
10
1378.0
20
-315.0
30
0.0
6
Solid
370
35
62
0
0
LWPOLYLINE
5
6c7
100
AcDbEntity
100
AcDbPolyline
90
31
70
1
10
1758.0
20
-2462.0
30
0.0
10
1751.0
20
-2460.0
30
0.0
10
1736.0
20
-2466.0
30
0.0
10
1711.0
20
-2445.0
30
0.0
10
1678.0
20
-2450.0
30
0.0
10
1653.0
20
-2443.0
30
0.0
10
1644.0
20
-2455.0
30
0.0
10
1646.0
20
-2509.0
30
0.0
10
1662.0
20
-2560.0
30
0.0
10
1734.0
20
-2664.0
30
0.0
10
1738.0
20
-2685.0
30
0.0
10
1737.0
20
-2685.0
30
0.0
10
1703.0
20
-2681.0
30
0.0
10
1666.0
20
-2660.0
30
0.0
10
1610.0
20
-2635.0
30
0.0
10
1534.0
20
-2588.0
30
0.0
10
1473.0
20
-2526.0
30
0.0
10
1450.0
20
-2495.0
30
0.0
10
1436.0
20
-2476.0
30
0.0
10
1430.0
20
-2471.0
30
0.0
10
1436.0
20
-2433.0
30
0.0
10
1446.0
20
-2388.0
30
0.0
10
1455.0
20
-2353.0
30
0.0
10
1472.0
20
-2343.0
30
0.0
10
1513.0
20
-2371.0
30
0.0
10
1541.0
20
-2376.0
30
0.0
10
1575.0
20
-2376.0
30
0.0
10
1651.0
20
-2375.0
30
0.0
10
1683.0
20
-2415.0
30
0.0
10
1758.0
20
-2433.0
30
0.0
10
1758.0
20
-2462.0
30
0.0
6
Solid
370
35
62
0
0
LWPOLYLINE
5
6c9
100
AcDbEntity
100
AcDbPolyline
90
11
70
1
10
1210.0
20
-319.0
30
0.0
10
1209.0
20
-322.0
30
0.0
10
1208.0
20
-328.0
30
0.0
10
1202.0
20
-339.0
30
0.0
10
1197.0
20
-342.0
30
0.0
10
1192.0
20
-346.0
30
0.0
10
1186.0
20
-347.0
30
0.0
10
1186.0
20
-341.0
30
0.0
10
1187.0
20
-331.0
30
0.0
10
1188.0
20
-320.0
30
0.0
10
1210.0
20
-319.0
30
0.0
6
Solid
370
35
62
0
0
LWPOLYLINE
5
6cb
100
AcDbEntity
100
AcDbPolyline
90
11
70
1
10
1092.0
20
-309.0
30
0.0
10
1108.0
20
-316.0
30
0.0
10
1128.0
20
-312.0
30
0.0
10
1114.0
20
-345.0
30
0.0
10
1097.0
20
-370.0
30
0.0
10
1089.0
20
-379.0
30
0.0
10
1088.0
20
-366.0
30
0.0
10
1087.0
20
-353.0
30
0.0
10
1089.0
20
-329.0
30
0.0
10
1087.0
20
-311.0
30
0.0
10
1092.0
20
-309.0
30
0.0
6
Solid
370
35
62
0
0
LWPOLYLINE
5
6cd
100
AcDbEntity
100
AcDbPolyline
90
12
70
1
10
1293.0
20
-2380.0
30
0.0
10
1294.0
20
-2373.0
30
0.0
10
1296.0
20
-2356.0
30
0.0
10
1300.0
20
-2329.0
30
0.0
10
1306.0
20
-2299.0
30
0.0
10
1313.0
20
-2279.0
30
0.0
10
1323.0
20
-2285.0
30
0.0
10
1321.0
20
-2313.0
30
0.0
10
1322.0
20
-2334.0
30
0.0
10
1326.0
20
-2357.0
30
0.0
10
1328.0
20
-2394.0
30
0.0
10
1293.0
20
-2380.0
30
0.0
6
Solid
370
35
62
0
0
LWPOLYLINE
5
6cf
100
AcDbEntity
100
AcDbPolyline
90
8
70
1
10
1264.0
20
-2376.0
30
0.0
10
1243.0
20
-2373.0
30
0.0
10
1229.0
20
-2371.0
30
0.0
10
1232.0
20
-2359.0
30
0.0
10
1273.0
20
-2323.0
30
0.0
10
1279.0
20
-2326.0
30
0.0
10
1270.0
20
-2348.0
30
0.0
10
1264.0
20
-2376.0
30
0.0
6
Solid
370
35
62
0
0
LWPOLYLINE
5
6d1
100
AcDbEntity
100
AcDbPolyline
90
9
70
1
10
958.0
20
-2393.0
30
0.0
10
955.0
20
-2392.0
30
0.0
10
931.0
20
-2369.0
30
0.0
10
930.0
20
-2369.0
30
0.0
10
926.0
20
-2355.0
30
0.0
10
932.0
20
-2320.0
30
0.0
10
948.0
20
-2333.0
30
0.0
10
955.0
20
-2376.0
30
0.0
10
958.0
20
-2393.0
30
0.0
6
Solid
370
35
62
0
0
LWPOLYLINE
5
6d3
100
AcDbEntity
100
AcDbPolyline
90
37
70
1
10
372.0
20
-86.0
30
0.0
10
376.0
20
-74.0
30
0.0
10
404.0
20
-60.0
30
0.0
10
457.0
20
-48.0
30
0.0
10
503.0
20
-14.0
30
0.0
10
521.0
20
0.0
30
0.0
10
540.0
20
-10.0
30
0.0
10
555.0
20
-31.0
30
0.0
10
600.0
20
-97.0
30
0.0
10
619.0
20
-137.0
30
0.0
10
672.0
20
-180.0
30
0.0
10
688.0
20
-200.0
30
0.0
10
721.0
20
-231.0
30
0.0
10
746.0
20
-235.0
30
0.0
10
803.0
20
-262.0
30
0.0
10
854.0
20
-302.0
30
0.0
10
879.0
20
-298.0
30
0.0
10
901.0
20
-305.0
30
0.0
10
902.0
20
-310.0
30
0.0
10
902.0
20
-324.0
30
0.0
10
902.0
20
-354.0
30
0.0
10
897.0
20
-386.0
30
0.0
10
886.0
20
-405.0
30
0.0
10
830.0
20
-434.0
30
0.0
10
786.0
20
-417.0
30
0.0
10
755.0
20
-403.0
30
0.0
10
690.0
20
-358.0
30
0.0
10
655.0
20
-321.0
30
0.0
10
626.0
20
-294.0
30
0.0
10
601.0
20
-267.0
30
0.0
10
584.0
20
-239.0
30
0.0
10
561.0
20
-211.0
30
0.0
10
533.0
20
-189.0
30
0.0
10
482.0
20
-186.0
30
0.0
10
445.0
20
-187.0
30
0.0
10
430.0
20
-186.0
30
0.0
10
372.0
20
-86.0
30
0.0
6
Solid
370
35
62
0
0
LWPOLYLINE
5
6d5
100
AcDbEntity
100
AcDbPolyline
90
7
70
1
10
782.0
20
-2353.0
30
0.0
10
760.0
20
-2352.0
30
0.0
10
748.0
20
-2326.0
30
0.0
10
758.0
20
-2318.0
30
0.0
10
768.0
20
-2328.0
30
0.0
10
776.0
20
-2342.0
30
0.0
10
782.0
20
-2353.0
30
0.0
6
Solid
370
35
62
0
0
LWPOLYLINE
5
6d7
100
AcDbEntity
100
AcDbPolyline
90
38
70
1
10
589.0
20
-2400.0
30
0.0
10
588.0
20
-2395.0
30
0.0
10
576.0
20
-2377.0
30
0.0
10
562.0
20
-2369.0
30
0.0
10
537.0
20
-2390.0
30
0.0
10
482.0
20
-2418.0
30
0.0
10
463.0
20
-2420.0
30
0.0
10
441.0
20
-2422.0
30
0.0
10
404.0
20
-2407.0
30
0.0
10
356.0
20
-2421.0
30
0.0
10
304.0
20
-2437.0
30
0.0
10
272.0
20
-2455.0
30
0.0
10
193.0
20
-2541.0
30
0.0
10
147.0
20
-2577.0
30
0.0
10
99.0
20
-2582.0
30
0.0
10
64.0
20
-2563.0
30
0.0
10
59.0
20
-2546.0
30
0.0
10
59.0
20
-2544.0
30
0.0
10
54.0
20
-2532.0
30
0.0
10
53.0
20
-2517.0
30
0.0
10
63.0
20
-2495.0
30
0.0
10
121.0
20
-2444.0
30
0.0
10
149.0
20
-2405.0
30
0.0
10
154.0
20
-2400.0
30
0.0
10
187.0
20
-2386.0
30
0.0
10
317.0
20
-2341.0
30
0.0
10
380.0
20
-2273.0
30
0.0
10
427.0
20
-2248.0
30
0.0
10
477.0
20
-2248.0
30
0.0
10
520.0
20
-2259.0
30
0.0
10
559.0
20
-2273.0
30
0.0
10
582.0
20
-2294.0
30
0.0
10
592.0
20
-2319.0
30
0.0
10
597.0
20
-2341.0
30
0.0
10
598.0
20
-2367.0
30
0.0
10
597.0
20
-2385.0
30
0.0
10
590.0
20
-2398.0
30
0.0
10
589.0
20
-2400.0
30
0.0
6
Solid
370
35
62
0
0
LWPOLYLINE
5
6d9
100
AcDbEntity
100
AcDbPolyline
90
17
70
1
10
287.0
20
-1358.0
30
0.0
10
286.0
20
-1360.0
30
0.0
10
280.0
20
-1368.0
30
0.0
10
268.0
20
-1384.0
30
0.0
10
265.0
20
-1387.0
30
0.0
10
251.0
20
-1402.0
30
0.0
10
241.0
20
-1420.0
30
0.0
10
233.0
20
-1419.0
30
0.0
10
225.0
20
-1416.0
30
0.0
10
222.0
20
-1415.0
30
0.0
10
225.0
20
-1411.0
30
0.0
10
240.0
20
-1390.0
30
0.0
10
249.0
20
-1373.0
30
0.0
10
261.0
20
-1356.0
30
0.0
10
264.0
20
-1351.0
30
0.0
10
279.0
20
-1354.0
30
0.0
10
287.0
20
-1358.0
30
0.0
6
Solid
370
35
62
0
0
LWPOLYLINE
5
6db
100
AcDbEntity
100
AcDbPolyline
90
13
70
1
10
230.0
20
-1386.0
30
0.0
10
230.0
20
-1385.0
30
0.0
10
226.0
20
-1387.0
30
0.0
10
225.0
20
-1387.0
30
0.0
10
224.0
20
-1386.0
30
0.0
10
224.0
20
-1384.0
30
0.0
10
224.0
20
-1383.0
30
0.0
10
225.0
20
-1382.0
30
0.0
10
227.0
20
-1382.0
30
0.0
10
231.0
20
-1382.0
30
0.0
10
231.0
20
-1383.0
30
0.0
10
231.0
20
-1385.0
30
0.0
10
230.0
20
-1386.0
30
0.0
6
Solid
370
35
62
0
0
LWPOLYLINE
5
6de
100
AcDbEntity
8
zone_0_q2
100
AcDbPolyline
90
16
70
1
10
1343.0
20
-324.0
30
0.0
10
1344.0
20
-323.0
30
0.0
10
1356.0
20
-300.0
30
0.0
10
1350.0
20
-380.0
30
0.0
10
1378.0
20
-380.0
30
0.0
10
1377.0
20
-383.0
30
0.0
10
1370.0
20
-397.0
30
0.0
10
1349.0
20
-394.0
30
0.0
10
1341.0
20
-372.0
30
0.0
10
1339.0
20
-348.0
30
0.0
10
1343.0
20
-326.0
30
0.0
10
1233.0
20
-355.0
30
0.0
10
1276.0
20
-322.0
30
0.0
10
1296.0
20
-319.0
30
0.0
10
1317.0
20
-321.0
30
0.0
10
1343.0
20
-324.0
30
0.0
6
Solid
370
35
62
2
0
LWPOLYLINE
5
6e1
100
AcDbEntity
8
zone_1_q2
100
AcDbPolyline
90
12
70
1
10
1380.0
20
-373.0
30
0.0
10
1394.0
20
-334.0
30
0.0
10
1400.0
20
-349.0
30
0.0
10
1420.0
20
-358.0
30
0.0
10
1423.0
20
-360.0
30
0.0
10
1435.0
20
-363.0
30
0.0
10
1451.0
20
-357.0
30
0.0
10
1462.0
20
-342.0
30
0.0
10
1462.0
20
-351.0
30
0.0
10
1477.0
20
-381.0
30
0.0
10
1378.0
20
-380.0
30
0.0
10
1380.0
20
-373.0
30
0.0
6
Solid
370
35
62
2
0
LWPOLYLINE
5
6e4
100
AcDbEntity
8
zone_2_q2
100
AcDbPolyline
90
10
70
1
10
1494.0
20
-377.0
30
0.0
10
1519.0
20
-350.0
30
0.0
10
1525.0
20
-343.0
30
0.0
10
1534.0
20
-341.0
30
0.0
10
1541.0
20
-352.0
30
0.0
10
1559.0
20
-375.0
30
0.0
10
1574.0
20
-386.0
30
0.0
10
1533.0
20
-381.0
30
0.0
10
1477.0
20
-381.0
30
0.0
10
1494.0
20
-377.0
30
0.0
6
Solid
370
35
62
2
0
LWPOLYLINE
5
6e7
100
AcDbEntity
8
zone_3_q2
100
AcDbPolyline
90
5
70
1
10
1575.0
20
-385.0
30
0.0
10
1577.0
20
-387.0
30
0.0
10
1575.0
20
-390.0
30
0.0
10
1572.0
20
-388.0
30
0.0
10
1575.0
20
-385.0
30
0.0
6
Solid
370
35
62
2
0
LWPOLYLINE
5
6ea
100
AcDbEntity
8
zone_4_q2
100
AcDbPolyline
90
9
70
1
10
1610.0
20
-341.0
30
0.0
10
1595.0
20
-373.0
30
0.0
10
1595.0
20
-376.0
30
0.0
10
1598.0
20
-377.0
30
0.0
10
1627.0
20
-390.0
30
0.0
10
1640.0
20
-396.0
30
0.0
10
1622.0
20
-392.0
30
0.0
10
1577.0
20
-387.0
30
0.0
10
1610.0
20
-341.0
30
0.0
6
Solid
370
35
62
2
0
LWPOLYLINE
5
6ed
100
AcDbEntity
8
zone_5_q2
100
AcDbPolyline
90
19
70
1
10
1645.0
20
-400.0
30
0.0
10
1641.0
20
-397.0
30
0.0
10
1640.0
20
-396.0
30
0.0
10
1643.0
20
-397.0
30
0.0
10
1647.0
20
-398.0
30
0.0
10
1646.0
20
-396.0
30
0.0
10
1691.0
20
-405.0
30
0.0
10
1736.0
20
-416.0
30
0.0
10
1775.0
20
-423.0
30
0.0
10
1816.0
20
-427.0
30
0.0
10
1887.0
20
-423.0
30
0.0
10
1903.0
20
-425.0
30
0.0
10
1908.0
20
-427.0
30
0.0
10
1908.0
20
-433.0
30
0.0
10
1907.0
20
-434.0
30
0.0
10
1879.0
20
-437.0
30
0.0
10
1833.0
20
-434.0
30
0.0
10
1743.0
20
-422.0
30
0.0
10
1645.0
20
-400.0
30
0.0
6
Solid
370
35
62
2
0
LWPOLYLINE
5
6f0
100
AcDbEntity
8
zone_6_q2
100
AcDbPolyline
90
19
70
1
10
1436.0
20
-2334.0
30
0.0
10
1457.0
20
-2308.0
30
0.0
10
1479.0
20
-2311.0
30
0.0
10
1495.0
20
-2346.0
30
0.0
10
1454.0
20
-2329.0
30
0.0
10
1434.0
20
-2364.0
30
0.0
10
1429.0
20
-2419.0
30
0.0
10
1411.0
20
-2522.0
30
0.0
10
1407.0
20
-2521.0
30
0.0
10
1419.0
20
-2469.0
30
0.0
10
1414.0
20
-2391.0
30
0.0
10
1401.0
20
-2406.0
30
0.0
10
1366.0
20
-2389.0
30
0.0
10
1389.0
20
-2378.0
30
0.0
10
1429.0
20
-2292.0
30
0.0
10
1442.0
20
-2264.0
30
0.0
10
1451.0
20
-2282.0
30
0.0
10
1442.0
20
-2310.0
30
0.0
10
1436.0
20
-2334.0
30
0.0
6
Solid
370
35
62
2
0
LWPOLYLINE
5
6f3
100
AcDbEntity
8
zone_7_q2
100
AcDbPolyline
90
20
70
1
10
1511.0
20
-2352.0
30
0.0
10
1572.0
20
-2353.0
30
0.0
10
1612.0
20
-2353.0
30
0.0
10
1637.0
20
-2353.0
30
0.0
10
1671.0
20
-2360.0
30
0.0
10
1708.0
20
-2379.0
30
0.0
10
1764.0
20
-2413.0
30
0.0
10
1794.0
20
-2477.0
30
0.0
10
1769.0
20
-2448.0
30
0.0
10
1736.0
20
-2415.0
30
0.0
10
1699.0
20
-2391.0
30
0.0
10
1672.0
20
-2368.0
30
0.0
10
1644.0
20
-2356.0
30
0.0
10
1585.0
20
-2356.0
30
0.0
10
1558.0
20
-2365.0
30
0.0
10
1538.0
20
-2362.0
30
0.0
10
1518.0
20
-2359.0
30
0.0
10
1498.0
20
-2353.0
30
0.0
10
1495.0
20
-2346.0
30
0.0
10
1511.0
20
-2352.0
30
0.0
6
Solid
370
35
62
2
0
LWPOLYLINE
5
6f6
100
AcDbEntity
8
zone_8_q1
100
AcDbPolyline
90
8
70
1
10
1638.0
20
-1337.0
30
0.0
10
1641.0
20
-1331.0
30
0.0
10
1642.0
20
-1331.0
30
0.0
10
1644.0
20
-1331.0
30
0.0
10
1644.0
20
-1335.0
30
0.0
10
1642.0
20
-1337.0
30
0.0
10
1641.0
20
-1337.0
30
0.0
10
1638.0
20
-1337.0
30
0.0
6
Solid
370
35
62
40
0
LWPOLYLINE
5
6f9
100
AcDbEntity
8
zone_9_q1
100
AcDbPolyline
90
10
70
1
10
1356.0
20
-1096.0
30
0.0
10
1355.0
20
-1093.0
30
0.0
10
1358.0
20
-1089.0
30
0.0
10
1362.0
20
-1086.0
30
0.0
10
1365.0
20
-1087.0
30
0.0
10
1367.0
20
-1088.0
30
0.0
10
1367.0
20
-1090.0
30
0.0
10
1363.0
20
-1094.0
30
0.0
10
1362.0
20
-1095.0
30
0.0
10
1356.0
20
-1096.0
30
0.0
6
Solid
370
35
62
40
0
LWPOLYLINE
5
6fc
100
AcDbEntity
8
zone_10_q2
100
AcDbPolyline
90
6
70
1
10
914.0
20
-2361.0
30
0.0
10
916.0
20
-2331.0
30
0.0
10
921.0
20
-2314.0
30
0.0
10
934.0
20
-2322.0
30
0.0
10
923.0
20
-2321.0
30
0.0
10
914.0
20
-2361.0
30
0.0
6
Solid
370
35
62
2
0
LWPOLYLINE
5
6ff
100
AcDbEntity
8
zone_11_q2
100
AcDbPolyline
90
9
70
1
10
934.0
20
-2322.0
30
0.0
10
966.0
20
-2324.0
30
0.0
10
982.0
20
-2354.0
30
0.0
10
1026.0
20
-2367.0
30
0.0
10
1004.0
20
-2377.0
30
0.0
10
982.0
20
-2381.0
30
0.0
10
970.0
20
-2374.0
30
0.0
10
956.0
20
-2335.0
30
0.0
10
934.0
20
-2322.0
30
0.0
6
Solid
370
35
62
2
0
LWPOLYLINE
5
702
100
AcDbEntity
8
zone_12_q2
100
AcDbPolyline
90
5
70
1
10
1049.0
20
-2357.0
30
0.0
10
1066.0
20
-2352.0
30
0.0
10
1033.0
20
-2369.0
30
0.0
10
1026.0
20
-2367.0
30
0.0
10
1049.0
20
-2357.0
30
0.0
6
Solid
370
35
62
2
0
LWPOLYLINE
5
705
100
AcDbEntity
8
zone_13_q2
100
AcDbPolyline
90
11
70
1
10
1066.0
20
-2352.0
30
0.0
10
1068.0
20
-2351.0
30
0.0
10
1106.0
20
-2336.0
30
0.0
10
1134.0
20
-2329.0
30
0.0
10
1186.0
20
-2322.0
30
0.0
10
1231.0
20
-2326.0
30
0.0
10
1221.0
20
-2333.0
30
0.0
10
1153.0
20
-2333.0
30
0.0
10
1113.0
20
-2338.0
30
0.0
10
1081.0
20
-2348.0
30
0.0
10
1066.0
20
-2352.0
30
0.0
6
Solid
370
35
62
2
0
LWPOLYLINE
5
708
100
AcDbEntity
8
zone_14_q2
100
AcDbPolyline
90
5
70
1
10
1310.0
20
-2262.0
30
0.0
10
1309.0
20
-2260.0
30
0.0
10
1312.0
20
-2258.0
30
0.0
10
1313.0
20
-2259.0
30
0.0
10
1310.0
20
-2262.0
30
0.0
6
Solid
370
35
62
2
0
LWPOLYLINE
5
70b
100
AcDbEntity
8
zone_15_q2
100
AcDbPolyline
90
9
70
1
10
1313.0
20
-2262.0
30
0.0
10
1312.0
20
-2260.0
30
0.0
10
1338.0
20
-2237.0
30
0.0
10
1363.0
20
-2256.0
30
0.0
10
1351.0
20
-2293.0
30
0.0
10
1264.0
20
-2311.0
30
0.0
10
1239.0
20
-2327.0
30
0.0
10
1231.0
20
-2326.0
30
0.0
10
1313.0
20
-2262.0
30
0.0
6
Solid
370
35
62
2
0
LWPOLYLINE
5
70e
100
AcDbEntity
8
zone_16_q2
100
AcDbPolyline
90
8
70
1
10
1351.0
20
-2293.0
30
0.0
10
1353.0
20
-2293.0
30
0.0
10
1357.0
20
-2347.0
30
0.0
10
1366.0
20
-2389.0
30
0.0
10
1365.0
20
-2389.0
30
0.0
10
1335.0
20
-2373.0
30
0.0
10
1341.0
20
-2327.0
30
0.0
10
1351.0
20
-2293.0
30
0.0
6
Solid
370
35
62
2
0
LWPOLYLINE
5
711
100
AcDbEntity
8
zone_17_q2
100
AcDbPolyline
90
30
70
1
10
1232.0
20
-355.0
30
0.0
10
1227.0
20
-356.0
30
0.0
10
1167.0
20
-344.0
30
0.0
10
1151.0
20
-338.0
30
0.0
10
1136.0
20
-340.0
30
0.0
10
1127.0
20
-345.0
30
0.0
10
1107.0
20
-378.0
30
0.0
10
1067.0
20
-349.0
30
0.0
10
1046.0
20
-323.0
30
0.0
10
1022.0
20
-304.0
30
0.0
10
987.0
20
-289.0
30
0.0
10
951.0
20
-291.0
30
0.0
10
935.0
20
-309.0
30
0.0
10
917.0
20
-324.0
30
0.0
10
932.0
20
-317.0
30
0.0
10
952.0
20
-309.0
30
0.0
10
978.0
20
-295.0
30
0.0
10
1008.0
20
-299.0
30
0.0
10
1029.0
20
-310.0
30
0.0
10
1049.0
20
-328.0
30
0.0
10
1060.0
20
-355.0
30
0.0
10
1084.0
20
-375.0
30
0.0
10
1103.0
20
-381.0
30
0.0
10
1126.0
20
-364.0
30
0.0
10
1142.0
20
-346.0
30
0.0
10
1179.0
20
-354.0
30
0.0
10
1195.0
20
-363.0
30
0.0
10
1215.0
20
-364.0
30
0.0
10
1233.0
20
-355.0
30
0.0
10
1232.0
20
-355.0
30
0.0
6
Solid
370
35
62
2
0
LWPOLYLINE
5
714
100
AcDbEntity
8
zone_18_q2
100
AcDbPolyline
90
32
70
1
10
452.0
20
-248.0
30
0.0
10
449.0
20
-233.0
30
0.0
10
436.0
20
-200.0
30
0.0
10
436.0
20
-182.0
30
0.0
10
465.0
20
-184.0
30
0.0
10
519.0
20
-189.0
30
0.0
10
546.0
20
-199.0
30
0.0
10
563.0
20
-212.0
30
0.0
10
577.0
20
-229.0
30
0.0
10
595.0
20
-253.0
30
0.0
10
611.0
20
-279.0
30
0.0
10
630.0
20
-305.0
30
0.0
10
654.0
20
-331.0
30
0.0
10
683.0
20
-362.0
30
0.0
10
723.0
20
-390.0
30
0.0
10
761.0
20
-408.0
30
0.0
10
795.0
20
-422.0
30
0.0
10
866.0
20
-428.0
30
0.0
10
902.0
20
-455.0
30
0.0
10
929.0
20
-488.0
30
0.0
10
936.0
20
-529.0
30
0.0
10
917.0
20
-577.0
30
0.0
10
895.0
20
-593.0
30
0.0
10
861.0
20
-593.0
30
0.0
10
748.0
20
-534.0
30
0.0
10
708.0
20
-480.0
30
0.0
10
697.0
20
-459.0
30
0.0
10
682.0
20
-431.0
30
0.0
10
631.0
20
-344.0
30
0.0
10
590.0
20
-315.0
30
0.0
10
479.0
20
-265.0
30
0.0
10
452.0
20
-248.0
30
0.0
6
Solid
370
35
62
2
0
LWPOLYLINE
5
717
100
AcDbEntity
8
zone_19_q2
100
AcDbPolyline
90
31
70
1
10
163.0
20
-2383.0
30
0.0
10
163.0
20
-2377.0
30
0.0
10
175.0
20
-2367.0
30
0.0
10
230.0
20
-2349.0
30
0.0
10
294.0
20
-2306.0
30
0.0
10
322.0
20
-2275.0
30
0.0
10
364.0
20
-2221.0
30
0.0
10
436.0
20
-2181.0
30
0.0
10
504.0
20
-2168.0
30
0.0
10
606.0
20
-2190.0
30
0.0
10
660.0
20
-2247.0
30
0.0
10
697.0
20
-2287.0
30
0.0
10
694.0
20
-2312.0
30
0.0
10
671.0
20
-2334.0
30
0.0
10
630.0
20
-2340.0
30
0.0
10
601.0
20
-2307.0
30
0.0
10
596.0
20
-2294.0
30
0.0
10
531.0
20
-2247.0
30
0.0
10
492.0
20
-2233.0
30
0.0
10
463.0
20
-2226.0
30
0.0
10
414.0
20
-2236.0
30
0.0
10
386.0
20
-2258.0
30
0.0
10
351.0
20
-2292.0
30
0.0
10
324.0
20
-2315.0
30
0.0
10
292.0
20
-2343.0
30
0.0
10
249.0
20
-2364.0
30
0.0
10
227.0
20
-2371.0
30
0.0
10
203.0
20
-2379.0
30
0.0
10
182.0
20
-2382.0
30
0.0
10
164.0
20
-2383.0
30
0.0
10
163.0
20
-2383.0
30
0.0
6
Solid
370
35
62
2
0
LWPOLYLINE
5
71a
100
AcDbEntity
8
zone_20_q1
100
AcDbPolyline
90
10
70
1
10
206.0
20
-1967.0
30
0.0
10
221.0
20
-1968.0
30
0.0
10
231.0
20
-1969.0
30
0.0
10
226.0
20
-1970.0
30
0.0
10
214.0
20
-1972.0
30
0.0
10
201.0
20
-1971.0
30
0.0
10
170.0
20
-1974.0
30
0.0
10
177.0
20
-1970.0
30
0.0
10
188.0
20
-1969.0
30
0.0
10
206.0
20
-1967.0
30
0.0
6
Solid
370
35
62
40
0
LWPOLYLINE
5
71d
100
AcDbEntity
8
zone_21_q1
100
AcDbPolyline
90
6
70
1
10
263.0
20
-1999.0
30
0.0
10
256.0
20
-1999.0
30
0.0
10
246.0
20
-2001.0
30
0.0
10
242.0
20
-2002.0
30
0.0
10
262.0
20
-1995.0
30
0.0
10
263.0
20
-1999.0
30
0.0
6
Solid
370
35
62
40
0
LWPOLYLINE
5
720
100
AcDbEntity
8
zone_22_q1
100
AcDbPolyline
90
6
70
1
10
216.0
20
-2009.0
30
0.0
10
215.0
20
-2006.0
30
0.0
10
227.0
20
-2003.0
30
0.0
10
239.0
20
-2002.0
30
0.0
10
242.0
20
-2002.0
30
0.0
10
216.0
20
-2009.0
30
0.0
6
Solid
370
35
62
40
0
LWPOLYLINE
5
723
100
AcDbEntity
8
zone_23_q1
100
AcDbPolyline
90
10
70
1
10
593.0
20
-486.0
30
0.0
10
598.0
20
-483.0
30
0.0
10
600.0
20
-483.0
30
0.0
10
608.0
20
-486.0
30
0.0
10
613.0
20
-494.0
30
0.0
10
610.0
20
-497.0
30
0.0
10
607.0
20
-499.0
30
0.0
10
602.0
20
-500.0
30
0.0
10
589.0
20
-491.0
30
0.0
10
593.0
20
-486.0
30
0.0
6
Solid
370
35
62
40
0
LWPOLYLINE
5
726
100
AcDbEntity
8
zone_24_q1
100
AcDbPolyline
90
7
70
1
10
695.0
20
-466.0
30
0.0
10
682.0
20
-468.0
30
0.0
10
676.0
20
-462.0
30
0.0
10
683.0
20
-453.0
30
0.0
10
691.0
20
-456.0
30
0.0
10
697.0
20
-459.0
30
0.0
10
695.0
20
-466.0
30
0.0
6
Solid
370
35
62
40
0
ENDSEC
0
SECTION
2
OBJECTS
0
DICTIONARY
5
6a5
330
0
100
AcDbDictionary
281
1
3
ACAD_GROUP
350
6a6
0
DICTIONARY
5
6a6
330
6a5
100
AcDbDictionary
281
1
0
ENDSEC
0
EOF
