999

0
SECTION
2
HEADER
9
$ACADVER
1
AC1021
9
$HANDSEED
5
7f3
0
ENDSEC
0
SECTION
2
CLASSES
0
ENDSEC
0
SECTION
2
TABLES
0
TABLE
2
VPORT
5
729
100
AcDbSymbolTable
70
1
0
VPORT
5
728
100
AcDbSymbolTableRecord
100
AcDbViewportTableRecord
2
*ACTIVE
10
0
20
0
11
1
21
1
12
500.0
22
500.0
40
1000.0
70
0
0
ENDTAB
0
TABLE
2
LTYPE
5
72a
100
AcDbSymbolTable
70
3
0
LTYPE
5
732
100
AcDbSymbolTableRecord
100
AcDbLinetypeTableRecord
2
Solid
70
0
72
65
73
0
3

0
LTYPE
5
733
100
AcDbSymbolTableRecord
100
AcDbLinetypeTableRecord
2
ByBlock
70
0
72
65
73
0
3

0
LTYPE
5
734
100
AcDbSymbolTableRecord
100
AcDbLinetypeTableRecord
2
ByLayer
70
0
72
65
73
0
3

0
ENDTAB
0
TABLE
2
LAYER
5
72b
100
AcDbSymbolTable
70
41
0
LAYER
5
735
100
AcDbSymbolTableRecord
100
AcDbLayerTableRecord
2
0
70
0
390
0
0
LAYER
5
77b
100
AcDbSymbolTableRecord
100
AcDbLayerTableRecord
2
zone_0_q2
70
0
390
0
0
LAYER
5
77e
100
AcDbSymbolTableRecord
100
AcDbLayerTableRecord
2
zone_1_q2
70
0
390
0
0
LAYER
5
781
100
AcDbSymbolTableRecord
100
AcDbLayerTableRecord
2
zone_2_q2
70
0
390
0
0
LAYER
5
784
100
AcDbSymbolTableRecord
100
AcDbLayerTableRecord
2
zone_3_q2
70
0
390
0
0
LAYER
5
787
100
AcDbSymbolTableRecord
100
AcDbLayerTableRecord
2
zone_4_q2
70
0
390
0
0
LAYER
5
78a
100
AcDbSymbolTableRecord
100
AcDbLayerTableRecord
2
zone_5_q2
70
0
390
0
0
LAYER
5
78d
100
AcDbSymbolTableRecord
100
AcDbLayerTableRecord
2
zone_6_q2
70
0
390
0
0
LAYER
5
790
100
AcDbSymbolTableRecord
100
AcDbLayerTableRecord
2
zone_7_q2
70
0
390
0
0
LAYER
5
793
100
AcDbSymbolTableRecord
100
AcDbLayerTableRecord
2
zone_8_q2
70
0
390
0
0
LAYER
5
796
100
AcDbSymbolTableRecord
100
AcDbLayerTableRecord
2
zone_9_q2
70
0
390
0
0
LAYER
5
799
100
AcDbSymbolTableRecord
100
AcDbLayerTableRecord
2
zone_10_q2
70
0
390
0
0
LAYER
5
79c
100
AcDbSymbolTableRecord
100
AcDbLayerTableRecord
2
zone_11_q2
70
0
390
0
0
LAYER
5
79f
100
AcDbSymbolTableRecord
100
AcDbLayerTableRecord
2
zone_12_q2
70
0
390
0
0
LAYER
5
7a2
100
AcDbSymbolTableRecord
100
AcDbLayerTableRecord
2
zone_13_q2
70
0
390
0
0
LAYER
5
7a5
100
AcDbSymbolTableRecord
100
AcDbLayerTableRecord
2
zone_14_q2
70
0
390
0
0
LAYER
5
7a8
100
AcDbSymbolTableRecord
100
AcDbLayerTableRecord
2
zone_15_q2
70
0
390
0
0
LAYER
5
7ab
100
AcDbSymbolTableRecord
100
AcDbLayerTableRecord
2
zone_16_q1
70
0
390
0
0
LAYER
5
7ae
100
AcDbSymbolTableRecord
100
AcDbLayerTableRecord
2
zone_17_q2
70
0
390
0
0
LAYER
5
7b1
100
AcDbSymbolTableRecord
100
AcDbLayerTableRecord
2
zone_18_q2
70
0
390
0
0
LAYER
5
7b4
100
AcDbSymbolTableRecord
100
AcDbLayerTableRecord
2
zone_19_q2
70
0
390
0
0
LAYER
5
7b7
100
AcDbSymbolTableRecord
100
AcDbLayerTableRecord
2
zone_20_q1
70
0
390
0
0
LAYER
5
7ba
100
AcDbSymbolTableRecord
100
AcDbLayerTableRecord
2
zone_21_q2
70
0
390
0
0
LAYER
5
7bd
100
AcDbSymbolTableRecord
100
AcDbLayerTableRecord
2
zone_22_q2
70
0
390
0
0
LAYER
5
7c0
100
AcDbSymbolTableRecord
100
AcDbLayerTableRecord
2
zone_23_q2
70
0
390
0
0
LAYER
5
7c3
100
AcDbSymbolTableRecord
100
AcDbLayerTableRecord
2
zone_24_q2
70
0
390
0
0
LAYER
5
7c6
100
AcDbSymbolTableRecord
100
AcDbLayerTableRecord
2
zone_25_q2
70
0
390
0
0
LAYER
5
7c9
100
AcDbSymbolTableRecord
100
AcDbLayerTableRecord
2
zone_26_q2
70
0
390
0
0
LAYER
5
7cc
100
AcDbSymbolTableRecord
100
AcDbLayerTableRecord
2
zone_27_q2
70
0
390
0
0
LAYER
5
7cf
100
AcDbSymbolTableRecord
100
AcDbLayerTableRecord
2
zone_28_q1
70
0
390
0
0
LAYER
5
7d2
100
AcDbSymbolTableRecord
100
AcDbLayerTableRecord
2
zone_29_q1
70
0
390
0
0
LAYER
5
7d5
100
AcDbSymbolTableRecord
100
AcDbLayerTableRecord
2
zone_30_q1
70
0
390
0
0
LAYER
5
7d8
100
AcDbSymbolTableRecord
100
AcDbLayerTableRecord
2
zone_31_q1
70
0
390
0
0
LAYER
5
7db
100
AcDbSymbolTableRecord
100
AcDbLayerTableRecord
2
zone_32_q1
70
0
390
0
0
LAYER
5
7de
100
AcDbSymbolTableRecord
100
AcDbLayerTableRecord
2
zone_33_q1
70
0
390
0
0
LAYER
5
7e1
100
AcDbSymbolTableRecord
100
AcDbLayerTableRecord
2
zone_34_q1
70
0
390
0
0
LAYER
5
7e4
100
AcDbSymbolTableRecord
100
AcDbLayerTableRecord
2
zone_35_q1
70
0
390
0
0
LAYER
5
7e7
100
AcDbSymbolTableRecord
100
AcDbLayerTableRecord
2
zone_36_q1
70
0
390
0
0
LAYER
5
7ea
100
AcDbSymbolTableRecord
100
AcDbLayerTableRecord
2
zone_37_q1
70
0
390
0
0
LAYER
5
7ed
100
AcDbSymbolTableRecord
100
AcDbLayerTableRecord
2
zone_38_q2
70
0
390
0
0
LAYER
5
7f0
100
AcDbSymbolTableRecord
100
AcDbLayerTableRecord
2
zone_39_q2
70
0
390
0
0
ENDTAB
0
TABLE
2
STYLE
5
72c
100
AcDbSymbolTable
70
0
0
ENDTAB
0
TABLE
2
VIEW
5
72d
100
AcDbSymbolTable
70
0
0
ENDTAB
0
TABLE
2
UCS
5
72e
100
AcDbSymbolTable
70
0
0
ENDTAB
0
TABLE
2
APPID
5
72f
100
AcDbSymbolTable
70
1
0
APPID
5
736
100
AcDbSymbolTableRecord
100
AcDbRegAppTableRecord
2
ACAD
70
0
0
ENDTAB
0
TABLE
2
DIMSTYLE
5
730
100
AcDbSymbolTable
70
0
100
AcDbDimStyleTable
71
1
0
ENDTAB
0
TABLE
2
BLOCK_RECORD
5
731
100
AcDbSymbolTable
70
2
0
BLOCK_RECORD
5
737
100
AcDbSymbolTableRecord
100
AcDbBlockTableRecord
2
*Model_Space
70
0
280
1
281
0
0
BLOCK_RECORD
5
738
100
AcDbSymbolTableRecord
100
AcDbBlockTableRecord
2
*Paper_Space
70
0
280
1
281
0
0
ENDTAB
0
ENDSEC
0
SECTION
2
BLOCKS
0
BLOCK
5
739
100
AcDbEntity
100
AcDbBlockBegin
2
*Model_Space
70
0
10
0
20
0
30
0
3
*Model_Space
1

0
ENDBLK
5
73a
100
AcDbEntity
100
AcDbBlockEnd
0
BLOCK
5
73b
100
AcDbEntity
100
AcDbBlockBegin
2
*Paper_Space
70
0
10
0
20
0
30
0
3
*Paper_Space
1

0
ENDBLK
5
73c
100
AcDbEntity
100
AcDbBlockEnd
0
ENDSEC
0
SECTION
2
ENTITIES
0
LWPOLYLINE
5
73f
100
AcDbEntity
100
AcDbPolyline
90
286
70
1
10
2488.0
20
-819.0
30
0.0
10
2487.0
20
-887.0
30
0.0
10
2467.0
20
-936.0
30
0.0
10
2465.0
20
-970.0
30
0.0
10
2463.0
20
-988.0
30
0.0
10
2433.0
20
-1038.0
30
0.0
10
2409.0
20
-1078.0
30
0.0
10
2405.0
20
-1145.0
30
0.0
10
2425.0
20
-1202.0
30
0.0
10
2420.0
20
-1211.0
30
0.0
10
2428.0
20
-1222.0
30
0.0
10
2426.0
20
-1233.0
30
0.0
10
2420.0
20
-1254.0
30
0.0
10
2407.0
20
-1293.0
30
0.0
10
2394.0
20
-1342.0
30
0.0
10
2386.0
20
-1381.0
30
0.0
10
2379.0
20
-1436.0
30
0.0
10
2362.0
20
-1449.0
30
0.0
10
2327.0
20
-1452.0
30
0.0
10
2306.0
20
-1460.0
30
0.0
10
2292.0
20
-1490.0
30
0.0
10
2304.0
20
-1535.0
30
0.0
10
2325.0
20
-1575.0
30
0.0
10
2336.0
20
-1605.0
30
0.0
10
2294.0
20
-1683.0
30
0.0
10
2285.0
20
-1717.0
30
0.0
10
2290.0
20
-1732.0
30
0.0
10
2294.0
20
-1790.0
30
0.0
10
2310.0
20
-1860.0
30
0.0
10
2305.0
20
-1881.0
30
0.0
10
2287.0
20
-1895.0
30
0.0
10
2250.0
20
-1896.0
30
0.0
10
2222.0
20
-1897.0
30
0.0
10
2204.0
20
-1913.0
30
0.0
10
2189.0
20
-1962.0
30
0.0
10
2192.0
20
-2014.0
30
0.0
10
2186.0
20
-2051.0
30
0.0
10
2175.0
20
-2055.0
30
0.0
10
2152.0
20
-2075.0
30
0.0
10
2150.0
20
-2103.0
30
0.0
10
2144.0
20
-2127.0
30
0.0
10
2127.0
20
-2135.0
30
0.0
10
2109.0
20
-2117.0
30
0.0
10
2053.0
20
-2061.0
30
0.0
10
2019.0
20
-2049.0
30
0.0
10
1976.0
20
-2043.0
30
0.0
10
1955.0
20
-2022.0
30
0.0
10
1946.0
20
-2028.0
30
0.0
10
1943.0
20
-2053.0
30
0.0
10
1945.0
20
-2087.0
30
0.0
10
1986.0
20
-2184.0
30
0.0
10
1981.0
20
-2205.0
30
0.0
10
1945.0
20
-2222.0
30
0.0
10
1930.0
20
-2233.0
30
0.0
10
1922.0
20
-2251.0
30
0.0
10
1913.0
20
-2267.0
30
0.0
10
1911.0
20
-2308.0
30
0.0
10
1894.0
20
-2320.0
30
0.0
10
1872.0
20
-2314.0
30
0.0
10
1843.0
20
-2269.0
30
0.0
10
1801.0
20
-2225.0
30
0.0
10
1783.0
20
-2217.0
30
0.0
10
1762.0
20
-2204.0
30
0.0
10
1738.0
20
-2203.0
30
0.0
10
1704.0
20
-2184.0
30
0.0
10
1680.0
20
-2179.0
30
0.0
10
1656.0
20
-2185.0
30
0.0
10
1639.0
20
-2199.0
30
0.0
10
1636.0
20
-2233.0
30
0.0
10
1631.0
20
-2246.0
30
0.0
10
1613.0
20
-2284.0
30
0.0
10
1611.0
20
-2299.0
30
0.0
10
1602.0
20
-2344.0
30
0.0
10
1591.0
20
-2364.0
30
0.0
10
1558.0
20
-2367.0
30
0.0
10
1512.0
20
-2355.0
30
0.0
10
1458.0
20
-2329.0
30
0.0
10
1418.0
20
-2306.0
30
0.0
10
1402.0
20
-2301.0
30
0.0
10
1400.0
20
-2301.0
30
0.0
10
1339.0
20
-2285.0
30
0.0
10
1297.0
20
-2268.0
30
0.0
10
1273.0
20
-2267.0
30
0.0
10
1261.0
20
-2272.0
30
0.0
10
1233.0
20
-2283.0
30
0.0
10
1193.0
20
-2288.0
30
0.0
10
1175.0
20
-2290.0
30
0.0
10
1113.0
20
-2303.0
30
0.0
10
1061.0
20
-2334.0
30
0.0
10
1033.0
20
-2339.0
30
0.0
10
1006.0
20
-2319.0
30
0.0
10
981.0
20
-2314.0
30
0.0
10
956.0
20
-2329.0
30
0.0
10
925.0
20
-2340.0
30
0.0
10
898.0
20
-2333.0
30
0.0
10
886.0
20
-2325.0
30
0.0
10
855.0
20
-2316.0
30
0.0
10
845.0
20
-2327.0
30
0.0
10
814.0
20
-2351.0
30
0.0
10
792.0
20
-2355.0
30
0.0
10
760.0
20
-2368.0
30
0.0
10
723.0
20
-2372.0
30
0.0
10
656.0
20
-2409.0
30
0.0
10
621.0
20
-2429.0
30
0.0
10
583.0
20
-2438.0
30
0.0
10
574.0
20
-2433.0
30
0.0
10
549.0
20
-2429.0
30
0.0
10
518.0
20
-2409.0
30
0.0
10
475.0
20
-2383.0
30
0.0
10
434.0
20
-2382.0
30
0.0
10
401.0
20
-2421.0
30
0.0
10
372.0
20
-2437.0
30
0.0
10
363.0
20
-2436.0
30
0.0
10
351.0
20
-2422.0
30
0.0
10
332.0
20
-2417.0
30
0.0
10
316.0
20
-2402.0
30
0.0
10
281.0
20
-2409.0
30
0.0
10
259.0
20
-2378.0
30
0.0
10
218.0
20
-2343.0
30
0.0
10
189.0
20
-2341.0
30
0.0
10
157.0
20
-2336.0
30
0.0
10
115.0
20
-2331.0
30
0.0
10
76.0
20
-2294.0
30
0.0
10
68.0
20
-2267.0
30
0.0
10
55.0
20
-2236.0
30
0.0
10
17.0
20
-2190.0
30
0.0
10
34.0
20
-2128.0
30
0.0
10
36.0
20
-2081.0
30
0.0
10
26.0
20
-2035.0
30
0.0
10
15.0
20
-2019.0
30
0.0
10
0.0
20
-1995.0
30
0.0
10
6.0
20
-1929.0
30
0.0
10
1.0
20
-1895.0
30
0.0
10
8.0
20
-1808.0
30
0.0
10
10.0
20
-1751.0
30
0.0
10
4.0
20
-1733.0
30
0.0
10
6.0
20
-1723.0
30
0.0
10
11.0
20
-1679.0
30
0.0
10
21.0
20
-1636.0
30
0.0
10
23.0
20
-1550.0
30
0.0
10
23.0
20
-1548.0
30
0.0
10
35.0
20
-1529.0
30
0.0
10
65.0
20
-1501.0
30
0.0
10
102.0
20
-1479.0
30
0.0
10
150.0
20
-1435.0
30
0.0
10
186.0
20
-1385.0
30
0.0
10
198.0
20
-1345.0
30
0.0
10
208.0
20
-1295.0
30
0.0
10
214.0
20
-1277.0
30
0.0
10
218.0
20
-1249.0
30
0.0
10
227.0
20
-1233.0
30
0.0
10
219.0
20
-1226.0
30
0.0
10
217.0
20
-1187.0
30
0.0
10
214.0
20
-1140.0
30
0.0
10
217.0
20
-1115.0
30
0.0
10
213.0
20
-1075.0
30
0.0
10
150.0
20
-965.0
30
0.0
10
86.0
20
-906.0
30
0.0
10
48.0
20
-872.0
30
0.0
10
31.0
20
-846.0
30
0.0
10
24.0
20
-815.0
30
0.0
10
22.0
20
-742.0
30
0.0
10
48.0
20
-661.0
30
0.0
10
63.0
20
-618.0
30
0.0
10
64.0
20
-577.0
30
0.0
10
70.0
20
-530.0
30
0.0
10
63.0
20
-492.0
30
0.0
10
75.0
20
-461.0
30
0.0
10
89.0
20
-421.0
30
0.0
10
97.0
20
-406.0
30
0.0
10
107.0
20
-375.0
30
0.0
10
119.0
20
-331.0
30
0.0
10
116.0
20
-318.0
30
0.0
10
69.0
20
-279.0
30
0.0
10
23.0
20
-196.0
30
0.0
10
30.0
20
-130.0
30
0.0
10
58.0
20
-105.0
30
0.0
10
96.0
20
-95.0
30
0.0
10
109.0
20
-78.0
30
0.0
10
138.0
20
-68.0
30
0.0
10
163.0
20
-53.0
30
0.0
10
176.0
20
-42.0
30
0.0
10
189.0
20
-30.0
30
0.0
10
217.0
20
-16.0
30
0.0
10
262.0
20
-14.0
30
0.0
10
275.0
20
0.0
30
0.0
10
296.0
20
-10.0
30
0.0
10
344.0
20
-6.0
30
0.0
10
382.0
20
-16.0
30
0.0
10
411.0
20
-33.0
30
0.0
10
438.0
20
-67.0
30
0.0
10
466.0
20
-73.0
30
0.0
10
514.0
20
-46.0
30
0.0
10
531.0
20
-40.0
30
0.0
10
550.0
20
-42.0
30
0.0
10
595.0
20
-46.0
30
0.0
10
652.0
20
-57.0
30
0.0
10
684.0
20
-81.0
30
0.0
10
714.0
20
-102.0
30
0.0
10
745.0
20
-129.0
30
0.0
10
776.0
20
-138.0
30
0.0
10
837.0
20
-169.0
30
0.0
10
859.0
20
-176.0
30
0.0
10
908.0
20
-164.0
30
0.0
10
927.0
20
-166.0
30
0.0
10
955.0
20
-160.0
30
0.0
10
985.0
20
-154.0
30
0.0
10
1019.0
20
-147.0
30
0.0
10
1029.0
20
-149.0
30
0.0
10
1081.0
20
-146.0
30
0.0
10
1107.0
20
-132.0
30
0.0
10
1130.0
20
-117.0
30
0.0
10
1161.0
20
-114.0
30
0.0
10
1208.0
20
-141.0
30
0.0
10
1242.0
20
-145.0
30
0.0
10
1248.0
20
-156.0
30
0.0
10
1279.0
20
-165.0
30
0.0
10
1304.0
20
-160.0
30
0.0
10
1338.0
20
-154.0
30
0.0
10
1375.0
20
-156.0
30
0.0
10
1415.0
20
-144.0
30
0.0
10
1433.0
20
-125.0
30
0.0
10
1470.0
20
-110.0
30
0.0
10
1529.0
20
-91.0
30
0.0
10
1606.0
20
-38.0
30
0.0
10
1625.0
20
-34.0
30
0.0
10
1633.0
20
-39.0
30
0.0
10
1639.0
20
-125.0
30
0.0
10
1629.0
20
-207.0
30
0.0
10
1634.0
20
-229.0
30
0.0
10
1649.0
20
-244.0
30
0.0
10
1686.0
20
-281.0
30
0.0
10
1716.0
20
-292.0
30
0.0
10
1759.0
20
-285.0
30
0.0
10
1797.0
20
-261.0
30
0.0
10
1809.0
20
-261.0
30
0.0
10
1813.0
20
-274.0
30
0.0
10
1795.0
20
-306.0
30
0.0
10
1784.0
20
-319.0
30
0.0
10
1785.0
20
-344.0
30
0.0
10
1802.0
20
-366.0
30
0.0
10
1823.0
20
-371.0
30
0.0
10
1860.0
20
-364.0
30
0.0
10
1888.0
20
-362.0
30
0.0
10
1924.0
20
-402.0
30
0.0
10
1939.0
20
-416.0
30
0.0
10
1966.0
20
-433.0
30
0.0
10
1997.0
20
-445.0
30
0.0
10
2022.0
20
-413.0
30
0.0
10
2059.0
20
-411.0
30
0.0
10
2087.0
20
-412.0
30
0.0
10
2143.0
20
-381.0
30
0.0
10
2176.0
20
-326.0
30
0.0
10
2207.0
20
-303.0
30
0.0
10
2233.0
20
-264.0
30
0.0
10
2252.0
20
-255.0
30
0.0
10
2278.0
20
-227.0
30
0.0
10
2307.0
20
-207.0
30
0.0
10
2323.0
20
-202.0
30
0.0
10
2345.0
20
-209.0
30
0.0
10
2355.0
20
-235.0
30
0.0
10
2346.0
20
-318.0
30
0.0
10
2341.0
20
-341.0
30
0.0
10
2312.0
20
-370.0
30
0.0
10
2279.0
20
-406.0
30
0.0
10
2245.0
20
-464.0
30
0.0
10
2256.0
20
-479.0
30
0.0
10
2270.0
20
-535.0
30
0.0
10
2282.0
20
-535.0
30
0.0
10
2295.0
20
-538.0
30
0.0
10
2295.0
20
-550.0
30
0.0
10
2296.0
20
-560.0
30
0.0
10
2319.0
20
-578.0
30
0.0
10
2329.0
20
-596.0
30
0.0
10
2322.0
20
-640.0
30
0.0
10
2339.0
20
-660.0
30
0.0
10
2373.0
20
-662.0
30
0.0
10
2405.0
20
-668.0
30
0.0
10
2439.0
20
-687.0
30
0.0
10
2485.0
20
-714.0
30
0.0
10
2487.0
20
-732.0
30
0.0
10
2480.0
20
-757.0
30
0.0
10
2478.0
20
-782.0
30
0.0
10
2476.0
20
-794.0
30
0.0
10
2488.0
20
-817.0
30
0.0
10
2488.0
20
-819.0
30
0.0
6
Solid
370
35
62
0
0
LWPOLYLINE
5
741
100
AcDbEntity
100
AcDbPolyline
90
7
70
1
10
2023.0
20
-448.0
30
0.0
10
2023.0
20
-449.0
30
0.0
10
2018.0
20
-462.0
30
0.0
10
2004.0
20
-446.0
30
0.0
10
2020.0
20
-438.0
30
0.0
10
2023.0
20
-441.0
30
0.0
10
2023.0
20
-448.0
30
0.0
6
Solid
370
35
62
0
0
LWPOLYLINE
5
743
100
AcDbEntity
100
AcDbPolyline
90
15
70
1
10
747.0
20
-2312.0
30
0.0
10
754.0
20
-2318.0
30
0.0
10
754.0
20
-2319.0
30
0.0
10
746.0
20
-2327.0
30
0.0
10
744.0
20
-2326.0
30
0.0
10
741.0
20
-2327.0
30
0.0
10
738.0
20
-2324.0
30
0.0
10
731.0
20
-2327.0
30
0.0
10
728.0
20
-2323.0
30
0.0
10
723.0
20
-2320.0
30
0.0
10
710.0
20
-2298.0
30
0.0
10
714.0
20
-2285.0
30
0.0
10
734.0
20
-2292.0
30
0.0
10
745.0
20
-2302.0
30
0.0
10
747.0
20
-2312.0
30
0.0
6
Solid
370
35
62
0
0
LWPOLYLINE
5
745
100
AcDbEntity
100
AcDbPolyline
90
7
70
1
10
581.0
20
-69.0
30
0.0
10
578.0
20
-65.0
30
0.0
10
578.0
20
-64.0
30
0.0
10
584.0
20
-56.0
30
0.0
10
587.0
20
-59.0
30
0.0
10
587.0
20
-62.0
30
0.0
10
581.0
20
-69.0
30
0.0
6
Solid
370
35
62
0
0
LWPOLYLINE
5
747
100
AcDbEntity
100
AcDbPolyline
90
5
70
1
10
110.0
20
-238.0
30
0.0
10
106.0
20
-234.0
30
0.0
10
110.0
20
-231.0
30
0.0
10
113.0
20
-235.0
30
0.0
10
110.0
20
-238.0
30
0.0
6
Solid
370
35
62
0
0
LWPOLYLINE
5
749
100
AcDbEntity
100
AcDbPolyline
90
13
70
1
10
2413.0
20
-1209.0
30
0.0
10
2415.0
20
-1210.0
30
0.0
10
2417.0
20
-1213.0
30
0.0
10
2416.0
20
-1218.0
30
0.0
10
2414.0
20
-1218.0
30
0.0
10
2413.0
20
-1219.0
30
0.0
10
2411.0
20
-1219.0
30
0.0
10
2410.0
20
-1218.0
30
0.0
10
2408.0
20
-1216.0
30
0.0
10
2409.0
20
-1213.0
30
0.0
10
2410.0
20
-1211.0
30
0.0
10
2411.0
20
-1211.0
30
0.0
10
2413.0
20
-1209.0
30
0.0
6
Solid
370
35
62
0
0
LWPOLYLINE
5
74b
100
AcDbEntity
100
AcDbPolyline
90
19
70
1
10
1952.0
20
-424.0
30
0.0
10
1966.0
20
-433.0
30
0.0
10
1997.0
20
-445.0
30
0.0
10
2022.0
20
-413.0
30
0.0
10
2059.0
20
-411.0
30
0.0
10
2087.0
20
-412.0
30
0.0
10
2143.0
20
-381.0
30
0.0
10
2150.0
20
-369.0
30
0.0
10
2154.0
20
-377.0
30
0.0
10
2141.0
20
-407.0
30
0.0
10
2128.0
20
-429.0
30
0.0
10
2096.0
20
-469.0
30
0.0
10
2061.0
20
-495.0
30
0.0
10
2001.0
20
-541.0
30
0.0
10
1967.0
20
-556.0
30
0.0
10
1935.0
20
-557.0
30
0.0
10
1929.0
20
-530.0
30
0.0
10
1930.0
20
-499.0
30
0.0
10
1952.0
20
-424.0
30
0.0
6
Solid
370
35
62
0
0
LWPOLYLINE
5
74d
100
AcDbEntity
100
AcDbPolyline
90
12
70
1
10
1955.0
20
-2022.0
30
0.0
10
1946.0
20
-2028.0
30
0.0
10
1944.0
20
-2048.0
30
0.0
10
1934.0
20
-2045.0
30
0.0
10
1923.0
20
-2041.0
30
0.0
10
1915.0
20
-2012.0
30
0.0
10
1912.0
20
-1991.0
30
0.0
10
1913.0
20
-1973.0
30
0.0
10
1926.0
20
-1974.0
30
0.0
10
1936.0
20
-1990.0
30
0.0
10
1945.0
20
-2001.0
30
0.0
10
1955.0
20
-2022.0
30
0.0
6
Solid
370
35
62
0
0
LWPOLYLINE
5
74f
100
AcDbEntity
100
AcDbPolyline
90
10
70
1
10
1714.0
20
-2189.0
30
0.0
10
1704.0
20
-2184.0
30
0.0
10
1688.0
20
-2180.0
30
0.0
10
1685.0
20
-2168.0
30
0.0
10
1681.0
20
-2154.0
30
0.0
10
1682.0
20
-2136.0
30
0.0
10
1694.0
20
-2146.0
30
0.0
10
1705.0
20
-2169.0
30
0.0
10
1713.0
20
-2182.0
30
0.0
10
1714.0
20
-2189.0
30
0.0
6
Solid
370
35
62
0
0
LWPOLYLINE
5
751
100
AcDbEntity
100
AcDbPolyline
90
22
70
1
10
1650.0
20
-2190.0
30
0.0
10
1639.0
20
-2199.0
30
0.0
10
1636.0
20
-2233.0
30
0.0
10
1631.0
20
-2246.0
30
0.0
10
1620.0
20
-2270.0
30
0.0
10
1607.0
20
-2258.0
30
0.0
10
1582.0
20
-2215.0
30
0.0
10
1557.0
20
-2182.0
30
0.0
10
1524.0
20
-2154.0
30
0.0
10
1498.0
20
-2131.0
30
0.0
10
1482.0
20
-2105.0
30
0.0
10
1463.0
20
-2075.0
30
0.0
10
1461.0
20
-1993.0
30
0.0
10
1483.0
20
-1963.0
30
0.0
10
1525.0
20
-2017.0
30
0.0
10
1568.0
20
-2096.0
30
0.0
10
1602.0
20
-2113.0
30
0.0
10
1626.0
20
-2129.0
30
0.0
10
1633.0
20
-2147.0
30
0.0
10
1645.0
20
-2163.0
30
0.0
10
1650.0
20
-2176.0
30
0.0
10
1650.0
20
-2190.0
30
0.0
6
Solid
370
35
62
0
0
LWPOLYLINE
5
753
100
AcDbEntity
100
AcDbPolyline
90
10
70
1
10
1417.0
20
-2305.0
30
0.0
10
1402.0
20
-2301.0
30
0.0
10
1400.0
20
-2301.0
30
0.0
10
1380.0
20
-2296.0
30
0.0
10
1388.0
20
-2267.0
30
0.0
10
1398.0
20
-2249.0
30
0.0
10
1412.0
20
-2226.0
30
0.0
10
1433.0
20
-2228.0
30
0.0
10
1428.0
20
-2260.0
30
0.0
10
1417.0
20
-2305.0
30
0.0
6
Solid
370
35
62
0
0
LWPOLYLINE
5
755
100
AcDbEntity
100
AcDbPolyline
90
12
70
1
10
1741.0
20
-288.0
30
0.0
10
1759.0
20
-285.0
30
0.0
10
1797.0
20
-261.0
30
0.0
10
1809.0
20
-261.0
30
0.0
10
1813.0
20
-274.0
30
0.0
10
1795.0
20
-306.0
30
0.0
10
1784.0
20
-319.0
30
0.0
10
1785.0
20
-344.0
30
0.0
10
1787.0
20
-347.0
30
0.0
10
1784.0
20
-349.0
30
0.0
10
1751.0
20
-329.0
30
0.0
10
1741.0
20
-288.0
30
0.0
6
Solid
370
35
62
0
0
LWPOLYLINE
5
757
100
AcDbEntity
100
AcDbPolyline
90
14
70
1
10
1630.0
20
-210.0
30
0.0
10
1634.0
20
-229.0
30
0.0
10
1649.0
20
-244.0
30
0.0
10
1666.0
20
-261.0
30
0.0
10
1662.0
20
-267.0
30
0.0
10
1609.0
20
-328.0
30
0.0
10
1593.0
20
-339.0
30
0.0
10
1582.0
20
-347.0
30
0.0
10
1571.0
20
-343.0
30
0.0
10
1565.0
20
-304.0
30
0.0
10
1585.0
20
-257.0
30
0.0
10
1608.0
20
-227.0
30
0.0
10
1628.0
20
-209.0
30
0.0
10
1630.0
20
-210.0
30
0.0
6
Solid
370
35
62
0
0
LWPOLYLINE
5
759
100
AcDbEntity
100
AcDbPolyline
90
17
70
1
10
1403.0
20
-148.0
30
0.0
10
1415.0
20
-144.0
30
0.0
10
1433.0
20
-125.0
30
0.0
10
1456.0
20
-116.0
30
0.0
10
1454.0
20
-123.0
30
0.0
10
1450.0
20
-172.0
30
0.0
10
1449.0
20
-214.0
30
0.0
10
1428.0
20
-269.0
30
0.0
10
1415.0
20
-288.0
30
0.0
10
1400.0
20
-269.0
30
0.0
10
1392.0
20
-248.0
30
0.0
10
1389.0
20
-228.0
30
0.0
10
1390.0
20
-208.0
30
0.0
10
1394.0
20
-184.0
30
0.0
10
1394.0
20
-163.0
30
0.0
10
1395.0
20
-157.0
30
0.0
10
1403.0
20
-148.0
30
0.0
6
Solid
370
35
62
0
0
LWPOLYLINE
5
75b
100
AcDbEntity
100
AcDbPolyline
90
11
70
1
10
919.0
20
-165.0
30
0.0
10
927.0
20
-166.0
30
0.0
10
955.0
20
-160.0
30
0.0
10
948.0
20
-187.0
30
0.0
10
937.0
20
-202.0
30
0.0
10
928.0
20
-210.0
30
0.0
10
914.0
20
-213.0
30
0.0
10
908.0
20
-210.0
30
0.0
10
907.0
20
-200.0
30
0.0
10
919.0
20
-167.0
30
0.0
10
919.0
20
-165.0
30
0.0
6
Solid
370
35
62
0
0
LWPOLYLINE
5
75d
100
AcDbEntity
100
AcDbPolyline
90
11
70
1
10
1336.0
20
-2284.0
30
0.0
10
1297.0
20
-2268.0
30
0.0
10
1279.0
20
-2267.0
30
0.0
10
1280.0
20
-2261.0
30
0.0
10
1280.0
20
-2206.0
30
0.0
10
1278.0
20
-2186.0
30
0.0
10
1284.0
20
-2183.0
30
0.0
10
1326.0
20
-2237.0
30
0.0
10
1330.0
20
-2267.0
30
0.0
10
1335.0
20
-2278.0
30
0.0
10
1336.0
20
-2284.0
30
0.0
6
Solid
370
35
62
0
0
LWPOLYLINE
5
75f
100
AcDbEntity
100
AcDbPolyline
90
11
70
1
10
918.0
20
-2338.0
30
0.0
10
898.0
20
-2333.0
30
0.0
10
886.0
20
-2325.0
30
0.0
10
870.0
20
-2320.0
30
0.0
10
868.0
20
-2297.0
30
0.0
10
865.0
20
-2284.0
30
0.0
10
861.0
20
-2258.0
30
0.0
10
863.0
20
-2257.0
30
0.0
10
897.0
20
-2277.0
30
0.0
10
917.0
20
-2325.0
30
0.0
10
918.0
20
-2338.0
30
0.0
6
Solid
370
35
62
0
0
LWPOLYLINE
5
761
100
AcDbEntity
100
AcDbPolyline
90
9
70
1
10
760.0
20
-133.0
30
0.0
10
776.0
20
-138.0
30
0.0
10
805.0
20
-153.0
30
0.0
10
787.0
20
-168.0
30
0.0
10
760.0
20
-179.0
30
0.0
10
727.0
20
-167.0
30
0.0
10
732.0
20
-149.0
30
0.0
10
755.0
20
-135.0
30
0.0
10
760.0
20
-133.0
30
0.0
6
Solid
370
35
62
0
0
LWPOLYLINE
5
763
100
AcDbEntity
100
AcDbPolyline
90
13
70
1
10
861.0
20
-2318.0
30
0.0
10
855.0
20
-2316.0
30
0.0
10
845.0
20
-2327.0
30
0.0
10
839.0
20
-2332.0
30
0.0
10
837.0
20
-2316.0
30
0.0
10
834.0
20
-2297.0
30
0.0
10
830.0
20
-2275.0
30
0.0
10
833.0
20
-2264.0
30
0.0
10
844.0
20
-2273.0
30
0.0
10
854.0
20
-2282.0
30
0.0
10
864.0
20
-2298.0
30
0.0
10
865.0
20
-2311.0
30
0.0
10
861.0
20
-2318.0
30
0.0
6
Solid
370
35
62
0
0
LWPOLYLINE
5
765
100
AcDbEntity
100
AcDbPolyline
90
13
70
1
10
724.0
20
-2372.0
30
0.0
10
723.0
20
-2372.0
30
0.0
10
709.0
20
-2380.0
30
0.0
10
708.0
20
-2374.0
30
0.0
10
705.0
20
-2355.0
30
0.0
10
704.0
20
-2341.0
30
0.0
10
706.0
20
-2325.0
30
0.0
10
711.0
20
-2325.0
30
0.0
10
717.0
20
-2335.0
30
0.0
10
725.0
20
-2350.0
30
0.0
10
729.0
20
-2363.0
30
0.0
10
730.0
20
-2367.0
30
0.0
10
724.0
20
-2372.0
30
0.0
6
Solid
370
35
62
0
0
LWPOLYLINE
5
767
100
AcDbEntity
100
AcDbPolyline
90
31
70
1
10
575.0
20
-2433.0
30
0.0
10
574.0
20
-2433.0
30
0.0
10
549.0
20
-2429.0
30
0.0
10
518.0
20
-2409.0
30
0.0
10
475.0
20
-2383.0
30
0.0
10
434.0
20
-2382.0
30
0.0
10
401.0
20
-2421.0
30
0.0
10
372.0
20
-2437.0
30
0.0
10
363.0
20
-2436.0
30
0.0
10
351.0
20
-2422.0
30
0.0
10
332.0
20
-2417.0
30
0.0
10
316.0
20
-2402.0
30
0.0
10
281.0
20
-2409.0
30
0.0
10
259.0
20
-2378.0
30
0.0
10
218.0
20
-2343.0
30
0.0
10
206.0
20
-2342.0
30
0.0
10
236.0
20
-2301.0
30
0.0
10
277.0
20
-2261.0
30
0.0
10
289.0
20
-2282.0
30
0.0
10
318.0
20
-2287.0
30
0.0
10
468.0
20
-2271.0
30
0.0
10
506.0
20
-2271.0
30
0.0
10
534.0
20
-2262.0
30
0.0
10
555.0
20
-2258.0
30
0.0
10
576.0
20
-2277.0
30
0.0
10
590.0
20
-2307.0
30
0.0
10
602.0
20
-2336.0
30
0.0
10
620.0
20
-2357.0
30
0.0
10
636.0
20
-2411.0
30
0.0
10
638.0
20
-2418.0
30
0.0
10
575.0
20
-2433.0
30
0.0
6
Solid
370
35
62
0
0
LWPOLYLINE
5
769
100
AcDbEntity
100
AcDbPolyline
90
12
70
1
10
83.0
20
-1625.0
30
0.0
10
83.0
20
-1632.0
30
0.0
10
80.0
20
-1645.0
30
0.0
10
78.0
20
-1652.0
30
0.0
10
76.0
20
-1657.0
30
0.0
10
73.0
20
-1660.0
30
0.0
10
65.0
20
-1656.0
30
0.0
10
57.0
20
-1640.0
30
0.0
10
71.0
20
-1617.0
30
0.0
10
73.0
20
-1617.0
30
0.0
10
82.0
20
-1622.0
30
0.0
10
83.0
20
-1625.0
30
0.0
6
Solid
370
35
62
0
0
LWPOLYLINE
5
76b
100
AcDbEntity
100
AcDbPolyline
90
8
70
1
10
227.0
20
-1235.0
30
0.0
10
228.0
20
-1230.0
30
0.0
10
226.0
20
-1227.0
30
0.0
10
224.0
20
-1227.0
30
0.0
10
222.0
20
-1228.0
30
0.0
10
227.0
20
-1233.0
30
0.0
10
227.0
20
-1234.0
30
0.0
10
227.0
20
-1235.0
30
0.0
6
Solid
370
35
62
0
0
LWPOLYLINE
5
76d
100
AcDbEntity
100
AcDbPolyline
90
15
70
1
10
236.0
20
-1201.0
30
0.0
10
232.0
20
-1202.0
30
0.0
10
228.0
20
-1195.0
30
0.0
10
229.0
20
-1185.0
30
0.0
10
233.0
20
-1184.0
30
0.0
10
242.0
20
-1146.0
30
0.0
10
246.0
20
-1124.0
30
0.0
10
248.0
20
-1120.0
30
0.0
10
258.0
20
-1116.0
30
0.0
10
261.0
20
-1134.0
30
0.0
10
256.0
20
-1149.0
30
0.0
10
253.0
20
-1167.0
30
0.0
10
249.0
20
-1183.0
30
0.0
10
242.0
20
-1199.0
30
0.0
10
236.0
20
-1201.0
30
0.0
6
Solid
370
35
62
0
0
LWPOLYLINE
5
76f
100
AcDbEntity
100
AcDbPolyline
90
40
70
1
10
162.0
20
-54.0
30
0.0
10
163.0
20
-53.0
30
0.0
10
176.0
20
-42.0
30
0.0
10
189.0
20
-30.0
30
0.0
10
217.0
20
-16.0
30
0.0
10
262.0
20
-14.0
30
0.0
10
275.0
20
0.0
30
0.0
10
296.0
20
-10.0
30
0.0
10
344.0
20
-6.0
30
0.0
10
382.0
20
-16.0
30
0.0
10
411.0
20
-33.0
30
0.0
10
438.0
20
-67.0
30
0.0
10
466.0
20
-73.0
30
0.0
10
514.0
20
-46.0
30
0.0
10
531.0
20
-40.0
30
0.0
10
550.0
20
-42.0
30
0.0
10
595.0
20
-46.0
30
0.0
10
652.0
20
-57.0
30
0.0
10
654.0
20
-59.0
30
0.0
10
639.0
20
-79.0
30
0.0
10
608.0
20
-97.0
30
0.0
10
599.0
20
-125.0
30
0.0
10
596.0
20
-221.0
30
0.0
10
588.0
20
-260.0
30
0.0
10
585.0
20
-265.0
30
0.0
10
578.0
20
-266.0
30
0.0
10
540.0
20
-244.0
30
0.0
10
509.0
20
-222.0
30
0.0
10
475.0
20
-200.0
30
0.0
10
446.0
20
-180.0
30
0.0
10
422.0
20
-169.0
30
0.0
10
400.0
20
-163.0
30
0.0
10
368.0
20
-136.0
30
0.0
10
329.0
20
-121.0
30
0.0
10
307.0
20
-111.0
30
0.0
10
287.0
20
-88.0
30
0.0
10
265.0
20
-69.0
30
0.0
10
233.0
20
-62.0
30
0.0
10
199.0
20
-66.0
30
0.0
10
162.0
20
-54.0
30
0.0
6
Solid
370
35
62
0
0
LWPOLYLINE
5
771
100
AcDbEntity
100
AcDbPolyline
90
10
70
1
10
81.0
20
-443.0
30
0.0
10
89.0
20
-421.0
30
0.0
10
95.0
20
-411.0
30
0.0
10
102.0
20
-418.0
30
0.0
10
111.0
20
-436.0
30
0.0
10
105.0
20
-469.0
30
0.0
10
92.0
20
-497.0
30
0.0
10
86.0
20
-505.0
30
0.0
10
71.0
20
-514.0
30
0.0
10
81.0
20
-443.0
30
0.0
6
Solid
370
35
62
0
0
LWPOLYLINE
5
773
100
AcDbEntity
100
AcDbPolyline
90
8
70
1
10
109.0
20
-368.0
30
0.0
10
111.0
20
-361.0
30
0.0
10
125.0
20
-349.0
30
0.0
10
144.0
20
-343.0
30
0.0
10
139.0
20
-363.0
30
0.0
10
115.0
20
-388.0
30
0.0
10
104.0
20
-390.0
30
0.0
10
109.0
20
-368.0
30
0.0
6
Solid
370
35
62
0
0
LWPOLYLINE
5
775
100
AcDbEntity
100
AcDbPolyline
90
13
70
1
10
123.0
20
-265.0
30
0.0
10
115.0
20
-259.0
30
0.0
10
96.0
20
-236.0
30
0.0
10
88.0
20
-223.0
30
0.0
10
89.0
20
-210.0
30
0.0
10
99.0
20
-210.0
30
0.0
10
107.0
20
-218.0
30
0.0
10
115.0
20
-229.0
30
0.0
10
126.0
20
-243.0
30
0.0
10
133.0
20
-255.0
30
0.0
10
126.0
20
-262.0
30
0.0
10
125.0
20
-262.0
30
0.0
10
123.0
20
-265.0
30
0.0
6
Solid
370
35
62
0
0
LWPOLYLINE
5
777
100
AcDbEntity
100
AcDbPolyline
90
6
70
1
10
20.0
20
-2180.0
30
0.0
10
30.0
20
-2143.0
30
0.0
10
34.0
20
-2145.0
30
0.0
10
35.0
20
-2158.0
30
0.0
10
34.0
20
-2172.0
30
0.0
10
20.0
20
-2180.0
30
0.0
6
Solid
370
35
62
0
0
LWPOLYLINE
5
779
100
AcDbEntity
100
AcDbPolyline
90
11
70
1
10
28.0
20
-2044.0
30
0.0
10
26.0
20
-2035.0
30
0.0
10
15.0
20
-2019.0
30
0.0
10
11.0
20
-2014.0
30
0.0
10
14.0
20
-2008.0
30
0.0
10
20.0
20
-1997.0
30
0.0
10
37.0
20
-1988.0
30
0.0
10
46.0
20
-2015.0
30
0.0
10
41.0
20
-2032.0
30
0.0
10
35.0
20
-2041.0
30
0.0
10
28.0
20
-2044.0
30
0.0
6
Solid
370
35
62
0
0
LWPOLYLINE
5
77c
100
AcDbEntity
8
zone_0_q2
100
AcDbPolyline
90
5
70
1
10
1938.0
20
-438.0
30
0.0
10
1935.0
20
-438.0
30
0.0
10
1943.0
20
-422.0
30
0.0
10
1947.0
20
-424.0
30
0.0
10
1938.0
20
-438.0
30
0.0
6
Solid
370
35
62
2
0
LWPOLYLINE
5
77f
100
AcDbEntity
8
zone_1_q2
100
AcDbPolyline
90
7
70
1
10
1934.0
20
-441.0
30
0.0
10
1924.0
20
-457.0
30
0.0
10
1925.0
20
-462.0
30
0.0
10
1921.0
20
-461.0
30
0.0
10
1927.0
20
-440.0
30
0.0
10
1935.0
20
-438.0
30
0.0
10
1934.0
20
-441.0
30
0.0
6
Solid
370
35
62
2
0
LWPOLYLINE
5
782
100
AcDbEntity
8
zone_2_q2
100
AcDbPolyline
90
6
70
1
10
1925.0
20
-462.0
30
0.0
10
1917.0
20
-529.0
30
0.0
10
1914.0
20
-527.0
30
0.0
10
1918.0
20
-488.0
30
0.0
10
1921.0
20
-461.0
30
0.0
10
1925.0
20
-462.0
30
0.0
6
Solid
370
35
62
2
0
LWPOLYLINE
5
785
100
AcDbEntity
8
zone_3_q2
100
AcDbPolyline
90
18
70
1
10
2162.0
20
-348.0
30
0.0
10
2169.0
20
-338.0
30
0.0
10
2178.0
20
-329.0
30
0.0
10
2191.0
20
-327.0
30
0.0
10
2169.0
20
-390.0
30
0.0
10
2165.0
20
-441.0
30
0.0
10
2113.0
20
-504.0
30
0.0
10
2042.0
20
-559.0
30
0.0
10
1961.0
20
-581.0
30
0.0
10
1937.0
20
-578.0
30
0.0
10
1916.0
20
-548.0
30
0.0
10
1917.0
20
-529.0
30
0.0
10
1966.0
20
-562.0
30
0.0
10
1985.0
20
-555.0
30
0.0
10
2011.0
20
-541.0
30
0.0
10
2059.0
20
-504.0
30
0.0
10
2159.0
20
-388.0
30
0.0
10
2162.0
20
-348.0
30
0.0
6
Solid
370
35
62
2
0
LWPOLYLINE
5
788
100
AcDbEntity
8
zone_4_q2
100
AcDbPolyline
90
16
70
1
10
1914.0
20
-2112.0
30
0.0
10
1875.0
20
-2112.0
30
0.0
10
1841.0
20
-2148.0
30
0.0
10
1798.0
20
-2153.0
30
0.0
10
1919.0
20
-2196.0
30
0.0
10
1946.0
20
-2187.0
30
0.0
10
1948.0
20
-2146.0
30
0.0
10
1967.0
20
-2008.0
30
0.0
10
1958.0
20
-1992.0
30
0.0
10
1941.0
20
-1974.0
30
0.0
10
1920.0
20
-1964.0
30
0.0
10
1906.0
20
-1976.0
30
0.0
10
1905.0
20
-2002.0
30
0.0
10
1919.0
20
-2042.0
30
0.0
10
1929.0
20
-2080.0
30
0.0
10
1914.0
20
-2112.0
30
0.0
6
Solid
370
35
62
2
0
LWPOLYLINE
5
78b
100
AcDbEntity
8
zone_5_q2
100
AcDbPolyline
90
6
70
1
10
1798.0
20
-2153.0
30
0.0
10
1791.0
20
-2153.0
30
0.0
10
1755.0
20
-2141.0
30
0.0
10
1745.0
20
-2136.0
30
0.0
10
1769.0
20
-2142.0
30
0.0
10
1798.0
20
-2153.0
30
0.0
6
Solid
370
35
62
2
0
LWPOLYLINE
5
78e
100
AcDbEntity
8
zone_6_q2
100
AcDbPolyline
90
11
70
1
10
1700.0
20
-2124.0
30
0.0
10
1595.0
20
-2076.0
30
0.0
10
1563.0
20
-2024.0
30
0.0
10
1543.0
20
-1985.0
30
0.0
10
1532.0
20
-1962.0
30
0.0
10
1534.0
20
-1962.0
30
0.0
10
1565.0
20
-2000.0
30
0.0
10
1596.0
20
-2051.0
30
0.0
10
1640.0
20
-2075.0
30
0.0
10
1745.0
20
-2136.0
30
0.0
10
1700.0
20
-2124.0
30
0.0
6
Solid
370
35
62
2
0
LWPOLYLINE
5
791
100
AcDbEntity
8
zone_7_q2
100
AcDbPolyline
90
6
70
1
10
1532.0
20
-1962.0
30
0.0
10
1464.0
20
-1964.0
30
0.0
10
1470.0
20
-1948.0
30
0.0
10
1499.0
20
-1930.0
30
0.0
10
1525.0
20
-1946.0
30
0.0
10
1532.0
20
-1962.0
30
0.0
6
Solid
370
35
62
2
0
LWPOLYLINE
5
794
100
AcDbEntity
8
zone_8_q2
100
AcDbPolyline
90
25
70
1
10
1457.0
20
-1985.0
30
0.0
10
1455.0
20
-2024.0
30
0.0
10
1473.0
20
-2097.0
30
0.0
10
1540.0
20
-2203.0
30
0.0
10
1580.0
20
-2245.0
30
0.0
10
1569.0
20
-2289.0
30
0.0
10
1540.0
20
-2304.0
30
0.0
10
1504.0
20
-2295.0
30
0.0
10
1459.0
20
-2253.0
30
0.0
10
1403.0
20
-2216.0
30
0.0
10
1376.0
20
-2254.0
30
0.0
10
1363.0
20
-2253.0
30
0.0
10
1366.0
20
-2220.0
30
0.0
10
1410.0
20
-2204.0
30
0.0
10
1447.0
20
-2205.0
30
0.0
10
1473.0
20
-2229.0
30
0.0
10
1505.0
20
-2272.0
30
0.0
10
1538.0
20
-2279.0
30
0.0
10
1501.0
20
-2170.0
30
0.0
10
1467.0
20
-2130.0
30
0.0
10
1444.0
20
-2086.0
30
0.0
10
1438.0
20
-2027.0
30
0.0
10
1456.0
20
-1964.0
30
0.0
10
1464.0
20
-1964.0
30
0.0
10
1457.0
20
-1985.0
30
0.0
6
Solid
370
35
62
2
0
LWPOLYLINE
5
797
100
AcDbEntity
8
zone_9_q2
100
AcDbPolyline
90
9
70
1
10
1891.0
20
-533.0
30
0.0
10
1871.0
20
-535.0
30
0.0
10
1900.0
20
-432.0
30
0.0
10
1872.0
20
-419.0
30
0.0
10
1840.0
20
-412.0
30
0.0
10
1858.0
20
-411.0
30
0.0
10
1905.0
20
-418.0
30
0.0
10
1924.0
20
-429.0
30
0.0
10
1891.0
20
-533.0
30
0.0
6
Solid
370
35
62
2
0
LWPOLYLINE
5
79a
100
AcDbEntity
8
zone_10_q2
100
AcDbPolyline
90
6
70
1
10
1794.0
20
-414.0
30
0.0
10
1780.0
20
-398.0
30
0.0
10
1768.0
20
-380.0
30
0.0
10
1771.0
20
-378.0
30
0.0
10
1840.0
20
-412.0
30
0.0
10
1794.0
20
-414.0
30
0.0
6
Solid
370
35
62
2
0
LWPOLYLINE
5
79d
100
AcDbEntity
8
zone_11_q2
100
AcDbPolyline
90
5
70
1
10
1768.0
20
-380.0
30
0.0
10
1767.0
20
-379.0
30
0.0
10
1770.0
20
-377.0
30
0.0
10
1771.0
20
-378.0
30
0.0
10
1768.0
20
-380.0
30
0.0
6
Solid
370
35
62
2
0
LWPOLYLINE
5
7a0
100
AcDbEntity
8
zone_12_q2
100
AcDbPolyline
90
7
70
1
10
1766.0
20
-376.0
30
0.0
10
1767.0
20
-374.0
30
0.0
10
1706.0
20
-318.0
30
0.0
10
1725.0
20
-321.0
30
0.0
10
1749.0
20
-352.0
30
0.0
10
1769.0
20
-374.0
30
0.0
10
1766.0
20
-376.0
30
0.0
6
Solid
370
35
62
2
0
LWPOLYLINE
5
7a3
100
AcDbEntity
8
zone_13_q2
100
AcDbPolyline
90
6
70
1
10
1706.0
20
-318.0
30
0.0
10
1649.0
20
-309.0
30
0.0
10
1648.0
20
-313.0
30
0.0
10
1645.0
20
-311.0
30
0.0
10
1663.0
20
-292.0
30
0.0
10
1706.0
20
-318.0
30
0.0
6
Solid
370
35
62
2
0
LWPOLYLINE
5
7a6
100
AcDbEntity
8
zone_14_q2
100
AcDbPolyline
90
5
70
1
10
1640.0
20
-319.0
30
0.0
10
1638.0
20
-321.0
30
0.0
10
1645.0
20
-311.0
30
0.0
10
1648.0
20
-313.0
30
0.0
10
1640.0
20
-319.0
30
0.0
6
Solid
370
35
62
2
0
LWPOLYLINE
5
7a9
100
AcDbEntity
8
zone_15_q2
100
AcDbPolyline
90
27
70
1
10
1638.0
20
-321.0
30
0.0
10
1595.0
20
-363.0
30
0.0
10
1570.0
20
-381.0
30
0.0
10
1550.0
20
-377.0
30
0.0
10
1541.0
20
-340.0
30
0.0
10
1541.0
20
-308.0
30
0.0
10
1549.0
20
-279.0
30
0.0
10
1576.0
20
-231.0
30
0.0
10
1582.0
20
-177.0
30
0.0
10
1537.0
20
-159.0
30
0.0
10
1491.0
20
-187.0
30
0.0
10
1465.0
20
-229.0
30
0.0
10
1454.0
20
-261.0
30
0.0
10
1442.0
20
-292.0
30
0.0
10
1431.0
20
-299.0
30
0.0
10
1436.0
20
-269.0
30
0.0
10
1454.0
20
-223.0
30
0.0
10
1472.0
20
-182.0
30
0.0
10
1492.0
20
-146.0
30
0.0
10
1529.0
20
-130.0
30
0.0
10
1601.0
20
-154.0
30
0.0
10
1616.0
20
-186.0
30
0.0
10
1607.0
20
-224.0
30
0.0
10
1574.0
20
-269.0
30
0.0
10
1550.0
20
-318.0
30
0.0
10
1560.0
20
-362.0
30
0.0
10
1638.0
20
-321.0
30
0.0
6
Solid
370
35
62
2
0
LWPOLYLINE
5
7ac
100
AcDbEntity
8
zone_16_q1
100
AcDbPolyline
90
7
70
1
10
1429.0
20
-1314.0
30
0.0
10
1430.0
20
-1314.0
30
0.0
10
1431.0
20
-1313.0
30
0.0
10
1433.0
20
-1313.0
30
0.0
10
1434.0
20
-1314.0
30
0.0
10
1430.0
20
-1318.0
30
0.0
10
1429.0
20
-1314.0
30
0.0
6
Solid
370
35
62
40
0
LWPOLYLINE
5
7af
100
AcDbEntity
8
zone_17_q2
100
AcDbPolyline
90
6
70
1
10
1410.0
20
-287.0
30
0.0
10
1392.0
20
-277.0
30
0.0
10
1385.0
20
-251.0
30
0.0
10
1384.0
20
-243.0
30
0.0
10
1393.0
20
-253.0
30
0.0
10
1410.0
20
-287.0
30
0.0
6
Solid
370
35
62
2
0
LWPOLYLINE
5
7b2
100
AcDbEntity
8
zone_18_q2
100
AcDbPolyline
90
24
70
1
10
1341.0
20
-195.0
30
0.0
10
1314.0
20
-186.0
30
0.0
10
1273.0
20
-192.0
30
0.0
10
1243.0
20
-189.0
30
0.0
10
1175.0
20
-154.0
30
0.0
10
1129.0
20
-160.0
30
0.0
10
987.0
20
-166.0
30
0.0
10
963.0
20
-186.0
30
0.0
10
909.0
20
-219.0
30
0.0
10
903.0
20
-191.0
30
0.0
10
902.0
20
-177.0
30
0.0
10
885.0
20
-186.0
30
0.0
10
881.0
20
-197.0
30
0.0
10
888.0
20
-211.0
30
0.0
10
899.0
20
-223.0
30
0.0
10
918.0
20
-226.0
30
0.0
10
940.0
20
-217.0
30
0.0
10
1003.0
20
-178.0
30
0.0
10
1112.0
20
-171.0
30
0.0
10
1162.0
20
-160.0
30
0.0
10
1201.0
20
-177.0
30
0.0
10
1222.0
20
-190.0
30
0.0
10
1300.0
20
-207.0
30
0.0
10
1341.0
20
-195.0
30
0.0
6
Solid
370
35
62
2
0
LWPOLYLINE
5
7b5
100
AcDbEntity
8
zone_19_q2
100
AcDbPolyline
90
7
70
1
10
1384.0
20
-243.0
30
0.0
10
1377.0
20
-235.0
30
0.0
10
1362.0
20
-202.0
30
0.0
10
1341.0
20
-195.0
30
0.0
10
1357.0
20
-190.0
30
0.0
10
1382.0
20
-221.0
30
0.0
10
1384.0
20
-243.0
30
0.0
6
Solid
370
35
62
2
0
LWPOLYLINE
5
7b8
100
AcDbEntity
8
zone_20_q1
100
AcDbPolyline
90
8
70
1
10
963.0
20
-1519.0
30
0.0
10
964.0
20
-1544.0
30
0.0
10
966.0
20
-1547.0
30
0.0
10
962.0
20
-1547.0
30
0.0
10
963.0
20
-1521.0
30
0.0
10
958.0
20
-1434.0
30
0.0
10
960.0
20
-1451.0
30
0.0
10
963.0
20
-1519.0
30
0.0
6
Solid
370
35
62
40
0
LWPOLYLINE
5
7bb
100
AcDbEntity
8
zone_21_q2
100
AcDbPolyline
90
12
70
1
10
653.0
20
-2360.0
30
0.0
10
692.0
20
-2316.0
30
0.0
10
693.0
20
-2314.0
30
0.0
10
703.0
20
-2379.0
30
0.0
10
647.0
20
-2384.0
30
0.0
10
635.0
20
-2382.0
30
0.0
10
647.0
20
-2366.0
30
0.0
10
635.0
20
-2341.0
30
0.0
10
619.0
20
-2311.0
30
0.0
10
624.0
20
-2316.0
30
0.0
10
647.0
20
-2347.0
30
0.0
10
653.0
20
-2360.0
30
0.0
6
Solid
370
35
62
2
0
LWPOLYLINE
5
7be
100
AcDbEntity
8
zone_22_q2
100
AcDbPolyline
90
8
70
1
10
692.0
20
-2312.0
30
0.0
10
714.0
20
-2274.0
30
0.0
10
732.0
20
-2276.0
30
0.0
10
747.0
20
-2290.0
30
0.0
10
743.0
20
-2289.0
30
0.0
10
711.0
20
-2280.0
30
0.0
10
693.0
20
-2314.0
30
0.0
10
692.0
20
-2312.0
30
0.0
6
Solid
370
35
62
2
0
LWPOLYLINE
5
7c1
100
AcDbEntity
8
zone_23_q2
100
AcDbPolyline
90
7
70
1
10
747.0
20
-2290.0
30
0.0
10
776.0
20
-2298.0
30
0.0
10
815.0
20
-2268.0
30
0.0
10
823.0
20
-2265.0
30
0.0
10
805.0
20
-2317.0
30
0.0
10
787.0
20
-2328.0
30
0.0
10
747.0
20
-2290.0
30
0.0
6
Solid
370
35
62
2
0
LWPOLYLINE
5
7c4
100
AcDbEntity
8
zone_24_q2
100
AcDbPolyline
90
5
70
1
10
824.0
20
-2264.0
30
0.0
10
866.0
20
-2235.0
30
0.0
10
880.0
20
-2244.0
30
0.0
10
823.0
20
-2265.0
30
0.0
10
824.0
20
-2264.0
30
0.0
6
Solid
370
35
62
2
0
LWPOLYLINE
5
7c7
100
AcDbEntity
8
zone_25_q2
100
AcDbPolyline
90
17
70
1
10
880.0
20
-2244.0
30
0.0
10
890.0
20
-2241.0
30
0.0
10
959.0
20
-2291.0
30
0.0
10
1017.0
20
-2278.0
30
0.0
10
1064.0
20
-2273.0
30
0.0
10
1103.0
20
-2264.0
30
0.0
10
1149.0
20
-2252.0
30
0.0
10
1167.0
20
-2245.0
30
0.0
10
1185.0
20
-2236.0
30
0.0
10
1184.0
20
-2257.0
30
0.0
10
1182.0
20
-2258.0
30
0.0
10
1135.0
20
-2276.0
30
0.0
10
1092.0
20
-2297.0
30
0.0
10
1040.0
20
-2300.0
30
0.0
10
955.0
20
-2301.0
30
0.0
10
899.0
20
-2256.0
30
0.0
10
880.0
20
-2244.0
30
0.0
6
Solid
370
35
62
2
0
LWPOLYLINE
5
7ca
100
AcDbEntity
8
zone_26_q2
100
AcDbPolyline
90
11
70
1
10
320.0
20
-2255.0
30
0.0
10
315.0
20
-2251.0
30
0.0
10
198.0
20
-2334.0
30
0.0
10
175.0
20
-2333.0
30
0.0
10
197.0
20
-2314.0
30
0.0
10
226.0
20
-2285.0
30
0.0
10
257.0
20
-2263.0
30
0.0
10
276.0
20
-2256.0
30
0.0
10
307.0
20
-2238.0
30
0.0
10
318.0
20
-2249.0
30
0.0
10
320.0
20
-2255.0
30
0.0
6
Solid
370
35
62
2
0
LWPOLYLINE
5
7cd
100
AcDbEntity
8
zone_27_q2
100
AcDbPolyline
90
19
70
1
10
601.0
20
-2287.0
30
0.0
10
582.0
20
-2266.0
30
0.0
10
525.0
20
-2258.0
30
0.0
10
480.0
20
-2270.0
30
0.0
10
418.0
20
-2265.0
30
0.0
10
365.0
20
-2275.0
30
0.0
10
329.0
20
-2279.0
30
0.0
10
320.0
20
-2255.0
30
0.0
10
334.0
20
-2268.0
30
0.0
10
357.0
20
-2263.0
30
0.0
10
390.0
20
-2257.0
30
0.0
10
426.0
20
-2251.0
30
0.0
10
455.0
20
-2245.0
30
0.0
10
496.0
20
-2232.0
30
0.0
10
541.0
20
-2221.0
30
0.0
10
578.0
20
-2238.0
30
0.0
10
606.0
20
-2286.0
30
0.0
10
619.0
20
-2311.0
30
0.0
10
601.0
20
-2287.0
30
0.0
6
Solid
370
35
62
2
0
LWPOLYLINE
5
7d0
100
AcDbEntity
8
zone_28_q1
100
AcDbPolyline
90
5
70
1
10
387.0
20
-1441.0
30
0.0
10
388.0
20
-1440.0
30
0.0
10
391.0
20
-1442.0
30
0.0
10
390.0
20
-1444.0
30
0.0
10
387.0
20
-1441.0
30
0.0
6
Solid
370
35
62
40
0
LWPOLYLINE
5
7d3
100
AcDbEntity
8
zone_29_q1
100
AcDbPolyline
90
5
70
1
10
468.0
20
-1400.0
30
0.0
10
469.0
20
-1401.0
30
0.0
10
465.0
20
-1403.0
30
0.0
10
463.0
20
-1404.0
30
0.0
10
468.0
20
-1400.0
30
0.0
6
Solid
370
35
62
40
0
LWPOLYLINE
5
7d6
100
AcDbEntity
8
zone_30_q1
100
AcDbPolyline
90
5
70
1
10
436.0
20
-1371.0
30
0.0
10
433.0
20
-1368.0
30
0.0
10
437.0
20
-1367.0
30
0.0
10
439.0
20
-1369.0
30
0.0
10
436.0
20
-1371.0
30
0.0
6
Solid
370
35
62
40
0
LWPOLYLINE
5
7d9
100
AcDbEntity
8
zone_31_q1
100
AcDbPolyline
90
5
70
1
10
372.0
20
-1354.0
30
0.0
10
374.0
20
-1353.0
30
0.0
10
377.0
20
-1352.0
30
0.0
10
375.0
20
-1353.0
30
0.0
10
372.0
20
-1354.0
30
0.0
6
Solid
370
35
62
40
0
LWPOLYLINE
5
7dc
100
AcDbEntity
8
zone_32_q1
100
AcDbPolyline
90
5
70
1
10
362.0
20
-1336.0
30
0.0
10
363.0
20
-1336.0
30
0.0
10
366.0
20
-1338.0
30
0.0
10
365.0
20
-1339.0
30
0.0
10
362.0
20
-1336.0
30
0.0
6
Solid
370
35
62
40
0
LWPOLYLINE
5
7df
100
AcDbEntity
8
zone_33_q1
100
AcDbPolyline
90
5
70
1
10
400.0
20
-1312.0
30
0.0
10
397.0
20
-1310.0
30
0.0
10
398.0
20
-1309.0
30
0.0
10
400.0
20
-1308.0
30
0.0
10
400.0
20
-1312.0
30
0.0
6
Solid
370
35
62
40
0
LWPOLYLINE
5
7e2
100
AcDbEntity
8
zone_34_q1
100
AcDbPolyline
90
14
70
1
10
350.0
20
-1514.0
30
0.0
10
366.0
20
-1515.0
30
0.0
10
373.0
20
-1517.0
30
0.0
10
375.0
20
-1518.0
30
0.0
10
378.0
20
-1522.0
30
0.0
10
376.0
20
-1526.0
30
0.0
10
372.0
20
-1529.0
30
0.0
10
366.0
20
-1531.0
30
0.0
10
358.0
20
-1533.0
30
0.0
10
353.0
20
-1533.0
30
0.0
10
349.0
20
-1532.0
30
0.0
10
344.0
20
-1521.0
30
0.0
10
343.0
20
-1517.0
30
0.0
10
350.0
20
-1514.0
30
0.0
6
Solid
370
35
62
40
0
LWPOLYLINE
5
7e5
100
AcDbEntity
8
zone_35_q1
100
AcDbPolyline
90
7
70
1
10
235.0
20
-1031.0
30
0.0
10
233.0
20
-1030.0
30
0.0
10
235.0
20
-1023.0
30
0.0
10
240.0
20
-1024.0
30
0.0
10
237.0
20
-1029.0
30
0.0
10
237.0
20
-1030.0
30
0.0
10
235.0
20
-1031.0
30
0.0
6
Solid
370
35
62
40
0
LWPOLYLINE
5
7e8
100
AcDbEntity
8
zone_36_q1
100
AcDbPolyline
90
6
70
1
10
228.0
20
-1023.0
30
0.0
10
226.0
20
-1021.0
30
0.0
10
221.0
20
-1017.0
30
0.0
10
224.0
20
-1014.0
30
0.0
10
227.0
20
-1020.0
30
0.0
10
228.0
20
-1023.0
30
0.0
6
Solid
370
35
62
40
0
LWPOLYLINE
5
7eb
100
AcDbEntity
8
zone_37_q1
100
AcDbPolyline
90
6
70
1
10
623.0
20
-916.0
30
0.0
10
619.0
20
-915.0
30
0.0
10
623.0
20
-909.0
30
0.0
10
625.0
20
-913.0
30
0.0
10
626.0
20
-919.0
30
0.0
10
623.0
20
-916.0
30
0.0
6
Solid
370
35
62
40
0
LWPOLYLINE
5
7ee
100
AcDbEntity
8
zone_38_q2
100
AcDbPolyline
90
5
70
1
10
686.0
20
-73.0
30
0.0
10
676.0
20
-75.0
30
0.0
10
675.0
20
-71.0
30
0.0
10
686.0
20
-69.0
30
0.0
10
686.0
20
-73.0
30
0.0
6
Solid
370
35
62
2
0
LWPOLYLINE
5
7f1
100
AcDbEntity
8
zone_39_q2
100
AcDbPolyline
90
31
70
1
10
139.0
20
-67.0
30
0.0
10
148.0
20
-62.0
30
0.0
10
152.0
20
-61.0
30
0.0
10
238.0
20
-70.0
30
0.0
10
308.0
20
-110.0
30
0.0
10
353.0
20
-142.0
30
0.0
10
402.0
20
-172.0
30
0.0
10
457.0
20
-210.0
30
0.0
10
503.0
20
-244.0
30
0.0
10
543.0
20
-268.0
30
0.0
10
579.0
20
-285.0
30
0.0
10
608.0
20
-287.0
30
0.0
10
622.0
20
-250.0
30
0.0
10
626.0
20
-193.0
30
0.0
10
623.0
20
-128.0
30
0.0
10
632.0
20
-104.0
30
0.0
10
651.0
20
-94.0
30
0.0
10
664.0
20
-108.0
30
0.0
10
683.0
20
-120.0
30
0.0
10
697.0
20
-147.0
30
0.0
10
711.0
20
-169.0
30
0.0
10
731.0
20
-204.0
30
0.0
10
682.0
20
-328.0
30
0.0
10
585.0
20
-342.0
30
0.0
10
532.0
20
-315.0
30
0.0
10
438.0
20
-260.0
30
0.0
10
369.0
20
-217.0
30
0.0
10
304.0
20
-161.0
30
0.0
10
254.0
20
-115.0
30
0.0
10
173.0
20
-80.0
30
0.0
10
139.0
20
-67.0
30
0.0
6
Solid
370
35
62
2
0
ENDSEC
0
SECTION
2
OBJECTS
0
DICTIONARY
5
73d
330
0
100
AcDbDictionary
281
1
3
ACAD_GROUP
350
73e
0
DICTIONARY
5
73e
330
73d
100
AcDbDictionary
281
1
0
ENDSEC
0
EOF
