999

0
SECTION
2
HEADER
9
$ACADVER
1
AC1021
9
$HANDSEED
5
8bf
0
ENDSEC
0
SECTION
2
CLASSES
0
ENDSEC
0
SECTION
2
TABLES
0
TABLE
2
VPORT
5
7f4
100
AcDbSymbolTable
70
1
0
VPORT
5
7f3
100
AcDbSymbolTableRecord
100
AcDbViewportTableRecord
2
*ACTIVE
10
0
20
0
11
1
21
1
12
500.0
22
500.0
40
1000.0
70
0
0
ENDTAB
0
TABLE
2
LTYPE
5
7f5
100
AcDbSymbolTable
70
3
0
LTYPE
5
7fd
100
AcDbSymbolTableRecord
100
AcDbLinetypeTableRecord
2
Solid
70
0
72
65
73
0
3

0
LTYPE
5
7fe
100
AcDbSymbolTableRecord
100
AcDbLinetypeTableRecord
2
ByBlock
70
0
72
65
73
0
3

0
LTYPE
5
7ff
100
AcDbSymbolTableRecord
100
AcDbLinetypeTableRecord
2
ByLayer
70
0
72
65
73
0
3

0
ENDTAB
0
TABLE
2
LAYER
5
7f6
100
AcDbSymbolTable
70
30
0
LAYER
5
800
100
AcDbSymbolTableRecord
100
AcDbLayerTableRecord
2
0
70
0
390
0
0
LAYER
5
868
100
AcDbSymbolTableRecord
100
AcDbLayerTableRecord
2
zone_0_q1
70
0
390
0
0
LAYER
5
86b
100
AcDbSymbolTableRecord
100
AcDbLayerTableRecord
2
zone_1_q2
70
0
390
0
0
LAYER
5
86e
100
AcDbSymbolTableRecord
100
AcDbLayerTableRecord
2
zone_2_q2
70
0
390
0
0
LAYER
5
871
100
AcDbSymbolTableRecord
100
AcDbLayerTableRecord
2
zone_3_q2
70
0
390
0
0
LAYER
5
874
100
AcDbSymbolTableRecord
100
AcDbLayerTableRecord
2
zone_4_q2
70
0
390
0
0
LAYER
5
877
100
AcDbSymbolTableRecord
100
AcDbLayerTableRecord
2
zone_5_q2
70
0
390
0
0
LAYER
5
87a
100
AcDbSymbolTableRecord
100
AcDbLayerTableRecord
2
zone_6_q1
70
0
390
0
0
LAYER
5
87d
100
AcDbSymbolTableRecord
100
AcDbLayerTableRecord
2
zone_7_q1
70
0
390
0
0
LAYER
5
880
100
AcDbSymbolTableRecord
100
AcDbLayerTableRecord
2
zone_8_q2
70
0
390
0
0
LAYER
5
883
100
AcDbSymbolTableRecord
100
AcDbLayerTableRecord
2
zone_9_q2
70
0
390
0
0
LAYER
5
886
100
AcDbSymbolTableRecord
100
AcDbLayerTableRecord
2
zone_10_q2
70
0
390
0
0
LAYER
5
889
100
AcDbSymbolTableRecord
100
AcDbLayerTableRecord
2
zone_11_q2
70
0
390
0
0
LAYER
5
88c
100
AcDbSymbolTableRecord
100
AcDbLayerTableRecord
2
zone_12_q2
70
0
390
0
0
LAYER
5
88f
100
AcDbSymbolTableRecord
100
AcDbLayerTableRecord
2
zone_13_q2
70
0
390
0
0
LAYER
5
892
100
AcDbSymbolTableRecord
100
AcDbLayerTableRecord
2
zone_14_q2
70
0
390
0
0
LAYER
5
895
100
AcDbSymbolTableRecord
100
AcDbLayerTableRecord
2
zone_15_q2
70
0
390
0
0
LAYER
5
898
100
AcDbSymbolTableRecord
100
AcDbLayerTableRecord
2
zone_16_q2
70
0
390
0
0
LAYER
5
89b
100
AcDbSymbolTableRecord
100
AcDbLayerTableRecord
2
zone_17_q2
70
0
390
0
0
LAYER
5
89e
100
AcDbSymbolTableRecord
100
AcDbLayerTableRecord
2
zone_18_q2
70
0
390
0
0
LAYER
5
8a1
100
AcDbSymbolTableRecord
100
AcDbLayerTableRecord
2
zone_19_q2
70
0
390
0
0
LAYER
5
8a4
100
AcDbSymbolTableRecord
100
AcDbLayerTableRecord
2
zone_20_q2
70
0
390
0
0
LAYER
5
8a7
100
AcDbSymbolTableRecord
100
AcDbLayerTableRecord
2
zone_21_q2
70
0
390
0
0
LAYER
5
8aa
100
AcDbSymbolTableRecord
100
AcDbLayerTableRecord
2
zone_22_q2
70
0
390
0
0
LAYER
5
8ad
100
AcDbSymbolTableRecord
100
AcDbLayerTableRecord
2
zone_23_q3
70
0
390
0
0
LAYER
5
8b0
100
AcDbSymbolTableRecord
100
AcDbLayerTableRecord
2
zone_24_q2
70
0
390
0
0
LAYER
5
8b3
100
AcDbSymbolTableRecord
100
AcDbLayerTableRecord
2
zone_25_q2
70
0
390
0
0
LAYER
5
8b6
100
AcDbSymbolTableRecord
100
AcDbLayerTableRecord
2
zone_26_q1
70
0
390
0
0
LAYER
5
8b9
100
AcDbSymbolTableRecord
100
AcDbLayerTableRecord
2
zone_27_q1
70
0
390
0
0
LAYER
5
8bc
100
AcDbSymbolTableRecord
100
AcDbLayerTableRecord
2
zone_28_q2
70
0
390
0
0
ENDTAB
0
TABLE
2
STYLE
5
7f7
100
AcDbSymbolTable
70
0
0
ENDTAB
0
TABLE
2
VIEW
5
7f8
100
AcDbSymbolTable
70
0
0
ENDTAB
0
TABLE
2
UCS
5
7f9
100
AcDbSymbolTable
70
0
0
ENDTAB
0
TABLE
2
APPID
5
7fa
100
AcDbSymbolTable
70
1
0
APPID
5
801
100
AcDbSymbolTableRecord
100
AcDbRegAppTableRecord
2
ACAD
70
0
0
ENDTAB
0
TABLE
2
DIMSTYLE
5
7fb
100
AcDbSymbolTable
70
0
100
AcDbDimStyleTable
71
1
0
ENDTAB
0
TABLE
2
BLOCK_RECORD
5
7fc
100
AcDbSymbolTable
70
2
0
BLOCK_RECORD
5
802
100
AcDbSymbolTableRecord
100
AcDbBlockTableRecord
2
*Model_Space
70
0
280
1
281
0
0
BLOCK_RECORD
5
803
100
AcDbSymbolTableRecord
100
AcDbBlockTableRecord
2
*Paper_Space
70
0
280
1
281
0
0
ENDTAB
0
ENDSEC
0
SECTION
2
BLOCKS
0
BLOCK
5
804
100
AcDbEntity
100
AcDbBlockBegin
2
*Model_Space
70
0
10
0
20
0
30
0
3
*Model_Space
1

0
ENDBLK
5
805
100
AcDbEntity
100
AcDbBlockEnd
0
BLOCK
5
806
100
AcDbEntity
100
AcDbBlockBegin
2
*Paper_Space
70
0
10
0
20
0
30
0
3
*Paper_Space
1

0
ENDBLK
5
807
100
AcDbEntity
100
AcDbBlockEnd
0
ENDSEC
0
SECTION
2
ENTITIES
0
LWPOLYLINE
5
80a
100
AcDbEntity
100
AcDbPolyline
90
287
70
1
10
2598.0
20
-1046.0
30
0.0
10
2594.0
20
-1068.0
30
0.0
10
2582.0
20
-1102.0
30
0.0
10
2567.0
20
-1142.0
30
0.0
10
2559.0
20
-1188.0
30
0.0
10
2560.0
20
-1210.0
30
0.0
10
2569.0
20
-1244.0
30
0.0
10
2571.0
20
-1283.0
30
0.0
10
2572.0
20
-1296.0
30
0.0
10
2567.0
20
-1308.0
30
0.0
10
2556.0
20
-1356.0
30
0.0
10
2554.0
20
-1356.0
30
0.0
10
2544.0
20
-1363.0
30
0.0
10
2554.0
20
-1374.0
30
0.0
10
2555.0
20
-1394.0
30
0.0
10
2549.0
20
-1443.0
30
0.0
10
2542.0
20
-1480.0
30
0.0
10
2520.0
20
-1522.0
30
0.0
10
2506.0
20
-1605.0
30
0.0
10
2507.0
20
-1629.0
30
0.0
10
2517.0
20
-1678.0
30
0.0
10
2552.0
20
-1746.0
30
0.0
10
2544.0
20
-1767.0
30
0.0
10
2525.0
20
-1778.0
30
0.0
10
2500.0
20
-1797.0
30
0.0
10
2489.0
20
-1828.0
30
0.0
10
2463.0
20
-1876.0
30
0.0
10
2448.0
20
-1928.0
30
0.0
10
2410.0
20
-1942.0
30
0.0
10
2404.0
20
-1954.0
30
0.0
10
2406.0
20
-2000.0
30
0.0
10
2400.0
20
-2031.0
30
0.0
10
2377.0
20
-2064.0
30
0.0
10
2337.0
20
-2075.0
30
0.0
10
2250.0
20
-2103.0
30
0.0
10
2177.0
20
-2167.0
30
0.0
10
2162.0
20
-2168.0
30
0.0
10
2134.0
20
-2159.0
30
0.0
10
2122.0
20
-2166.0
30
0.0
10
2110.0
20
-2187.0
30
0.0
10
2103.0
20
-2268.0
30
0.0
10
2103.0
20
-2318.0
30
0.0
10
2105.0
20
-2362.0
30
0.0
10
2095.0
20
-2399.0
30
0.0
10
2055.0
20
-2423.0
30
0.0
10
2025.0
20
-2453.0
30
0.0
10
2003.0
20
-2454.0
30
0.0
10
1983.0
20
-2438.0
30
0.0
10
1924.0
20
-2352.0
30
0.0
10
1894.0
20
-2325.0
30
0.0
10
1827.0
20
-2315.0
30
0.0
10
1803.0
20
-2329.0
30
0.0
10
1757.0
20
-2342.0
30
0.0
10
1741.0
20
-2366.0
30
0.0
10
1738.0
20
-2397.0
30
0.0
10
1750.0
20
-2438.0
30
0.0
10
1754.0
20
-2476.0
30
0.0
10
1765.0
20
-2508.0
30
0.0
10
1780.0
20
-2547.0
30
0.0
10
1787.0
20
-2592.0
30
0.0
10
1785.0
20
-2627.0
30
0.0
10
1755.0
20
-2663.0
30
0.0
10
1744.0
20
-2671.0
30
0.0
10
1726.0
20
-2677.0
30
0.0
10
1679.0
20
-2664.0
30
0.0
10
1642.0
20
-2639.0
30
0.0
10
1599.0
20
-2594.0
30
0.0
10
1578.0
20
-2584.0
30
0.0
10
1523.0
20
-2528.0
30
0.0
10
1515.0
20
-2517.0
30
0.0
10
1502.0
20
-2504.0
30
0.0
10
1462.0
20
-2498.0
30
0.0
10
1434.0
20
-2499.0
30
0.0
10
1419.0
20
-2478.0
30
0.0
10
1340.0
20
-2480.0
30
0.0
10
1306.0
20
-2496.0
30
0.0
10
1233.0
20
-2503.0
30
0.0
10
1183.0
20
-2523.0
30
0.0
10
1146.0
20
-2553.0
30
0.0
10
1137.0
20
-2550.0
30
0.0
10
1118.0
20
-2546.0
30
0.0
10
1085.0
20
-2520.0
30
0.0
10
1018.0
20
-2516.0
30
0.0
10
978.0
20
-2523.0
30
0.0
10
947.0
20
-2531.0
30
0.0
10
922.0
20
-2543.0
30
0.0
10
909.0
20
-2545.0
30
0.0
10
861.0
20
-2509.0
30
0.0
10
830.0
20
-2503.0
30
0.0
10
793.0
20
-2508.0
30
0.0
10
772.0
20
-2523.0
30
0.0
10
746.0
20
-2528.0
30
0.0
10
708.0
20
-2532.0
30
0.0
10
665.0
20
-2510.0
30
0.0
10
644.0
20
-2501.0
30
0.0
10
634.0
20
-2506.0
30
0.0
10
612.0
20
-2515.0
30
0.0
10
568.0
20
-2528.0
30
0.0
10
527.0
20
-2545.0
30
0.0
10
514.0
20
-2556.0
30
0.0
10
501.0
20
-2561.0
30
0.0
10
456.0
20
-2588.0
30
0.0
10
421.0
20
-2600.0
30
0.0
10
391.0
20
-2634.0
30
0.0
10
372.0
20
-2704.0
30
0.0
10
380.0
20
-2729.0
30
0.0
10
372.0
20
-2748.0
30
0.0
10
355.0
20
-2762.0
30
0.0
10
340.0
20
-2764.0
30
0.0
10
327.0
20
-2767.0
30
0.0
10
117.0
20
-2769.0
30
0.0
10
127.0
20
-2732.0
30
0.0
10
151.0
20
-2685.0
30
0.0
10
172.0
20
-2658.0
30
0.0
10
190.0
20
-2637.0
30
0.0
10
178.0
20
-2619.0
30
0.0
10
167.0
20
-2611.0
30
0.0
10
122.0
20
-2592.0
30
0.0
10
105.0
20
-2567.0
30
0.0
10
104.0
20
-2552.0
30
0.0
10
109.0
20
-2508.0
30
0.0
10
130.0
20
-2452.0
30
0.0
10
140.0
20
-2430.0
30
0.0
10
150.0
20
-2398.0
30
0.0
10
165.0
20
-2364.0
30
0.0
10
176.0
20
-2326.0
30
0.0
10
178.0
20
-2251.0
30
0.0
10
172.0
20
-2221.0
30
0.0
10
152.0
20
-2184.0
30
0.0
10
137.0
20
-2128.0
30
0.0
10
116.0
20
-2085.0
30
0.0
10
63.0
20
-2021.0
30
0.0
10
37.0
20
-1991.0
30
0.0
10
8.0
20
-1954.0
30
0.0
10
3.0
20
-1936.0
30
0.0
10
0.0
20
-1901.0
30
0.0
10
1.0
20
-1883.0
30
0.0
10
47.0
20
-1826.0
30
0.0
10
55.0
20
-1801.0
30
0.0
10
114.0
20
-1706.0
30
0.0
10
138.0
20
-1677.0
30
0.0
10
161.0
20
-1650.0
30
0.0
10
198.0
20
-1622.0
30
0.0
10
251.0
20
-1572.0
30
0.0
10
264.0
20
-1538.0
30
0.0
10
262.0
20
-1483.0
30
0.0
10
270.0
20
-1467.0
30
0.0
10
290.0
20
-1406.0
30
0.0
10
304.0
20
-1393.0
30
0.0
10
296.0
20
-1386.0
30
0.0
10
298.0
20
-1366.0
30
0.0
10
291.0
20
-1301.0
30
0.0
10
284.0
20
-1270.0
30
0.0
10
261.0
20
-1223.0
30
0.0
10
231.0
20
-1185.0
30
0.0
10
167.0
20
-1119.0
30
0.0
10
140.0
20
-1100.0
30
0.0
10
133.0
20
-1050.0
30
0.0
10
112.0
20
-1021.0
30
0.0
10
109.0
20
-999.0
30
0.0
10
122.0
20
-972.0
30
0.0
10
128.0
20
-937.0
30
0.0
10
138.0
20
-891.0
30
0.0
10
162.0
20
-851.0
30
0.0
10
182.0
20
-814.0
30
0.0
10
192.0
20
-766.0
30
0.0
10
192.0
20
-764.0
30
0.0
10
213.0
20
-712.0
30
0.0
10
230.0
20
-656.0
30
0.0
10
243.0
20
-631.0
30
0.0
10
252.0
20
-594.0
30
0.0
10
262.0
20
-563.0
30
0.0
10
268.0
20
-538.0
30
0.0
10
261.0
20
-484.0
30
0.0
10
255.0
20
-440.0
30
0.0
10
227.0
20
-357.0
30
0.0
10
184.0
20
-289.0
30
0.0
10
159.0
20
-269.0
30
0.0
10
149.0
20
-253.0
30
0.0
10
150.0
20
-225.0
30
0.0
10
152.0
20
-158.0
30
0.0
10
198.0
20
-142.0
30
0.0
10
221.0
20
-150.0
30
0.0
10
246.0
20
-165.0
30
0.0
10
254.0
20
-154.0
30
0.0
10
266.0
20
-132.0
30
0.0
10
269.0
20
-103.0
30
0.0
10
261.0
20
-77.0
30
0.0
10
217.0
20
-16.0
30
0.0
10
212.0
20
0.0
30
0.0
10
381.0
20
0.0
30
0.0
10
393.0
20
-8.0
30
0.0
10
403.0
20
-44.0
30
0.0
10
423.0
20
-80.0
30
0.0
10
427.0
20
-103.0
30
0.0
10
447.0
20
-139.0
30
0.0
10
478.0
20
-160.0
30
0.0
10
516.0
20
-164.0
30
0.0
10
544.0
20
-176.0
30
0.0
10
570.0
20
-203.0
30
0.0
10
605.0
20
-202.0
30
0.0
10
624.0
20
-212.0
30
0.0
10
643.0
20
-203.0
30
0.0
10
670.0
20
-177.0
30
0.0
10
695.0
20
-171.0
30
0.0
10
727.0
20
-190.0
30
0.0
10
777.0
20
-210.0
30
0.0
10
850.0
20
-241.0
30
0.0
10
886.0
20
-280.0
30
0.0
10
914.0
20
-292.0
30
0.0
10
946.0
20
-314.0
30
0.0
10
964.0
20
-325.0
30
0.0
10
996.0
20
-350.0
30
0.0
10
1049.0
20
-375.0
30
0.0
10
1117.0
20
-386.0
30
0.0
10
1142.0
20
-380.0
30
0.0
10
1215.0
20
-369.0
30
0.0
10
1249.0
20
-371.0
30
0.0
10
1289.0
20
-362.0
30
0.0
10
1325.0
20
-343.0
30
0.0
10
1359.0
20
-312.0
30
0.0
10
1399.0
20
-304.0
30
0.0
10
1430.0
20
-309.0
30
0.0
10
1476.0
20
-318.0
30
0.0
10
1525.0
20
-303.0
30
0.0
10
1556.0
20
-295.0
30
0.0
10
1605.0
20
-290.0
30
0.0
10
1620.0
20
-292.0
30
0.0
10
1658.0
20
-284.0
30
0.0
10
1682.0
20
-267.0
30
0.0
10
1690.0
20
-251.0
30
0.0
10
1714.0
20
-228.0
30
0.0
10
1788.0
20
-194.0
30
0.0
10
1857.0
20
-174.0
30
0.0
10
1888.0
20
-175.0
30
0.0
10
1899.0
20
-190.0
30
0.0
10
1875.0
20
-233.0
30
0.0
10
1866.0
20
-266.0
30
0.0
10
1850.0
20
-315.0
30
0.0
10
1809.0
20
-377.0
30
0.0
10
1808.0
20
-396.0
30
0.0
10
1835.0
20
-432.0
30
0.0
10
1850.0
20
-463.0
30
0.0
10
1889.0
20
-500.0
30
0.0
10
1910.0
20
-513.0
30
0.0
10
1935.0
20
-506.0
30
0.0
10
1981.0
20
-501.0
30
0.0
10
2003.0
20
-489.0
30
0.0
10
2031.0
20
-473.0
30
0.0
10
2081.0
20
-464.0
30
0.0
10
2112.0
20
-449.0
30
0.0
10
2126.0
20
-447.0
30
0.0
10
2126.0
20
-449.0
30
0.0
10
2127.0
20
-490.0
30
0.0
10
2128.0
20
-512.0
30
0.0
10
2135.0
20
-526.0
30
0.0
10
2145.0
20
-559.0
30
0.0
10
2165.0
20
-584.0
30
0.0
10
2184.0
20
-588.0
30
0.0
10
2206.0
20
-571.0
30
0.0
10
2237.0
20
-568.0
30
0.0
10
2288.0
20
-540.0
30
0.0
10
2364.0
20
-505.0
30
0.0
10
2392.0
20
-501.0
30
0.0
10
2394.0
20
-512.0
30
0.0
10
2369.0
20
-557.0
30
0.0
10
2323.0
20
-612.0
30
0.0
10
2307.0
20
-647.0
30
0.0
10
2298.0
20
-684.0
30
0.0
10
2307.0
20
-718.0
30
0.0
10
2328.0
20
-763.0
30
0.0
10
2326.0
20
-765.0
30
0.0
10
2314.0
20
-811.0
30
0.0
10
2322.0
20
-867.0
30
0.0
10
2339.0
20
-900.0
30
0.0
10
2366.0
20
-943.0
30
0.0
10
2400.0
20
-962.0
30
0.0
10
2457.0
20
-964.0
30
0.0
10
2470.0
20
-971.0
30
0.0
10
2471.0
20
-990.0
30
0.0
10
2479.0
20
-1005.0
30
0.0
10
2498.0
20
-1014.0
30
0.0
10
2517.0
20
-1018.0
30
0.0
10
2558.0
20
-1013.0
30
0.0
10
2594.0
20
-1007.0
30
0.0
10
2598.0
20
-1044.0
30
0.0
10
2598.0
20
-1046.0
30
0.0
6
Solid
370
35
62
0
0
LWPOLYLINE
5
80c
100
AcDbEntity
100
AcDbPolyline
90
10
70
1
10
2540.0
20
-1363.0
30
0.0
10
2540.0
20
-1364.0
30
0.0
10
2538.0
20
-1367.0
30
0.0
10
2535.0
20
-1367.0
30
0.0
10
2533.0
20
-1365.0
30
0.0
10
2535.0
20
-1361.0
30
0.0
10
2537.0
20
-1361.0
30
0.0
10
2538.0
20
-1361.0
30
0.0
10
2539.0
20
-1363.0
30
0.0
10
2540.0
20
-1363.0
30
0.0
6
Solid
370
35
62
0
0
LWPOLYLINE
5
80e
100
AcDbEntity
100
AcDbPolyline
90
7
70
1
10
2546.0
20
-1333.0
30
0.0
10
2536.0
20
-1328.0
30
0.0
10
2526.0
20
-1322.0
30
0.0
10
2528.0
20
-1311.0
30
0.0
10
2548.0
20
-1321.0
30
0.0
10
2558.0
20
-1325.0
30
0.0
10
2546.0
20
-1333.0
30
0.0
6
Solid
370
35
62
0
0
LWPOLYLINE
5
810
100
AcDbEntity
100
AcDbPolyline
90
11
70
1
10
2119.0
20
-2171.0
30
0.0
10
2112.0
20
-2183.0
30
0.0
10
2108.0
20
-2181.0
30
0.0
10
2105.0
20
-2171.0
30
0.0
10
2100.0
20
-2156.0
30
0.0
10
2094.0
20
-2131.0
30
0.0
10
2109.0
20
-2144.0
30
0.0
10
2115.0
20
-2149.0
30
0.0
10
2118.0
20
-2153.0
30
0.0
10
2119.0
20
-2154.0
30
0.0
10
2119.0
20
-2171.0
30
0.0
6
Solid
370
35
62
0
0
LWPOLYLINE
5
812
100
AcDbEntity
100
AcDbPolyline
90
11
70
1
10
2153.0
20
-569.0
30
0.0
10
2165.0
20
-584.0
30
0.0
10
2184.0
20
-588.0
30
0.0
10
2199.0
20
-576.0
30
0.0
10
2198.0
20
-583.0
30
0.0
10
2182.0
20
-605.0
30
0.0
10
2164.0
20
-615.0
30
0.0
10
2151.0
20
-618.0
30
0.0
10
2151.0
20
-571.0
30
0.0
10
2151.0
20
-569.0
30
0.0
10
2153.0
20
-569.0
30
0.0
6
Solid
370
35
62
0
0
LWPOLYLINE
5
814
100
AcDbEntity
100
AcDbPolyline
90
6
70
1
10
2069.0
20
-466.0
30
0.0
10
2081.0
20
-464.0
30
0.0
10
2100.0
20
-455.0
30
0.0
10
2125.0
20
-462.0
30
0.0
10
2077.0
20
-480.0
30
0.0
10
2069.0
20
-466.0
30
0.0
6
Solid
370
35
62
0
0
LWPOLYLINE
5
816
100
AcDbEntity
100
AcDbPolyline
90
8
70
1
10
2012.0
20
-484.0
30
0.0
10
2031.0
20
-473.0
30
0.0
10
2051.0
20
-469.0
30
0.0
10
2051.0
20
-472.0
30
0.0
10
2047.0
20
-484.0
30
0.0
10
2038.0
20
-492.0
30
0.0
10
2016.0
20
-487.0
30
0.0
10
2012.0
20
-484.0
30
0.0
6
Solid
370
35
62
0
0
LWPOLYLINE
5
818
100
AcDbEntity
100
AcDbPolyline
90
12
70
1
10
1893.0
20
-503.0
30
0.0
10
1910.0
20
-513.0
30
0.0
10
1935.0
20
-506.0
30
0.0
10
1933.0
20
-510.0
30
0.0
10
1918.0
20
-525.0
30
0.0
10
1905.0
20
-536.0
30
0.0
10
1890.0
20
-549.0
30
0.0
10
1881.0
20
-551.0
30
0.0
10
1876.0
20
-550.0
30
0.0
10
1885.0
20
-523.0
30
0.0
10
1888.0
20
-511.0
30
0.0
10
1893.0
20
-503.0
30
0.0
6
Solid
370
35
62
0
0
LWPOLYLINE
5
81a
100
AcDbEntity
100
AcDbPolyline
90
5
70
1
10
2428.0
20
-1499.0
30
0.0
10
2433.0
20
-1498.0
30
0.0
10
2433.0
20
-1502.0
30
0.0
10
2428.0
20
-1503.0
30
0.0
10
2428.0
20
-1499.0
30
0.0
6
Solid
370
35
62
0
0
LWPOLYLINE
5
81c
100
AcDbEntity
100
AcDbPolyline
90
62
70
1
10
2431.0
20
-1497.0
30
0.0
10
2418.0
20
-1474.0
30
0.0
10
2393.0
20
-1468.0
30
0.0
10
2357.0
20
-1476.0
30
0.0
10
2319.0
20
-1478.0
30
0.0
10
2297.0
20
-1473.0
30
0.0
10
2278.0
20
-1463.0
30
0.0
10
2258.0
20
-1453.0
30
0.0
10
2238.0
20
-1454.0
30
0.0
10
2231.0
20
-1471.0
30
0.0
10
2232.0
20
-1509.0
30
0.0
10
2233.0
20
-1549.0
30
0.0
10
2223.0
20
-1572.0
30
0.0
10
2189.0
20
-1555.0
30
0.0
10
2164.0
20
-1551.0
30
0.0
10
2132.0
20
-1556.0
30
0.0
10
2109.0
20
-1555.0
30
0.0
10
2079.0
20
-1554.0
30
0.0
10
1983.0
20
-1546.0
30
0.0
10
1967.0
20
-1547.0
30
0.0
10
1948.0
20
-1541.0
30
0.0
10
1929.0
20
-1530.0
30
0.0
10
1907.0
20
-1515.0
30
0.0
10
1889.0
20
-1491.0
30
0.0
10
1877.0
20
-1445.0
30
0.0
10
1877.0
20
-1401.0
30
0.0
10
1877.0
20
-1380.0
30
0.0
10
1883.0
20
-1353.0
30
0.0
10
1888.0
20
-1318.0
30
0.0
10
1890.0
20
-1270.0
30
0.0
10
1900.0
20
-1243.0
30
0.0
10
1915.0
20
-1228.0
30
0.0
10
1998.0
20
-1211.0
30
0.0
10
2034.0
20
-1204.0
30
0.0
10
2077.0
20
-1203.0
30
0.0
10
2137.0
20
-1237.0
30
0.0
10
2144.0
20
-1273.0
30
0.0
10
2150.0
20
-1308.0
30
0.0
10
2157.0
20
-1323.0
30
0.0
10
2180.0
20
-1323.0
30
0.0
10
2227.0
20
-1325.0
30
0.0
10
2293.0
20
-1319.0
30
0.0
10
2339.0
20
-1315.0
30
0.0
10
2374.0
20
-1312.0
30
0.0
10
2397.0
20
-1291.0
30
0.0
10
2404.0
20
-1276.0
30
0.0
10
2412.0
20
-1275.0
30
0.0
10
2453.0
20
-1300.0
30
0.0
10
2470.0
20
-1320.0
30
0.0
10
2484.0
20
-1343.0
30
0.0
10
2492.0
20
-1365.0
30
0.0
10
2493.0
20
-1376.0
30
0.0
10
2496.0
20
-1387.0
30
0.0
10
2502.0
20
-1397.0
30
0.0
10
2501.0
20
-1409.0
30
0.0
10
2499.0
20
-1419.0
30
0.0
10
2495.0
20
-1429.0
30
0.0
10
2483.0
20
-1444.0
30
0.0
10
2466.0
20
-1462.0
30
0.0
10
2451.0
20
-1480.0
30
0.0
10
2433.0
20
-1495.0
30
0.0
10
2431.0
20
-1497.0
30
0.0
6
Solid
370
35
62
0
0
LWPOLYLINE
5
81e
100
AcDbEntity
100
AcDbPolyline
90
13
70
1
10
2406.0
20
-1950.0
30
0.0
10
2404.0
20
-1954.0
30
0.0
10
2404.0
20
-1958.0
30
0.0
10
2403.0
20
-1963.0
30
0.0
10
2401.0
20
-1963.0
30
0.0
10
2390.0
20
-1957.0
30
0.0
10
2379.0
20
-1949.0
30
0.0
10
2374.0
20
-1942.0
30
0.0
10
2379.0
20
-1938.0
30
0.0
10
2386.0
20
-1937.0
30
0.0
10
2400.0
20
-1936.0
30
0.0
10
2409.0
20
-1935.0
30
0.0
10
2406.0
20
-1950.0
30
0.0
6
Solid
370
35
62
0
0
LWPOLYLINE
5
820
100
AcDbEntity
100
AcDbPolyline
90
24
70
1
10
1655.0
20
-284.0
30
0.0
10
1658.0
20
-284.0
30
0.0
10
1682.0
20
-267.0
30
0.0
10
1690.0
20
-251.0
30
0.0
10
1714.0
20
-228.0
30
0.0
10
1788.0
20
-194.0
30
0.0
10
1857.0
20
-174.0
30
0.0
10
1888.0
20
-175.0
30
0.0
10
1899.0
20
-190.0
30
0.0
10
1875.0
20
-233.0
30
0.0
10
1866.0
20
-266.0
30
0.0
10
1850.0
20
-315.0
30
0.0
10
1828.0
20
-348.0
30
0.0
10
1823.0
20
-347.0
30
0.0
10
1795.0
20
-350.0
30
0.0
10
1757.0
20
-347.0
30
0.0
10
1714.0
20
-337.0
30
0.0
10
1691.0
20
-331.0
30
0.0
10
1683.0
20
-376.0
30
0.0
10
1671.0
20
-378.0
30
0.0
10
1666.0
20
-357.0
30
0.0
10
1661.0
20
-332.0
30
0.0
10
1654.0
20
-286.0
30
0.0
10
1655.0
20
-284.0
30
0.0
6
Solid
370
35
62
0
0
LWPOLYLINE
5
822
100
AcDbEntity
100
AcDbPolyline
90
10
70
1
10
1686.0
20
-403.0
30
0.0
10
1685.0
20
-406.0
30
0.0
10
1670.0
20
-415.0
30
0.0
10
1651.0
20
-422.0
30
0.0
10
1636.0
20
-425.0
30
0.0
10
1626.0
20
-426.0
30
0.0
10
1622.0
20
-418.0
30
0.0
10
1643.0
20
-401.0
30
0.0
10
1683.0
20
-394.0
30
0.0
10
1686.0
20
-403.0
30
0.0
6
Solid
370
35
62
0
0
LWPOLYLINE
5
824
100
AcDbEntity
100
AcDbPolyline
90
9
70
1
10
1508.0
20
-308.0
30
0.0
10
1525.0
20
-303.0
30
0.0
10
1551.0
20
-296.0
30
0.0
10
1546.0
20
-313.0
30
0.0
10
1537.0
20
-340.0
30
0.0
10
1515.0
20
-361.0
30
0.0
10
1504.0
20
-344.0
30
0.0
10
1506.0
20
-318.0
30
0.0
10
1508.0
20
-308.0
30
0.0
6
Solid
370
35
62
0
0
LWPOLYLINE
5
826
100
AcDbEntity
100
AcDbPolyline
90
10
70
1
10
1490.0
20
-394.0
30
0.0
10
1489.0
20
-402.0
30
0.0
10
1484.0
20
-400.0
30
0.0
10
1479.0
20
-391.0
30
0.0
10
1475.0
20
-386.0
30
0.0
10
1478.0
20
-381.0
30
0.0
10
1481.0
20
-379.0
30
0.0
10
1483.0
20
-380.0
30
0.0
10
1488.0
20
-386.0
30
0.0
10
1490.0
20
-394.0
30
0.0
6
Solid
370
35
62
0
0
LWPOLYLINE
5
828
100
AcDbEntity
100
AcDbPolyline
90
9
70
1
10
1470.0
20
-401.0
30
0.0
10
1469.0
20
-408.0
30
0.0
10
1465.0
20
-406.0
30
0.0
10
1461.0
20
-402.0
30
0.0
10
1460.0
20
-397.0
30
0.0
10
1463.0
20
-389.0
30
0.0
10
1471.0
20
-392.0
30
0.0
10
1472.0
20
-400.0
30
0.0
10
1470.0
20
-401.0
30
0.0
6
Solid
370
35
62
0
0
LWPOLYLINE
5
82a
100
AcDbEntity
100
AcDbPolyline
90
7
70
1
10
1478.0
20
-403.0
30
0.0
10
1475.0
20
-402.0
30
0.0
10
1474.0
20
-401.0
30
0.0
10
1475.0
20
-400.0
30
0.0
10
1475.0
20
-399.0
30
0.0
10
1479.0
20
-402.0
30
0.0
10
1478.0
20
-403.0
30
0.0
6
Solid
370
35
62
0
0
LWPOLYLINE
5
82c
100
AcDbEntity
100
AcDbPolyline
90
13
70
1
10
1395.0
20
-441.0
30
0.0
10
1394.0
20
-444.0
30
0.0
10
1388.0
20
-454.0
30
0.0
10
1382.0
20
-461.0
30
0.0
10
1379.0
20
-463.0
30
0.0
10
1377.0
20
-462.0
30
0.0
10
1371.0
20
-459.0
30
0.0
10
1366.0
20
-453.0
30
0.0
10
1363.0
20
-444.0
30
0.0
10
1363.0
20
-438.0
30
0.0
10
1377.0
20
-426.0
30
0.0
10
1385.0
20
-432.0
30
0.0
10
1395.0
20
-441.0
30
0.0
6
Solid
370
35
62
0
0
LWPOLYLINE
5
82e
100
AcDbEntity
100
AcDbPolyline
90
9
70
1
10
1342.0
20
-428.0
30
0.0
10
1342.0
20
-432.0
30
0.0
10
1337.0
20
-433.0
30
0.0
10
1331.0
20
-434.0
30
0.0
10
1322.0
20
-434.0
30
0.0
10
1325.0
20
-429.0
30
0.0
10
1334.0
20
-429.0
30
0.0
10
1337.0
20
-429.0
30
0.0
10
1342.0
20
-428.0
30
0.0
6
Solid
370
35
62
0
0
LWPOLYLINE
5
830
100
AcDbEntity
100
AcDbPolyline
90
10
70
1
10
1756.0
20
-2344.0
30
0.0
10
1745.0
20
-2360.0
30
0.0
10
1742.0
20
-2359.0
30
0.0
10
1732.0
20
-2351.0
30
0.0
10
1729.0
20
-2337.0
30
0.0
10
1724.0
20
-2322.0
30
0.0
10
1729.0
20
-2326.0
30
0.0
10
1743.0
20
-2333.0
30
0.0
10
1752.0
20
-2340.0
30
0.0
10
1756.0
20
-2344.0
30
0.0
6
Solid
370
35
62
0
0
LWPOLYLINE
5
832
100
AcDbEntity
100
AcDbPolyline
90
36
70
1
10
1761.0
20
-2497.0
30
0.0
10
1765.0
20
-2508.0
30
0.0
10
1780.0
20
-2547.0
30
0.0
10
1787.0
20
-2592.0
30
0.0
10
1785.0
20
-2627.0
30
0.0
10
1755.0
20
-2663.0
30
0.0
10
1744.0
20
-2671.0
30
0.0
10
1726.0
20
-2677.0
30
0.0
10
1679.0
20
-2664.0
30
0.0
10
1642.0
20
-2639.0
30
0.0
10
1599.0
20
-2594.0
30
0.0
10
1578.0
20
-2584.0
30
0.0
10
1523.0
20
-2528.0
30
0.0
10
1515.0
20
-2517.0
30
0.0
10
1502.0
20
-2504.0
30
0.0
10
1462.0
20
-2498.0
30
0.0
10
1434.0
20
-2499.0
30
0.0
10
1419.0
20
-2478.0
30
0.0
10
1340.0
20
-2480.0
30
0.0
10
1343.0
20
-2457.0
30
0.0
10
1360.0
20
-2425.0
30
0.0
10
1379.0
20
-2386.0
30
0.0
10
1415.0
20
-2364.0
30
0.0
10
1433.0
20
-2442.0
30
0.0
10
1460.0
20
-2463.0
30
0.0
10
1480.0
20
-2468.0
30
0.0
10
1492.0
20
-2465.0
30
0.0
10
1497.0
20
-2456.0
30
0.0
10
1554.0
20
-2487.0
30
0.0
10
1606.0
20
-2484.0
30
0.0
10
1671.0
20
-2504.0
30
0.0
10
1687.0
20
-2505.0
30
0.0
10
1707.0
20
-2509.0
30
0.0
10
1733.0
20
-2509.0
30
0.0
10
1753.0
20
-2501.0
30
0.0
10
1761.0
20
-2497.0
30
0.0
6
Solid
370
35
62
0
0
LWPOLYLINE
5
834
100
AcDbEntity
100
AcDbPolyline
90
11
70
1
10
1301.0
20
-2380.0
30
0.0
10
1298.0
20
-2381.0
30
0.0
10
1288.0
20
-2384.0
30
0.0
10
1276.0
20
-2383.0
30
0.0
10
1275.0
20
-2355.0
30
0.0
10
1288.0
20
-2354.0
30
0.0
10
1294.0
20
-2358.0
30
0.0
10
1301.0
20
-2364.0
30
0.0
10
1304.0
20
-2375.0
30
0.0
10
1304.0
20
-2382.0
30
0.0
10
1301.0
20
-2380.0
30
0.0
6
Solid
370
35
62
0
0
LWPOLYLINE
5
836
100
AcDbEntity
100
AcDbPolyline
90
10
70
1
10
1325.0
20
-2368.0
30
0.0
10
1326.0
20
-2365.0
30
0.0
10
1338.0
20
-2370.0
30
0.0
10
1349.0
20
-2369.0
30
0.0
10
1358.0
20
-2377.0
30
0.0
10
1357.0
20
-2390.0
30
0.0
10
1348.0
20
-2388.0
30
0.0
10
1335.0
20
-2383.0
30
0.0
10
1323.0
20
-2380.0
30
0.0
10
1325.0
20
-2368.0
30
0.0
6
Solid
370
35
62
0
0
LWPOLYLINE
5
838
100
AcDbEntity
100
AcDbPolyline
90
9
70
1
10
972.0
20
-331.0
30
0.0
10
996.0
20
-350.0
30
0.0
10
999.0
20
-352.0
30
0.0
10
946.0
20
-375.0
30
0.0
10
927.0
20
-366.0
30
0.0
10
931.0
20
-361.0
30
0.0
10
952.0
20
-346.0
30
0.0
10
969.0
20
-334.0
30
0.0
10
972.0
20
-331.0
30
0.0
6
Solid
370
35
62
0
0
LWPOLYLINE
5
83a
100
AcDbEntity
100
AcDbPolyline
90
15
70
1
10
1016.0
20
-2517.0
30
0.0
10
1004.0
20
-2519.0
30
0.0
10
975.0
20
-2511.0
30
0.0
10
971.0
20
-2503.0
30
0.0
10
966.0
20
-2493.0
30
0.0
10
957.0
20
-2479.0
30
0.0
10
953.0
20
-2460.0
30
0.0
10
952.0
20
-2448.0
30
0.0
10
962.0
20
-2430.0
30
0.0
10
973.0
20
-2436.0
30
0.0
10
981.0
20
-2458.0
30
0.0
10
991.0
20
-2480.0
30
0.0
10
1006.0
20
-2505.0
30
0.0
10
1014.0
20
-2512.0
30
0.0
10
1016.0
20
-2517.0
30
0.0
6
Solid
370
35
62
0
0
LWPOLYLINE
5
83c
100
AcDbEntity
100
AcDbPolyline
90
9
70
1
10
831.0
20
-2503.0
30
0.0
10
830.0
20
-2503.0
30
0.0
10
811.0
20
-2506.0
30
0.0
10
814.0
20
-2496.0
30
0.0
10
821.0
20
-2478.0
30
0.0
10
842.0
20
-2482.0
30
0.0
10
838.0
20
-2493.0
30
0.0
10
836.0
20
-2500.0
30
0.0
10
831.0
20
-2503.0
30
0.0
6
Solid
370
35
62
0
0
LWPOLYLINE
5
83e
100
AcDbEntity
100
AcDbPolyline
90
23
70
1
10
700.0
20
-2528.0
30
0.0
10
665.0
20
-2510.0
30
0.0
10
644.0
20
-2501.0
30
0.0
10
634.0
20
-2506.0
30
0.0
10
612.0
20
-2515.0
30
0.0
10
568.0
20
-2528.0
30
0.0
10
527.0
20
-2545.0
30
0.0
10
514.0
20
-2556.0
30
0.0
10
501.0
20
-2561.0
30
0.0
10
456.0
20
-2588.0
30
0.0
10
421.0
20
-2600.0
30
0.0
10
396.0
20
-2628.0
30
0.0
10
385.0
20
-2613.0
30
0.0
10
374.0
20
-2558.0
30
0.0
10
414.0
20
-2515.0
30
0.0
10
502.0
20
-2461.0
30
0.0
10
551.0
20
-2436.0
30
0.0
10
610.0
20
-2402.0
30
0.0
10
661.0
20
-2418.0
30
0.0
10
666.0
20
-2455.0
30
0.0
10
702.0
20
-2493.0
30
0.0
10
704.0
20
-2513.0
30
0.0
10
700.0
20
-2528.0
30
0.0
6
Solid
370
35
62
0
0
LWPOLYLINE
5
840
100
AcDbEntity
100
AcDbPolyline
90
7
70
1
10
811.0
20
-224.0
30
0.0
10
850.0
20
-241.0
30
0.0
10
854.0
20
-245.0
30
0.0
10
811.0
20
-271.0
30
0.0
10
782.0
20
-270.0
30
0.0
10
795.0
20
-241.0
30
0.0
10
811.0
20
-224.0
30
0.0
6
Solid
370
35
62
0
0
LWPOLYLINE
5
842
100
AcDbEntity
100
AcDbPolyline
90
27
70
1
10
426.0
20
-101.0
30
0.0
10
427.0
20
-103.0
30
0.0
10
447.0
20
-139.0
30
0.0
10
478.0
20
-160.0
30
0.0
10
516.0
20
-164.0
30
0.0
10
544.0
20
-176.0
30
0.0
10
570.0
20
-203.0
30
0.0
10
605.0
20
-202.0
30
0.0
10
624.0
20
-212.0
30
0.0
10
643.0
20
-203.0
30
0.0
10
670.0
20
-177.0
30
0.0
10
695.0
20
-171.0
30
0.0
10
719.0
20
-185.0
30
0.0
10
719.0
20
-190.0
30
0.0
10
730.0
20
-245.0
30
0.0
10
682.0
20
-295.0
30
0.0
10
671.0
20
-386.0
30
0.0
10
629.0
20
-378.0
30
0.0
10
578.0
20
-345.0
30
0.0
10
531.0
20
-313.0
30
0.0
10
494.0
20
-280.0
30
0.0
10
458.0
20
-239.0
30
0.0
10
413.0
20
-205.0
30
0.0
10
390.0
20
-185.0
30
0.0
10
376.0
20
-134.0
30
0.0
10
417.0
20
-109.0
30
0.0
10
426.0
20
-101.0
30
0.0
6
Solid
370
35
62
0
0
LWPOLYLINE
5
844
100
AcDbEntity
100
AcDbPolyline
90
11
70
1
10
150.0
20
-231.0
30
0.0
10
150.0
20
-225.0
30
0.0
10
152.0
20
-158.0
30
0.0
10
198.0
20
-142.0
30
0.0
10
221.0
20
-150.0
30
0.0
10
226.0
20
-153.0
30
0.0
10
227.0
20
-170.0
30
0.0
10
218.0
20
-199.0
30
0.0
10
192.0
20
-229.0
30
0.0
10
164.0
20
-239.0
30
0.0
10
150.0
20
-231.0
30
0.0
6
Solid
370
35
62
0
0
LWPOLYLINE
5
846
100
AcDbEntity
100
AcDbPolyline
90
7
70
1
10
199.0
20
-313.0
30
0.0
10
184.0
20
-289.0
30
0.0
10
170.0
20
-278.0
30
0.0
10
165.0
20
-267.0
30
0.0
10
189.0
20
-267.0
30
0.0
10
203.0
20
-281.0
30
0.0
10
199.0
20
-313.0
30
0.0
6
Solid
370
35
62
0
0
LWPOLYLINE
5
848
100
AcDbEntity
100
AcDbPolyline
90
20
70
1
10
268.0
20
-114.0
30
0.0
10
269.0
20
-103.0
30
0.0
10
261.0
20
-77.0
30
0.0
10
217.0
20
-16.0
30
0.0
10
212.0
20
0.0
30
0.0
10
381.0
20
0.0
30
0.0
10
393.0
20
-8.0
30
0.0
10
403.0
20
-44.0
30
0.0
10
423.0
20
-80.0
30
0.0
10
427.0
20
-103.0
30
0.0
10
446.0
20
-137.0
30
0.0
10
437.0
20
-146.0
30
0.0
10
418.0
20
-151.0
30
0.0
10
400.0
20
-160.0
30
0.0
10
382.0
20
-169.0
30
0.0
10
367.0
20
-161.0
30
0.0
10
353.0
20
-154.0
30
0.0
10
315.0
20
-138.0
30
0.0
10
278.0
20
-118.0
30
0.0
10
268.0
20
-114.0
30
0.0
6
Solid
370
35
62
0
0
LWPOLYLINE
5
84a
100
AcDbEntity
100
AcDbPolyline
90
11
70
1
10
267.0
20
-530.0
30
0.0
10
261.0
20
-484.0
30
0.0
10
255.0
20
-440.0
30
0.0
10
235.0
20
-380.0
30
0.0
10
250.0
20
-375.0
30
0.0
10
271.0
20
-402.0
30
0.0
10
278.0
20
-423.0
30
0.0
10
289.0
20
-456.0
30
0.0
10
299.0
20
-498.0
30
0.0
10
289.0
20
-517.0
30
0.0
10
267.0
20
-530.0
30
0.0
6
Solid
370
35
62
0
0
LWPOLYLINE
5
84c
100
AcDbEntity
100
AcDbPolyline
90
5
70
1
10
319.0
20
-1263.0
30
0.0
10
317.0
20
-1270.0
30
0.0
10
313.0
20
-1268.0
30
0.0
10
315.0
20
-1262.0
30
0.0
10
319.0
20
-1263.0
30
0.0
6
Solid
370
35
62
0
0
LWPOLYLINE
5
84e
100
AcDbEntity
100
AcDbPolyline
90
17
70
1
10
325.0
20
-1269.0
30
0.0
10
333.0
20
-1269.0
30
0.0
10
334.0
20
-1278.0
30
0.0
10
335.0
20
-1300.0
30
0.0
10
338.0
20
-1316.0
30
0.0
10
339.0
20
-1333.0
30
0.0
10
340.0
20
-1347.0
30
0.0
10
332.0
20
-1345.0
30
0.0
10
324.0
20
-1343.0
30
0.0
10
323.0
20
-1343.0
30
0.0
10
324.0
20
-1333.0
30
0.0
10
322.0
20
-1321.0
30
0.0
10
323.0
20
-1305.0
30
0.0
10
320.0
20
-1291.0
30
0.0
10
318.0
20
-1271.0
30
0.0
10
318.0
20
-1269.0
30
0.0
10
325.0
20
-1269.0
30
0.0
6
Solid
370
35
62
0
0
LWPOLYLINE
5
850
100
AcDbEntity
100
AcDbPolyline
90
11
70
1
10
305.0
20
-1388.0
30
0.0
10
309.0
20
-1385.0
30
0.0
10
310.0
20
-1384.0
30
0.0
10
313.0
20
-1385.0
30
0.0
10
314.0
20
-1387.0
30
0.0
10
314.0
20
-1391.0
30
0.0
10
313.0
20
-1392.0
30
0.0
10
310.0
20
-1393.0
30
0.0
10
307.0
20
-1391.0
30
0.0
10
306.0
20
-1390.0
30
0.0
10
305.0
20
-1388.0
30
0.0
6
Solid
370
35
62
0
0
LWPOLYLINE
5
852
100
AcDbEntity
100
AcDbPolyline
90
8
70
1
10
308.0
20
-1450.0
30
0.0
10
312.0
20
-1446.0
30
0.0
10
316.0
20
-1447.0
30
0.0
10
315.0
20
-1456.0
30
0.0
10
311.0
20
-1460.0
30
0.0
10
306.0
20
-1458.0
30
0.0
10
307.0
20
-1453.0
30
0.0
10
308.0
20
-1450.0
30
0.0
6
Solid
370
35
62
0
0
LWPOLYLINE
5
854
100
AcDbEntity
100
AcDbPolyline
90
10
70
1
10
417.0
20
-1409.0
30
0.0
10
415.0
20
-1412.0
30
0.0
10
408.0
20
-1408.0
30
0.0
10
416.0
20
-1386.0
30
0.0
10
422.0
20
-1385.0
30
0.0
10
423.0
20
-1393.0
30
0.0
10
422.0
20
-1402.0
30
0.0
10
420.0
20
-1408.0
30
0.0
10
416.0
20
-1412.0
30
0.0
10
417.0
20
-1409.0
30
0.0
6
Solid
370
35
62
0
0
LWPOLYLINE
5
856
100
AcDbEntity
100
AcDbPolyline
90
10
70
1
10
423.0
20
-1424.0
30
0.0
10
423.0
20
-1418.0
30
0.0
10
427.0
20
-1411.0
30
0.0
10
432.0
20
-1406.0
30
0.0
10
439.0
20
-1403.0
30
0.0
10
440.0
20
-1419.0
30
0.0
10
434.0
20
-1431.0
30
0.0
10
431.0
20
-1432.0
30
0.0
10
424.0
20
-1429.0
30
0.0
10
423.0
20
-1424.0
30
0.0
6
Solid
370
35
62
0
0
LWPOLYLINE
5
858
100
AcDbEntity
100
AcDbPolyline
90
8
70
1
10
457.0
20
-1390.0
30
0.0
10
465.0
20
-1380.0
30
0.0
10
469.0
20
-1380.0
30
0.0
10
468.0
20
-1401.0
30
0.0
10
465.0
20
-1405.0
30
0.0
10
460.0
20
-1400.0
30
0.0
10
459.0
20
-1389.0
30
0.0
10
457.0
20
-1390.0
30
0.0
6
Solid
370
35
62
0
0
LWPOLYLINE
5
85a
100
AcDbEntity
100
AcDbPolyline
90
16
70
1
10
265.0
20
-1570.0
30
0.0
10
265.0
20
-1572.0
30
0.0
10
266.0
20
-1573.0
30
0.0
10
272.0
20
-1574.0
30
0.0
10
281.0
20
-1578.0
30
0.0
10
282.0
20
-1581.0
30
0.0
10
272.0
20
-1595.0
30
0.0
10
270.0
20
-1599.0
30
0.0
10
267.0
20
-1604.0
30
0.0
10
266.0
20
-1604.0
30
0.0
10
259.0
20
-1602.0
30
0.0
10
252.0
20
-1600.0
30
0.0
10
252.0
20
-1596.0
30
0.0
10
258.0
20
-1587.0
30
0.0
10
261.0
20
-1578.0
30
0.0
10
265.0
20
-1570.0
30
0.0
6
Solid
370
35
62
0
0
LWPOLYLINE
5
85c
100
AcDbEntity
100
AcDbPolyline
90
11
70
1
10
27.0
20
-1850.0
30
0.0
10
47.0
20
-1826.0
30
0.0
10
55.0
20
-1801.0
30
0.0
10
67.0
20
-1781.0
30
0.0
10
68.0
20
-1781.0
30
0.0
10
76.0
20
-1787.0
30
0.0
10
74.0
20
-1801.0
30
0.0
10
57.0
20
-1829.0
30
0.0
10
47.0
20
-1846.0
30
0.0
10
33.0
20
-1851.0
30
0.0
10
27.0
20
-1850.0
30
0.0
6
Solid
370
35
62
0
0
LWPOLYLINE
5
85e
100
AcDbEntity
100
AcDbPolyline
90
9
70
1
10
131.0
20
-2111.0
30
0.0
10
141.0
20
-2111.0
30
0.0
10
154.0
20
-2121.0
30
0.0
10
163.0
20
-2133.0
30
0.0
10
172.0
20
-2157.0
30
0.0
10
178.0
20
-2181.0
30
0.0
10
174.0
20
-2186.0
30
0.0
10
169.0
20
-2191.0
30
0.0
10
131.0
20
-2111.0
30
0.0
6
Solid
370
35
62
0
0
LWPOLYLINE
5
860
100
AcDbEntity
100
AcDbPolyline
90
12
70
1
10
136.0
20
-2437.0
30
0.0
10
140.0
20
-2430.0
30
0.0
10
150.0
20
-2398.0
30
0.0
10
165.0
20
-2364.0
30
0.0
10
176.0
20
-2326.0
30
0.0
10
176.0
20
-2317.0
30
0.0
10
186.0
20
-2301.0
30
0.0
10
204.0
20
-2324.0
30
0.0
10
207.0
20
-2349.0
30
0.0
10
185.0
20
-2411.0
30
0.0
10
154.0
20
-2449.0
30
0.0
10
136.0
20
-2437.0
30
0.0
6
Solid
370
35
62
0
0
LWPOLYLINE
5
862
100
AcDbEntity
100
AcDbPolyline
90
11
70
1
10
156.0
20
-2607.0
30
0.0
10
122.0
20
-2592.0
30
0.0
10
105.0
20
-2567.0
30
0.0
10
104.0
20
-2552.0
30
0.0
10
109.0
20
-2508.0
30
0.0
10
122.0
20
-2474.0
30
0.0
10
127.0
20
-2477.0
30
0.0
10
147.0
20
-2512.0
30
0.0
10
145.0
20
-2577.0
30
0.0
10
166.0
20
-2596.0
30
0.0
10
156.0
20
-2607.0
30
0.0
6
Solid
370
35
62
0
0
LWPOLYLINE
5
864
100
AcDbEntity
100
AcDbPolyline
90
12
70
1
10
183.0
20
-2627.0
30
0.0
10
178.0
20
-2619.0
30
0.0
10
173.0
20
-2615.0
30
0.0
10
169.0
20
-2602.0
30
0.0
10
186.0
20
-2560.0
30
0.0
10
195.0
20
-2551.0
30
0.0
10
201.0
20
-2554.0
30
0.0
10
203.0
20
-2572.0
30
0.0
10
202.0
20
-2594.0
30
0.0
10
193.0
20
-2617.0
30
0.0
10
187.0
20
-2628.0
30
0.0
10
183.0
20
-2627.0
30
0.0
6
Solid
370
35
62
0
0
LWPOLYLINE
5
866
100
AcDbEntity
100
AcDbPolyline
90
22
70
1
10
446.0
20
-2592.0
30
0.0
10
421.0
20
-2600.0
30
0.0
10
391.0
20
-2634.0
30
0.0
10
372.0
20
-2704.0
30
0.0
10
380.0
20
-2729.0
30
0.0
10
372.0
20
-2748.0
30
0.0
10
355.0
20
-2762.0
30
0.0
10
340.0
20
-2764.0
30
0.0
10
327.0
20
-2767.0
30
0.0
10
117.0
20
-2769.0
30
0.0
10
127.0
20
-2732.0
30
0.0
10
128.0
20
-2731.0
30
0.0
10
152.0
20
-2708.0
30
0.0
10
266.0
20
-2712.0
30
0.0
10
315.0
20
-2693.0
30
0.0
10
333.0
20
-2647.0
30
0.0
10
347.0
20
-2602.0
30
0.0
10
375.0
20
-2549.0
30
0.0
10
399.0
20
-2552.0
30
0.0
10
405.0
20
-2561.0
30
0.0
10
423.0
20
-2574.0
30
0.0
10
446.0
20
-2592.0
30
0.0
6
Solid
370
35
62
0
0
LWPOLYLINE
5
869
100
AcDbEntity
8
zone_0_q1
100
AcDbPolyline
90
8
70
1
10
2040.0
20
-2054.0
30
0.0
10
2034.0
20
-2063.0
30
0.0
10
2026.0
20
-2060.0
30
0.0
10
2026.0
20
-2054.0
30
0.0
10
2029.0
20
-2051.0
30
0.0
10
2034.0
20
-2050.0
30
0.0
10
2039.0
20
-2055.0
30
0.0
10
2040.0
20
-2054.0
30
0.0
6
Solid
370
35
62
40
0
LWPOLYLINE
5
86c
100
AcDbEntity
8
zone_1_q2
100
AcDbPolyline
90
11
70
1
10
2272.0
20
-572.0
30
0.0
10
2238.0
20
-601.0
30
0.0
10
2207.0
20
-626.0
30
0.0
10
2123.0
20
-630.0
30
0.0
10
2104.0
20
-521.0
30
0.0
10
2079.0
20
-492.0
30
0.0
10
2096.0
20
-487.0
30
0.0
10
2112.0
20
-514.0
30
0.0
10
2119.0
20
-550.0
30
0.0
10
2133.0
20
-607.0
30
0.0
10
2272.0
20
-572.0
30
0.0
6
Solid
370
35
62
2
0
LWPOLYLINE
5
86f
100
AcDbEntity
8
zone_2_q2
100
AcDbPolyline
90
8
70
1
10
1871.0
20
-571.0
30
0.0
10
1844.0
20
-541.0
30
0.0
10
1839.0
20
-532.0
30
0.0
10
1845.0
20
-515.0
30
0.0
10
1859.0
20
-529.0
30
0.0
10
1870.0
20
-554.0
30
0.0
10
1887.0
20
-568.0
30
0.0
10
1871.0
20
-571.0
30
0.0
6
Solid
370
35
62
2
0
LWPOLYLINE
5
872
100
AcDbEntity
8
zone_3_q2
100
AcDbPolyline
90
14
70
1
10
2079.0
20
-492.0
30
0.0
10
2061.0
20
-498.0
30
0.0
10
2024.0
20
-513.0
30
0.0
10
1930.0
20
-555.0
30
0.0
10
1891.0
20
-571.0
30
0.0
10
1887.0
20
-568.0
30
0.0
10
1902.0
20
-565.0
30
0.0
10
1925.0
20
-548.0
30
0.0
10
1956.0
20
-525.0
30
0.0
10
1987.0
20
-512.0
30
0.0
10
2024.0
20
-501.0
30
0.0
10
2049.0
20
-493.0
30
0.0
10
2071.0
20
-485.0
30
0.0
10
2079.0
20
-492.0
30
0.0
6
Solid
370
35
62
2
0
LWPOLYLINE
5
875
100
AcDbEntity
8
zone_4_q2
100
AcDbPolyline
90
9
70
1
10
2199.0
20
-2116.0
30
0.0
10
2092.0
20
-2116.0
30
0.0
10
2078.0
20
-2129.0
30
0.0
10
2061.0
20
-2187.0
30
0.0
10
2090.0
20
-2209.0
30
0.0
10
2086.0
20
-2131.0
30
0.0
10
2157.0
20
-2140.0
30
0.0
10
2199.0
20
-2117.0
30
0.0
10
2199.0
20
-2116.0
30
0.0
6
Solid
370
35
62
2
0
LWPOLYLINE
5
878
100
AcDbEntity
8
zone_5_q2
100
AcDbPolyline
90
12
70
1
10
2385.0
20
-1935.0
30
0.0
10
2372.0
20
-1973.0
30
0.0
10
2364.0
20
-2031.0
30
0.0
10
2273.0
20
-2073.0
30
0.0
10
2199.0
20
-2116.0
30
0.0
10
2199.0
20
-2107.0
30
0.0
10
2217.0
20
-2088.0
30
0.0
10
2263.0
20
-2061.0
30
0.0
10
2297.0
20
-2049.0
30
0.0
10
2362.0
20
-2011.0
30
0.0
10
2370.0
20
-1936.0
30
0.0
10
2385.0
20
-1935.0
30
0.0
6
Solid
370
35
62
2
0
LWPOLYLINE
5
87b
100
AcDbEntity
8
zone_6_q1
100
AcDbPolyline
90
8
70
1
10
1585.0
20
-1648.0
30
0.0
10
1577.0
20
-1644.0
30
0.0
10
1570.0
20
-1639.0
30
0.0
10
1571.0
20
-1632.0
30
0.0
10
1576.0
20
-1631.0
30
0.0
10
1583.0
20
-1634.0
30
0.0
10
1588.0
20
-1642.0
30
0.0
10
1585.0
20
-1648.0
30
0.0
6
Solid
370
35
62
40
0
LWPOLYLINE
5
87e
100
AcDbEntity
8
zone_7_q1
100
AcDbPolyline
90
9
70
1
10
1438.0
20
-1883.0
30
0.0
10
1425.0
20
-1875.0
30
0.0
10
1422.0
20
-1868.0
30
0.0
10
1423.0
20
-1858.0
30
0.0
10
1430.0
20
-1860.0
30
0.0
10
1437.0
20
-1866.0
30
0.0
10
1442.0
20
-1877.0
30
0.0
10
1442.0
20
-1886.0
30
0.0
10
1438.0
20
-1883.0
30
0.0
6
Solid
370
35
62
40
0
LWPOLYLINE
5
881
100
AcDbEntity
8
zone_8_q2
100
AcDbPolyline
90
5
70
1
10
1805.0
20
-353.0
30
0.0
10
1806.0
20
-357.0
30
0.0
10
1802.0
20
-358.0
30
0.0
10
1802.0
20
-355.0
30
0.0
10
1805.0
20
-353.0
30
0.0
6
Solid
370
35
62
2
0
LWPOLYLINE
5
884
100
AcDbEntity
8
zone_9_q2
100
AcDbPolyline
90
8
70
1
10
1802.0
20
-358.0
30
0.0
10
1804.0
20
-370.0
30
0.0
10
1753.0
20
-371.0
30
0.0
10
1721.0
20
-365.0
30
0.0
10
1700.0
20
-380.0
30
0.0
10
1709.0
20
-354.0
30
0.0
10
1756.0
20
-366.0
30
0.0
10
1802.0
20
-358.0
30
0.0
6
Solid
370
35
62
2
0
LWPOLYLINE
5
887
100
AcDbEntity
8
zone_10_q2
100
AcDbPolyline
90
6
70
1
10
1700.0
20
-380.0
30
0.0
10
1695.0
20
-384.0
30
0.0
10
1678.0
20
-428.0
30
0.0
10
1686.0
20
-426.0
30
0.0
10
1699.0
20
-382.0
30
0.0
10
1700.0
20
-380.0
30
0.0
6
Solid
370
35
62
2
0
LWPOLYLINE
5
88a
100
AcDbEntity
8
zone_11_q2
100
AcDbPolyline
90
6
70
1
10
1669.0
20
-447.0
30
0.0
10
1626.0
20
-445.0
30
0.0
10
1607.0
20
-431.0
30
0.0
10
1624.0
20
-440.0
30
0.0
10
1678.0
20
-428.0
30
0.0
10
1669.0
20
-447.0
30
0.0
6
Solid
370
35
62
2
0
LWPOLYLINE
5
88d
100
AcDbEntity
8
zone_12_q2
100
AcDbPolyline
90
6
70
1
10
1582.0
20
-413.0
30
0.0
10
1554.0
20
-407.0
30
0.0
10
1550.0
20
-408.0
30
0.0
10
1581.0
20
-418.0
30
0.0
10
1607.0
20
-431.0
30
0.0
10
1582.0
20
-413.0
30
0.0
6
Solid
370
35
62
2
0
LWPOLYLINE
5
890
100
AcDbEntity
8
zone_13_q2
100
AcDbPolyline
90
10
70
1
10
1426.0
20
-459.0
30
0.0
10
1382.0
20
-483.0
30
0.0
10
1356.0
20
-470.0
30
0.0
10
1329.0
20
-452.0
30
0.0
10
1289.0
20
-449.0
30
0.0
10
1337.0
20
-467.0
30
0.0
10
1370.0
20
-484.0
30
0.0
10
1396.0
20
-483.0
30
0.0
10
1412.0
20
-478.0
30
0.0
10
1426.0
20
-459.0
30
0.0
6
Solid
370
35
62
2
0
LWPOLYLINE
5
893
100
AcDbEntity
8
zone_14_q2
100
AcDbPolyline
90
9
70
1
10
1550.0
20
-408.0
30
0.0
10
1522.0
20
-414.0
30
0.0
10
1482.0
20
-428.0
30
0.0
10
1444.0
20
-445.0
30
0.0
10
1426.0
20
-459.0
30
0.0
10
1452.0
20
-421.0
30
0.0
10
1517.0
20
-411.0
30
0.0
10
1546.0
20
-408.0
30
0.0
10
1550.0
20
-408.0
30
0.0
6
Solid
370
35
62
2
0
LWPOLYLINE
5
896
100
AcDbEntity
8
zone_15_q2
100
AcDbPolyline
90
11
70
1
10
1827.0
20
-2309.0
30
0.0
10
1816.0
20
-2316.0
30
0.0
10
1789.0
20
-2321.0
30
0.0
10
1764.0
20
-2314.0
30
0.0
10
1733.0
20
-2309.0
30
0.0
10
1707.0
20
-2278.0
30
0.0
10
1782.0
20
-2188.0
30
0.0
10
1819.0
20
-2212.0
30
0.0
10
1832.0
20
-2293.0
30
0.0
10
1829.0
20
-2304.0
30
0.0
10
1827.0
20
-2309.0
30
0.0
6
Solid
370
35
62
2
0
LWPOLYLINE
5
899
100
AcDbEntity
8
zone_16_q2
100
AcDbPolyline
90
18
70
1
10
1619.0
20
-2461.0
30
0.0
10
1593.0
20
-2447.0
30
0.0
10
1565.0
20
-2450.0
30
0.0
10
1549.0
20
-2448.0
30
0.0
10
1524.0
20
-2415.0
30
0.0
10
1490.0
20
-2433.0
30
0.0
10
1473.0
20
-2445.0
30
0.0
10
1448.0
20
-2421.0
30
0.0
10
1430.0
20
-2384.0
30
0.0
10
1407.0
20
-2360.0
30
0.0
10
1373.0
20
-2352.0
30
0.0
10
1260.0
20
-2338.0
30
0.0
10
1282.0
20
-2316.0
30
0.0
10
1328.0
20
-2317.0
30
0.0
10
1390.0
20
-2342.0
30
0.0
10
1578.0
20
-2423.0
30
0.0
10
1614.0
20
-2437.0
30
0.0
10
1619.0
20
-2461.0
30
0.0
6
Solid
370
35
62
2
0
LWPOLYLINE
5
89c
100
AcDbEntity
8
zone_17_q2
100
AcDbPolyline
90
17
70
1
10
1257.0
20
-434.0
30
0.0
10
1182.0
20
-442.0
30
0.0
10
1081.0
20
-443.0
30
0.0
10
1019.0
20
-439.0
30
0.0
10
956.0
20
-428.0
30
0.0
10
919.0
20
-385.0
30
0.0
10
922.0
20
-383.0
30
0.0
10
930.0
20
-395.0
30
0.0
10
964.0
20
-397.0
30
0.0
10
994.0
20
-406.0
30
0.0
10
1025.0
20
-408.0
30
0.0
10
1073.0
20
-412.0
30
0.0
10
1180.0
20
-402.0
30
0.0
10
1222.0
20
-389.0
30
0.0
10
1259.0
20
-411.0
30
0.0
10
1310.0
20
-449.0
30
0.0
10
1257.0
20
-434.0
30
0.0
6
Solid
370
35
62
2
0
LWPOLYLINE
5
89f
100
AcDbEntity
8
zone_18_q2
100
AcDbPolyline
90
45
70
1
10
378.0
20
-2463.0
30
0.0
10
384.0
20
-2440.0
30
0.0
10
444.0
20
-2393.0
30
0.0
10
497.0
20
-2361.0
30
0.0
10
648.0
20
-2332.0
30
0.0
10
692.0
20
-2371.0
30
0.0
10
754.0
20
-2379.0
30
0.0
10
826.0
20
-2378.0
30
0.0
10
882.0
20
-2380.0
30
0.0
10
927.0
20
-2377.0
30
0.0
10
965.0
20
-2394.0
30
0.0
10
1011.0
20
-2421.0
30
0.0
10
1046.0
20
-2421.0
30
0.0
10
1072.0
20
-2423.0
30
0.0
10
1149.0
20
-2495.0
30
0.0
10
1124.0
20
-2490.0
30
0.0
10
1100.0
20
-2484.0
30
0.0
10
1073.0
20
-2478.0
30
0.0
10
1047.0
20
-2479.0
30
0.0
10
1006.0
20
-2437.0
30
0.0
10
972.0
20
-2412.0
30
0.0
10
940.0
20
-2427.0
30
0.0
10
892.0
20
-2436.0
30
0.0
10
830.0
20
-2441.0
30
0.0
10
782.0
20
-2465.0
30
0.0
10
726.0
20
-2456.0
30
0.0
10
700.0
20
-2405.0
30
0.0
10
660.0
20
-2380.0
30
0.0
10
550.0
20
-2405.0
30
0.0
10
448.0
20
-2474.0
30
0.0
10
399.0
20
-2501.0
30
0.0
10
389.0
20
-2503.0
30
0.0
10
376.0
20
-2518.0
30
0.0
10
355.0
20
-2553.0
30
0.0
10
327.0
20
-2597.0
30
0.0
10
304.0
20
-2640.0
30
0.0
10
245.0
20
-2643.0
30
0.0
10
241.0
20
-2586.0
30
0.0
10
155.0
20
-2492.0
30
0.0
10
174.0
20
-2453.0
30
0.0
10
199.0
20
-2475.0
30
0.0
10
225.0
20
-2530.0
30
0.0
10
246.0
20
-2561.0
30
0.0
10
325.0
20
-2494.0
30
0.0
10
378.0
20
-2463.0
30
0.0
6
Solid
370
35
62
2
0
LWPOLYLINE
5
8a2
100
AcDbEntity
8
zone_19_q2
100
AcDbPolyline
90
8
70
1
10
965.0
20
-385.0
30
0.0
10
946.0
20
-386.0
30
0.0
10
865.0
20
-325.0
30
0.0
10
778.0
20
-274.0
30
0.0
10
825.0
20
-279.0
30
0.0
10
869.0
20
-314.0
30
0.0
10
920.0
20
-342.0
30
0.0
10
965.0
20
-385.0
30
0.0
6
Solid
370
35
62
2
0
LWPOLYLINE
5
8a5
100
AcDbEntity
8
zone_20_q2
100
AcDbPolyline
90
5
70
1
10
756.0
20
-271.0
30
0.0
10
737.0
20
-275.0
30
0.0
10
750.0
20
-257.0
30
0.0
10
778.0
20
-274.0
30
0.0
10
756.0
20
-271.0
30
0.0
6
Solid
370
35
62
2
0
LWPOLYLINE
5
8a8
100
AcDbEntity
8
zone_21_q2
100
AcDbPolyline
90
28
70
1
10
737.0
20
-275.0
30
0.0
10
712.0
20
-310.0
30
0.0
10
690.0
20
-358.0
30
0.0
10
685.0
20
-391.0
30
0.0
10
702.0
20
-421.0
30
0.0
10
752.0
20
-508.0
30
0.0
10
746.0
20
-557.0
30
0.0
10
720.0
20
-571.0
30
0.0
10
692.0
20
-555.0
30
0.0
10
658.0
20
-524.0
30
0.0
10
630.0
20
-492.0
30
0.0
10
590.0
20
-460.0
30
0.0
10
553.0
20
-430.0
30
0.0
10
515.0
20
-400.0
30
0.0
10
467.0
20
-366.0
30
0.0
10
422.0
20
-324.0
30
0.0
10
387.0
20
-276.0
30
0.0
10
371.0
20
-238.0
30
0.0
10
368.0
20
-211.0
30
0.0
10
383.0
20
-200.0
30
0.0
10
534.0
20
-324.0
30
0.0
10
590.0
20
-370.0
30
0.0
10
624.0
20
-397.0
30
0.0
10
662.0
20
-406.0
30
0.0
10
680.0
20
-385.0
30
0.0
10
685.0
20
-316.0
30
0.0
10
711.0
20
-280.0
30
0.0
10
737.0
20
-275.0
30
0.0
6
Solid
370
35
62
2
0
LWPOLYLINE
5
8ab
100
AcDbEntity
8
zone_22_q2
100
AcDbPolyline
90
10
70
1
10
472.0
20
-579.0
30
0.0
10
446.0
20
-547.0
30
0.0
10
454.0
20
-525.0
30
0.0
10
480.0
20
-521.0
30
0.0
10
494.0
20
-533.0
30
0.0
10
505.0
20
-550.0
30
0.0
10
509.0
20
-569.0
30
0.0
10
502.0
20
-583.0
30
0.0
10
494.0
20
-587.0
30
0.0
10
472.0
20
-579.0
30
0.0
6
Solid
370
35
62
2
0
LWPOLYLINE
5
8ae
100
AcDbEntity
8
zone_23_q3
100
AcDbPolyline
90
10
70
1
10
400.0
20
-586.0
30
0.0
10
370.0
20
-589.0
30
0.0
10
348.0
20
-554.0
30
0.0
10
336.0
20
-513.0
30
0.0
10
338.0
20
-462.0
30
0.0
10
401.0
20
-454.0
30
0.0
10
447.0
20
-503.0
30
0.0
10
445.0
20
-552.0
30
0.0
10
424.0
20
-593.0
30
0.0
10
400.0
20
-586.0
30
0.0
6
Solid
370
35
62
3
0
LWPOLYLINE
5
8b1
100
AcDbEntity
8
zone_24_q2
100
AcDbPolyline
90
9
70
1
10
393.0
20
-333.0
30
0.0
10
396.0
20
-330.0
30
0.0
10
402.0
20
-336.0
30
0.0
10
400.0
20
-338.0
30
0.0
10
402.0
20
-337.0
30
0.0
10
408.0
20
-353.0
30
0.0
10
404.0
20
-354.0
30
0.0
10
399.0
20
-339.0
30
0.0
10
393.0
20
-333.0
30
0.0
6
Solid
370
35
62
2
0
LWPOLYLINE
5
8b4
100
AcDbEntity
8
zone_25_q2
100
AcDbPolyline
90
9
70
1
10
382.0
20
-199.0
30
0.0
10
349.0
20
-185.0
30
0.0
10
268.0
20
-195.0
30
0.0
10
257.0
20
-181.0
30
0.0
10
261.0
20
-164.0
30
0.0
10
345.0
20
-163.0
30
0.0
10
383.0
20
-185.0
30
0.0
10
415.0
20
-209.0
30
0.0
10
382.0
20
-199.0
30
0.0
6
Solid
370
35
62
2
0
LWPOLYLINE
5
8b7
100
AcDbEntity
8
zone_26_q1
100
AcDbPolyline
90
9
70
1
10
111.0
20
-2065.0
30
0.0
10
115.0
20
-2059.0
30
0.0
10
123.0
20
-2051.0
30
0.0
10
138.0
20
-2049.0
30
0.0
10
147.0
20
-2054.0
30
0.0
10
149.0
20
-2062.0
30
0.0
10
149.0
20
-2070.0
30
0.0
10
125.0
20
-2086.0
30
0.0
10
111.0
20
-2065.0
30
0.0
6
Solid
370
35
62
40
0
LWPOLYLINE
5
8ba
100
AcDbEntity
8
zone_27_q1
100
AcDbPolyline
90
11
70
1
10
175.0
20
-2234.0
30
0.0
10
172.0
20
-2221.0
30
0.0
10
169.0
20
-2216.0
30
0.0
10
163.0
20
-2195.0
30
0.0
10
187.0
20
-2190.0
30
0.0
10
203.0
20
-2190.0
30
0.0
10
213.0
20
-2197.0
30
0.0
10
216.0
20
-2225.0
30
0.0
10
200.0
20
-2265.0
30
0.0
10
189.0
20
-2280.0
30
0.0
10
175.0
20
-2234.0
30
0.0
6
Solid
370
35
62
40
0
LWPOLYLINE
5
8bd
100
AcDbEntity
8
zone_28_q2
100
AcDbPolyline
90
11
70
1
10
302.0
20
-2338.0
30
0.0
10
289.0
20
-2343.0
30
0.0
10
260.0
20
-2346.0
30
0.0
10
218.0
20
-2332.0
30
0.0
10
211.0
20
-2313.0
30
0.0
10
215.0
20
-2291.0
30
0.0
10
229.0
20
-2275.0
30
0.0
10
250.0
20
-2269.0
30
0.0
10
277.0
20
-2274.0
30
0.0
10
303.0
20
-2291.0
30
0.0
10
302.0
20
-2338.0
30
0.0
6
Solid
370
35
62
2
0
ENDSEC
0
SECTION
2
OBJECTS
0
DICTIONARY
5
808
330
0
100
AcDbDictionary
281
1
3
ACAD_GROUP
350
809
0
DICTIONARY
5
809
330
808
100
AcDbDictionary
281
1
0
ENDSEC
0
EOF
