999

0
SECTION
2
HEADER
9
$ACADVER
1
AC1021
9
$HANDSEED
5
938
0
ENDSEC
0
SECTION
2
CLASSES
0
ENDSEC
0
SECTION
2
TABLES
0
TABLE
2
VPORT
5
8c0
100
AcDbSymbolTable
70
1
0
VPORT
5
8bf
100
AcDbSymbolTableRecord
100
AcDbViewportTableRecord
2
*ACTIVE
10
0
20
0
11
1
21
1
12
500.0
22
500.0
40
1000.0
70
0
0
ENDTAB
0
TABLE
2
LTYPE
5
8c1
100
AcDbSymbolTable
70
3
0
LTYPE
5
8c9
100
AcDbSymbolTableRecord
100
AcDbLinetypeTableRecord
2
Solid
70
0
72
65
73
0
3

0
LTYPE
5
8ca
100
AcDbSymbolTableRecord
100
AcDbLinetypeTableRecord
2
ByBlock
70
0
72
65
73
0
3

0
LTYPE
5
8cb
100
AcDbSymbolTableRecord
100
AcDbLinetypeTableRecord
2
ByLayer
70
0
72
65
73
0
3

0
ENDTAB
0
TABLE
2
LAYER
5
8c2
100
AcDbSymbolTable
70
15
0
LAYER
5
8cc
100
AcDbSymbolTableRecord
100
AcDbLayerTableRecord
2
0
70
0
390
0
0
LAYER
5
90e
100
AcDbSymbolTableRecord
100
AcDbLayerTableRecord
2
zone_0_q1
70
0
390
0
0
LAYER
5
911
100
AcDbSymbolTableRecord
100
AcDbLayerTableRecord
2
zone_1_q1
70
0
390
0
0
LAYER
5
914
100
AcDbSymbolTableRecord
100
AcDbLayerTableRecord
2
zone_2_q2
70
0
390
0
0
LAYER
5
917
100
AcDbSymbolTableRecord
100
AcDbLayerTableRecord
2
zone_3_q2
70
0
390
0
0
LAYER
5
91a
100
AcDbSymbolTableRecord
100
AcDbLayerTableRecord
2
zone_4_q2
70
0
390
0
0
LAYER
5
91d
100
AcDbSymbolTableRecord
100
AcDbLayerTableRecord
2
zone_5_q2
70
0
390
0
0
LAYER
5
920
100
AcDbSymbolTableRecord
100
AcDbLayerTableRecord
2
zone_6_q2
70
0
390
0
0
LAYER
5
923
100
AcDbSymbolTableRecord
100
AcDbLayerTableRecord
2
zone_7_q2
70
0
390
0
0
LAYER
5
926
100
AcDbSymbolTableRecord
100
AcDbLayerTableRecord
2
zone_8_q2
70
0
390
0
0
LAYER
5
929
100
AcDbSymbolTableRecord
100
AcDbLayerTableRecord
2
zone_9_q2
70
0
390
0
0
LAYER
5
92c
100
AcDbSymbolTableRecord
100
AcDbLayerTableRecord
2
zone_10_q2
70
0
390
0
0
LAYER
5
92f
100
AcDbSymbolTableRecord
100
AcDbLayerTableRecord
2
zone_11_q2
70
0
390
0
0
LAYER
5
932
100
AcDbSymbolTableRecord
100
AcDbLayerTableRecord
2
zone_12_q2
70
0
390
0
0
LAYER
5
935
100
AcDbSymbolTableRecord
100
AcDbLayerTableRecord
2
zone_13_q2
70
0
390
0
0
ENDTAB
0
TABLE
2
STYLE
5
8c3
100
AcDbSymbolTable
70
0
0
ENDTAB
0
TABLE
2
VIEW
5
8c4
100
AcDbSymbolTable
70
0
0
ENDTAB
0
TABLE
2
UCS
5
8c5
100
AcDbSymbolTable
70
0
0
ENDTAB
0
TABLE
2
APPID
5
8c6
100
AcDbSymbolTable
70
1
0
APPID
5
8cd
100
AcDbSymbolTableRecord
100
AcDbRegAppTableRecord
2
ACAD
70
0
0
ENDTAB
0
TABLE
2
DIMSTYLE
5
8c7
100
AcDbSymbolTable
70
0
100
AcDbDimStyleTable
71
1
0
ENDTAB
0
TABLE
2
BLOCK_RECORD
5
8c8
100
AcDbSymbolTable
70
2
0
BLOCK_RECORD
5
8ce
100
AcDbSymbolTableRecord
100
AcDbBlockTableRecord
2
*Model_Space
70
0
280
1
281
0
0
BLOCK_RECORD
5
8cf
100
AcDbSymbolTableRecord
100
AcDbBlockTableRecord
2
*Paper_Space
70
0
280
1
281
0
0
ENDTAB
0
ENDSEC
0
SECTION
2
BLOCKS
0
BLOCK
5
8d0
100
AcDbEntity
100
AcDbBlockBegin
2
*Model_Space
70
0
10
0
20
0
30
0
3
*Model_Space
1

0
ENDBLK
5
8d1
100
AcDbEntity
100
AcDbBlockEnd
0
BLOCK
5
8d2
100
AcDbEntity
100
AcDbBlockBegin
2
*Paper_Space
70
0
10
0
20
0
30
0
3
*Paper_Space
1

0
ENDBLK
5
8d3
100
AcDbEntity
100
AcDbBlockEnd
0
ENDSEC
0
SECTION
2
ENTITIES
0
LWPOLYLINE
5
8d6
100
AcDbEntity
100
AcDbPolyline
90
298
70
1
10
2510.0
20
-935.0
30
0.0
10
2498.0
20
-966.0
30
0.0
10
2486.0
20
-1018.0
30
0.0
10
2477.0
20
-1046.0
30
0.0
10
2446.0
20
-1075.0
30
0.0
10
2426.0
20
-1107.0
30
0.0
10
2422.0
20
-1144.0
30
0.0
10
2417.0
20
-1156.0
30
0.0
10
2400.0
20
-1211.0
30
0.0
10
2392.0
20
-1212.0
30
0.0
10
2384.0
20
-1223.0
30
0.0
10
2397.0
20
-1233.0
30
0.0
10
2395.0
20
-1235.0
30
0.0
10
2385.0
20
-1286.0
30
0.0
10
2387.0
20
-1329.0
30
0.0
10
2388.0
20
-1380.0
30
0.0
10
2390.0
20
-1399.0
30
0.0
10
2399.0
20
-1466.0
30
0.0
10
2409.0
20
-1511.0
30
0.0
10
2428.0
20
-1557.0
30
0.0
10
2465.0
20
-1607.0
30
0.0
10
2473.0
20
-1628.0
30
0.0
10
2449.0
20
-1664.0
30
0.0
10
2442.0
20
-1701.0
30
0.0
10
2422.0
20
-1740.0
30
0.0
10
2419.0
20
-1755.0
30
0.0
10
2418.0
20
-1780.0
30
0.0
10
2412.0
20
-1817.0
30
0.0
10
2379.0
20
-1859.0
30
0.0
10
2378.0
20
-1874.0
30
0.0
10
2391.0
20
-1908.0
30
0.0
10
2387.0
20
-1930.0
30
0.0
10
2368.0
20
-1940.0
30
0.0
10
2340.0
20
-1927.0
30
0.0
10
2305.0
20
-1894.0
30
0.0
10
2293.0
20
-1892.0
30
0.0
10
2271.0
20
-1896.0
30
0.0
10
2265.0
20
-1908.0
30
0.0
10
2267.0
20
-1927.0
30
0.0
10
2274.0
20
-1958.0
30
0.0
10
2304.0
20
-2020.0
30
0.0
10
2316.0
20
-2073.0
30
0.0
10
2311.0
20
-2108.0
30
0.0
10
2303.0
20
-2123.0
30
0.0
10
2282.0
20
-2129.0
30
0.0
10
2266.0
20
-2127.0
30
0.0
10
2170.0
20
-2109.0
30
0.0
10
2151.0
20
-2094.0
30
0.0
10
2133.0
20
-2050.0
30
0.0
10
2110.0
20
-2025.0
30
0.0
10
2091.0
20
-2028.0
30
0.0
10
2076.0
20
-2052.0
30
0.0
10
2048.0
20
-2102.0
30
0.0
10
2016.0
20
-2118.0
30
0.0
10
1942.0
20
-2050.0
30
0.0
10
1911.0
20
-2039.0
30
0.0
10
1899.0
20
-2044.0
30
0.0
10
1884.0
20
-2071.0
30
0.0
10
1886.0
20
-2109.0
30
0.0
10
1882.0
20
-2130.0
30
0.0
10
1867.0
20
-2171.0
30
0.0
10
1869.0
20
-2215.0
30
0.0
10
1849.0
20
-2230.0
30
0.0
10
1843.0
20
-2249.0
30
0.0
10
1842.0
20
-2259.0
30
0.0
10
1861.0
20
-2313.0
30
0.0
10
1872.0
20
-2342.0
30
0.0
10
1871.0
20
-2415.0
30
0.0
10
1854.0
20
-2434.0
30
0.0
10
1842.0
20
-2433.0
30
0.0
10
1799.0
20
-2402.0
30
0.0
10
1774.0
20
-2387.0
30
0.0
10
1722.0
20
-2347.0
30
0.0
10
1663.0
20
-2329.0
30
0.0
10
1645.0
20
-2340.0
30
0.0
10
1624.0
20
-2335.0
30
0.0
10
1613.0
20
-2349.0
30
0.0
10
1631.0
20
-2401.0
30
0.0
10
1654.0
20
-2456.0
30
0.0
10
1671.0
20
-2514.0
30
0.0
10
1664.0
20
-2537.0
30
0.0
10
1639.0
20
-2544.0
30
0.0
10
1589.0
20
-2542.0
30
0.0
10
1565.0
20
-2529.0
30
0.0
10
1522.0
20
-2498.0
30
0.0
10
1485.0
20
-2467.0
30
0.0
10
1467.0
20
-2442.0
30
0.0
10
1407.0
20
-2381.0
30
0.0
10
1388.0
20
-2356.0
30
0.0
10
1364.0
20
-2343.0
30
0.0
10
1336.0
20
-2345.0
30
0.0
10
1266.0
20
-2305.0
30
0.0
10
1230.0
20
-2294.0
30
0.0
10
1135.0
20
-2290.0
30
0.0
10
1126.0
20
-2292.0
30
0.0
10
1111.0
20
-2286.0
30
0.0
10
1071.0
20
-2296.0
30
0.0
10
1037.0
20
-2307.0
30
0.0
10
969.0
20
-2306.0
30
0.0
10
951.0
20
-2296.0
30
0.0
10
920.0
20
-2291.0
30
0.0
10
902.0
20
-2285.0
30
0.0
10
830.0
20
-2308.0
30
0.0
10
766.0
20
-2287.0
30
0.0
10
713.0
20
-2296.0
30
0.0
10
694.0
20
-2289.0
30
0.0
10
653.0
20
-2304.0
30
0.0
10
644.0
20
-2302.0
30
0.0
10
622.0
20
-2309.0
30
0.0
10
591.0
20
-2299.0
30
0.0
10
574.0
20
-2280.0
30
0.0
10
539.0
20
-2243.0
30
0.0
10
489.0
20
-2236.0
30
0.0
10
470.0
20
-2248.0
30
0.0
10
444.0
20
-2284.0
30
0.0
10
415.0
20
-2290.0
30
0.0
10
358.0
20
-2289.0
30
0.0
10
312.0
20
-2319.0
30
0.0
10
253.0
20
-2381.0
30
0.0
10
233.0
20
-2412.0
30
0.0
10
217.0
20
-2416.0
30
0.0
10
194.0
20
-2438.0
30
0.0
10
126.0
20
-2495.0
30
0.0
10
100.0
20
-2496.0
30
0.0
10
93.0
20
-2473.0
30
0.0
10
93.0
20
-2471.0
30
0.0
10
87.0
20
-2425.0
30
0.0
10
83.0
20
-2412.0
30
0.0
10
72.0
20
-2375.0
30
0.0
10
103.0
20
-2340.0
30
0.0
10
169.0
20
-2264.0
30
0.0
10
176.0
20
-2239.0
30
0.0
10
173.0
20
-2221.0
30
0.0
10
154.0
20
-2216.0
30
0.0
10
128.0
20
-2237.0
30
0.0
10
111.0
20
-2272.0
30
0.0
10
95.0
20
-2271.0
30
0.0
10
72.0
20
-2268.0
30
0.0
10
39.0
20
-2275.0
30
0.0
10
16.0
20
-2268.0
30
0.0
10
6.0
20
-2256.0
30
0.0
10
7.0
20
-2172.0
30
0.0
10
19.0
20
-2103.0
30
0.0
10
26.0
20
-2078.0
30
0.0
10
43.0
20
-2028.0
30
0.0
10
65.0
20
-1981.0
30
0.0
10
73.0
20
-1950.0
30
0.0
10
67.0
20
-1900.0
30
0.0
10
55.0
20
-1882.0
30
0.0
10
47.0
20
-1857.0
30
0.0
10
33.0
20
-1783.0
30
0.0
10
8.0
20
-1711.0
30
0.0
10
0.0
20
-1649.0
30
0.0
10
8.0
20
-1633.0
30
0.0
10
10.0
20
-1615.0
30
0.0
10
23.0
20
-1558.0
30
0.0
10
32.0
20
-1518.0
30
0.0
10
37.0
20
-1480.0
30
0.0
10
45.0
20
-1461.0
30
0.0
10
72.0
20
-1442.0
30
0.0
10
111.0
20
-1414.0
30
0.0
10
183.0
20
-1367.0
30
0.0
10
220.0
20
-1333.0
30
0.0
10
221.0
20
-1321.0
30
0.0
10
249.0
20
-1293.0
30
0.0
10
267.0
20
-1271.0
30
0.0
10
294.0
20
-1225.0
30
0.0
10
297.0
20
-1207.0
30
0.0
10
305.0
20
-1202.0
30
0.0
10
310.0
20
-1194.0
30
0.0
10
302.0
20
-1188.0
30
0.0
10
298.0
20
-1176.0
30
0.0
10
308.0
20
-1123.0
30
0.0
10
307.0
20
-1083.0
30
0.0
10
306.0
20
-1074.0
30
0.0
10
285.0
20
-1006.0
30
0.0
10
230.0
20
-933.0
30
0.0
10
150.0
20
-876.0
30
0.0
10
138.0
20
-854.0
30
0.0
10
143.0
20
-823.0
30
0.0
10
142.0
20
-732.0
30
0.0
10
148.0
20
-688.0
30
0.0
10
154.0
20
-648.0
30
0.0
10
155.0
20
-632.0
30
0.0
10
136.0
20
-569.0
30
0.0
10
138.0
20
-532.0
30
0.0
10
162.0
20
-495.0
30
0.0
10
173.0
20
-457.0
30
0.0
10
197.0
20
-417.0
30
0.0
10
201.0
20
-382.0
30
0.0
10
201.0
20
-380.0
30
0.0
10
221.0
20
-337.0
30
0.0
10
224.0
20
-315.0
30
0.0
10
230.0
20
-296.0
30
0.0
10
229.0
20
-249.0
30
0.0
10
233.0
20
-186.0
30
0.0
10
242.0
20
-164.0
30
0.0
10
243.0
20
-132.0
30
0.0
10
244.0
20
-94.0
30
0.0
10
249.0
20
-69.0
30
0.0
10
252.0
20
-24.0
30
0.0
10
256.0
20
-5.0
30
0.0
10
281.0
20
0.0
30
0.0
10
300.0
20
-6.0
30
0.0
10
332.0
20
-12.0
30
0.0
10
367.0
20
0.0
30
0.0
10
380.0
20
-5.0
30
0.0
10
415.0
20
-4.0
30
0.0
10
437.0
20
-21.0
30
0.0
10
469.0
20
-30.0
30
0.0
10
498.0
20
-24.0
30
0.0
10
510.0
20
-27.0
30
0.0
10
535.0
20
-60.0
30
0.0
10
563.0
20
-93.0
30
0.0
10
579.0
20
-100.0
30
0.0
10
598.0
20
-99.0
30
0.0
10
611.0
20
-105.0
30
0.0
10
622.0
20
-126.0
30
0.0
10
647.0
20
-153.0
30
0.0
10
663.0
20
-158.0
30
0.0
10
682.0
20
-165.0
30
0.0
10
711.0
20
-193.0
30
0.0
10
733.0
20
-214.0
30
0.0
10
783.0
20
-221.0
30
0.0
10
820.0
20
-213.0
30
0.0
10
877.0
20
-227.0
30
0.0
10
923.0
20
-239.0
30
0.0
10
954.0
20
-238.0
30
0.0
10
979.0
20
-232.0
30
0.0
10
1025.0
20
-231.0
30
0.0
10
1081.0
20
-241.0
30
0.0
10
1167.0
20
-241.0
30
0.0
10
1206.0
20
-230.0
30
0.0
10
1249.0
20
-231.0
30
0.0
10
1289.0
20
-233.0
30
0.0
10
1311.0
20
-251.0
30
0.0
10
1326.0
20
-255.0
30
0.0
10
1372.0
20
-245.0
30
0.0
10
1409.0
20
-245.0
30
0.0
10
1476.0
20
-253.0
30
0.0
10
1484.0
20
-242.0
30
0.0
10
1528.0
20
-208.0
30
0.0
10
1556.0
20
-205.0
30
0.0
10
1623.0
20
-163.0
30
0.0
10
1646.0
20
-142.0
30
0.0
10
1673.0
20
-118.0
30
0.0
10
1694.0
20
-115.0
30
0.0
10
1740.0
20
-105.0
30
0.0
10
1772.0
20
-86.0
30
0.0
10
1809.0
20
-73.0
30
0.0
10
1849.0
20
-61.0
30
0.0
10
1858.0
20
-73.0
30
0.0
10
1857.0
20
-86.0
30
0.0
10
1770.0
20
-219.0
30
0.0
10
1733.0
20
-283.0
30
0.0
10
1714.0
20
-318.0
30
0.0
10
1716.0
20
-347.0
30
0.0
10
1720.0
20
-355.0
30
0.0
10
1736.0
20
-350.0
30
0.0
10
1756.0
20
-328.0
30
0.0
10
1773.0
20
-308.0
30
0.0
10
1819.0
20
-300.0
30
0.0
10
1889.0
20
-280.0
30
0.0
10
1908.0
20
-278.0
30
0.0
10
1929.0
20
-291.0
30
0.0
10
1965.0
20
-354.0
30
0.0
10
1972.0
20
-382.0
30
0.0
10
1989.0
20
-404.0
30
0.0
10
2022.0
20
-425.0
30
0.0
10
2027.0
20
-438.0
30
0.0
10
1998.0
20
-491.0
30
0.0
10
1985.0
20
-532.0
30
0.0
10
1990.0
20
-554.0
30
0.0
10
2008.0
20
-572.0
30
0.0
10
2032.0
20
-582.0
30
0.0
10
2059.0
20
-585.0
30
0.0
10
2087.0
20
-574.0
30
0.0
10
2103.0
20
-578.0
30
0.0
10
2112.0
20
-572.0
30
0.0
10
2148.0
20
-591.0
30
0.0
10
2191.0
20
-600.0
30
0.0
10
2194.0
20
-612.0
30
0.0
10
2217.0
20
-621.0
30
0.0
10
2209.0
20
-639.0
30
0.0
10
2167.0
20
-696.0
30
0.0
10
2163.0
20
-723.0
30
0.0
10
2186.0
20
-751.0
30
0.0
10
2235.0
20
-773.0
30
0.0
10
2275.0
20
-798.0
30
0.0
10
2306.0
20
-808.0
30
0.0
10
2343.0
20
-811.0
30
0.0
10
2380.0
20
-821.0
30
0.0
10
2400.0
20
-851.0
30
0.0
10
2430.0
20
-893.0
30
0.0
10
2448.0
20
-911.0
30
0.0
10
2495.0
20
-925.0
30
0.0
10
2510.0
20
-930.0
30
0.0
10
2510.0
20
-935.0
30
0.0
6
Solid
370
35
62
0
0
LWPOLYLINE
5
8d8
100
AcDbEntity
100
AcDbPolyline
90
9
70
1
10
2336.0
20
-811.0
30
0.0
10
2331.0
20
-820.0
30
0.0
10
2325.0
20
-832.0
30
0.0
10
2320.0
20
-842.0
30
0.0
10
2316.0
20
-850.0
30
0.0
10
2306.0
20
-832.0
30
0.0
10
2308.0
20
-814.0
30
0.0
10
2308.0
20
-809.0
30
0.0
10
2336.0
20
-811.0
30
0.0
6
Solid
370
35
62
0
0
LWPOLYLINE
5
8da
100
AcDbEntity
100
AcDbPolyline
90
9
70
1
10
2378.0
20
-1219.0
30
0.0
10
2378.0
20
-1224.0
30
0.0
10
2375.0
20
-1225.0
30
0.0
10
2372.0
20
-1225.0
30
0.0
10
2371.0
20
-1222.0
30
0.0
10
2371.0
20
-1216.0
30
0.0
10
2376.0
20
-1217.0
30
0.0
10
2377.0
20
-1218.0
30
0.0
10
2378.0
20
-1219.0
30
0.0
6
Solid
370
35
62
0
0
LWPOLYLINE
5
8dc
100
AcDbEntity
100
AcDbPolyline
90
10
70
1
10
1990.0
20
-554.0
30
0.0
10
2008.0
20
-572.0
30
0.0
10
2032.0
20
-582.0
30
0.0
10
2059.0
20
-585.0
30
0.0
10
2063.0
20
-584.0
30
0.0
10
2049.0
20
-612.0
30
0.0
10
2012.0
20
-635.0
30
0.0
10
1978.0
20
-629.0
30
0.0
10
1978.0
20
-600.0
30
0.0
10
1990.0
20
-554.0
30
0.0
6
Solid
370
35
62
0
0
LWPOLYLINE
5
8de
100
AcDbEntity
100
AcDbPolyline
90
13
70
1
10
1961.0
20
-2068.0
30
0.0
10
1942.0
20
-2050.0
30
0.0
10
1911.0
20
-2039.0
30
0.0
10
1899.0
20
-2044.0
30
0.0
10
1884.0
20
-2071.0
30
0.0
10
1885.0
20
-2093.0
30
0.0
10
1875.0
20
-2076.0
30
0.0
10
1871.0
20
-2039.0
30
0.0
10
1874.0
20
-2030.0
30
0.0
10
1878.0
20
-2014.0
30
0.0
10
1915.0
20
-2025.0
30
0.0
10
1959.0
20
-2056.0
30
0.0
10
1961.0
20
-2068.0
30
0.0
6
Solid
370
35
62
0
0
LWPOLYLINE
5
8e0
100
AcDbEntity
100
AcDbPolyline
90
14
70
1
10
1716.0
20
-342.0
30
0.0
10
1716.0
20
-347.0
30
0.0
10
1720.0
20
-355.0
30
0.0
10
1727.0
20
-352.0
30
0.0
10
1727.0
20
-357.0
30
0.0
10
1717.0
20
-382.0
30
0.0
10
1708.0
20
-404.0
30
0.0
10
1703.0
20
-411.0
30
0.0
10
1699.0
20
-399.0
30
0.0
10
1695.0
20
-376.0
30
0.0
10
1697.0
20
-355.0
30
0.0
10
1703.0
20
-341.0
30
0.0
10
1705.0
20
-337.0
30
0.0
10
1716.0
20
-342.0
30
0.0
6
Solid
370
35
62
0
0
LWPOLYLINE
5
8e2
100
AcDbEntity
100
AcDbPolyline
90
11
70
1
10
1778.0
20
-207.0
30
0.0
10
1770.0
20
-219.0
30
0.0
10
1733.0
20
-283.0
30
0.0
10
1715.0
20
-318.0
30
0.0
10
1708.0
20
-317.0
30
0.0
10
1703.0
20
-305.0
30
0.0
10
1707.0
20
-284.0
30
0.0
10
1723.0
20
-254.0
30
0.0
10
1747.0
20
-223.0
30
0.0
10
1772.0
20
-207.0
30
0.0
10
1778.0
20
-207.0
30
0.0
6
Solid
370
35
62
0
0
LWPOLYLINE
5
8e4
100
AcDbEntity
100
AcDbPolyline
90
15
70
1
10
1656.0
20
-133.0
30
0.0
10
1673.0
20
-118.0
30
0.0
10
1694.0
20
-115.0
30
0.0
10
1740.0
20
-105.0
30
0.0
10
1772.0
20
-86.0
30
0.0
10
1809.0
20
-73.0
30
0.0
10
1849.0
20
-61.0
30
0.0
10
1858.0
20
-73.0
30
0.0
10
1857.0
20
-86.0
30
0.0
10
1803.0
20
-169.0
30
0.0
10
1790.0
20
-168.0
30
0.0
10
1741.0
20
-157.0
30
0.0
10
1676.0
20
-151.0
30
0.0
10
1663.0
20
-149.0
30
0.0
10
1656.0
20
-133.0
30
0.0
6
Solid
370
35
62
0
0
LWPOLYLINE
5
8e6
100
AcDbEntity
100
AcDbPolyline
90
12
70
1
10
1607.0
20
-174.0
30
0.0
10
1623.0
20
-163.0
30
0.0
10
1646.0
20
-142.0
30
0.0
10
1673.0
20
-118.0
30
0.0
10
1677.0
20
-117.0
30
0.0
10
1680.0
20
-142.0
30
0.0
10
1675.0
20
-183.0
30
0.0
10
1665.0
20
-222.0
30
0.0
10
1653.0
20
-258.0
30
0.0
10
1624.0
20
-256.0
30
0.0
10
1615.0
20
-203.0
30
0.0
10
1607.0
20
-174.0
30
0.0
6
Solid
370
35
62
0
0
LWPOLYLINE
5
8e8
100
AcDbEntity
100
AcDbPolyline
90
11
70
1
10
1552.0
20
-206.0
30
0.0
10
1556.0
20
-205.0
30
0.0
10
1566.0
20
-199.0
30
0.0
10
1589.0
20
-210.0
30
0.0
10
1584.0
20
-259.0
30
0.0
10
1580.0
20
-285.0
30
0.0
10
1565.0
20
-303.0
30
0.0
10
1551.0
20
-295.0
30
0.0
10
1550.0
20
-238.0
30
0.0
10
1551.0
20
-210.0
30
0.0
10
1552.0
20
-206.0
30
0.0
6
Solid
370
35
62
0
0
LWPOLYLINE
5
8ea
100
AcDbEntity
100
AcDbPolyline
90
13
70
1
10
1467.0
20
-252.0
30
0.0
10
1476.0
20
-253.0
30
0.0
10
1484.0
20
-242.0
30
0.0
10
1513.0
20
-220.0
30
0.0
10
1509.0
20
-231.0
30
0.0
10
1502.0
20
-258.0
30
0.0
10
1492.0
20
-279.0
30
0.0
10
1478.0
20
-306.0
30
0.0
10
1446.0
20
-335.0
30
0.0
10
1439.0
20
-328.0
30
0.0
10
1445.0
20
-286.0
30
0.0
10
1449.0
20
-269.0
30
0.0
10
1467.0
20
-252.0
30
0.0
6
Solid
370
35
62
0
0
LWPOLYLINE
5
8ec
100
AcDbEntity
100
AcDbPolyline
90
10
70
1
10
1348.0
20
-250.0
30
0.0
10
1372.0
20
-245.0
30
0.0
10
1385.0
20
-245.0
30
0.0
10
1412.0
20
-251.0
30
0.0
10
1391.0
20
-277.0
30
0.0
10
1369.0
20
-306.0
30
0.0
10
1347.0
20
-331.0
30
0.0
10
1341.0
20
-324.0
30
0.0
10
1346.0
20
-296.0
30
0.0
10
1348.0
20
-250.0
30
0.0
6
Solid
370
35
62
0
0
LWPOLYLINE
5
8ee
100
AcDbEntity
100
AcDbPolyline
90
16
70
1
10
1648.0
20
-2338.0
30
0.0
10
1645.0
20
-2340.0
30
0.0
10
1624.0
20
-2335.0
30
0.0
10
1613.0
20
-2349.0
30
0.0
10
1630.0
20
-2399.0
30
0.0
10
1620.0
20
-2391.0
30
0.0
10
1592.0
20
-2364.0
30
0.0
10
1560.0
20
-2329.0
30
0.0
10
1530.0
20
-2266.0
30
0.0
10
1520.0
20
-2200.0
30
0.0
10
1525.0
20
-2184.0
30
0.0
10
1561.0
20
-2221.0
30
0.0
10
1615.0
20
-2282.0
30
0.0
10
1638.0
20
-2307.0
30
0.0
10
1649.0
20
-2331.0
30
0.0
10
1648.0
20
-2338.0
30
0.0
6
Solid
370
35
62
0
0
LWPOLYLINE
5
8f0
100
AcDbEntity
100
AcDbPolyline
90
9
70
1
10
1524.0
20
-2312.0
30
0.0
10
1516.0
20
-2304.0
30
0.0
10
1508.0
20
-2295.0
30
0.0
10
1508.0
20
-2283.0
30
0.0
10
1515.0
20
-2275.0
30
0.0
10
1525.0
20
-2276.0
30
0.0
10
1533.0
20
-2288.0
30
0.0
10
1538.0
20
-2299.0
30
0.0
10
1524.0
20
-2312.0
30
0.0
6
Solid
370
35
62
0
0
LWPOLYLINE
5
8f2
100
AcDbEntity
100
AcDbPolyline
90
11
70
1
10
1439.0
20
-2414.0
30
0.0
10
1414.0
20
-2388.0
30
0.0
10
1396.0
20
-2354.0
30
0.0
10
1399.0
20
-2300.0
30
0.0
10
1413.0
20
-2241.0
30
0.0
10
1428.0
20
-2250.0
30
0.0
10
1433.0
20
-2325.0
30
0.0
10
1435.0
20
-2343.0
30
0.0
10
1450.0
20
-2363.0
30
0.0
10
1456.0
20
-2388.0
30
0.0
10
1439.0
20
-2414.0
30
0.0
6
Solid
370
35
62
0
0
LWPOLYLINE
5
8f4
100
AcDbEntity
100
AcDbPolyline
90
15
70
1
10
1374.0
20
-2348.0
30
0.0
10
1364.0
20
-2343.0
30
0.0
10
1354.0
20
-2343.0
30
0.0
10
1344.0
20
-2335.0
30
0.0
10
1338.0
20
-2322.0
30
0.0
10
1327.0
20
-2275.0
30
0.0
10
1322.0
20
-2266.0
30
0.0
10
1326.0
20
-2260.0
30
0.0
10
1333.0
20
-2259.0
30
0.0
10
1352.0
20
-2277.0
30
0.0
10
1357.0
20
-2299.0
30
0.0
10
1360.0
20
-2314.0
30
0.0
10
1368.0
20
-2328.0
30
0.0
10
1373.0
20
-2341.0
30
0.0
10
1374.0
20
-2348.0
30
0.0
6
Solid
370
35
62
0
0
LWPOLYLINE
5
8f6
100
AcDbEntity
100
AcDbPolyline
90
7
70
1
10
1277.0
20
-2311.0
30
0.0
10
1266.0
20
-2305.0
30
0.0
10
1254.0
20
-2301.0
30
0.0
10
1257.0
20
-2285.0
30
0.0
10
1263.0
20
-2268.0
30
0.0
10
1274.0
20
-2293.0
30
0.0
10
1277.0
20
-2311.0
30
0.0
6
Solid
370
35
62
0
0
LWPOLYLINE
5
8f8
100
AcDbEntity
100
AcDbPolyline
90
7
70
1
10
1099.0
20
-2276.0
30
0.0
10
1106.0
20
-2260.0
30
0.0
10
1120.0
20
-2234.0
30
0.0
10
1124.0
20
-2238.0
30
0.0
10
1130.0
20
-2260.0
30
0.0
10
1130.0
20
-2284.0
30
0.0
10
1099.0
20
-2276.0
30
0.0
6
Solid
370
35
62
0
0
LWPOLYLINE
5
8fa
100
AcDbEntity
100
AcDbPolyline
90
10
70
1
10
981.0
20
-2307.0
30
0.0
10
969.0
20
-2306.0
30
0.0
10
951.0
20
-2296.0
30
0.0
10
928.0
20
-2292.0
30
0.0
10
926.0
20
-2291.0
30
0.0
10
916.0
20
-2262.0
30
0.0
10
925.0
20
-2246.0
30
0.0
10
958.0
20
-2273.0
30
0.0
10
975.0
20
-2296.0
30
0.0
10
981.0
20
-2307.0
30
0.0
6
Solid
370
35
62
0
0
LWPOLYLINE
5
8fc
100
AcDbEntity
100
AcDbPolyline
90
11
70
1
10
774.0
20
-220.0
30
0.0
10
783.0
20
-221.0
30
0.0
10
799.0
20
-218.0
30
0.0
10
798.0
20
-228.0
30
0.0
10
797.0
20
-243.0
30
0.0
10
793.0
20
-254.0
30
0.0
10
786.0
20
-253.0
30
0.0
10
783.0
20
-241.0
30
0.0
10
778.0
20
-232.0
30
0.0
10
775.0
20
-221.0
30
0.0
10
774.0
20
-220.0
30
0.0
6
Solid
370
35
62
0
0
LWPOLYLINE
5
8fe
100
AcDbEntity
100
AcDbPolyline
90
26
70
1
10
447.0
20
-23.0
30
0.0
10
469.0
20
-30.0
30
0.0
10
498.0
20
-24.0
30
0.0
10
510.0
20
-27.0
30
0.0
10
535.0
20
-60.0
30
0.0
10
563.0
20
-93.0
30
0.0
10
579.0
20
-100.0
30
0.0
10
598.0
20
-99.0
30
0.0
10
611.0
20
-105.0
30
0.0
10
622.0
20
-126.0
30
0.0
10
647.0
20
-153.0
30
0.0
10
663.0
20
-158.0
30
0.0
10
682.0
20
-165.0
30
0.0
10
709.0
20
-191.0
30
0.0
10
701.0
20
-208.0
30
0.0
10
696.0
20
-239.0
30
0.0
10
696.0
20
-264.0
30
0.0
10
680.0
20
-284.0
30
0.0
10
652.0
20
-281.0
30
0.0
10
596.0
20
-233.0
30
0.0
10
553.0
20
-194.0
30
0.0
10
508.0
20
-149.0
30
0.0
10
477.0
20
-117.0
30
0.0
10
460.0
20
-82.0
30
0.0
10
452.0
20
-49.0
30
0.0
10
447.0
20
-23.0
30
0.0
6
Solid
370
35
62
0
0
LWPOLYLINE
5
900
100
AcDbEntity
100
AcDbPolyline
90
8
70
1
10
763.0
20
-2288.0
30
0.0
10
719.0
20
-2295.0
30
0.0
10
726.0
20
-2265.0
30
0.0
10
744.0
20
-2237.0
30
0.0
10
766.0
20
-2233.0
30
0.0
10
767.0
20
-2257.0
30
0.0
10
764.0
20
-2281.0
30
0.0
10
763.0
20
-2288.0
30
0.0
6
Solid
370
35
62
0
0
LWPOLYLINE
5
902
100
AcDbEntity
100
AcDbPolyline
90
13
70
1
10
539.0
20
-2243.0
30
0.0
10
489.0
20
-2236.0
30
0.0
10
470.0
20
-2248.0
30
0.0
10
444.0
20
-2284.0
30
0.0
10
415.0
20
-2290.0
30
0.0
10
400.0
20
-2290.0
30
0.0
10
396.0
20
-2275.0
30
0.0
10
420.0
20
-2227.0
30
0.0
10
458.0
20
-2178.0
30
0.0
10
500.0
20
-2158.0
30
0.0
10
523.0
20
-2173.0
30
0.0
10
544.0
20
-2195.0
30
0.0
10
539.0
20
-2243.0
30
0.0
6
Solid
370
35
62
0
0
LWPOLYLINE
5
904
100
AcDbEntity
100
AcDbPolyline
90
9
70
1
10
336.0
20
-11.0
30
0.0
10
352.0
20
-5.0
30
0.0
10
356.0
20
-7.0
30
0.0
10
366.0
20
-14.0
30
0.0
10
368.0
20
-25.0
30
0.0
10
357.0
20
-34.0
30
0.0
10
344.0
20
-33.0
30
0.0
10
336.0
20
-22.0
30
0.0
10
336.0
20
-11.0
30
0.0
6
Solid
370
35
62
0
0
LWPOLYLINE
5
906
100
AcDbEntity
100
AcDbPolyline
90
5
70
1
10
332.0
20
-1074.0
30
0.0
10
332.0
20
-1076.0
30
0.0
10
329.0
20
-1079.0
30
0.0
10
327.0
20
-1075.0
30
0.0
10
332.0
20
-1074.0
30
0.0
6
Solid
370
35
62
0
0
LWPOLYLINE
5
908
100
AcDbEntity
100
AcDbPolyline
90
21
70
1
10
334.0
20
-1074.0
30
0.0
10
339.0
20
-1072.0
30
0.0
10
346.0
20
-1070.0
30
0.0
10
348.0
20
-1071.0
30
0.0
10
347.0
20
-1078.0
30
0.0
10
348.0
20
-1090.0
30
0.0
10
349.0
20
-1101.0
30
0.0
10
348.0
20
-1113.0
30
0.0
10
347.0
20
-1124.0
30
0.0
10
347.0
20
-1143.0
30
0.0
10
347.0
20
-1151.0
30
0.0
10
332.0
20
-1150.0
30
0.0
10
328.0
20
-1149.0
30
0.0
10
329.0
20
-1146.0
30
0.0
10
328.0
20
-1133.0
30
0.0
10
327.0
20
-1119.0
30
0.0
10
330.0
20
-1099.0
30
0.0
10
330.0
20
-1086.0
30
0.0
10
331.0
20
-1077.0
30
0.0
10
332.0
20
-1076.0
30
0.0
10
334.0
20
-1074.0
30
0.0
6
Solid
370
35
62
0
0
LWPOLYLINE
5
90a
100
AcDbEntity
100
AcDbPolyline
90
13
70
1
10
277.0
20
-1282.0
30
0.0
10
281.0
20
-1282.0
30
0.0
10
290.0
20
-1285.0
30
0.0
10
290.0
20
-1297.0
30
0.0
10
283.0
20
-1309.0
30
0.0
10
264.0
20
-1320.0
30
0.0
10
258.0
20
-1313.0
30
0.0
10
256.0
20
-1306.0
30
0.0
10
262.0
20
-1297.0
30
0.0
10
269.0
20
-1286.0
30
0.0
10
274.0
20
-1282.0
30
0.0
10
275.0
20
-1279.0
30
0.0
10
277.0
20
-1282.0
30
0.0
6
Solid
370
35
62
0
0
LWPOLYLINE
5
90c
100
AcDbEntity
100
AcDbPolyline
90
6
70
1
10
313.0
20
-1196.0
30
0.0
10
308.0
20
-1188.0
30
0.0
10
312.0
20
-1188.0
30
0.0
10
313.0
20
-1192.0
30
0.0
10
313.0
20
-1194.0
30
0.0
10
313.0
20
-1196.0
30
0.0
6
Solid
370
35
62
0
0
LWPOLYLINE
5
90f
100
AcDbEntity
8
zone_0_q1
100
AcDbPolyline
90
5
70
1
10
2331.0
20
-1249.0
30
0.0
10
2325.0
20
-1249.0
30
0.0
10
2326.0
20
-1246.0
30
0.0
10
2330.0
20
-1245.0
30
0.0
10
2331.0
20
-1249.0
30
0.0
6
Solid
370
35
62
40
0
LWPOLYLINE
5
912
100
AcDbEntity
8
zone_1_q1
100
AcDbPolyline
90
6
70
1
10
2170.0
20
-1033.0
30
0.0
10
2171.0
20
-1030.0
30
0.0
10
2173.0
20
-1030.0
30
0.0
10
2172.0
20
-1035.0
30
0.0
10
2172.0
20
-1038.0
30
0.0
10
2170.0
20
-1033.0
30
0.0
6
Solid
370
35
62
40
0
LWPOLYLINE
5
915
100
AcDbEntity
8
zone_2_q2
100
AcDbPolyline
90
36
70
1
10
1338.0
20
-334.0
30
0.0
10
1350.0
20
-341.0
30
0.0
10
1379.0
20
-324.0
30
0.0
10
1403.0
20
-298.0
30
0.0
10
1415.0
20
-302.0
30
0.0
10
1420.0
20
-324.0
30
0.0
10
1453.0
20
-358.0
30
0.0
10
1494.0
20
-320.0
30
0.0
10
1510.0
20
-287.0
30
0.0
10
1521.0
20
-260.0
30
0.0
10
1532.0
20
-250.0
30
0.0
10
1543.0
20
-274.0
30
0.0
10
1558.0
20
-304.0
30
0.0
10
1580.0
20
-309.0
30
0.0
10
1599.0
20
-291.0
30
0.0
10
1600.0
20
-241.0
30
0.0
10
1622.0
20
-291.0
30
0.0
10
1642.0
20
-301.0
30
0.0
10
1662.0
20
-284.0
30
0.0
10
1676.0
20
-243.0
30
0.0
10
1685.0
20
-203.0
30
0.0
10
1702.0
20
-194.0
30
0.0
10
1717.0
20
-222.0
30
0.0
10
1699.0
20
-284.0
30
0.0
10
1689.0
20
-382.0
30
0.0
10
1654.0
20
-344.0
30
0.0
10
1612.0
20
-357.0
30
0.0
10
1589.0
20
-349.0
30
0.0
10
1477.0
20
-366.0
30
0.0
10
1449.0
20
-400.0
30
0.0
10
1428.0
20
-401.0
30
0.0
10
1397.0
20
-374.0
30
0.0
10
1355.0
20
-344.0
30
0.0
10
1324.0
20
-330.0
30
0.0
10
1326.0
20
-326.0
30
0.0
10
1338.0
20
-334.0
30
0.0
6
Solid
370
35
62
2
0
LWPOLYLINE
5
918
100
AcDbEntity
8
zone_3_q2
100
AcDbPolyline
90
27
70
1
10
1308.0
20
-2227.0
30
0.0
10
1377.0
20
-2197.0
30
0.0
10
1440.0
20
-2170.0
30
0.0
10
1492.0
20
-2148.0
30
0.0
10
1543.0
20
-2135.0
30
0.0
10
1696.0
20
-2234.0
30
0.0
10
1700.0
20
-2320.0
30
0.0
10
1626.0
20
-2261.0
30
0.0
10
1602.0
20
-2217.0
30
0.0
10
1570.0
20
-2165.0
30
0.0
10
1517.0
20
-2144.0
30
0.0
10
1486.0
20
-2171.0
30
0.0
10
1482.0
20
-2227.0
30
0.0
10
1496.0
20
-2296.0
30
0.0
10
1522.0
20
-2381.0
30
0.0
10
1516.0
20
-2412.0
30
0.0
10
1496.0
20
-2376.0
30
0.0
10
1483.0
20
-2351.0
30
0.0
10
1472.0
20
-2333.0
30
0.0
10
1465.0
20
-2299.0
30
0.0
10
1458.0
20
-2275.0
30
0.0
10
1450.0
20
-2234.0
30
0.0
10
1424.0
20
-2218.0
30
0.0
10
1398.0
20
-2259.0
30
0.0
10
1364.0
20
-2252.0
30
0.0
10
1340.0
20
-2241.0
30
0.0
10
1308.0
20
-2227.0
30
0.0
6
Solid
370
35
62
2
0
LWPOLYLINE
5
91b
100
AcDbEntity
8
zone_4_q2
100
AcDbPolyline
90
7
70
1
10
880.0
20
-2265.0
30
0.0
10
882.0
20
-2246.0
30
0.0
10
905.0
20
-2241.0
30
0.0
10
899.0
20
-2258.0
30
0.0
10
898.0
20
-2275.0
30
0.0
10
901.0
20
-2283.0
30
0.0
10
880.0
20
-2265.0
30
0.0
6
Solid
370
35
62
2
0
LWPOLYLINE
5
91e
100
AcDbEntity
8
zone_5_q2
100
AcDbPolyline
90
6
70
1
10
907.0
20
-2237.0
30
0.0
10
922.0
20
-2225.0
30
0.0
10
942.0
20
-2230.0
30
0.0
10
943.0
20
-2232.0
30
0.0
10
905.0
20
-2241.0
30
0.0
10
907.0
20
-2237.0
30
0.0
6
Solid
370
35
62
2
0
LWPOLYLINE
5
921
100
AcDbEntity
8
zone_6_q2
100
AcDbPolyline
90
36
70
1
10
943.0
20
-2232.0
30
0.0
10
950.0
20
-2230.0
30
0.0
10
1090.0
20
-2222.0
30
0.0
10
1165.0
20
-2224.0
30
0.0
10
1228.0
20
-2231.0
30
0.0
10
1279.0
20
-2247.0
30
0.0
10
1327.0
20
-2291.0
30
0.0
10
1321.0
20
-2317.0
30
0.0
10
1307.0
20
-2314.0
30
0.0
10
1296.0
20
-2296.0
30
0.0
10
1287.0
20
-2272.0
30
0.0
10
1270.0
20
-2258.0
30
0.0
10
1262.0
20
-2273.0
30
0.0
10
1259.0
20
-2286.0
30
0.0
10
1252.0
20
-2279.0
30
0.0
10
1233.0
20
-2269.0
30
0.0
10
1174.0
20
-2270.0
30
0.0
10
1162.0
20
-2273.0
30
0.0
10
1148.0
20
-2278.0
30
0.0
10
1145.0
20
-2270.0
30
0.0
10
1142.0
20
-2252.0
30
0.0
10
1136.0
20
-2233.0
30
0.0
10
1120.0
20
-2229.0
30
0.0
10
1104.0
20
-2258.0
30
0.0
10
1101.0
20
-2267.0
30
0.0
10
1097.0
20
-2268.0
30
0.0
10
1066.0
20
-2267.0
30
0.0
10
1052.0
20
-2270.0
30
0.0
10
1040.0
20
-2276.0
30
0.0
10
1022.0
20
-2285.0
30
0.0
10
1003.0
20
-2289.0
30
0.0
10
989.0
20
-2285.0
30
0.0
10
978.0
20
-2276.0
30
0.0
10
963.0
20
-2264.0
30
0.0
10
954.0
20
-2246.0
30
0.0
10
943.0
20
-2232.0
30
0.0
6
Solid
370
35
62
2
0
LWPOLYLINE
5
924
100
AcDbEntity
8
zone_7_q2
100
AcDbPolyline
90
21
70
1
10
853.0
20
-221.0
30
0.0
10
877.0
20
-227.0
30
0.0
10
923.0
20
-239.0
30
0.0
10
954.0
20
-238.0
30
0.0
10
979.0
20
-232.0
30
0.0
10
1025.0
20
-231.0
30
0.0
10
1081.0
20
-241.0
30
0.0
10
1167.0
20
-241.0
30
0.0
10
1206.0
20
-230.0
30
0.0
10
1249.0
20
-231.0
30
0.0
10
1289.0
20
-233.0
30
0.0
10
1293.0
20
-235.0
30
0.0
10
1280.0
20
-248.0
30
0.0
10
1250.0
20
-262.0
30
0.0
10
1200.0
20
-265.0
30
0.0
10
1097.0
20
-278.0
30
0.0
10
1015.0
20
-272.0
30
0.0
10
942.0
20
-263.0
30
0.0
10
894.0
20
-254.0
30
0.0
10
859.0
20
-250.0
30
0.0
10
853.0
20
-221.0
30
0.0
6
Solid
370
35
62
2
0
LWPOLYLINE
5
927
100
AcDbEntity
8
zone_8_q2
100
AcDbPolyline
90
5
70
1
10
842.0
20
-211.0
30
0.0
10
821.0
20
-246.0
30
0.0
10
817.0
20
-244.0
30
0.0
10
838.0
20
-209.0
30
0.0
10
842.0
20
-211.0
30
0.0
6
Solid
370
35
62
2
0
LWPOLYLINE
5
92a
100
AcDbEntity
8
zone_9_q2
100
AcDbPolyline
90
40
70
1
10
411.0
20
-61.0
30
0.0
10
403.0
20
-39.0
30
0.0
10
397.0
20
-13.0
30
0.0
10
412.0
20
-4.0
30
0.0
10
415.0
20
-4.0
30
0.0
10
431.0
20
-16.0
30
0.0
10
432.0
20
-29.0
30
0.0
10
451.0
20
-95.0
30
0.0
10
498.0
20
-153.0
30
0.0
10
587.0
20
-240.0
30
0.0
10
622.0
20
-287.0
30
0.0
10
652.0
20
-312.0
30
0.0
10
719.0
20
-318.0
30
0.0
10
754.0
20
-275.0
30
0.0
10
776.0
20
-261.0
30
0.0
10
794.0
20
-274.0
30
0.0
10
837.0
20
-240.0
30
0.0
10
838.0
20
-232.0
30
0.0
10
840.0
20
-230.0
30
0.0
10
843.0
20
-267.0
30
0.0
10
783.0
20
-316.0
30
0.0
10
765.0
20
-367.0
30
0.0
10
744.0
20
-406.0
30
0.0
10
725.0
20
-401.0
30
0.0
10
677.0
20
-395.0
30
0.0
10
628.0
20
-353.0
30
0.0
10
525.0
20
-253.0
30
0.0
10
469.0
20
-186.0
30
0.0
10
435.0
20
-125.0
30
0.0
10
417.0
20
-81.0
30
0.0
10
412.0
20
-65.0
30
0.0
10
410.0
20
-71.0
30
0.0
10
375.0
20
-72.0
30
0.0
10
333.0
20
-68.0
30
0.0
10
292.0
20
-61.0
30
0.0
10
260.0
20
-54.0
30
0.0
10
290.0
20
-41.0
30
0.0
10
346.0
20
-48.0
30
0.0
10
401.0
20
-54.0
30
0.0
10
411.0
20
-61.0
30
0.0
6
Solid
370
35
62
2
0
LWPOLYLINE
5
92d
100
AcDbEntity
8
zone_10_q2
100
AcDbPolyline
90
6
70
1
10
383.0
20
-2217.0
30
0.0
10
455.0
20
-2164.0
30
0.0
10
417.0
20
-2222.0
30
0.0
10
404.0
20
-2245.0
30
0.0
10
395.0
20
-2242.0
30
0.0
10
383.0
20
-2217.0
30
0.0
6
Solid
370
35
62
2
0
LWPOLYLINE
5
930
100
AcDbEntity
8
zone_11_q2
100
AcDbPolyline
90
5
70
1
10
457.0
20
-2161.0
30
0.0
10
481.0
20
-2146.0
30
0.0
10
491.0
20
-2147.0
30
0.0
10
455.0
20
-2164.0
30
0.0
10
457.0
20
-2161.0
30
0.0
6
Solid
370
35
62
2
0
LWPOLYLINE
5
933
100
AcDbEntity
8
zone_12_q2
100
AcDbPolyline
90
5
70
1
10
492.0
20
-2145.0
30
0.0
10
530.0
20
-2152.0
30
0.0
10
529.0
20
-2156.0
30
0.0
10
491.0
20
-2149.0
30
0.0
10
492.0
20
-2145.0
30
0.0
6
Solid
370
35
62
2
0
LWPOLYLINE
5
936
100
AcDbEntity
8
zone_13_q2
100
AcDbPolyline
90
16
70
1
10
529.0
20
-2154.0
30
0.0
10
539.0
20
-2156.0
30
0.0
10
583.0
20
-2199.0
30
0.0
10
611.0
20
-2211.0
30
0.0
10
644.0
20
-2210.0
30
0.0
10
686.0
20
-2211.0
30
0.0
10
738.0
20
-2242.0
30
0.0
10
714.0
20
-2277.0
30
0.0
10
669.0
20
-2285.0
30
0.0
10
641.0
20
-2273.0
30
0.0
10
588.0
20
-2266.0
30
0.0
10
577.0
20
-2252.0
30
0.0
10
564.0
20
-2230.0
30
0.0
10
546.0
20
-2194.0
30
0.0
10
532.0
20
-2155.0
30
0.0
10
529.0
20
-2154.0
30
0.0
6
Solid
370
35
62
2
0
ENDSEC
0
SECTION
2
OBJECTS
0
DICTIONARY
5
8d4
330
0
100
AcDbDictionary
281
1
3
ACAD_GROUP
350
8d5
0
DICTIONARY
5
8d5
330
8d4
100
AcDbDictionary
281
1
0
ENDSEC
0
EOF
