999

0
SECTION
2
HEADER
9
$ACADVER
1
AC1021
9
$HANDSEED
5
9cc
0
ENDSEC
0
SECTION
2
CLASSES
0
ENDSEC
0
SECTION
2
TABLES
0
TABLE
2
VPORT
5
939
100
AcDbSymbolTable
70
1
0
VPORT
5
938
100
AcDbSymbolTableRecord
100
AcDbViewportTableRecord
2
*ACTIVE
10
0
20
0
11
1
21
1
12
500.0
22
500.0
40
1000.0
70
0
0
ENDTAB
0
TABLE
2
LTYPE
5
93a
100
AcDbSymbolTable
70
3
0
LTYPE
5
942
100
AcDbSymbolTableRecord
100
AcDbLinetypeTableRecord
2
Solid
70
0
72
65
73
0
3

0
LTYPE
5
943
100
AcDbSymbolTableRecord
100
AcDbLinetypeTableRecord
2
ByBlock
70
0
72
65
73
0
3

0
LTYPE
5
944
100
AcDbSymbolTableRecord
100
AcDbLinetypeTableRecord
2
ByLayer
70
0
72
65
73
0
3

0
ENDTAB
0
TABLE
2
LAYER
5
93b
100
AcDbSymbolTable
70
20
0
LAYER
5
945
100
AcDbSymbolTableRecord
100
AcDbLayerTableRecord
2
0
70
0
390
0
0
LAYER
5
993
100
AcDbSymbolTableRecord
100
AcDbLayerTableRecord
2
zone_0_q2
70
0
390
0
0
LAYER
5
996
100
AcDbSymbolTableRecord
100
AcDbLayerTableRecord
2
zone_1_q2
70
0
390
0
0
LAYER
5
999
100
AcDbSymbolTableRecord
100
AcDbLayerTableRecord
2
zone_2_q2
70
0
390
0
0
LAYER
5
99c
100
AcDbSymbolTableRecord
100
AcDbLayerTableRecord
2
zone_3_q2
70
0
390
0
0
LAYER
5
99f
100
AcDbSymbolTableRecord
100
AcDbLayerTableRecord
2
zone_4_q2
70
0
390
0
0
LAYER
5
9a2
100
AcDbSymbolTableRecord
100
AcDbLayerTableRecord
2
zone_5_q2
70
0
390
0
0
LAYER
5
9a5
100
AcDbSymbolTableRecord
100
AcDbLayerTableRecord
2
zone_6_q2
70
0
390
0
0
LAYER
5
9a8
100
AcDbSymbolTableRecord
100
AcDbLayerTableRecord
2
zone_7_q2
70
0
390
0
0
LAYER
5
9ab
100
AcDbSymbolTableRecord
100
AcDbLayerTableRecord
2
zone_8_q2
70
0
390
0
0
LAYER
5
9ae
100
AcDbSymbolTableRecord
100
AcDbLayerTableRecord
2
zone_9_q2
70
0
390
0
0
LAYER
5
9b1
100
AcDbSymbolTableRecord
100
AcDbLayerTableRecord
2
zone_10_q1
70
0
390
0
0
LAYER
5
9b4
100
AcDbSymbolTableRecord
100
AcDbLayerTableRecord
2
zone_11_q1
70
0
390
0
0
LAYER
5
9b7
100
AcDbSymbolTableRecord
100
AcDbLayerTableRecord
2
zone_12_q1
70
0
390
0
0
LAYER
5
9ba
100
AcDbSymbolTableRecord
100
AcDbLayerTableRecord
2
zone_13_q2
70
0
390
0
0
LAYER
5
9bd
100
AcDbSymbolTableRecord
100
AcDbLayerTableRecord
2
zone_14_q2
70
0
390
0
0
LAYER
5
9c0
100
AcDbSymbolTableRecord
100
AcDbLayerTableRecord
2
zone_15_q2
70
0
390
0
0
LAYER
5
9c3
100
AcDbSymbolTableRecord
100
AcDbLayerTableRecord
2
zone_16_q2
70
0
390
0
0
LAYER
5
9c6
100
AcDbSymbolTableRecord
100
AcDbLayerTableRecord
2
zone_17_q2
70
0
390
0
0
LAYER
5
9c9
100
AcDbSymbolTableRecord
100
AcDbLayerTableRecord
2
zone_18_q2
70
0
390
0
0
ENDTAB
0
TABLE
2
STYLE
5
93c
100
AcDbSymbolTable
70
0
0
ENDTAB
0
TABLE
2
VIEW
5
93d
100
AcDbSymbolTable
70
0
0
ENDTAB
0
TABLE
2
UCS
5
93e
100
AcDbSymbolTable
70
0
0
ENDTAB
0
TABLE
2
APPID
5
93f
100
AcDbSymbolTable
70
1
0
APPID
5
946
100
AcDbSymbolTableRecord
100
AcDbRegAppTableRecord
2
ACAD
70
0
0
ENDTAB
0
TABLE
2
DIMSTYLE
5
940
100
AcDbSymbolTable
70
0
100
AcDbDimStyleTable
71
1
0
ENDTAB
0
TABLE
2
BLOCK_RECORD
5
941
100
AcDbSymbolTable
70
2
0
BLOCK_RECORD
5
947
100
AcDbSymbolTableRecord
100
AcDbBlockTableRecord
2
*Model_Space
70
0
280
1
281
0
0
BLOCK_RECORD
5
948
100
AcDbSymbolTableRecord
100
AcDbBlockTableRecord
2
*Paper_Space
70
0
280
1
281
0
0
ENDTAB
0
ENDSEC
0
SECTION
2
BLOCKS
0
BLOCK
5
949
100
AcDbEntity
100
AcDbBlockBegin
2
*Model_Space
70
0
10
0
20
0
30
0
3
*Model_Space
1

0
ENDBLK
5
94a
100
AcDbEntity
100
AcDbBlockEnd
0
BLOCK
5
94b
100
AcDbEntity
100
AcDbBlockBegin
2
*Paper_Space
70
0
10
0
20
0
30
0
3
*Paper_Space
1

0
ENDBLK
5
94c
100
AcDbEntity
100
AcDbBlockEnd
0
ENDSEC
0
SECTION
2
ENTITIES
0
LWPOLYLINE
5
94f
100
AcDbEntity
100
AcDbPolyline
90
319
70
1
10
2674.0
20
-1991.0
30
0.0
10
2672.0
20
-2004.0
30
0.0
10
2661.0
20
-2024.0
30
0.0
10
2651.0
20
-2009.0
30
0.0
10
2626.0
20
-1995.0
30
0.0
10
2559.0
20
-2003.0
30
0.0
10
2517.0
20
-2001.0
30
0.0
10
2460.0
20
-1996.0
30
0.0
10
2448.0
20
-2003.0
30
0.0
10
2450.0
20
-2059.0
30
0.0
10
2485.0
20
-2137.0
30
0.0
10
2490.0
20
-2165.0
30
0.0
10
2484.0
20
-2196.0
30
0.0
10
2436.0
20
-2245.0
30
0.0
10
2415.0
20
-2249.0
30
0.0
10
2392.0
20
-2237.0
30
0.0
10
2351.0
20
-2192.0
30
0.0
10
2297.0
20
-2161.0
30
0.0
10
2285.0
20
-2159.0
30
0.0
10
2266.0
20
-2156.0
30
0.0
10
2235.0
20
-2158.0
30
0.0
10
2192.0
20
-2156.0
30
0.0
10
2155.0
20
-2178.0
30
0.0
10
2131.0
20
-2195.0
30
0.0
10
2116.0
20
-2205.0
30
0.0
10
2097.0
20
-2216.0
30
0.0
10
2045.0
20
-2208.0
30
0.0
10
2021.0
20
-2222.0
30
0.0
10
2036.0
20
-2306.0
30
0.0
10
2039.0
20
-2385.0
30
0.0
10
2037.0
20
-2394.0
30
0.0
10
2030.0
20
-2407.0
30
0.0
10
2008.0
20
-2411.0
30
0.0
10
1978.0
20
-2422.0
30
0.0
10
1963.0
20
-2448.0
30
0.0
10
1935.0
20
-2419.0
30
0.0
10
1930.0
20
-2427.0
30
0.0
10
1951.0
20
-2466.0
30
0.0
10
1954.0
20
-2478.0
30
0.0
10
1957.0
20
-2488.0
30
0.0
10
1945.0
20
-2494.0
30
0.0
10
1930.0
20
-2492.0
30
0.0
10
1917.0
20
-2487.0
30
0.0
10
1886.0
20
-2476.0
30
0.0
10
1843.0
20
-2448.0
30
0.0
10
1822.0
20
-2440.0
30
0.0
10
1794.0
20
-2448.0
30
0.0
10
1785.0
20
-2446.0
30
0.0
10
1776.0
20
-2433.0
30
0.0
10
1765.0
20
-2441.0
30
0.0
10
1761.0
20
-2470.0
30
0.0
10
1762.0
20
-2495.0
30
0.0
10
1781.0
20
-2544.0
30
0.0
10
1728.0
20
-2611.0
30
0.0
10
1717.0
20
-2622.0
30
0.0
10
1715.0
20
-2622.0
30
0.0
10
1620.0
20
-2567.0
30
0.0
10
1528.0
20
-2490.0
30
0.0
10
1494.0
20
-2483.0
30
0.0
10
1455.0
20
-2474.0
30
0.0
10
1434.0
20
-2462.0
30
0.0
10
1391.0
20
-2455.0
30
0.0
10
1367.0
20
-2452.0
30
0.0
10
1308.0
20
-2472.0
30
0.0
10
1278.0
20
-2471.0
30
0.0
10
1221.0
20
-2491.0
30
0.0
10
1219.0
20
-2491.0
30
0.0
10
1173.0
20
-2521.0
30
0.0
10
1151.0
20
-2526.0
30
0.0
10
1105.0
20
-2517.0
30
0.0
10
1096.0
20
-2506.0
30
0.0
10
1045.0
20
-2479.0
30
0.0
10
995.0
20
-2490.0
30
0.0
10
968.0
20
-2484.0
30
0.0
10
931.0
20
-2489.0
30
0.0
10
897.0
20
-2488.0
30
0.0
10
865.0
20
-2506.0
30
0.0
10
837.0
20
-2509.0
30
0.0
10
800.0
20
-2518.0
30
0.0
10
768.0
20
-2536.0
30
0.0
10
735.0
20
-2584.0
30
0.0
10
711.0
20
-2562.0
30
0.0
10
691.0
20
-2518.0
30
0.0
10
667.0
20
-2499.0
30
0.0
10
651.0
20
-2515.0
30
0.0
10
634.0
20
-2544.0
30
0.0
10
611.0
20
-2567.0
30
0.0
10
560.0
20
-2593.0
30
0.0
10
539.0
20
-2592.0
30
0.0
10
478.0
20
-2610.0
30
0.0
10
441.0
20
-2649.0
30
0.0
10
400.0
20
-2679.0
30
0.0
10
352.0
20
-2705.0
30
0.0
10
323.0
20
-2739.0
30
0.0
10
222.0
20
-2741.0
30
0.0
10
232.0
20
-2705.0
30
0.0
10
232.0
20
-2655.0
30
0.0
10
216.0
20
-2624.0
30
0.0
10
235.0
20
-2614.0
30
0.0
10
266.0
20
-2589.0
30
0.0
10
258.0
20
-2579.0
30
0.0
10
242.0
20
-2572.0
30
0.0
10
217.0
20
-2571.0
30
0.0
10
188.0
20
-2565.0
30
0.0
10
188.0
20
-2528.0
30
0.0
10
171.0
20
-2497.0
30
0.0
10
144.0
20
-2460.0
30
0.0
10
130.0
20
-2449.0
30
0.0
10
94.0
20
-2447.0
30
0.0
10
94.0
20
-2439.0
30
0.0
10
93.0
20
-2427.0
30
0.0
10
90.0
20
-2396.0
30
0.0
10
100.0
20
-2359.0
30
0.0
10
102.0
20
-2324.0
30
0.0
10
93.0
20
-2300.0
30
0.0
10
93.0
20
-2272.0
30
0.0
10
87.0
20
-2238.0
30
0.0
10
74.0
20
-2176.0
30
0.0
10
66.0
20
-2133.0
30
0.0
10
61.0
20
-2108.0
30
0.0
10
53.0
20
-2068.0
30
0.0
10
27.0
20
-1987.0
30
0.0
10
3.0
20
-1913.0
30
0.0
10
1.0
20
-1888.0
30
0.0
10
1.0
20
-1838.0
30
0.0
10
0.0
20
-1785.0
30
0.0
10
8.0
20
-1751.0
30
0.0
10
11.0
20
-1726.0
30
0.0
10
13.0
20
-1698.0
30
0.0
10
45.0
20
-1666.0
30
0.0
10
104.0
20
-1597.0
30
0.0
10
136.0
20
-1563.0
30
0.0
10
165.0
20
-1524.0
30
0.0
10
166.0
20
-1525.0
30
0.0
10
196.0
20
-1524.0
30
0.0
10
213.0
20
-1513.0
30
0.0
10
238.0
20
-1482.0
30
0.0
10
246.0
20
-1480.0
30
0.0
10
251.0
20
-1473.0
30
0.0
10
244.0
20
-1463.0
30
0.0
10
249.0
20
-1439.0
30
0.0
10
247.0
20
-1417.0
30
0.0
10
250.0
20
-1377.0
30
0.0
10
237.0
20
-1346.0
30
0.0
10
215.0
20
-1311.0
30
0.0
10
220.0
20
-1277.0
30
0.0
10
213.0
20
-1237.0
30
0.0
10
186.0
20
-1181.0
30
0.0
10
147.0
20
-1118.0
30
0.0
10
167.0
20
-1100.0
30
0.0
10
217.0
20
-1068.0
30
0.0
10
285.0
20
-1015.0
30
0.0
10
318.0
20
-975.0
30
0.0
10
327.0
20
-957.0
30
0.0
10
334.0
20
-898.0
30
0.0
10
327.0
20
-867.0
30
0.0
10
296.0
20
-829.0
30
0.0
10
259.0
20
-800.0
30
0.0
10
200.0
20
-767.0
30
0.0
10
59.0
20
-717.0
30
0.0
10
66.0
20
-703.0
30
0.0
10
84.0
20
-657.0
30
0.0
10
93.0
20
-629.0
30
0.0
10
97.0
20
-607.0
30
0.0
10
114.0
20
-582.0
30
0.0
10
119.0
20
-561.0
30
0.0
10
125.0
20
-523.0
30
0.0
10
121.0
20
-463.0
30
0.0
10
114.0
20
-431.0
30
0.0
10
110.0
20
-403.0
30
0.0
10
128.0
20
-378.0
30
0.0
10
132.0
20
-339.0
30
0.0
10
132.0
20
-338.0
30
0.0
10
138.0
20
-303.0
30
0.0
10
141.0
20
-268.0
30
0.0
10
128.0
20
-224.0
30
0.0
10
125.0
20
-205.0
30
0.0
10
144.0
20
-204.0
30
0.0
10
157.0
20
-199.0
30
0.0
10
162.0
20
-187.0
30
0.0
10
167.0
20
-155.0
30
0.0
10
160.0
20
-104.0
30
0.0
10
170.0
20
-66.0
30
0.0
10
192.0
20
-57.0
30
0.0
10
224.0
20
-64.0
30
0.0
10
246.0
20
-63.0
30
0.0
10
285.0
20
-39.0
30
0.0
10
279.0
20
-30.0
30
0.0
10
285.0
20
-20.0
30
0.0
10
321.0
20
0.0
30
0.0
10
363.0
20
-57.0
30
0.0
10
387.0
20
-96.0
30
0.0
10
410.0
20
-125.0
30
0.0
10
426.0
20
-127.0
30
0.0
10
451.0
20
-134.0
30
0.0
10
470.0
20
-120.0
30
0.0
10
479.0
20
-122.0
30
0.0
10
494.0
20
-143.0
30
0.0
10
498.0
20
-198.0
30
0.0
10
500.0
20
-221.0
30
0.0
10
515.0
20
-237.0
30
0.0
10
541.0
20
-254.0
30
0.0
10
563.0
20
-262.0
30
0.0
10
582.0
20
-269.0
30
0.0
10
597.0
20
-249.0
30
0.0
10
625.0
20
-238.0
30
0.0
10
643.0
20
-224.0
30
0.0
10
671.0
20
-213.0
30
0.0
10
697.0
20
-228.0
30
0.0
10
732.0
20
-244.0
30
0.0
10
813.0
20
-265.0
30
0.0
10
837.0
20
-286.0
30
0.0
10
844.0
20
-302.0
30
0.0
10
851.0
20
-328.0
30
0.0
10
885.0
20
-364.0
30
0.0
10
897.0
20
-364.0
30
0.0
10
913.0
20
-366.0
30
0.0
10
965.0
20
-361.0
30
0.0
10
1045.0
20
-349.0
30
0.0
10
1079.0
20
-334.0
30
0.0
10
1097.0
20
-324.0
30
0.0
10
1131.0
20
-330.0
30
0.0
10
1162.0
20
-329.0
30
0.0
10
1223.0
20
-302.0
30
0.0
10
1256.0
20
-286.0
30
0.0
10
1272.0
20
-288.0
30
0.0
10
1315.0
20
-301.0
30
0.0
10
1361.0
20
-280.0
30
0.0
10
1373.0
20
-276.0
30
0.0
10
1416.0
20
-260.0
30
0.0
10
1442.0
20
-256.0
30
0.0
10
1444.0
20
-256.0
30
0.0
10
1465.0
20
-239.0
30
0.0
10
1490.0
20
-227.0
30
0.0
10
1527.0
20
-196.0
30
0.0
10
1586.0
20
-117.0
30
0.0
10
1604.0
20
-102.0
30
0.0
10
1634.0
20
-143.0
30
0.0
10
1643.0
20
-176.0
30
0.0
10
1668.0
20
-206.0
30
0.0
10
1672.0
20
-232.0
30
0.0
10
1678.0
20
-248.0
30
0.0
10
1676.0
20
-274.0
30
0.0
10
1693.0
20
-320.0
30
0.0
10
1708.0
20
-336.0
30
0.0
10
1707.0
20
-374.0
30
0.0
10
1711.0
20
-387.0
30
0.0
10
1726.0
20
-392.0
30
0.0
10
1745.0
20
-381.0
30
0.0
10
1764.0
20
-345.0
30
0.0
10
1773.0
20
-343.0
30
0.0
10
1794.0
20
-358.0
30
0.0
10
1815.0
20
-396.0
30
0.0
10
1843.0
20
-424.0
30
0.0
10
1917.0
20
-468.0
30
0.0
10
1919.0
20
-539.0
30
0.0
10
1919.0
20
-541.0
30
0.0
10
1930.0
20
-549.0
30
0.0
10
1945.0
20
-542.0
30
0.0
10
1982.0
20
-540.0
30
0.0
10
2001.0
20
-527.0
30
0.0
10
2006.0
20
-510.0
30
0.0
10
2006.0
20
-513.0
30
0.0
10
2006.0
20
-514.0
30
0.0
10
2025.0
20
-538.0
30
0.0
10
2033.0
20
-555.0
30
0.0
10
2035.0
20
-592.0
30
0.0
10
2049.0
20
-620.0
30
0.0
10
2061.0
20
-619.0
30
0.0
10
2089.0
20
-601.0
30
0.0
10
2111.0
20
-596.0
30
0.0
10
2144.0
20
-608.0
30
0.0
10
2178.0
20
-609.0
30
0.0
10
2231.0
20
-599.0
30
0.0
10
2234.0
20
-607.0
30
0.0
10
2253.0
20
-621.0
30
0.0
10
2279.0
20
-697.0
30
0.0
10
2300.0
20
-712.0
30
0.0
10
2335.0
20
-719.0
30
0.0
10
2382.0
20
-708.0
30
0.0
10
2429.0
20
-716.0
30
0.0
10
2448.0
20
-722.0
30
0.0
10
2476.0
20
-744.0
30
0.0
10
2495.0
20
-755.0
30
0.0
10
2529.0
20
-779.0
30
0.0
10
2567.0
20
-784.0
30
0.0
10
2586.0
20
-800.0
30
0.0
10
2587.0
20
-813.0
30
0.0
10
2566.0
20
-841.0
30
0.0
10
2508.0
20
-886.0
30
0.0
10
2490.0
20
-915.0
30
0.0
10
2486.0
20
-946.0
30
0.0
10
2509.0
20
-1004.0
30
0.0
10
2516.0
20
-1047.0
30
0.0
10
2525.0
20
-1077.0
30
0.0
10
2536.0
20
-1105.0
30
0.0
10
2534.0
20
-1132.0
30
0.0
10
2506.0
20
-1185.0
30
0.0
10
2493.0
20
-1240.0
30
0.0
10
2485.0
20
-1271.0
30
0.0
10
2477.0
20
-1283.0
30
0.0
10
2489.0
20
-1295.0
30
0.0
10
2500.0
20
-1347.0
30
0.0
10
2513.0
20
-1384.0
30
0.0
10
2527.0
20
-1426.0
30
0.0
10
2527.0
20
-1512.0
30
0.0
10
2523.0
20
-1552.0
30
0.0
10
2530.0
20
-1570.0
30
0.0
10
2528.0
20
-1588.0
30
0.0
10
2544.0
20
-1650.0
30
0.0
10
2557.0
20
-1674.0
30
0.0
10
2578.0
20
-1687.0
30
0.0
10
2593.0
20
-1712.0
30
0.0
10
2603.0
20
-1789.0
30
0.0
10
2611.0
20
-1829.0
30
0.0
10
2647.0
20
-1873.0
30
0.0
10
2671.0
20
-1926.0
30
0.0
10
2675.0
20
-1990.0
30
0.0
10
2674.0
20
-1991.0
30
0.0
6
Solid
370
35
62
0
0
LWPOLYLINE
5
951
100
AcDbEntity
100
AcDbPolyline
90
13
70
1
10
2674.0
20
-1967.0
30
0.0
10
2675.0
20
-1990.0
30
0.0
10
2674.0
20
-1991.0
30
0.0
10
2674.0
20
-1993.0
30
0.0
10
2608.0
20
-1992.0
30
0.0
10
2605.0
20
-1988.0
30
0.0
10
2599.0
20
-1976.0
30
0.0
10
2589.0
20
-1959.0
30
0.0
10
2578.0
20
-1938.0
30
0.0
10
2573.0
20
-1914.0
30
0.0
10
2595.0
20
-1912.0
30
0.0
10
2652.0
20
-1949.0
30
0.0
10
2674.0
20
-1967.0
30
0.0
6
Solid
370
35
62
0
0
LWPOLYLINE
5
953
100
AcDbEntity
100
AcDbPolyline
90
13
70
1
10
2471.0
20
-1282.0
30
0.0
10
2473.0
20
-1283.0
30
0.0
10
2474.0
20
-1285.0
30
0.0
10
2474.0
20
-1289.0
30
0.0
10
2472.0
20
-1289.0
30
0.0
10
2471.0
20
-1289.0
30
0.0
10
2470.0
20
-1289.0
30
0.0
10
2467.0
20
-1287.0
30
0.0
10
2467.0
20
-1286.0
30
0.0
10
2467.0
20
-1285.0
30
0.0
10
2468.0
20
-1283.0
30
0.0
10
2469.0
20
-1283.0
30
0.0
10
2471.0
20
-1282.0
30
0.0
6
Solid
370
35
62
0
0
LWPOLYLINE
5
955
100
AcDbEntity
100
AcDbPolyline
90
11
70
1
10
2535.0
20
-780.0
30
0.0
10
2567.0
20
-784.0
30
0.0
10
2586.0
20
-800.0
30
0.0
10
2586.0
20
-803.0
30
0.0
10
2570.0
20
-832.0
30
0.0
10
2555.0
20
-849.0
30
0.0
10
2541.0
20
-852.0
30
0.0
10
2530.0
20
-840.0
30
0.0
10
2531.0
20
-817.0
30
0.0
10
2534.0
20
-790.0
30
0.0
10
2535.0
20
-780.0
30
0.0
6
Solid
370
35
62
0
0
LWPOLYLINE
5
957
100
AcDbEntity
100
AcDbPolyline
90
12
70
1
10
2044.0
20
-2209.0
30
0.0
10
2030.0
20
-2217.0
30
0.0
10
2016.0
20
-2209.0
30
0.0
10
2012.0
20
-2182.0
30
0.0
10
1999.0
20
-2165.0
30
0.0
10
2001.0
20
-2158.0
30
0.0
10
2005.0
20
-2158.0
30
0.0
10
2016.0
20
-2162.0
30
0.0
10
2021.0
20
-2174.0
30
0.0
10
2032.0
20
-2190.0
30
0.0
10
2044.0
20
-2208.0
30
0.0
10
2044.0
20
-2209.0
30
0.0
6
Solid
370
35
62
0
0
LWPOLYLINE
5
959
100
AcDbEntity
100
AcDbPolyline
90
13
70
1
10
2044.0
20
-610.0
30
0.0
10
2049.0
20
-620.0
30
0.0
10
2061.0
20
-619.0
30
0.0
10
2076.0
20
-609.0
30
0.0
10
2072.0
20
-626.0
30
0.0
10
2071.0
20
-634.0
30
0.0
10
2050.0
20
-653.0
30
0.0
10
2040.0
20
-662.0
30
0.0
10
2022.0
20
-674.0
30
0.0
10
2014.0
20
-668.0
30
0.0
10
2023.0
20
-644.0
30
0.0
10
2037.0
20
-621.0
30
0.0
10
2044.0
20
-610.0
30
0.0
6
Solid
370
35
62
0
0
LWPOLYLINE
5
95b
100
AcDbEntity
100
AcDbPolyline
90
9
70
1
10
1957.0
20
-541.0
30
0.0
10
1982.0
20
-540.0
30
0.0
10
2001.0
20
-527.0
30
0.0
10
2003.0
20
-518.0
30
0.0
10
2009.0
20
-520.0
30
0.0
10
2004.0
20
-542.0
30
0.0
10
1979.0
20
-587.0
30
0.0
10
1933.0
20
-607.0
30
0.0
10
1957.0
20
-541.0
30
0.0
6
Solid
370
35
62
0
0
LWPOLYLINE
5
95d
100
AcDbEntity
100
AcDbPolyline
90
14
70
1
10
1919.0
20
-532.0
30
0.0
10
1919.0
20
-539.0
30
0.0
10
1919.0
20
-541.0
30
0.0
10
1921.0
20
-542.0
30
0.0
10
1923.0
20
-550.0
30
0.0
10
1913.0
20
-564.0
30
0.0
10
1895.0
20
-582.0
30
0.0
10
1881.0
20
-590.0
30
0.0
10
1878.0
20
-582.0
30
0.0
10
1883.0
20
-559.0
30
0.0
10
1894.0
20
-539.0
30
0.0
10
1906.0
20
-524.0
30
0.0
10
1915.0
20
-513.0
30
0.0
10
1919.0
20
-532.0
30
0.0
6
Solid
370
35
62
0
0
LWPOLYLINE
5
95f
100
AcDbEntity
100
AcDbPolyline
90
14
70
1
10
1707.0
20
-372.0
30
0.0
10
1707.0
20
-374.0
30
0.0
10
1711.0
20
-387.0
30
0.0
10
1725.0
20
-391.0
30
0.0
10
1724.0
20
-392.0
30
0.0
10
1694.0
20
-427.0
30
0.0
10
1687.0
20
-435.0
30
0.0
10
1671.0
20
-442.0
30
0.0
10
1672.0
20
-429.0
30
0.0
10
1680.0
20
-407.0
30
0.0
10
1692.0
20
-387.0
30
0.0
10
1698.0
20
-377.0
30
0.0
10
1704.0
20
-372.0
30
0.0
10
1707.0
20
-372.0
30
0.0
6
Solid
370
35
62
0
0
LWPOLYLINE
5
961
100
AcDbEntity
100
AcDbPolyline
90
10
70
1
10
1499.0
20
-220.0
30
0.0
10
1527.0
20
-196.0
30
0.0
10
1528.0
20
-194.0
30
0.0
10
1529.0
20
-195.0
30
0.0
10
1540.0
20
-240.0
30
0.0
10
1537.0
20
-274.0
30
0.0
10
1534.0
20
-296.0
30
0.0
10
1532.0
20
-304.0
30
0.0
10
1524.0
20
-286.0
30
0.0
10
1499.0
20
-220.0
30
0.0
6
Solid
370
35
62
0
0
LWPOLYLINE
5
963
100
AcDbEntity
100
AcDbPolyline
90
16
70
1
10
1427.0
20
-258.0
30
0.0
10
1442.0
20
-256.0
30
0.0
10
1444.0
20
-256.0
30
0.0
10
1465.0
20
-239.0
30
0.0
10
1485.0
20
-229.0
30
0.0
10
1487.0
20
-240.0
30
0.0
10
1492.0
20
-268.0
30
0.0
10
1499.0
20
-301.0
30
0.0
10
1495.0
20
-343.0
30
0.0
10
1488.0
20
-396.0
30
0.0
10
1484.0
20
-417.0
30
0.0
10
1475.0
20
-410.0
30
0.0
10
1464.0
20
-387.0
30
0.0
10
1458.0
20
-355.0
30
0.0
10
1434.0
20
-286.0
30
0.0
10
1427.0
20
-258.0
30
0.0
6
Solid
370
35
62
0
0
LWPOLYLINE
5
965
100
AcDbEntity
100
AcDbPolyline
90
12
70
1
10
1361.0
20
-280.0
30
0.0
10
1373.0
20
-276.0
30
0.0
10
1386.0
20
-271.0
30
0.0
10
1383.0
20
-288.0
30
0.0
10
1378.0
20
-310.0
30
0.0
10
1373.0
20
-331.0
30
0.0
10
1366.0
20
-357.0
30
0.0
10
1354.0
20
-373.0
30
0.0
10
1350.0
20
-337.0
30
0.0
10
1346.0
20
-303.0
30
0.0
10
1346.0
20
-290.0
30
0.0
10
1361.0
20
-280.0
30
0.0
6
Solid
370
35
62
0
0
LWPOLYLINE
5
967
100
AcDbEntity
100
AcDbPolyline
90
14
70
1
10
1961.0
20
-2446.0
30
0.0
10
1935.0
20
-2419.0
30
0.0
10
1930.0
20
-2427.0
30
0.0
10
1951.0
20
-2466.0
30
0.0
10
1952.0
20
-2469.0
30
0.0
10
1942.0
20
-2494.0
30
0.0
10
1929.0
20
-2472.0
30
0.0
10
1913.0
20
-2439.0
30
0.0
10
1902.0
20
-2408.0
30
0.0
10
1915.0
20
-2403.0
30
0.0
10
1941.0
20
-2411.0
30
0.0
10
1956.0
20
-2422.0
30
0.0
10
1967.0
20
-2431.0
30
0.0
10
1961.0
20
-2446.0
30
0.0
6
Solid
370
35
62
0
0
LWPOLYLINE
5
969
100
AcDbEntity
100
AcDbPolyline
90
17
70
1
10
1810.0
20
-2443.0
30
0.0
10
1794.0
20
-2448.0
30
0.0
10
1785.0
20
-2446.0
30
0.0
10
1776.0
20
-2433.0
30
0.0
10
1765.0
20
-2441.0
30
0.0
10
1761.0
20
-2470.0
30
0.0
10
1762.0
20
-2495.0
30
0.0
10
1778.0
20
-2535.0
30
0.0
10
1755.0
20
-2539.0
30
0.0
10
1729.0
20
-2532.0
30
0.0
10
1717.0
20
-2524.0
30
0.0
10
1703.0
20
-2493.0
30
0.0
10
1685.0
20
-2399.0
30
0.0
10
1704.0
20
-2371.0
30
0.0
10
1788.0
20
-2418.0
30
0.0
10
1806.0
20
-2436.0
30
0.0
10
1810.0
20
-2443.0
30
0.0
6
Solid
370
35
62
0
0
LWPOLYLINE
5
96b
100
AcDbEntity
100
AcDbPolyline
90
7
70
1
10
1582.0
20
-2535.0
30
0.0
10
1544.0
20
-2503.0
30
0.0
10
1560.0
20
-2449.0
30
0.0
10
1586.0
20
-2462.0
30
0.0
10
1588.0
20
-2505.0
30
0.0
10
1585.0
20
-2530.0
30
0.0
10
1582.0
20
-2535.0
30
0.0
6
Solid
370
35
62
0
0
LWPOLYLINE
5
96d
100
AcDbEntity
100
AcDbPolyline
90
12
70
1
10
1463.0
20
-2475.0
30
0.0
10
1455.0
20
-2474.0
30
0.0
10
1453.0
20
-2473.0
30
0.0
10
1419.0
20
-2438.0
30
0.0
10
1418.0
20
-2411.0
30
0.0
10
1429.0
20
-2349.0
30
0.0
10
1436.0
20
-2369.0
30
0.0
10
1442.0
20
-2402.0
30
0.0
10
1447.0
20
-2431.0
30
0.0
10
1455.0
20
-2447.0
30
0.0
10
1461.0
20
-2469.0
30
0.0
10
1463.0
20
-2475.0
30
0.0
6
Solid
370
35
62
0
0
LWPOLYLINE
5
96f
100
AcDbEntity
100
AcDbPolyline
90
9
70
1
10
1374.0
20
-2452.0
30
0.0
10
1367.0
20
-2452.0
30
0.0
10
1361.0
20
-2454.0
30
0.0
10
1358.0
20
-2454.0
30
0.0
10
1366.0
20
-2428.0
30
0.0
10
1376.0
20
-2413.0
30
0.0
10
1385.0
20
-2431.0
30
0.0
10
1390.0
20
-2451.0
30
0.0
10
1374.0
20
-2452.0
30
0.0
6
Solid
370
35
62
0
0
LWPOLYLINE
5
971
100
AcDbEntity
100
AcDbPolyline
90
8
70
1
10
1236.0
20
-2485.0
30
0.0
10
1222.0
20
-2490.0
30
0.0
10
1210.0
20
-2481.0
30
0.0
10
1204.0
20
-2484.0
30
0.0
10
1225.0
20
-2460.0
30
0.0
10
1238.0
20
-2465.0
30
0.0
10
1237.0
20
-2478.0
30
0.0
10
1236.0
20
-2485.0
30
0.0
6
Solid
370
35
62
0
0
LWPOLYLINE
5
973
100
AcDbEntity
100
AcDbPolyline
90
11
70
1
10
1228.0
20
-299.0
30
0.0
10
1256.0
20
-286.0
30
0.0
10
1266.0
20
-287.0
30
0.0
10
1266.0
20
-288.0
30
0.0
10
1263.0
20
-304.0
30
0.0
10
1258.0
20
-323.0
30
0.0
10
1250.0
20
-337.0
30
0.0
10
1244.0
20
-336.0
30
0.0
10
1237.0
20
-325.0
30
0.0
10
1234.0
20
-312.0
30
0.0
10
1228.0
20
-299.0
30
0.0
6
Solid
370
35
62
0
0
LWPOLYLINE
5
975
100
AcDbEntity
100
AcDbPolyline
90
8
70
1
10
950.0
20
-1659.0
30
0.0
10
950.0
20
-1661.0
30
0.0
10
935.0
20
-1665.0
30
0.0
10
931.0
20
-1657.0
30
0.0
10
933.0
20
-1649.0
30
0.0
10
939.0
20
-1650.0
30
0.0
10
945.0
20
-1653.0
30
0.0
10
950.0
20
-1659.0
30
0.0
6
Solid
370
35
62
0
0
LWPOLYLINE
5
977
100
AcDbEntity
100
AcDbPolyline
90
5
70
1
10
971.0
20
-1649.0
30
0.0
10
973.0
20
-1652.0
30
0.0
10
970.0
20
-1654.0
30
0.0
10
968.0
20
-1651.0
30
0.0
10
971.0
20
-1649.0
30
0.0
6
Solid
370
35
62
0
0
LWPOLYLINE
5
979
100
AcDbEntity
100
AcDbPolyline
90
5
70
1
10
969.0
20
-1640.0
30
0.0
10
975.0
20
-1643.0
30
0.0
10
977.0
20
-1647.0
30
0.0
10
971.0
20
-1649.0
30
0.0
10
969.0
20
-1640.0
30
0.0
6
Solid
370
35
62
0
0
LWPOLYLINE
5
97b
100
AcDbEntity
100
AcDbPolyline
90
16
70
1
10
916.0
20
-586.0
30
0.0
10
914.0
20
-586.0
30
0.0
10
900.0
20
-587.0
30
0.0
10
882.0
20
-584.0
30
0.0
10
858.0
20
-576.0
30
0.0
10
842.0
20
-569.0
30
0.0
10
836.0
20
-561.0
30
0.0
10
826.0
20
-544.0
30
0.0
10
834.0
20
-540.0
30
0.0
10
841.0
20
-541.0
30
0.0
10
847.0
20
-535.0
30
0.0
10
856.0
20
-539.0
30
0.0
10
875.0
20
-543.0
30
0.0
10
903.0
20
-549.0
30
0.0
10
925.0
20
-574.0
30
0.0
10
916.0
20
-586.0
30
0.0
6
Solid
370
35
62
0
0
LWPOLYLINE
5
97d
100
AcDbEntity
100
AcDbPolyline
90
6
70
1
10
865.0
20
-520.0
30
0.0
10
861.0
20
-520.0
30
0.0
10
868.0
20
-499.0
30
0.0
10
869.0
20
-512.0
30
0.0
10
865.0
20
-518.0
30
0.0
10
865.0
20
-520.0
30
0.0
6
Solid
370
35
62
0
0
LWPOLYLINE
5
97f
100
AcDbEntity
100
AcDbPolyline
90
6
70
1
10
1032.0
20
-351.0
30
0.0
10
1045.0
20
-349.0
30
0.0
10
1075.0
20
-336.0
30
0.0
10
1054.0
20
-376.0
30
0.0
10
1045.0
20
-368.0
30
0.0
10
1032.0
20
-351.0
30
0.0
6
Solid
370
35
62
0
0
LWPOLYLINE
5
981
100
AcDbEntity
100
AcDbPolyline
90
36
70
1
10
257.0
20
-56.0
30
0.0
10
285.0
20
-39.0
30
0.0
10
279.0
20
-30.0
30
0.0
10
285.0
20
-20.0
30
0.0
10
321.0
20
0.0
30
0.0
10
363.0
20
-57.0
30
0.0
10
387.0
20
-96.0
30
0.0
10
410.0
20
-125.0
30
0.0
10
426.0
20
-127.0
30
0.0
10
451.0
20
-134.0
30
0.0
10
470.0
20
-120.0
30
0.0
10
479.0
20
-122.0
30
0.0
10
494.0
20
-143.0
30
0.0
10
498.0
20
-198.0
30
0.0
10
500.0
20
-221.0
30
0.0
10
515.0
20
-237.0
30
0.0
10
541.0
20
-254.0
30
0.0
10
563.0
20
-262.0
30
0.0
10
582.0
20
-269.0
30
0.0
10
597.0
20
-249.0
30
0.0
10
625.0
20
-238.0
30
0.0
10
643.0
20
-224.0
30
0.0
10
671.0
20
-213.0
30
0.0
10
686.0
20
-222.0
30
0.0
10
686.0
20
-244.0
30
0.0
10
683.0
20
-290.0
30
0.0
10
674.0
20
-331.0
30
0.0
10
624.0
20
-388.0
30
0.0
10
585.0
20
-373.0
30
0.0
10
490.0
20
-318.0
30
0.0
10
411.0
20
-275.0
30
0.0
10
380.0
20
-248.0
30
0.0
10
354.0
20
-213.0
30
0.0
10
314.0
20
-153.0
30
0.0
10
269.0
20
-89.0
30
0.0
10
257.0
20
-56.0
30
0.0
6
Solid
370
35
62
0
0
LWPOLYLINE
5
983
100
AcDbEntity
100
AcDbPolyline
90
10
70
1
10
123.0
20
-535.0
30
0.0
10
125.0
20
-523.0
30
0.0
10
124.0
20
-510.0
30
0.0
10
129.0
20
-396.0
30
0.0
10
152.0
20
-435.0
30
0.0
10
153.0
20
-466.0
30
0.0
10
145.0
20
-492.0
30
0.0
10
133.0
20
-520.0
30
0.0
10
123.0
20
-541.0
30
0.0
10
123.0
20
-535.0
30
0.0
6
Solid
370
35
62
0
0
LWPOLYLINE
5
985
100
AcDbEntity
100
AcDbPolyline
90
10
70
1
10
487.0
20
-1389.0
30
0.0
10
484.0
20
-1391.0
30
0.0
10
483.0
20
-1390.0
30
0.0
10
480.0
20
-1390.0
30
0.0
10
479.0
20
-1388.0
30
0.0
10
481.0
20
-1386.0
30
0.0
10
483.0
20
-1386.0
30
0.0
10
488.0
20
-1387.0
30
0.0
10
489.0
20
-1387.0
30
0.0
10
487.0
20
-1389.0
30
0.0
6
Solid
370
35
62
0
0
LWPOLYLINE
5
987
100
AcDbEntity
100
AcDbPolyline
90
9
70
1
10
500.0
20
-1388.0
30
0.0
10
503.0
20
-1386.0
30
0.0
10
506.0
20
-1386.0
30
0.0
10
509.0
20
-1390.0
30
0.0
10
508.0
20
-1390.0
30
0.0
10
507.0
20
-1390.0
30
0.0
10
503.0
20
-1390.0
30
0.0
10
502.0
20
-1390.0
30
0.0
10
500.0
20
-1388.0
30
0.0
6
Solid
370
35
62
0
0
LWPOLYLINE
5
989
100
AcDbEntity
100
AcDbPolyline
90
13
70
1
10
118.0
20
-1605.0
30
0.0
10
121.0
20
-1598.0
30
0.0
10
131.0
20
-1589.0
30
0.0
10
139.0
20
-1582.0
30
0.0
10
144.0
20
-1579.0
30
0.0
10
148.0
20
-1581.0
30
0.0
10
150.0
20
-1585.0
30
0.0
10
150.0
20
-1591.0
30
0.0
10
140.0
20
-1612.0
30
0.0
10
135.0
20
-1620.0
30
0.0
10
126.0
20
-1620.0
30
0.0
10
123.0
20
-1613.0
30
0.0
10
118.0
20
-1605.0
30
0.0
6
Solid
370
35
62
0
0
LWPOLYLINE
5
98b
100
AcDbEntity
100
AcDbPolyline
90
9
70
1
10
250.0
20
-1472.0
30
0.0
10
246.0
20
-1466.0
30
0.0
10
246.0
20
-1465.0
30
0.0
10
249.0
20
-1465.0
30
0.0
10
252.0
20
-1467.0
30
0.0
10
251.0
20
-1469.0
30
0.0
10
251.0
20
-1470.0
30
0.0
10
252.0
20
-1470.0
30
0.0
10
250.0
20
-1472.0
30
0.0
6
Solid
370
35
62
0
0
LWPOLYLINE
5
98d
100
AcDbEntity
100
AcDbPolyline
90
9
70
1
10
424.0
20
-2359.0
30
0.0
10
424.0
20
-2358.0
30
0.0
10
426.0
20
-2352.0
30
0.0
10
429.0
20
-2351.0
30
0.0
10
431.0
20
-2351.0
30
0.0
10
431.0
20
-2354.0
30
0.0
10
428.0
20
-2359.0
30
0.0
10
425.0
20
-2360.0
30
0.0
10
424.0
20
-2359.0
30
0.0
6
Solid
370
35
62
0
0
LWPOLYLINE
5
98f
100
AcDbEntity
100
AcDbPolyline
90
32
70
1
10
671.0
20
-2503.0
30
0.0
10
667.0
20
-2499.0
30
0.0
10
651.0
20
-2515.0
30
0.0
10
634.0
20
-2544.0
30
0.0
10
611.0
20
-2567.0
30
0.0
10
560.0
20
-2593.0
30
0.0
10
539.0
20
-2592.0
30
0.0
10
478.0
20
-2610.0
30
0.0
10
441.0
20
-2649.0
30
0.0
10
400.0
20
-2679.0
30
0.0
10
352.0
20
-2705.0
30
0.0
10
323.0
20
-2739.0
30
0.0
10
222.0
20
-2741.0
30
0.0
10
232.0
20
-2705.0
30
0.0
10
232.0
20
-2655.0
30
0.0
10
216.0
20
-2624.0
30
0.0
10
235.0
20
-2614.0
30
0.0
10
266.0
20
-2589.0
30
0.0
10
258.0
20
-2579.0
30
0.0
10
243.0
20
-2572.0
30
0.0
10
252.0
20
-2564.0
30
0.0
10
284.0
20
-2566.0
30
0.0
10
332.0
20
-2556.0
30
0.0
10
356.0
20
-2528.0
30
0.0
10
389.0
20
-2500.0
30
0.0
10
462.0
20
-2484.0
30
0.0
10
524.0
20
-2474.0
30
0.0
10
627.0
20
-2421.0
30
0.0
10
666.0
20
-2415.0
30
0.0
10
675.0
20
-2465.0
30
0.0
10
673.0
20
-2485.0
30
0.0
10
671.0
20
-2503.0
30
0.0
6
Solid
370
35
62
0
0
LWPOLYLINE
5
991
100
AcDbEntity
100
AcDbPolyline
90
15
70
1
10
104.0
20
-2448.0
30
0.0
10
94.0
20
-2447.0
30
0.0
10
94.0
20
-2439.0
30
0.0
10
93.0
20
-2427.0
30
0.0
10
90.0
20
-2396.0
30
0.0
10
100.0
20
-2359.0
30
0.0
10
102.0
20
-2324.0
30
0.0
10
93.0
20
-2300.0
30
0.0
10
93.0
20
-2272.0
30
0.0
10
88.0
20
-2245.0
30
0.0
10
112.0
20
-2254.0
30
0.0
10
118.0
20
-2302.0
30
0.0
10
117.0
20
-2339.0
30
0.0
10
118.0
20
-2403.0
30
0.0
10
104.0
20
-2448.0
30
0.0
6
Solid
370
35
62
0
0
LWPOLYLINE
5
994
100
AcDbEntity
8
zone_0_q2
100
AcDbPolyline
90
23
70
1
10
2235.0
20
-2158.0
30
0.0
10
2192.0
20
-2156.0
30
0.0
10
2155.0
20
-2178.0
30
0.0
10
2131.0
20
-2195.0
30
0.0
10
2116.0
20
-2205.0
30
0.0
10
2097.0
20
-2216.0
30
0.0
10
2060.0
20
-2211.0
30
0.0
10
2070.0
20
-2205.0
30
0.0
10
2097.0
20
-2174.0
30
0.0
10
2141.0
20
-2145.0
30
0.0
10
2210.0
20
-2138.0
30
0.0
10
2234.0
20
-2156.0
30
0.0
10
2278.0
20
-2137.0
30
0.0
10
2312.0
20
-2144.0
30
0.0
10
2355.0
20
-2169.0
30
0.0
10
2384.0
20
-2212.0
30
0.0
10
2398.0
20
-2240.0
30
0.0
10
2392.0
20
-2237.0
30
0.0
10
2351.0
20
-2192.0
30
0.0
10
2297.0
20
-2161.0
30
0.0
10
2285.0
20
-2159.0
30
0.0
10
2266.0
20
-2156.0
30
0.0
10
2235.0
20
-2158.0
30
0.0
6
Solid
370
35
62
2
0
LWPOLYLINE
5
997
100
AcDbEntity
8
zone_1_q2
100
AcDbPolyline
90
8
70
1
10
2488.0
20
-2178.0
30
0.0
10
2484.0
20
-2196.0
30
0.0
10
2436.0
20
-2245.0
30
0.0
10
2415.0
20
-2249.0
30
0.0
10
2402.0
20
-2242.0
30
0.0
10
2460.0
20
-2199.0
30
0.0
10
2488.0
20
-2177.0
30
0.0
10
2488.0
20
-2178.0
30
0.0
6
Solid
370
35
62
2
0
LWPOLYLINE
5
99a
100
AcDbEntity
8
zone_2_q2
100
AcDbPolyline
90
11
70
1
10
2296.0
20
-709.0
30
0.0
10
2300.0
20
-712.0
30
0.0
10
2316.0
20
-715.0
30
0.0
10
2521.0
20
-780.0
30
0.0
10
2512.0
20
-781.0
30
0.0
10
2485.0
20
-780.0
30
0.0
10
2456.0
20
-770.0
30
0.0
10
2360.0
20
-747.0
30
0.0
10
2294.0
20
-743.0
30
0.0
10
2261.0
20
-697.0
30
0.0
10
2296.0
20
-709.0
30
0.0
6
Solid
370
35
62
2
0
LWPOLYLINE
5
99d
100
AcDbEntity
8
zone_3_q2
100
AcDbPolyline
90
21
70
1
10
2100.0
20
-617.0
30
0.0
10
2096.0
20
-599.0
30
0.0
10
2111.0
20
-596.0
30
0.0
10
2144.0
20
-608.0
30
0.0
10
2178.0
20
-609.0
30
0.0
10
2179.0
20
-608.0
30
0.0
10
2250.0
20
-651.0
30
0.0
10
2199.0
20
-634.0
30
0.0
10
2145.0
20
-635.0
30
0.0
10
2100.0
20
-620.0
30
0.0
10
2100.0
20
-619.0
30
0.0
10
2058.0
20
-693.0
30
0.0
10
2027.0
20
-704.0
30
0.0
10
1975.0
20
-683.0
30
0.0
10
1890.0
20
-631.0
30
0.0
10
1859.0
20
-593.0
30
0.0
10
1852.0
20
-567.0
30
0.0
10
1872.0
20
-567.0
30
0.0
10
1953.0
20
-624.0
30
0.0
10
2011.0
20
-676.0
30
0.0
10
2100.0
20
-617.0
30
0.0
6
Solid
370
35
62
2
0
LWPOLYLINE
5
9a0
100
AcDbEntity
8
zone_4_q2
100
AcDbPolyline
90
14
70
1
10
1613.0
20
-114.0
30
0.0
10
1634.0
20
-143.0
30
0.0
10
1643.0
20
-176.0
30
0.0
10
1668.0
20
-206.0
30
0.0
10
1672.0
20
-232.0
30
0.0
10
1678.0
20
-248.0
30
0.0
10
1676.0
20
-274.0
30
0.0
10
1693.0
20
-320.0
30
0.0
10
1708.0
20
-336.0
30
0.0
10
1707.0
20
-365.0
30
0.0
10
1688.0
20
-374.0
30
0.0
10
1621.0
20
-291.0
30
0.0
10
1619.0
20
-200.0
30
0.0
10
1613.0
20
-114.0
30
0.0
6
Solid
370
35
62
2
0
LWPOLYLINE
5
9a3
100
AcDbEntity
8
zone_5_q2
100
AcDbPolyline
90
19
70
1
10
1621.0
20
-316.0
30
0.0
10
1615.0
20
-397.0
30
0.0
10
1580.0
20
-452.0
30
0.0
10
1528.0
20
-473.0
30
0.0
10
1461.0
20
-454.0
30
0.0
10
1396.0
20
-417.0
30
0.0
10
1342.0
20
-412.0
30
0.0
10
1308.0
20
-378.0
30
0.0
10
1314.0
20
-381.0
30
0.0
10
1335.0
20
-399.0
30
0.0
10
1385.0
20
-388.0
30
0.0
10
1447.0
20
-417.0
30
0.0
10
1486.0
20
-435.0
30
0.0
10
1535.0
20
-392.0
30
0.0
10
1573.0
20
-303.0
30
0.0
10
1588.0
20
-173.0
30
0.0
10
1583.0
20
-146.0
30
0.0
10
1587.0
20
-145.0
30
0.0
10
1621.0
20
-316.0
30
0.0
6
Solid
370
35
62
2
0
LWPOLYLINE
5
9a6
100
AcDbEntity
8
zone_6_q2
100
AcDbPolyline
90
13
70
1
10
1664.0
20
-455.0
30
0.0
10
1730.0
20
-461.0
30
0.0
10
1802.0
20
-461.0
30
0.0
10
1864.0
20
-485.0
30
0.0
10
1880.0
20
-519.0
30
0.0
10
1882.0
20
-539.0
30
0.0
10
1873.0
20
-550.0
30
0.0
10
1823.0
20
-547.0
30
0.0
10
1741.0
20
-523.0
30
0.0
10
1660.0
20
-470.0
30
0.0
10
1635.0
20
-402.0
30
0.0
10
1638.0
20
-400.0
30
0.0
10
1664.0
20
-455.0
30
0.0
6
Solid
370
35
62
2
0
LWPOLYLINE
5
9a9
100
AcDbEntity
8
zone_7_q2
100
AcDbPolyline
90
23
70
1
10
1304.0
20
-2391.0
30
0.0
10
1420.0
20
-2301.0
30
0.0
10
1511.0
20
-2286.0
30
0.0
10
1666.0
20
-2301.0
30
0.0
10
1733.0
20
-2306.0
30
0.0
10
1745.0
20
-2346.0
30
0.0
10
1650.0
20
-2409.0
30
0.0
10
1646.0
20
-2480.0
30
0.0
10
1610.0
20
-2472.0
30
0.0
10
1587.0
20
-2442.0
30
0.0
10
1560.0
20
-2433.0
30
0.0
10
1535.0
20
-2452.0
30
0.0
10
1512.0
20
-2463.0
30
0.0
10
1498.0
20
-2453.0
30
0.0
10
1480.0
20
-2429.0
30
0.0
10
1466.0
20
-2401.0
30
0.0
10
1460.0
20
-2360.0
30
0.0
10
1435.0
20
-2336.0
30
0.0
10
1419.0
20
-2337.0
30
0.0
10
1412.0
20
-2364.0
30
0.0
10
1390.0
20
-2423.0
30
0.0
10
1371.0
20
-2420.0
30
0.0
10
1304.0
20
-2391.0
30
0.0
6
Solid
370
35
62
2
0
LWPOLYLINE
5
9ac
100
AcDbEntity
8
zone_8_q2
100
AcDbPolyline
90
5
70
1
10
1995.0
20
-2245.0
30
0.0
10
1995.0
20
-2250.0
30
0.0
10
1988.0
20
-2236.0
30
0.0
10
1992.0
20
-2234.0
30
0.0
10
1995.0
20
-2245.0
30
0.0
6
Solid
370
35
62
2
0
LWPOLYLINE
5
9af
100
AcDbEntity
8
zone_9_q2
100
AcDbPolyline
90
16
70
1
10
2008.0
20
-2277.0
30
0.0
10
2017.0
20
-2321.0
30
0.0
10
2000.0
20
-2351.0
30
0.0
10
1964.0
20
-2377.0
30
0.0
10
1899.0
20
-2403.0
30
0.0
10
1843.0
20
-2412.0
30
0.0
10
1802.0
20
-2387.0
30
0.0
10
1773.0
20
-2339.0
30
0.0
10
1785.0
20
-2344.0
30
0.0
10
1824.0
20
-2380.0
30
0.0
10
1861.0
20
-2398.0
30
0.0
10
1924.0
20
-2390.0
30
0.0
10
1980.0
20
-2350.0
30
0.0
10
1995.0
20
-2292.0
30
0.0
10
1995.0
20
-2250.0
30
0.0
10
2008.0
20
-2277.0
30
0.0
6
Solid
370
35
62
2
0
LWPOLYLINE
5
9b2
100
AcDbEntity
8
zone_10_q1
100
AcDbPolyline
90
8
70
1
10
1063.0
20
-1216.0
30
0.0
10
1060.0
20
-1213.0
30
0.0
10
1055.0
20
-1205.0
30
0.0
10
1056.0
20
-1200.0
30
0.0
10
1057.0
20
-1196.0
30
0.0
10
1065.0
20
-1203.0
30
0.0
10
1064.0
20
-1215.0
30
0.0
10
1063.0
20
-1216.0
30
0.0
6
Solid
370
35
62
40
0
LWPOLYLINE
5
9b5
100
AcDbEntity
8
zone_11_q1
100
AcDbPolyline
90
8
70
1
10
993.0
20
-1646.0
30
0.0
10
989.0
20
-1637.0
30
0.0
10
988.0
20
-1630.0
30
0.0
10
993.0
20
-1629.0
30
0.0
10
999.0
20
-1631.0
30
0.0
10
1000.0
20
-1643.0
30
0.0
10
997.0
20
-1648.0
30
0.0
10
993.0
20
-1646.0
30
0.0
6
Solid
370
35
62
40
0
LWPOLYLINE
5
9b8
100
AcDbEntity
8
zone_12_q1
100
AcDbPolyline
90
9
70
1
10
730.0
20
-1755.0
30
0.0
10
711.0
20
-1744.0
30
0.0
10
692.0
20
-1735.0
30
0.0
10
673.0
20
-1729.0
30
0.0
10
674.0
20
-1725.0
30
0.0
10
700.0
20
-1736.0
30
0.0
10
722.0
20
-1745.0
30
0.0
10
741.0
20
-1755.0
30
0.0
10
730.0
20
-1755.0
30
0.0
6
Solid
370
35
62
40
0
LWPOLYLINE
5
9bb
100
AcDbEntity
8
zone_13_q2
100
AcDbPolyline
90
12
70
1
10
945.0
20
-623.0
30
0.0
10
923.0
20
-613.0
30
0.0
10
938.0
20
-577.0
30
0.0
10
915.0
20
-546.0
30
0.0
10
925.0
20
-466.0
30
0.0
10
962.0
20
-468.0
30
0.0
10
989.0
20
-501.0
30
0.0
10
1005.0
20
-534.0
30
0.0
10
1013.0
20
-564.0
30
0.0
10
974.0
20
-617.0
30
0.0
10
961.0
20
-616.0
30
0.0
10
945.0
20
-623.0
30
0.0
6
Solid
370
35
62
2
0
LWPOLYLINE
5
9be
100
AcDbEntity
8
zone_14_q2
100
AcDbPolyline
90
9
70
1
10
856.0
20
-635.0
30
0.0
10
818.0
20
-624.0
30
0.0
10
779.0
20
-598.0
30
0.0
10
764.0
20
-562.0
30
0.0
10
776.0
20
-537.0
30
0.0
10
808.0
20
-551.0
30
0.0
10
851.0
20
-595.0
30
0.0
10
883.0
20
-605.0
30
0.0
10
856.0
20
-635.0
30
0.0
6
Solid
370
35
62
2
0
LWPOLYLINE
5
9c1
100
AcDbEntity
8
zone_15_q2
100
AcDbPolyline
90
71
70
1
10
601.0
20
-405.0
30
0.0
10
575.0
20
-409.0
30
0.0
10
523.0
20
-425.0
30
0.0
10
547.0
20
-451.0
30
0.0
10
482.0
20
-408.0
30
0.0
10
420.0
20
-366.0
30
0.0
10
367.0
20
-310.0
30
0.0
10
317.0
20
-250.0
30
0.0
10
272.0
20
-178.0
30
0.0
10
234.0
20
-109.0
30
0.0
10
236.0
20
-63.0
30
0.0
10
257.0
20
-56.0
30
0.0
10
285.0
20
-39.0
30
0.0
10
279.0
20
-30.0
30
0.0
10
285.0
20
-20.0
30
0.0
10
321.0
20
0.0
30
0.0
10
363.0
20
-57.0
30
0.0
10
387.0
20
-96.0
30
0.0
10
410.0
20
-125.0
30
0.0
10
426.0
20
-127.0
30
0.0
10
451.0
20
-134.0
30
0.0
10
470.0
20
-120.0
30
0.0
10
479.0
20
-122.0
30
0.0
10
494.0
20
-143.0
30
0.0
10
498.0
20
-198.0
30
0.0
10
500.0
20
-221.0
30
0.0
10
515.0
20
-237.0
30
0.0
10
541.0
20
-254.0
30
0.0
10
563.0
20
-262.0
30
0.0
10
582.0
20
-269.0
30
0.0
10
597.0
20
-249.0
30
0.0
10
625.0
20
-238.0
30
0.0
10
643.0
20
-224.0
30
0.0
10
671.0
20
-213.0
30
0.0
10
697.0
20
-228.0
30
0.0
10
716.0
20
-237.0
30
0.0
10
713.0
20
-250.0
30
0.0
10
720.0
20
-256.0
30
0.0
10
770.0
20
-280.0
30
0.0
10
791.0
20
-311.0
30
0.0
10
825.0
20
-354.0
30
0.0
10
847.0
20
-379.0
30
0.0
10
890.0
20
-388.0
30
0.0
10
965.0
20
-391.0
30
0.0
10
1008.0
20
-355.0
30
0.0
10
1019.0
20
-353.0
30
0.0
10
1038.0
20
-380.0
30
0.0
10
1085.0
20
-365.0
30
0.0
10
1116.0
20
-355.0
30
0.0
10
1139.0
20
-358.0
30
0.0
10
1181.0
20
-344.0
30
0.0
10
1155.0
20
-382.0
30
0.0
10
1064.0
20
-395.0
30
0.0
10
999.0
20
-394.0
30
0.0
10
941.0
20
-408.0
30
0.0
10
881.0
20
-428.0
30
0.0
10
764.0
20
-376.0
30
0.0
10
705.0
20
-286.0
30
0.0
10
694.0
20
-335.0
30
0.0
10
686.0
20
-369.0
30
0.0
10
662.0
20
-403.0
30
0.0
10
647.0
20
-406.0
30
0.0
10
671.0
20
-435.0
30
0.0
10
702.0
20
-488.0
30
0.0
10
687.0
20
-499.0
30
0.0
10
707.0
20
-530.0
30
0.0
10
690.0
20
-573.0
30
0.0
10
662.0
20
-567.0
30
0.0
10
595.0
20
-493.0
30
0.0
10
587.0
20
-422.0
30
0.0
10
601.0
20
-405.0
30
0.0
6
Solid
370
35
62
2
0
LWPOLYLINE
5
9c4
100
AcDbEntity
8
zone_16_q2
100
AcDbPolyline
90
27
70
1
10
1155.0
20
-2525.0
30
0.0
10
1151.0
20
-2526.0
30
0.0
10
1105.0
20
-2517.0
30
0.0
10
1096.0
20
-2506.0
30
0.0
10
1045.0
20
-2479.0
30
0.0
10
995.0
20
-2490.0
30
0.0
10
968.0
20
-2484.0
30
0.0
10
931.0
20
-2489.0
30
0.0
10
897.0
20
-2488.0
30
0.0
10
865.0
20
-2506.0
30
0.0
10
837.0
20
-2509.0
30
0.0
10
800.0
20
-2518.0
30
0.0
10
768.0
20
-2536.0
30
0.0
10
735.0
20
-2584.0
30
0.0
10
711.0
20
-2562.0
30
0.0
10
709.0
20
-2556.0
30
0.0
10
721.0
20
-2541.0
30
0.0
10
750.0
20
-2512.0
30
0.0
10
801.0
20
-2491.0
30
0.0
10
847.0
20
-2480.0
30
0.0
10
911.0
20
-2449.0
30
0.0
10
961.0
20
-2454.0
30
0.0
10
1008.0
20
-2460.0
30
0.0
10
1026.0
20
-2458.0
30
0.0
10
1053.0
20
-2464.0
30
0.0
10
1123.0
20
-2488.0
30
0.0
10
1155.0
20
-2525.0
30
0.0
6
Solid
370
35
62
2
0
LWPOLYLINE
5
9c7
100
AcDbEntity
8
zone_17_q2
100
AcDbPolyline
90
5
70
1
10
463.0
20
-1413.0
30
0.0
10
461.0
20
-1408.0
30
0.0
10
462.0
20
-1408.0
30
0.0
10
467.0
20
-1411.0
30
0.0
10
463.0
20
-1413.0
30
0.0
6
Solid
370
35
62
2
0
LWPOLYLINE
5
9ca
100
AcDbEntity
8
zone_18_q2
100
AcDbPolyline
90
16
70
1
10
258.0
20
-2570.0
30
0.0
10
285.0
20
-2567.0
30
0.0
10
342.0
20
-2559.0
30
0.0
10
355.0
20
-2537.0
30
0.0
10
441.0
20
-2486.0
30
0.0
10
495.0
20
-2478.0
30
0.0
10
617.0
20
-2418.0
30
0.0
10
663.0
20
-2405.0
30
0.0
10
711.0
20
-2411.0
30
0.0
10
702.0
20
-2226.0
30
0.0
10
629.0
20
-2305.0
30
0.0
10
599.0
20
-2371.0
30
0.0
10
505.0
20
-2462.0
30
0.0
10
380.0
20
-2484.0
30
0.0
10
362.0
20
-2510.0
30
0.0
10
258.0
20
-2570.0
30
0.0
6
Solid
370
35
62
2
0
ENDSEC
0
SECTION
2
OBJECTS
0
DICTIONARY
5
94d
330
0
100
AcDbDictionary
281
1
3
ACAD_GROUP
350
94e
0
DICTIONARY
5
94e
330
94d
100
AcDbDictionary
281
1
0
ENDSEC
0
EOF
