999

0
SECTION
2
HEADER
9
$ACADVER
1
AC1021
9
$HANDSEED
5
a48
0
ENDSEC
0
SECTION
2
CLASSES
0
ENDSEC
0
SECTION
2
TABLES
0
TABLE
2
VPORT
5
9cd
100
AcDbSymbolTable
70
1
0
VPORT
5
9cc
100
AcDbSymbolTableRecord
100
AcDbViewportTableRecord
2
*ACTIVE
10
0
20
0
11
1
21
1
12
500.0
22
500.0
40
1000.0
70
0
0
ENDTAB
0
TABLE
2
LTYPE
5
9ce
100
AcDbSymbolTable
70
3
0
LTYPE
5
9d6
100
AcDbSymbolTableRecord
100
AcDbLinetypeTableRecord
2
Solid
70
0
72
65
73
0
3

0
LTYPE
5
9d7
100
AcDbSymbolTableRecord
100
AcDbLinetypeTableRecord
2
ByBlock
70
0
72
65
73
0
3

0
LTYPE
5
9d8
100
AcDbSymbolTableRecord
100
AcDbLinetypeTableRecord
2
ByLayer
70
0
72
65
73
0
3

0
ENDTAB
0
TABLE
2
LAYER
5
9cf
100
AcDbSymbolTable
70
16
0
LAYER
5
9d9
100
AcDbSymbolTableRecord
100
AcDbLayerTableRecord
2
0
70
0
390
0
0
LAYER
5
a1b
100
AcDbSymbolTableRecord
100
AcDbLayerTableRecord
2
zone_0_q2
70
0
390
0
0
LAYER
5
a1e
100
AcDbSymbolTableRecord
100
AcDbLayerTableRecord
2
zone_1_q2
70
0
390
0
0
LAYER
5
a21
100
AcDbSymbolTableRecord
100
AcDbLayerTableRecord
2
zone_2_q2
70
0
390
0
0
LAYER
5
a24
100
AcDbSymbolTableRecord
100
AcDbLayerTableRecord
2
zone_3_q2
70
0
390
0
0
LAYER
5
a27
100
AcDbSymbolTableRecord
100
AcDbLayerTableRecord
2
zone_4_q1
70
0
390
0
0
LAYER
5
a2a
100
AcDbSymbolTableRecord
100
AcDbLayerTableRecord
2
zone_5_q1
70
0
390
0
0
LAYER
5
a2d
100
AcDbSymbolTableRecord
100
AcDbLayerTableRecord
2
zone_6_q1
70
0
390
0
0
LAYER
5
a30
100
AcDbSymbolTableRecord
100
AcDbLayerTableRecord
2
zone_7_q2
70
0
390
0
0
LAYER
5
a33
100
AcDbSymbolTableRecord
100
AcDbLayerTableRecord
2
zone_8_q2
70
0
390
0
0
LAYER
5
a36
100
AcDbSymbolTableRecord
100
AcDbLayerTableRecord
2
zone_9_q2
70
0
390
0
0
LAYER
5
a39
100
AcDbSymbolTableRecord
100
AcDbLayerTableRecord
2
zone_10_q1
70
0
390
0
0
LAYER
5
a3c
100
AcDbSymbolTableRecord
100
AcDbLayerTableRecord
2
zone_11_q2
70
0
390
0
0
LAYER
5
a3f
100
AcDbSymbolTableRecord
100
AcDbLayerTableRecord
2
zone_12_q2
70
0
390
0
0
LAYER
5
a42
100
AcDbSymbolTableRecord
100
AcDbLayerTableRecord
2
zone_13_q3
70
0
390
0
0
LAYER
5
a45
100
AcDbSymbolTableRecord
100
AcDbLayerTableRecord
2
zone_14_q2
70
0
390
0
0
ENDTAB
0
TABLE
2
STYLE
5
9d0
100
AcDbSymbolTable
70
0
0
ENDTAB
0
TABLE
2
VIEW
5
9d1
100
AcDbSymbolTable
70
0
0
ENDTAB
0
TABLE
2
UCS
5
9d2
100
AcDbSymbolTable
70
0
0
ENDTAB
0
TABLE
2
APPID
5
9d3
100
AcDbSymbolTable
70
1
0
APPID
5
9da
100
AcDbSymbolTableRecord
100
AcDbRegAppTableRecord
2
ACAD
70
0
0
ENDTAB
0
TABLE
2
DIMSTYLE
5
9d4
100
AcDbSymbolTable
70
0
100
AcDbDimStyleTable
71
1
0
ENDTAB
0
TABLE
2
BLOCK_RECORD
5
9d5
100
AcDbSymbolTable
70
2
0
BLOCK_RECORD
5
9db
100
AcDbSymbolTableRecord
100
AcDbBlockTableRecord
2
*Model_Space
70
0
280
1
281
0
0
BLOCK_RECORD
5
9dc
100
AcDbSymbolTableRecord
100
AcDbBlockTableRecord
2
*Paper_Space
70
0
280
1
281
0
0
ENDTAB
0
ENDSEC
0
SECTION
2
BLOCKS
0
BLOCK
5
9dd
100
AcDbEntity
100
AcDbBlockBegin
2
*Model_Space
70
0
10
0
20
0
30
0
3
*Model_Space
1

0
ENDBLK
5
9de
100
AcDbEntity
100
AcDbBlockEnd
0
BLOCK
5
9df
100
AcDbEntity
100
AcDbBlockBegin
2
*Paper_Space
70
0
10
0
20
0
30
0
3
*Paper_Space
1

0
ENDBLK
5
9e0
100
AcDbEntity
100
AcDbBlockEnd
0
ENDSEC
0
SECTION
2
ENTITIES
0
LWPOLYLINE
5
9e3
100
AcDbEntity
100
AcDbPolyline
90
278
70
1
10
2381.0
20
-1663.0
30
0.0
10
2366.0
20
-1696.0
30
0.0
10
2355.0
20
-1751.0
30
0.0
10
2341.0
20
-1773.0
30
0.0
10
2310.0
20
-1768.0
30
0.0
10
2279.0
20
-1769.0
30
0.0
10
2258.0
20
-1789.0
30
0.0
10
2260.0
20
-1819.0
30
0.0
10
2297.0
20
-1862.0
30
0.0
10
2293.0
20
-1883.0
30
0.0
10
2271.0
20
-1889.0
30
0.0
10
2264.0
20
-1904.0
30
0.0
10
2280.0
20
-1941.0
30
0.0
10
2313.0
20
-1985.0
30
0.0
10
2324.0
20
-2025.0
30
0.0
10
2331.0
20
-2056.0
30
0.0
10
2359.0
20
-2121.0
30
0.0
10
2358.0
20
-2168.0
30
0.0
10
2344.0
20
-2186.0
30
0.0
10
2334.0
20
-2214.0
30
0.0
10
2307.0
20
-2269.0
30
0.0
10
2287.0
20
-2285.0
30
0.0
10
2244.0
20
-2274.0
30
0.0
10
2187.0
20
-2248.0
30
0.0
10
2123.0
20
-2246.0
30
0.0
10
2104.0
20
-2251.0
30
0.0
10
2092.0
20
-2246.0
30
0.0
10
2027.0
20
-2229.0
30
0.0
10
2009.0
20
-2232.0
30
0.0
10
1984.0
20
-2230.0
30
0.0
10
1938.0
20
-2192.0
30
0.0
10
1929.0
20
-2197.0
30
0.0
10
1928.0
20
-2212.0
30
0.0
10
1934.0
20
-2250.0
30
0.0
10
1970.0
20
-2322.0
30
0.0
10
1969.0
20
-2347.0
30
0.0
10
1956.0
20
-2366.0
30
0.0
10
1934.0
20
-2373.0
30
0.0
10
1901.0
20
-2386.0
30
0.0
10
1882.0
20
-2371.0
30
0.0
10
1867.0
20
-2366.0
30
0.0
10
1852.0
20
-2380.0
30
0.0
10
1853.0
20
-2422.0
30
0.0
10
1905.0
20
-2521.0
30
0.0
10
1913.0
20
-2541.0
30
0.0
10
1893.0
20
-2557.0
30
0.0
10
1872.0
20
-2555.0
30
0.0
10
1853.0
20
-2564.0
30
0.0
10
1825.0
20
-2558.0
30
0.0
10
1801.0
20
-2543.0
30
0.0
10
1767.0
20
-2528.0
30
0.0
10
1745.0
20
-2513.0
30
0.0
10
1737.0
20
-2494.0
30
0.0
10
1708.0
20
-2440.0
30
0.0
10
1690.0
20
-2414.0
30
0.0
10
1665.0
20
-2401.0
30
0.0
10
1656.0
20
-2403.0
30
0.0
10
1629.0
20
-2406.0
30
0.0
10
1613.0
20
-2412.0
30
0.0
10
1606.0
20
-2426.0
30
0.0
10
1638.0
20
-2471.0
30
0.0
10
1698.0
20
-2516.0
30
0.0
10
1679.0
20
-2549.0
30
0.0
10
1676.0
20
-2587.0
30
0.0
10
1668.0
20
-2612.0
30
0.0
10
1638.0
20
-2600.0
30
0.0
10
1594.0
20
-2582.0
30
0.0
10
1545.0
20
-2551.0
30
0.0
10
1487.0
20
-2521.0
30
0.0
10
1472.0
20
-2510.0
30
0.0
10
1420.0
20
-2478.0
30
0.0
10
1399.0
20
-2454.0
30
0.0
10
1363.0
20
-2420.0
30
0.0
10
1327.0
20
-2401.0
30
0.0
10
1308.0
20
-2403.0
30
0.0
10
1287.0
20
-2411.0
30
0.0
10
1265.0
20
-2416.0
30
0.0
10
1232.0
20
-2407.0
30
0.0
10
1196.0
20
-2398.0
30
0.0
10
1131.0
20
-2414.0
30
0.0
10
1094.0
20
-2434.0
30
0.0
10
1078.0
20
-2426.0
30
0.0
10
1065.0
20
-2410.0
30
0.0
10
1018.0
20
-2373.0
30
0.0
10
994.0
20
-2365.0
30
0.0
10
957.0
20
-2374.0
30
0.0
10
889.0
20
-2383.0
30
0.0
10
876.0
20
-2391.0
30
0.0
10
842.0
20
-2410.0
30
0.0
10
792.0
20
-2419.0
30
0.0
10
774.0
20
-2405.0
30
0.0
10
764.0
20
-2405.0
30
0.0
10
749.0
20
-2404.0
30
0.0
10
714.0
20
-2417.0
30
0.0
10
686.0
20
-2411.0
30
0.0
10
649.0
20
-2409.0
30
0.0
10
646.0
20
-2401.0
30
0.0
10
628.0
20
-2392.0
30
0.0
10
599.0
20
-2399.0
30
0.0
10
575.0
20
-2434.0
30
0.0
10
563.0
20
-2442.0
30
0.0
10
525.0
20
-2462.0
30
0.0
10
443.0
20
-2473.0
30
0.0
10
404.0
20
-2494.0
30
0.0
10
392.0
20
-2491.0
30
0.0
10
364.0
20
-2463.0
30
0.0
10
345.0
20
-2451.0
30
0.0
10
331.0
20
-2436.0
30
0.0
10
317.0
20
-2427.0
30
0.0
10
279.0
20
-2429.0
30
0.0
10
266.0
20
-2425.0
30
0.0
10
244.0
20
-2418.0
30
0.0
10
228.0
20
-2407.0
30
0.0
10
192.0
20
-2358.0
30
0.0
10
158.0
20
-2322.0
30
0.0
10
147.0
20
-2300.0
30
0.0
10
118.0
20
-2251.0
30
0.0
10
127.0
20
-2220.0
30
0.0
10
142.0
20
-2173.0
30
0.0
10
152.0
20
-2145.0
30
0.0
10
156.0
20
-2104.0
30
0.0
10
138.0
20
-2067.0
30
0.0
10
124.0
20
-2027.0
30
0.0
10
115.0
20
-2009.0
30
0.0
10
76.0
20
-1957.0
30
0.0
10
17.0
20
-1859.0
30
0.0
10
0.0
20
-1809.0
30
0.0
10
4.0
20
-1728.0
30
0.0
10
6.0
20
-1671.0
30
0.0
10
14.0
20
-1640.0
30
0.0
10
103.0
20
-1558.0
30
0.0
10
170.0
20
-1499.0
30
0.0
10
207.0
20
-1449.0
30
0.0
10
225.0
20
-1405.0
30
0.0
10
233.0
20
-1390.0
30
0.0
10
248.0
20
-1348.0
30
0.0
10
250.0
20
-1348.0
30
0.0
10
258.0
20
-1344.0
30
0.0
10
248.0
20
-1330.0
30
0.0
10
249.0
20
-1328.0
30
0.0
10
248.0
20
-1303.0
30
0.0
10
252.0
20
-1263.0
30
0.0
10
257.0
20
-1226.0
30
0.0
10
252.0
20
-1192.0
30
0.0
10
253.0
20
-1158.0
30
0.0
10
245.0
20
-1127.0
30
0.0
10
233.0
20
-1095.0
30
0.0
10
176.0
20
-1013.0
30
0.0
10
65.0
20
-873.0
30
0.0
10
54.0
20
-835.0
30
0.0
10
57.0
20
-804.0
30
0.0
10
57.0
20
-782.0
30
0.0
10
49.0
20
-750.0
30
0.0
10
43.0
20
-697.0
30
0.0
10
44.0
20
-653.0
30
0.0
10
63.0
20
-631.0
30
0.0
10
96.0
20
-585.0
30
0.0
10
118.0
20
-542.0
30
0.0
10
142.0
20
-477.0
30
0.0
10
163.0
20
-446.0
30
0.0
10
174.0
20
-415.0
30
0.0
10
168.0
20
-368.0
30
0.0
10
153.0
20
-314.0
30
0.0
10
133.0
20
-275.0
30
0.0
10
124.0
20
-250.0
30
0.0
10
125.0
20
-228.0
30
0.0
10
132.0
20
-215.0
30
0.0
10
143.0
20
-208.0
30
0.0
10
172.0
20
-194.0
30
0.0
10
183.0
20
-179.0
30
0.0
10
189.0
20
-165.0
30
0.0
10
187.0
20
-163.0
30
0.0
10
190.0
20
-81.0
30
0.0
10
201.0
20
-62.0
30
0.0
10
226.0
20
-46.0
30
0.0
10
248.0
20
-21.0
30
0.0
10
286.0
20
0.0
30
0.0
10
330.0
20
0.0
30
0.0
10
353.0
20
-33.0
30
0.0
10
380.0
20
-69.0
30
0.0
10
399.0
20
-74.0
30
0.0
10
427.0
20
-63.0
30
0.0
10
446.0
20
-65.0
30
0.0
10
504.0
20
-115.0
30
0.0
10
527.0
20
-119.0
30
0.0
10
545.0
20
-106.0
30
0.0
10
573.0
20
-97.0
30
0.0
10
584.0
20
-83.0
30
0.0
10
623.0
20
-38.0
30
0.0
10
633.0
20
-31.0
30
0.0
10
656.0
20
-33.0
30
0.0
10
659.0
20
-74.0
30
0.0
10
668.0
20
-113.0
30
0.0
10
700.0
20
-147.0
30
0.0
10
742.0
20
-160.0
30
0.0
10
782.0
20
-160.0
30
0.0
10
833.0
20
-186.0
30
0.0
10
877.0
20
-200.0
30
0.0
10
908.0
20
-202.0
30
0.0
10
927.0
20
-204.0
30
0.0
10
946.0
20
-216.0
30
0.0
10
961.0
20
-216.0
30
0.0
10
980.0
20
-220.0
30
0.0
10
1020.0
20
-221.0
30
0.0
10
1067.0
20
-213.0
30
0.0
10
1100.0
20
-197.0
30
0.0
10
1122.0
20
-194.0
30
0.0
10
1144.0
20
-206.0
30
0.0
10
1203.0
20
-221.0
30
0.0
10
1231.0
20
-223.0
30
0.0
10
1264.0
20
-217.0
30
0.0
10
1289.0
20
-224.0
30
0.0
10
1320.0
20
-223.0
30
0.0
10
1351.0
20
-202.0
30
0.0
10
1418.0
20
-184.0
30
0.0
10
1434.0
20
-176.0
30
0.0
10
1467.0
20
-140.0
30
0.0
10
1504.0
20
-97.0
30
0.0
10
1572.0
20
-69.0
30
0.0
10
1594.0
20
-66.0
30
0.0
10
1628.0
20
-49.0
30
0.0
10
1656.0
20
-46.0
30
0.0
10
1675.0
20
-52.0
30
0.0
10
1683.0
20
-67.0
30
0.0
10
1673.0
20
-114.0
30
0.0
10
1651.0
20
-176.0
30
0.0
10
1659.0
20
-193.0
30
0.0
10
1690.0
20
-204.0
30
0.0
10
1724.0
20
-212.0
30
0.0
10
1742.0
20
-232.0
30
0.0
10
1734.0
20
-274.0
30
0.0
10
1742.0
20
-285.0
30
0.0
10
1763.0
20
-288.0
30
0.0
10
1812.0
20
-309.0
30
0.0
10
1825.0
20
-309.0
30
0.0
10
1853.0
20
-305.0
30
0.0
10
1887.0
20
-297.0
30
0.0
10
1905.0
20
-311.0
30
0.0
10
1922.0
20
-333.0
30
0.0
10
1895.0
20
-391.0
30
0.0
10
1896.0
20
-410.0
30
0.0
10
1886.0
20
-436.0
30
0.0
10
1894.0
20
-448.0
30
0.0
10
1942.0
20
-480.0
30
0.0
10
1964.0
20
-489.0
30
0.0
10
1973.0
20
-479.0
30
0.0
10
2004.0
20
-461.0
30
0.0
10
2038.0
20
-469.0
30
0.0
10
2072.0
20
-467.0
30
0.0
10
2112.0
20
-483.0
30
0.0
10
2117.0
20
-511.0
30
0.0
10
2138.0
20
-527.0
30
0.0
10
2138.0
20
-552.0
30
0.0
10
2134.0
20
-655.0
30
0.0
10
2139.0
20
-677.0
30
0.0
10
2166.0
20
-704.0
30
0.0
10
2180.0
20
-750.0
30
0.0
10
2175.0
20
-787.0
30
0.0
10
2162.0
20
-812.0
30
0.0
10
2166.0
20
-858.0
30
0.0
10
2185.0
20
-937.0
30
0.0
10
2200.0
20
-985.0
30
0.0
10
2201.0
20
-1028.0
30
0.0
10
2211.0
20
-1073.0
30
0.0
10
2237.0
20
-1133.0
30
0.0
10
2253.0
20
-1191.0
30
0.0
10
2270.0
20
-1224.0
30
0.0
10
2296.0
20
-1284.0
30
0.0
10
2290.0
20
-1304.0
30
0.0
10
2291.0
20
-1305.0
30
0.0
10
2303.0
20
-1310.0
30
0.0
10
2322.0
20
-1369.0
30
0.0
10
2333.0
20
-1420.0
30
0.0
10
2336.0
20
-1463.0
30
0.0
10
2348.0
20
-1535.0
30
0.0
10
2379.0
20
-1629.0
30
0.0
10
2383.0
20
-1661.0
30
0.0
10
2381.0
20
-1663.0
30
0.0
6
Solid
370
35
62
0
0
LWPOLYLINE
5
9e5
100
AcDbEntity
100
AcDbPolyline
90
29
70
1
10
1508.0
20
-216.0
30
0.0
10
1520.0
20
-203.0
30
0.0
10
1525.0
20
-203.0
30
0.0
10
1526.0
20
-202.0
30
0.0
10
1535.0
20
-191.0
30
0.0
10
1539.0
20
-102.0
30
0.0
10
1536.0
20
-84.0
30
0.0
10
1572.0
20
-69.0
30
0.0
10
1594.0
20
-66.0
30
0.0
10
1628.0
20
-49.0
30
0.0
10
1656.0
20
-46.0
30
0.0
10
1675.0
20
-52.0
30
0.0
10
1683.0
20
-67.0
30
0.0
10
1673.0
20
-114.0
30
0.0
10
1651.0
20
-176.0
30
0.0
10
1659.0
20
-193.0
30
0.0
10
1684.0
20
-202.0
30
0.0
10
1684.0
20
-203.0
30
0.0
10
1659.0
20
-223.0
30
0.0
10
1610.0
20
-233.0
30
0.0
10
1569.0
20
-232.0
30
0.0
10
1541.0
20
-236.0
30
0.0
10
1524.0
20
-255.0
30
0.0
10
1493.0
20
-261.0
30
0.0
10
1479.0
20
-256.0
30
0.0
10
1479.0
20
-249.0
30
0.0
10
1480.0
20
-244.0
30
0.0
10
1489.0
20
-229.0
30
0.0
10
1508.0
20
-216.0
30
0.0
6
Solid
370
35
62
0
0
LWPOLYLINE
5
9e7
100
AcDbEntity
100
AcDbPolyline
90
9
70
1
10
642.0
20
-128.0
30
0.0
10
640.0
20
-128.0
30
0.0
10
631.0
20
-122.0
30
0.0
10
632.0
20
-109.0
30
0.0
10
638.0
20
-101.0
30
0.0
10
641.0
20
-105.0
30
0.0
10
643.0
20
-106.0
30
0.0
10
645.0
20
-124.0
30
0.0
10
642.0
20
-128.0
30
0.0
6
Solid
370
35
62
0
0
LWPOLYLINE
5
9e9
100
AcDbEntity
100
AcDbPolyline
90
5
70
1
10
2341.0
20
-1573.0
30
0.0
10
2343.0
20
-1565.0
30
0.0
10
2347.0
20
-1566.0
30
0.0
10
2345.0
20
-1574.0
30
0.0
10
2341.0
20
-1573.0
30
0.0
6
Solid
370
35
62
0
0
LWPOLYLINE
5
9eb
100
AcDbEntity
100
AcDbPolyline
90
16
70
1
10
2287.0
20
-1769.0
30
0.0
10
2291.0
20
-1749.0
30
0.0
10
2306.0
20
-1705.0
30
0.0
10
2328.0
20
-1618.0
30
0.0
10
2336.0
20
-1598.0
30
0.0
10
2343.0
20
-1576.0
30
0.0
10
2343.0
20
-1574.0
30
0.0
10
2362.0
20
-1576.0
30
0.0
10
2379.0
20
-1629.0
30
0.0
10
2383.0
20
-1661.0
30
0.0
10
2381.0
20
-1663.0
30
0.0
10
2366.0
20
-1696.0
30
0.0
10
2355.0
20
-1751.0
30
0.0
10
2341.0
20
-1773.0
30
0.0
10
2310.0
20
-1768.0
30
0.0
10
2287.0
20
-1769.0
30
0.0
6
Solid
370
35
62
0
0
LWPOLYLINE
5
9ed
100
AcDbEntity
100
AcDbPolyline
90
11
70
1
10
2183.0
20
-1339.0
30
0.0
10
2178.0
20
-1345.0
30
0.0
10
2166.0
20
-1346.0
30
0.0
10
2162.0
20
-1344.0
30
0.0
10
2162.0
20
-1334.0
30
0.0
10
2163.0
20
-1333.0
30
0.0
10
2172.0
20
-1328.0
30
0.0
10
2175.0
20
-1329.0
30
0.0
10
2182.0
20
-1334.0
30
0.0
10
2182.0
20
-1337.0
30
0.0
10
2183.0
20
-1339.0
30
0.0
6
Solid
370
35
62
0
0
LWPOLYLINE
5
9ef
100
AcDbEntity
100
AcDbPolyline
90
10
70
1
10
2284.0
20
-1300.0
30
0.0
10
2287.0
20
-1300.0
30
0.0
10
2285.0
20
-1304.0
30
0.0
10
2282.0
20
-1304.0
30
0.0
10
2278.0
20
-1302.0
30
0.0
10
2279.0
20
-1300.0
30
0.0
10
2279.0
20
-1298.0
30
0.0
10
2281.0
20
-1298.0
30
0.0
10
2283.0
20
-1298.0
30
0.0
10
2284.0
20
-1300.0
30
0.0
6
Solid
370
35
62
0
0
LWPOLYLINE
5
9f1
100
AcDbEntity
100
AcDbPolyline
90
11
70
1
10
2122.0
20
-932.0
30
0.0
10
2122.0
20
-935.0
30
0.0
10
2121.0
20
-938.0
30
0.0
10
2119.0
20
-938.0
30
0.0
10
2115.0
20
-939.0
30
0.0
10
2110.0
20
-939.0
30
0.0
10
2108.0
20
-939.0
30
0.0
10
2108.0
20
-938.0
30
0.0
10
2107.0
20
-932.0
30
0.0
10
2116.0
20
-929.0
30
0.0
10
2122.0
20
-932.0
30
0.0
6
Solid
370
35
62
0
0
LWPOLYLINE
5
9f3
100
AcDbEntity
100
AcDbPolyline
90
18
70
1
10
1945.0
20
-481.0
30
0.0
10
1964.0
20
-489.0
30
0.0
10
1973.0
20
-479.0
30
0.0
10
1982.0
20
-474.0
30
0.0
10
1982.0
20
-477.0
30
0.0
10
1976.0
20
-492.0
30
0.0
10
1968.0
20
-505.0
30
0.0
10
1958.0
20
-512.0
30
0.0
10
1950.0
20
-520.0
30
0.0
10
1941.0
20
-530.0
30
0.0
10
1933.0
20
-541.0
30
0.0
10
1926.0
20
-545.0
30
0.0
10
1922.0
20
-542.0
30
0.0
10
1924.0
20
-531.0
30
0.0
10
1931.0
20
-510.0
30
0.0
10
1936.0
20
-492.0
30
0.0
10
1941.0
20
-483.0
30
0.0
10
1945.0
20
-481.0
30
0.0
6
Solid
370
35
62
0
0
LWPOLYLINE
5
9f5
100
AcDbEntity
100
AcDbPolyline
90
15
70
1
10
1945.0
20
-2198.0
30
0.0
10
1938.0
20
-2192.0
30
0.0
10
1929.0
20
-2197.0
30
0.0
10
1929.0
20
-2203.0
30
0.0
10
1917.0
20
-2190.0
30
0.0
10
1915.0
20
-2187.0
30
0.0
10
1913.0
20
-2181.0
30
0.0
10
1911.0
20
-2167.0
30
0.0
10
1913.0
20
-2138.0
30
0.0
10
1921.0
20
-2121.0
30
0.0
10
1929.0
20
-2133.0
30
0.0
10
1933.0
20
-2152.0
30
0.0
10
1938.0
20
-2171.0
30
0.0
10
1941.0
20
-2186.0
30
0.0
10
1945.0
20
-2198.0
30
0.0
6
Solid
370
35
62
0
0
LWPOLYLINE
5
9f7
100
AcDbEntity
100
AcDbPolyline
90
13
70
1
10
1751.0
20
-286.0
30
0.0
10
1763.0
20
-288.0
30
0.0
10
1769.0
20
-290.0
30
0.0
10
1768.0
20
-291.0
30
0.0
10
1762.0
20
-302.0
30
0.0
10
1736.0
20
-333.0
30
0.0
10
1705.0
20
-337.0
30
0.0
10
1690.0
20
-343.0
30
0.0
10
1692.0
20
-333.0
30
0.0
10
1702.0
20
-313.0
30
0.0
10
1711.0
20
-299.0
30
0.0
10
1719.0
20
-285.0
30
0.0
10
1751.0
20
-286.0
30
0.0
6
Solid
370
35
62
0
0
LWPOLYLINE
5
9f9
100
AcDbEntity
100
AcDbPolyline
90
18
70
1
10
1682.0
20
-2410.0
30
0.0
10
1665.0
20
-2401.0
30
0.0
10
1656.0
20
-2403.0
30
0.0
10
1629.0
20
-2406.0
30
0.0
10
1613.0
20
-2412.0
30
0.0
10
1606.0
20
-2426.0
30
0.0
10
1621.0
20
-2448.0
30
0.0
10
1615.0
20
-2451.0
30
0.0
10
1567.0
20
-2426.0
30
0.0
10
1517.0
20
-2397.0
30
0.0
10
1481.0
20
-2370.0
30
0.0
10
1494.0
20
-2364.0
30
0.0
10
1538.0
20
-2368.0
30
0.0
10
1580.0
20
-2380.0
30
0.0
10
1610.0
20
-2332.0
30
0.0
10
1678.0
20
-2371.0
30
0.0
10
1683.0
20
-2403.0
30
0.0
10
1682.0
20
-2410.0
30
0.0
6
Solid
370
35
62
0
0
LWPOLYLINE
5
9fb
100
AcDbEntity
100
AcDbPolyline
90
10
70
1
10
1419.0
20
-2476.0
30
0.0
10
1399.0
20
-2454.0
30
0.0
10
1387.0
20
-2443.0
30
0.0
10
1398.0
20
-2325.0
30
0.0
10
1420.0
20
-2346.0
30
0.0
10
1427.0
20
-2383.0
30
0.0
10
1425.0
20
-2420.0
30
0.0
10
1423.0
20
-2456.0
30
0.0
10
1420.0
20
-2470.0
30
0.0
10
1419.0
20
-2476.0
30
0.0
6
Solid
370
35
62
0
0
LWPOLYLINE
5
9fd
100
AcDbEntity
100
AcDbPolyline
90
13
70
1
10
1292.0
20
-224.0
30
0.0
10
1320.0
20
-223.0
30
0.0
10
1341.0
20
-209.0
30
0.0
10
1340.0
20
-216.0
30
0.0
10
1339.0
20
-244.0
30
0.0
10
1328.0
20
-278.0
30
0.0
10
1316.0
20
-296.0
30
0.0
10
1305.0
20
-312.0
30
0.0
10
1295.0
20
-317.0
30
0.0
10
1293.0
20
-293.0
30
0.0
10
1289.0
20
-258.0
30
0.0
10
1292.0
20
-227.0
30
0.0
10
1292.0
20
-224.0
30
0.0
6
Solid
370
35
62
0
0
LWPOLYLINE
5
9ff
100
AcDbEntity
100
AcDbPolyline
90
9
70
1
10
1133.0
20
-201.0
30
0.0
10
1144.0
20
-206.0
30
0.0
10
1173.0
20
-214.0
30
0.0
10
1167.0
20
-225.0
30
0.0
10
1156.0
20
-235.0
30
0.0
10
1120.0
20
-248.0
30
0.0
10
1109.0
20
-245.0
30
0.0
10
1120.0
20
-218.0
30
0.0
10
1133.0
20
-201.0
30
0.0
6
Solid
370
35
62
0
0
LWPOLYLINE
5
a01
100
AcDbEntity
100
AcDbPolyline
90
14
70
1
10
924.0
20
-204.0
30
0.0
10
927.0
20
-204.0
30
0.0
10
946.0
20
-216.0
30
0.0
10
961.0
20
-216.0
30
0.0
10
967.0
20
-217.0
30
0.0
10
963.0
20
-221.0
30
0.0
10
946.0
20
-235.0
30
0.0
10
933.0
20
-248.0
30
0.0
10
919.0
20
-256.0
30
0.0
10
910.0
20
-254.0
30
0.0
10
912.0
20
-242.0
30
0.0
10
918.0
20
-219.0
30
0.0
10
922.0
20
-207.0
30
0.0
10
924.0
20
-204.0
30
0.0
6
Solid
370
35
62
0
0
LWPOLYLINE
5
a03
100
AcDbEntity
100
AcDbPolyline
90
13
70
1
10
872.0
20
-199.0
30
0.0
10
877.0
20
-200.0
30
0.0
10
908.0
20
-202.0
30
0.0
10
911.0
20
-203.0
30
0.0
10
909.0
20
-206.0
30
0.0
10
894.0
20
-230.0
30
0.0
10
880.0
20
-258.0
30
0.0
10
874.0
20
-270.0
30
0.0
10
866.0
20
-254.0
30
0.0
10
866.0
20
-222.0
30
0.0
10
865.0
20
-205.0
30
0.0
10
867.0
20
-201.0
30
0.0
10
872.0
20
-199.0
30
0.0
6
Solid
370
35
62
0
0
LWPOLYLINE
5
a05
100
AcDbEntity
100
AcDbPolyline
90
8
70
1
10
1244.0
20
-2410.0
30
0.0
10
1232.0
20
-2407.0
30
0.0
10
1196.0
20
-2398.0
30
0.0
10
1195.0
20
-2398.0
30
0.0
10
1194.0
20
-2344.0
30
0.0
10
1215.0
20
-2362.0
30
0.0
10
1242.0
20
-2395.0
30
0.0
10
1244.0
20
-2410.0
30
0.0
6
Solid
370
35
62
0
0
LWPOLYLINE
5
a07
100
AcDbEntity
100
AcDbPolyline
90
9
70
1
10
787.0
20
-162.0
30
0.0
10
833.0
20
-186.0
30
0.0
10
851.0
20
-192.0
30
0.0
10
851.0
20
-193.0
30
0.0
10
812.0
20
-239.0
30
0.0
10
800.0
20
-239.0
30
0.0
10
792.0
20
-232.0
30
0.0
10
788.0
20
-218.0
30
0.0
10
787.0
20
-162.0
30
0.0
6
Solid
370
35
62
0
0
LWPOLYLINE
5
a09
100
AcDbEntity
100
AcDbPolyline
90
21
70
1
10
471.0
20
-87.0
30
0.0
10
504.0
20
-115.0
30
0.0
10
527.0
20
-119.0
30
0.0
10
545.0
20
-106.0
30
0.0
10
573.0
20
-97.0
30
0.0
10
584.0
20
-83.0
30
0.0
10
623.0
20
-38.0
30
0.0
10
633.0
20
-31.0
30
0.0
10
656.0
20
-33.0
30
0.0
10
659.0
20
-74.0
30
0.0
10
668.0
20
-113.0
30
0.0
10
678.0
20
-124.0
30
0.0
10
669.0
20
-146.0
30
0.0
10
641.0
20
-189.0
30
0.0
10
603.0
20
-220.0
30
0.0
10
562.0
20
-232.0
30
0.0
10
533.0
20
-221.0
30
0.0
10
486.0
20
-178.0
30
0.0
10
473.0
20
-124.0
30
0.0
10
470.0
20
-88.0
30
0.0
10
471.0
20
-87.0
30
0.0
6
Solid
370
35
62
0
0
LWPOLYLINE
5
a0b
100
AcDbEntity
100
AcDbPolyline
90
14
70
1
10
778.0
20
-2408.0
30
0.0
10
774.0
20
-2405.0
30
0.0
10
764.0
20
-2405.0
30
0.0
10
749.0
20
-2404.0
30
0.0
10
740.0
20
-2407.0
30
0.0
10
740.0
20
-2406.0
30
0.0
10
748.0
20
-2392.0
30
0.0
10
761.0
20
-2374.0
30
0.0
10
770.0
20
-2353.0
30
0.0
10
776.0
20
-2376.0
30
0.0
10
783.0
20
-2389.0
30
0.0
10
781.0
20
-2401.0
30
0.0
10
780.0
20
-2407.0
30
0.0
10
778.0
20
-2408.0
30
0.0
6
Solid
370
35
62
0
0
LWPOLYLINE
5
a0d
100
AcDbEntity
100
AcDbPolyline
90
25
70
1
10
604.0
20
-2398.0
30
0.0
10
500.0
20
-2465.0
30
0.0
10
443.0
20
-2473.0
30
0.0
10
404.0
20
-2494.0
30
0.0
10
392.0
20
-2491.0
30
0.0
10
402.0
20
-2432.0
30
0.0
10
414.0
20
-2421.0
30
0.0
10
423.0
20
-2414.0
30
0.0
10
448.0
20
-2388.0
30
0.0
10
588.0
20
-2270.0
30
0.0
10
610.0
20
-2303.0
30
0.0
10
615.0
20
-2354.0
30
0.0
10
614.0
20
-2374.0
30
0.0
10
638.0
20
-2363.0
30
0.0
10
658.0
20
-2365.0
30
0.0
10
677.0
20
-2385.0
30
0.0
10
696.0
20
-2402.0
30
0.0
10
712.0
20
-2411.0
30
0.0
10
715.0
20
-2417.0
30
0.0
10
714.0
20
-2417.0
30
0.0
10
686.0
20
-2411.0
30
0.0
10
649.0
20
-2409.0
30
0.0
10
646.0
20
-2401.0
30
0.0
10
628.0
20
-2392.0
30
0.0
10
604.0
20
-2398.0
30
0.0
6
Solid
370
35
62
0
0
LWPOLYLINE
5
a0f
100
AcDbEntity
100
AcDbPolyline
90
9
70
1
10
280.0
20
-2175.0
30
0.0
10
270.0
20
-2178.0
30
0.0
10
258.0
20
-2180.0
30
0.0
10
249.0
20
-2181.0
30
0.0
10
231.0
20
-2186.0
30
0.0
10
214.0
20
-2187.0
30
0.0
10
234.0
20
-2179.0
30
0.0
10
280.0
20
-2163.0
30
0.0
10
280.0
20
-2175.0
30
0.0
6
Solid
370
35
62
0
0
LWPOLYLINE
5
a11
100
AcDbEntity
100
AcDbPolyline
90
16
70
1
10
204.0
20
-1479.0
30
0.0
10
208.0
20
-1477.0
30
0.0
10
212.0
20
-1467.0
30
0.0
10
217.0
20
-1457.0
30
0.0
10
222.0
20
-1450.0
30
0.0
10
227.0
20
-1450.0
30
0.0
10
232.0
20
-1453.0
30
0.0
10
239.0
20
-1455.0
30
0.0
10
240.0
20
-1456.0
30
0.0
10
237.0
20
-1462.0
30
0.0
10
230.0
20
-1474.0
30
0.0
10
228.0
20
-1479.0
30
0.0
10
222.0
20
-1482.0
30
0.0
10
212.0
20
-1478.0
30
0.0
10
207.0
20
-1482.0
30
0.0
10
204.0
20
-1479.0
30
0.0
6
Solid
370
35
62
0
0
LWPOLYLINE
5
a13
100
AcDbEntity
100
AcDbPolyline
90
6
70
1
10
255.0
20
-1339.0
30
0.0
10
251.0
20
-1334.0
30
0.0
10
251.0
20
-1332.0
30
0.0
10
252.0
20
-1332.0
30
0.0
10
256.0
20
-1338.0
30
0.0
10
255.0
20
-1339.0
30
0.0
6
Solid
370
35
62
0
0
LWPOLYLINE
5
a15
100
AcDbEntity
100
AcDbPolyline
90
17
70
1
10
276.0
20
-1270.0
30
0.0
10
276.0
20
-1269.0
30
0.0
10
275.0
20
-1269.0
30
0.0
10
276.0
20
-1240.0
30
0.0
10
274.0
20
-1224.0
30
0.0
10
269.0
20
-1193.0
30
0.0
10
272.0
20
-1188.0
30
0.0
10
283.0
20
-1187.0
30
0.0
10
291.0
20
-1188.0
30
0.0
10
294.0
20
-1209.0
30
0.0
10
297.0
20
-1225.0
30
0.0
10
300.0
20
-1240.0
30
0.0
10
299.0
20
-1258.0
30
0.0
10
299.0
20
-1269.0
30
0.0
10
298.0
20
-1270.0
30
0.0
10
280.0
20
-1270.0
30
0.0
10
276.0
20
-1270.0
30
0.0
6
Solid
370
35
62
0
0
LWPOLYLINE
5
a17
100
AcDbEntity
100
AcDbPolyline
90
8
70
1
10
86.0
20
-900.0
30
0.0
10
65.0
20
-873.0
30
0.0
10
55.0
20
-838.0
30
0.0
10
58.0
20
-839.0
30
0.0
10
67.0
20
-847.0
30
0.0
10
79.0
20
-861.0
30
0.0
10
89.0
20
-890.0
30
0.0
10
86.0
20
-900.0
30
0.0
6
Solid
370
35
62
0
0
LWPOLYLINE
5
a19
100
AcDbEntity
100
AcDbPolyline
90
9
70
1
10
350.0
20
-29.0
30
0.0
10
353.0
20
-33.0
30
0.0
10
373.0
20
-60.0
30
0.0
10
369.0
20
-64.0
30
0.0
10
361.0
20
-76.0
30
0.0
10
352.0
20
-88.0
30
0.0
10
334.0
20
-65.0
30
0.0
10
342.0
20
-41.0
30
0.0
10
350.0
20
-29.0
30
0.0
6
Solid
370
35
62
0
0
LWPOLYLINE
5
a1c
100
AcDbEntity
8
zone_0_q2
100
AcDbPolyline
90
12
70
1
10
2278.0
20
-2282.0
30
0.0
10
2244.0
20
-2274.0
30
0.0
10
2187.0
20
-2248.0
30
0.0
10
2123.0
20
-2246.0
30
0.0
10
2112.0
20
-2249.0
30
0.0
10
1966.0
20
-2210.0
30
0.0
10
2016.0
20
-2211.0
30
0.0
10
2046.0
20
-2216.0
30
0.0
10
2111.0
20
-2225.0
30
0.0
10
2199.0
20
-2238.0
30
0.0
10
2250.0
20
-2264.0
30
0.0
10
2278.0
20
-2282.0
30
0.0
6
Solid
370
35
62
2
0
LWPOLYLINE
5
a1f
100
AcDbEntity
8
zone_1_q2
100
AcDbPolyline
90
13
70
1
10
1998.0
20
-465.0
30
0.0
10
2004.0
20
-461.0
30
0.0
10
2038.0
20
-469.0
30
0.0
10
2072.0
20
-467.0
30
0.0
10
2112.0
20
-483.0
30
0.0
10
2117.0
20
-511.0
30
0.0
10
2138.0
20
-527.0
30
0.0
10
2138.0
20
-538.0
30
0.0
10
2129.0
20
-540.0
30
0.0
10
2101.0
20
-527.0
30
0.0
10
2082.0
20
-499.0
30
0.0
10
2016.0
20
-472.0
30
0.0
10
1998.0
20
-465.0
30
0.0
6
Solid
370
35
62
2
0
LWPOLYLINE
5
a22
100
AcDbEntity
8
zone_2_q2
100
AcDbPolyline
90
8
70
1
10
1682.0
20
-369.0
30
0.0
10
1677.0
20
-306.0
30
0.0
10
1680.0
20
-258.0
30
0.0
10
1644.0
20
-270.0
30
0.0
10
1598.0
20
-277.0
30
0.0
10
1580.0
20
-339.0
30
0.0
10
1670.0
20
-370.0
30
0.0
10
1682.0
20
-369.0
30
0.0
6
Solid
370
35
62
2
0
LWPOLYLINE
5
a25
100
AcDbEntity
8
zone_3_q2
100
AcDbPolyline
90
23
70
1
10
2008.0
20
-519.0
30
0.0
10
1989.0
20
-568.0
30
0.0
10
1976.0
20
-605.0
30
0.0
10
1958.0
20
-652.0
30
0.0
10
1893.0
20
-682.0
30
0.0
10
1877.0
20
-635.0
30
0.0
10
1855.0
20
-594.0
30
0.0
10
1841.0
20
-556.0
30
0.0
10
1818.0
20
-518.0
30
0.0
10
1777.0
20
-440.0
30
0.0
10
1727.0
20
-402.0
30
0.0
10
1699.0
20
-373.0
30
0.0
10
1682.0
20
-369.0
30
0.0
10
1728.0
20
-362.0
30
0.0
10
1783.0
20
-331.0
30
0.0
10
1820.0
20
-330.0
30
0.0
10
1851.0
20
-347.0
30
0.0
10
1841.0
20
-393.0
30
0.0
10
1821.0
20
-448.0
30
0.0
10
1869.0
20
-500.0
30
0.0
10
1906.0
20
-515.0
30
0.0
10
1908.0
20
-583.0
30
0.0
10
2008.0
20
-519.0
30
0.0
6
Solid
370
35
62
2
0
LWPOLYLINE
5
a28
100
AcDbEntity
8
zone_4_q1
100
AcDbPolyline
90
6
70
1
10
1781.0
20
-2418.0
30
0.0
10
1772.0
20
-2416.0
30
0.0
10
1773.0
20
-2414.0
30
0.0
10
1774.0
20
-2412.0
30
0.0
10
1782.0
20
-2418.0
30
0.0
10
1781.0
20
-2418.0
30
0.0
6
Solid
370
35
62
40
0
LWPOLYLINE
5
a2b
100
AcDbEntity
8
zone_5_q1
100
AcDbPolyline
90
5
70
1
10
1664.0
20
-2522.0
30
0.0
10
1662.0
20
-2525.0
30
0.0
10
1651.0
20
-2517.0
30
0.0
10
1651.0
20
-2514.0
30
0.0
10
1664.0
20
-2522.0
30
0.0
6
Solid
370
35
62
40
0
LWPOLYLINE
5
a2e
100
AcDbEntity
8
zone_6_q1
100
AcDbPolyline
90
11
70
1
10
1651.0
20
-2517.0
30
0.0
10
1643.0
20
-2569.0
30
0.0
10
1589.0
20
-2565.0
30
0.0
10
1537.0
20
-2528.0
30
0.0
10
1484.0
20
-2483.0
30
0.0
10
1452.0
20
-2432.0
30
0.0
10
1459.0
20
-2374.0
30
0.0
10
1533.0
20
-2412.0
30
0.0
10
1596.0
20
-2472.0
30
0.0
10
1641.0
20
-2509.0
30
0.0
10
1651.0
20
-2517.0
30
0.0
6
Solid
370
35
62
40
0
LWPOLYLINE
5
a31
100
AcDbEntity
8
zone_7_q2
100
AcDbPolyline
90
19
70
1
10
1825.0
20
-2337.0
30
0.0
10
1797.0
20
-2373.0
30
0.0
10
1614.0
20
-2308.0
30
0.0
10
1603.0
20
-2308.0
30
0.0
10
1594.0
20
-2310.0
30
0.0
10
1580.0
20
-2326.0
30
0.0
10
1570.0
20
-2354.0
30
0.0
10
1571.0
20
-2367.0
30
0.0
10
1557.0
20
-2374.0
30
0.0
10
1537.0
20
-2381.0
30
0.0
10
1510.0
20
-2386.0
30
0.0
10
1461.0
20
-2388.0
30
0.0
10
1435.0
20
-2381.0
30
0.0
10
1430.0
20
-2341.0
30
0.0
10
1456.0
20
-2315.0
30
0.0
10
1578.0
20
-2268.0
30
0.0
10
1857.0
20
-2205.0
30
0.0
10
1900.0
20
-2267.0
30
0.0
10
1825.0
20
-2337.0
30
0.0
6
Solid
370
35
62
2
0
LWPOLYLINE
5
a34
100
AcDbEntity
8
zone_8_q2
100
AcDbPolyline
90
5
70
1
10
1572.0
20
-315.0
30
0.0
10
1550.0
20
-302.0
30
0.0
10
1552.0
20
-299.0
30
0.0
10
1574.0
20
-312.0
30
0.0
10
1572.0
20
-315.0
30
0.0
6
Solid
370
35
62
2
0
LWPOLYLINE
5
a37
100
AcDbEntity
8
zone_9_q2
100
AcDbPolyline
90
28
70
1
10
1569.0
20
-325.0
30
0.0
10
1529.0
20
-386.0
30
0.0
10
1484.0
20
-394.0
30
0.0
10
1353.0
20
-357.0
30
0.0
10
1288.0
20
-345.0
30
0.0
10
1213.0
20
-337.0
30
0.0
10
1133.0
20
-312.0
30
0.0
10
1071.0
20
-292.0
30
0.0
10
1020.0
20
-282.0
30
0.0
10
973.0
20
-283.0
30
0.0
10
922.0
20
-284.0
30
0.0
10
856.0
20
-276.0
30
0.0
10
851.0
20
-252.0
30
0.0
10
877.0
20
-270.0
30
0.0
10
905.0
20
-261.0
30
0.0
10
926.0
20
-267.0
30
0.0
10
956.0
20
-262.0
30
0.0
10
984.0
20
-256.0
30
0.0
10
1039.0
20
-248.0
30
0.0
10
1074.0
20
-246.0
30
0.0
10
1114.0
20
-257.0
30
0.0
10
1270.0
20
-304.0
30
0.0
10
1349.0
20
-308.0
30
0.0
10
1392.0
20
-293.0
30
0.0
10
1504.0
20
-297.0
30
0.0
10
1542.0
20
-307.0
30
0.0
10
1558.0
20
-310.0
30
0.0
10
1569.0
20
-325.0
30
0.0
6
Solid
370
35
62
2
0
LWPOLYLINE
5
a3a
100
AcDbEntity
8
zone_10_q1
100
AcDbPolyline
90
7
70
1
10
929.0
20
-2336.0
30
0.0
10
908.0
20
-2308.0
30
0.0
10
923.0
20
-2317.0
30
0.0
10
947.0
20
-2337.0
30
0.0
10
962.0
20
-2352.0
30
0.0
10
969.0
20
-2364.0
30
0.0
10
929.0
20
-2336.0
30
0.0
6
Solid
370
35
62
40
0
LWPOLYLINE
5
a3d
100
AcDbEntity
8
zone_11_q2
100
AcDbPolyline
90
21
70
1
10
1404.0
20
-2305.0
30
0.0
10
1404.0
20
-2301.0
30
0.0
10
1387.0
20
-2301.0
30
0.0
10
1357.0
20
-2299.0
30
0.0
10
1338.0
20
-2304.0
30
0.0
10
1033.0
20
-2310.0
30
0.0
10
950.0
20
-2285.0
30
0.0
10
902.0
20
-2276.0
30
0.0
10
896.0
20
-2286.0
30
0.0
10
1007.0
20
-2331.0
30
0.0
10
1051.0
20
-2348.0
30
0.0
10
1080.0
20
-2367.0
30
0.0
10
1113.0
20
-2375.0
30
0.0
10
1147.0
20
-2367.0
30
0.0
10
1172.0
20
-2351.0
30
0.0
10
1202.0
20
-2325.0
30
0.0
10
1235.0
20
-2333.0
30
0.0
10
1264.0
20
-2355.0
30
0.0
10
1296.0
20
-2355.0
30
0.0
10
1320.0
20
-2314.0
30
0.0
10
1404.0
20
-2305.0
30
0.0
6
Solid
370
35
62
2
0
LWPOLYLINE
5
a40
100
AcDbEntity
8
zone_12_q2
100
AcDbPolyline
90
18
70
1
10
661.0
20
-2272.0
30
0.0
10
644.0
20
-2254.0
30
0.0
10
619.0
20
-2241.0
30
0.0
10
581.0
20
-2232.0
30
0.0
10
538.0
20
-2244.0
30
0.0
10
478.0
20
-2308.0
30
0.0
10
435.0
20
-2356.0
30
0.0
10
401.0
20
-2369.0
30
0.0
10
370.0
20
-2359.0
30
0.0
10
323.0
20
-2360.0
30
0.0
10
238.0
20
-2370.0
30
0.0
10
209.0
20
-2331.0
30
0.0
10
244.0
20
-2277.0
30
0.0
10
674.0
20
-2109.0
30
0.0
10
701.0
20
-2133.0
30
0.0
10
676.0
20
-2228.0
30
0.0
10
673.0
20
-2254.0
30
0.0
10
661.0
20
-2272.0
30
0.0
6
Solid
370
35
62
2
0
LWPOLYLINE
5
a43
100
AcDbEntity
8
zone_13_q3
100
AcDbPolyline
90
11
70
1
10
479.0
20
-1281.0
30
0.0
10
482.0
20
-1284.0
30
0.0
10
495.0
20
-1287.0
30
0.0
10
494.0
20
-1291.0
30
0.0
10
480.0
20
-1284.0
30
0.0
10
476.0
20
-1282.0
30
0.0
10
477.0
20
-1285.0
30
0.0
10
450.0
20
-1272.0
30
0.0
10
442.0
20
-1268.0
30
0.0
10
460.0
20
-1273.0
30
0.0
10
479.0
20
-1281.0
30
0.0
6
Solid
370
35
62
3
0
LWPOLYLINE
5
a46
100
AcDbEntity
8
zone_14_q2
100
AcDbPolyline
90
26
70
1
10
699.0
20
-181.0
30
0.0
10
699.0
20
-254.0
30
0.0
10
701.0
20
-297.0
30
0.0
10
694.0
20
-359.0
30
0.0
10
663.0
20
-367.0
30
0.0
10
628.0
20
-352.0
30
0.0
10
573.0
20
-313.0
30
0.0
10
525.0
20
-254.0
30
0.0
10
467.0
20
-210.0
30
0.0
10
402.0
20
-180.0
30
0.0
10
333.0
20
-152.0
30
0.0
10
265.0
20
-120.0
30
0.0
10
234.0
20
-101.0
30
0.0
10
235.0
20
-72.0
30
0.0
10
269.0
20
-52.0
30
0.0
10
309.0
20
-65.0
30
0.0
10
341.0
20
-100.0
30
0.0
10
386.0
20
-119.0
30
0.0
10
425.0
20
-118.0
30
0.0
10
469.0
20
-116.0
30
0.0
10
501.0
20
-188.0
30
0.0
10
575.0
20
-242.0
30
0.0
10
619.0
20
-221.0
30
0.0
10
666.0
20
-160.0
30
0.0
10
671.0
20
-135.0
30
0.0
10
699.0
20
-181.0
30
0.0
6
Solid
370
35
62
2
0
ENDSEC
0
SECTION
2
OBJECTS
0
DICTIONARY
5
9e1
330
0
100
AcDbDictionary
281
1
3
ACAD_GROUP
350
9e2
0
DICTIONARY
5
9e2
330
9e1
100
AcDbDictionary
281
1
0
ENDSEC
0
EOF
