999

0
SECTION
2
HEADER
9
$ACADVER
1
AC1021
9
$HANDSEED
5
259
0
ENDSEC
0
SECTION
2
CLASSES
0
ENDSEC
0
SECTION
2
TABLES
0
TABLE
2
VPORT
5
241
100
AcDbSymbolTable
70
1
0
VPORT
5
240
100
AcDbSymbolTableRecord
100
AcDbViewportTableRecord
2
*ACTIVE
10
0
20
0
11
1
21
1
12
500.0
22
500.0
40
1000.0
70
0
0
ENDTAB
0
TABLE
2
LTYPE
5
242
100
AcDbSymbolTable
70
3
0
LTYPE
5
24a
100
AcDbSymbolTableRecord
100
AcDbLinetypeTableRecord
2
Solid
70
0
72
65
73
0
3

0
LTYPE
5
24b
100
AcDbSymbolTableRecord
100
AcDbLinetypeTableRecord
2
ByBlock
70
0
72
65
73
0
3

0
LTYPE
5
24c
100
AcDbSymbolTableRecord
100
AcDbLinetypeTableRecord
2
ByLayer
70
0
72
65
73
0
3

0
ENDTAB
0
TABLE
2
LAYER
5
243
100
AcDbSymbolTable
70
1
0
LAYER
5
24d
100
AcDbSymbolTableRecord
100
AcDbLayerTableRecord
2
0
70
0
390
0
0
ENDTAB
0
TABLE
2
STYLE
5
244
100
AcDbSymbolTable
70
0
0
ENDTAB
0
TABLE
2
VIEW
5
245
100
AcDbSymbolTable
70
0
0
ENDTAB
0
TABLE
2
UCS
5
246
100
AcDbSymbolTable
70
0
0
ENDTAB
0
TABLE
2
APPID
5
247
100
AcDbSymbolTable
70
1
0
APPID
5
24e
100
AcDbSymbolTableRecord
100
AcDbRegAppTableRecord
2
ACAD
70
0
0
ENDTAB
0
TABLE
2
DIMSTYLE
5
248
100
AcDbSymbolTable
70
0
100
AcDbDimStyleTable
71
1
0
ENDTAB
0
TABLE
2
BLOCK_RECORD
5
249
100
AcDbSymbolTable
70
2
0
BLOCK_RECORD
5
24f
100
AcDbSymbolTableRecord
100
AcDbBlockTableRecord
2
*Model_Space
70
0
280
1
281
0
0
BLOCK_RECORD
5
250
100
AcDbSymbolTableRecord
100
AcDbBlockTableRecord
2
*Paper_Space
70
0
280
1
281
0
0
ENDTAB
0
ENDSEC
0
SECTION
2
BLOCKS
0
BLOCK
5
251
100
AcDbEntity
100
AcDbBlockBegin
2
*Model_Space
70
0
10
0
20
0
30
0
3
*Model_Space
1

0
ENDBLK
5
252
100
AcDbEntity
100
AcDbBlockEnd
0
BLOCK
5
253
100
AcDbEntity
100
AcDbBlockBegin
2
*Paper_Space
70
0
10
0
20
0
30
0
3
*Paper_Space
1

0
ENDBLK
5
254
100
AcDbEntity
100
AcDbBlockEnd
0
ENDSEC
0
SECTION
2
ENTITIES
0
LWPOLYLINE
5
257
100
AcDbEntity
100
AcDbPolyline
90
5
70
1
10
0.0
20
0.0
30
0.0
10
8.0
20
0.0
30
0.0
10
8.0
20
-8.0
30
0.0
10
0.0
20
-8.0
30
0.0
10
0.0
20
0.0
30
0.0
6
Solid
370
35
62
0
0
ENDSEC
0
SECTION
2
OBJECTS
0
DICTIONARY
5
255
330
0
100
AcDbDictionary
281
1
3
ACAD_GROUP
350
256
0
DICTIONARY
5
256
330
255
100
AcDbDictionary
281
1
0
ENDSEC
0
EOF
