999

0
SECTION
2
HEADER
9
$ACADVER
1
AC1021
9
$HANDSEED
5
1f97
0
ENDSEC
0
SECTION
2
CLASSES
0
ENDSEC
0
SECTION
2
TABLES
0
TABLE
2
VPORT
5
1f79
100
AcDbSymbolTable
70
1
0
VPORT
5
1f78
100
AcDbSymbolTableRecord
100
AcDbViewportTableRecord
2
*ACTIVE
10
0
20
0
11
1
21
1
12
500.0
22
500.0
40
1000.0
70
0
0
ENDTAB
0
TABLE
2
LTYPE
5
1f7a
100
AcDbSymbolTable
70
3
0
LTYPE
5
1f82
100
AcDbSymbolTableRecord
100
AcDbLinetypeTableRecord
2
Solid
70
0
72
65
73
0
3

0
LTYPE
5
1f83
100
AcDbSymbolTableRecord
100
AcDbLinetypeTableRecord
2
ByBlock
70
0
72
65
73
0
3

0
LTYPE
5
1f84
100
AcDbSymbolTableRecord
100
AcDbLinetypeTableRecord
2
ByLayer
70
0
72
65
73
0
3

0
ENDTAB
0
TABLE
2
LAYER
5
1f7b
100
AcDbSymbolTable
70
3
0
LAYER
5
1f85
100
AcDbSymbolTableRecord
100
AcDbLayerTableRecord
2
0
70
0
390
0
0
LAYER
5
1f91
100
AcDbSymbolTableRecord
100
AcDbLayerTableRecord
2
zone_0_q2
70
0
390
0
0
LAYER
5
1f94
100
AcDbSymbolTableRecord
100
AcDbLayerTableRecord
2
zone_1_q1
70
0
390
0
0
ENDTAB
0
TABLE
2
STYLE
5
1f7c
100
AcDbSymbolTable
70
0
0
ENDTAB
0
TABLE
2
VIEW
5
1f7d
100
AcDbSymbolTable
70
0
0
ENDTAB
0
TABLE
2
UCS
5
1f7e
100
AcDbSymbolTable
70
0
0
ENDTAB
0
TABLE
2
APPID
5
1f7f
100
AcDbSymbolTable
70
1
0
APPID
5
1f86
100
AcDbSymbolTableRecord
100
AcDbRegAppTableRecord
2
ACAD
70
0
0
ENDTAB
0
TABLE
2
DIMSTYLE
5
1f80
100
AcDbSymbolTable
70
0
100
AcDbDimStyleTable
71
1
0
ENDTAB
0
TABLE
2
BLOCK_RECORD
5
1f81
100
AcDbSymbolTable
70
2
0
BLOCK_RECORD
5
1f87
100
AcDbSymbolTableRecord
100
AcDbBlockTableRecord
2
*Model_Space
70
0
280
1
281
0
0
BLOCK_RECORD
5
1f88
100
AcDbSymbolTableRecord
100
AcDbBlockTableRecord
2
*Paper_Space
70
0
280
1
281
0
0
ENDTAB
0
ENDSEC
0
SECTION
2
BLOCKS
0
BLOCK
5
1f89
100
AcDbEntity
100
AcDbBlockBegin
2
*Model_Space
70
0
10
0
20
0
30
0
3
*Model_Space
1

0
ENDBLK
5
1f8a
100
AcDbEntity
100
AcDbBlockEnd
0
BLOCK
5
1f8b
100
AcDbEntity
100
AcDbBlockBegin
2
*Paper_Space
70
0
10
0
20
0
30
0
3
*Paper_Space
1

0
ENDBLK
5
1f8c
100
AcDbEntity
100
AcDbBlockEnd
0
ENDSEC
0
SECTION
2
ENTITIES
0
LWPOLYLINE
5
1f8f
100
AcDbEntity
100
AcDbPolyline
90
23
70
1
10
186.0
20
0.0
30
0.0
10
558.0
20
0.0
30
0.0
10
744.0
20
-186.0
30
0.0
10
1117.0
20
-186.0
30
0.0
10
1303.0
20
0.0
30
0.0
10
1675.0
20
0.0
30
0.0
10
1861.0
20
-186.0
30
0.0
10
1861.0
20
-558.0
30
0.0
10
2047.0
20
-744.0
30
0.0
10
1861.0
20
-930.0
30
0.0
10
1861.0
20
-1303.0
30
0.0
10
1675.0
20
-1489.0
30
0.0
10
1303.0
20
-1489.0
30
0.0
10
1117.0
20
-1303.0
30
0.0
10
744.0
20
-1303.0
30
0.0
10
558.0
20
-1489.0
30
0.0
10
186.0
20
-1489.0
30
0.0
10
0.0
20
-1303.0
30
0.0
10
0.0
20
-930.0
30
0.0
10
186.0
20
-744.0
30
0.0
10
0.0
20
-558.0
30
0.0
10
0.0
20
-186.0
30
0.0
10
186.0
20
0.0
30
0.0
6
Solid
370
35
62
0
0
LWPOLYLINE
5
1f92
100
AcDbEntity
8
zone_0_q2
100
AcDbPolyline
90
5
70
1
10
744.0
20
-558.0
30
0.0
10
1303.0
20
-558.0
30
0.0
10
1303.0
20
-930.0
30
0.0
10
744.0
20
-930.0
30
0.0
10
744.0
20
-558.0
30
0.0
6
Solid
370
35
62
2
0
LWPOLYLINE
5
1f95
100
AcDbEntity
8
zone_1_q1
100
AcDbPolyline
90
6
70
1
10
558.0
20
-372.0
30
0.0
10
1117.0
20
-744.0
30
0.0
10
744.0
20
-1117.0
30
0.0
10
558.0
20
-1117.0
30
0.0
10
558.0
20
-930.0
30
0.0
10
558.0
20
-372.0
30
0.0
6
Solid
370
35
62
40
0
ENDSEC
0
SECTION
2
OBJECTS
0
DICTIONARY
5
1f8d
330
0
100
AcDbDictionary
281
1
3
ACAD_GROUP
350
1f8e
0
DICTIONARY
5
1f8e
330
1f8d
100
AcDbDictionary
281
1
0
ENDSEC
0
EOF
