999

0
SECTION
2
HEADER
9
$ACADVER
1
AC1021
9
$HANDSEED
5
22c4
0
ENDSEC
0
SECTION
2
CLASSES
0
ENDSEC
0
SECTION
2
TABLES
0
TABLE
2
VPORT
5
22ac
100
AcDbSymbolTable
70
1
0
VPORT
5
22ab
100
AcDbSymbolTableRecord
100
AcDbViewportTableRecord
2
*ACTIVE
10
0
20
0
11
1
21
1
12
500.0
22
500.0
40
1000.0
70
0
0
ENDTAB
0
TABLE
2
LTYPE
5
22ad
100
AcDbSymbolTable
70
3
0
LTYPE
5
22b5
100
AcDbSymbolTableRecord
100
AcDbLinetypeTableRecord
2
Solid
70
0
72
65
73
0
3

0
LTYPE
5
22b6
100
AcDbSymbolTableRecord
100
AcDbLinetypeTableRecord
2
ByBlock
70
0
72
65
73
0
3

0
LTYPE
5
22b7
100
AcDbSymbolTableRecord
100
AcDbLinetypeTableRecord
2
ByLayer
70
0
72
65
73
0
3

0
ENDTAB
0
TABLE
2
LAYER
5
22ae
100
AcDbSymbolTable
70
1
0
LAYER
5
22b8
100
AcDbSymbolTableRecord
100
AcDbLayerTableRecord
2
0
70
0
390
0
0
ENDTAB
0
TABLE
2
STYLE
5
22af
100
AcDbSymbolTable
70
0
0
ENDTAB
0
TABLE
2
VIEW
5
22b0
100
AcDbSymbolTable
70
0
0
ENDTAB
0
TABLE
2
UCS
5
22b1
100
AcDbSymbolTable
70
0
0
ENDTAB
0
TABLE
2
APPID
5
22b2
100
AcDbSymbolTable
70
1
0
APPID
5
22b9
100
AcDbSymbolTableRecord
100
AcDbRegAppTableRecord
2
ACAD
70
0
0
ENDTAB
0
TABLE
2
DIMSTYLE
5
22b3
100
AcDbSymbolTable
70
0
100
AcDbDimStyleTable
71
1
0
ENDTAB
0
TABLE
2
BLOCK_RECORD
5
22b4
100
AcDbSymbolTable
70
2
0
BLOCK_RECORD
5
22ba
100
AcDbSymbolTableRecord
100
AcDbBlockTableRecord
2
*Model_Space
70
0
280
1
281
0
0
BLOCK_RECORD
5
22bb
100
AcDbSymbolTableRecord
100
AcDbBlockTableRecord
2
*Paper_Space
70
0
280
1
281
0
0
ENDTAB
0
ENDSEC
0
SECTION
2
BLOCKS
0
BLOCK
5
22bc
100
AcDbEntity
100
AcDbBlockBegin
2
*Model_Space
70
0
10
0
20
0
30
0
3
*Model_Space
1

0
ENDBLK
5
22bd
100
AcDbEntity
100
AcDbBlockEnd
0
BLOCK
5
22be
100
AcDbEntity
100
AcDbBlockBegin
2
*Paper_Space
70
0
10
0
20
0
30
0
3
*Paper_Space
1

0
ENDBLK
5
22bf
100
AcDbEntity
100
AcDbBlockEnd
0
ENDSEC
0
SECTION
2
ENTITIES
0
LWPOLYLINE
5
22c2
100
AcDbEntity
100
AcDbPolyline
90
115
70
1
10
2976.0
20
-342.0
30
0.0
10
3045.0
20
-342.0
30
0.0
10
3154.0
20
-341.0
30
0.0
10
3296.0
20
-337.0
30
0.0
10
3467.0
20
-329.0
30
0.0
10
3661.0
20
-316.0
30
0.0
10
3873.0
20
-297.0
30
0.0
10
3947.0
20
-289.0
30
0.0
10
4022.0
20
-281.0
30
0.0
10
4098.0
20
-272.0
30
0.0
10
4175.0
20
-262.0
30
0.0
10
4252.0
20
-251.0
30
0.0
10
4330.0
20
-241.0
30
0.0
10
4409.0
20
-230.0
30
0.0
10
4707.0
20
-185.0
30
0.0
10
4994.0
20
-140.0
30
0.0
10
5257.0
20
-97.0
30
0.0
10
5483.0
20
-59.0
30
0.0
10
5661.0
20
-28.0
30
0.0
10
5776.0
20
-7.0
30
0.0
10
5817.0
20
0.0
30
0.0
10
5851.0
20
-101.0
30
0.0
10
5856.0
20
-112.0
30
0.0
10
5867.0
20
-143.0
30
0.0
10
5882.0
20
-188.0
30
0.0
10
5895.0
20
-242.0
30
0.0
10
5903.0
20
-301.0
30
0.0
10
5902.0
20
-358.0
30
0.0
10
5888.0
20
-410.0
30
0.0
10
5863.0
20
-446.0
30
0.0
10
5828.0
20
-475.0
30
0.0
10
5787.0
20
-499.0
30
0.0
10
5741.0
20
-517.0
30
0.0
10
5693.0
20
-531.0
30
0.0
10
5646.0
20
-541.0
30
0.0
10
5603.0
20
-550.0
30
0.0
10
5563.0
20
-556.0
30
0.0
10
5528.0
20
-562.0
30
0.0
10
5495.0
20
-567.0
30
0.0
10
5461.0
20
-572.0
30
0.0
10
5426.0
20
-577.0
30
0.0
10
5386.0
20
-583.0
30
0.0
10
5339.0
20
-590.0
30
0.0
10
5201.0
20
-613.0
30
0.0
10
5024.0
20
-642.0
30
0.0
10
4816.0
20
-675.0
30
0.0
10
4585.0
20
-710.0
30
0.0
10
4339.0
20
-745.0
30
0.0
10
4086.0
20
-776.0
30
0.0
10
3834.0
20
-801.0
30
0.0
10
3639.0
20
-816.0
30
0.0
10
3456.0
20
-826.0
30
0.0
10
3292.0
20
-833.0
30
0.0
10
3153.0
20
-837.0
30
0.0
10
3045.0
20
-839.0
30
0.0
10
2976.0
20
-839.0
30
0.0
10
2952.0
20
-839.0
30
0.0
10
2927.0
20
-839.0
30
0.0
10
2858.0
20
-839.0
30
0.0
10
2751.0
20
-837.0
30
0.0
10
2612.0
20
-833.0
30
0.0
10
2447.0
20
-826.0
30
0.0
10
2265.0
20
-816.0
30
0.0
10
2069.0
20
-801.0
30
0.0
10
1817.0
20
-776.0
30
0.0
10
1565.0
20
-745.0
30
0.0
10
1319.0
20
-710.0
30
0.0
10
1088.0
20
-675.0
30
0.0
10
880.0
20
-642.0
30
0.0
10
703.0
20
-613.0
30
0.0
10
565.0
20
-590.0
30
0.0
10
518.0
20
-583.0
30
0.0
10
477.0
20
-577.0
30
0.0
10
442.0
20
-572.0
30
0.0
10
409.0
20
-567.0
30
0.0
10
376.0
20
-562.0
30
0.0
10
340.0
20
-556.0
30
0.0
10
301.0
20
-550.0
30
0.0
10
257.0
20
-541.0
30
0.0
10
210.0
20
-531.0
30
0.0
10
162.0
20
-517.0
30
0.0
10
116.0
20
-499.0
30
0.0
10
75.0
20
-475.0
30
0.0
10
40.0
20
-446.0
30
0.0
10
16.0
20
-410.0
30
0.0
10
1.0
20
-358.0
30
0.0
10
0.0
20
-301.0
30
0.0
10
8.0
20
-242.0
30
0.0
10
21.0
20
-188.0
30
0.0
10
36.0
20
-143.0
30
0.0
10
48.0
20
-112.0
30
0.0
10
52.0
20
-101.0
30
0.0
10
86.0
20
0.0
30
0.0
10
127.0
20
-7.0
30
0.0
10
243.0
20
-28.0
30
0.0
10
420.0
20
-59.0
30
0.0
10
646.0
20
-97.0
30
0.0
10
909.0
20
-140.0
30
0.0
10
1196.0
20
-185.0
30
0.0
10
1495.0
20
-230.0
30
0.0
10
1573.0
20
-241.0
30
0.0
10
1651.0
20
-251.0
30
0.0
10
1728.0
20
-262.0
30
0.0
10
1805.0
20
-272.0
30
0.0
10
1882.0
20
-281.0
30
0.0
10
1957.0
20
-289.0
30
0.0
10
2031.0
20
-297.0
30
0.0
10
2242.0
20
-316.0
30
0.0
10
2436.0
20
-329.0
30
0.0
10
2607.0
20
-337.0
30
0.0
10
2750.0
20
-341.0
30
0.0
10
2858.0
20
-342.0
30
0.0
10
2927.0
20
-342.0
30
0.0
10
2952.0
20
-342.0
30
0.0
10
2976.0
20
-342.0
30
0.0
6
Solid
370
35
62
2
0
ENDSEC
0
SECTION
2
OBJECTS
0
DICTIONARY
5
22c0
330
0
100
AcDbDictionary
281
1
3
ACAD_GROUP
350
22c1
0
DICTIONARY
5
22c1
330
22c0
100
AcDbDictionary
281
1
0
ENDSEC
0
EOF
