999

0
SECTION
2
HEADER
9
$ACADVER
1
AC1021
9
$HANDSEED
5
23be
0
ENDSEC
0
SECTION
2
CLASSES
0
ENDSEC
0
SECTION
2
TABLES
0
TABLE
2
VPORT
5
23a6
100
AcDbSymbolTable
70
1
0
VPORT
5
23a5
100
AcDbSymbolTableRecord
100
AcDbViewportTableRecord
2
*ACTIVE
10
0
20
0
11
1
21
1
12
500.0
22
500.0
40
1000.0
70
0
0
ENDTAB
0
TABLE
2
LTYPE
5
23a7
100
AcDbSymbolTable
70
3
0
LTYPE
5
23af
100
AcDbSymbolTableRecord
100
AcDbLinetypeTableRecord
2
Solid
70
0
72
65
73
0
3

0
LTYPE
5
23b0
100
AcDbSymbolTableRecord
100
AcDbLinetypeTableRecord
2
ByBlock
70
0
72
65
73
0
3

0
LTYPE
5
23b1
100
AcDbSymbolTableRecord
100
AcDbLinetypeTableRecord
2
ByLayer
70
0
72
65
73
0
3

0
ENDTAB
0
TABLE
2
LAYER
5
23a8
100
AcDbSymbolTable
70
1
0
LAYER
5
23b2
100
AcDbSymbolTableRecord
100
AcDbLayerTableRecord
2
0
70
0
390
0
0
ENDTAB
0
TABLE
2
STYLE
5
23a9
100
AcDbSymbolTable
70
0
0
ENDTAB
0
TABLE
2
VIEW
5
23aa
100
AcDbSymbolTable
70
0
0
ENDTAB
0
TABLE
2
UCS
5
23ab
100
AcDbSymbolTable
70
0
0
ENDTAB
0
TABLE
2
APPID
5
23ac
100
AcDbSymbolTable
70
1
0
APPID
5
23b3
100
AcDbSymbolTableRecord
100
AcDbRegAppTableRecord
2
ACAD
70
0
0
ENDTAB
0
TABLE
2
DIMSTYLE
5
23ad
100
AcDbSymbolTable
70
0
100
AcDbDimStyleTable
71
1
0
ENDTAB
0
TABLE
2
BLOCK_RECORD
5
23ae
100
AcDbSymbolTable
70
2
0
BLOCK_RECORD
5
23b4
100
AcDbSymbolTableRecord
100
AcDbBlockTableRecord
2
*Model_Space
70
0
280
1
281
0
0
BLOCK_RECORD
5
23b5
100
AcDbSymbolTableRecord
100
AcDbBlockTableRecord
2
*Paper_Space
70
0
280
1
281
0
0
ENDTAB
0
ENDSEC
0
SECTION
2
BLOCKS
0
BLOCK
5
23b6
100
AcDbEntity
100
AcDbBlockBegin
2
*Model_Space
70
0
10
0
20
0
30
0
3
*Model_Space
1

0
ENDBLK
5
23b7
100
AcDbEntity
100
AcDbBlockEnd
0
BLOCK
5
23b8
100
AcDbEntity
100
AcDbBlockBegin
2
*Paper_Space
70
0
10
0
20
0
30
0
3
*Paper_Space
1

0
ENDBLK
5
23b9
100
AcDbEntity
100
AcDbBlockEnd
0
ENDSEC
0
SECTION
2
ENTITIES
0
LWPOLYLINE
5
23bc
100
AcDbEntity
100
AcDbPolyline
90
90
70
1
10
1088.0
20
-2977.0
30
0.0
10
1070.0
20
-2927.0
30
0.0
10
1042.0
20
-2851.0
30
0.0
10
1006.0
20
-2758.0
30
0.0
10
963.0
20
-2653.0
30
0.0
10
916.0
20
-2546.0
30
0.0
10
866.0
20
-2442.0
30
0.0
10
826.0
20
-2367.0
30
0.0
10
787.0
20
-2300.0
30
0.0
10
751.0
20
-2243.0
30
0.0
10
719.0
20
-2196.0
30
0.0
10
695.0
20
-2161.0
30
0.0
10
679.0
20
-2139.0
30
0.0
10
673.0
20
-2131.0
30
0.0
10
664.0
20
-2115.0
30
0.0
10
640.0
20
-2070.0
30
0.0
10
603.0
20
-2002.0
30
0.0
10
557.0
20
-1915.0
30
0.0
10
505.0
20
-1814.0
30
0.0
10
450.0
20
-1704.0
30
0.0
10
396.0
20
-1591.0
30
0.0
10
324.0
20
-1432.0
30
0.0
10
260.0
20
-1276.0
30
0.0
10
202.0
20
-1121.0
30
0.0
10
152.0
20
-967.0
30
0.0
10
110.0
20
-813.0
30
0.0
10
75.0
20
-659.0
30
0.0
10
47.0
20
-505.0
30
0.0
10
33.0
20
-400.0
30
0.0
10
21.0
20
-300.0
30
0.0
10
13.0
20
-208.0
30
0.0
10
7.0
20
-129.0
30
0.0
10
3.0
20
-66.0
30
0.0
10
1.0
20
-26.0
30
0.0
10
0.0
20
-11.0
30
0.0
10
4482.0
20
0.0
30
0.0
10
5285.0
20
-1.0
30
0.0
10
5285.0
20
-7.0
30
0.0
10
5286.0
20
-22.0
30
0.0
10
5286.0
20
-46.0
30
0.0
10
5287.0
20
-77.0
30
0.0
10
5287.0
20
-114.0
30
0.0
10
5288.0
20
-156.0
30
0.0
10
5289.0
20
-201.0
30
0.0
10
5290.0
20
-260.0
30
0.0
10
5290.0
20
-318.0
30
0.0
10
5291.0
20
-374.0
30
0.0
10
5292.0
20
-422.0
30
0.0
10
5292.0
20
-461.0
30
0.0
10
5292.0
20
-487.0
30
0.0
10
5293.0
20
-496.0
30
0.0
10
5299.0
20
-808.0
30
0.0
10
5318.0
20
-1195.0
30
0.0
10
5328.0
20
-1496.0
30
0.0
10
5328.0
20
-1506.0
30
0.0
10
5329.0
20
-1534.0
30
0.0
10
5331.0
20
-1577.0
30
0.0
10
5334.0
20
-1631.0
30
0.0
10
5337.0
20
-1692.0
30
0.0
10
5340.0
20
-1758.0
30
0.0
10
5344.0
20
-1825.0
30
0.0
10
5348.0
20
-1882.0
30
0.0
10
5353.0
20
-1936.0
30
0.0
10
5357.0
20
-1984.0
30
0.0
10
5360.0
20
-2025.0
30
0.0
10
5363.0
20
-2057.0
30
0.0
10
5365.0
20
-2077.0
30
0.0
10
5366.0
20
-2084.0
30
0.0
10
5298.0
20
-2095.0
30
0.0
10
5108.0
20
-2128.0
30
0.0
10
4817.0
20
-2179.0
30
0.0
10
4448.0
20
-2246.0
30
0.0
10
4022.0
20
-2326.0
30
0.0
10
3560.0
20
-2415.0
30
0.0
10
3084.0
20
-2512.0
30
0.0
10
2810.0
20
-2571.0
30
0.0
10
2543.0
20
-2629.0
30
0.0
10
2287.0
20
-2687.0
30
0.0
10
2048.0
20
-2742.0
30
0.0
10
1830.0
20
-2794.0
30
0.0
10
1637.0
20
-2842.0
30
0.0
10
1474.0
20
-2884.0
30
0.0
10
1361.0
20
-2914.0
30
0.0
10
1270.0
20
-2940.0
30
0.0
10
1202.0
20
-2960.0
30
0.0
10
1152.0
20
-2976.0
30
0.0
10
1119.0
20
-2987.0
30
0.0
10
1100.0
20
-2994.0
30
0.0
10
1095.0
20
-2996.0
30
0.0
10
1088.0
20
-2977.0
30
0.0
6
Solid
370
35
62
0
0
ENDSEC
0
SECTION
2
OBJECTS
0
DICTIONARY
5
23ba
330
0
100
AcDbDictionary
281
1
3
ACAD_GROUP
350
23bb
0
DICTIONARY
5
23bb
330
23ba
100
AcDbDictionary
281
1
0
ENDSEC
0
EOF
