999

0
SECTION
2
HEADER
9
$ACADVER
1
AC1021
9
$HANDSEED
5
23d7
0
ENDSEC
0
SECTION
2
CLASSES
0
ENDSEC
0
SECTION
2
TABLES
0
TABLE
2
VPORT
5
23bf
100
AcDbSymbolTable
70
1
0
VPORT
5
23be
100
AcDbSymbolTableRecord
100
AcDbViewportTableRecord
2
*ACTIVE
10
0
20
0
11
1
21
1
12
500.0
22
500.0
40
1000.0
70
0
0
ENDTAB
0
TABLE
2
LTYPE
5
23c0
100
AcDbSymbolTable
70
3
0
LTYPE
5
23c8
100
AcDbSymbolTableRecord
100
AcDbLinetypeTableRecord
2
Solid
70
0
72
65
73
0
3

0
LTYPE
5
23c9
100
AcDbSymbolTableRecord
100
AcDbLinetypeTableRecord
2
ByBlock
70
0
72
65
73
0
3

0
LTYPE
5
23ca
100
AcDbSymbolTableRecord
100
AcDbLinetypeTableRecord
2
ByLayer
70
0
72
65
73
0
3

0
ENDTAB
0
TABLE
2
LAYER
5
23c1
100
AcDbSymbolTable
70
1
0
LAYER
5
23cb
100
AcDbSymbolTableRecord
100
AcDbLayerTableRecord
2
0
70
0
390
0
0
ENDTAB
0
TABLE
2
STYLE
5
23c2
100
AcDbSymbolTable
70
0
0
ENDTAB
0
TABLE
2
VIEW
5
23c3
100
AcDbSymbolTable
70
0
0
ENDTAB
0
TABLE
2
UCS
5
23c4
100
AcDbSymbolTable
70
0
0
ENDTAB
0
TABLE
2
APPID
5
23c5
100
AcDbSymbolTable
70
1
0
APPID
5
23cc
100
AcDbSymbolTableRecord
100
AcDbRegAppTableRecord
2
ACAD
70
0
0
ENDTAB
0
TABLE
2
DIMSTYLE
5
23c6
100
AcDbSymbolTable
70
0
100
AcDbDimStyleTable
71
1
0
ENDTAB
0
TABLE
2
BLOCK_RECORD
5
23c7
100
AcDbSymbolTable
70
2
0
BLOCK_RECORD
5
23cd
100
AcDbSymbolTableRecord
100
AcDbBlockTableRecord
2
*Model_Space
70
0
280
1
281
0
0
BLOCK_RECORD
5
23ce
100
AcDbSymbolTableRecord
100
AcDbBlockTableRecord
2
*Paper_Space
70
0
280
1
281
0
0
ENDTAB
0
ENDSEC
0
SECTION
2
BLOCKS
0
BLOCK
5
23cf
100
AcDbEntity
100
AcDbBlockBegin
2
*Model_Space
70
0
10
0
20
0
30
0
3
*Model_Space
1

0
ENDBLK
5
23d0
100
AcDbEntity
100
AcDbBlockEnd
0
BLOCK
5
23d1
100
AcDbEntity
100
AcDbBlockBegin
2
*Paper_Space
70
0
10
0
20
0
30
0
3
*Paper_Space
1

0
ENDBLK
5
23d2
100
AcDbEntity
100
AcDbBlockEnd
0
ENDSEC
0
SECTION
2
ENTITIES
0
LWPOLYLINE
5
23d5
100
AcDbEntity
100
AcDbPolyline
90
59
70
1
10
1.0
20
-3425.0
30
0.0
10
1.0
20
-3409.0
30
0.0
10
0.0
20
-3363.0
30
0.0
10
0.0
20
-3292.0
30
0.0
10
2.0
20
-3201.0
30
0.0
10
7.0
20
-3096.0
30
0.0
10
15.0
20
-2980.0
30
0.0
10
29.0
20
-2860.0
30
0.0
10
42.0
20
-2772.0
30
0.0
10
58.0
20
-2683.0
30
0.0
10
77.0
20
-2594.0
30
0.0
10
100.0
20
-2502.0
30
0.0
10
127.0
20
-2408.0
30
0.0
10
157.0
20
-2310.0
30
0.0
10
191.0
20
-2209.0
30
0.0
10
244.0
20
-2063.0
30
0.0
10
301.0
20
-1917.0
30
0.0
10
357.0
20
-1779.0
30
0.0
10
408.0
20
-1658.0
30
0.0
10
449.0
20
-1561.0
30
0.0
10
478.0
20
-1497.0
30
0.0
10
488.0
20
-1473.0
30
0.0
10
493.0
20
-1462.0
30
0.0
10
508.0
20
-1430.0
30
0.0
10
531.0
20
-1383.0
30
0.0
10
559.0
20
-1323.0
30
0.0
10
592.0
20
-1256.0
30
0.0
10
628.0
20
-1184.0
30
0.0
10
664.0
20
-1112.0
30
0.0
10
710.0
20
-1023.0
30
0.0
10
756.0
20
-939.0
30
0.0
10
799.0
20
-856.0
30
0.0
10
842.0
20
-773.0
30
0.0
10
884.0
20
-686.0
30
0.0
10
925.0
20
-594.0
30
0.0
10
965.0
20
-494.0
30
0.0
10
999.0
20
-399.0
30
0.0
10
1031.0
20
-302.0
30
0.0
10
1061.0
20
-210.0
30
0.0
10
1086.0
20
-127.0
30
0.0
10
1105.0
20
-60.0
30
0.0
10
1118.0
20
-16.0
30
0.0
10
1122.0
20
0.0
30
0.0
10
1166.0
20
-13.0
30
0.0
10
1285.0
20
-49.0
30
0.0
10
1464.0
20
-103.0
30
0.0
10
1689.0
20
-169.0
30
0.0
10
1943.0
20
-242.0
30
0.0
10
2212.0
20
-316.0
30
0.0
10
2478.0
20
-386.0
30
0.0
10
2694.0
20
-440.0
30
0.0
10
2893.0
20
-487.0
30
0.0
10
3067.0
20
-526.0
30
0.0
10
3213.0
20
-557.0
30
0.0
10
3324.0
20
-579.0
30
0.0
10
3394.0
20
-593.0
30
0.0
10
3419.0
20
-598.0
30
0.0
10
3400.0
20
-3433.0
30
0.0
10
1.0
20
-3425.0
30
0.0
6
Solid
370
35
62
0
0
ENDSEC
0
SECTION
2
OBJECTS
0
DICTIONARY
5
23d3
330
0
100
AcDbDictionary
281
1
3
ACAD_GROUP
350
23d4
0
DICTIONARY
5
23d4
330
23d3
100
AcDbDictionary
281
1
0
ENDSEC
0
EOF
