999

0
SECTION
2
HEADER
9
$ACADVER
1
AC1021
9
$HANDSEED
5
23f0
0
ENDSEC
0
SECTION
2
CLASSES
0
ENDSEC
0
SECTION
2
TABLES
0
TABLE
2
VPORT
5
23d8
100
AcDbSymbolTable
70
1
0
VPORT
5
23d7
100
AcDbSymbolTableRecord
100
AcDbViewportTableRecord
2
*ACTIVE
10
0
20
0
11
1
21
1
12
500.0
22
500.0
40
1000.0
70
0
0
ENDTAB
0
TABLE
2
LTYPE
5
23d9
100
AcDbSymbolTable
70
3
0
LTYPE
5
23e1
100
AcDbSymbolTableRecord
100
AcDbLinetypeTableRecord
2
Solid
70
0
72
65
73
0
3

0
LTYPE
5
23e2
100
AcDbSymbolTableRecord
100
AcDbLinetypeTableRecord
2
ByBlock
70
0
72
65
73
0
3

0
LTYPE
5
23e3
100
AcDbSymbolTableRecord
100
AcDbLinetypeTableRecord
2
ByLayer
70
0
72
65
73
0
3

0
ENDTAB
0
TABLE
2
LAYER
5
23da
100
AcDbSymbolTable
70
1
0
LAYER
5
23e4
100
AcDbSymbolTableRecord
100
AcDbLayerTableRecord
2
0
70
0
390
0
0
ENDTAB
0
TABLE
2
STYLE
5
23db
100
AcDbSymbolTable
70
0
0
ENDTAB
0
TABLE
2
VIEW
5
23dc
100
AcDbSymbolTable
70
0
0
ENDTAB
0
TABLE
2
UCS
5
23dd
100
AcDbSymbolTable
70
0
0
ENDTAB
0
TABLE
2
APPID
5
23de
100
AcDbSymbolTable
70
1
0
APPID
5
23e5
100
AcDbSymbolTableRecord
100
AcDbRegAppTableRecord
2
ACAD
70
0
0
ENDTAB
0
TABLE
2
DIMSTYLE
5
23df
100
AcDbSymbolTable
70
0
100
AcDbDimStyleTable
71
1
0
ENDTAB
0
TABLE
2
BLOCK_RECORD
5
23e0
100
AcDbSymbolTable
70
2
0
BLOCK_RECORD
5
23e6
100
AcDbSymbolTableRecord
100
AcDbBlockTableRecord
2
*Model_Space
70
0
280
1
281
0
0
BLOCK_RECORD
5
23e7
100
AcDbSymbolTableRecord
100
AcDbBlockTableRecord
2
*Paper_Space
70
0
280
1
281
0
0
ENDTAB
0
ENDSEC
0
SECTION
2
BLOCKS
0
BLOCK
5
23e8
100
AcDbEntity
100
AcDbBlockBegin
2
*Model_Space
70
0
10
0
20
0
30
0
3
*Model_Space
1

0
ENDBLK
5
23e9
100
AcDbEntity
100
AcDbBlockEnd
0
BLOCK
5
23ea
100
AcDbEntity
100
AcDbBlockBegin
2
*Paper_Space
70
0
10
0
20
0
30
0
3
*Paper_Space
1

0
ENDBLK
5
23eb
100
AcDbEntity
100
AcDbBlockEnd
0
ENDSEC
0
SECTION
2
ENTITIES
0
LWPOLYLINE
5
23ee
100
AcDbEntity
100
AcDbPolyline
90
59
70
1
10
331.0
20
-1913.0
30
0.0
10
320.0
20
-1888.0
30
0.0
10
303.0
20
-1849.0
30
0.0
10
282.0
20
-1801.0
30
0.0
10
256.0
20
-1745.0
30
0.0
10
227.0
20
-1684.0
30
0.0
10
196.0
20
-1622.0
30
0.0
10
156.0
20
-1545.0
30
0.0
10
116.0
20
-1470.0
30
0.0
10
79.0
20
-1395.0
30
0.0
10
46.0
20
-1322.0
30
0.0
10
21.0
20
-1248.0
30
0.0
10
5.0
20
-1174.0
30
0.0
10
0.0
20
-1100.0
30
0.0
10
5.0
20
-1040.0
30
0.0
10
18.0
20
-980.0
30
0.0
10
35.0
20
-918.0
30
0.0
10
55.0
20
-854.0
30
0.0
10
77.0
20
-789.0
30
0.0
10
99.0
20
-721.0
30
0.0
10
119.0
20
-651.0
30
0.0
10
143.0
20
-543.0
30
0.0
10
163.0
20
-433.0
30
0.0
10
183.0
20
-327.0
30
0.0
10
208.0
20
-228.0
30
0.0
10
241.0
20
-142.0
30
0.0
10
288.0
20
-73.0
30
0.0
10
352.0
20
-25.0
30
0.0
10
448.0
20
0.0
30
0.0
10
566.0
20
-2.0
30
0.0
10
703.0
20
-24.0
30
0.0
10
854.0
20
-62.0
30
0.0
10
1015.0
20
-108.0
30
0.0
10
1181.0
20
-159.0
30
0.0
10
1349.0
20
-206.0
30
0.0
10
1488.0
20
-242.0
30
0.0
10
1623.0
20
-274.0
30
0.0
10
1750.0
20
-305.0
30
0.0
10
1868.0
20
-338.0
30
0.0
10
1975.0
20
-374.0
30
0.0
10
2067.0
20
-418.0
30
0.0
10
2142.0
20
-470.0
30
0.0
10
2202.0
20
-536.0
30
0.0
10
2244.0
20
-613.0
30
0.0
10
2272.0
20
-700.0
30
0.0
10
2289.0
20
-796.0
30
0.0
10
2300.0
20
-898.0
30
0.0
10
2306.0
20
-1006.0
30
0.0
10
2313.0
20
-1119.0
30
0.0
10
2319.0
20
-1202.0
30
0.0
10
2326.0
20
-1283.0
30
0.0
10
2333.0
20
-1358.0
30
0.0
10
2340.0
20
-1423.0
30
0.0
10
2346.0
20
-1474.0
30
0.0
10
2350.0
20
-1507.0
30
0.0
10
2351.0
20
-1519.0
30
0.0
10
2390.0
20
-1915.0
30
0.0
10
334.0
20
-1922.0
30
0.0
10
331.0
20
-1913.0
30
0.0
6
Solid
370
35
62
0
0
ENDSEC
0
SECTION
2
OBJECTS
0
DICTIONARY
5
23ec
330
0
100
AcDbDictionary
281
1
3
ACAD_GROUP
350
23ed
0
DICTIONARY
5
23ed
330
23ec
100
AcDbDictionary
281
1
0
ENDSEC
0
EOF
