999

0
SECTION
2
HEADER
9
$ACADVER
1
AC1021
9
$HANDSEED
5
2422
0
ENDSEC
0
SECTION
2
CLASSES
0
ENDSEC
0
SECTION
2
TABLES
0
TABLE
2
VPORT
5
240a
100
AcDbSymbolTable
70
1
0
VPORT
5
2409
100
AcDbSymbolTableRecord
100
AcDbViewportTableRecord
2
*ACTIVE
10
0
20
0
11
1
21
1
12
500.0
22
500.0
40
1000.0
70
0
0
ENDTAB
0
TABLE
2
LTYPE
5
240b
100
AcDbSymbolTable
70
3
0
LTYPE
5
2413
100
AcDbSymbolTableRecord
100
AcDbLinetypeTableRecord
2
Solid
70
0
72
65
73
0
3

0
LTYPE
5
2414
100
AcDbSymbolTableRecord
100
AcDbLinetypeTableRecord
2
ByBlock
70
0
72
65
73
0
3

0
LTYPE
5
2415
100
AcDbSymbolTableRecord
100
AcDbLinetypeTableRecord
2
ByLayer
70
0
72
65
73
0
3

0
ENDTAB
0
TABLE
2
LAYER
5
240c
100
AcDbSymbolTable
70
1
0
LAYER
5
2416
100
AcDbSymbolTableRecord
100
AcDbLayerTableRecord
2
0
70
0
390
0
0
ENDTAB
0
TABLE
2
STYLE
5
240d
100
AcDbSymbolTable
70
0
0
ENDTAB
0
TABLE
2
VIEW
5
240e
100
AcDbSymbolTable
70
0
0
ENDTAB
0
TABLE
2
UCS
5
240f
100
AcDbSymbolTable
70
0
0
ENDTAB
0
TABLE
2
APPID
5
2410
100
AcDbSymbolTable
70
1
0
APPID
5
2417
100
AcDbSymbolTableRecord
100
AcDbRegAppTableRecord
2
ACAD
70
0
0
ENDTAB
0
TABLE
2
DIMSTYLE
5
2411
100
AcDbSymbolTable
70
0
100
AcDbDimStyleTable
71
1
0
ENDTAB
0
TABLE
2
BLOCK_RECORD
5
2412
100
AcDbSymbolTable
70
2
0
BLOCK_RECORD
5
2418
100
AcDbSymbolTableRecord
100
AcDbBlockTableRecord
2
*Model_Space
70
0
280
1
281
0
0
BLOCK_RECORD
5
2419
100
AcDbSymbolTableRecord
100
AcDbBlockTableRecord
2
*Paper_Space
70
0
280
1
281
0
0
ENDTAB
0
ENDSEC
0
SECTION
2
BLOCKS
0
BLOCK
5
241a
100
AcDbEntity
100
AcDbBlockBegin
2
*Model_Space
70
0
10
0
20
0
30
0
3
*Model_Space
1

0
ENDBLK
5
241b
100
AcDbEntity
100
AcDbBlockEnd
0
BLOCK
5
241c
100
AcDbEntity
100
AcDbBlockBegin
2
*Paper_Space
70
0
10
0
20
0
30
0
3
*Paper_Space
1

0
ENDBLK
5
241d
100
AcDbEntity
100
AcDbBlockEnd
0
ENDSEC
0
SECTION
2
ENTITIES
0
LWPOLYLINE
5
2420
100
AcDbEntity
100
AcDbPolyline
90
66
70
1
10
347.0
20
-1500.0
30
0.0
10
337.0
20
-1488.0
30
0.0
10
321.0
20
-1468.0
30
0.0
10
299.0
20
-1442.0
30
0.0
10
274.0
20
-1411.0
30
0.0
10
245.0
20
-1375.0
30
0.0
10
213.0
20
-1337.0
30
0.0
10
189.0
20
-1308.0
30
0.0
10
164.0
20
-1278.0
30
0.0
10
140.0
20
-1247.0
30
0.0
10
116.0
20
-1217.0
30
0.0
10
93.0
20
-1186.0
30
0.0
10
73.0
20
-1155.0
30
0.0
10
54.0
20
-1125.0
30
0.0
10
22.0
20
-1055.0
30
0.0
10
5.0
20
-988.0
30
0.0
10
0.0
20
-923.0
30
0.0
10
5.0
20
-857.0
30
0.0
10
17.0
20
-788.0
30
0.0
10
34.0
20
-716.0
30
0.0
10
52.0
20
-639.0
30
0.0
10
73.0
20
-537.0
30
0.0
10
95.0
20
-431.0
30
0.0
10
120.0
20
-325.0
30
0.0
10
151.0
20
-226.0
30
0.0
10
189.0
20
-138.0
30
0.0
10
237.0
20
-68.0
30
0.0
10
298.0
20
-21.0
30
0.0
10
351.0
20
-4.0
30
0.0
10
411.0
20
0.0
30
0.0
10
477.0
20
-7.0
30
0.0
10
548.0
20
-23.0
30
0.0
10
623.0
20
-46.0
30
0.0
10
701.0
20
-73.0
30
0.0
10
781.0
20
-102.0
30
0.0
10
838.0
20
-123.0
30
0.0
10
896.0
20
-145.0
30
0.0
10
953.0
20
-165.0
30
0.0
10
1010.0
20
-186.0
30
0.0
10
1066.0
20
-206.0
30
0.0
10
1122.0
20
-225.0
30
0.0
10
1176.0
20
-243.0
30
0.0
10
1224.0
20
-259.0
30
0.0
10
1269.0
20
-275.0
30
0.0
10
1313.0
20
-291.0
30
0.0
10
1354.0
20
-308.0
30
0.0
10
1393.0
20
-326.0
30
0.0
10
1427.0
20
-347.0
30
0.0
10
1458.0
20
-370.0
30
0.0
10
1503.0
20
-419.0
30
0.0
10
1535.0
20
-477.0
30
0.0
10
1558.0
20
-543.0
30
0.0
10
1572.0
20
-614.0
30
0.0
10
1581.0
20
-690.0
30
0.0
10
1586.0
20
-769.0
30
0.0
10
1589.0
20
-850.0
30
0.0
10
1591.0
20
-926.0
30
0.0
10
1594.0
20
-999.0
30
0.0
10
1596.0
20
-1066.0
30
0.0
10
1597.0
20
-1124.0
30
0.0
10
1599.0
20
-1169.0
30
0.0
10
1600.0
20
-1198.0
30
0.0
10
1600.0
20
-1209.0
30
0.0
10
1604.0
20
-1509.0
30
0.0
10
351.0
20
-1505.0
30
0.0
10
347.0
20
-1500.0
30
0.0
6
Solid
370
35
62
2
0
ENDSEC
0
SECTION
2
OBJECTS
0
DICTIONARY
5
241e
330
0
100
AcDbDictionary
281
1
3
ACAD_GROUP
350
241f
0
DICTIONARY
5
241f
330
241e
100
AcDbDictionary
281
1
0
ENDSEC
0
EOF
