999

0
SECTION
2
HEADER
9
$ACADVER
1
AC1021
9
$HANDSEED
5
246d
0
ENDSEC
0
SECTION
2
CLASSES
0
ENDSEC
0
SECTION
2
TABLES
0
TABLE
2
VPORT
5
2455
100
AcDbSymbolTable
70
1
0
VPORT
5
2454
100
AcDbSymbolTableRecord
100
AcDbViewportTableRecord
2
*ACTIVE
10
0
20
0
11
1
21
1
12
500.0
22
500.0
40
1000.0
70
0
0
ENDTAB
0
TABLE
2
LTYPE
5
2456
100
AcDbSymbolTable
70
3
0
LTYPE
5
245e
100
AcDbSymbolTableRecord
100
AcDbLinetypeTableRecord
2
Solid
70
0
72
65
73
0
3

0
LTYPE
5
245f
100
AcDbSymbolTableRecord
100
AcDbLinetypeTableRecord
2
ByBlock
70
0
72
65
73
0
3

0
LTYPE
5
2460
100
AcDbSymbolTableRecord
100
AcDbLinetypeTableRecord
2
ByLayer
70
0
72
65
73
0
3

0
ENDTAB
0
TABLE
2
LAYER
5
2457
100
AcDbSymbolTable
70
1
0
LAYER
5
2461
100
AcDbSymbolTableRecord
100
AcDbLayerTableRecord
2
0
70
0
390
0
0
ENDTAB
0
TABLE
2
STYLE
5
2458
100
AcDbSymbolTable
70
0
0
ENDTAB
0
TABLE
2
VIEW
5
2459
100
AcDbSymbolTable
70
0
0
ENDTAB
0
TABLE
2
UCS
5
245a
100
AcDbSymbolTable
70
0
0
ENDTAB
0
TABLE
2
APPID
5
245b
100
AcDbSymbolTable
70
1
0
APPID
5
2462
100
AcDbSymbolTableRecord
100
AcDbRegAppTableRecord
2
ACAD
70
0
0
ENDTAB
0
TABLE
2
DIMSTYLE
5
245c
100
AcDbSymbolTable
70
0
100
AcDbDimStyleTable
71
1
0
ENDTAB
0
TABLE
2
BLOCK_RECORD
5
245d
100
AcDbSymbolTable
70
2
0
BLOCK_RECORD
5
2463
100
AcDbSymbolTableRecord
100
AcDbBlockTableRecord
2
*Model_Space
70
0
280
1
281
0
0
BLOCK_RECORD
5
2464
100
AcDbSymbolTableRecord
100
AcDbBlockTableRecord
2
*Paper_Space
70
0
280
1
281
0
0
ENDTAB
0
ENDSEC
0
SECTION
2
BLOCKS
0
BLOCK
5
2465
100
AcDbEntity
100
AcDbBlockBegin
2
*Model_Space
70
0
10
0
20
0
30
0
3
*Model_Space
1

0
ENDBLK
5
2466
100
AcDbEntity
100
AcDbBlockEnd
0
BLOCK
5
2467
100
AcDbEntity
100
AcDbBlockBegin
2
*Paper_Space
70
0
10
0
20
0
30
0
3
*Paper_Space
1

0
ENDBLK
5
2468
100
AcDbEntity
100
AcDbBlockEnd
0
ENDSEC
0
SECTION
2
ENTITIES
0
LWPOLYLINE
5
246b
100
AcDbEntity
100
AcDbPolyline
90
78
70
1
10
4.0
20
-2475.0
30
0.0
10
14.0
20
-2446.0
30
0.0
10
28.0
20
-2400.0
30
0.0
10
47.0
20
-2342.0
30
0.0
10
68.0
20
-2273.0
30
0.0
10
91.0
20
-2197.0
30
0.0
10
113.0
20
-2117.0
30
0.0
10
145.0
20
-1993.0
30
0.0
10
177.0
20
-1865.0
30
0.0
10
210.0
20
-1733.0
30
0.0
10
247.0
20
-1595.0
30
0.0
10
290.0
20
-1450.0
30
0.0
10
342.0
20
-1296.0
30
0.0
10
406.0
20
-1134.0
30
0.0
10
504.0
20
-914.0
30
0.0
10
614.0
20
-691.0
30
0.0
10
727.0
20
-478.0
30
0.0
10
832.0
20
-289.0
30
0.0
10
919.0
20
-138.0
30
0.0
10
978.0
20
-37.0
30
0.0
10
1000.0
20
0.0
30
0.0
10
1008.0
20
-5.0
30
0.0
10
1030.0
20
-19.0
30
0.0
10
1065.0
20
-40.0
30
0.0
10
1111.0
20
-68.0
30
0.0
10
1168.0
20
-100.0
30
0.0
10
1233.0
20
-136.0
30
0.0
10
1305.0
20
-173.0
30
0.0
10
1410.0
20
-222.0
30
0.0
10
1518.0
20
-270.0
30
0.0
10
1622.0
20
-314.0
30
0.0
10
1716.0
20
-352.0
30
0.0
10
1791.0
20
-381.0
30
0.0
10
1841.0
20
-401.0
30
0.0
10
1860.0
20
-408.0
30
0.0
10
1844.0
20
-435.0
30
0.0
10
1799.0
20
-513.0
30
0.0
10
1731.0
20
-634.0
30
0.0
10
1643.0
20
-791.0
30
0.0
10
1542.0
20
-977.0
30
0.0
10
1431.0
20
-1184.0
30
0.0
10
1316.0
20
-1405.0
30
0.0
10
1181.0
20
-1673.0
30
0.0
10
1051.0
20
-1936.0
30
0.0
10
934.0
20
-2183.0
30
0.0
10
832.0
20
-2398.0
30
0.0
10
754.0
20
-2569.0
30
0.0
10
702.0
20
-2681.0
30
0.0
10
684.0
20
-2721.0
30
0.0
10
675.0
20
-2715.0
30
0.0
10
651.0
20
-2699.0
30
0.0
10
614.0
20
-2675.0
30
0.0
10
565.0
20
-2647.0
30
0.0
10
507.0
20
-2619.0
30
0.0
10
443.0
20
-2592.0
30
0.0
10
375.0
20
-2570.0
30
0.0
10
316.0
20
-2558.0
30
0.0
10
258.0
20
-2550.0
30
0.0
10
205.0
20
-2546.0
30
0.0
10
158.0
20
-2545.0
30
0.0
10
122.0
20
-2545.0
30
0.0
10
98.0
20
-2546.0
30
0.0
10
89.0
20
-2546.0
30
0.0
10
88.0
20
-2545.0
30
0.0
10
84.0
20
-2541.0
30
0.0
10
78.0
20
-2536.0
30
0.0
10
70.0
20
-2529.0
30
0.0
10
61.0
20
-2521.0
30
0.0
10
52.0
20
-2514.0
30
0.0
10
42.0
20
-2507.0
30
0.0
10
33.0
20
-2501.0
30
0.0
10
24.0
20
-2497.0
30
0.0
10
17.0
20
-2493.0
30
0.0
10
10.0
20
-2490.0
30
0.0
10
5.0
20
-2488.0
30
0.0
10
1.0
20
-2486.0
30
0.0
10
0.0
20
-2486.0
30
0.0
10
4.0
20
-2475.0
30
0.0
6
Solid
370
35
62
2
0
ENDSEC
0
SECTION
2
OBJECTS
0
DICTIONARY
5
2469
330
0
100
AcDbDictionary
281
1
3
ACAD_GROUP
350
246a
0
DICTIONARY
5
246a
330
2469
100
AcDbDictionary
281
1
0
ENDSEC
0
EOF
