999

0
SECTION
2
HEADER
9
$ACADVER
1
AC1021
9
$HANDSEED
5
2486
0
ENDSEC
0
SECTION
2
CLASSES
0
ENDSEC
0
SECTION
2
TABLES
0
TABLE
2
VPORT
5
246e
100
AcDbSymbolTable
70
1
0
VPORT
5
246d
100
AcDbSymbolTableRecord
100
AcDbViewportTableRecord
2
*ACTIVE
10
0
20
0
11
1
21
1
12
500.0
22
500.0
40
1000.0
70
0
0
ENDTAB
0
TABLE
2
LTYPE
5
246f
100
AcDbSymbolTable
70
3
0
LTYPE
5
2477
100
AcDbSymbolTableRecord
100
AcDbLinetypeTableRecord
2
Solid
70
0
72
65
73
0
3

0
LTYPE
5
2478
100
AcDbSymbolTableRecord
100
AcDbLinetypeTableRecord
2
ByBlock
70
0
72
65
73
0
3

0
LTYPE
5
2479
100
AcDbSymbolTableRecord
100
AcDbLinetypeTableRecord
2
ByLayer
70
0
72
65
73
0
3

0
ENDTAB
0
TABLE
2
LAYER
5
2470
100
AcDbSymbolTable
70
1
0
LAYER
5
247a
100
AcDbSymbolTableRecord
100
AcDbLayerTableRecord
2
0
70
0
390
0
0
ENDTAB
0
TABLE
2
STYLE
5
2471
100
AcDbSymbolTable
70
0
0
ENDTAB
0
TABLE
2
VIEW
5
2472
100
AcDbSymbolTable
70
0
0
ENDTAB
0
TABLE
2
UCS
5
2473
100
AcDbSymbolTable
70
0
0
ENDTAB
0
TABLE
2
APPID
5
2474
100
AcDbSymbolTable
70
1
0
APPID
5
247b
100
AcDbSymbolTableRecord
100
AcDbRegAppTableRecord
2
ACAD
70
0
0
ENDTAB
0
TABLE
2
DIMSTYLE
5
2475
100
AcDbSymbolTable
70
0
100
AcDbDimStyleTable
71
1
0
ENDTAB
0
TABLE
2
BLOCK_RECORD
5
2476
100
AcDbSymbolTable
70
2
0
BLOCK_RECORD
5
247c
100
AcDbSymbolTableRecord
100
AcDbBlockTableRecord
2
*Model_Space
70
0
280
1
281
0
0
BLOCK_RECORD
5
247d
100
AcDbSymbolTableRecord
100
AcDbBlockTableRecord
2
*Paper_Space
70
0
280
1
281
0
0
ENDTAB
0
ENDSEC
0
SECTION
2
BLOCKS
0
BLOCK
5
247e
100
AcDbEntity
100
AcDbBlockBegin
2
*Model_Space
70
0
10
0
20
0
30
0
3
*Model_Space
1

0
ENDBLK
5
247f
100
AcDbEntity
100
AcDbBlockEnd
0
BLOCK
5
2480
100
AcDbEntity
100
AcDbBlockBegin
2
*Paper_Space
70
0
10
0
20
0
30
0
3
*Paper_Space
1

0
ENDBLK
5
2481
100
AcDbEntity
100
AcDbBlockEnd
0
ENDSEC
0
SECTION
2
ENTITIES
0
LWPOLYLINE
5
2484
100
AcDbEntity
100
AcDbPolyline
90
82
70
1
10
542.0
20
-3089.0
30
0.0
10
535.0
20
-3039.0
30
0.0
10
521.0
20
-2964.0
30
0.0
10
500.0
20
-2874.0
30
0.0
10
470.0
20
-2774.0
30
0.0
10
430.0
20
-2674.0
30
0.0
10
379.0
20
-2581.0
30
0.0
10
315.0
20
-2499.0
30
0.0
10
244.0
20
-2432.0
30
0.0
10
172.0
20
-2378.0
30
0.0
10
106.0
20
-2338.0
30
0.0
10
51.0
20
-2310.0
30
0.0
10
14.0
20
-2294.0
30
0.0
10
0.0
20
-2288.0
30
0.0
10
8.0
20
-2269.0
30
0.0
10
33.0
20
-2214.0
30
0.0
10
71.0
20
-2127.0
30
0.0
10
124.0
20
-2011.0
30
0.0
10
189.0
20
-1872.0
30
0.0
10
265.0
20
-1713.0
30
0.0
10
351.0
20
-1538.0
30
0.0
10
500.0
20
-1247.0
30
0.0
10
657.0
20
-948.0
30
0.0
10
812.0
20
-659.0
30
0.0
10
954.0
20
-400.0
30
0.0
10
1069.0
20
-191.0
30
0.0
10
1147.0
20
-51.0
30
0.0
10
1175.0
20
0.0
30
0.0
10
1198.0
20
-10.0
30
0.0
10
1260.0
20
-37.0
30
0.0
10
1356.0
20
-77.0
30
0.0
10
1478.0
20
-124.0
30
0.0
10
1620.0
20
-175.0
30
0.0
10
1774.0
20
-224.0
30
0.0
10
1934.0
20
-267.0
30
0.0
10
1980.0
20
-277.0
30
0.0
10
2025.0
20
-287.0
30
0.0
10
2069.0
20
-295.0
30
0.0
10
2113.0
20
-303.0
30
0.0
10
2156.0
20
-309.0
30
0.0
10
2197.0
20
-314.0
30
0.0
10
2237.0
20
-318.0
30
0.0
10
2325.0
20
-321.0
30
0.0
10
2402.0
20
-318.0
30
0.0
10
2467.0
20
-311.0
30
0.0
10
2519.0
20
-302.0
30
0.0
10
2557.0
20
-293.0
30
0.0
10
2580.0
20
-286.0
30
0.0
10
2589.0
20
-283.0
30
0.0
10
2600.0
20
-361.0
30
0.0
10
2629.0
20
-563.0
30
0.0
10
2669.0
20
-839.0
30
0.0
10
2712.0
20
-1139.0
30
0.0
10
2752.0
20
-1415.0
30
0.0
10
2781.0
20
-1616.0
30
0.0
10
2792.0
20
-1694.0
30
0.0
10
2792.0
20
-1706.0
30
0.0
10
2793.0
20
-1738.0
30
0.0
10
2797.0
20
-1784.0
30
0.0
10
2803.0
20
-1839.0
30
0.0
10
2813.0
20
-1898.0
30
0.0
10
2828.0
20
-1955.0
30
0.0
10
2850.0
20
-2006.0
30
0.0
10
2870.0
20
-2036.0
30
0.0
10
2895.0
20
-2060.0
30
0.0
10
2923.0
20
-2079.0
30
0.0
10
2956.0
20
-2093.0
30
0.0
10
2993.0
20
-2103.0
30
0.0
10
3034.0
20
-2111.0
30
0.0
10
3080.0
20
-2116.0
30
0.0
10
3183.0
20
-2123.0
30
0.0
10
3294.0
20
-2127.0
30
0.0
10
3405.0
20
-2127.0
30
0.0
10
3507.0
20
-2126.0
30
0.0
10
3590.0
20
-2124.0
30
0.0
10
3647.0
20
-2122.0
30
0.0
10
3668.0
20
-2121.0
30
0.0
10
5722.0
20
-2095.0
30
0.0
10
6537.0
20
-2086.0
30
0.0
10
6537.0
20
-3107.0
30
0.0
10
545.0
20
-3107.0
30
0.0
10
542.0
20
-3089.0
30
0.0
6
Solid
370
35
62
0
0
ENDSEC
0
SECTION
2
OBJECTS
0
DICTIONARY
5
2482
330
0
100
AcDbDictionary
281
1
3
ACAD_GROUP
350
2483
0
DICTIONARY
5
2483
330
2482
100
AcDbDictionary
281
1
0
ENDSEC
0
EOF
