999

0
SECTION
2
HEADER
9
$ACADVER
1
AC1021
9
$HANDSEED
5
22dd
0
ENDSEC
0
SECTION
2
CLASSES
0
ENDSEC
0
SECTION
2
TABLES
0
TABLE
2
VPORT
5
22c5
100
AcDbSymbolTable
70
1
0
VPORT
5
22c4
100
AcDbSymbolTableRecord
100
AcDbViewportTableRecord
2
*ACTIVE
10
0
20
0
11
1
21
1
12
500.0
22
500.0
40
1000.0
70
0
0
ENDTAB
0
TABLE
2
LTYPE
5
22c6
100
AcDbSymbolTable
70
3
0
LTYPE
5
22ce
100
AcDbSymbolTableRecord
100
AcDbLinetypeTableRecord
2
Solid
70
0
72
65
73
0
3

0
LTYPE
5
22cf
100
AcDbSymbolTableRecord
100
AcDbLinetypeTableRecord
2
ByBlock
70
0
72
65
73
0
3

0
LTYPE
5
22d0
100
AcDbSymbolTableRecord
100
AcDbLinetypeTableRecord
2
ByLayer
70
0
72
65
73
0
3

0
ENDTAB
0
TABLE
2
LAYER
5
22c7
100
AcDbSymbolTable
70
1
0
LAYER
5
22d1
100
AcDbSymbolTableRecord
100
AcDbLayerTableRecord
2
0
70
0
390
0
0
ENDTAB
0
TABLE
2
STYLE
5
22c8
100
AcDbSymbolTable
70
0
0
ENDTAB
0
TABLE
2
VIEW
5
22c9
100
AcDbSymbolTable
70
0
0
ENDTAB
0
TABLE
2
UCS
5
22ca
100
AcDbSymbolTable
70
0
0
ENDTAB
0
TABLE
2
APPID
5
22cb
100
AcDbSymbolTable
70
1
0
APPID
5
22d2
100
AcDbSymbolTableRecord
100
AcDbRegAppTableRecord
2
ACAD
70
0
0
ENDTAB
0
TABLE
2
DIMSTYLE
5
22cc
100
AcDbSymbolTable
70
0
100
AcDbDimStyleTable
71
1
0
ENDTAB
0
TABLE
2
BLOCK_RECORD
5
22cd
100
AcDbSymbolTable
70
2
0
BLOCK_RECORD
5
22d3
100
AcDbSymbolTableRecord
100
AcDbBlockTableRecord
2
*Model_Space
70
0
280
1
281
0
0
BLOCK_RECORD
5
22d4
100
AcDbSymbolTableRecord
100
AcDbBlockTableRecord
2
*Paper_Space
70
0
280
1
281
0
0
ENDTAB
0
ENDSEC
0
SECTION
2
BLOCKS
0
BLOCK
5
22d5
100
AcDbEntity
100
AcDbBlockBegin
2
*Model_Space
70
0
10
0
20
0
30
0
3
*Model_Space
1

0
ENDBLK
5
22d6
100
AcDbEntity
100
AcDbBlockEnd
0
BLOCK
5
22d7
100
AcDbEntity
100
AcDbBlockBegin
2
*Paper_Space
70
0
10
0
20
0
30
0
3
*Paper_Space
1

0
ENDBLK
5
22d8
100
AcDbEntity
100
AcDbBlockEnd
0
ENDSEC
0
SECTION
2
ENTITIES
0
LWPOLYLINE
5
22db
100
AcDbEntity
100
AcDbPolyline
90
94
70
1
10
5818.0
20
-861.0
30
0.0
10
5761.0
20
-871.0
30
0.0
10
5673.0
20
-887.0
30
0.0
10
5559.0
20
-907.0
30
0.0
10
5424.0
20
-931.0
30
0.0
10
5274.0
20
-956.0
30
0.0
10
5114.0
20
-983.0
30
0.0
10
4852.0
20
-1026.0
30
0.0
10
4581.0
20
-1067.0
30
0.0
10
4304.0
20
-1105.0
30
0.0
10
4024.0
20
-1139.0
30
0.0
10
3745.0
20
-1168.0
30
0.0
10
3467.0
20
-1191.0
30
0.0
10
3195.0
20
-1205.0
30
0.0
10
2941.0
20
-1211.0
30
0.0
10
2694.0
20
-1208.0
30
0.0
10
2454.0
20
-1200.0
30
0.0
10
2223.0
20
-1185.0
30
0.0
10
2000.0
20
-1166.0
30
0.0
10
1786.0
20
-1142.0
30
0.0
10
1581.0
20
-1116.0
30
0.0
10
1425.0
20
-1093.0
30
0.0
10
1274.0
20
-1070.0
30
0.0
10
1125.0
20
-1045.0
30
0.0
10
977.0
20
-1020.0
30
0.0
10
829.0
20
-994.0
30
0.0
10
680.0
20
-968.0
30
0.0
10
528.0
20
-942.0
30
0.0
10
419.0
20
-923.0
30
0.0
10
312.0
20
-905.0
30
0.0
10
213.0
20
-889.0
30
0.0
10
128.0
20
-875.0
30
0.0
10
60.0
20
-864.0
30
0.0
10
16.0
20
-856.0
30
0.0
10
0.0
20
-854.0
30
0.0
10
241.0
20
0.0
30
0.0
10
267.0
20
-2.0
30
0.0
10
338.0
20
-8.0
30
0.0
10
443.0
20
-17.0
30
0.0
10
571.0
20
-29.0
30
0.0
10
711.0
20
-42.0
30
0.0
10
852.0
20
-56.0
30
0.0
10
982.0
20
-71.0
30
0.0
10
1054.0
20
-80.0
30
0.0
10
1119.0
20
-89.0
30
0.0
10
1181.0
20
-99.0
30
0.0
10
1240.0
20
-108.0
30
0.0
10
1299.0
20
-118.0
30
0.0
10
1361.0
20
-127.0
30
0.0
10
1426.0
20
-138.0
30
0.0
10
1505.0
20
-150.0
30
0.0
10
1587.0
20
-161.0
30
0.0
10
1666.0
20
-173.0
30
0.0
10
1737.0
20
-182.0
30
0.0
10
1794.0
20
-190.0
30
0.0
10
1832.0
20
-195.0
30
0.0
10
1846.0
20
-197.0
30
0.0
10
1876.0
20
-200.0
30
0.0
10
1962.0
20
-208.0
30
0.0
10
2093.0
20
-218.0
30
0.0
10
2261.0
20
-230.0
30
0.0
10
2457.0
20
-241.0
30
0.0
10
2671.0
20
-249.0
30
0.0
10
2894.0
20
-252.0
30
0.0
10
3128.0
20
-249.0
30
0.0
10
3352.0
20
-241.0
30
0.0
10
3558.0
20
-231.0
30
0.0
10
3734.0
20
-219.0
30
0.0
10
3872.0
20
-208.0
30
0.0
10
3962.0
20
-199.0
30
0.0
10
3994.0
20
-196.0
30
0.0
10
4014.0
20
-194.0
30
0.0
10
4069.0
20
-188.0
30
0.0
10
4153.0
20
-177.0
30
0.0
10
4262.0
20
-164.0
30
0.0
10
4390.0
20
-147.0
30
0.0
10
4531.0
20
-128.0
30
0.0
10
4679.0
20
-107.0
30
0.0
10
4729.0
20
-100.0
30
0.0
10
4778.0
20
-93.0
30
0.0
10
4827.0
20
-86.0
30
0.0
10
4876.0
20
-78.0
30
0.0
10
4924.0
20
-72.0
30
0.0
10
4971.0
20
-65.0
30
0.0
10
5017.0
20
-59.0
30
0.0
10
5164.0
20
-42.0
30
0.0
10
5295.0
20
-30.0
30
0.0
10
5406.0
20
-22.0
30
0.0
10
5497.0
20
-18.0
30
0.0
10
5564.0
20
-16.0
30
0.0
10
5606.0
20
-16.0
30
0.0
10
5620.0
20
-16.0
30
0.0
10
5838.0
20
-857.0
30
0.0
10
5818.0
20
-861.0
30
0.0
6
Solid
370
35
62
0
0
ENDSEC
0
SECTION
2
OBJECTS
0
DICTIONARY
5
22d9
330
0
100
AcDbDictionary
281
1
3
ACAD_GROUP
350
22da
0
DICTIONARY
5
22da
330
22d9
100
AcDbDictionary
281
1
0
ENDSEC
0
EOF
