999

0
SECTION
2
HEADER
9
$ACADVER
1
AC1021
9
$HANDSEED
5
249f
0
ENDSEC
0
SECTION
2
CLASSES
0
ENDSEC
0
SECTION
2
TABLES
0
TABLE
2
VPORT
5
2487
100
AcDbSymbolTable
70
1
0
VPORT
5
2486
100
AcDbSymbolTableRecord
100
AcDbViewportTableRecord
2
*ACTIVE
10
0
20
0
11
1
21
1
12
500.0
22
500.0
40
1000.0
70
0
0
ENDTAB
0
TABLE
2
LTYPE
5
2488
100
AcDbSymbolTable
70
3
0
LTYPE
5
2490
100
AcDbSymbolTableRecord
100
AcDbLinetypeTableRecord
2
Solid
70
0
72
65
73
0
3

0
LTYPE
5
2491
100
AcDbSymbolTableRecord
100
AcDbLinetypeTableRecord
2
ByBlock
70
0
72
65
73
0
3

0
LTYPE
5
2492
100
AcDbSymbolTableRecord
100
AcDbLinetypeTableRecord
2
ByLayer
70
0
72
65
73
0
3

0
ENDTAB
0
TABLE
2
LAYER
5
2489
100
AcDbSymbolTable
70
1
0
LAYER
5
2493
100
AcDbSymbolTableRecord
100
AcDbLayerTableRecord
2
0
70
0
390
0
0
ENDTAB
0
TABLE
2
STYLE
5
248a
100
AcDbSymbolTable
70
0
0
ENDTAB
0
TABLE
2
VIEW
5
248b
100
AcDbSymbolTable
70
0
0
ENDTAB
0
TABLE
2
UCS
5
248c
100
AcDbSymbolTable
70
0
0
ENDTAB
0
TABLE
2
APPID
5
248d
100
AcDbSymbolTable
70
1
0
APPID
5
2494
100
AcDbSymbolTableRecord
100
AcDbRegAppTableRecord
2
ACAD
70
0
0
ENDTAB
0
TABLE
2
DIMSTYLE
5
248e
100
AcDbSymbolTable
70
0
100
AcDbDimStyleTable
71
1
0
ENDTAB
0
TABLE
2
BLOCK_RECORD
5
248f
100
AcDbSymbolTable
70
2
0
BLOCK_RECORD
5
2495
100
AcDbSymbolTableRecord
100
AcDbBlockTableRecord
2
*Model_Space
70
0
280
1
281
0
0
BLOCK_RECORD
5
2496
100
AcDbSymbolTableRecord
100
AcDbBlockTableRecord
2
*Paper_Space
70
0
280
1
281
0
0
ENDTAB
0
ENDSEC
0
SECTION
2
BLOCKS
0
BLOCK
5
2497
100
AcDbEntity
100
AcDbBlockBegin
2
*Model_Space
70
0
10
0
20
0
30
0
3
*Model_Space
1

0
ENDBLK
5
2498
100
AcDbEntity
100
AcDbBlockEnd
0
BLOCK
5
2499
100
AcDbEntity
100
AcDbBlockBegin
2
*Paper_Space
70
0
10
0
20
0
30
0
3
*Paper_Space
1

0
ENDBLK
5
249a
100
AcDbEntity
100
AcDbBlockEnd
0
ENDSEC
0
SECTION
2
ENTITIES
0
LWPOLYLINE
5
249d
100
AcDbEntity
100
AcDbPolyline
90
52
70
1
10
9.0
20
-277.0
30
0.0
10
33.0
20
-275.0
30
0.0
10
68.0
20
-271.0
30
0.0
10
112.0
20
-263.0
30
0.0
10
162.0
20
-252.0
30
0.0
10
212.0
20
-235.0
30
0.0
10
261.0
20
-212.0
30
0.0
10
310.0
20
-180.0
30
0.0
10
353.0
20
-143.0
30
0.0
10
388.0
20
-105.0
30
0.0
10
416.0
20
-70.0
30
0.0
10
436.0
20
-40.0
30
0.0
10
449.0
20
-19.0
30
0.0
10
453.0
20
-12.0
30
0.0
10
573.0
20
0.0
30
0.0
10
862.0
20
-2267.0
30
0.0
10
847.0
20
-2269.0
30
0.0
10
806.0
20
-2273.0
30
0.0
10
745.0
20
-2277.0
30
0.0
10
671.0
20
-2280.0
30
0.0
10
591.0
20
-2277.0
30
0.0
10
511.0
20
-2269.0
30
0.0
10
438.0
20
-2251.0
30
0.0
10
393.0
20
-2233.0
30
0.0
10
354.0
20
-2208.0
30
0.0
10
321.0
20
-2177.0
30
0.0
10
292.0
20
-2138.0
30
0.0
10
268.0
20
-2090.0
30
0.0
10
247.0
20
-2033.0
30
0.0
10
230.0
20
-1966.0
30
0.0
10
220.0
20
-1916.0
30
0.0
10
210.0
20
-1862.0
30
0.0
10
202.0
20
-1804.0
30
0.0
10
194.0
20
-1742.0
30
0.0
10
186.0
20
-1678.0
30
0.0
10
178.0
20
-1611.0
30
0.0
10
170.0
20
-1542.0
30
0.0
10
162.0
20
-1478.0
30
0.0
10
154.0
20
-1412.0
30
0.0
10
145.0
20
-1346.0
30
0.0
10
136.0
20
-1280.0
30
0.0
10
127.0
20
-1213.0
30
0.0
10
119.0
20
-1146.0
30
0.0
10
110.0
20
-1080.0
30
0.0
10
86.0
20
-902.0
30
0.0
10
63.0
20
-735.0
30
0.0
10
42.0
20
-586.0
30
0.0
10
25.0
20
-460.0
30
0.0
10
12.0
20
-363.0
30
0.0
10
3.0
20
-300.0
30
0.0
10
0.0
20
-278.0
30
0.0
10
9.0
20
-277.0
30
0.0
6
Solid
370
35
62
3
0
ENDSEC
0
SECTION
2
OBJECTS
0
DICTIONARY
5
249b
330
0
100
AcDbDictionary
281
1
3
ACAD_GROUP
350
249c
0
DICTIONARY
5
249c
330
249b
100
AcDbDictionary
281
1
0
ENDSEC
0
EOF
