999

0
SECTION
2
HEADER
9
$ACADVER
1
AC1021
9
$HANDSEED
5
24b8
0
ENDSEC
0
SECTION
2
CLASSES
0
ENDSEC
0
SECTION
2
TABLES
0
TABLE
2
VPORT
5
24a0
100
AcDbSymbolTable
70
1
0
VPORT
5
249f
100
AcDbSymbolTableRecord
100
AcDbViewportTableRecord
2
*ACTIVE
10
0
20
0
11
1
21
1
12
500.0
22
500.0
40
1000.0
70
0
0
ENDTAB
0
TABLE
2
LTYPE
5
24a1
100
AcDbSymbolTable
70
3
0
LTYPE
5
24a9
100
AcDbSymbolTableRecord
100
AcDbLinetypeTableRecord
2
Solid
70
0
72
65
73
0
3

0
LTYPE
5
24aa
100
AcDbSymbolTableRecord
100
AcDbLinetypeTableRecord
2
ByBlock
70
0
72
65
73
0
3

0
LTYPE
5
24ab
100
AcDbSymbolTableRecord
100
AcDbLinetypeTableRecord
2
ByLayer
70
0
72
65
73
0
3

0
ENDTAB
0
TABLE
2
LAYER
5
24a2
100
AcDbSymbolTable
70
1
0
LAYER
5
24ac
100
AcDbSymbolTableRecord
100
AcDbLayerTableRecord
2
0
70
0
390
0
0
ENDTAB
0
TABLE
2
STYLE
5
24a3
100
AcDbSymbolTable
70
0
0
ENDTAB
0
TABLE
2
VIEW
5
24a4
100
AcDbSymbolTable
70
0
0
ENDTAB
0
TABLE
2
UCS
5
24a5
100
AcDbSymbolTable
70
0
0
ENDTAB
0
TABLE
2
APPID
5
24a6
100
AcDbSymbolTable
70
1
0
APPID
5
24ad
100
AcDbSymbolTableRecord
100
AcDbRegAppTableRecord
2
ACAD
70
0
0
ENDTAB
0
TABLE
2
DIMSTYLE
5
24a7
100
AcDbSymbolTable
70
0
100
AcDbDimStyleTable
71
1
0
ENDTAB
0
TABLE
2
BLOCK_RECORD
5
24a8
100
AcDbSymbolTable
70
2
0
BLOCK_RECORD
5
24ae
100
AcDbSymbolTableRecord
100
AcDbBlockTableRecord
2
*Model_Space
70
0
280
1
281
0
0
BLOCK_RECORD
5
24af
100
AcDbSymbolTableRecord
100
AcDbBlockTableRecord
2
*Paper_Space
70
0
280
1
281
0
0
ENDTAB
0
ENDSEC
0
SECTION
2
BLOCKS
0
BLOCK
5
24b0
100
AcDbEntity
100
AcDbBlockBegin
2
*Model_Space
70
0
10
0
20
0
30
0
3
*Model_Space
1

0
ENDBLK
5
24b1
100
AcDbEntity
100
AcDbBlockEnd
0
BLOCK
5
24b2
100
AcDbEntity
100
AcDbBlockBegin
2
*Paper_Space
70
0
10
0
20
0
30
0
3
*Paper_Space
1

0
ENDBLK
5
24b3
100
AcDbEntity
100
AcDbBlockEnd
0
ENDSEC
0
SECTION
2
ENTITIES
0
LWPOLYLINE
5
24b6
100
AcDbEntity
100
AcDbPolyline
90
141
70
1
10
2192.0
20
-3549.0
30
0.0
10
2194.0
20
-3645.0
30
0.0
10
2199.0
20
-3738.0
30
0.0
10
2206.0
20
-3827.0
30
0.0
10
2218.0
20
-3911.0
30
0.0
10
2234.0
20
-3989.0
30
0.0
10
2255.0
20
-4060.0
30
0.0
10
2298.0
20
-4152.0
30
0.0
10
2349.0
20
-4227.0
30
0.0
10
2404.0
20
-4286.0
30
0.0
10
2456.0
20
-4330.0
30
0.0
10
2500.0
20
-4360.0
30
0.0
10
2530.0
20
-4377.0
30
0.0
10
2541.0
20
-4382.0
30
0.0
10
2532.0
20
-4418.0
30
0.0
10
2505.0
20
-4518.0
30
0.0
10
2462.0
20
-4670.0
30
0.0
10
2407.0
20
-4862.0
30
0.0
10
2341.0
20
-5082.0
30
0.0
10
2267.0
20
-5319.0
30
0.0
10
2187.0
20
-5559.0
30
0.0
10
2078.0
20
-5862.0
30
0.0
10
1969.0
20
-6142.0
30
0.0
10
1866.0
20
-6392.0
30
0.0
10
1775.0
20
-6601.0
30
0.0
10
1703.0
20
-6762.0
30
0.0
10
1655.0
20
-6865.0
30
0.0
10
1637.0
20
-6901.0
30
0.0
10
1606.0
20
-6888.0
30
0.0
10
1517.0
20
-6852.0
30
0.0
10
1384.0
20
-6801.0
30
0.0
10
1217.0
20
-6739.0
30
0.0
10
1026.0
20
-6672.0
30
0.0
10
824.0
20
-6608.0
30
0.0
10
622.0
20
-6551.0
30
0.0
10
482.0
20
-6517.0
30
0.0
10
353.0
20
-6491.0
30
0.0
10
237.0
20
-6470.0
30
0.0
10
140.0
20
-6455.0
30
0.0
10
65.0
20
-6444.0
30
0.0
10
17.0
20
-6439.0
30
0.0
10
0.0
20
-6437.0
30
0.0
10
4.0
20
-6423.0
30
0.0
10
16.0
20
-6382.0
30
0.0
10
33.0
20
-6320.0
30
0.0
10
54.0
20
-6241.0
30
0.0
10
79.0
20
-6148.0
30
0.0
10
105.0
20
-6045.0
30
0.0
10
131.0
20
-5938.0
30
0.0
10
156.0
20
-5824.0
30
0.0
10
180.0
20
-5713.0
30
0.0
10
201.0
20
-5612.0
30
0.0
10
218.0
20
-5524.0
30
0.0
10
231.0
20
-5456.0
30
0.0
10
239.0
20
-5411.0
30
0.0
10
242.0
20
-5395.0
30
0.0
10
245.0
20
-5375.0
30
0.0
10
255.0
20
-5317.0
30
0.0
10
270.0
20
-5227.0
30
0.0
10
289.0
20
-5109.0
30
0.0
10
309.0
20
-4966.0
30
0.0
10
330.0
20
-4803.0
30
0.0
10
349.0
20
-4625.0
30
0.0
10
370.0
20
-4396.0
30
0.0
10
387.0
20
-4164.0
30
0.0
10
401.0
20
-3944.0
30
0.0
10
411.0
20
-3749.0
30
0.0
10
419.0
20
-3592.0
30
0.0
10
423.0
20
-3488.0
30
0.0
10
424.0
20
-3450.0
30
0.0
10
423.0
20
-3413.0
30
0.0
10
419.0
20
-3309.0
30
0.0
10
411.0
20
-3152.0
30
0.0
10
401.0
20
-2957.0
30
0.0
10
387.0
20
-2737.0
30
0.0
10
370.0
20
-2505.0
30
0.0
10
349.0
20
-2276.0
30
0.0
10
330.0
20
-2098.0
30
0.0
10
309.0
20
-1935.0
30
0.0
10
289.0
20
-1792.0
30
0.0
10
270.0
20
-1674.0
30
0.0
10
255.0
20
-1584.0
30
0.0
10
245.0
20
-1526.0
30
0.0
10
242.0
20
-1506.0
30
0.0
10
239.0
20
-1490.0
30
0.0
10
231.0
20
-1445.0
30
0.0
10
218.0
20
-1377.0
30
0.0
10
201.0
20
-1289.0
30
0.0
10
180.0
20
-1188.0
30
0.0
10
156.0
20
-1077.0
30
0.0
10
131.0
20
-963.0
30
0.0
10
105.0
20
-856.0
30
0.0
10
79.0
20
-753.0
30
0.0
10
54.0
20
-660.0
30
0.0
10
33.0
20
-581.0
30
0.0
10
16.0
20
-519.0
30
0.0
10
4.0
20
-478.0
30
0.0
10
0.0
20
-464.0
30
0.0
10
17.0
20
-462.0
30
0.0
10
65.0
20
-456.0
30
0.0
10
140.0
20
-446.0
30
0.0
10
237.0
20
-431.0
30
0.0
10
353.0
20
-410.0
30
0.0
10
482.0
20
-383.0
30
0.0
10
622.0
20
-350.0
30
0.0
10
824.0
20
-293.0
30
0.0
10
1026.0
20
-229.0
30
0.0
10
1217.0
20
-162.0
30
0.0
10
1384.0
20
-100.0
30
0.0
10
1517.0
20
-49.0
30
0.0
10
1606.0
20
-13.0
30
0.0
10
1637.0
20
0.0
30
0.0
10
1655.0
20
-36.0
30
0.0
10
1703.0
20
-139.0
30
0.0
10
1775.0
20
-300.0
30
0.0
10
1866.0
20
-509.0
30
0.0
10
1969.0
20
-759.0
30
0.0
10
2078.0
20
-1039.0
30
0.0
10
2187.0
20
-1342.0
30
0.0
10
2267.0
20
-1582.0
30
0.0
10
2341.0
20
-1819.0
30
0.0
10
2407.0
20
-2039.0
30
0.0
10
2462.0
20
-2231.0
30
0.0
10
2505.0
20
-2383.0
30
0.0
10
2532.0
20
-2483.0
30
0.0
10
2541.0
20
-2519.0
30
0.0
10
2530.0
20
-2524.0
30
0.0
10
2500.0
20
-2541.0
30
0.0
10
2456.0
20
-2571.0
30
0.0
10
2404.0
20
-2615.0
30
0.0
10
2349.0
20
-2674.0
30
0.0
10
2298.0
20
-2749.0
30
0.0
10
2255.0
20
-2841.0
30
0.0
10
2234.0
20
-2912.0
30
0.0
10
2218.0
20
-2990.0
30
0.0
10
2206.0
20
-3074.0
30
0.0
10
2199.0
20
-3163.0
30
0.0
10
2194.0
20
-3256.0
30
0.0
10
2192.0
20
-3352.0
30
0.0
10
2192.0
20
-3450.0
30
0.0
10
2192.0
20
-3549.0
30
0.0
6
Solid
370
35
62
0
0
ENDSEC
0
SECTION
2
OBJECTS
0
DICTIONARY
5
24b4
330
0
100
AcDbDictionary
281
1
3
ACAD_GROUP
350
24b5
0
DICTIONARY
5
24b5
330
24b4
100
AcDbDictionary
281
1
0
ENDSEC
0
EOF
