999

0
SECTION
2
HEADER
9
$ACADVER
1
AC1021
9
$HANDSEED
5
2503
0
ENDSEC
0
SECTION
2
CLASSES
0
ENDSEC
0
SECTION
2
TABLES
0
TABLE
2
VPORT
5
24eb
100
AcDbSymbolTable
70
1
0
VPORT
5
24ea
100
AcDbSymbolTableRecord
100
AcDbViewportTableRecord
2
*ACTIVE
10
0
20
0
11
1
21
1
12
500.0
22
500.0
40
1000.0
70
0
0
ENDTAB
0
TABLE
2
LTYPE
5
24ec
100
AcDbSymbolTable
70
3
0
LTYPE
5
24f4
100
AcDbSymbolTableRecord
100
AcDbLinetypeTableRecord
2
Solid
70
0
72
65
73
0
3

0
LTYPE
5
24f5
100
AcDbSymbolTableRecord
100
AcDbLinetypeTableRecord
2
ByBlock
70
0
72
65
73
0
3

0
LTYPE
5
24f6
100
AcDbSymbolTableRecord
100
AcDbLinetypeTableRecord
2
ByLayer
70
0
72
65
73
0
3

0
ENDTAB
0
TABLE
2
LAYER
5
24ed
100
AcDbSymbolTable
70
1
0
LAYER
5
24f7
100
AcDbSymbolTableRecord
100
AcDbLayerTableRecord
2
0
70
0
390
0
0
ENDTAB
0
TABLE
2
STYLE
5
24ee
100
AcDbSymbolTable
70
0
0
ENDTAB
0
TABLE
2
VIEW
5
24ef
100
AcDbSymbolTable
70
0
0
ENDTAB
0
TABLE
2
UCS
5
24f0
100
AcDbSymbolTable
70
0
0
ENDTAB
0
TABLE
2
APPID
5
24f1
100
AcDbSymbolTable
70
1
0
APPID
5
24f8
100
AcDbSymbolTableRecord
100
AcDbRegAppTableRecord
2
ACAD
70
0
0
ENDTAB
0
TABLE
2
DIMSTYLE
5
24f2
100
AcDbSymbolTable
70
0
100
AcDbDimStyleTable
71
1
0
ENDTAB
0
TABLE
2
BLOCK_RECORD
5
24f3
100
AcDbSymbolTable
70
2
0
BLOCK_RECORD
5
24f9
100
AcDbSymbolTableRecord
100
AcDbBlockTableRecord
2
*Model_Space
70
0
280
1
281
0
0
BLOCK_RECORD
5
24fa
100
AcDbSymbolTableRecord
100
AcDbBlockTableRecord
2
*Paper_Space
70
0
280
1
281
0
0
ENDTAB
0
ENDSEC
0
SECTION
2
BLOCKS
0
BLOCK
5
24fb
100
AcDbEntity
100
AcDbBlockBegin
2
*Model_Space
70
0
10
0
20
0
30
0
3
*Model_Space
1

0
ENDBLK
5
24fc
100
AcDbEntity
100
AcDbBlockEnd
0
BLOCK
5
24fd
100
AcDbEntity
100
AcDbBlockBegin
2
*Paper_Space
70
0
10
0
20
0
30
0
3
*Paper_Space
1

0
ENDBLK
5
24fe
100
AcDbEntity
100
AcDbBlockEnd
0
ENDSEC
0
SECTION
2
ENTITIES
0
LWPOLYLINE
5
2501
100
AcDbEntity
100
AcDbPolyline
90
74
70
1
10
427.0
20
-3112.0
30
0.0
10
413.0
20
-3068.0
30
0.0
10
392.0
20
-3000.0
30
0.0
10
366.0
20
-2912.0
30
0.0
10
337.0
20
-2808.0
30
0.0
10
306.0
20
-2692.0
30
0.0
10
277.0
20
-2568.0
30
0.0
10
256.0
20
-2470.0
30
0.0
10
237.0
20
-2374.0
30
0.0
10
221.0
20
-2285.0
30
0.0
10
207.0
20
-2208.0
30
0.0
10
197.0
20
-2147.0
30
0.0
10
191.0
20
-2107.0
30
0.0
10
189.0
20
-2092.0
30
0.0
10
183.0
20
-2061.0
30
0.0
10
169.0
20
-1976.0
30
0.0
10
148.0
20
-1844.0
30
0.0
10
123.0
20
-1678.0
30
0.0
10
96.0
20
-1486.0
30
0.0
10
70.0
20
-1278.0
30
0.0
10
47.0
20
-1064.0
30
0.0
10
28.0
20
-831.0
30
0.0
10
15.0
20
-612.0
30
0.0
10
7.0
20
-414.0
30
0.0
10
2.0
20
-245.0
30
0.0
10
0.0
20
-114.0
30
0.0
10
0.0
20
-30.0
30
0.0
10
0.0
20
0.0
30
0.0
10
4828.0
20
0.0
30
0.0
10
4813.0
20
-1910.0
30
0.0
10
4798.0
20
-3460.0
30
0.0
10
4783.0
20
-3460.0
30
0.0
10
4739.0
20
-3461.0
30
0.0
10
4669.0
20
-3463.0
30
0.0
10
4574.0
20
-3466.0
30
0.0
10
4456.0
20
-3471.0
30
0.0
10
4317.0
20
-3478.0
30
0.0
10
4160.0
20
-3487.0
30
0.0
10
3781.0
20
-3514.0
30
0.0
10
3364.0
20
-3547.0
30
0.0
10
2943.0
20
-3584.0
30
0.0
10
2555.0
20
-3620.0
30
0.0
10
2234.0
20
-3651.0
30
0.0
10
2016.0
20
-3672.0
30
0.0
10
1935.0
20
-3680.0
30
0.0
10
1934.0
20
-3657.0
30
0.0
10
1927.0
20
-3597.0
30
0.0
10
1911.0
20
-3509.0
30
0.0
10
1880.0
20
-3407.0
30
0.0
10
1831.0
20
-3301.0
30
0.0
10
1759.0
20
-3203.0
30
0.0
10
1660.0
20
-3124.0
30
0.0
10
1532.0
20
-3073.0
30
0.0
10
1386.0
20
-3047.0
30
0.0
10
1237.0
20
-3038.0
30
0.0
10
1096.0
20
-3042.0
30
0.0
10
979.0
20
-3053.0
30
0.0
10
899.0
20
-3063.0
30
0.0
10
869.0
20
-3068.0
30
0.0
10
861.0
20
-3069.0
30
0.0
10
840.0
20
-3071.0
30
0.0
10
807.0
20
-3074.0
30
0.0
10
767.0
20
-3078.0
30
0.0
10
720.0
20
-3083.0
30
0.0
10
671.0
20
-3089.0
30
0.0
10
621.0
20
-3096.0
30
0.0
10
578.0
20
-3102.0
30
0.0
10
539.0
20
-3108.0
30
0.0
10
504.0
20
-3114.0
30
0.0
10
474.0
20
-3119.0
30
0.0
10
452.0
20
-3124.0
30
0.0
10
437.0
20
-3126.0
30
0.0
10
432.0
20
-3127.0
30
0.0
10
427.0
20
-3112.0
30
0.0
6
Solid
370
35
62
0
0
ENDSEC
0
SECTION
2
OBJECTS
0
DICTIONARY
5
24ff
330
0
100
AcDbDictionary
281
1
3
ACAD_GROUP
350
2500
0
DICTIONARY
5
2500
330
24ff
100
AcDbDictionary
281
1
0
ENDSEC
0
EOF
