999

0
SECTION
2
HEADER
9
$ACADVER
1
AC1021
9
$HANDSEED
5
22f6
0
ENDSEC
0
SECTION
2
CLASSES
0
ENDSEC
0
SECTION
2
TABLES
0
TABLE
2
VPORT
5
22de
100
AcDbSymbolTable
70
1
0
VPORT
5
22dd
100
AcDbSymbolTableRecord
100
AcDbViewportTableRecord
2
*ACTIVE
10
0
20
0
11
1
21
1
12
500.0
22
500.0
40
1000.0
70
0
0
ENDTAB
0
TABLE
2
LTYPE
5
22df
100
AcDbSymbolTable
70
3
0
LTYPE
5
22e7
100
AcDbSymbolTableRecord
100
AcDbLinetypeTableRecord
2
Solid
70
0
72
65
73
0
3

0
LTYPE
5
22e8
100
AcDbSymbolTableRecord
100
AcDbLinetypeTableRecord
2
ByBlock
70
0
72
65
73
0
3

0
LTYPE
5
22e9
100
AcDbSymbolTableRecord
100
AcDbLinetypeTableRecord
2
ByLayer
70
0
72
65
73
0
3

0
ENDTAB
0
TABLE
2
LAYER
5
22e0
100
AcDbSymbolTable
70
1
0
LAYER
5
22ea
100
AcDbSymbolTableRecord
100
AcDbLayerTableRecord
2
0
70
0
390
0
0
ENDTAB
0
TABLE
2
STYLE
5
22e1
100
AcDbSymbolTable
70
0
0
ENDTAB
0
TABLE
2
VIEW
5
22e2
100
AcDbSymbolTable
70
0
0
ENDTAB
0
TABLE
2
UCS
5
22e3
100
AcDbSymbolTable
70
0
0
ENDTAB
0
TABLE
2
APPID
5
22e4
100
AcDbSymbolTable
70
1
0
APPID
5
22eb
100
AcDbSymbolTableRecord
100
AcDbRegAppTableRecord
2
ACAD
70
0
0
ENDTAB
0
TABLE
2
DIMSTYLE
5
22e5
100
AcDbSymbolTable
70
0
100
AcDbDimStyleTable
71
1
0
ENDTAB
0
TABLE
2
BLOCK_RECORD
5
22e6
100
AcDbSymbolTable
70
2
0
BLOCK_RECORD
5
22ec
100
AcDbSymbolTableRecord
100
AcDbBlockTableRecord
2
*Model_Space
70
0
280
1
281
0
0
BLOCK_RECORD
5
22ed
100
AcDbSymbolTableRecord
100
AcDbBlockTableRecord
2
*Paper_Space
70
0
280
1
281
0
0
ENDTAB
0
ENDSEC
0
SECTION
2
BLOCKS
0
BLOCK
5
22ee
100
AcDbEntity
100
AcDbBlockBegin
2
*Model_Space
70
0
10
0
20
0
30
0
3
*Model_Space
1

0
ENDBLK
5
22ef
100
AcDbEntity
100
AcDbBlockEnd
0
BLOCK
5
22f0
100
AcDbEntity
100
AcDbBlockBegin
2
*Paper_Space
70
0
10
0
20
0
30
0
3
*Paper_Space
1

0
ENDBLK
5
22f1
100
AcDbEntity
100
AcDbBlockEnd
0
ENDSEC
0
SECTION
2
ENTITIES
0
LWPOLYLINE
5
22f4
100
AcDbEntity
100
AcDbPolyline
90
65
70
1
10
632.0
20
-454.0
30
0.0
10
623.0
20
-455.0
30
0.0
10
598.0
20
-455.0
30
0.0
10
558.0
20
-456.0
30
0.0
10
506.0
20
-457.0
30
0.0
10
444.0
20
-457.0
30
0.0
10
373.0
20
-457.0
30
0.0
10
296.0
20
-455.0
30
0.0
10
256.0
20
-454.0
30
0.0
10
216.0
20
-452.0
30
0.0
10
177.0
20
-450.0
30
0.0
10
140.0
20
-446.0
30
0.0
10
106.0
20
-441.0
30
0.0
10
77.0
20
-435.0
30
0.0
10
53.0
20
-426.0
30
0.0
10
38.0
20
-418.0
30
0.0
10
27.0
20
-408.0
30
0.0
10
19.0
20
-397.0
30
0.0
10
14.0
20
-385.0
30
0.0
10
10.0
20
-371.0
30
0.0
10
9.0
20
-357.0
30
0.0
10
7.0
20
-342.0
30
0.0
10
6.0
20
-317.0
30
0.0
10
4.0
20
-292.0
30
0.0
10
3.0
20
-268.0
30
0.0
10
2.0
20
-247.0
30
0.0
10
1.0
20
-230.0
30
0.0
10
0.0
20
-218.0
30
0.0
10
0.0
20
-214.0
30
0.0
10
0.0
20
0.0
30
0.0
10
410.0
20
-4.0
30
0.0
10
2955.0
20
-7.0
30
0.0
10
5500.0
20
-4.0
30
0.0
10
5910.0
20
0.0
30
0.0
10
5910.0
20
-214.0
30
0.0
10
5910.0
20
-218.0
30
0.0
10
5909.0
20
-230.0
30
0.0
10
5908.0
20
-247.0
30
0.0
10
5907.0
20
-268.0
30
0.0
10
5906.0
20
-292.0
30
0.0
10
5904.0
20
-317.0
30
0.0
10
5903.0
20
-342.0
30
0.0
10
5901.0
20
-357.0
30
0.0
10
5899.0
20
-371.0
30
0.0
10
5896.0
20
-385.0
30
0.0
10
5891.0
20
-397.0
30
0.0
10
5883.0
20
-408.0
30
0.0
10
5872.0
20
-418.0
30
0.0
10
5857.0
20
-426.0
30
0.0
10
5833.0
20
-435.0
30
0.0
10
5804.0
20
-441.0
30
0.0
10
5770.0
20
-446.0
30
0.0
10
5733.0
20
-450.0
30
0.0
10
5694.0
20
-452.0
30
0.0
10
5654.0
20
-454.0
30
0.0
10
5614.0
20
-455.0
30
0.0
10
5537.0
20
-457.0
30
0.0
10
5466.0
20
-457.0
30
0.0
10
5404.0
20
-457.0
30
0.0
10
5352.0
20
-456.0
30
0.0
10
5312.0
20
-455.0
30
0.0
10
5286.0
20
-455.0
30
0.0
10
5278.0
20
-454.0
30
0.0
10
2955.0
20
-461.0
30
0.0
10
632.0
20
-454.0
30
0.0
6
Solid
370
35
62
0
0
ENDSEC
0
SECTION
2
OBJECTS
0
DICTIONARY
5
22f2
330
0
100
AcDbDictionary
281
1
3
ACAD_GROUP
350
22f3
0
DICTIONARY
5
22f3
330
22f2
100
AcDbDictionary
281
1
0
ENDSEC
0
EOF
