999

0
SECTION
2
HEADER
9
$ACADVER
1
AC1021
9
$HANDSEED
5
230f
0
ENDSEC
0
SECTION
2
CLASSES
0
ENDSEC
0
SECTION
2
TABLES
0
TABLE
2
VPORT
5
22f7
100
AcDbSymbolTable
70
1
0
VPORT
5
22f6
100
AcDbSymbolTableRecord
100
AcDbViewportTableRecord
2
*ACTIVE
10
0
20
0
11
1
21
1
12
500.0
22
500.0
40
1000.0
70
0
0
ENDTAB
0
TABLE
2
LTYPE
5
22f8
100
AcDbSymbolTable
70
3
0
LTYPE
5
2300
100
AcDbSymbolTableRecord
100
AcDbLinetypeTableRecord
2
Solid
70
0
72
65
73
0
3

0
LTYPE
5
2301
100
AcDbSymbolTableRecord
100
AcDbLinetypeTableRecord
2
ByBlock
70
0
72
65
73
0
3

0
LTYPE
5
2302
100
AcDbSymbolTableRecord
100
AcDbLinetypeTableRecord
2
ByLayer
70
0
72
65
73
0
3

0
ENDTAB
0
TABLE
2
LAYER
5
22f9
100
AcDbSymbolTable
70
1
0
LAYER
5
2303
100
AcDbSymbolTableRecord
100
AcDbLayerTableRecord
2
0
70
0
390
0
0
ENDTAB
0
TABLE
2
STYLE
5
22fa
100
AcDbSymbolTable
70
0
0
ENDTAB
0
TABLE
2
VIEW
5
22fb
100
AcDbSymbolTable
70
0
0
ENDTAB
0
TABLE
2
UCS
5
22fc
100
AcDbSymbolTable
70
0
0
ENDTAB
0
TABLE
2
APPID
5
22fd
100
AcDbSymbolTable
70
1
0
APPID
5
2304
100
AcDbSymbolTableRecord
100
AcDbRegAppTableRecord
2
ACAD
70
0
0
ENDTAB
0
TABLE
2
DIMSTYLE
5
22fe
100
AcDbSymbolTable
70
0
100
AcDbDimStyleTable
71
1
0
ENDTAB
0
TABLE
2
BLOCK_RECORD
5
22ff
100
AcDbSymbolTable
70
2
0
BLOCK_RECORD
5
2305
100
AcDbSymbolTableRecord
100
AcDbBlockTableRecord
2
*Model_Space
70
0
280
1
281
0
0
BLOCK_RECORD
5
2306
100
AcDbSymbolTableRecord
100
AcDbBlockTableRecord
2
*Paper_Space
70
0
280
1
281
0
0
ENDTAB
0
ENDSEC
0
SECTION
2
BLOCKS
0
BLOCK
5
2307
100
AcDbEntity
100
AcDbBlockBegin
2
*Model_Space
70
0
10
0
20
0
30
0
3
*Model_Space
1

0
ENDBLK
5
2308
100
AcDbEntity
100
AcDbBlockEnd
0
BLOCK
5
2309
100
AcDbEntity
100
AcDbBlockBegin
2
*Paper_Space
70
0
10
0
20
0
30
0
3
*Paper_Space
1

0
ENDBLK
5
230a
100
AcDbEntity
100
AcDbBlockEnd
0
ENDSEC
0
SECTION
2
ENTITIES
0
LWPOLYLINE
5
230d
100
AcDbEntity
100
AcDbPolyline
90
54
70
1
10
1042.0
20
-1432.0
30
0.0
10
1038.0
20
-1388.0
30
0.0
10
1029.0
20
-1322.0
30
0.0
10
1013.0
20
-1240.0
30
0.0
10
989.0
20
-1148.0
30
0.0
10
956.0
20
-1053.0
30
0.0
10
911.0
20
-961.0
30
0.0
10
852.0
20
-874.0
30
0.0
10
780.0
20
-796.0
30
0.0
10
700.0
20
-729.0
30
0.0
10
613.0
20
-672.0
30
0.0
10
522.0
20
-626.0
30
0.0
10
429.0
20
-590.0
30
0.0
10
337.0
20
-565.0
30
0.0
10
279.0
20
-555.0
30
0.0
10
225.0
20
-548.0
30
0.0
10
176.0
20
-544.0
30
0.0
10
134.0
20
-543.0
30
0.0
10
102.0
20
-543.0
30
0.0
10
81.0
20
-543.0
30
0.0
10
74.0
20
-544.0
30
0.0
10
0.0
20
-485.0
30
0.0
10
152.0
20
0.0
30
0.0
10
181.0
20
-5.0
30
0.0
10
261.0
20
-18.0
30
0.0
10
383.0
20
-38.0
30
0.0
10
537.0
20
-65.0
30
0.0
10
713.0
20
-96.0
30
0.0
10
903.0
20
-132.0
30
0.0
10
1098.0
20
-170.0
30
0.0
10
1239.0
20
-200.0
30
0.0
10
1378.0
20
-231.0
30
0.0
10
1513.0
20
-262.0
30
0.0
10
1644.0
20
-293.0
30
0.0
10
1771.0
20
-324.0
30
0.0
10
1895.0
20
-354.0
30
0.0
10
2013.0
20
-383.0
30
0.0
10
2163.0
20
-420.0
30
0.0
10
2310.0
20
-454.0
30
0.0
10
2458.0
20
-487.0
30
0.0
10
2613.0
20
-517.0
30
0.0
10
2779.0
20
-545.0
30
0.0
10
2962.0
20
-572.0
30
0.0
10
3165.0
20
-596.0
30
0.0
10
3405.0
20
-619.0
30
0.0
10
3657.0
20
-640.0
30
0.0
10
3903.0
20
-658.0
30
0.0
10
4125.0
20
-672.0
30
0.0
10
4305.0
20
-682.0
30
0.0
10
4426.0
20
-689.0
30
0.0
10
4471.0
20
-691.0
30
0.0
10
4273.0
20
-1477.0
30
0.0
10
1043.0
20
-1448.0
30
0.0
10
1042.0
20
-1432.0
30
0.0
6
Solid
370
35
62
0
0
ENDSEC
0
SECTION
2
OBJECTS
0
DICTIONARY
5
230b
330
0
100
AcDbDictionary
281
1
3
ACAD_GROUP
350
230c
0
DICTIONARY
5
230c
330
230b
100
AcDbDictionary
281
1
0
ENDSEC
0
EOF
