999

0
SECTION
2
HEADER
9
$ACADVER
1
AC1021
9
$HANDSEED
5
2341
0
ENDSEC
0
SECTION
2
CLASSES
0
ENDSEC
0
SECTION
2
TABLES
0
TABLE
2
VPORT
5
2329
100
AcDbSymbolTable
70
1
0
VPORT
5
2328
100
AcDbSymbolTableRecord
100
AcDbViewportTableRecord
2
*ACTIVE
10
0
20
0
11
1
21
1
12
500.0
22
500.0
40
1000.0
70
0
0
ENDTAB
0
TABLE
2
LTYPE
5
232a
100
AcDbSymbolTable
70
3
0
LTYPE
5
2332
100
AcDbSymbolTableRecord
100
AcDbLinetypeTableRecord
2
Solid
70
0
72
65
73
0
3

0
LTYPE
5
2333
100
AcDbSymbolTableRecord
100
AcDbLinetypeTableRecord
2
ByBlock
70
0
72
65
73
0
3

0
LTYPE
5
2334
100
AcDbSymbolTableRecord
100
AcDbLinetypeTableRecord
2
ByLayer
70
0
72
65
73
0
3

0
ENDTAB
0
TABLE
2
LAYER
5
232b
100
AcDbSymbolTable
70
1
0
LAYER
5
2335
100
AcDbSymbolTableRecord
100
AcDbLayerTableRecord
2
0
70
0
390
0
0
ENDTAB
0
TABLE
2
STYLE
5
232c
100
AcDbSymbolTable
70
0
0
ENDTAB
0
TABLE
2
VIEW
5
232d
100
AcDbSymbolTable
70
0
0
ENDTAB
0
TABLE
2
UCS
5
232e
100
AcDbSymbolTable
70
0
0
ENDTAB
0
TABLE
2
APPID
5
232f
100
AcDbSymbolTable
70
1
0
APPID
5
2336
100
AcDbSymbolTableRecord
100
AcDbRegAppTableRecord
2
ACAD
70
0
0
ENDTAB
0
TABLE
2
DIMSTYLE
5
2330
100
AcDbSymbolTable
70
0
100
AcDbDimStyleTable
71
1
0
ENDTAB
0
TABLE
2
BLOCK_RECORD
5
2331
100
AcDbSymbolTable
70
2
0
BLOCK_RECORD
5
2337
100
AcDbSymbolTableRecord
100
AcDbBlockTableRecord
2
*Model_Space
70
0
280
1
281
0
0
BLOCK_RECORD
5
2338
100
AcDbSymbolTableRecord
100
AcDbBlockTableRecord
2
*Paper_Space
70
0
280
1
281
0
0
ENDTAB
0
ENDSEC
0
SECTION
2
BLOCKS
0
BLOCK
5
2339
100
AcDbEntity
100
AcDbBlockBegin
2
*Model_Space
70
0
10
0
20
0
30
0
3
*Model_Space
1

0
ENDBLK
5
233a
100
AcDbEntity
100
AcDbBlockEnd
0
BLOCK
5
233b
100
AcDbEntity
100
AcDbBlockBegin
2
*Paper_Space
70
0
10
0
20
0
30
0
3
*Paper_Space
1

0
ENDBLK
5
233c
100
AcDbEntity
100
AcDbBlockEnd
0
ENDSEC
0
SECTION
2
ENTITIES
0
LWPOLYLINE
5
233f
100
AcDbEntity
100
AcDbPolyline
90
63
70
1
10
5286.0
20
-4.0
30
0.0
10
5292.0
20
-4.0
30
0.0
10
5309.0
20
-4.0
30
0.0
10
5334.0
20
-4.0
30
0.0
10
5366.0
20
-4.0
30
0.0
10
5403.0
20
-4.0
30
0.0
10
5442.0
20
-4.0
30
0.0
10
5482.0
20
-3.0
30
0.0
10
5529.0
20
-2.0
30
0.0
10
5575.0
20
-1.0
30
0.0
10
5618.0
20
0.0
30
0.0
10
5659.0
20
0.0
30
0.0
10
5698.0
20
-2.0
30
0.0
10
5733.0
20
-7.0
30
0.0
10
5766.0
20
-14.0
30
0.0
10
5787.0
20
-21.0
30
0.0
10
5807.0
20
-30.0
30
0.0
10
5825.0
20
-42.0
30
0.0
10
5841.0
20
-57.0
30
0.0
10
5855.0
20
-74.0
30
0.0
10
5866.0
20
-95.0
30
0.0
10
5875.0
20
-120.0
30
0.0
10
5881.0
20
-150.0
30
0.0
10
5885.0
20
-181.0
30
0.0
10
5888.0
20
-213.0
30
0.0
10
5889.0
20
-241.0
30
0.0
10
5889.0
20
-265.0
30
0.0
10
5888.0
20
-280.0
30
0.0
10
5888.0
20
-286.0
30
0.0
10
5894.0
20
-959.0
30
0.0
10
2947.0
20
-959.0
30
0.0
10
0.0
20
-959.0
30
0.0
10
6.0
20
-286.0
30
0.0
10
5.0
20
-280.0
30
0.0
10
5.0
20
-265.0
30
0.0
10
5.0
20
-241.0
30
0.0
10
6.0
20
-213.0
30
0.0
10
8.0
20
-181.0
30
0.0
10
13.0
20
-150.0
30
0.0
10
19.0
20
-120.0
30
0.0
10
28.0
20
-95.0
30
0.0
10
39.0
20
-74.0
30
0.0
10
53.0
20
-57.0
30
0.0
10
69.0
20
-42.0
30
0.0
10
86.0
20
-30.0
30
0.0
10
106.0
20
-21.0
30
0.0
10
128.0
20
-14.0
30
0.0
10
161.0
20
-7.0
30
0.0
10
196.0
20
-2.0
30
0.0
10
235.0
20
0.0
30
0.0
10
276.0
20
0.0
30
0.0
10
319.0
20
-1.0
30
0.0
10
364.0
20
-2.0
30
0.0
10
412.0
20
-3.0
30
0.0
10
452.0
20
-4.0
30
0.0
10
491.0
20
-4.0
30
0.0
10
528.0
20
-4.0
30
0.0
10
560.0
20
-4.0
30
0.0
10
585.0
20
-4.0
30
0.0
10
601.0
20
-4.0
30
0.0
10
607.0
20
-4.0
30
0.0
10
2947.0
20
-6.0
30
0.0
10
5286.0
20
-4.0
30
0.0
6
Solid
370
35
62
0
0
ENDSEC
0
SECTION
2
OBJECTS
0
DICTIONARY
5
233d
330
0
100
AcDbDictionary
281
1
3
ACAD_GROUP
350
233e
0
DICTIONARY
5
233e
330
233d
100
AcDbDictionary
281
1
0
ENDSEC
0
EOF
