999

0
SECTION
2
HEADER
9
$ACADVER
1
AC1021
9
$HANDSEED
5
2373
0
ENDSEC
0
SECTION
2
CLASSES
0
ENDSEC
0
SECTION
2
TABLES
0
TABLE
2
VPORT
5
235b
100
AcDbSymbolTable
70
1
0
VPORT
5
235a
100
AcDbSymbolTableRecord
100
AcDbViewportTableRecord
2
*ACTIVE
10
0
20
0
11
1
21
1
12
500.0
22
500.0
40
1000.0
70
0
0
ENDTAB
0
TABLE
2
LTYPE
5
235c
100
AcDbSymbolTable
70
3
0
LTYPE
5
2364
100
AcDbSymbolTableRecord
100
AcDbLinetypeTableRecord
2
Solid
70
0
72
65
73
0
3

0
LTYPE
5
2365
100
AcDbSymbolTableRecord
100
AcDbLinetypeTableRecord
2
ByBlock
70
0
72
65
73
0
3

0
LTYPE
5
2366
100
AcDbSymbolTableRecord
100
AcDbLinetypeTableRecord
2
ByLayer
70
0
72
65
73
0
3

0
ENDTAB
0
TABLE
2
LAYER
5
235d
100
AcDbSymbolTable
70
1
0
LAYER
5
2367
100
AcDbSymbolTableRecord
100
AcDbLayerTableRecord
2
0
70
0
390
0
0
ENDTAB
0
TABLE
2
STYLE
5
235e
100
AcDbSymbolTable
70
0
0
ENDTAB
0
TABLE
2
VIEW
5
235f
100
AcDbSymbolTable
70
0
0
ENDTAB
0
TABLE
2
UCS
5
2360
100
AcDbSymbolTable
70
0
0
ENDTAB
0
TABLE
2
APPID
5
2361
100
AcDbSymbolTable
70
1
0
APPID
5
2368
100
AcDbSymbolTableRecord
100
AcDbRegAppTableRecord
2
ACAD
70
0
0
ENDTAB
0
TABLE
2
DIMSTYLE
5
2362
100
AcDbSymbolTable
70
0
100
AcDbDimStyleTable
71
1
0
ENDTAB
0
TABLE
2
BLOCK_RECORD
5
2363
100
AcDbSymbolTable
70
2
0
BLOCK_RECORD
5
2369
100
AcDbSymbolTableRecord
100
AcDbBlockTableRecord
2
*Model_Space
70
0
280
1
281
0
0
BLOCK_RECORD
5
236a
100
AcDbSymbolTableRecord
100
AcDbBlockTableRecord
2
*Paper_Space
70
0
280
1
281
0
0
ENDTAB
0
ENDSEC
0
SECTION
2
BLOCKS
0
BLOCK
5
236b
100
AcDbEntity
100
AcDbBlockBegin
2
*Model_Space
70
0
10
0
20
0
30
0
3
*Model_Space
1

0
ENDBLK
5
236c
100
AcDbEntity
100
AcDbBlockEnd
0
BLOCK
5
236d
100
AcDbEntity
100
AcDbBlockBegin
2
*Paper_Space
70
0
10
0
20
0
30
0
3
*Paper_Space
1

0
ENDBLK
5
236e
100
AcDbEntity
100
AcDbBlockEnd
0
ENDSEC
0
SECTION
2
ENTITIES
0
LWPOLYLINE
5
2371
100
AcDbEntity
100
AcDbPolyline
90
85
70
1
10
2998.0
20
-1512.0
30
0.0
10
2888.0
20
-1507.0
30
0.0
10
2717.0
20
-1498.0
30
0.0
10
2496.0
20
-1485.0
30
0.0
10
2236.0
20
-1466.0
30
0.0
10
1948.0
20
-1442.0
30
0.0
10
1642.0
20
-1410.0
30
0.0
10
1367.0
20
-1377.0
30
0.0
10
1096.0
20
-1340.0
30
0.0
10
838.0
20
-1299.0
30
0.0
10
603.0
20
-1255.0
30
0.0
10
398.0
20
-1211.0
30
0.0
10
234.0
20
-1167.0
30
0.0
10
120.0
20
-1123.0
30
0.0
10
96.0
20
-1110.0
30
0.0
10
76.0
20
-1096.0
30
0.0
10
61.0
20
-1083.0
30
0.0
10
50.0
20
-1070.0
30
0.0
10
41.0
20
-1057.0
30
0.0
10
33.0
20
-1044.0
30
0.0
10
27.0
20
-1031.0
30
0.0
10
19.0
20
-1014.0
30
0.0
10
11.0
20
-996.0
30
0.0
10
5.0
20
-975.0
30
0.0
10
1.0
20
-950.0
30
0.0
10
0.0
20
-920.0
30
0.0
10
2.0
20
-883.0
30
0.0
10
8.0
20
-838.0
30
0.0
10
35.0
20
-714.0
30
0.0
10
77.0
20
-564.0
30
0.0
10
127.0
20
-405.0
30
0.0
10
178.0
20
-252.0
30
0.0
10
223.0
20
-123.0
30
0.0
10
254.0
20
-33.0
30
0.0
10
267.0
20
0.0
30
0.0
10
293.0
20
-3.0
30
0.0
10
366.0
20
-11.0
30
0.0
10
474.0
20
-24.0
30
0.0
10
606.0
20
-40.0
30
0.0
10
753.0
20
-58.0
30
0.0
10
903.0
20
-77.0
30
0.0
10
1046.0
20
-97.0
30
0.0
10
1161.0
20
-114.0
30
0.0
10
1264.0
20
-131.0
30
0.0
10
1357.0
20
-147.0
30
0.0
10
1442.0
20
-162.0
30
0.0
10
1522.0
20
-177.0
30
0.0
10
1598.0
20
-190.0
30
0.0
10
1674.0
20
-203.0
30
0.0
10
1718.0
20
-210.0
30
0.0
10
1761.0
20
-217.0
30
0.0
10
1800.0
20
-223.0
30
0.0
10
1834.0
20
-228.0
30
0.0
10
1861.0
20
-231.0
30
0.0
10
1878.0
20
-234.0
30
0.0
10
1884.0
20
-235.0
30
0.0
10
1905.0
20
-237.0
30
0.0
10
1961.0
20
-245.0
30
0.0
10
2048.0
20
-255.0
30
0.0
10
2156.0
20
-267.0
30
0.0
10
2281.0
20
-280.0
30
0.0
10
2414.0
20
-292.0
30
0.0
10
2548.0
20
-301.0
30
0.0
10
2663.0
20
-308.0
30
0.0
10
2770.0
20
-312.0
30
0.0
10
2865.0
20
-314.0
30
0.0
10
2946.0
20
-315.0
30
0.0
10
3008.0
20
-315.0
30
0.0
10
3048.0
20
-315.0
30
0.0
10
3062.0
20
-315.0
30
0.0
10
3062.0
20
-333.0
30
0.0
10
3061.0
20
-385.0
30
0.0
10
3060.0
20
-464.0
30
0.0
10
3058.0
20
-564.0
30
0.0
10
3056.0
20
-680.0
30
0.0
10
3053.0
20
-806.0
30
0.0
10
3051.0
20
-937.0
30
0.0
10
3048.0
20
-1061.0
30
0.0
10
3045.0
20
-1179.0
30
0.0
10
3043.0
20
-1287.0
30
0.0
10
3040.0
20
-1379.0
30
0.0
10
3039.0
20
-1450.0
30
0.0
10
3037.0
20
-1497.0
30
0.0
10
3037.0
20
-1513.0
30
0.0
10
2998.0
20
-1512.0
30
0.0
6
Solid
370
35
62
0
0
ENDSEC
0
SECTION
2
OBJECTS
0
DICTIONARY
5
236f
330
0
100
AcDbDictionary
281
1
3
ACAD_GROUP
350
2370
0
DICTIONARY
5
2370
330
236f
100
AcDbDictionary
281
1
0
ENDSEC
0
EOF
