999

0
SECTION
2
HEADER
9
$ACADVER
1
AC1021
9
$HANDSEED
5
27ff
0
ENDSEC
0
SECTION
2
CLASSES
0
ENDSEC
0
SECTION
2
TABLES
0
TABLE
2
VPORT
5
27ca
100
AcDbSymbolTable
70
1
0
VPORT
5
27c9
100
AcDbSymbolTableRecord
100
AcDbViewportTableRecord
2
*ACTIVE
10
0
20
0
11
1
21
1
12
500.0
22
500.0
40
1000.0
70
0
0
ENDTAB
0
TABLE
2
LTYPE
5
27cb
100
AcDbSymbolTable
70
3
0
LTYPE
5
27d3
100
AcDbSymbolTableRecord
100
AcDbLinetypeTableRecord
2
Solid
70
0
72
65
73
0
3

0
LTYPE
5
27d4
100
AcDbSymbolTableRecord
100
AcDbLinetypeTableRecord
2
ByBlock
70
0
72
65
73
0
3

0
LTYPE
5
27d5
100
AcDbSymbolTableRecord
100
AcDbLinetypeTableRecord
2
ByLayer
70
0
72
65
73
0
3

0
ENDTAB
0
TABLE
2
LAYER
5
27cc
100
AcDbSymbolTable
70
6
0
LAYER
5
27d6
100
AcDbSymbolTableRecord
100
AcDbLayerTableRecord
2
0
70
0
390
0
0
LAYER
5
27f0
100
AcDbSymbolTableRecord
100
AcDbLayerTableRecord
2
zone_0_q2
70
0
390
0
0
LAYER
5
27f3
100
AcDbSymbolTableRecord
100
AcDbLayerTableRecord
2
zone_1_q3
70
0
390
0
0
LAYER
5
27f6
100
AcDbSymbolTableRecord
100
AcDbLayerTableRecord
2
zone_2_q3
70
0
390
0
0
LAYER
5
27f9
100
AcDbSymbolTableRecord
100
AcDbLayerTableRecord
2
zone_3_q3
70
0
390
0
0
LAYER
5
27fc
100
AcDbSymbolTableRecord
100
AcDbLayerTableRecord
2
zone_4_q3
70
0
390
0
0
ENDTAB
0
TABLE
2
STYLE
5
27cd
100
AcDbSymbolTable
70
0
0
ENDTAB
0
TABLE
2
VIEW
5
27ce
100
AcDbSymbolTable
70
0
0
ENDTAB
0
TABLE
2
UCS
5
27cf
100
AcDbSymbolTable
70
0
0
ENDTAB
0
TABLE
2
APPID
5
27d0
100
AcDbSymbolTable
70
1
0
APPID
5
27d7
100
AcDbSymbolTableRecord
100
AcDbRegAppTableRecord
2
ACAD
70
0
0
ENDTAB
0
TABLE
2
DIMSTYLE
5
27d1
100
AcDbSymbolTable
70
0
100
AcDbDimStyleTable
71
1
0
ENDTAB
0
TABLE
2
BLOCK_RECORD
5
27d2
100
AcDbSymbolTable
70
2
0
BLOCK_RECORD
5
27d8
100
AcDbSymbolTableRecord
100
AcDbBlockTableRecord
2
*Model_Space
70
0
280
1
281
0
0
BLOCK_RECORD
5
27d9
100
AcDbSymbolTableRecord
100
AcDbBlockTableRecord
2
*Paper_Space
70
0
280
1
281
0
0
ENDTAB
0
ENDSEC
0
SECTION
2
BLOCKS
0
BLOCK
5
27da
100
AcDbEntity
100
AcDbBlockBegin
2
*Model_Space
70
0
10
0
20
0
30
0
3
*Model_Space
1

0
ENDBLK
5
27db
100
AcDbEntity
100
AcDbBlockEnd
0
BLOCK
5
27dc
100
AcDbEntity
100
AcDbBlockBegin
2
*Paper_Space
70
0
10
0
20
0
30
0
3
*Paper_Space
1

0
ENDBLK
5
27dd
100
AcDbEntity
100
AcDbBlockEnd
0
ENDSEC
0
SECTION
2
ENTITIES
0
LWPOLYLINE
5
27e0
100
AcDbEntity
100
AcDbPolyline
90
1603
70
1
10
1446.0
20
-552.0
30
0.0
10
1459.0
20
-539.0
30
0.0
10
1479.0
20
-520.0
30
0.0
10
1502.0
20
-497.0
30
0.0
10
1528.0
20
-471.0
30
0.0
10
1555.0
20
-445.0
30
0.0
10
1579.0
20
-420.0
30
0.0
10
1594.0
20
-405.0
30
0.0
10
1606.0
20
-392.0
30
0.0
10
1617.0
20
-382.0
30
0.0
10
1625.0
20
-373.0
30
0.0
10
1632.0
20
-366.0
30
0.0
10
1635.0
20
-362.0
30
0.0
10
1637.0
20
-360.0
30
0.0
10
1640.0
20
-358.0
30
0.0
10
1649.0
20
-353.0
30
0.0
10
1661.0
20
-344.0
30
0.0
10
1678.0
20
-332.0
30
0.0
10
1696.0
20
-319.0
30
0.0
10
1714.0
20
-304.0
30
0.0
10
1733.0
20
-288.0
30
0.0
10
1753.0
20
-270.0
30
0.0
10
1770.0
20
-251.0
30
0.0
10
1787.0
20
-232.0
30
0.0
10
1801.0
20
-213.0
30
0.0
10
1815.0
20
-196.0
30
0.0
10
1828.0
20
-179.0
30
0.0
10
1839.0
20
-163.0
30
0.0
10
1849.0
20
-151.0
30
0.0
10
1859.0
20
-139.0
30
0.0
10
1869.0
20
-128.0
30
0.0
10
1879.0
20
-117.0
30
0.0
10
1890.0
20
-105.0
30
0.0
10
1903.0
20
-92.0
30
0.0
10
1916.0
20
-79.0
30
0.0
10
1932.0
20
-64.0
30
0.0
10
1947.0
20
-49.0
30
0.0
10
1962.0
20
-34.0
30
0.0
10
1976.0
20
-20.0
30
0.0
10
1987.0
20
-10.0
30
0.0
10
1994.0
20
-3.0
30
0.0
10
1997.0
20
0.0
30
0.0
10
2000.0
20
-5.0
30
0.0
10
2006.0
20
-19.0
30
0.0
10
2017.0
20
-40.0
30
0.0
10
2029.0
20
-64.0
30
0.0
10
2044.0
20
-91.0
30
0.0
10
2059.0
20
-117.0
30
0.0
10
2074.0
20
-140.0
30
0.0
10
2086.0
20
-157.0
30
0.0
10
2097.0
20
-171.0
30
0.0
10
2108.0
20
-182.0
30
0.0
10
2120.0
20
-192.0
30
0.0
10
2132.0
20
-200.0
30
0.0
10
2145.0
20
-209.0
30
0.0
10
2159.0
20
-218.0
30
0.0
10
2180.0
20
-230.0
30
0.0
10
2202.0
20
-244.0
30
0.0
10
2226.0
20
-259.0
30
0.0
10
2250.0
20
-275.0
30
0.0
10
2274.0
20
-292.0
30
0.0
10
2297.0
20
-308.0
30
0.0
10
2319.0
20
-324.0
30
0.0
10
2336.0
20
-338.0
30
0.0
10
2353.0
20
-351.0
30
0.0
10
2369.0
20
-364.0
30
0.0
10
2385.0
20
-376.0
30
0.0
10
2402.0
20
-387.0
30
0.0
10
2422.0
20
-397.0
30
0.0
10
2444.0
20
-406.0
30
0.0
10
2467.0
20
-413.0
30
0.0
10
2491.0
20
-420.0
30
0.0
10
2515.0
20
-425.0
30
0.0
10
2536.0
20
-429.0
30
0.0
10
2554.0
20
-432.0
30
0.0
10
2565.0
20
-433.0
30
0.0
10
2570.0
20
-434.0
30
0.0
10
2572.0
20
-437.0
30
0.0
10
2580.0
20
-447.0
30
0.0
10
2593.0
20
-461.0
30
0.0
10
2609.0
20
-481.0
30
0.0
10
2629.0
20
-503.0
30
0.0
10
2653.0
20
-529.0
30
0.0
10
2678.0
20
-557.0
30
0.0
10
2713.0
20
-592.0
30
0.0
10
2749.0
20
-628.0
30
0.0
10
2783.0
20
-662.0
30
0.0
10
2814.0
20
-691.0
30
0.0
10
2839.0
20
-714.0
30
0.0
10
2855.0
20
-730.0
30
0.0
10
2861.0
20
-736.0
30
0.0
10
2840.0
20
-523.0
30
0.0
10
2828.0
20
-240.0
30
0.0
10
2831.0
20
-242.0
30
0.0
10
2841.0
20
-247.0
30
0.0
10
2856.0
20
-255.0
30
0.0
10
2875.0
20
-264.0
30
0.0
10
2896.0
20
-275.0
30
0.0
10
2920.0
20
-285.0
30
0.0
10
2944.0
20
-295.0
30
0.0
10
2975.0
20
-306.0
30
0.0
10
3005.0
20
-315.0
30
0.0
10
3035.0
20
-322.0
30
0.0
10
3064.0
20
-328.0
30
0.0
10
3091.0
20
-333.0
30
0.0
10
3118.0
20
-337.0
30
0.0
10
3144.0
20
-341.0
30
0.0
10
3163.0
20
-343.0
30
0.0
10
3181.0
20
-346.0
30
0.0
10
3199.0
20
-349.0
30
0.0
10
3217.0
20
-352.0
30
0.0
10
3234.0
20
-356.0
30
0.0
10
3251.0
20
-360.0
30
0.0
10
3267.0
20
-366.0
30
0.0
10
3284.0
20
-373.0
30
0.0
10
3301.0
20
-381.0
30
0.0
10
3318.0
20
-390.0
30
0.0
10
3335.0
20
-399.0
30
0.0
10
3352.0
20
-407.0
30
0.0
10
3369.0
20
-416.0
30
0.0
10
3385.0
20
-424.0
30
0.0
10
3400.0
20
-430.0
30
0.0
10
3415.0
20
-435.0
30
0.0
10
3430.0
20
-439.0
30
0.0
10
3445.0
20
-443.0
30
0.0
10
3460.0
20
-445.0
30
0.0
10
3474.0
20
-447.0
30
0.0
10
3489.0
20
-447.0
30
0.0
10
3506.0
20
-446.0
30
0.0
10
3524.0
20
-444.0
30
0.0
10
3542.0
20
-441.0
30
0.0
10
3561.0
20
-439.0
30
0.0
10
3581.0
20
-437.0
30
0.0
10
3603.0
20
-436.0
30
0.0
10
3627.0
20
-437.0
30
0.0
10
3653.0
20
-439.0
30
0.0
10
3680.0
20
-443.0
30
0.0
10
3705.0
20
-447.0
30
0.0
10
3728.0
20
-452.0
30
0.0
10
3746.0
20
-456.0
30
0.0
10
3758.0
20
-458.0
30
0.0
10
3763.0
20
-459.0
30
0.0
10
3765.0
20
-462.0
30
0.0
10
3770.0
20
-470.0
30
0.0
10
3779.0
20
-482.0
30
0.0
10
3789.0
20
-496.0
30
0.0
10
3801.0
20
-513.0
30
0.0
10
3813.0
20
-529.0
30
0.0
10
3826.0
20
-545.0
30
0.0
10
3838.0
20
-560.0
30
0.0
10
3850.0
20
-574.0
30
0.0
10
3861.0
20
-586.0
30
0.0
10
3872.0
20
-597.0
30
0.0
10
3883.0
20
-607.0
30
0.0
10
3894.0
20
-617.0
30
0.0
10
3906.0
20
-626.0
30
0.0
10
3916.0
20
-633.0
30
0.0
10
3927.0
20
-641.0
30
0.0
10
3938.0
20
-648.0
30
0.0
10
3949.0
20
-655.0
30
0.0
10
3960.0
20
-661.0
30
0.0
10
3971.0
20
-667.0
30
0.0
10
3981.0
20
-672.0
30
0.0
10
3990.0
20
-676.0
30
0.0
10
3998.0
20
-680.0
30
0.0
10
4006.0
20
-683.0
30
0.0
10
4015.0
20
-686.0
30
0.0
10
4023.0
20
-689.0
30
0.0
10
4032.0
20
-692.0
30
0.0
10
4041.0
20
-694.0
30
0.0
10
4055.0
20
-698.0
30
0.0
10
4069.0
20
-701.0
30
0.0
10
4084.0
20
-704.0
30
0.0
10
4100.0
20
-706.0
30
0.0
10
4117.0
20
-707.0
30
0.0
10
4136.0
20
-707.0
30
0.0
10
4155.0
20
-705.0
30
0.0
10
4175.0
20
-701.0
30
0.0
10
4195.0
20
-696.0
30
0.0
10
4213.0
20
-691.0
30
0.0
10
4229.0
20
-686.0
30
0.0
10
4242.0
20
-682.0
30
0.0
10
4251.0
20
-679.0
30
0.0
10
4254.0
20
-677.0
30
0.0
10
4260.0
20
-678.0
30
0.0
10
4274.0
20
-678.0
30
0.0
10
4296.0
20
-678.0
30
0.0
10
4324.0
20
-678.0
30
0.0
10
4354.0
20
-678.0
30
0.0
10
4386.0
20
-677.0
30
0.0
10
4418.0
20
-675.0
30
0.0
10
4448.0
20
-673.0
30
0.0
10
4476.0
20
-670.0
30
0.0
10
4502.0
20
-666.0
30
0.0
10
4527.0
20
-661.0
30
0.0
10
4550.0
20
-656.0
30
0.0
10
4572.0
20
-651.0
30
0.0
10
4594.0
20
-645.0
30
0.0
10
4616.0
20
-638.0
30
0.0
10
4639.0
20
-632.0
30
0.0
10
4662.0
20
-625.0
30
0.0
10
4687.0
20
-619.0
30
0.0
10
4714.0
20
-614.0
30
0.0
10
4743.0
20
-609.0
30
0.0
10
4775.0
20
-606.0
30
0.0
10
4808.0
20
-604.0
30
0.0
10
4843.0
20
-602.0
30
0.0
10
4875.0
20
-602.0
30
0.0
10
4905.0
20
-602.0
30
0.0
10
4929.0
20
-602.0
30
0.0
10
4944.0
20
-602.0
30
0.0
10
4950.0
20
-602.0
30
0.0
10
4952.0
20
-604.0
30
0.0
10
4956.0
20
-607.0
30
0.0
10
4963.0
20
-612.0
30
0.0
10
4972.0
20
-618.0
30
0.0
10
4983.0
20
-624.0
30
0.0
10
4995.0
20
-630.0
30
0.0
10
5007.0
20
-635.0
30
0.0
10
5023.0
20
-640.0
30
0.0
10
5040.0
20
-643.0
30
0.0
10
5057.0
20
-644.0
30
0.0
10
5073.0
20
-645.0
30
0.0
10
5091.0
20
-645.0
30
0.0
10
5108.0
20
-645.0
30
0.0
10
5125.0
20
-645.0
30
0.0
10
5127.0
20
-645.0
30
0.0
10
5129.0
20
-645.0
30
0.0
10
5130.0
20
-645.0
30
0.0
10
5132.0
20
-645.0
30
0.0
10
5134.0
20
-645.0
30
0.0
10
5136.0
20
-645.0
30
0.0
10
5137.0
20
-645.0
30
0.0
10
5159.0
20
-646.0
30
0.0
10
5181.0
20
-648.0
30
0.0
10
5204.0
20
-651.0
30
0.0
10
5228.0
20
-653.0
30
0.0
10
5252.0
20
-655.0
30
0.0
10
5278.0
20
-655.0
30
0.0
10
5306.0
20
-654.0
30
0.0
10
5332.0
20
-651.0
30
0.0
10
5358.0
20
-647.0
30
0.0
10
5383.0
20
-643.0
30
0.0
10
5404.0
20
-638.0
30
0.0
10
5422.0
20
-634.0
30
0.0
10
5433.0
20
-631.0
30
0.0
10
5437.0
20
-630.0
30
0.0
10
5439.0
20
-631.0
30
0.0
10
5446.0
20
-636.0
30
0.0
10
5456.0
20
-642.0
30
0.0
10
5468.0
20
-649.0
30
0.0
10
5483.0
20
-657.0
30
0.0
10
5498.0
20
-665.0
30
0.0
10
5514.0
20
-673.0
30
0.0
10
5533.0
20
-680.0
30
0.0
10
5552.0
20
-686.0
30
0.0
10
5571.0
20
-691.0
30
0.0
10
5589.0
20
-695.0
30
0.0
10
5607.0
20
-698.0
30
0.0
10
5625.0
20
-700.0
30
0.0
10
5643.0
20
-703.0
30
0.0
10
5660.0
20
-705.0
30
0.0
10
5678.0
20
-708.0
30
0.0
10
5695.0
20
-709.0
30
0.0
10
5712.0
20
-711.0
30
0.0
10
5728.0
20
-711.0
30
0.0
10
5745.0
20
-710.0
30
0.0
10
5761.0
20
-707.0
30
0.0
10
5779.0
20
-703.0
30
0.0
10
5796.0
20
-696.0
30
0.0
10
5814.0
20
-688.0
30
0.0
10
5832.0
20
-680.0
30
0.0
10
5851.0
20
-672.0
30
0.0
10
5872.0
20
-664.0
30
0.0
10
5895.0
20
-657.0
30
0.0
10
5928.0
20
-651.0
30
0.0
10
5965.0
20
-646.0
30
0.0
10
6003.0
20
-644.0
30
0.0
10
6043.0
20
-644.0
30
0.0
10
6082.0
20
-645.0
30
0.0
10
6119.0
20
-647.0
30
0.0
10
6154.0
20
-650.0
30
0.0
10
6179.0
20
-652.0
30
0.0
10
6203.0
20
-655.0
30
0.0
10
6225.0
20
-657.0
30
0.0
10
6246.0
20
-659.0
30
0.0
10
6266.0
20
-661.0
30
0.0
10
6286.0
20
-663.0
30
0.0
10
6307.0
20
-663.0
30
0.0
10
6328.0
20
-663.0
30
0.0
10
6350.0
20
-663.0
30
0.0
10
6372.0
20
-661.0
30
0.0
10
6394.0
20
-658.0
30
0.0
10
6416.0
20
-653.0
30
0.0
10
6439.0
20
-648.0
30
0.0
10
6462.0
20
-641.0
30
0.0
10
6483.0
20
-633.0
30
0.0
10
6503.0
20
-624.0
30
0.0
10
6524.0
20
-614.0
30
0.0
10
6545.0
20
-604.0
30
0.0
10
6565.0
20
-593.0
30
0.0
10
6585.0
20
-582.0
30
0.0
10
6605.0
20
-571.0
30
0.0
10
6610.0
20
-569.0
30
0.0
10
6614.0
20
-566.0
30
0.0
10
6618.0
20
-564.0
30
0.0
10
6623.0
20
-562.0
30
0.0
10
6627.0
20
-559.0
30
0.0
10
6631.0
20
-557.0
30
0.0
10
6636.0
20
-555.0
30
0.0
10
6658.0
20
-543.0
30
0.0
10
6680.0
20
-532.0
30
0.0
10
6702.0
20
-521.0
30
0.0
10
6723.0
20
-511.0
30
0.0
10
6745.0
20
-499.0
30
0.0
10
6766.0
20
-488.0
30
0.0
10
6788.0
20
-475.0
30
0.0
10
6810.0
20
-461.0
30
0.0
10
6832.0
20
-447.0
30
0.0
10
6854.0
20
-432.0
30
0.0
10
6876.0
20
-419.0
30
0.0
10
6898.0
20
-406.0
30
0.0
10
6920.0
20
-396.0
30
0.0
10
6942.0
20
-388.0
30
0.0
10
6962.0
20
-384.0
30
0.0
10
6982.0
20
-381.0
30
0.0
10
7002.0
20
-379.0
30
0.0
10
7022.0
20
-377.0
30
0.0
10
7042.0
20
-374.0
30
0.0
10
7063.0
20
-369.0
30
0.0
10
7083.0
20
-361.0
30
0.0
10
7100.0
20
-352.0
30
0.0
10
7117.0
20
-341.0
30
0.0
10
7132.0
20
-330.0
30
0.0
10
7145.0
20
-319.0
30
0.0
10
7156.0
20
-310.0
30
0.0
10
7162.0
20
-304.0
30
0.0
10
7165.0
20
-301.0
30
0.0
10
7169.0
20
-302.0
30
0.0
10
7181.0
20
-305.0
30
0.0
10
7199.0
20
-308.0
30
0.0
10
7222.0
20
-312.0
30
0.0
10
7248.0
20
-317.0
30
0.0
10
7276.0
20
-322.0
30
0.0
10
7305.0
20
-326.0
30
0.0
10
7344.0
20
-332.0
30
0.0
10
7383.0
20
-337.0
30
0.0
10
7420.0
20
-341.0
30
0.0
10
7458.0
20
-345.0
30
0.0
10
7497.0
20
-349.0
30
0.0
10
7537.0
20
-353.0
30
0.0
10
7580.0
20
-358.0
30
0.0
10
7632.0
20
-364.0
30
0.0
10
7686.0
20
-371.0
30
0.0
10
7742.0
20
-378.0
30
0.0
10
7797.0
20
-387.0
30
0.0
10
7850.0
20
-397.0
30
0.0
10
7901.0
20
-409.0
30
0.0
10
7947.0
20
-421.0
30
0.0
10
7975.0
20
-430.0
30
0.0
10
8000.0
20
-439.0
30
0.0
10
8023.0
20
-448.0
30
0.0
10
8044.0
20
-456.0
30
0.0
10
8064.0
20
-463.0
30
0.0
10
8081.0
20
-468.0
30
0.0
10
8097.0
20
-472.0
30
0.0
10
8108.0
20
-474.0
30
0.0
10
8118.0
20
-474.0
30
0.0
10
8128.0
20
-474.0
30
0.0
10
8138.0
20
-472.0
30
0.0
10
8150.0
20
-468.0
30
0.0
10
8162.0
20
-464.0
30
0.0
10
8175.0
20
-458.0
30
0.0
10
8193.0
20
-449.0
30
0.0
10
8213.0
20
-439.0
30
0.0
10
8232.0
20
-429.0
30
0.0
10
8249.0
20
-420.0
30
0.0
10
8263.0
20
-412.0
30
0.0
10
8272.0
20
-407.0
30
0.0
10
8276.0
20
-405.0
30
0.0
10
8278.0
20
-407.0
30
0.0
10
8286.0
20
-413.0
30
0.0
10
8299.0
20
-422.0
30
0.0
10
8314.0
20
-433.0
30
0.0
10
8332.0
20
-447.0
30
0.0
10
8351.0
20
-462.0
30
0.0
10
8370.0
20
-478.0
30
0.0
10
8389.0
20
-495.0
30
0.0
10
8407.0
20
-511.0
30
0.0
10
8423.0
20
-526.0
30
0.0
10
8436.0
20
-539.0
30
0.0
10
8447.0
20
-549.0
30
0.0
10
8454.0
20
-556.0
30
0.0
10
8456.0
20
-559.0
30
0.0
10
8671.0
20
-348.0
30
0.0
10
8678.0
20
-352.0
30
0.0
10
8699.0
20
-361.0
30
0.0
10
8729.0
20
-376.0
30
0.0
10
8766.0
20
-393.0
30
0.0
10
8808.0
20
-413.0
30
0.0
10
8850.0
20
-433.0
30
0.0
10
8891.0
20
-452.0
30
0.0
10
8928.0
20
-468.0
30
0.0
10
8961.0
20
-483.0
30
0.0
10
8992.0
20
-497.0
30
0.0
10
9021.0
20
-510.0
30
0.0
10
9051.0
20
-522.0
30
0.0
10
9081.0
20
-535.0
30
0.0
10
9114.0
20
-549.0
30
0.0
10
9142.0
20
-561.0
30
0.0
10
9172.0
20
-574.0
30
0.0
10
9200.0
20
-586.0
30
0.0
10
9224.0
20
-596.0
30
0.0
10
9244.0
20
-605.0
30
0.0
10
9258.0
20
-610.0
30
0.0
10
9262.0
20
-612.0
30
0.0
10
9264.0
20
-619.0
30
0.0
10
9268.0
20
-636.0
30
0.0
10
9275.0
20
-662.0
30
0.0
10
9284.0
20
-693.0
30
0.0
10
9294.0
20
-728.0
30
0.0
10
9307.0
20
-762.0
30
0.0
10
9321.0
20
-794.0
30
0.0
10
9334.0
20
-819.0
30
0.0
10
9348.0
20
-841.0
30
0.0
10
9362.0
20
-859.0
30
0.0
10
9376.0
20
-876.0
30
0.0
10
9389.0
20
-891.0
30
0.0
10
9400.0
20
-906.0
30
0.0
10
9410.0
20
-921.0
30
0.0
10
9418.0
20
-935.0
30
0.0
10
9424.0
20
-949.0
30
0.0
10
9430.0
20
-965.0
30
0.0
10
9435.0
20
-981.0
30
0.0
10
9441.0
20
-997.0
30
0.0
10
9447.0
20
-1015.0
30
0.0
10
9454.0
20
-1034.0
30
0.0
10
9466.0
20
-1061.0
30
0.0
10
9479.0
20
-1091.0
30
0.0
10
9494.0
20
-1123.0
30
0.0
10
9508.0
20
-1156.0
30
0.0
10
9521.0
20
-1192.0
30
0.0
10
9532.0
20
-1229.0
30
0.0
10
9539.0
20
-1269.0
30
0.0
10
9543.0
20
-1303.0
30
0.0
10
9544.0
20
-1337.0
30
0.0
10
9544.0
20
-1368.0
30
0.0
10
9543.0
20
-1396.0
30
0.0
10
9542.0
20
-1418.0
30
0.0
10
9540.0
20
-1432.0
30
0.0
10
9540.0
20
-1438.0
30
0.0
10
9538.0
20
-1441.0
30
0.0
10
9533.0
20
-1449.0
30
0.0
10
9526.0
20
-1463.0
30
0.0
10
9518.0
20
-1479.0
30
0.0
10
9509.0
20
-1498.0
30
0.0
10
9500.0
20
-1518.0
30
0.0
10
9492.0
20
-1537.0
30
0.0
10
9485.0
20
-1559.0
30
0.0
10
9480.0
20
-1580.0
30
0.0
10
9477.0
20
-1600.0
30
0.0
10
9474.0
20
-1620.0
30
0.0
10
9473.0
20
-1639.0
30
0.0
10
9471.0
20
-1660.0
30
0.0
10
9470.0
20
-1681.0
30
0.0
10
9467.0
20
-1711.0
30
0.0
10
9464.0
20
-1742.0
30
0.0
10
9460.0
20
-1775.0
30
0.0
10
9455.0
20
-1810.0
30
0.0
10
9451.0
20
-1846.0
30
0.0
10
9446.0
20
-1884.0
30
0.0
10
9441.0
20
-1923.0
30
0.0
10
9435.0
20
-1969.0
30
0.0
10
9430.0
20
-2017.0
30
0.0
10
9425.0
20
-2066.0
30
0.0
10
9420.0
20
-2115.0
30
0.0
10
9416.0
20
-2164.0
30
0.0
10
9413.0
20
-2213.0
30
0.0
10
9410.0
20
-2261.0
30
0.0
10
9409.0
20
-2307.0
30
0.0
10
9408.0
20
-2352.0
30
0.0
10
9408.0
20
-2396.0
30
0.0
10
9408.0
20
-2440.0
30
0.0
10
9409.0
20
-2484.0
30
0.0
10
9411.0
20
-2527.0
30
0.0
10
9413.0
20
-2570.0
30
0.0
10
9416.0
20
-2613.0
30
0.0
10
9419.0
20
-2655.0
30
0.0
10
9422.0
20
-2698.0
30
0.0
10
9425.0
20
-2741.0
30
0.0
10
9428.0
20
-2784.0
30
0.0
10
9430.0
20
-2829.0
30
0.0
10
9431.0
20
-2874.0
30
0.0
10
9431.0
20
-2924.0
30
0.0
10
9430.0
20
-2975.0
30
0.0
10
9429.0
20
-3027.0
30
0.0
10
9427.0
20
-3078.0
30
0.0
10
9425.0
20
-3130.0
30
0.0
10
9424.0
20
-3181.0
30
0.0
10
9423.0
20
-3231.0
30
0.0
10
9423.0
20
-3276.0
30
0.0
10
9424.0
20
-3320.0
30
0.0
10
9425.0
20
-3364.0
30
0.0
10
9427.0
20
-3408.0
30
0.0
10
9430.0
20
-3451.0
30
0.0
10
9433.0
20
-3495.0
30
0.0
10
9436.0
20
-3539.0
30
0.0
10
9439.0
20
-3570.0
30
0.0
10
9441.0
20
-3600.0
30
0.0
10
9444.0
20
-3627.0
30
0.0
10
9446.0
20
-3651.0
30
0.0
10
9448.0
20
-3669.0
30
0.0
10
9449.0
20
-3681.0
30
0.0
10
9449.0
20
-3686.0
30
0.0
10
9446.0
20
-3689.0
30
0.0
10
9435.0
20
-3699.0
30
0.0
10
9420.0
20
-3713.0
30
0.0
10
9402.0
20
-3730.0
30
0.0
10
9383.0
20
-3750.0
30
0.0
10
9363.0
20
-3772.0
30
0.0
10
9345.0
20
-3793.0
30
0.0
10
9331.0
20
-3811.0
30
0.0
10
9320.0
20
-3829.0
30
0.0
10
9310.0
20
-3846.0
30
0.0
10
9303.0
20
-3862.0
30
0.0
10
9298.0
20
-3877.0
30
0.0
10
9294.0
20
-3892.0
30
0.0
10
9291.0
20
-3907.0
30
0.0
10
9289.0
20
-3919.0
30
0.0
10
9288.0
20
-3932.0
30
0.0
10
9288.0
20
-3945.0
30
0.0
10
9290.0
20
-3958.0
30
0.0
10
9292.0
20
-3971.0
30
0.0
10
9297.0
20
-3986.0
30
0.0
10
9303.0
20
-4001.0
30
0.0
10
9311.0
20
-4017.0
30
0.0
10
9320.0
20
-4032.0
30
0.0
10
9330.0
20
-4047.0
30
0.0
10
9339.0
20
-4061.0
30
0.0
10
9346.0
20
-4071.0
30
0.0
10
9351.0
20
-4078.0
30
0.0
10
9353.0
20
-4081.0
30
0.0
10
9352.0
20
-4085.0
30
0.0
10
9348.0
20
-4096.0
30
0.0
10
9343.0
20
-4113.0
30
0.0
10
9338.0
20
-4135.0
30
0.0
10
9332.0
20
-4160.0
30
0.0
10
9327.0
20
-4187.0
30
0.0
10
9323.0
20
-4216.0
30
0.0
10
9321.0
20
-4256.0
30
0.0
10
9323.0
20
-4295.0
30
0.0
10
9327.0
20
-4334.0
30
0.0
10
9333.0
20
-4373.0
30
0.0
10
9340.0
20
-4412.0
30
0.0
10
9347.0
20
-4450.0
30
0.0
10
9354.0
20
-4488.0
30
0.0
10
9359.0
20
-4522.0
30
0.0
10
9364.0
20
-4556.0
30
0.0
10
9368.0
20
-4590.0
30
0.0
10
9371.0
20
-4623.0
30
0.0
10
9374.0
20
-4655.0
30
0.0
10
9377.0
20
-4686.0
30
0.0
10
9380.0
20
-4716.0
30
0.0
10
9382.0
20
-4740.0
30
0.0
10
9385.0
20
-4763.0
30
0.0
10
9389.0
20
-4786.0
30
0.0
10
9394.0
20
-4808.0
30
0.0
10
9399.0
20
-4830.0
30
0.0
10
9406.0
20
-4852.0
30
0.0
10
9415.0
20
-4873.0
30
0.0
10
9422.0
20
-4889.0
30
0.0
10
9429.0
20
-4903.0
30
0.0
10
9437.0
20
-4917.0
30
0.0
10
9443.0
20
-4928.0
30
0.0
10
9449.0
20
-4937.0
30
0.0
10
9452.0
20
-4943.0
30
0.0
10
9454.0
20
-4945.0
30
0.0
10
9483.0
20
-5067.0
30
0.0
10
9481.0
20
-5068.0
30
0.0
10
9475.0
20
-5071.0
30
0.0
10
9467.0
20
-5075.0
30
0.0
10
9457.0
20
-5081.0
30
0.0
10
9446.0
20
-5089.0
30
0.0
10
9436.0
20
-5097.0
30
0.0
10
9427.0
20
-5106.0
30
0.0
10
9418.0
20
-5119.0
30
0.0
10
9412.0
20
-5133.0
30
0.0
10
9408.0
20
-5148.0
30
0.0
10
9407.0
20
-5164.0
30
0.0
10
9407.0
20
-5182.0
30
0.0
10
9409.0
20
-5200.0
30
0.0
10
9411.0
20
-5221.0
30
0.0
10
9414.0
20
-5250.0
30
0.0
10
9417.0
20
-5282.0
30
0.0
10
9421.0
20
-5314.0
30
0.0
10
9425.0
20
-5346.0
30
0.0
10
9428.0
20
-5376.0
30
0.0
10
9432.0
20
-5405.0
30
0.0
10
9435.0
20
-5430.0
30
0.0
10
9436.0
20
-5445.0
30
0.0
10
9438.0
20
-5459.0
30
0.0
10
9441.0
20
-5471.0
30
0.0
10
9444.0
20
-5484.0
30
0.0
10
9448.0
20
-5496.0
30
0.0
10
9454.0
20
-5509.0
30
0.0
10
9461.0
20
-5523.0
30
0.0
10
9471.0
20
-5540.0
30
0.0
10
9481.0
20
-5556.0
30
0.0
10
9492.0
20
-5572.0
30
0.0
10
9502.0
20
-5587.0
30
0.0
10
9510.0
20
-5599.0
30
0.0
10
9516.0
20
-5607.0
30
0.0
10
9518.0
20
-5610.0
30
0.0
10
9520.0
20
-5710.0
30
0.0
10
9519.0
20
-5713.0
30
0.0
10
9516.0
20
-5721.0
30
0.0
10
9511.0
20
-5734.0
30
0.0
10
9506.0
20
-5749.0
30
0.0
10
9501.0
20
-5768.0
30
0.0
10
9495.0
20
-5787.0
30
0.0
10
9491.0
20
-5807.0
30
0.0
10
9487.0
20
-5834.0
30
0.0
10
9485.0
20
-5859.0
30
0.0
10
9486.0
20
-5885.0
30
0.0
10
9487.0
20
-5910.0
30
0.0
10
9490.0
20
-5935.0
30
0.0
10
9494.0
20
-5960.0
30
0.0
10
9498.0
20
-5985.0
30
0.0
10
9503.0
20
-6011.0
30
0.0
10
9508.0
20
-6036.0
30
0.0
10
9513.0
20
-6062.0
30
0.0
10
9518.0
20
-6088.0
30
0.0
10
9523.0
20
-6113.0
30
0.0
10
9527.0
20
-6138.0
30
0.0
10
9531.0
20
-6163.0
30
0.0
10
9535.0
20
-6190.0
30
0.0
10
9539.0
20
-6217.0
30
0.0
10
9543.0
20
-6244.0
30
0.0
10
9548.0
20
-6274.0
30
0.0
10
9554.0
20
-6306.0
30
0.0
10
9560.0
20
-6341.0
30
0.0
10
9569.0
20
-6380.0
30
0.0
10
9581.0
20
-6430.0
30
0.0
10
9594.0
20
-6482.0
30
0.0
10
9607.0
20
-6533.0
30
0.0
10
9620.0
20
-6579.0
30
0.0
10
9630.0
20
-6616.0
30
0.0
10
9637.0
20
-6641.0
30
0.0
10
9640.0
20
-6650.0
30
0.0
10
9597.0
20
-6764.0
30
0.0
10
9553.0
20
-6850.0
30
0.0
10
9554.0
20
-6856.0
30
0.0
10
9555.0
20
-6871.0
30
0.0
10
9556.0
20
-6893.0
30
0.0
10
9559.0
20
-6920.0
30
0.0
10
9563.0
20
-6947.0
30
0.0
10
9567.0
20
-6973.0
30
0.0
10
9573.0
20
-6995.0
30
0.0
10
9578.0
20
-7007.0
30
0.0
10
9583.0
20
-7017.0
30
0.0
10
9589.0
20
-7024.0
30
0.0
10
9595.0
20
-7031.0
30
0.0
10
9602.0
20
-7038.0
30
0.0
10
9609.0
20
-7046.0
30
0.0
10
9617.0
20
-7056.0
30
0.0
10
9626.0
20
-7070.0
30
0.0
10
9635.0
20
-7086.0
30
0.0
10
9644.0
20
-7102.0
30
0.0
10
9651.0
20
-7118.0
30
0.0
10
9657.0
20
-7131.0
30
0.0
10
9661.0
20
-7139.0
30
0.0
10
9663.0
20
-7143.0
30
0.0
10
9662.0
20
-7146.0
30
0.0
10
9661.0
20
-7155.0
30
0.0
10
9660.0
20
-7169.0
30
0.0
10
9659.0
20
-7186.0
30
0.0
10
9658.0
20
-7205.0
30
0.0
10
9658.0
20
-7226.0
30
0.0
10
9659.0
20
-7247.0
30
0.0
10
9661.0
20
-7271.0
30
0.0
10
9665.0
20
-7294.0
30
0.0
10
9670.0
20
-7316.0
30
0.0
10
9676.0
20
-7337.0
30
0.0
10
9683.0
20
-7357.0
30
0.0
10
9689.0
20
-7378.0
30
0.0
10
9696.0
20
-7398.0
30
0.0
10
9703.0
20
-7420.0
30
0.0
10
9710.0
20
-7441.0
30
0.0
10
9717.0
20
-7463.0
30
0.0
10
9725.0
20
-7485.0
30
0.0
10
9733.0
20
-7507.0
30
0.0
10
9743.0
20
-7528.0
30
0.0
10
9753.0
20
-7550.0
30
0.0
10
9766.0
20
-7572.0
30
0.0
10
9780.0
20
-7594.0
30
0.0
10
9795.0
20
-7616.0
30
0.0
10
9810.0
20
-7638.0
30
0.0
10
9826.0
20
-7660.0
30
0.0
10
9842.0
20
-7681.0
30
0.0
10
9857.0
20
-7703.0
30
0.0
10
9871.0
20
-7724.0
30
0.0
10
9885.0
20
-7746.0
30
0.0
10
9898.0
20
-7767.0
30
0.0
10
9912.0
20
-7789.0
30
0.0
10
9927.0
20
-7810.0
30
0.0
10
9944.0
20
-7831.0
30
0.0
10
9962.0
20
-7852.0
30
0.0
10
9977.0
20
-7868.0
30
0.0
10
9993.0
20
-7883.0
30
0.0
10
10008.0
20
-7897.0
30
0.0
10
10022.0
20
-7909.0
30
0.0
10
10033.0
20
-7918.0
30
0.0
10
10040.0
20
-7924.0
30
0.0
10
10042.0
20
-7926.0
30
0.0
10
10040.0
20
-7932.0
30
0.0
10
10033.0
20
-7946.0
30
0.0
10
10022.0
20
-7968.0
30
0.0
10
10008.0
20
-7993.0
30
0.0
10
9993.0
20
-8020.0
30
0.0
10
9976.0
20
-8046.0
30
0.0
10
9958.0
20
-8069.0
30
0.0
10
9944.0
20
-8084.0
30
0.0
10
9930.0
20
-8096.0
30
0.0
10
9916.0
20
-8105.0
30
0.0
10
9903.0
20
-8113.0
30
0.0
10
9890.0
20
-8121.0
30
0.0
10
9877.0
20
-8130.0
30
0.0
10
9865.0
20
-8142.0
30
0.0
10
9855.0
20
-8153.0
30
0.0
10
9846.0
20
-8165.0
30
0.0
10
9838.0
20
-8177.0
30
0.0
10
9831.0
20
-8189.0
30
0.0
10
9826.0
20
-8198.0
30
0.0
10
9823.0
20
-8204.0
30
0.0
10
9821.0
20
-8206.0
30
0.0
10
9817.0
20
-8207.0
30
0.0
10
9805.0
20
-8209.0
30
0.0
10
9788.0
20
-8212.0
30
0.0
10
9766.0
20
-8216.0
30
0.0
10
9743.0
20
-8221.0
30
0.0
10
9719.0
20
-8227.0
30
0.0
10
9696.0
20
-8235.0
30
0.0
10
9677.0
20
-8243.0
30
0.0
10
9660.0
20
-8253.0
30
0.0
10
9645.0
20
-8263.0
30
0.0
10
9632.0
20
-8274.0
30
0.0
10
9620.0
20
-8285.0
30
0.0
10
9608.0
20
-8296.0
30
0.0
10
9597.0
20
-8308.0
30
0.0
10
9587.0
20
-8318.0
30
0.0
10
9576.0
20
-8328.0
30
0.0
10
9565.0
20
-8338.0
30
0.0
10
9553.0
20
-8348.0
30
0.0
10
9541.0
20
-8357.0
30
0.0
10
9528.0
20
-8367.0
30
0.0
10
9514.0
20
-8376.0
30
0.0
10
9496.0
20
-8388.0
30
0.0
10
9477.0
20
-8399.0
30
0.0
10
9458.0
20
-8410.0
30
0.0
10
9438.0
20
-8422.0
30
0.0
10
9418.0
20
-8433.0
30
0.0
10
9399.0
20
-8445.0
30
0.0
10
9381.0
20
-8457.0
30
0.0
10
9362.0
20
-8472.0
30
0.0
10
9343.0
20
-8487.0
30
0.0
10
9323.0
20
-8504.0
30
0.0
10
9301.0
20
-8521.0
30
0.0
10
9276.0
20
-8540.0
30
0.0
10
9246.0
20
-8560.0
30
0.0
10
9210.0
20
-8583.0
30
0.0
10
9147.0
20
-8618.0
30
0.0
10
9076.0
20
-8655.0
30
0.0
10
9003.0
20
-8692.0
30
0.0
10
8935.0
20
-8725.0
30
0.0
10
8878.0
20
-8751.0
30
0.0
10
8839.0
20
-8769.0
30
0.0
10
8825.0
20
-8776.0
30
0.0
10
8755.0
20
-8763.0
30
0.0
10
8802.0
20
-8727.0
30
0.0
10
8707.0
20
-8680.0
30
0.0
10
8707.0
20
-8676.0
30
0.0
10
8709.0
20
-8668.0
30
0.0
10
8710.0
20
-8654.0
30
0.0
10
8712.0
20
-8638.0
30
0.0
10
8713.0
20
-8620.0
30
0.0
10
8713.0
20
-8602.0
30
0.0
10
8711.0
20
-8584.0
30
0.0
10
8708.0
20
-8568.0
30
0.0
10
8702.0
20
-8555.0
30
0.0
10
8696.0
20
-8543.0
30
0.0
10
8688.0
20
-8532.0
30
0.0
10
8679.0
20
-8522.0
30
0.0
10
8669.0
20
-8513.0
30
0.0
10
8660.0
20
-8505.0
30
0.0
10
8650.0
20
-8496.0
30
0.0
10
8639.0
20
-8487.0
30
0.0
10
8629.0
20
-8477.0
30
0.0
10
8618.0
20
-8467.0
30
0.0
10
8608.0
20
-8455.0
30
0.0
10
8596.0
20
-8441.0
30
0.0
10
8584.0
20
-8426.0
30
0.0
10
8564.0
20
-8396.0
30
0.0
10
8543.0
20
-8362.0
30
0.0
10
8522.0
20
-8325.0
30
0.0
10
8500.0
20
-8288.0
30
0.0
10
8478.0
20
-8253.0
30
0.0
10
8457.0
20
-8221.0
30
0.0
10
8437.0
20
-8194.0
30
0.0
10
8427.0
20
-8182.0
30
0.0
10
8416.0
20
-8171.0
30
0.0
10
8406.0
20
-8163.0
30
0.0
10
8396.0
20
-8155.0
30
0.0
10
8386.0
20
-8149.0
30
0.0
10
8376.0
20
-8142.0
30
0.0
10
8365.0
20
-8136.0
30
0.0
10
8352.0
20
-8129.0
30
0.0
10
8339.0
20
-8122.0
30
0.0
10
8326.0
20
-8115.0
30
0.0
10
8312.0
20
-8109.0
30
0.0
10
8297.0
20
-8103.0
30
0.0
10
8282.0
20
-8099.0
30
0.0
10
8266.0
20
-8096.0
30
0.0
10
8250.0
20
-8095.0
30
0.0
10
8233.0
20
-8096.0
30
0.0
10
8216.0
20
-8099.0
30
0.0
10
8200.0
20
-8104.0
30
0.0
10
8184.0
20
-8111.0
30
0.0
10
8169.0
20
-8121.0
30
0.0
10
8155.0
20
-8133.0
30
0.0
10
8139.0
20
-8150.0
30
0.0
10
8125.0
20
-8170.0
30
0.0
10
8112.0
20
-8192.0
30
0.0
10
8101.0
20
-8215.0
30
0.0
10
8091.0
20
-8239.0
30
0.0
10
8082.0
20
-8263.0
30
0.0
10
8074.0
20
-8286.0
30
0.0
10
8067.0
20
-8307.0
30
0.0
10
8061.0
20
-8327.0
30
0.0
10
8056.0
20
-8348.0
30
0.0
10
8050.0
20
-8368.0
30
0.0
10
8045.0
20
-8389.0
30
0.0
10
8039.0
20
-8411.0
30
0.0
10
8034.0
20
-8435.0
30
0.0
10
8029.0
20
-8457.0
30
0.0
10
8023.0
20
-8480.0
30
0.0
10
8018.0
20
-8501.0
30
0.0
10
8014.0
20
-8520.0
30
0.0
10
8010.0
20
-8535.0
30
0.0
10
8008.0
20
-8544.0
30
0.0
10
8007.0
20
-8548.0
30
0.0
10
7911.0
20
-8558.0
30
0.0
10
7909.0
20
-8555.0
30
0.0
10
7903.0
20
-8546.0
30
0.0
10
7894.0
20
-8533.0
30
0.0
10
7882.0
20
-8517.0
30
0.0
10
7868.0
20
-8499.0
30
0.0
10
7852.0
20
-8481.0
30
0.0
10
7836.0
20
-8463.0
30
0.0
10
7816.0
20
-8445.0
30
0.0
10
7796.0
20
-8429.0
30
0.0
10
7775.0
20
-8415.0
30
0.0
10
7754.0
20
-8403.0
30
0.0
10
7733.0
20
-8392.0
30
0.0
10
7711.0
20
-8383.0
30
0.0
10
7688.0
20
-8374.0
30
0.0
10
7665.0
20
-8366.0
30
0.0
10
7641.0
20
-8358.0
30
0.0
10
7617.0
20
-8350.0
30
0.0
10
7593.0
20
-8343.0
30
0.0
10
7568.0
20
-8337.0
30
0.0
10
7543.0
20
-8331.0
30
0.0
10
7517.0
20
-8327.0
30
0.0
10
7491.0
20
-8323.0
30
0.0
10
7464.0
20
-8320.0
30
0.0
10
7437.0
20
-8318.0
30
0.0
10
7410.0
20
-8316.0
30
0.0
10
7383.0
20
-8314.0
30
0.0
10
7355.0
20
-8313.0
30
0.0
10
7326.0
20
-8310.0
30
0.0
10
7293.0
20
-8307.0
30
0.0
10
7258.0
20
-8303.0
30
0.0
10
7223.0
20
-8299.0
30
0.0
10
7188.0
20
-8294.0
30
0.0
10
7151.0
20
-8289.0
30
0.0
10
7114.0
20
-8284.0
30
0.0
10
7076.0
20
-8279.0
30
0.0
10
7037.0
20
-8273.0
30
0.0
10
6998.0
20
-8268.0
30
0.0
10
6960.0
20
-8264.0
30
0.0
10
6922.0
20
-8261.0
30
0.0
10
6886.0
20
-8260.0
30
0.0
10
6853.0
20
-8260.0
30
0.0
10
6822.0
20
-8262.0
30
0.0
10
6798.0
20
-8266.0
30
0.0
10
6776.0
20
-8272.0
30
0.0
10
6754.0
20
-8279.0
30
0.0
10
6731.0
20
-8287.0
30
0.0
10
6706.0
20
-8296.0
30
0.0
10
6678.0
20
-8306.0
30
0.0
10
6645.0
20
-8316.0
30
0.0
10
6600.0
20
-8328.0
30
0.0
10
6552.0
20
-8339.0
30
0.0
10
6503.0
20
-8350.0
30
0.0
10
6459.0
20
-8359.0
30
0.0
10
6422.0
20
-8366.0
30
0.0
10
6397.0
20
-8370.0
30
0.0
10
6388.0
20
-8372.0
30
0.0
10
6383.0
20
-8366.0
30
0.0
10
6369.0
20
-8350.0
30
0.0
10
6348.0
20
-8327.0
30
0.0
10
6323.0
20
-8298.0
30
0.0
10
6296.0
20
-8267.0
30
0.0
10
6269.0
20
-8236.0
30
0.0
10
6245.0
20
-8207.0
30
0.0
10
6230.0
20
-8188.0
30
0.0
10
6217.0
20
-8172.0
30
0.0
10
6206.0
20
-8158.0
30
0.0
10
6195.0
20
-8146.0
30
0.0
10
6184.0
20
-8136.0
30
0.0
10
6173.0
20
-8127.0
30
0.0
10
6160.0
20
-8120.0
30
0.0
10
6145.0
20
-8114.0
30
0.0
10
6127.0
20
-8109.0
30
0.0
10
6108.0
20
-8105.0
30
0.0
10
6088.0
20
-8101.0
30
0.0
10
6067.0
20
-8096.0
30
0.0
10
6047.0
20
-8092.0
30
0.0
10
6026.0
20
-8087.0
30
0.0
10
6007.0
20
-8082.0
30
0.0
10
5988.0
20
-8075.0
30
0.0
10
5970.0
20
-8068.0
30
0.0
10
5953.0
20
-8060.0
30
0.0
10
5937.0
20
-8050.0
30
0.0
10
5922.0
20
-8040.0
30
0.0
10
5908.0
20
-8029.0
30
0.0
10
5895.0
20
-8017.0
30
0.0
10
5883.0
20
-8005.0
30
0.0
10
5871.0
20
-7992.0
30
0.0
10
5859.0
20
-7980.0
30
0.0
10
5846.0
20
-7967.0
30
0.0
10
5833.0
20
-7956.0
30
0.0
10
5818.0
20
-7945.0
30
0.0
10
5799.0
20
-7933.0
30
0.0
10
5778.0
20
-7924.0
30
0.0
10
5755.0
20
-7916.0
30
0.0
10
5731.0
20
-7909.0
30
0.0
10
5706.0
20
-7904.0
30
0.0
10
5679.0
20
-7900.0
30
0.0
10
5652.0
20
-7898.0
30
0.0
10
5622.0
20
-7897.0
30
0.0
10
5592.0
20
-7898.0
30
0.0
10
5562.0
20
-7899.0
30
0.0
10
5532.0
20
-7901.0
30
0.0
10
5504.0
20
-7903.0
30
0.0
10
5476.0
20
-7905.0
30
0.0
10
5450.0
20
-7907.0
30
0.0
10
5429.0
20
-7908.0
30
0.0
10
5409.0
20
-7908.0
30
0.0
10
5390.0
20
-7908.0
30
0.0
10
5371.0
20
-7907.0
30
0.0
10
5352.0
20
-7906.0
30
0.0
10
5332.0
20
-7905.0
30
0.0
10
5312.0
20
-7903.0
30
0.0
10
5287.0
20
-7901.0
30
0.0
10
5261.0
20
-7899.0
30
0.0
10
5234.0
20
-7897.0
30
0.0
10
5206.0
20
-7895.0
30
0.0
10
5179.0
20
-7895.0
30
0.0
10
5151.0
20
-7897.0
30
0.0
10
5125.0
20
-7900.0
30
0.0
10
5101.0
20
-7904.0
30
0.0
10
5079.0
20
-7910.0
30
0.0
10
5057.0
20
-7917.0
30
0.0
10
5036.0
20
-7925.0
30
0.0
10
5015.0
20
-7933.0
30
0.0
10
4995.0
20
-7941.0
30
0.0
10
4975.0
20
-7948.0
30
0.0
10
4959.0
20
-7953.0
30
0.0
10
4943.0
20
-7957.0
30
0.0
10
4928.0
20
-7961.0
30
0.0
10
4913.0
20
-7963.0
30
0.0
10
4899.0
20
-7964.0
30
0.0
10
4885.0
20
-7963.0
30
0.0
10
4872.0
20
-7961.0
30
0.0
10
4860.0
20
-7957.0
30
0.0
10
4849.0
20
-7951.0
30
0.0
10
4838.0
20
-7944.0
30
0.0
10
4827.0
20
-7937.0
30
0.0
10
4815.0
20
-7928.0
30
0.0
10
4804.0
20
-7919.0
30
0.0
10
4791.0
20
-7909.0
30
0.0
10
4775.0
20
-7897.0
30
0.0
10
4758.0
20
-7884.0
30
0.0
10
4740.0
20
-7871.0
30
0.0
10
4722.0
20
-7859.0
30
0.0
10
4705.0
20
-7846.0
30
0.0
10
4689.0
20
-7834.0
30
0.0
10
4674.0
20
-7822.0
30
0.0
10
4661.0
20
-7811.0
30
0.0
10
4649.0
20
-7800.0
30
0.0
10
4637.0
20
-7789.0
30
0.0
10
4624.0
20
-7777.0
30
0.0
10
4610.0
20
-7765.0
30
0.0
10
4592.0
20
-7751.0
30
0.0
10
4570.0
20
-7737.0
30
0.0
10
4535.0
20
-7715.0
30
0.0
10
4494.0
20
-7692.0
30
0.0
10
4453.0
20
-7670.0
30
0.0
10
4414.0
20
-7650.0
30
0.0
10
4382.0
20
-7633.0
30
0.0
10
4359.0
20
-7622.0
30
0.0
10
4351.0
20
-7618.0
30
0.0
10
4234.0
20
-7529.0
30
0.0
10
4229.0
20
-7529.0
30
0.0
10
4216.0
20
-7530.0
30
0.0
10
4196.0
20
-7532.0
30
0.0
10
4171.0
20
-7535.0
30
0.0
10
4144.0
20
-7538.0
30
0.0
10
4117.0
20
-7541.0
30
0.0
10
4091.0
20
-7545.0
30
0.0
10
4069.0
20
-7549.0
30
0.0
10
4049.0
20
-7552.0
30
0.0
10
4031.0
20
-7556.0
30
0.0
10
4014.0
20
-7559.0
30
0.0
10
3996.0
20
-7561.0
30
0.0
10
3977.0
20
-7562.0
30
0.0
10
3957.0
20
-7562.0
30
0.0
10
3936.0
20
-7561.0
30
0.0
10
3914.0
20
-7559.0
30
0.0
10
3894.0
20
-7558.0
30
0.0
10
3875.0
20
-7556.0
30
0.0
10
3860.0
20
-7556.0
30
0.0
10
3850.0
20
-7557.0
30
0.0
10
3847.0
20
-7561.0
30
0.0
10
3850.0
20
-7566.0
30
0.0
10
3857.0
20
-7572.0
30
0.0
10
3865.0
20
-7580.0
30
0.0
10
3875.0
20
-7588.0
30
0.0
10
3884.0
20
-7596.0
30
0.0
10
3891.0
20
-7605.0
30
0.0
10
3895.0
20
-7613.0
30
0.0
10
3893.0
20
-7622.0
30
0.0
10
3886.0
20
-7629.0
30
0.0
10
3875.0
20
-7635.0
30
0.0
10
3861.0
20
-7639.0
30
0.0
10
3844.0
20
-7641.0
30
0.0
10
3827.0
20
-7641.0
30
0.0
10
3809.0
20
-7639.0
30
0.0
10
3795.0
20
-7635.0
30
0.0
10
3782.0
20
-7629.0
30
0.0
10
3770.0
20
-7623.0
30
0.0
10
3760.0
20
-7617.0
30
0.0
10
3753.0
20
-7612.0
30
0.0
10
3748.0
20
-7608.0
30
0.0
10
3746.0
20
-7607.0
30
0.0
10
3746.0
20
-7604.0
30
0.0
10
3744.0
20
-7596.0
30
0.0
10
3741.0
20
-7584.0
30
0.0
10
3737.0
20
-7570.0
30
0.0
10
3732.0
20
-7557.0
30
0.0
10
3726.0
20
-7544.0
30
0.0
10
3719.0
20
-7535.0
30
0.0
10
3711.0
20
-7530.0
30
0.0
10
3703.0
20
-7529.0
30
0.0
10
3694.0
20
-7531.0
30
0.0
10
3685.0
20
-7536.0
30
0.0
10
3675.0
20
-7542.0
30
0.0
10
3664.0
20
-7550.0
30
0.0
10
3653.0
20
-7559.0
30
0.0
10
3634.0
20
-7574.0
30
0.0
10
3615.0
20
-7590.0
30
0.0
10
3595.0
20
-7607.0
30
0.0
10
3576.0
20
-7624.0
30
0.0
10
3556.0
20
-7641.0
30
0.0
10
3538.0
20
-7657.0
30
0.0
10
3520.0
20
-7674.0
30
0.0
10
3506.0
20
-7687.0
30
0.0
10
3493.0
20
-7700.0
30
0.0
10
3481.0
20
-7713.0
30
0.0
10
3470.0
20
-7725.0
30
0.0
10
3458.0
20
-7737.0
30
0.0
10
3447.0
20
-7748.0
30
0.0
10
3436.0
20
-7758.0
30
0.0
10
3426.0
20
-7767.0
30
0.0
10
3416.0
20
-7775.0
30
0.0
10
3406.0
20
-7784.0
30
0.0
10
3396.0
20
-7792.0
30
0.0
10
3387.0
20
-7802.0
30
0.0
10
3378.0
20
-7812.0
30
0.0
10
3370.0
20
-7823.0
30
0.0
10
3361.0
20
-7838.0
30
0.0
10
3353.0
20
-7855.0
30
0.0
10
3346.0
20
-7873.0
30
0.0
10
3339.0
20
-7891.0
30
0.0
10
3332.0
20
-7910.0
30
0.0
10
3325.0
20
-7927.0
30
0.0
10
3318.0
20
-7944.0
30
0.0
10
3311.0
20
-7958.0
30
0.0
10
3304.0
20
-7971.0
30
0.0
10
3295.0
20
-7983.0
30
0.0
10
3286.0
20
-7996.0
30
0.0
10
3276.0
20
-8009.0
30
0.0
10
3266.0
20
-8023.0
30
0.0
10
3253.0
20
-8038.0
30
0.0
10
3240.0
20
-8056.0
30
0.0
10
3227.0
20
-8074.0
30
0.0
10
3214.0
20
-8091.0
30
0.0
10
3202.0
20
-8107.0
30
0.0
10
3192.0
20
-8120.0
30
0.0
10
3186.0
20
-8128.0
30
0.0
10
3184.0
20
-8131.0
30
0.0
10
3181.0
20
-8130.0
30
0.0
10
3175.0
20
-8128.0
30
0.0
10
3167.0
20
-8123.0
30
0.0
10
3156.0
20
-8118.0
30
0.0
10
3145.0
20
-8111.0
30
0.0
10
3134.0
20
-8104.0
30
0.0
10
3125.0
20
-8095.0
30
0.0
10
3117.0
20
-8087.0
30
0.0
10
3112.0
20
-8078.0
30
0.0
10
3107.0
20
-8070.0
30
0.0
10
3103.0
20
-8061.0
30
0.0
10
3099.0
20
-8053.0
30
0.0
10
3095.0
20
-8046.0
30
0.0
10
3090.0
20
-8040.0
30
0.0
10
3080.0
20
-8033.0
30
0.0
10
3067.0
20
-8027.0
30
0.0
10
3052.0
20
-8022.0
30
0.0
10
3034.0
20
-8018.0
30
0.0
10
3015.0
20
-8012.0
30
0.0
10
2994.0
20
-8006.0
30
0.0
10
2972.0
20
-7996.0
30
0.0
10
2945.0
20
-7983.0
30
0.0
10
2919.0
20
-7968.0
30
0.0
10
2894.0
20
-7952.0
30
0.0
10
2873.0
20
-7937.0
30
0.0
10
2855.0
20
-7924.0
30
0.0
10
2844.0
20
-7915.0
30
0.0
10
2839.0
20
-7912.0
30
0.0
10
2839.0
20
-7910.0
30
0.0
10
2836.0
20
-7907.0
30
0.0
10
2832.0
20
-7901.0
30
0.0
10
2827.0
20
-7894.0
30
0.0
10
2821.0
20
-7886.0
30
0.0
10
2815.0
20
-7877.0
30
0.0
10
2809.0
20
-7868.0
30
0.0
10
2802.0
20
-7859.0
30
0.0
10
2796.0
20
-7850.0
30
0.0
10
2790.0
20
-7841.0
30
0.0
10
2784.0
20
-7833.0
30
0.0
10
2778.0
20
-7825.0
30
0.0
10
2773.0
20
-7817.0
30
0.0
10
2767.0
20
-7810.0
30
0.0
10
2760.0
20
-7802.0
30
0.0
10
2753.0
20
-7795.0
30
0.0
10
2746.0
20
-7787.0
30
0.0
10
2738.0
20
-7779.0
30
0.0
10
2729.0
20
-7771.0
30
0.0
10
2720.0
20
-7763.0
30
0.0
10
2710.0
20
-7754.0
30
0.0
10
2702.0
20
-7747.0
30
0.0
10
2693.0
20
-7740.0
30
0.0
10
2685.0
20
-7733.0
30
0.0
10
2677.0
20
-7727.0
30
0.0
10
2672.0
20
-7723.0
30
0.0
10
2668.0
20
-7720.0
30
0.0
10
2666.0
20
-7719.0
30
0.0
10
2664.0
20
-7720.0
30
0.0
10
2658.0
20
-7722.0
30
0.0
10
2648.0
20
-7727.0
30
0.0
10
2636.0
20
-7733.0
30
0.0
10
2621.0
20
-7740.0
30
0.0
10
2606.0
20
-7749.0
30
0.0
10
2591.0
20
-7758.0
30
0.0
10
2570.0
20
-7774.0
30
0.0
10
2550.0
20
-7791.0
30
0.0
10
2531.0
20
-7809.0
30
0.0
10
2514.0
20
-7827.0
30
0.0
10
2499.0
20
-7846.0
30
0.0
10
2485.0
20
-7865.0
30
0.0
10
2473.0
20
-7882.0
30
0.0
10
2465.0
20
-7894.0
30
0.0
10
2458.0
20
-7906.0
30
0.0
10
2452.0
20
-7917.0
30
0.0
10
2446.0
20
-7928.0
30
0.0
10
2439.0
20
-7939.0
30
0.0
10
2432.0
20
-7950.0
30
0.0
10
2425.0
20
-7961.0
30
0.0
10
2414.0
20
-7975.0
30
0.0
10
2402.0
20
-7990.0
30
0.0
10
2389.0
20
-8004.0
30
0.0
10
2374.0
20
-8018.0
30
0.0
10
2359.0
20
-8032.0
30
0.0
10
2342.0
20
-8046.0
30
0.0
10
2325.0
20
-8059.0
30
0.0
10
2306.0
20
-8071.0
30
0.0
10
2288.0
20
-8082.0
30
0.0
10
2270.0
20
-8094.0
30
0.0
10
2253.0
20
-8105.0
30
0.0
10
2237.0
20
-8116.0
30
0.0
10
2223.0
20
-8127.0
30
0.0
10
2211.0
20
-8139.0
30
0.0
10
2203.0
20
-8149.0
30
0.0
10
2197.0
20
-8159.0
30
0.0
10
2192.0
20
-8168.0
30
0.0
10
2187.0
20
-8178.0
30
0.0
10
2181.0
20
-8186.0
30
0.0
10
2175.0
20
-8194.0
30
0.0
10
2168.0
20
-8201.0
30
0.0
10
2159.0
20
-8207.0
30
0.0
10
2149.0
20
-8212.0
30
0.0
10
2138.0
20
-8216.0
30
0.0
10
2126.0
20
-8220.0
30
0.0
10
2114.0
20
-8223.0
30
0.0
10
2103.0
20
-8226.0
30
0.0
10
2092.0
20
-8230.0
30
0.0
10
2082.0
20
-8234.0
30
0.0
10
2072.0
20
-8239.0
30
0.0
10
2063.0
20
-8244.0
30
0.0
10
2054.0
20
-8250.0
30
0.0
10
2045.0
20
-8256.0
30
0.0
10
2035.0
20
-8263.0
30
0.0
10
2024.0
20
-8271.0
30
0.0
10
2014.0
20
-8278.0
30
0.0
10
2003.0
20
-8286.0
30
0.0
10
1992.0
20
-8293.0
30
0.0
10
1983.0
20
-8299.0
30
0.0
10
1975.0
20
-8304.0
30
0.0
10
1970.0
20
-8307.0
30
0.0
10
1968.0
20
-8308.0
30
0.0
10
1965.0
20
-8304.0
30
0.0
10
1956.0
20
-8292.0
30
0.0
10
1941.0
20
-8274.0
30
0.0
10
1924.0
20
-8252.0
30
0.0
10
1903.0
20
-8228.0
30
0.0
10
1882.0
20
-8203.0
30
0.0
10
1860.0
20
-8180.0
30
0.0
10
1839.0
20
-8161.0
30
0.0
10
1819.0
20
-8144.0
30
0.0
10
1800.0
20
-8130.0
30
0.0
10
1782.0
20
-8117.0
30
0.0
10
1765.0
20
-8106.0
30
0.0
10
1749.0
20
-8095.0
30
0.0
10
1734.0
20
-8085.0
30
0.0
10
1721.0
20
-8077.0
30
0.0
10
1708.0
20
-8068.0
30
0.0
10
1694.0
20
-8059.0
30
0.0
10
1680.0
20
-8050.0
30
0.0
10
1663.0
20
-8041.0
30
0.0
10
1643.0
20
-8032.0
30
0.0
10
1620.0
20
-8023.0
30
0.0
10
1582.0
20
-8011.0
30
0.0
10
1541.0
20
-7999.0
30
0.0
10
1499.0
20
-7987.0
30
0.0
10
1460.0
20
-7978.0
30
0.0
10
1427.0
20
-7970.0
30
0.0
10
1405.0
20
-7965.0
30
0.0
10
1397.0
20
-7963.0
30
0.0
10
1401.0
20
-7957.0
30
0.0
10
1411.0
20
-7940.0
30
0.0
10
1425.0
20
-7914.0
30
0.0
10
1444.0
20
-7883.0
30
0.0
10
1465.0
20
-7847.0
30
0.0
10
1486.0
20
-7810.0
30
0.0
10
1507.0
20
-7774.0
30
0.0
10
1528.0
20
-7737.0
30
0.0
10
1547.0
20
-7703.0
30
0.0
10
1565.0
20
-7672.0
30
0.0
10
1582.0
20
-7641.0
30
0.0
10
1599.0
20
-7611.0
30
0.0
10
1615.0
20
-7581.0
30
0.0
10
1633.0
20
-7551.0
30
0.0
10
1651.0
20
-7520.0
30
0.0
10
1669.0
20
-7488.0
30
0.0
10
1687.0
20
-7455.0
30
0.0
10
1704.0
20
-7422.0
30
0.0
10
1720.0
20
-7391.0
30
0.0
10
1734.0
20
-7360.0
30
0.0
10
1745.0
20
-7330.0
30
0.0
10
1752.0
20
-7309.0
30
0.0
10
1757.0
20
-7289.0
30
0.0
10
1762.0
20
-7270.0
30
0.0
10
1767.0
20
-7251.0
30
0.0
10
1772.0
20
-7233.0
30
0.0
10
1779.0
20
-7215.0
30
0.0
10
1787.0
20
-7196.0
30
0.0
10
1799.0
20
-7175.0
30
0.0
10
1814.0
20
-7153.0
30
0.0
10
1829.0
20
-7131.0
30
0.0
10
1845.0
20
-7109.0
30
0.0
10
1860.0
20
-7087.0
30
0.0
10
1873.0
20
-7064.0
30
0.0
10
1884.0
20
-7041.0
30
0.0
10
1889.0
20
-7021.0
30
0.0
10
1893.0
20
-7002.0
30
0.0
10
1893.0
20
-6982.0
30
0.0
10
1891.0
20
-6964.0
30
0.0
10
1887.0
20
-6946.0
30
0.0
10
1881.0
20
-6928.0
30
0.0
10
1872.0
20
-6913.0
30
0.0
10
1862.0
20
-6899.0
30
0.0
10
1850.0
20
-6886.0
30
0.0
10
1838.0
20
-6875.0
30
0.0
10
1824.0
20
-6865.0
30
0.0
10
1810.0
20
-6855.0
30
0.0
10
1796.0
20
-6847.0
30
0.0
10
1782.0
20
-6840.0
30
0.0
10
1770.0
20
-6834.0
30
0.0
10
1758.0
20
-6829.0
30
0.0
10
1747.0
20
-6824.0
30
0.0
10
1734.0
20
-6821.0
30
0.0
10
1721.0
20
-6818.0
30
0.0
10
1707.0
20
-6816.0
30
0.0
10
1692.0
20
-6815.0
30
0.0
10
1678.0
20
-6815.0
30
0.0
10
1662.0
20
-6816.0
30
0.0
10
1648.0
20
-6817.0
30
0.0
10
1635.0
20
-6818.0
30
0.0
10
1624.0
20
-6819.0
30
0.0
10
1617.0
20
-6820.0
30
0.0
10
1615.0
20
-6820.0
30
0.0
10
1612.0
20
-6815.0
30
0.0
10
1605.0
20
-6799.0
30
0.0
10
1593.0
20
-6776.0
30
0.0
10
1580.0
20
-6747.0
30
0.0
10
1565.0
20
-6714.0
30
0.0
10
1550.0
20
-6680.0
30
0.0
10
1535.0
20
-6646.0
30
0.0
10
1523.0
20
-6613.0
30
0.0
10
1512.0
20
-6583.0
30
0.0
10
1502.0
20
-6555.0
30
0.0
10
1493.0
20
-6528.0
30
0.0
10
1484.0
20
-6503.0
30
0.0
10
1474.0
20
-6478.0
30
0.0
10
1462.0
20
-6454.0
30
0.0
10
1449.0
20
-6429.0
30
0.0
10
1433.0
20
-6404.0
30
0.0
10
1416.0
20
-6378.0
30
0.0
10
1398.0
20
-6351.0
30
0.0
10
1380.0
20
-6323.0
30
0.0
10
1360.0
20
-6294.0
30
0.0
10
1341.0
20
-6263.0
30
0.0
10
1320.0
20
-6227.0
30
0.0
10
1298.0
20
-6189.0
30
0.0
10
1277.0
20
-6153.0
30
0.0
10
1255.0
20
-6117.0
30
0.0
10
1233.0
20
-6086.0
30
0.0
10
1211.0
20
-6058.0
30
0.0
10
1188.0
20
-6037.0
30
0.0
10
1172.0
20
-6027.0
30
0.0
10
1155.0
20
-6019.0
30
0.0
10
1138.0
20
-6013.0
30
0.0
10
1120.0
20
-6009.0
30
0.0
10
1102.0
20
-6005.0
30
0.0
10
1084.0
20
-6000.0
30
0.0
10
1065.0
20
-5995.0
30
0.0
10
1041.0
20
-5986.0
30
0.0
10
1018.0
20
-5976.0
30
0.0
10
994.0
20
-5963.0
30
0.0
10
972.0
20
-5948.0
30
0.0
10
950.0
20
-5932.0
30
0.0
10
929.0
20
-5915.0
30
0.0
10
911.0
20
-5897.0
30
0.0
10
897.0
20
-5881.0
30
0.0
10
884.0
20
-5866.0
30
0.0
10
873.0
20
-5850.0
30
0.0
10
862.0
20
-5836.0
30
0.0
10
851.0
20
-5822.0
30
0.0
10
840.0
20
-5810.0
30
0.0
10
829.0
20
-5799.0
30
0.0
10
819.0
20
-5791.0
30
0.0
10
808.0
20
-5785.0
30
0.0
10
798.0
20
-5780.0
30
0.0
10
786.0
20
-5775.0
30
0.0
10
774.0
20
-5771.0
30
0.0
10
762.0
20
-5767.0
30
0.0
10
750.0
20
-5763.0
30
0.0
10
734.0
20
-5758.0
30
0.0
10
718.0
20
-5753.0
30
0.0
10
702.0
20
-5747.0
30
0.0
10
685.0
20
-5742.0
30
0.0
10
667.0
20
-5736.0
30
0.0
10
649.0
20
-5731.0
30
0.0
10
630.0
20
-5726.0
30
0.0
10
607.0
20
-5721.0
30
0.0
10
583.0
20
-5715.0
30
0.0
10
560.0
20
-5710.0
30
0.0
10
536.0
20
-5704.0
30
0.0
10
513.0
20
-5696.0
30
0.0
10
491.0
20
-5687.0
30
0.0
10
470.0
20
-5676.0
30
0.0
10
452.0
20
-5664.0
30
0.0
10
436.0
20
-5650.0
30
0.0
10
421.0
20
-5636.0
30
0.0
10
407.0
20
-5621.0
30
0.0
10
393.0
20
-5607.0
30
0.0
10
381.0
20
-5594.0
30
0.0
10
369.0
20
-5583.0
30
0.0
10
361.0
20
-5576.0
30
0.0
10
353.0
20
-5570.0
30
0.0
10
345.0
20
-5564.0
30
0.0
10
337.0
20
-5558.0
30
0.0
10
330.0
20
-5552.0
30
0.0
10
323.0
20
-5545.0
30
0.0
10
316.0
20
-5537.0
30
0.0
10
308.0
20
-5523.0
30
0.0
10
300.0
20
-5506.0
30
0.0
10
293.0
20
-5487.0
30
0.0
10
287.0
20
-5467.0
30
0.0
10
283.0
20
-5446.0
30
0.0
10
281.0
20
-5426.0
30
0.0
10
281.0
20
-5405.0
30
0.0
10
284.0
20
-5387.0
30
0.0
10
287.0
20
-5370.0
30
0.0
10
292.0
20
-5353.0
30
0.0
10
297.0
20
-5336.0
30
0.0
10
303.0
20
-5319.0
30
0.0
10
307.0
20
-5302.0
30
0.0
10
310.0
20
-5284.0
30
0.0
10
311.0
20
-5261.0
30
0.0
10
310.0
20
-5236.0
30
0.0
10
307.0
20
-5211.0
30
0.0
10
302.0
20
-5185.0
30
0.0
10
297.0
20
-5159.0
30
0.0
10
290.0
20
-5133.0
30
0.0
10
284.0
20
-5107.0
30
0.0
10
278.0
20
-5084.0
30
0.0
10
272.0
20
-5062.0
30
0.0
10
266.0
20
-5041.0
30
0.0
10
261.0
20
-5021.0
30
0.0
10
256.0
20
-5001.0
30
0.0
10
251.0
20
-4982.0
30
0.0
10
247.0
20
-4964.0
30
0.0
10
244.0
20
-4949.0
30
0.0
10
241.0
20
-4935.0
30
0.0
10
238.0
20
-4921.0
30
0.0
10
236.0
20
-4907.0
30
0.0
10
233.0
20
-4893.0
30
0.0
10
231.0
20
-4878.0
30
0.0
10
228.0
20
-4863.0
30
0.0
10
224.0
20
-4840.0
30
0.0
10
220.0
20
-4817.0
30
0.0
10
216.0
20
-4792.0
30
0.0
10
211.0
20
-4766.0
30
0.0
10
205.0
20
-4740.0
30
0.0
10
199.0
20
-4713.0
30
0.0
10
193.0
20
-4685.0
30
0.0
10
185.0
20
-4656.0
30
0.0
10
177.0
20
-4626.0
30
0.0
10
169.0
20
-4598.0
30
0.0
10
159.0
20
-4569.0
30
0.0
10
150.0
20
-4542.0
30
0.0
10
140.0
20
-4515.0
30
0.0
10
130.0
20
-4490.0
30
0.0
10
120.0
20
-4469.0
30
0.0
10
110.0
20
-4448.0
30
0.0
10
99.0
20
-4427.0
30
0.0
10
89.0
20
-4406.0
30
0.0
10
77.0
20
-4385.0
30
0.0
10
65.0
20
-4363.0
30
0.0
10
53.0
20
-4339.0
30
0.0
10
42.0
20
-4318.0
30
0.0
10
32.0
20
-4297.0
30
0.0
10
22.0
20
-4277.0
30
0.0
10
13.0
20
-4260.0
30
0.0
10
6.0
20
-4245.0
30
0.0
10
2.0
20
-4236.0
30
0.0
10
0.0
20
-4233.0
30
0.0
10
26.0
20
-4150.0
30
0.0
10
30.0
20
-4148.0
30
0.0
10
41.0
20
-4142.0
30
0.0
10
56.0
20
-4133.0
30
0.0
10
74.0
20
-4121.0
30
0.0
10
93.0
20
-4106.0
30
0.0
10
111.0
20
-4089.0
30
0.0
10
128.0
20
-4070.0
30
0.0
10
143.0
20
-4044.0
30
0.0
10
153.0
20
-4015.0
30
0.0
10
159.0
20
-3986.0
30
0.0
10
160.0
20
-3954.0
30
0.0
10
159.0
20
-3923.0
30
0.0
10
156.0
20
-3890.0
30
0.0
10
152.0
20
-3858.0
30
0.0
10
149.0
20
-3827.0
30
0.0
10
145.0
20
-3796.0
30
0.0
10
141.0
20
-3765.0
30
0.0
10
137.0
20
-3735.0
30
0.0
10
133.0
20
-3706.0
30
0.0
10
127.0
20
-3678.0
30
0.0
10
121.0
20
-3650.0
30
0.0
10
116.0
20
-3627.0
30
0.0
10
109.0
20
-3605.0
30
0.0
10
103.0
20
-3583.0
30
0.0
10
97.0
20
-3562.0
30
0.0
10
92.0
20
-3542.0
30
0.0
10
87.0
20
-3522.0
30
0.0
10
83.0
20
-3502.0
30
0.0
10
80.0
20
-3481.0
30
0.0
10
79.0
20
-3461.0
30
0.0
10
78.0
20
-3439.0
30
0.0
10
77.0
20
-3415.0
30
0.0
10
76.0
20
-3388.0
30
0.0
10
73.0
20
-3358.0
30
0.0
10
70.0
20
-3323.0
30
0.0
10
62.0
20
-3271.0
30
0.0
10
52.0
20
-3215.0
30
0.0
10
41.0
20
-3159.0
30
0.0
10
31.0
20
-3108.0
30
0.0
10
21.0
20
-3066.0
30
0.0
10
15.0
20
-3037.0
30
0.0
10
13.0
20
-3027.0
30
0.0
10
17.0
20
-3027.0
30
0.0
10
27.0
20
-3027.0
30
0.0
10
42.0
20
-3026.0
30
0.0
10
60.0
20
-3023.0
30
0.0
10
79.0
20
-3019.0
30
0.0
10
97.0
20
-3013.0
30
0.0
10
114.0
20
-3004.0
30
0.0
10
132.0
20
-2984.0
30
0.0
10
143.0
20
-2957.0
30
0.0
10
149.0
20
-2925.0
30
0.0
10
154.0
20
-2888.0
30
0.0
10
158.0
20
-2848.0
30
0.0
10
166.0
20
-2806.0
30
0.0
10
180.0
20
-2763.0
30
0.0
10
201.0
20
-2720.0
30
0.0
10
227.0
20
-2678.0
30
0.0
10
255.0
20
-2640.0
30
0.0
10
283.0
20
-2607.0
30
0.0
10
306.0
20
-2581.0
30
0.0
10
323.0
20
-2565.0
30
0.0
10
329.0
20
-2559.0
30
0.0
10
565.0
20
-2581.0
30
0.0
10
876.0
20
-2555.0
30
0.0
10
1078.0
20
-2521.0
30
0.0
10
1185.0
20
-2505.0
30
0.0
10
1310.0
20
-2354.0
30
0.0
10
1338.0
20
-2221.0
30
0.0
10
1348.0
20
-2106.0
30
0.0
10
1350.0
20
-2103.0
30
0.0
10
1357.0
20
-2097.0
30
0.0
10
1367.0
20
-2086.0
30
0.0
10
1380.0
20
-2072.0
30
0.0
10
1394.0
20
-2056.0
30
0.0
10
1408.0
20
-2038.0
30
0.0
10
1422.0
20
-2018.0
30
0.0
10
1434.0
20
-1997.0
30
0.0
10
1445.0
20
-1977.0
30
0.0
10
1454.0
20
-1959.0
30
0.0
10
1461.0
20
-1942.0
30
0.0
10
1466.0
20
-1929.0
30
0.0
10
1469.0
20
-1920.0
30
0.0
10
1470.0
20
-1917.0
30
0.0
10
1478.0
20
-1913.0
30
0.0
10
1497.0
20
-1901.0
30
0.0
10
1526.0
20
-1882.0
30
0.0
10
1561.0
20
-1860.0
30
0.0
10
1599.0
20
-1834.0
30
0.0
10
1637.0
20
-1808.0
30
0.0
10
1672.0
20
-1783.0
30
0.0
10
1699.0
20
-1762.0
30
0.0
10
1722.0
20
-1742.0
30
0.0
10
1741.0
20
-1724.0
30
0.0
10
1758.0
20
-1705.0
30
0.0
10
1774.0
20
-1686.0
30
0.0
10
1789.0
20
-1665.0
30
0.0
10
1803.0
20
-1643.0
30
0.0
10
1820.0
20
-1613.0
30
0.0
10
1838.0
20
-1580.0
30
0.0
10
1856.0
20
-1545.0
30
0.0
10
1872.0
20
-1509.0
30
0.0
10
1887.0
20
-1471.0
30
0.0
10
1901.0
20
-1433.0
30
0.0
10
1911.0
20
-1395.0
30
0.0
10
1918.0
20
-1360.0
30
0.0
10
1923.0
20
-1325.0
30
0.0
10
1924.0
20
-1291.0
30
0.0
10
1922.0
20
-1257.0
30
0.0
10
1918.0
20
-1223.0
30
0.0
10
1910.0
20
-1189.0
30
0.0
10
1899.0
20
-1155.0
30
0.0
10
1883.0
20
-1117.0
30
0.0
10
1865.0
20
-1079.0
30
0.0
10
1844.0
20
-1041.0
30
0.0
10
1823.0
20
-1002.0
30
0.0
10
1801.0
20
-964.0
30
0.0
10
1781.0
20
-927.0
30
0.0
10
1763.0
20
-890.0
30
0.0
10
1749.0
20
-856.0
30
0.0
10
1737.0
20
-823.0
30
0.0
10
1724.0
20
-790.0
30
0.0
10
1709.0
20
-759.0
30
0.0
10
1692.0
20
-728.0
30
0.0
10
1669.0
20
-698.0
30
0.0
10
1641.0
20
-670.0
30
0.0
10
1607.0
20
-644.0
30
0.0
10
1570.0
20
-621.0
30
0.0
10
1532.0
20
-600.0
30
0.0
10
1497.0
20
-582.0
30
0.0
10
1468.0
20
-569.0
30
0.0
10
1449.0
20
-560.0
30
0.0
10
1441.0
20
-557.0
30
0.0
10
1446.0
20
-552.0
30
0.0
6
Solid
370
35
62
0
0
LWPOLYLINE
5
27e2
100
AcDbEntity
100
AcDbPolyline
90
5
70
1
10
9776.0
20
-7910.0
30
0.0
10
9724.0
20
-7831.0
30
0.0
10
9805.0
20
-7812.0
30
0.0
10
9858.0
20
-7886.0
30
0.0
10
9776.0
20
-7910.0
30
0.0
6
Solid
370
35
62
0
0
LWPOLYLINE
5
27e4
100
AcDbEntity
100
AcDbPolyline
90
4
70
1
10
3563.0
20
-662.0
30
0.0
10
3603.0
20
-548.0
30
0.0
10
3694.0
20
-649.0
30
0.0
10
3563.0
20
-662.0
30
0.0
6
Solid
370
35
62
0
0
LWPOLYLINE
5
27e6
100
AcDbEntity
100
AcDbPolyline
90
5
70
1
10
8866.0
20
-3992.0
30
0.0
10
8778.0
20
-3958.0
30
0.0
10
8823.0
20
-3888.0
30
0.0
10
8898.0
20
-3904.0
30
0.0
10
8866.0
20
-3992.0
30
0.0
6
Solid
370
35
62
0
0
LWPOLYLINE
5
27e8
100
AcDbEntity
100
AcDbPolyline
90
5
70
1
10
3014.0
20
-4686.0
30
0.0
10
2954.0
20
-4694.0
30
0.0
10
2962.0
20
-4635.0
30
0.0
10
3020.0
20
-4627.0
30
0.0
10
3014.0
20
-4686.0
30
0.0
6
Solid
370
35
62
0
0
LWPOLYLINE
5
27ea
100
AcDbEntity
100
AcDbPolyline
90
5
70
1
10
2971.0
20
-3948.0
30
0.0
10
2901.0
20
-3957.0
30
0.0
10
2917.0
20
-3903.0
30
0.0
10
2968.0
20
-3884.0
30
0.0
10
2971.0
20
-3948.0
30
0.0
6
Solid
370
35
62
0
0
LWPOLYLINE
5
27ec
100
AcDbEntity
100
AcDbPolyline
90
4
70
1
10
1751.0
20
-7813.0
30
0.0
10
1635.0
20
-7735.0
30
0.0
10
1776.0
20
-7655.0
30
0.0
10
1751.0
20
-7813.0
30
0.0
6
Solid
370
35
62
0
0
LWPOLYLINE
5
27ee
100
AcDbEntity
100
AcDbPolyline
90
4
70
1
10
2355.0
20
-6519.0
30
0.0
10
2195.0
20
-6507.0
30
0.0
10
2263.0
20
-6388.0
30
0.0
10
2355.0
20
-6519.0
30
0.0
6
Solid
370
35
62
0
0
LWPOLYLINE
5
27f1
100
AcDbEntity
8
zone_0_q2
100
AcDbPolyline
90
87
70
1
10
6509.0
20
-811.0
30
0.0
10
6416.0
20
-1086.0
30
0.0
10
6283.0
20
-1237.0
30
0.0
10
6138.0
20
-1287.0
30
0.0
10
5760.0
20
-1368.0
30
0.0
10
5427.0
20
-1342.0
30
0.0
10
5227.0
20
-1133.0
30
0.0
10
5142.0
20
-889.0
30
0.0
10
5125.0
20
-645.0
30
0.0
10
5127.0
20
-645.0
30
0.0
10
5129.0
20
-645.0
30
0.0
10
5130.0
20
-645.0
30
0.0
10
5132.0
20
-645.0
30
0.0
10
5134.0
20
-645.0
30
0.0
10
5136.0
20
-645.0
30
0.0
10
5137.0
20
-645.0
30
0.0
10
5159.0
20
-646.0
30
0.0
10
5181.0
20
-648.0
30
0.0
10
5204.0
20
-651.0
30
0.0
10
5228.0
20
-653.0
30
0.0
10
5252.0
20
-655.0
30
0.0
10
5278.0
20
-655.0
30
0.0
10
5306.0
20
-654.0
30
0.0
10
5332.0
20
-651.0
30
0.0
10
5358.0
20
-647.0
30
0.0
10
5383.0
20
-643.0
30
0.0
10
5404.0
20
-638.0
30
0.0
10
5422.0
20
-634.0
30
0.0
10
5433.0
20
-631.0
30
0.0
10
5437.0
20
-630.0
30
0.0
10
5439.0
20
-631.0
30
0.0
10
5446.0
20
-636.0
30
0.0
10
5456.0
20
-642.0
30
0.0
10
5468.0
20
-649.0
30
0.0
10
5483.0
20
-657.0
30
0.0
10
5498.0
20
-665.0
30
0.0
10
5514.0
20
-673.0
30
0.0
10
5533.0
20
-680.0
30
0.0
10
5552.0
20
-686.0
30
0.0
10
5571.0
20
-691.0
30
0.0
10
5589.0
20
-695.0
30
0.0
10
5607.0
20
-698.0
30
0.0
10
5625.0
20
-700.0
30
0.0
10
5643.0
20
-703.0
30
0.0
10
5660.0
20
-705.0
30
0.0
10
5678.0
20
-708.0
30
0.0
10
5695.0
20
-709.0
30
0.0
10
5712.0
20
-711.0
30
0.0
10
5728.0
20
-711.0
30
0.0
10
5745.0
20
-710.0
30
0.0
10
5761.0
20
-707.0
30
0.0
10
5779.0
20
-703.0
30
0.0
10
5796.0
20
-696.0
30
0.0
10
5814.0
20
-688.0
30
0.0
10
5832.0
20
-680.0
30
0.0
10
5851.0
20
-672.0
30
0.0
10
5872.0
20
-664.0
30
0.0
10
5895.0
20
-657.0
30
0.0
10
5928.0
20
-651.0
30
0.0
10
5965.0
20
-646.0
30
0.0
10
6003.0
20
-644.0
30
0.0
10
6043.0
20
-644.0
30
0.0
10
6082.0
20
-645.0
30
0.0
10
6119.0
20
-647.0
30
0.0
10
6154.0
20
-650.0
30
0.0
10
6179.0
20
-652.0
30
0.0
10
6203.0
20
-655.0
30
0.0
10
6225.0
20
-657.0
30
0.0
10
6246.0
20
-659.0
30
0.0
10
6266.0
20
-661.0
30
0.0
10
6286.0
20
-663.0
30
0.0
10
6307.0
20
-663.0
30
0.0
10
6328.0
20
-663.0
30
0.0
10
6350.0
20
-663.0
30
0.0
10
6372.0
20
-661.0
30
0.0
10
6394.0
20
-658.0
30
0.0
10
6416.0
20
-653.0
30
0.0
10
6439.0
20
-648.0
30
0.0
10
6462.0
20
-641.0
30
0.0
10
6483.0
20
-633.0
30
0.0
10
6503.0
20
-624.0
30
0.0
10
6524.0
20
-614.0
30
0.0
10
6545.0
20
-604.0
30
0.0
10
6565.0
20
-593.0
30
0.0
10
6585.0
20
-582.0
30
0.0
10
6605.0
20
-571.0
30
0.0
10
6509.0
20
-811.0
30
0.0
6
Solid
370
35
62
2
0
LWPOLYLINE
5
27f4
100
AcDbEntity
8
zone_1_q3
100
AcDbPolyline
90
5
70
1
10
7999.0
20
-7144.0
30
0.0
10
7837.0
20
-8024.0
30
0.0
10
7326.0
20
-7864.0
30
0.0
10
7211.0
20
-7215.0
30
0.0
10
7999.0
20
-7144.0
30
0.0
6
Solid
370
35
62
3
0
LWPOLYLINE
5
27f7
100
AcDbEntity
8
zone_2_q3
100
AcDbPolyline
90
5
70
1
10
3545.0
20
-7329.0
30
0.0
10
2839.0
20
-7326.0
30
0.0
10
3025.0
20
-6638.0
30
0.0
10
3607.0
20
-6683.0
30
0.0
10
3545.0
20
-7329.0
30
0.0
6
Solid
370
35
62
3
0
LWPOLYLINE
5
27fa
100
AcDbEntity
8
zone_3_q3
100
AcDbPolyline
90
5
70
1
10
8346.0
20
-1439.0
30
0.0
10
7603.0
20
-1548.0
30
0.0
10
7650.0
20
-631.0
30
0.0
10
8446.0
20
-579.0
30
0.0
10
8346.0
20
-1439.0
30
0.0
6
Solid
370
35
62
3
0
LWPOLYLINE
5
27fd
100
AcDbEntity
8
zone_4_q3
100
AcDbPolyline
90
5
70
1
10
3821.0
20
-1649.0
30
0.0
10
2963.0
20
-1743.0
30
0.0
10
3083.0
20
-872.0
30
0.0
10
3883.0
20
-839.0
30
0.0
10
3821.0
20
-1649.0
30
0.0
6
Solid
370
35
62
3
0
ENDSEC
0
SECTION
2
OBJECTS
0
DICTIONARY
5
27de
330
0
100
AcDbDictionary
281
1
3
ACAD_GROUP
350
27df
0
DICTIONARY
5
27df
330
27de
100
AcDbDictionary
281
1
0
ENDSEC
0
EOF
