999

0
SECTION
2
HEADER
9
$ACADVER
1
AC1021
9
$HANDSEED
5
268c
0
ENDSEC
0
SECTION
2
CLASSES
0
ENDSEC
0
SECTION
2
TABLES
0
TABLE
2
VPORT
5
2648
100
AcDbSymbolTable
70
1
0
VPORT
5
2647
100
AcDbSymbolTableRecord
100
AcDbViewportTableRecord
2
*ACTIVE
10
0
20
0
11
1
21
1
12
500.0
22
500.0
40
1000.0
70
0
0
ENDTAB
0
TABLE
2
LTYPE
5
2649
100
AcDbSymbolTable
70
3
0
LTYPE
5
2651
100
AcDbSymbolTableRecord
100
AcDbLinetypeTableRecord
2
Solid
70
0
72
65
73
0
3

0
LTYPE
5
2652
100
AcDbSymbolTableRecord
100
AcDbLinetypeTableRecord
2
ByBlock
70
0
72
65
73
0
3

0
LTYPE
5
2653
100
AcDbSymbolTableRecord
100
AcDbLinetypeTableRecord
2
ByLayer
70
0
72
65
73
0
3

0
ENDTAB
0
TABLE
2
LAYER
5
264a
100
AcDbSymbolTable
70
9
0
LAYER
5
2654
100
AcDbSymbolTableRecord
100
AcDbLayerTableRecord
2
0
70
0
390
0
0
LAYER
5
2674
100
AcDbSymbolTableRecord
100
AcDbLayerTableRecord
2
zone_0_q2
70
0
390
0
0
LAYER
5
2677
100
AcDbSymbolTableRecord
100
AcDbLayerTableRecord
2
zone_1_q2
70
0
390
0
0
LAYER
5
267a
100
AcDbSymbolTableRecord
100
AcDbLayerTableRecord
2
zone_2_q3
70
0
390
0
0
LAYER
5
267d
100
AcDbSymbolTableRecord
100
AcDbLayerTableRecord
2
zone_3_q1
70
0
390
0
0
LAYER
5
2680
100
AcDbSymbolTableRecord
100
AcDbLayerTableRecord
2
zone_4_q3
70
0
390
0
0
LAYER
5
2683
100
AcDbSymbolTableRecord
100
AcDbLayerTableRecord
2
zone_5_q3
70
0
390
0
0
LAYER
5
2686
100
AcDbSymbolTableRecord
100
AcDbLayerTableRecord
2
zone_6_q3
70
0
390
0
0
LAYER
5
2689
100
AcDbSymbolTableRecord
100
AcDbLayerTableRecord
2
zone_7_q3
70
0
390
0
0
ENDTAB
0
TABLE
2
STYLE
5
264b
100
AcDbSymbolTable
70
0
0
ENDTAB
0
TABLE
2
VIEW
5
264c
100
AcDbSymbolTable
70
0
0
ENDTAB
0
TABLE
2
UCS
5
264d
100
AcDbSymbolTable
70
0
0
ENDTAB
0
TABLE
2
APPID
5
264e
100
AcDbSymbolTable
70
1
0
APPID
5
2655
100
AcDbSymbolTableRecord
100
AcDbRegAppTableRecord
2
ACAD
70
0
0
ENDTAB
0
TABLE
2
DIMSTYLE
5
264f
100
AcDbSymbolTable
70
0
100
AcDbDimStyleTable
71
1
0
ENDTAB
0
TABLE
2
BLOCK_RECORD
5
2650
100
AcDbSymbolTable
70
2
0
BLOCK_RECORD
5
2656
100
AcDbSymbolTableRecord
100
AcDbBlockTableRecord
2
*Model_Space
70
0
280
1
281
0
0
BLOCK_RECORD
5
2657
100
AcDbSymbolTableRecord
100
AcDbBlockTableRecord
2
*Paper_Space
70
0
280
1
281
0
0
ENDTAB
0
ENDSEC
0
SECTION
2
BLOCKS
0
BLOCK
5
2658
100
AcDbEntity
100
AcDbBlockBegin
2
*Model_Space
70
0
10
0
20
0
30
0
3
*Model_Space
1

0
ENDBLK
5
2659
100
AcDbEntity
100
AcDbBlockEnd
0
BLOCK
5
265a
100
AcDbEntity
100
AcDbBlockBegin
2
*Paper_Space
70
0
10
0
20
0
30
0
3
*Paper_Space
1

0
ENDBLK
5
265b
100
AcDbEntity
100
AcDbBlockEnd
0
ENDSEC
0
SECTION
2
ENTITIES
0
LWPOLYLINE
5
265e
100
AcDbEntity
100
AcDbPolyline
90
1274
70
1
10
748.0
20
-2653.0
30
0.0
10
751.0
20
-2654.0
30
0.0
10
760.0
20
-2655.0
30
0.0
10
773.0
20
-2657.0
30
0.0
10
789.0
20
-2659.0
30
0.0
10
809.0
20
-2660.0
30
0.0
10
831.0
20
-2662.0
30
0.0
10
853.0
20
-2662.0
30
0.0
10
877.0
20
-2662.0
30
0.0
10
899.0
20
-2661.0
30
0.0
10
920.0
20
-2659.0
30
0.0
10
938.0
20
-2657.0
30
0.0
10
952.0
20
-2656.0
30
0.0
10
961.0
20
-2655.0
30
0.0
10
965.0
20
-2654.0
30
0.0
10
968.0
20
-2653.0
30
0.0
10
976.0
20
-2652.0
30
0.0
10
989.0
20
-2649.0
30
0.0
10
1004.0
20
-2645.0
30
0.0
10
1022.0
20
-2639.0
30
0.0
10
1040.0
20
-2633.0
30
0.0
10
1059.0
20
-2626.0
30
0.0
10
1074.0
20
-2619.0
30
0.0
10
1087.0
20
-2612.0
30
0.0
10
1099.0
20
-2605.0
30
0.0
10
1109.0
20
-2599.0
30
0.0
10
1116.0
20
-2594.0
30
0.0
10
1121.0
20
-2591.0
30
0.0
10
1123.0
20
-2589.0
30
0.0
10
1125.0
20
-2589.0
30
0.0
10
1130.0
20
-2588.0
30
0.0
10
1139.0
20
-2586.0
30
0.0
10
1149.0
20
-2583.0
30
0.0
10
1160.0
20
-2579.0
30
0.0
10
1172.0
20
-2574.0
30
0.0
10
1183.0
20
-2567.0
30
0.0
10
1192.0
20
-2560.0
30
0.0
10
1199.0
20
-2553.0
30
0.0
10
1206.0
20
-2545.0
30
0.0
10
1211.0
20
-2538.0
30
0.0
10
1215.0
20
-2533.0
30
0.0
10
1217.0
20
-2529.0
30
0.0
10
1218.0
20
-2527.0
30
0.0
10
1219.0
20
-2526.0
30
0.0
10
1224.0
20
-2521.0
30
0.0
10
1231.0
20
-2515.0
30
0.0
10
1239.0
20
-2506.0
30
0.0
10
1250.0
20
-2496.0
30
0.0
10
1262.0
20
-2484.0
30
0.0
10
1274.0
20
-2472.0
30
0.0
10
1289.0
20
-2458.0
30
0.0
10
1303.0
20
-2443.0
30
0.0
10
1317.0
20
-2430.0
30
0.0
10
1329.0
20
-2418.0
30
0.0
10
1338.0
20
-2409.0
30
0.0
10
1344.0
20
-2403.0
30
0.0
10
1346.0
20
-2401.0
30
0.0
10
1350.0
20
-2398.0
30
0.0
10
1360.0
20
-2392.0
30
0.0
10
1374.0
20
-2383.0
30
0.0
10
1392.0
20
-2372.0
30
0.0
10
1411.0
20
-2361.0
30
0.0
10
1431.0
20
-2350.0
30
0.0
10
1448.0
20
-2342.0
30
0.0
10
1461.0
20
-2337.0
30
0.0
10
1473.0
20
-2333.0
30
0.0
10
1483.0
20
-2331.0
30
0.0
10
1493.0
20
-2330.0
30
0.0
10
1504.0
20
-2329.0
30
0.0
10
1517.0
20
-2328.0
30
0.0
10
1531.0
20
-2326.0
30
0.0
10
1550.0
20
-2323.0
30
0.0
10
1572.0
20
-2319.0
30
0.0
10
1593.0
20
-2314.0
30
0.0
10
1613.0
20
-2310.0
30
0.0
10
1629.0
20
-2306.0
30
0.0
10
1640.0
20
-2303.0
30
0.0
10
1644.0
20
-2302.0
30
0.0
10
1702.0
20
-2353.0
30
0.0
10
1705.0
20
-2349.0
30
0.0
10
1714.0
20
-2338.0
30
0.0
10
1728.0
20
-2322.0
30
0.0
10
1745.0
20
-2302.0
30
0.0
10
1764.0
20
-2279.0
30
0.0
10
1784.0
20
-2254.0
30
0.0
10
1802.0
20
-2230.0
30
0.0
10
1820.0
20
-2206.0
30
0.0
10
1835.0
20
-2182.0
30
0.0
10
1849.0
20
-2160.0
30
0.0
10
1860.0
20
-2138.0
30
0.0
10
1871.0
20
-2117.0
30
0.0
10
1880.0
20
-2095.0
30
0.0
10
1889.0
20
-2073.0
30
0.0
10
1897.0
20
-2051.0
30
0.0
10
1904.0
20
-2029.0
30
0.0
10
1912.0
20
-2005.0
30
0.0
10
1919.0
20
-1982.0
30
0.0
10
1928.0
20
-1958.0
30
0.0
10
1936.0
20
-1934.0
30
0.0
10
1946.0
20
-1911.0
30
0.0
10
1958.0
20
-1884.0
30
0.0
10
1971.0
20
-1856.0
30
0.0
10
1985.0
20
-1828.0
30
0.0
10
1999.0
20
-1800.0
30
0.0
10
2012.0
20
-1770.0
30
0.0
10
2025.0
20
-1738.0
30
0.0
10
2036.0
20
-1705.0
30
0.0
10
2048.0
20
-1661.0
30
0.0
10
2057.0
20
-1616.0
30
0.0
10
2065.0
20
-1569.0
30
0.0
10
2071.0
20
-1521.0
30
0.0
10
2076.0
20
-1474.0
30
0.0
10
2080.0
20
-1429.0
30
0.0
10
2084.0
20
-1385.0
30
0.0
10
2086.0
20
-1354.0
30
0.0
10
2089.0
20
-1326.0
30
0.0
10
2092.0
20
-1299.0
30
0.0
10
2096.0
20
-1273.0
30
0.0
10
2102.0
20
-1250.0
30
0.0
10
2109.0
20
-1227.0
30
0.0
10
2118.0
20
-1207.0
30
0.0
10
2129.0
20
-1190.0
30
0.0
10
2141.0
20
-1174.0
30
0.0
10
2154.0
20
-1159.0
30
0.0
10
2168.0
20
-1144.0
30
0.0
10
2184.0
20
-1130.0
30
0.0
10
2199.0
20
-1116.0
30
0.0
10
2215.0
20
-1103.0
30
0.0
10
2234.0
20
-1086.0
30
0.0
10
2253.0
20
-1069.0
30
0.0
10
2273.0
20
-1051.0
30
0.0
10
2294.0
20
-1032.0
30
0.0
10
2316.0
20
-1011.0
30
0.0
10
2341.0
20
-987.0
30
0.0
10
2367.0
20
-961.0
30
0.0
10
2397.0
20
-931.0
30
0.0
10
2429.0
20
-899.0
30
0.0
10
2459.0
20
-868.0
30
0.0
10
2486.0
20
-840.0
30
0.0
10
2508.0
20
-818.0
30
0.0
10
2522.0
20
-803.0
30
0.0
10
2528.0
20
-797.0
30
0.0
10
2529.0
20
-798.0
30
0.0
10
2534.0
20
-800.0
30
0.0
10
2540.0
20
-802.0
30
0.0
10
2549.0
20
-805.0
30
0.0
10
2559.0
20
-808.0
30
0.0
10
2570.0
20
-810.0
30
0.0
10
2581.0
20
-810.0
30
0.0
10
2593.0
20
-809.0
30
0.0
10
2605.0
20
-806.0
30
0.0
10
2616.0
20
-802.0
30
0.0
10
2625.0
20
-798.0
30
0.0
10
2632.0
20
-795.0
30
0.0
10
2637.0
20
-792.0
30
0.0
10
2638.0
20
-791.0
30
0.0
10
2701.0
20
-873.0
30
0.0
10
2705.0
20
-872.0
30
0.0
10
2717.0
20
-870.0
30
0.0
10
2735.0
20
-865.0
30
0.0
10
2759.0
20
-859.0
30
0.0
10
2786.0
20
-852.0
30
0.0
10
2816.0
20
-844.0
30
0.0
10
2848.0
20
-835.0
30
0.0
10
2880.0
20
-824.0
30
0.0
10
2911.0
20
-814.0
30
0.0
10
2940.0
20
-804.0
30
0.0
10
2965.0
20
-795.0
30
0.0
10
2984.0
20
-788.0
30
0.0
10
2997.0
20
-783.0
30
0.0
10
3001.0
20
-781.0
30
0.0
10
3005.0
20
-784.0
30
0.0
10
3014.0
20
-790.0
30
0.0
10
3028.0
20
-800.0
30
0.0
10
3046.0
20
-813.0
30
0.0
10
3066.0
20
-827.0
30
0.0
10
3087.0
20
-842.0
30
0.0
10
3107.0
20
-858.0
30
0.0
10
3127.0
20
-874.0
30
0.0
10
3145.0
20
-889.0
30
0.0
10
3162.0
20
-903.0
30
0.0
10
3178.0
20
-917.0
30
0.0
10
3195.0
20
-930.0
30
0.0
10
3212.0
20
-942.0
30
0.0
10
3231.0
20
-953.0
30
0.0
10
3253.0
20
-965.0
30
0.0
10
3277.0
20
-976.0
30
0.0
10
3302.0
20
-987.0
30
0.0
10
3327.0
20
-999.0
30
0.0
10
3351.0
20
-1011.0
30
0.0
10
3374.0
20
-1024.0
30
0.0
10
3395.0
20
-1038.0
30
0.0
10
3413.0
20
-1053.0
30
0.0
10
3429.0
20
-1069.0
30
0.0
10
3444.0
20
-1086.0
30
0.0
10
3459.0
20
-1104.0
30
0.0
10
3475.0
20
-1122.0
30
0.0
10
3492.0
20
-1141.0
30
0.0
10
3511.0
20
-1160.0
30
0.0
10
3529.0
20
-1177.0
30
0.0
10
3548.0
20
-1193.0
30
0.0
10
3567.0
20
-1207.0
30
0.0
10
3584.0
20
-1220.0
30
0.0
10
3598.0
20
-1230.0
30
0.0
10
3607.0
20
-1236.0
30
0.0
10
3611.0
20
-1238.0
30
0.0
10
3617.0
20
-1240.0
30
0.0
10
3634.0
20
-1243.0
30
0.0
10
3660.0
20
-1248.0
30
0.0
10
3691.0
20
-1254.0
30
0.0
10
3726.0
20
-1261.0
30
0.0
10
3761.0
20
-1269.0
30
0.0
10
3795.0
20
-1276.0
30
0.0
10
3824.0
20
-1281.0
30
0.0
10
3850.0
20
-1287.0
30
0.0
10
3874.0
20
-1292.0
30
0.0
10
3895.0
20
-1296.0
30
0.0
10
3916.0
20
-1301.0
30
0.0
10
3937.0
20
-1305.0
30
0.0
10
3958.0
20
-1310.0
30
0.0
10
3980.0
20
-1315.0
30
0.0
10
4003.0
20
-1321.0
30
0.0
10
4027.0
20
-1327.0
30
0.0
10
4052.0
20
-1333.0
30
0.0
10
4078.0
20
-1338.0
30
0.0
10
4104.0
20
-1344.0
30
0.0
10
4130.0
20
-1349.0
30
0.0
10
4150.0
20
-1352.0
30
0.0
10
4169.0
20
-1355.0
30
0.0
10
4186.0
20
-1358.0
30
0.0
10
4202.0
20
-1360.0
30
0.0
10
4213.0
20
-1361.0
30
0.0
10
4221.0
20
-1362.0
30
0.0
10
4224.0
20
-1363.0
30
0.0
10
4230.0
20
-1361.0
30
0.0
10
4247.0
20
-1358.0
30
0.0
10
4272.0
20
-1353.0
30
0.0
10
4304.0
20
-1346.0
30
0.0
10
4340.0
20
-1338.0
30
0.0
10
4378.0
20
-1329.0
30
0.0
10
4415.0
20
-1320.0
30
0.0
10
4455.0
20
-1309.0
30
0.0
10
4492.0
20
-1299.0
30
0.0
10
4527.0
20
-1288.0
30
0.0
10
4560.0
20
-1277.0
30
0.0
10
4592.0
20
-1265.0
30
0.0
10
4622.0
20
-1252.0
30
0.0
10
4651.0
20
-1238.0
30
0.0
10
4676.0
20
-1224.0
30
0.0
10
4702.0
20
-1210.0
30
0.0
10
4726.0
20
-1195.0
30
0.0
10
4751.0
20
-1181.0
30
0.0
10
4776.0
20
-1167.0
30
0.0
10
4800.0
20
-1153.0
30
0.0
10
4824.0
20
-1141.0
30
0.0
10
4846.0
20
-1131.0
30
0.0
10
4867.0
20
-1122.0
30
0.0
10
4889.0
20
-1114.0
30
0.0
10
4911.0
20
-1108.0
30
0.0
10
4933.0
20
-1103.0
30
0.0
10
4954.0
20
-1099.0
30
0.0
10
4976.0
20
-1096.0
30
0.0
10
4997.0
20
-1095.0
30
0.0
10
5018.0
20
-1095.0
30
0.0
10
5038.0
20
-1095.0
30
0.0
10
5058.0
20
-1096.0
30
0.0
10
5078.0
20
-1097.0
30
0.0
10
5097.0
20
-1098.0
30
0.0
10
5115.0
20
-1100.0
30
0.0
10
5131.0
20
-1101.0
30
0.0
10
5146.0
20
-1102.0
30
0.0
10
5161.0
20
-1102.0
30
0.0
10
5176.0
20
-1102.0
30
0.0
10
5192.0
20
-1101.0
30
0.0
10
5208.0
20
-1099.0
30
0.0
10
5226.0
20
-1097.0
30
0.0
10
5253.0
20
-1092.0
30
0.0
10
5283.0
20
-1085.0
30
0.0
10
5314.0
20
-1077.0
30
0.0
10
5346.0
20
-1068.0
30
0.0
10
5379.0
20
-1058.0
30
0.0
10
5412.0
20
-1048.0
30
0.0
10
5443.0
20
-1038.0
30
0.0
10
5474.0
20
-1028.0
30
0.0
10
5504.0
20
-1017.0
30
0.0
10
5532.0
20
-1006.0
30
0.0
10
5561.0
20
-994.0
30
0.0
10
5589.0
20
-980.0
30
0.0
10
5617.0
20
-965.0
30
0.0
10
5646.0
20
-947.0
30
0.0
10
5680.0
20
-923.0
30
0.0
10
5714.0
20
-897.0
30
0.0
10
5748.0
20
-870.0
30
0.0
10
5782.0
20
-842.0
30
0.0
10
5815.0
20
-814.0
30
0.0
10
5847.0
20
-788.0
30
0.0
10
5878.0
20
-764.0
30
0.0
10
5905.0
20
-745.0
30
0.0
10
5931.0
20
-727.0
30
0.0
10
5957.0
20
-710.0
30
0.0
10
5984.0
20
-693.0
30
0.0
10
6013.0
20
-673.0
30
0.0
10
6044.0
20
-651.0
30
0.0
10
6078.0
20
-624.0
30
0.0
10
6121.0
20
-589.0
30
0.0
10
6165.0
20
-550.0
30
0.0
10
6208.0
20
-511.0
30
0.0
10
6247.0
20
-475.0
30
0.0
10
6279.0
20
-445.0
30
0.0
10
6300.0
20
-425.0
30
0.0
10
6308.0
20
-418.0
30
0.0
10
6431.0
20
-391.0
30
0.0
10
6534.0
20
-337.0
30
0.0
10
6615.0
20
-239.0
30
0.0
10
6617.0
20
-237.0
30
0.0
10
6623.0
20
-233.0
30
0.0
10
6633.0
20
-226.0
30
0.0
10
6645.0
20
-218.0
30
0.0
10
6658.0
20
-209.0
30
0.0
10
6674.0
20
-201.0
30
0.0
10
6690.0
20
-193.0
30
0.0
10
6704.0
20
-187.0
30
0.0
10
6717.0
20
-182.0
30
0.0
10
6730.0
20
-179.0
30
0.0
10
6740.0
20
-176.0
30
0.0
10
6749.0
20
-174.0
30
0.0
10
6754.0
20
-173.0
30
0.0
10
6756.0
20
-172.0
30
0.0
10
6759.0
20
-173.0
30
0.0
10
6766.0
20
-174.0
30
0.0
10
6777.0
20
-175.0
30
0.0
10
6791.0
20
-176.0
30
0.0
10
6807.0
20
-178.0
30
0.0
10
6824.0
20
-180.0
30
0.0
10
6840.0
20
-182.0
30
0.0
10
6852.0
20
-184.0
30
0.0
10
6863.0
20
-185.0
30
0.0
10
6873.0
20
-187.0
30
0.0
10
6881.0
20
-188.0
30
0.0
10
6887.0
20
-189.0
30
0.0
10
6891.0
20
-190.0
30
0.0
10
6893.0
20
-190.0
30
0.0
10
6895.0
20
-190.0
30
0.0
10
6901.0
20
-189.0
30
0.0
10
6910.0
20
-189.0
30
0.0
10
6922.0
20
-188.0
30
0.0
10
6936.0
20
-186.0
30
0.0
10
6951.0
20
-183.0
30
0.0
10
6967.0
20
-179.0
30
0.0
10
6984.0
20
-174.0
30
0.0
10
7000.0
20
-168.0
30
0.0
10
7015.0
20
-161.0
30
0.0
10
7027.0
20
-155.0
30
0.0
10
7037.0
20
-150.0
30
0.0
10
7044.0
20
-147.0
30
0.0
10
7046.0
20
-146.0
30
0.0
10
7048.0
20
-145.0
30
0.0
10
7055.0
20
-144.0
30
0.0
10
7066.0
20
-141.0
30
0.0
10
7079.0
20
-137.0
30
0.0
10
7093.0
20
-132.0
30
0.0
10
7108.0
20
-126.0
30
0.0
10
7123.0
20
-118.0
30
0.0
10
7136.0
20
-110.0
30
0.0
10
7147.0
20
-101.0
30
0.0
10
7157.0
20
-93.0
30
0.0
10
7165.0
20
-85.0
30
0.0
10
7172.0
20
-78.0
30
0.0
10
7175.0
20
-74.0
30
0.0
10
7177.0
20
-73.0
30
0.0
10
7269.0
20
0.0
30
0.0
10
7271.0
20
-3.0
30
0.0
10
7279.0
20
-9.0
30
0.0
10
7290.0
20
-20.0
30
0.0
10
7304.0
20
-32.0
30
0.0
10
7321.0
20
-46.0
30
0.0
10
7340.0
20
-60.0
30
0.0
10
7360.0
20
-73.0
30
0.0
10
7385.0
20
-87.0
30
0.0
10
7410.0
20
-97.0
30
0.0
10
7436.0
20
-106.0
30
0.0
10
7461.0
20
-113.0
30
0.0
10
7486.0
20
-118.0
30
0.0
10
7510.0
20
-122.0
30
0.0
10
7532.0
20
-125.0
30
0.0
10
7549.0
20
-127.0
30
0.0
10
7566.0
20
-129.0
30
0.0
10
7582.0
20
-131.0
30
0.0
10
7597.0
20
-134.0
30
0.0
10
7612.0
20
-136.0
30
0.0
10
7627.0
20
-140.0
30
0.0
10
7643.0
20
-144.0
30
0.0
10
7661.0
20
-151.0
30
0.0
10
7681.0
20
-158.0
30
0.0
10
7700.0
20
-166.0
30
0.0
10
7721.0
20
-175.0
30
0.0
10
7743.0
20
-184.0
30
0.0
10
7765.0
20
-193.0
30
0.0
10
7789.0
20
-201.0
30
0.0
10
7817.0
20
-210.0
30
0.0
10
7845.0
20
-218.0
30
0.0
10
7873.0
20
-225.0
30
0.0
10
7900.0
20
-233.0
30
0.0
10
7926.0
20
-240.0
30
0.0
10
7948.0
20
-249.0
30
0.0
10
7967.0
20
-258.0
30
0.0
10
7976.0
20
-264.0
30
0.0
10
7985.0
20
-270.0
30
0.0
10
7992.0
20
-276.0
30
0.0
10
7999.0
20
-283.0
30
0.0
10
8007.0
20
-289.0
30
0.0
10
8015.0
20
-296.0
30
0.0
10
8024.0
20
-302.0
30
0.0
10
8042.0
20
-310.0
30
0.0
10
8063.0
20
-318.0
30
0.0
10
8087.0
20
-326.0
30
0.0
10
8112.0
20
-332.0
30
0.0
10
8139.0
20
-338.0
30
0.0
10
8167.0
20
-344.0
30
0.0
10
8194.0
20
-350.0
30
0.0
10
8221.0
20
-355.0
30
0.0
10
8247.0
20
-360.0
30
0.0
10
8273.0
20
-365.0
30
0.0
10
8299.0
20
-370.0
30
0.0
10
8326.0
20
-375.0
30
0.0
10
8353.0
20
-380.0
30
0.0
10
8382.0
20
-384.0
30
0.0
10
8420.0
20
-390.0
30
0.0
10
8461.0
20
-396.0
30
0.0
10
8502.0
20
-402.0
30
0.0
10
8545.0
20
-410.0
30
0.0
10
8589.0
20
-419.0
30
0.0
10
8633.0
20
-430.0
30
0.0
10
8676.0
20
-443.0
30
0.0
10
8705.0
20
-454.0
30
0.0
10
8733.0
20
-465.0
30
0.0
10
8758.0
20
-476.0
30
0.0
10
8779.0
20
-486.0
30
0.0
10
8796.0
20
-494.0
30
0.0
10
8807.0
20
-499.0
30
0.0
10
8810.0
20
-501.0
30
0.0
10
8811.0
20
-504.0
30
0.0
10
8811.0
20
-512.0
30
0.0
10
8811.0
20
-524.0
30
0.0
10
8812.0
20
-539.0
30
0.0
10
8812.0
20
-556.0
30
0.0
10
8811.0
20
-575.0
30
0.0
10
8810.0
20
-593.0
30
0.0
10
8807.0
20
-617.0
30
0.0
10
8802.0
20
-640.0
30
0.0
10
8796.0
20
-663.0
30
0.0
10
8789.0
20
-687.0
30
0.0
10
8782.0
20
-713.0
30
0.0
10
8774.0
20
-742.0
30
0.0
10
8766.0
20
-774.0
30
0.0
10
8753.0
20
-836.0
30
0.0
10
8741.0
20
-907.0
30
0.0
10
8730.0
20
-982.0
30
0.0
10
8720.0
20
-1058.0
30
0.0
10
8712.0
20
-1132.0
30
0.0
10
8705.0
20
-1198.0
30
0.0
10
8702.0
20
-1255.0
30
0.0
10
8700.0
20
-1278.0
30
0.0
10
8700.0
20
-1299.0
30
0.0
10
8700.0
20
-1317.0
30
0.0
10
8700.0
20
-1334.0
30
0.0
10
8700.0
20
-1350.0
30
0.0
10
8700.0
20
-1365.0
30
0.0
10
8700.0
20
-1382.0
30
0.0
10
8700.0
20
-1400.0
30
0.0
10
8699.0
20
-1420.0
30
0.0
10
8699.0
20
-1441.0
30
0.0
10
8699.0
20
-1462.0
30
0.0
10
8700.0
20
-1484.0
30
0.0
10
8701.0
20
-1506.0
30
0.0
10
8705.0
20
-1528.0
30
0.0
10
8710.0
20
-1552.0
30
0.0
10
8717.0
20
-1576.0
30
0.0
10
8724.0
20
-1599.0
30
0.0
10
8733.0
20
-1623.0
30
0.0
10
8741.0
20
-1647.0
30
0.0
10
8750.0
20
-1671.0
30
0.0
10
8757.0
20
-1696.0
30
0.0
10
8764.0
20
-1723.0
30
0.0
10
8771.0
20
-1751.0
30
0.0
10
8777.0
20
-1779.0
30
0.0
10
8783.0
20
-1806.0
30
0.0
10
8790.0
20
-1832.0
30
0.0
10
8798.0
20
-1858.0
30
0.0
10
8809.0
20
-1882.0
30
0.0
10
8820.0
20
-1902.0
30
0.0
10
8833.0
20
-1921.0
30
0.0
10
8846.0
20
-1939.0
30
0.0
10
8859.0
20
-1957.0
30
0.0
10
8873.0
20
-1975.0
30
0.0
10
8884.0
20
-1994.0
30
0.0
10
8895.0
20
-2014.0
30
0.0
10
8904.0
20
-2038.0
30
0.0
10
8911.0
20
-2064.0
30
0.0
10
8916.0
20
-2090.0
30
0.0
10
8920.0
20
-2118.0
30
0.0
10
8923.0
20
-2146.0
30
0.0
10
8927.0
20
-2174.0
30
0.0
10
8931.0
20
-2202.0
30
0.0
10
8937.0
20
-2229.0
30
0.0
10
8943.0
20
-2257.0
30
0.0
10
8948.0
20
-2284.0
30
0.0
10
8953.0
20
-2312.0
30
0.0
10
8956.0
20
-2340.0
30
0.0
10
8957.0
20
-2369.0
30
0.0
10
8954.0
20
-2399.0
30
0.0
10
8949.0
20
-2424.0
30
0.0
10
8943.0
20
-2449.0
30
0.0
10
8935.0
20
-2473.0
30
0.0
10
8928.0
20
-2494.0
30
0.0
10
8922.0
20
-2510.0
30
0.0
10
8917.0
20
-2521.0
30
0.0
10
8915.0
20
-2525.0
30
0.0
10
8971.0
20
-2543.0
30
0.0
10
8977.0
20
-2624.0
30
0.0
10
8976.0
20
-2629.0
30
0.0
10
8973.0
20
-2643.0
30
0.0
10
8970.0
20
-2663.0
30
0.0
10
8965.0
20
-2689.0
30
0.0
10
8961.0
20
-2717.0
30
0.0
10
8957.0
20
-2747.0
30
0.0
10
8954.0
20
-2775.0
30
0.0
10
8952.0
20
-2804.0
30
0.0
10
8951.0
20
-2831.0
30
0.0
10
8952.0
20
-2856.0
30
0.0
10
8953.0
20
-2881.0
30
0.0
10
8956.0
20
-2907.0
30
0.0
10
8958.0
20
-2935.0
30
0.0
10
8961.0
20
-2965.0
30
0.0
10
8963.0
20
-2999.0
30
0.0
10
8966.0
20
-3033.0
30
0.0
10
8968.0
20
-3067.0
30
0.0
10
8970.0
20
-3097.0
30
0.0
10
8971.0
20
-3122.0
30
0.0
10
8972.0
20
-3138.0
30
0.0
10
8972.0
20
-3144.0
30
0.0
10
9047.0
20
-3306.0
30
0.0
10
9129.0
20
-3484.0
30
0.0
10
9128.0
20
-3485.0
30
0.0
10
9125.0
20
-3490.0
30
0.0
10
9119.0
20
-3498.0
30
0.0
10
9113.0
20
-3508.0
30
0.0
10
9105.0
20
-3519.0
30
0.0
10
9098.0
20
-3532.0
30
0.0
10
9090.0
20
-3545.0
30
0.0
10
9083.0
20
-3557.0
30
0.0
10
9077.0
20
-3569.0
30
0.0
10
9072.0
20
-3580.0
30
0.0
10
9068.0
20
-3589.0
30
0.0
10
9065.0
20
-3597.0
30
0.0
10
9063.0
20
-3602.0
30
0.0
10
9062.0
20
-3603.0
30
0.0
10
9061.0
20
-3608.0
30
0.0
10
9060.0
20
-3620.0
30
0.0
10
9059.0
20
-3639.0
30
0.0
10
9057.0
20
-3663.0
30
0.0
10
9055.0
20
-3689.0
30
0.0
10
9053.0
20
-3717.0
30
0.0
10
9052.0
20
-3744.0
30
0.0
10
9051.0
20
-3770.0
30
0.0
10
9051.0
20
-3794.0
30
0.0
10
9052.0
20
-3817.0
30
0.0
10
9053.0
20
-3838.0
30
0.0
10
9055.0
20
-3858.0
30
0.0
10
9057.0
20
-3879.0
30
0.0
10
9059.0
20
-3899.0
30
0.0
10
9062.0
20
-3918.0
30
0.0
10
9064.0
20
-3938.0
30
0.0
10
9066.0
20
-3958.0
30
0.0
10
9068.0
20
-3978.0
30
0.0
10
9070.0
20
-3998.0
30
0.0
10
9071.0
20
-4018.0
30
0.0
10
9072.0
20
-4038.0
30
0.0
10
9073.0
20
-4062.0
30
0.0
10
9074.0
20
-4086.0
30
0.0
10
9075.0
20
-4112.0
30
0.0
10
9077.0
20
-4140.0
30
0.0
10
9080.0
20
-4170.0
30
0.0
10
9084.0
20
-4203.0
30
0.0
10
9090.0
20
-4241.0
30
0.0
10
9099.0
20
-4289.0
30
0.0
10
9109.0
20
-4340.0
30
0.0
10
9121.0
20
-4389.0
30
0.0
10
9132.0
20
-4434.0
30
0.0
10
9141.0
20
-4471.0
30
0.0
10
9147.0
20
-4496.0
30
0.0
10
9149.0
20
-4505.0
30
0.0
10
9147.0
20
-4509.0
30
0.0
10
9140.0
20
-4519.0
30
0.0
10
9129.0
20
-4535.0
30
0.0
10
9116.0
20
-4555.0
30
0.0
10
9102.0
20
-4578.0
30
0.0
10
9089.0
20
-4602.0
30
0.0
10
9076.0
20
-4627.0
30
0.0
10
9064.0
20
-4654.0
30
0.0
10
9056.0
20
-4681.0
30
0.0
10
9049.0
20
-4707.0
30
0.0
10
9045.0
20
-4733.0
30
0.0
10
9042.0
20
-4759.0
30
0.0
10
9041.0
20
-4786.0
30
0.0
10
9040.0
20
-4814.0
30
0.0
10
9041.0
20
-4848.0
30
0.0
10
9041.0
20
-4883.0
30
0.0
10
9043.0
20
-4920.0
30
0.0
10
9046.0
20
-4957.0
30
0.0
10
9050.0
20
-4995.0
30
0.0
10
9055.0
20
-5032.0
30
0.0
10
9061.0
20
-5069.0
30
0.0
10
9069.0
20
-5104.0
30
0.0
10
9077.0
20
-5138.0
30
0.0
10
9087.0
20
-5172.0
30
0.0
10
9097.0
20
-5204.0
30
0.0
10
9108.0
20
-5236.0
30
0.0
10
9119.0
20
-5268.0
30
0.0
10
9130.0
20
-5300.0
30
0.0
10
9138.0
20
-5320.0
30
0.0
10
9145.0
20
-5340.0
30
0.0
10
9151.0
20
-5357.0
30
0.0
10
9157.0
20
-5372.0
30
0.0
10
9161.0
20
-5384.0
30
0.0
10
9164.0
20
-5392.0
30
0.0
10
9165.0
20
-5395.0
30
0.0
10
9165.0
20
-5400.0
30
0.0
10
9164.0
20
-5414.0
30
0.0
10
9162.0
20
-5436.0
30
0.0
10
9161.0
20
-5463.0
30
0.0
10
9158.0
20
-5493.0
30
0.0
10
9155.0
20
-5525.0
30
0.0
10
9151.0
20
-5556.0
30
0.0
10
9146.0
20
-5586.0
30
0.0
10
9141.0
20
-5614.0
30
0.0
10
9136.0
20
-5641.0
30
0.0
10
9132.0
20
-5666.0
30
0.0
10
9130.0
20
-5689.0
30
0.0
10
9130.0
20
-5713.0
30
0.0
10
9132.0
20
-5737.0
30
0.0
10
9137.0
20
-5761.0
30
0.0
10
9145.0
20
-5786.0
30
0.0
10
9154.0
20
-5811.0
30
0.0
10
9165.0
20
-5836.0
30
0.0
10
9176.0
20
-5862.0
30
0.0
10
9186.0
20
-5887.0
30
0.0
10
9195.0
20
-5913.0
30
0.0
10
9202.0
20
-5936.0
30
0.0
10
9208.0
20
-5958.0
30
0.0
10
9212.0
20
-5981.0
30
0.0
10
9216.0
20
-6003.0
30
0.0
10
9220.0
20
-6025.0
30
0.0
10
9224.0
20
-6047.0
30
0.0
10
9228.0
20
-6068.0
30
0.0
10
9232.0
20
-6088.0
30
0.0
10
9236.0
20
-6107.0
30
0.0
10
9241.0
20
-6127.0
30
0.0
10
9245.0
20
-6146.0
30
0.0
10
9248.0
20
-6166.0
30
0.0
10
9250.0
20
-6185.0
30
0.0
10
9250.0
20
-6205.0
30
0.0
10
9248.0
20
-6227.0
30
0.0
10
9245.0
20
-6249.0
30
0.0
10
9241.0
20
-6271.0
30
0.0
10
9235.0
20
-6294.0
30
0.0
10
9230.0
20
-6318.0
30
0.0
10
9225.0
20
-6343.0
30
0.0
10
9221.0
20
-6368.0
30
0.0
10
9219.0
20
-6398.0
30
0.0
10
9218.0
20
-6429.0
30
0.0
10
9219.0
20
-6460.0
30
0.0
10
9222.0
20
-6491.0
30
0.0
10
9226.0
20
-6522.0
30
0.0
10
9233.0
20
-6552.0
30
0.0
10
9241.0
20
-6581.0
30
0.0
10
9247.0
20
-6599.0
30
0.0
10
9253.0
20
-6616.0
30
0.0
10
9259.0
20
-6631.0
30
0.0
10
9264.0
20
-6643.0
30
0.0
10
9269.0
20
-6653.0
30
0.0
10
9272.0
20
-6659.0
30
0.0
10
9273.0
20
-6662.0
30
0.0
10
9273.0
20
-6667.0
30
0.0
10
9274.0
20
-6681.0
30
0.0
10
9276.0
20
-6702.0
30
0.0
10
9278.0
20
-6728.0
30
0.0
10
9280.0
20
-6758.0
30
0.0
10
9282.0
20
-6789.0
30
0.0
10
9284.0
20
-6819.0
30
0.0
10
9287.0
20
-6853.0
30
0.0
10
9290.0
20
-6884.0
30
0.0
10
9294.0
20
-6914.0
30
0.0
10
9301.0
20
-6942.0
30
0.0
10
9311.0
20
-6970.0
30
0.0
10
9325.0
20
-6999.0
30
0.0
10
9344.0
20
-7029.0
30
0.0
10
9368.0
20
-7061.0
30
0.0
10
9396.0
20
-7092.0
30
0.0
10
9424.0
20
-7122.0
30
0.0
10
9450.0
20
-7149.0
30
0.0
10
9472.0
20
-7170.0
30
0.0
10
9486.0
20
-7184.0
30
0.0
10
9492.0
20
-7189.0
30
0.0
10
9492.0
20
-7194.0
30
0.0
10
9491.0
20
-7207.0
30
0.0
10
9489.0
20
-7228.0
30
0.0
10
9488.0
20
-7254.0
30
0.0
10
9487.0
20
-7284.0
30
0.0
10
9486.0
20
-7316.0
30
0.0
10
9485.0
20
-7347.0
30
0.0
10
9486.0
20
-7383.0
30
0.0
10
9487.0
20
-7416.0
30
0.0
10
9489.0
20
-7448.0
30
0.0
10
9490.0
20
-7478.0
30
0.0
10
9492.0
20
-7507.0
30
0.0
10
9493.0
20
-7535.0
30
0.0
10
9493.0
20
-7563.0
30
0.0
10
9492.0
20
-7588.0
30
0.0
10
9491.0
20
-7613.0
30
0.0
10
9489.0
20
-7637.0
30
0.0
10
9488.0
20
-7662.0
30
0.0
10
9486.0
20
-7686.0
30
0.0
10
9486.0
20
-7711.0
30
0.0
10
9486.0
20
-7736.0
30
0.0
10
9488.0
20
-7760.0
30
0.0
10
9491.0
20
-7785.0
30
0.0
10
9495.0
20
-7809.0
30
0.0
10
9500.0
20
-7833.0
30
0.0
10
9506.0
20
-7856.0
30
0.0
10
9513.0
20
-7878.0
30
0.0
10
9521.0
20
-7899.0
30
0.0
10
9530.0
20
-7919.0
30
0.0
10
9540.0
20
-7939.0
30
0.0
10
9548.0
20
-7959.0
30
0.0
10
9555.0
20
-7980.0
30
0.0
10
9561.0
20
-8003.0
30
0.0
10
9563.0
20
-8030.0
30
0.0
10
9562.0
20
-8060.0
30
0.0
10
9555.0
20
-8104.0
30
0.0
10
9543.0
20
-8151.0
30
0.0
10
9529.0
20
-8198.0
30
0.0
10
9514.0
20
-8242.0
30
0.0
10
9501.0
20
-8277.0
30
0.0
10
9492.0
20
-8301.0
30
0.0
10
9488.0
20
-8310.0
30
0.0
10
9485.0
20
-8307.0
30
0.0
10
9479.0
20
-8300.0
30
0.0
10
9469.0
20
-8288.0
30
0.0
10
9457.0
20
-8274.0
30
0.0
10
9444.0
20
-8258.0
30
0.0
10
9430.0
20
-8240.0
30
0.0
10
9418.0
20
-8223.0
30
0.0
10
9406.0
20
-8206.0
30
0.0
10
9396.0
20
-8190.0
30
0.0
10
9387.0
20
-8174.0
30
0.0
10
9378.0
20
-8160.0
30
0.0
10
9369.0
20
-8146.0
30
0.0
10
9359.0
20
-8134.0
30
0.0
10
9348.0
20
-8121.0
30
0.0
10
9334.0
20
-8109.0
30
0.0
10
9318.0
20
-8097.0
30
0.0
10
9301.0
20
-8086.0
30
0.0
10
9282.0
20
-8076.0
30
0.0
10
9262.0
20
-8066.0
30
0.0
10
9242.0
20
-8057.0
30
0.0
10
9220.0
20
-8049.0
30
0.0
10
9198.0
20
-8041.0
30
0.0
10
9175.0
20
-8035.0
30
0.0
10
9152.0
20
-8031.0
30
0.0
10
9130.0
20
-8029.0
30
0.0
10
9107.0
20
-8029.0
30
0.0
10
9084.0
20
-8033.0
30
0.0
10
9062.0
20
-8041.0
30
0.0
10
9046.0
20
-8050.0
30
0.0
10
9030.0
20
-8061.0
30
0.0
10
9016.0
20
-8072.0
30
0.0
10
9004.0
20
-8082.0
30
0.0
10
8995.0
20
-8091.0
30
0.0
10
8989.0
20
-8097.0
30
0.0
10
8987.0
20
-8099.0
30
0.0
10
8986.0
20
-8096.0
30
0.0
10
8984.0
20
-8089.0
30
0.0
10
8980.0
20
-8078.0
30
0.0
10
8975.0
20
-8065.0
30
0.0
10
8968.0
20
-8051.0
30
0.0
10
8959.0
20
-8039.0
30
0.0
10
8949.0
20
-8029.0
30
0.0
10
8939.0
20
-8023.0
30
0.0
10
8928.0
20
-8019.0
30
0.0
10
8918.0
20
-8017.0
30
0.0
10
8909.0
20
-8017.0
30
0.0
10
8901.0
20
-8017.0
30
0.0
10
8896.0
20
-8017.0
30
0.0
10
8895.0
20
-8018.0
30
0.0
10
8892.0
20
-8017.0
30
0.0
10
8883.0
20
-8016.0
30
0.0
10
8871.0
20
-8014.0
30
0.0
10
8855.0
20
-8012.0
30
0.0
10
8839.0
20
-8009.0
30
0.0
10
8821.0
20
-8006.0
30
0.0
10
8805.0
20
-8003.0
30
0.0
10
8789.0
20
-8000.0
30
0.0
10
8775.0
20
-7996.0
30
0.0
10
8762.0
20
-7993.0
30
0.0
10
8748.0
20
-7990.0
30
0.0
10
8733.0
20
-7987.0
30
0.0
10
8716.0
20
-7984.0
30
0.0
10
8695.0
20
-7982.0
30
0.0
10
8663.0
20
-7979.0
30
0.0
10
8626.0
20
-7976.0
30
0.0
10
8588.0
20
-7974.0
30
0.0
10
8553.0
20
-7972.0
30
0.0
10
8523.0
20
-7971.0
30
0.0
10
8503.0
20
-7970.0
30
0.0
10
8496.0
20
-7970.0
30
0.0
10
8494.0
20
-7968.0
30
0.0
10
8487.0
20
-7964.0
30
0.0
10
8476.0
20
-7958.0
30
0.0
10
8463.0
20
-7950.0
30
0.0
10
8448.0
20
-7942.0
30
0.0
10
8433.0
20
-7935.0
30
0.0
10
8417.0
20
-7928.0
30
0.0
10
8398.0
20
-7923.0
30
0.0
10
8380.0
20
-7920.0
30
0.0
10
8362.0
20
-7919.0
30
0.0
10
8343.0
20
-7919.0
30
0.0
10
8324.0
20
-7921.0
30
0.0
10
8303.0
20
-7923.0
30
0.0
10
8280.0
20
-7926.0
30
0.0
10
8255.0
20
-7928.0
30
0.0
10
8230.0
20
-7931.0
30
0.0
10
8206.0
20
-7933.0
30
0.0
10
8184.0
20
-7934.0
30
0.0
10
8166.0
20
-7935.0
30
0.0
10
8154.0
20
-7936.0
30
0.0
10
8150.0
20
-7936.0
30
0.0
10
7921.0
20
-7815.0
30
0.0
10
7697.0
20
-7726.0
30
0.0
10
7694.0
20
-7725.0
30
0.0
10
7685.0
20
-7722.0
30
0.0
10
7671.0
20
-7717.0
30
0.0
10
7653.0
20
-7711.0
30
0.0
10
7632.0
20
-7703.0
30
0.0
10
7608.0
20
-7695.0
30
0.0
10
7583.0
20
-7686.0
30
0.0
10
7553.0
20
-7675.0
30
0.0
10
7523.0
20
-7664.0
30
0.0
10
7495.0
20
-7653.0
30
0.0
10
7470.0
20
-7644.0
30
0.0
10
7451.0
20
-7637.0
30
0.0
10
7438.0
20
-7633.0
30
0.0
10
7433.0
20
-7631.0
30
0.0
10
7430.0
20
-7628.0
30
0.0
10
7421.0
20
-7621.0
30
0.0
10
7408.0
20
-7610.0
30
0.0
10
7391.0
20
-7597.0
30
0.0
10
7370.0
20
-7584.0
30
0.0
10
7348.0
20
-7571.0
30
0.0
10
7324.0
20
-7561.0
30
0.0
10
7303.0
20
-7554.0
30
0.0
10
7282.0
20
-7549.0
30
0.0
10
7263.0
20
-7546.0
30
0.0
10
7247.0
20
-7544.0
30
0.0
10
7234.0
20
-7544.0
30
0.0
10
7226.0
20
-7544.0
30
0.0
10
7222.0
20
-7544.0
30
0.0
10
7219.0
20
-7543.0
30
0.0
10
7208.0
20
-7539.0
30
0.0
10
7192.0
20
-7535.0
30
0.0
10
7171.0
20
-7530.0
30
0.0
10
7147.0
20
-7525.0
30
0.0
10
7122.0
20
-7522.0
30
0.0
10
7096.0
20
-7520.0
30
0.0
10
7072.0
20
-7521.0
30
0.0
10
7050.0
20
-7523.0
30
0.0
10
7030.0
20
-7526.0
30
0.0
10
7014.0
20
-7530.0
30
0.0
10
7000.0
20
-7533.0
30
0.0
10
6992.0
20
-7535.0
30
0.0
10
6989.0
20
-7536.0
30
0.0
10
6984.0
20
-7535.0
30
0.0
10
6971.0
20
-7531.0
30
0.0
10
6951.0
20
-7525.0
30
0.0
10
6926.0
20
-7518.0
30
0.0
10
6899.0
20
-7509.0
30
0.0
10
6870.0
20
-7499.0
30
0.0
10
6842.0
20
-7489.0
30
0.0
10
6822.0
20
-7481.0
30
0.0
10
6804.0
20
-7474.0
30
0.0
10
6788.0
20
-7467.0
30
0.0
10
6775.0
20
-7461.0
30
0.0
10
6765.0
20
-7456.0
30
0.0
10
6759.0
20
-7453.0
30
0.0
10
6757.0
20
-7452.0
30
0.0
10
6754.0
20
-7450.0
30
0.0
10
6747.0
20
-7444.0
30
0.0
10
6736.0
20
-7436.0
30
0.0
10
6722.0
20
-7426.0
30
0.0
10
6707.0
20
-7414.0
30
0.0
10
6692.0
20
-7403.0
30
0.0
10
6678.0
20
-7393.0
30
0.0
10
6667.0
20
-7385.0
30
0.0
10
6657.0
20
-7379.0
30
0.0
10
6648.0
20
-7373.0
30
0.0
10
6638.0
20
-7369.0
30
0.0
10
6628.0
20
-7364.0
30
0.0
10
6617.0
20
-7360.0
30
0.0
10
6603.0
20
-7356.0
30
0.0
10
6585.0
20
-7351.0
30
0.0
10
6566.0
20
-7346.0
30
0.0
10
6546.0
20
-7341.0
30
0.0
10
6527.0
20
-7336.0
30
0.0
10
6512.0
20
-7333.0
30
0.0
10
6502.0
20
-7330.0
30
0.0
10
6498.0
20
-7329.0
30
0.0
10
6495.0
20
-7329.0
30
0.0
10
6487.0
20
-7328.0
30
0.0
10
6474.0
20
-7326.0
30
0.0
10
6457.0
20
-7323.0
30
0.0
10
6438.0
20
-7319.0
30
0.0
10
6417.0
20
-7314.0
30
0.0
10
6395.0
20
-7308.0
30
0.0
10
6370.0
20
-7301.0
30
0.0
10
6346.0
20
-7293.0
30
0.0
10
6324.0
20
-7285.0
30
0.0
10
6305.0
20
-7278.0
30
0.0
10
6290.0
20
-7272.0
30
0.0
10
6280.0
20
-7267.0
30
0.0
10
6276.0
20
-7266.0
30
0.0
10
6273.0
20
-7265.0
30
0.0
10
6263.0
20
-7263.0
30
0.0
10
6248.0
20
-7260.0
30
0.0
10
6231.0
20
-7257.0
30
0.0
10
6212.0
20
-7254.0
30
0.0
10
6194.0
20
-7250.0
30
0.0
10
6178.0
20
-7247.0
30
0.0
10
6168.0
20
-7246.0
30
0.0
10
6159.0
20
-7245.0
30
0.0
10
6152.0
20
-7244.0
30
0.0
10
6145.0
20
-7244.0
30
0.0
10
6137.0
20
-7245.0
30
0.0
10
6129.0
20
-7245.0
30
0.0
10
6119.0
20
-7247.0
30
0.0
10
6105.0
20
-7249.0
30
0.0
10
6089.0
20
-7252.0
30
0.0
10
6073.0
20
-7255.0
30
0.0
10
6059.0
20
-7257.0
30
0.0
10
6046.0
20
-7259.0
30
0.0
10
6038.0
20
-7261.0
30
0.0
10
6035.0
20
-7262.0
30
0.0
10
6030.0
20
-7262.0
30
0.0
10
6016.0
20
-7264.0
30
0.0
10
5995.0
20
-7268.0
30
0.0
10
5970.0
20
-7273.0
30
0.0
10
5941.0
20
-7280.0
30
0.0
10
5912.0
20
-7289.0
30
0.0
10
5884.0
20
-7299.0
30
0.0
10
5863.0
20
-7308.0
30
0.0
10
5845.0
20
-7318.0
30
0.0
10
5829.0
20
-7328.0
30
0.0
10
5816.0
20
-7337.0
30
0.0
10
5806.0
20
-7344.0
30
0.0
10
5800.0
20
-7349.0
30
0.0
10
5798.0
20
-7351.0
30
0.0
10
5795.0
20
-7353.0
30
0.0
10
5788.0
20
-7360.0
30
0.0
10
5776.0
20
-7370.0
30
0.0
10
5760.0
20
-7382.0
30
0.0
10
5741.0
20
-7396.0
30
0.0
10
5721.0
20
-7410.0
30
0.0
10
5698.0
20
-7424.0
30
0.0
10
5674.0
20
-7436.0
30
0.0
10
5651.0
20
-7447.0
30
0.0
10
5629.0
20
-7456.0
30
0.0
10
5609.0
20
-7462.0
30
0.0
10
5594.0
20
-7468.0
30
0.0
10
5584.0
20
-7471.0
30
0.0
10
5580.0
20
-7472.0
30
0.0
10
5575.0
20
-7469.0
30
0.0
10
5560.0
20
-7460.0
30
0.0
10
5539.0
20
-7447.0
30
0.0
10
5511.0
20
-7431.0
30
0.0
10
5481.0
20
-7412.0
30
0.0
10
5449.0
20
-7393.0
30
0.0
10
5418.0
20
-7373.0
30
0.0
10
5386.0
20
-7352.0
30
0.0
10
5358.0
20
-7332.0
30
0.0
10
5331.0
20
-7313.0
30
0.0
10
5307.0
20
-7294.0
30
0.0
10
5284.0
20
-7277.0
30
0.0
10
5263.0
20
-7259.0
30
0.0
10
5243.0
20
-7243.0
30
0.0
10
5227.0
20
-7229.0
30
0.0
10
5210.0
20
-7215.0
30
0.0
10
5194.0
20
-7201.0
30
0.0
10
5177.0
20
-7187.0
30
0.0
10
5159.0
20
-7173.0
30
0.0
10
5140.0
20
-7159.0
30
0.0
10
5119.0
20
-7144.0
30
0.0
10
5091.0
20
-7125.0
30
0.0
10
5061.0
20
-7106.0
30
0.0
10
5030.0
20
-7086.0
30
0.0
10
4998.0
20
-7068.0
30
0.0
10
4968.0
20
-7051.0
30
0.0
10
4939.0
20
-7037.0
30
0.0
10
4914.0
20
-7025.0
30
0.0
10
4899.0
20
-7019.0
30
0.0
10
4886.0
20
-7013.0
30
0.0
10
4874.0
20
-7009.0
30
0.0
10
4862.0
20
-7005.0
30
0.0
10
4849.0
20
-7001.0
30
0.0
10
4836.0
20
-6997.0
30
0.0
10
4822.0
20
-6993.0
30
0.0
10
4801.0
20
-6985.0
30
0.0
10
4778.0
20
-6977.0
30
0.0
10
4754.0
20
-6968.0
30
0.0
10
4729.0
20
-6960.0
30
0.0
10
4705.0
20
-6952.0
30
0.0
10
4681.0
20
-6946.0
30
0.0
10
4659.0
20
-6941.0
30
0.0
10
4645.0
20
-6939.0
30
0.0
10
4632.0
20
-6938.0
30
0.0
10
4620.0
20
-6938.0
30
0.0
10
4609.0
20
-6939.0
30
0.0
10
4597.0
20
-6942.0
30
0.0
10
4586.0
20
-6945.0
30
0.0
10
4575.0
20
-6948.0
30
0.0
10
4559.0
20
-6955.0
30
0.0
10
4541.0
20
-6963.0
30
0.0
10
4522.0
20
-6972.0
30
0.0
10
4501.0
20
-6981.0
30
0.0
10
4477.0
20
-6992.0
30
0.0
10
4450.0
20
-7002.0
30
0.0
10
4420.0
20
-7013.0
30
0.0
10
4381.0
20
-7025.0
30
0.0
10
4340.0
20
-7037.0
30
0.0
10
4300.0
20
-7048.0
30
0.0
10
4264.0
20
-7057.0
30
0.0
10
4234.0
20
-7064.0
30
0.0
10
4214.0
20
-7069.0
30
0.0
10
4206.0
20
-7070.0
30
0.0
10
4205.0
20
-7064.0
30
0.0
10
4199.0
20
-7047.0
30
0.0
10
4190.0
20
-7023.0
30
0.0
10
4178.0
20
-6993.0
30
0.0
10
4163.0
20
-6961.0
30
0.0
10
4145.0
20
-6930.0
30
0.0
10
4125.0
20
-6902.0
30
0.0
10
4101.0
20
-6879.0
30
0.0
10
4076.0
20
-6861.0
30
0.0
10
4049.0
20
-6848.0
30
0.0
10
4021.0
20
-6837.0
30
0.0
10
3992.0
20
-6828.0
30
0.0
10
3965.0
20
-6820.0
30
0.0
10
3938.0
20
-6810.0
30
0.0
10
3910.0
20
-6797.0
30
0.0
10
3882.0
20
-6781.0
30
0.0
10
3855.0
20
-6763.0
30
0.0
10
3826.0
20
-6743.0
30
0.0
10
3795.0
20
-6722.0
30
0.0
10
3760.0
20
-6701.0
30
0.0
10
3722.0
20
-6679.0
30
0.0
10
3662.0
20
-6649.0
30
0.0
10
3596.0
20
-6621.0
30
0.0
10
3528.0
20
-6595.0
30
0.0
10
3460.0
20
-6570.0
30
0.0
10
3396.0
20
-6549.0
30
0.0
10
3339.0
20
-6531.0
30
0.0
10
3294.0
20
-6517.0
30
0.0
10
3277.0
20
-6512.0
30
0.0
10
3263.0
20
-6508.0
30
0.0
10
3250.0
20
-6505.0
30
0.0
10
3238.0
20
-6503.0
30
0.0
10
3225.0
20
-6502.0
30
0.0
10
3213.0
20
-6501.0
30
0.0
10
3198.0
20
-6501.0
30
0.0
10
3171.0
20
-6503.0
30
0.0
10
3140.0
20
-6506.0
30
0.0
10
3106.0
20
-6512.0
30
0.0
10
3069.0
20
-6521.0
30
0.0
10
3032.0
20
-6533.0
30
0.0
10
2995.0
20
-6548.0
30
0.0
10
2961.0
20
-6567.0
30
0.0
10
2936.0
20
-6585.0
30
0.0
10
2914.0
20
-6603.0
30
0.0
10
2895.0
20
-6621.0
30
0.0
10
2878.0
20
-6638.0
30
0.0
10
2866.0
20
-6651.0
30
0.0
10
2859.0
20
-6661.0
30
0.0
10
2856.0
20
-6664.0
30
0.0
10
2852.0
20
-6657.0
30
0.0
10
2842.0
20
-6640.0
30
0.0
10
2825.0
20
-6615.0
30
0.0
10
2803.0
20
-6585.0
30
0.0
10
2777.0
20
-6553.0
30
0.0
10
2747.0
20
-6523.0
30
0.0
10
2714.0
20
-6497.0
30
0.0
10
2686.0
20
-6481.0
30
0.0
10
2658.0
20
-6469.0
30
0.0
10
2631.0
20
-6462.0
30
0.0
10
2608.0
20
-6457.0
30
0.0
10
2589.0
20
-6454.0
30
0.0
10
2577.0
20
-6453.0
30
0.0
10
2572.0
20
-6453.0
30
0.0
10
2572.0
20
-6446.0
30
0.0
10
2570.0
20
-6426.0
30
0.0
10
2567.0
20
-6396.0
30
0.0
10
2563.0
20
-6360.0
30
0.0
10
2558.0
20
-6321.0
30
0.0
10
2551.0
20
-6281.0
30
0.0
10
2542.0
20
-6245.0
30
0.0
10
2532.0
20
-6217.0
30
0.0
10
2521.0
20
-6193.0
30
0.0
10
2509.0
20
-6172.0
30
0.0
10
2496.0
20
-6153.0
30
0.0
10
2482.0
20
-6136.0
30
0.0
10
2468.0
20
-6118.0
30
0.0
10
2454.0
20
-6099.0
30
0.0
10
2444.0
20
-6085.0
30
0.0
10
2434.0
20
-6070.0
30
0.0
10
2425.0
20
-6056.0
30
0.0
10
2417.0
20
-6044.0
30
0.0
10
2411.0
20
-6034.0
30
0.0
10
2407.0
20
-6027.0
30
0.0
10
2405.0
20
-6025.0
30
0.0
10
2402.0
20
-6024.0
30
0.0
10
2395.0
20
-6023.0
30
0.0
10
2382.0
20
-6022.0
30
0.0
10
2367.0
20
-6021.0
30
0.0
10
2350.0
20
-6020.0
30
0.0
10
2331.0
20
-6019.0
30
0.0
10
2313.0
20
-6019.0
30
0.0
10
2298.0
20
-6019.0
30
0.0
10
2284.0
20
-6020.0
30
0.0
10
2271.0
20
-6021.0
30
0.0
10
2260.0
20
-6022.0
30
0.0
10
2252.0
20
-6022.0
30
0.0
10
2247.0
20
-6023.0
30
0.0
10
2245.0
20
-6023.0
30
0.0
10
2241.0
20
-6021.0
30
0.0
10
2229.0
20
-6014.0
30
0.0
10
2212.0
20
-6004.0
30
0.0
10
2190.0
20
-5991.0
30
0.0
10
2165.0
20
-5977.0
30
0.0
10
2138.0
20
-5963.0
30
0.0
10
2112.0
20
-5949.0
30
0.0
10
2085.0
20
-5936.0
30
0.0
10
2059.0
20
-5924.0
30
0.0
10
2034.0
20
-5914.0
30
0.0
10
2011.0
20
-5906.0
30
0.0
10
1989.0
20
-5899.0
30
0.0
10
1967.0
20
-5895.0
30
0.0
10
1946.0
20
-5892.0
30
0.0
10
1927.0
20
-5891.0
30
0.0
10
1909.0
20
-5892.0
30
0.0
10
1890.0
20
-5894.0
30
0.0
10
1871.0
20
-5898.0
30
0.0
10
1851.0
20
-5903.0
30
0.0
10
1830.0
20
-5910.0
30
0.0
10
1808.0
20
-5919.0
30
0.0
10
1785.0
20
-5929.0
30
0.0
10
1762.0
20
-5941.0
30
0.0
10
1740.0
20
-5952.0
30
0.0
10
1720.0
20
-5962.0
30
0.0
10
1705.0
20
-5970.0
30
0.0
10
1694.0
20
-5976.0
30
0.0
10
1690.0
20
-5978.0
30
0.0
10
1687.0
20
-5975.0
30
0.0
10
1678.0
20
-5967.0
30
0.0
10
1664.0
20
-5955.0
30
0.0
10
1647.0
20
-5940.0
30
0.0
10
1629.0
20
-5921.0
30
0.0
10
1610.0
20
-5901.0
30
0.0
10
1592.0
20
-5879.0
30
0.0
10
1577.0
20
-5858.0
30
0.0
10
1565.0
20
-5839.0
30
0.0
10
1555.0
20
-5820.0
30
0.0
10
1547.0
20
-5804.0
30
0.0
10
1541.0
20
-5792.0
30
0.0
10
1537.0
20
-5783.0
30
0.0
10
1536.0
20
-5780.0
30
0.0
10
1425.0
20
-5700.0
30
0.0
10
1422.0
20
-5694.0
30
0.0
10
1415.0
20
-5678.0
30
0.0
10
1404.0
20
-5654.0
30
0.0
10
1390.0
20
-5625.0
30
0.0
10
1374.0
20
-5593.0
30
0.0
10
1357.0
20
-5559.0
30
0.0
10
1340.0
20
-5527.0
30
0.0
10
1321.0
20
-5496.0
30
0.0
10
1303.0
20
-5469.0
30
0.0
10
1286.0
20
-5443.0
30
0.0
10
1268.0
20
-5420.0
30
0.0
10
1251.0
20
-5397.0
30
0.0
10
1234.0
20
-5375.0
30
0.0
10
1216.0
20
-5351.0
30
0.0
10
1197.0
20
-5325.0
30
0.0
10
1178.0
20
-5297.0
30
0.0
10
1159.0
20
-5267.0
30
0.0
10
1141.0
20
-5236.0
30
0.0
10
1122.0
20
-5204.0
30
0.0
10
1105.0
20
-5171.0
30
0.0
10
1088.0
20
-5137.0
30
0.0
10
1076.0
20
-5112.0
30
0.0
10
1065.0
20
-5087.0
30
0.0
10
1055.0
20
-5065.0
30
0.0
10
1047.0
20
-5045.0
30
0.0
10
1041.0
20
-5029.0
30
0.0
10
1037.0
20
-5019.0
30
0.0
10
1035.0
20
-5015.0
30
0.0
10
1031.0
20
-5013.0
30
0.0
10
1018.0
20
-5007.0
30
0.0
10
998.0
20
-4998.0
30
0.0
10
972.0
20
-4987.0
30
0.0
10
942.0
20
-4975.0
30
0.0
10
908.0
20
-4962.0
30
0.0
10
872.0
20
-4950.0
30
0.0
10
820.0
20
-4936.0
30
0.0
10
766.0
20
-4924.0
30
0.0
10
713.0
20
-4915.0
30
0.0
10
661.0
20
-4907.0
30
0.0
10
612.0
20
-4900.0
30
0.0
10
566.0
20
-4895.0
30
0.0
10
526.0
20
-4889.0
30
0.0
10
503.0
20
-4885.0
30
0.0
10
483.0
20
-4881.0
30
0.0
10
465.0
20
-4877.0
30
0.0
10
448.0
20
-4871.0
30
0.0
10
432.0
20
-4863.0
30
0.0
10
417.0
20
-4853.0
30
0.0
10
402.0
20
-4841.0
30
0.0
10
386.0
20
-4823.0
30
0.0
10
369.0
20
-4802.0
30
0.0
10
354.0
20
-4780.0
30
0.0
10
338.0
20
-4756.0
30
0.0
10
324.0
20
-4733.0
30
0.0
10
309.0
20
-4711.0
30
0.0
10
295.0
20
-4691.0
30
0.0
10
284.0
20
-4677.0
30
0.0
10
271.0
20
-4664.0
30
0.0
10
259.0
20
-4652.0
30
0.0
10
244.0
20
-4641.0
30
0.0
10
228.0
20
-4629.0
30
0.0
10
209.0
20
-4617.0
30
0.0
10
187.0
20
-4604.0
30
0.0
10
154.0
20
-4585.0
30
0.0
10
119.0
20
-4564.0
30
0.0
10
84.0
20
-4543.0
30
0.0
10
52.0
20
-4525.0
30
0.0
10
25.0
20
-4509.0
30
0.0
10
7.0
20
-4499.0
30
0.0
10
0.0
20
-4495.0
30
0.0
10
21.0
20
-4436.0
30
0.0
10
72.0
20
-4352.0
30
0.0
10
108.0
20
-4289.0
30
0.0
10
129.0
20
-4221.0
30
0.0
10
132.0
20
-4218.0
30
0.0
10
140.0
20
-4212.0
30
0.0
10
152.0
20
-4202.0
30
0.0
10
166.0
20
-4190.0
30
0.0
10
182.0
20
-4175.0
30
0.0
10
198.0
20
-4158.0
30
0.0
10
214.0
20
-4141.0
30
0.0
10
227.0
20
-4125.0
30
0.0
10
238.0
20
-4109.0
30
0.0
10
248.0
20
-4095.0
30
0.0
10
255.0
20
-4083.0
30
0.0
10
261.0
20
-4073.0
30
0.0
10
264.0
20
-4066.0
30
0.0
10
266.0
20
-4064.0
30
0.0
10
388.0
20
-3951.0
30
0.0
10
559.0
20
-2648.0
30
0.0
10
748.0
20
-2653.0
30
0.0
6
Solid
370
35
62
0
0
LWPOLYLINE
5
2660
100
AcDbEntity
100
AcDbPolyline
90
5
70
1
10
2733.0
20
-4213.0
30
0.0
10
2754.0
20
-4294.0
30
0.0
10
2671.0
20
-4297.0
30
0.0
10
2659.0
20
-4230.0
30
0.0
10
2733.0
20
-4213.0
30
0.0
6
Solid
370
35
62
0
0
LWPOLYLINE
5
2662
100
AcDbEntity
100
AcDbPolyline
90
5
70
1
10
1466.0
20
-4723.0
30
0.0
10
1512.0
20
-4685.0
30
0.0
10
1549.0
20
-4741.0
30
0.0
10
1493.0
20
-4775.0
30
0.0
10
1466.0
20
-4723.0
30
0.0
6
Solid
370
35
62
0
0
LWPOLYLINE
5
2664
100
AcDbEntity
100
AcDbPolyline
90
4
70
1
10
299.0
20
-4491.0
30
0.0
10
262.0
20
-4408.0
30
0.0
10
370.0
20
-4388.0
30
0.0
10
299.0
20
-4491.0
30
0.0
6
Solid
370
35
62
0
0
LWPOLYLINE
5
2666
100
AcDbEntity
100
AcDbPolyline
90
6
70
1
10
7433.0
20
-6734.0
30
0.0
10
7393.0
20
-6835.0
30
0.0
10
7307.0
20
-6809.0
30
0.0
10
7292.0
20
-6718.0
30
0.0
10
7346.0
20
-6694.0
30
0.0
10
7433.0
20
-6734.0
30
0.0
6
Solid
370
35
62
0
0
LWPOLYLINE
5
2668
100
AcDbEntity
100
AcDbPolyline
90
6
70
1
10
7686.0
20
-6648.0
30
0.0
10
7613.0
20
-6696.0
30
0.0
10
7553.0
20
-6656.0
30
0.0
10
7564.0
20
-6594.0
30
0.0
10
7618.0
20
-6571.0
30
0.0
10
7686.0
20
-6648.0
30
0.0
6
Solid
370
35
62
0
0
LWPOLYLINE
5
266a
100
AcDbEntity
100
AcDbPolyline
90
5
70
1
10
7838.0
20
-4376.0
30
0.0
10
7819.0
20
-4449.0
30
0.0
10
7751.0
20
-4444.0
30
0.0
10
7743.0
20
-4378.0
30
0.0
10
7838.0
20
-4376.0
30
0.0
6
Solid
370
35
62
0
0
LWPOLYLINE
5
266c
100
AcDbEntity
100
AcDbPolyline
90
5
70
1
10
6230.0
20
-4826.0
30
0.0
10
6244.0
20
-4932.0
30
0.0
10
6118.0
20
-4952.0
30
0.0
10
6120.0
20
-4844.0
30
0.0
10
6230.0
20
-4826.0
30
0.0
6
Solid
370
35
62
0
0
LWPOLYLINE
5
266e
100
AcDbEntity
100
AcDbPolyline
90
5
70
1
10
5995.0
20
-4089.0
30
0.0
10
5918.0
20
-4107.0
30
0.0
10
5912.0
20
-4037.0
30
0.0
10
5981.0
20
-4014.0
30
0.0
10
5995.0
20
-4089.0
30
0.0
6
Solid
370
35
62
0
0
LWPOLYLINE
5
2670
100
AcDbEntity
100
AcDbPolyline
90
5
70
1
10
2596.0
20
-3437.0
30
0.0
10
2582.0
20
-3494.0
30
0.0
10
2513.0
20
-3494.0
30
0.0
10
2529.0
20
-3435.0
30
0.0
10
2596.0
20
-3437.0
30
0.0
6
Solid
370
35
62
0
0
LWPOLYLINE
5
2672
100
AcDbEntity
100
AcDbPolyline
90
5
70
1
10
4371.0
20
-1605.0
30
0.0
10
4412.0
20
-1657.0
30
0.0
10
4308.0
20
-1748.0
30
0.0
10
4282.0
20
-1664.0
30
0.0
10
4371.0
20
-1605.0
30
0.0
6
Solid
370
35
62
0
0
LWPOLYLINE
5
2675
100
AcDbEntity
8
zone_0_q2
100
AcDbPolyline
90
5
70
1
10
7995.0
20
-847.0
30
0.0
10
7811.0
20
-882.0
30
0.0
10
7808.0
20
-674.0
30
0.0
10
7969.0
20
-654.0
30
0.0
10
7995.0
20
-847.0
30
0.0
6
Solid
370
35
62
2
0
LWPOLYLINE
5
2678
100
AcDbEntity
8
zone_1_q2
100
AcDbPolyline
90
11
70
1
10
541.0
20
-3892.0
30
0.0
10
565.0
20
-3955.0
30
0.0
10
559.0
20
-4044.0
30
0.0
10
509.0
20
-4110.0
30
0.0
10
480.0
20
-4175.0
30
0.0
10
422.0
20
-4248.0
30
0.0
10
331.0
20
-4289.0
30
0.0
10
269.0
20
-4270.0
30
0.0
10
172.0
20
-4243.0
30
0.0
10
481.0
20
-3851.0
30
0.0
10
541.0
20
-3892.0
30
0.0
6
Solid
370
35
62
2
0
LWPOLYLINE
5
267b
100
AcDbEntity
8
zone_2_q3
100
AcDbPolyline
90
5
70
1
10
8683.0
20
-7434.0
30
0.0
10
8764.0
20
-7874.0
30
0.0
10
8171.0
20
-7837.0
30
0.0
10
8230.0
20
-7437.0
30
0.0
10
8683.0
20
-7434.0
30
0.0
6
Solid
370
35
62
3
0
LWPOLYLINE
5
267e
100
AcDbEntity
8
zone_3_q1
100
AcDbPolyline
90
5
70
1
10
3518.0
20
-3315.0
30
0.0
10
3530.0
20
-3217.0
30
0.0
10
3626.0
20
-3159.0
30
0.0
10
3614.0
20
-3268.0
30
0.0
10
3518.0
20
-3315.0
30
0.0
6
Solid
370
35
62
40
0
LWPOLYLINE
5
2681
100
AcDbEntity
8
zone_4_q3
100
AcDbPolyline
90
5
70
1
10
3740.0
20
-6066.0
30
0.0
10
3695.0
20
-6555.0
30
0.0
10
3349.0
20
-6481.0
30
0.0
10
3316.0
20
-6030.0
30
0.0
10
3740.0
20
-6066.0
30
0.0
6
Solid
370
35
62
3
0
LWPOLYLINE
5
2684
100
AcDbEntity
8
zone_5_q3
100
AcDbPolyline
90
13
70
1
10
6800.0
20
-6097.0
30
0.0
10
6961.0
20
-6089.0
30
0.0
10
7129.0
20
-6103.0
30
0.0
10
7233.0
20
-6130.0
30
0.0
10
7379.0
20
-6245.0
30
0.0
10
7494.0
20
-6425.0
30
0.0
10
7411.0
20
-6597.0
30
0.0
10
7166.0
20
-6603.0
30
0.0
10
6911.0
20
-6511.0
30
0.0
10
6844.0
20
-6397.0
30
0.0
10
6732.0
20
-6307.0
30
0.0
10
6677.0
20
-6202.0
30
0.0
10
6800.0
20
-6097.0
30
0.0
6
Solid
370
35
62
3
0
LWPOLYLINE
5
2687
100
AcDbEntity
8
zone_6_q3
100
AcDbPolyline
90
14
70
1
10
6333.0
20
-1857.0
30
0.0
10
6454.0
20
-1710.0
30
0.0
10
6668.0
20
-1600.0
30
0.0
10
6872.0
20
-1507.0
30
0.0
10
6993.0
20
-1399.0
30
0.0
10
7119.0
20
-1304.0
30
0.0
10
7296.0
20
-1356.0
30
0.0
10
7348.0
20
-1521.0
30
0.0
10
7236.0
20
-1927.0
30
0.0
10
6981.0
20
-1960.0
30
0.0
10
6706.0
20
-2003.0
30
0.0
10
6453.0
20
-2023.0
30
0.0
10
6234.0
20
-1982.0
30
0.0
10
6333.0
20
-1857.0
30
0.0
6
Solid
370
35
62
3
0
LWPOLYLINE
5
268a
100
AcDbEntity
8
zone_7_q3
100
AcDbPolyline
90
5
70
1
10
3345.0
20
-1609.0
30
0.0
10
2932.0
20
-1579.0
30
0.0
10
2777.0
20
-1038.0
30
0.0
10
3325.0
20
-1141.0
30
0.0
10
3345.0
20
-1609.0
30
0.0
6
Solid
370
35
62
3
0
ENDSEC
0
SECTION
2
OBJECTS
0
DICTIONARY
5
265c
330
0
100
AcDbDictionary
281
1
3
ACAD_GROUP
350
265d
0
DICTIONARY
5
265d
330
265c
100
AcDbDictionary
281
1
0
ENDSEC
0
EOF
