999

0
SECTION
2
HEADER
9
$ACADVER
1
AC1021
9
$HANDSEED
5
26ce
0
ENDSEC
0
SECTION
2
CLASSES
0
ENDSEC
0
SECTION
2
TABLES
0
TABLE
2
VPORT
5
268d
100
AcDbSymbolTable
70
1
0
VPORT
5
268c
100
AcDbSymbolTableRecord
100
AcDbViewportTableRecord
2
*ACTIVE
10
0
20
0
11
1
21
1
12
500.0
22
500.0
40
1000.0
70
0
0
ENDTAB
0
TABLE
2
LTYPE
5
268e
100
AcDbSymbolTable
70
3
0
LTYPE
5
2696
100
AcDbSymbolTableRecord
100
AcDbLinetypeTableRecord
2
Solid
70
0
72
65
73
0
3

0
LTYPE
5
2697
100
AcDbSymbolTableRecord
100
AcDbLinetypeTableRecord
2
ByBlock
70
0
72
65
73
0
3

0
LTYPE
5
2698
100
AcDbSymbolTableRecord
100
AcDbLinetypeTableRecord
2
ByLayer
70
0
72
65
73
0
3

0
ENDTAB
0
TABLE
2
LAYER
5
268f
100
AcDbSymbolTable
70
8
0
LAYER
5
2699
100
AcDbSymbolTableRecord
100
AcDbLayerTableRecord
2
0
70
0
390
0
0
LAYER
5
26b9
100
AcDbSymbolTableRecord
100
AcDbLayerTableRecord
2
zone_0_q2
70
0
390
0
0
LAYER
5
26bc
100
AcDbSymbolTableRecord
100
AcDbLayerTableRecord
2
zone_1_q3
70
0
390
0
0
LAYER
5
26bf
100
AcDbSymbolTableRecord
100
AcDbLayerTableRecord
2
zone_2_q2
70
0
390
0
0
LAYER
5
26c2
100
AcDbSymbolTableRecord
100
AcDbLayerTableRecord
2
zone_3_q3
70
0
390
0
0
LAYER
5
26c5
100
AcDbSymbolTableRecord
100
AcDbLayerTableRecord
2
zone_4_q2
70
0
390
0
0
LAYER
5
26c8
100
AcDbSymbolTableRecord
100
AcDbLayerTableRecord
2
zone_5_q3
70
0
390
0
0
LAYER
5
26cb
100
AcDbSymbolTableRecord
100
AcDbLayerTableRecord
2
zone_6_q2
70
0
390
0
0
ENDTAB
0
TABLE
2
STYLE
5
2690
100
AcDbSymbolTable
70
0
0
ENDTAB
0
TABLE
2
VIEW
5
2691
100
AcDbSymbolTable
70
0
0
ENDTAB
0
TABLE
2
UCS
5
2692
100
AcDbSymbolTable
70
0
0
ENDTAB
0
TABLE
2
APPID
5
2693
100
AcDbSymbolTable
70
1
0
APPID
5
269a
100
AcDbSymbolTableRecord
100
AcDbRegAppTableRecord
2
ACAD
70
0
0
ENDTAB
0
TABLE
2
DIMSTYLE
5
2694
100
AcDbSymbolTable
70
0
100
AcDbDimStyleTable
71
1
0
ENDTAB
0
TABLE
2
BLOCK_RECORD
5
2695
100
AcDbSymbolTable
70
2
0
BLOCK_RECORD
5
269b
100
AcDbSymbolTableRecord
100
AcDbBlockTableRecord
2
*Model_Space
70
0
280
1
281
0
0
BLOCK_RECORD
5
269c
100
AcDbSymbolTableRecord
100
AcDbBlockTableRecord
2
*Paper_Space
70
0
280
1
281
0
0
ENDTAB
0
ENDSEC
0
SECTION
2
BLOCKS
0
BLOCK
5
269d
100
AcDbEntity
100
AcDbBlockBegin
2
*Model_Space
70
0
10
0
20
0
30
0
3
*Model_Space
1

0
ENDBLK
5
269e
100
AcDbEntity
100
AcDbBlockEnd
0
BLOCK
5
269f
100
AcDbEntity
100
AcDbBlockBegin
2
*Paper_Space
70
0
10
0
20
0
30
0
3
*Paper_Space
1

0
ENDBLK
5
26a0
100
AcDbEntity
100
AcDbBlockEnd
0
ENDSEC
0
SECTION
2
ENTITIES
0
LWPOLYLINE
5
26a3
100
AcDbEntity
100
AcDbPolyline
90
1078
70
1
10
227.0
20
-758.0
30
0.0
10
248.0
20
-742.0
30
0.0
10
281.0
20
-718.0
30
0.0
10
324.0
20
-686.0
30
0.0
10
375.0
20
-650.0
30
0.0
10
432.0
20
-612.0
30
0.0
10
494.0
20
-572.0
30
0.0
10
563.0
20
-529.0
30
0.0
10
631.0
20
-490.0
30
0.0
10
695.0
20
-454.0
30
0.0
10
751.0
20
-423.0
30
0.0
10
795.0
20
-400.0
30
0.0
10
825.0
20
-385.0
30
0.0
10
835.0
20
-379.0
30
0.0
10
841.0
20
-386.0
30
0.0
10
858.0
20
-403.0
30
0.0
10
884.0
20
-429.0
30
0.0
10
915.0
20
-459.0
30
0.0
10
951.0
20
-490.0
30
0.0
10
989.0
20
-520.0
30
0.0
10
1026.0
20
-545.0
30
0.0
10
1059.0
20
-561.0
30
0.0
10
1091.0
20
-571.0
30
0.0
10
1121.0
20
-576.0
30
0.0
10
1151.0
20
-579.0
30
0.0
10
1181.0
20
-579.0
30
0.0
10
1213.0
20
-578.0
30
0.0
10
1245.0
20
-578.0
30
0.0
10
1286.0
20
-580.0
30
0.0
10
1328.0
20
-584.0
30
0.0
10
1372.0
20
-589.0
30
0.0
10
1416.0
20
-594.0
30
0.0
10
1460.0
20
-598.0
30
0.0
10
1503.0
20
-601.0
30
0.0
10
1543.0
20
-602.0
30
0.0
10
1580.0
20
-600.0
30
0.0
10
1615.0
20
-596.0
30
0.0
10
1649.0
20
-590.0
30
0.0
10
1685.0
20
-583.0
30
0.0
10
1723.0
20
-575.0
30
0.0
10
1764.0
20
-566.0
30
0.0
10
1810.0
20
-558.0
30
0.0
10
1862.0
20
-549.0
30
0.0
10
1916.0
20
-541.0
30
0.0
10
1968.0
20
-534.0
30
0.0
10
2015.0
20
-528.0
30
0.0
10
2053.0
20
-524.0
30
0.0
10
2079.0
20
-521.0
30
0.0
10
2088.0
20
-520.0
30
0.0
10
2093.0
20
-521.0
30
0.0
10
2105.0
20
-525.0
30
0.0
10
2123.0
20
-530.0
30
0.0
10
2146.0
20
-535.0
30
0.0
10
2173.0
20
-542.0
30
0.0
10
2203.0
20
-547.0
30
0.0
10
2233.0
20
-552.0
30
0.0
10
2261.0
20
-555.0
30
0.0
10
2287.0
20
-557.0
30
0.0
10
2312.0
20
-558.0
30
0.0
10
2332.0
20
-558.0
30
0.0
10
2348.0
20
-558.0
30
0.0
10
2359.0
20
-557.0
30
0.0
10
2362.0
20
-557.0
30
0.0
10
2459.0
20
-673.0
30
0.0
10
2496.0
20
-753.0
30
0.0
10
2505.0
20
-755.0
30
0.0
10
2530.0
20
-759.0
30
0.0
10
2566.0
20
-766.0
30
0.0
10
2610.0
20
-774.0
30
0.0
10
2659.0
20
-782.0
30
0.0
10
2708.0
20
-791.0
30
0.0
10
2755.0
20
-798.0
30
0.0
10
2794.0
20
-804.0
30
0.0
10
2828.0
20
-807.0
30
0.0
10
2859.0
20
-810.0
30
0.0
10
2888.0
20
-810.0
30
0.0
10
2917.0
20
-809.0
30
0.0
10
2945.0
20
-806.0
30
0.0
10
2975.0
20
-800.0
30
0.0
10
2998.0
20
-795.0
30
0.0
10
3021.0
20
-788.0
30
0.0
10
3043.0
20
-782.0
30
0.0
10
3062.0
20
-776.0
30
0.0
10
3078.0
20
-771.0
30
0.0
10
3088.0
20
-768.0
30
0.0
10
3091.0
20
-767.0
30
0.0
10
3228.0
20
-788.0
30
0.0
10
3232.0
20
-791.0
30
0.0
10
3243.0
20
-800.0
30
0.0
10
3261.0
20
-813.0
30
0.0
10
3282.0
20
-830.0
30
0.0
10
3306.0
20
-848.0
30
0.0
10
3331.0
20
-868.0
30
0.0
10
3355.0
20
-888.0
30
0.0
10
3379.0
20
-908.0
30
0.0
10
3400.0
20
-927.0
30
0.0
10
3421.0
20
-945.0
30
0.0
10
3440.0
20
-961.0
30
0.0
10
3459.0
20
-976.0
30
0.0
10
3479.0
20
-989.0
30
0.0
10
3499.0
20
-1002.0
30
0.0
10
3522.0
20
-1013.0
30
0.0
10
3547.0
20
-1023.0
30
0.0
10
3573.0
20
-1031.0
30
0.0
10
3600.0
20
-1039.0
30
0.0
10
3629.0
20
-1045.0
30
0.0
10
3658.0
20
-1051.0
30
0.0
10
3689.0
20
-1057.0
30
0.0
10
3700.0
20
-1058.0
30
0.0
10
3711.0
20
-1060.0
30
0.0
10
3722.0
20
-1062.0
30
0.0
10
3733.0
20
-1063.0
30
0.0
10
3745.0
20
-1065.0
30
0.0
10
3756.0
20
-1066.0
30
0.0
10
3768.0
20
-1067.0
30
0.0
10
3794.0
20
-1070.0
30
0.0
10
3821.0
20
-1073.0
30
0.0
10
3848.0
20
-1074.0
30
0.0
10
3875.0
20
-1076.0
30
0.0
10
3903.0
20
-1077.0
30
0.0
10
3930.0
20
-1077.0
30
0.0
10
3957.0
20
-1077.0
30
0.0
10
3996.0
20
-1076.0
30
0.0
10
4035.0
20
-1074.0
30
0.0
10
4074.0
20
-1072.0
30
0.0
10
4113.0
20
-1068.0
30
0.0
10
4151.0
20
-1065.0
30
0.0
10
4189.0
20
-1062.0
30
0.0
10
4227.0
20
-1059.0
30
0.0
10
4263.0
20
-1057.0
30
0.0
10
4299.0
20
-1055.0
30
0.0
10
4335.0
20
-1052.0
30
0.0
10
4370.0
20
-1048.0
30
0.0
10
4405.0
20
-1043.0
30
0.0
10
4439.0
20
-1035.0
30
0.0
10
4474.0
20
-1024.0
30
0.0
10
4477.0
20
-1023.0
30
0.0
10
4481.0
20
-1021.0
30
0.0
10
4485.0
20
-1020.0
30
0.0
10
4489.0
20
-1018.0
30
0.0
10
4493.0
20
-1017.0
30
0.0
10
4497.0
20
-1015.0
30
0.0
10
4500.0
20
-1013.0
30
0.0
10
4530.0
20
-999.0
30
0.0
10
4560.0
20
-983.0
30
0.0
10
4589.0
20
-966.0
30
0.0
10
4617.0
20
-948.0
30
0.0
10
4644.0
20
-929.0
30
0.0
10
4669.0
20
-911.0
30
0.0
10
4694.0
20
-894.0
30
0.0
10
4715.0
20
-880.0
30
0.0
10
4735.0
20
-867.0
30
0.0
10
4755.0
20
-855.0
30
0.0
10
4775.0
20
-844.0
30
0.0
10
4794.0
20
-834.0
30
0.0
10
4814.0
20
-825.0
30
0.0
10
4835.0
20
-817.0
30
0.0
10
4857.0
20
-810.0
30
0.0
10
4881.0
20
-804.0
30
0.0
10
4905.0
20
-799.0
30
0.0
10
4931.0
20
-795.0
30
0.0
10
4957.0
20
-792.0
30
0.0
10
4983.0
20
-790.0
30
0.0
10
5011.0
20
-788.0
30
0.0
10
5043.0
20
-788.0
30
0.0
10
5075.0
20
-788.0
30
0.0
10
5107.0
20
-789.0
30
0.0
10
5140.0
20
-792.0
30
0.0
10
5172.0
20
-796.0
30
0.0
10
5204.0
20
-802.0
30
0.0
10
5235.0
20
-808.0
30
0.0
10
5267.0
20
-817.0
30
0.0
10
5299.0
20
-825.0
30
0.0
10
5332.0
20
-831.0
30
0.0
10
5366.0
20
-833.0
30
0.0
10
5403.0
20
-828.0
30
0.0
10
5443.0
20
-815.0
30
0.0
10
5487.0
20
-790.0
30
0.0
10
5570.0
20
-724.0
30
0.0
10
5661.0
20
-635.0
30
0.0
10
5751.0
20
-534.0
30
0.0
10
5833.0
20
-434.0
30
0.0
10
5901.0
20
-348.0
30
0.0
10
5947.0
20
-287.0
30
0.0
10
5964.0
20
-264.0
30
0.0
10
5968.0
20
-264.0
30
0.0
10
5978.0
20
-263.0
30
0.0
10
5992.0
20
-261.0
30
0.0
10
6009.0
20
-259.0
30
0.0
10
6028.0
20
-255.0
30
0.0
10
6045.0
20
-250.0
30
0.0
10
6061.0
20
-244.0
30
0.0
10
6072.0
20
-235.0
30
0.0
10
6080.0
20
-226.0
30
0.0
10
6085.0
20
-214.0
30
0.0
10
6087.0
20
-201.0
30
0.0
10
6088.0
20
-187.0
30
0.0
10
6086.0
20
-171.0
30
0.0
10
6084.0
20
-154.0
30
0.0
10
6080.0
20
-136.0
30
0.0
10
6076.0
20
-118.0
30
0.0
10
6072.0
20
-100.0
30
0.0
10
6068.0
20
-85.0
30
0.0
10
6065.0
20
-72.0
30
0.0
10
6063.0
20
-64.0
30
0.0
10
6062.0
20
-61.0
30
0.0
10
6178.0
20
0.0
30
0.0
10
6181.0
20
-3.0
30
0.0
10
6191.0
20
-13.0
30
0.0
10
6207.0
20
-27.0
30
0.0
10
6227.0
20
-44.0
30
0.0
10
6249.0
20
-64.0
30
0.0
10
6274.0
20
-86.0
30
0.0
10
6299.0
20
-107.0
30
0.0
10
6330.0
20
-133.0
30
0.0
10
6361.0
20
-158.0
30
0.0
10
6391.0
20
-181.0
30
0.0
10
6420.0
20
-204.0
30
0.0
10
6448.0
20
-225.0
30
0.0
10
6475.0
20
-245.0
30
0.0
10
6502.0
20
-264.0
30
0.0
10
6523.0
20
-279.0
30
0.0
10
6543.0
20
-293.0
30
0.0
10
6563.0
20
-307.0
30
0.0
10
6582.0
20
-322.0
30
0.0
10
6600.0
20
-337.0
30
0.0
10
6618.0
20
-352.0
30
0.0
10
6635.0
20
-369.0
30
0.0
10
6651.0
20
-386.0
30
0.0
10
6667.0
20
-405.0
30
0.0
10
6682.0
20
-424.0
30
0.0
10
6697.0
20
-444.0
30
0.0
10
6712.0
20
-463.0
30
0.0
10
6727.0
20
-483.0
30
0.0
10
6742.0
20
-503.0
30
0.0
10
6759.0
20
-523.0
30
0.0
10
6775.0
20
-542.0
30
0.0
10
6792.0
20
-562.0
30
0.0
10
6808.0
20
-581.0
30
0.0
10
6825.0
20
-601.0
30
0.0
10
6842.0
20
-621.0
30
0.0
10
6859.0
20
-642.0
30
0.0
10
6878.0
20
-665.0
30
0.0
10
6896.0
20
-689.0
30
0.0
10
6915.0
20
-713.0
30
0.0
10
6935.0
20
-736.0
30
0.0
10
6956.0
20
-759.0
30
0.0
10
6977.0
20
-782.0
30
0.0
10
7001.0
20
-803.0
30
0.0
10
7018.0
20
-817.0
30
0.0
10
7035.0
20
-830.0
30
0.0
10
7052.0
20
-842.0
30
0.0
10
7066.0
20
-851.0
30
0.0
10
7077.0
20
-859.0
30
0.0
10
7085.0
20
-863.0
30
0.0
10
7087.0
20
-865.0
30
0.0
10
7070.0
20
-988.0
30
0.0
10
7079.0
20
-988.0
30
0.0
10
7104.0
20
-985.0
30
0.0
10
7142.0
20
-980.0
30
0.0
10
7192.0
20
-973.0
30
0.0
10
7249.0
20
-964.0
30
0.0
10
7313.0
20
-951.0
30
0.0
10
7380.0
20
-935.0
30
0.0
10
7454.0
20
-914.0
30
0.0
10
7525.0
20
-890.0
30
0.0
10
7591.0
20
-866.0
30
0.0
10
7648.0
20
-843.0
30
0.0
10
7693.0
20
-825.0
30
0.0
10
7722.0
20
-812.0
30
0.0
10
7733.0
20
-808.0
30
0.0
10
7739.0
20
-819.0
30
0.0
10
7755.0
20
-850.0
30
0.0
10
7780.0
20
-896.0
30
0.0
10
7810.0
20
-953.0
30
0.0
10
7841.0
20
-1014.0
30
0.0
10
7873.0
20
-1076.0
30
0.0
10
7902.0
20
-1134.0
30
0.0
10
7923.0
20
-1178.0
30
0.0
10
7941.0
20
-1217.0
30
0.0
10
7957.0
20
-1252.0
30
0.0
10
7974.0
20
-1286.0
30
0.0
10
7991.0
20
-1319.0
30
0.0
10
8010.0
20
-1354.0
30
0.0
10
8034.0
20
-1392.0
30
0.0
10
8062.0
20
-1433.0
30
0.0
10
8092.0
20
-1476.0
30
0.0
10
8122.0
20
-1518.0
30
0.0
10
8149.0
20
-1556.0
30
0.0
10
8172.0
20
-1586.0
30
0.0
10
8188.0
20
-1607.0
30
0.0
10
8194.0
20
-1615.0
30
0.0
10
8192.0
20
-1620.0
30
0.0
10
8188.0
20
-1635.0
30
0.0
10
8183.0
20
-1658.0
30
0.0
10
8178.0
20
-1686.0
30
0.0
10
8174.0
20
-1718.0
30
0.0
10
8173.0
20
-1753.0
30
0.0
10
8175.0
20
-1787.0
30
0.0
10
8181.0
20
-1816.0
30
0.0
10
8190.0
20
-1843.0
30
0.0
10
8199.0
20
-1866.0
30
0.0
10
8209.0
20
-1886.0
30
0.0
10
8218.0
20
-1901.0
30
0.0
10
8224.0
20
-1911.0
30
0.0
10
8226.0
20
-1914.0
30
0.0
10
8195.0
20
-1981.0
30
0.0
10
8188.0
20
-1985.0
30
0.0
10
8171.0
20
-1996.0
30
0.0
10
8145.0
20
-2013.0
30
0.0
10
8113.0
20
-2032.0
30
0.0
10
8078.0
20
-2054.0
30
0.0
10
8044.0
20
-2077.0
30
0.0
10
8011.0
20
-2098.0
30
0.0
10
7988.0
20
-2114.0
30
0.0
10
7967.0
20
-2129.0
30
0.0
10
7949.0
20
-2142.0
30
0.0
10
7932.0
20
-2155.0
30
0.0
10
7916.0
20
-2167.0
30
0.0
10
7900.0
20
-2179.0
30
0.0
10
7884.0
20
-2191.0
30
0.0
10
7867.0
20
-2204.0
30
0.0
10
7849.0
20
-2219.0
30
0.0
10
7831.0
20
-2234.0
30
0.0
10
7814.0
20
-2252.0
30
0.0
10
7800.0
20
-2271.0
30
0.0
10
7789.0
20
-2293.0
30
0.0
10
7782.0
20
-2319.0
30
0.0
10
7779.0
20
-2344.0
30
0.0
10
7779.0
20
-2371.0
30
0.0
10
7782.0
20
-2397.0
30
0.0
10
7785.0
20
-2420.0
30
0.0
10
7789.0
20
-2438.0
30
0.0
10
7792.0
20
-2451.0
30
0.0
10
7793.0
20
-2456.0
30
0.0
10
7786.0
20
-2460.0
30
0.0
10
7769.0
20
-2471.0
30
0.0
10
7743.0
20
-2487.0
30
0.0
10
7711.0
20
-2507.0
30
0.0
10
7677.0
20
-2530.0
30
0.0
10
7643.0
20
-2553.0
30
0.0
10
7612.0
20
-2576.0
30
0.0
10
7591.0
20
-2593.0
30
0.0
10
7572.0
20
-2609.0
30
0.0
10
7557.0
20
-2624.0
30
0.0
10
7543.0
20
-2638.0
30
0.0
10
7530.0
20
-2653.0
30
0.0
10
7518.0
20
-2667.0
30
0.0
10
7506.0
20
-2682.0
30
0.0
10
7490.0
20
-2700.0
30
0.0
10
7474.0
20
-2720.0
30
0.0
10
7456.0
20
-2740.0
30
0.0
10
7438.0
20
-2761.0
30
0.0
10
7419.0
20
-2784.0
30
0.0
10
7399.0
20
-2807.0
30
0.0
10
7378.0
20
-2831.0
30
0.0
10
7354.0
20
-2859.0
30
0.0
10
7330.0
20
-2888.0
30
0.0
10
7306.0
20
-2916.0
30
0.0
10
7281.0
20
-2944.0
30
0.0
10
7256.0
20
-2971.0
30
0.0
10
7231.0
20
-2997.0
30
0.0
10
7207.0
20
-3020.0
30
0.0
10
7186.0
20
-3038.0
30
0.0
10
7165.0
20
-3054.0
30
0.0
10
7144.0
20
-3069.0
30
0.0
10
7123.0
20
-3083.0
30
0.0
10
7101.0
20
-3097.0
30
0.0
10
7079.0
20
-3110.0
30
0.0
10
7056.0
20
-3123.0
30
0.0
10
7031.0
20
-3138.0
30
0.0
10
7006.0
20
-3153.0
30
0.0
10
6981.0
20
-3168.0
30
0.0
10
6955.0
20
-3185.0
30
0.0
10
6931.0
20
-3203.0
30
0.0
10
6908.0
20
-3222.0
30
0.0
10
6886.0
20
-3242.0
30
0.0
10
6866.0
20
-3266.0
30
0.0
10
6847.0
20
-3291.0
30
0.0
10
6829.0
20
-3319.0
30
0.0
10
6814.0
20
-3347.0
30
0.0
10
6799.0
20
-3378.0
30
0.0
10
6785.0
20
-3409.0
30
0.0
10
6771.0
20
-3442.0
30
0.0
10
6757.0
20
-3479.0
30
0.0
10
6743.0
20
-3518.0
30
0.0
10
6730.0
20
-3557.0
30
0.0
10
6719.0
20
-3596.0
30
0.0
10
6710.0
20
-3635.0
30
0.0
10
6704.0
20
-3674.0
30
0.0
10
6701.0
20
-3713.0
30
0.0
10
6701.0
20
-3746.0
30
0.0
10
6703.0
20
-3778.0
30
0.0
10
6706.0
20
-3810.0
30
0.0
10
6710.0
20
-3841.0
30
0.0
10
6713.0
20
-3871.0
30
0.0
10
6715.0
20
-3901.0
30
0.0
10
6715.0
20
-3929.0
30
0.0
10
6712.0
20
-3955.0
30
0.0
10
6707.0
20
-3980.0
30
0.0
10
6702.0
20
-4004.0
30
0.0
10
6696.0
20
-4029.0
30
0.0
10
6689.0
20
-4054.0
30
0.0
10
6684.0
20
-4079.0
30
0.0
10
6679.0
20
-4105.0
30
0.0
10
6677.0
20
-4133.0
30
0.0
10
6676.0
20
-4162.0
30
0.0
10
6678.0
20
-4192.0
30
0.0
10
6682.0
20
-4221.0
30
0.0
10
6688.0
20
-4250.0
30
0.0
10
6696.0
20
-4279.0
30
0.0
10
6706.0
20
-4307.0
30
0.0
10
6718.0
20
-4334.0
30
0.0
10
6732.0
20
-4361.0
30
0.0
10
6747.0
20
-4387.0
30
0.0
10
6764.0
20
-4412.0
30
0.0
10
6780.0
20
-4437.0
30
0.0
10
6797.0
20
-4463.0
30
0.0
10
6814.0
20
-4488.0
30
0.0
10
6831.0
20
-4515.0
30
0.0
10
6848.0
20
-4541.0
30
0.0
10
6864.0
20
-4568.0
30
0.0
10
6881.0
20
-4594.0
30
0.0
10
6899.0
20
-4620.0
30
0.0
10
6919.0
20
-4644.0
30
0.0
10
6940.0
20
-4668.0
30
0.0
10
6962.0
20
-4689.0
30
0.0
10
6987.0
20
-4710.0
30
0.0
10
7012.0
20
-4729.0
30
0.0
10
7038.0
20
-4748.0
30
0.0
10
7064.0
20
-4766.0
30
0.0
10
7089.0
20
-4784.0
30
0.0
10
7113.0
20
-4803.0
30
0.0
10
7134.0
20
-4820.0
30
0.0
10
7154.0
20
-4838.0
30
0.0
10
7173.0
20
-4857.0
30
0.0
10
7191.0
20
-4877.0
30
0.0
10
7208.0
20
-4897.0
30
0.0
10
7224.0
20
-4918.0
30
0.0
10
7240.0
20
-4940.0
30
0.0
10
7258.0
20
-4964.0
30
0.0
10
7275.0
20
-4990.0
30
0.0
10
7292.0
20
-5016.0
30
0.0
10
7309.0
20
-5043.0
30
0.0
10
7327.0
20
-5070.0
30
0.0
10
7345.0
20
-5097.0
30
0.0
10
7365.0
20
-5125.0
30
0.0
10
7386.0
20
-5152.0
30
0.0
10
7408.0
20
-5179.0
30
0.0
10
7431.0
20
-5205.0
30
0.0
10
7455.0
20
-5230.0
30
0.0
10
7479.0
20
-5252.0
30
0.0
10
7504.0
20
-5272.0
30
0.0
10
7530.0
20
-5290.0
30
0.0
10
7556.0
20
-5303.0
30
0.0
10
7582.0
20
-5315.0
30
0.0
10
7608.0
20
-5327.0
30
0.0
10
7636.0
20
-5340.0
30
0.0
10
7665.0
20
-5355.0
30
0.0
10
7694.0
20
-5373.0
30
0.0
10
7725.0
20
-5397.0
30
0.0
10
7761.0
20
-5430.0
30
0.0
10
7796.0
20
-5467.0
30
0.0
10
7830.0
20
-5505.0
30
0.0
10
7859.0
20
-5541.0
30
0.0
10
7882.0
20
-5571.0
30
0.0
10
7898.0
20
-5591.0
30
0.0
10
7903.0
20
-5598.0
30
0.0
10
7900.0
20
-5602.0
30
0.0
10
7893.0
20
-5612.0
30
0.0
10
7882.0
20
-5627.0
30
0.0
10
7870.0
20
-5646.0
30
0.0
10
7859.0
20
-5668.0
30
0.0
10
7851.0
20
-5691.0
30
0.0
10
7846.0
20
-5715.0
30
0.0
10
7847.0
20
-5735.0
30
0.0
10
7851.0
20
-5753.0
30
0.0
10
7857.0
20
-5770.0
30
0.0
10
7864.0
20
-5784.0
30
0.0
10
7871.0
20
-5795.0
30
0.0
10
7875.0
20
-5801.0
30
0.0
10
7877.0
20
-5804.0
30
0.0
10
7818.0
20
-5968.0
30
0.0
10
7819.0
20
-5982.0
30
0.0
10
7824.0
20
-6019.0
30
0.0
10
7830.0
20
-6074.0
30
0.0
10
7840.0
20
-6142.0
30
0.0
10
7852.0
20
-6215.0
30
0.0
10
7867.0
20
-6289.0
30
0.0
10
7884.0
20
-6357.0
30
0.0
10
7896.0
20
-6397.0
30
0.0
10
7909.0
20
-6431.0
30
0.0
10
7921.0
20
-6460.0
30
0.0
10
7931.0
20
-6483.0
30
0.0
10
7940.0
20
-6500.0
30
0.0
10
7946.0
20
-6510.0
30
0.0
10
7948.0
20
-6514.0
30
0.0
10
7944.0
20
-6517.0
30
0.0
10
7933.0
20
-6528.0
30
0.0
10
7917.0
20
-6543.0
30
0.0
10
7898.0
20
-6562.0
30
0.0
10
7876.0
20
-6583.0
30
0.0
10
7854.0
20
-6606.0
30
0.0
10
7834.0
20
-6628.0
30
0.0
10
7814.0
20
-6652.0
30
0.0
10
7797.0
20
-6675.0
30
0.0
10
7783.0
20
-6698.0
30
0.0
10
7770.0
20
-6721.0
30
0.0
10
7759.0
20
-6747.0
30
0.0
10
7749.0
20
-6775.0
30
0.0
10
7738.0
20
-6806.0
30
0.0
10
7728.0
20
-6841.0
30
0.0
10
7718.0
20
-6878.0
30
0.0
10
7708.0
20
-6913.0
30
0.0
10
7699.0
20
-6946.0
30
0.0
10
7693.0
20
-6972.0
30
0.0
10
7688.0
20
-6990.0
30
0.0
10
7687.0
20
-6996.0
30
0.0
10
7743.0
20
-7052.0
30
0.0
10
7740.0
20
-7059.0
30
0.0
10
7734.0
20
-7078.0
30
0.0
10
7724.0
20
-7106.0
30
0.0
10
7713.0
20
-7140.0
30
0.0
10
7701.0
20
-7178.0
30
0.0
10
7691.0
20
-7216.0
30
0.0
10
7682.0
20
-7252.0
30
0.0
10
7677.0
20
-7281.0
30
0.0
10
7675.0
20
-7307.0
30
0.0
10
7676.0
20
-7331.0
30
0.0
10
7679.0
20
-7354.0
30
0.0
10
7685.0
20
-7377.0
30
0.0
10
7694.0
20
-7402.0
30
0.0
10
7704.0
20
-7430.0
30
0.0
10
7718.0
20
-7462.0
30
0.0
10
7732.0
20
-7496.0
30
0.0
10
7747.0
20
-7529.0
30
0.0
10
7760.0
20
-7559.0
30
0.0
10
7771.0
20
-7583.0
30
0.0
10
7779.0
20
-7600.0
30
0.0
10
7782.0
20
-7606.0
30
0.0
10
7781.0
20
-7611.0
30
0.0
10
7779.0
20
-7625.0
30
0.0
10
7777.0
20
-7645.0
30
0.0
10
7774.0
20
-7670.0
30
0.0
10
7771.0
20
-7697.0
30
0.0
10
7768.0
20
-7726.0
30
0.0
10
7766.0
20
-7753.0
30
0.0
10
7765.0
20
-7769.0
30
0.0
10
7765.0
20
-7784.0
30
0.0
10
7764.0
20
-7797.0
30
0.0
10
7764.0
20
-7808.0
30
0.0
10
7764.0
20
-7815.0
30
0.0
10
7765.0
20
-7820.0
30
0.0
10
7765.0
20
-7822.0
30
0.0
10
7760.0
20
-7824.0
30
0.0
10
7747.0
20
-7830.0
30
0.0
10
7728.0
20
-7839.0
30
0.0
10
7704.0
20
-7850.0
30
0.0
10
7677.0
20
-7863.0
30
0.0
10
7649.0
20
-7876.0
30
0.0
10
7621.0
20
-7890.0
30
0.0
10
7600.0
20
-7901.0
30
0.0
10
7582.0
20
-7911.0
30
0.0
10
7565.0
20
-7920.0
30
0.0
10
7552.0
20
-7928.0
30
0.0
10
7542.0
20
-7934.0
30
0.0
10
7535.0
20
-7938.0
30
0.0
10
7533.0
20
-7939.0
30
0.0
10
7244.0
20
-7892.0
30
0.0
10
7239.0
20
-7891.0
30
0.0
10
7225.0
20
-7888.0
30
0.0
10
7203.0
20
-7883.0
30
0.0
10
7176.0
20
-7876.0
30
0.0
10
7145.0
20
-7868.0
30
0.0
10
7112.0
20
-7858.0
30
0.0
10
7080.0
20
-7848.0
30
0.0
10
7046.0
20
-7835.0
30
0.0
10
7015.0
20
-7822.0
30
0.0
10
6986.0
20
-7807.0
30
0.0
10
6960.0
20
-7792.0
30
0.0
10
6936.0
20
-7775.0
30
0.0
10
6913.0
20
-7757.0
30
0.0
10
6893.0
20
-7737.0
30
0.0
10
6877.0
20
-7720.0
30
0.0
10
6861.0
20
-7701.0
30
0.0
10
6846.0
20
-7683.0
30
0.0
10
6831.0
20
-7665.0
30
0.0
10
6815.0
20
-7649.0
30
0.0
10
6798.0
20
-7635.0
30
0.0
10
6780.0
20
-7623.0
30
0.0
10
6760.0
20
-7613.0
30
0.0
10
6739.0
20
-7607.0
30
0.0
10
6716.0
20
-7603.0
30
0.0
10
6693.0
20
-7601.0
30
0.0
10
6668.0
20
-7602.0
30
0.0
10
6643.0
20
-7603.0
30
0.0
10
6618.0
20
-7606.0
30
0.0
10
6591.0
20
-7610.0
30
0.0
10
6563.0
20
-7615.0
30
0.0
10
6536.0
20
-7621.0
30
0.0
10
6510.0
20
-7627.0
30
0.0
10
6483.0
20
-7634.0
30
0.0
10
6457.0
20
-7641.0
30
0.0
10
6432.0
20
-7648.0
30
0.0
10
6407.0
20
-7655.0
30
0.0
10
6382.0
20
-7662.0
30
0.0
10
6357.0
20
-7668.0
30
0.0
10
6331.0
20
-7674.0
30
0.0
10
6304.0
20
-7678.0
30
0.0
10
6277.0
20
-7682.0
30
0.0
10
6248.0
20
-7684.0
30
0.0
10
6209.0
20
-7684.0
30
0.0
10
6167.0
20
-7683.0
30
0.0
10
6124.0
20
-7680.0
30
0.0
10
6081.0
20
-7675.0
30
0.0
10
6037.0
20
-7670.0
30
0.0
10
5994.0
20
-7664.0
30
0.0
10
5952.0
20
-7659.0
30
0.0
10
5913.0
20
-7654.0
30
0.0
10
5877.0
20
-7649.0
30
0.0
10
5840.0
20
-7644.0
30
0.0
10
5804.0
20
-7638.0
30
0.0
10
5768.0
20
-7632.0
30
0.0
10
5730.0
20
-7625.0
30
0.0
10
5691.0
20
-7617.0
30
0.0
10
5660.0
20
-7610.0
30
0.0
10
5630.0
20
-7602.0
30
0.0
10
5601.0
20
-7595.0
30
0.0
10
5576.0
20
-7588.0
30
0.0
10
5556.0
20
-7583.0
30
0.0
10
5543.0
20
-7579.0
30
0.0
10
5538.0
20
-7578.0
30
0.0
10
5505.0
20
-7507.0
30
0.0
10
5496.0
20
-7506.0
30
0.0
10
5472.0
20
-7501.0
30
0.0
10
5436.0
20
-7495.0
30
0.0
10
5392.0
20
-7489.0
30
0.0
10
5344.0
20
-7482.0
30
0.0
10
5297.0
20
-7477.0
30
0.0
10
5252.0
20
-7474.0
30
0.0
10
5221.0
20
-7474.0
30
0.0
10
5193.0
20
-7476.0
30
0.0
10
5169.0
20
-7479.0
30
0.0
10
5147.0
20
-7484.0
30
0.0
10
5126.0
20
-7491.0
30
0.0
10
5106.0
20
-7498.0
30
0.0
10
5087.0
20
-7507.0
30
0.0
10
5068.0
20
-7515.0
30
0.0
10
5049.0
20
-7524.0
30
0.0
10
5030.0
20
-7531.0
30
0.0
10
5011.0
20
-7538.0
30
0.0
10
4992.0
20
-7542.0
30
0.0
10
4974.0
20
-7544.0
30
0.0
10
4956.0
20
-7542.0
30
0.0
10
4944.0
20
-7539.0
30
0.0
10
4932.0
20
-7534.0
30
0.0
10
4922.0
20
-7529.0
30
0.0
10
4912.0
20
-7525.0
30
0.0
10
4904.0
20
-7521.0
30
0.0
10
4897.0
20
-7520.0
30
0.0
10
4892.0
20
-7521.0
30
0.0
10
4889.0
20
-7526.0
30
0.0
10
4887.0
20
-7533.0
30
0.0
10
4885.0
20
-7543.0
30
0.0
10
4884.0
20
-7554.0
30
0.0
10
4882.0
20
-7567.0
30
0.0
10
4879.0
20
-7579.0
30
0.0
10
4874.0
20
-7590.0
30
0.0
10
4863.0
20
-7604.0
30
0.0
10
4848.0
20
-7615.0
30
0.0
10
4830.0
20
-7624.0
30
0.0
10
4809.0
20
-7632.0
30
0.0
10
4786.0
20
-7637.0
30
0.0
10
4762.0
20
-7642.0
30
0.0
10
4739.0
20
-7646.0
30
0.0
10
4714.0
20
-7651.0
30
0.0
10
4690.0
20
-7655.0
30
0.0
10
4667.0
20
-7658.0
30
0.0
10
4644.0
20
-7660.0
30
0.0
10
4620.0
20
-7662.0
30
0.0
10
4596.0
20
-7662.0
30
0.0
10
4570.0
20
-7662.0
30
0.0
10
4538.0
20
-7659.0
30
0.0
10
4504.0
20
-7655.0
30
0.0
10
4468.0
20
-7650.0
30
0.0
10
4432.0
20
-7645.0
30
0.0
10
4395.0
20
-7641.0
30
0.0
10
4358.0
20
-7638.0
30
0.0
10
4320.0
20
-7638.0
30
0.0
10
4276.0
20
-7642.0
30
0.0
10
4232.0
20
-7649.0
30
0.0
10
4186.0
20
-7659.0
30
0.0
10
4139.0
20
-7672.0
30
0.0
10
4089.0
20
-7686.0
30
0.0
10
4036.0
20
-7701.0
30
0.0
10
3979.0
20
-7716.0
30
0.0
10
3920.0
20
-7731.0
30
0.0
10
3860.0
20
-7746.0
30
0.0
10
3802.0
20
-7761.0
30
0.0
10
3751.0
20
-7776.0
30
0.0
10
3709.0
20
-7792.0
30
0.0
10
3679.0
20
-7809.0
30
0.0
10
3667.0
20
-7827.0
30
0.0
10
3667.0
20
-7835.0
30
0.0
10
3670.0
20
-7844.0
30
0.0
10
3674.0
20
-7853.0
30
0.0
10
3680.0
20
-7861.0
30
0.0
10
3684.0
20
-7870.0
30
0.0
10
3687.0
20
-7879.0
30
0.0
10
3687.0
20
-7888.0
30
0.0
10
3679.0
20
-7902.0
30
0.0
10
3662.0
20
-7917.0
30
0.0
10
3637.0
20
-7931.0
30
0.0
10
3609.0
20
-7945.0
30
0.0
10
3578.0
20
-7959.0
30
0.0
10
3547.0
20
-7973.0
30
0.0
10
3519.0
20
-7988.0
30
0.0
10
3499.0
20
-8001.0
30
0.0
10
3481.0
20
-8015.0
30
0.0
10
3466.0
20
-8029.0
30
0.0
10
3452.0
20
-8045.0
30
0.0
10
3439.0
20
-8062.0
30
0.0
10
3427.0
20
-8081.0
30
0.0
10
3413.0
20
-8102.0
30
0.0
10
3399.0
20
-8123.0
30
0.0
10
3385.0
20
-8144.0
30
0.0
10
3371.0
20
-8164.0
30
0.0
10
3359.0
20
-8182.0
30
0.0
10
3349.0
20
-8197.0
30
0.0
10
3342.0
20
-8206.0
30
0.0
10
3339.0
20
-8210.0
30
0.0
10
3333.0
20
-8210.0
30
0.0
10
3314.0
20
-8212.0
30
0.0
10
3286.0
20
-8214.0
30
0.0
10
3251.0
20
-8216.0
30
0.0
10
3212.0
20
-8218.0
30
0.0
10
3171.0
20
-8220.0
30
0.0
10
3130.0
20
-8220.0
30
0.0
10
3091.0
20
-8219.0
30
0.0
10
3055.0
20
-8217.0
30
0.0
10
3021.0
20
-8214.0
30
0.0
10
2989.0
20
-8211.0
30
0.0
10
2958.0
20
-8209.0
30
0.0
10
2929.0
20
-8207.0
30
0.0
10
2899.0
20
-8206.0
30
0.0
10
2872.0
20
-8207.0
30
0.0
10
2844.0
20
-8210.0
30
0.0
10
2817.0
20
-8214.0
30
0.0
10
2789.0
20
-8220.0
30
0.0
10
2761.0
20
-8227.0
30
0.0
10
2734.0
20
-8236.0
30
0.0
10
2707.0
20
-8247.0
30
0.0
10
2679.0
20
-8260.0
30
0.0
10
2652.0
20
-8274.0
30
0.0
10
2625.0
20
-8288.0
30
0.0
10
2599.0
20
-8300.0
30
0.0
10
2572.0
20
-8309.0
30
0.0
10
2545.0
20
-8315.0
30
0.0
10
2517.0
20
-8315.0
30
0.0
10
2491.0
20
-8311.0
30
0.0
10
2466.0
20
-8302.0
30
0.0
10
2440.0
20
-8291.0
30
0.0
10
2415.0
20
-8279.0
30
0.0
10
2392.0
20
-8267.0
30
0.0
10
2370.0
20
-8257.0
30
0.0
10
2350.0
20
-8250.0
30
0.0
10
2339.0
20
-8248.0
30
0.0
10
2329.0
20
-8248.0
30
0.0
10
2320.0
20
-8247.0
30
0.0
10
2311.0
20
-8247.0
30
0.0
10
2303.0
20
-8245.0
30
0.0
10
2296.0
20
-8243.0
30
0.0
10
2289.0
20
-8238.0
30
0.0
10
2280.0
20
-8226.0
30
0.0
10
2272.0
20
-8208.0
30
0.0
10
2264.0
20
-8185.0
30
0.0
10
2258.0
20
-8160.0
30
0.0
10
2251.0
20
-8133.0
30
0.0
10
2244.0
20
-8105.0
30
0.0
10
2237.0
20
-8078.0
30
0.0
10
2230.0
20
-8056.0
30
0.0
10
2221.0
20
-8036.0
30
0.0
10
2212.0
20
-8017.0
30
0.0
10
2201.0
20
-8001.0
30
0.0
10
2189.0
20
-7987.0
30
0.0
10
2175.0
20
-7977.0
30
0.0
10
2160.0
20
-7969.0
30
0.0
10
2144.0
20
-7964.0
30
0.0
10
2126.0
20
-7962.0
30
0.0
10
2108.0
20
-7961.0
30
0.0
10
2089.0
20
-7961.0
30
0.0
10
2069.0
20
-7961.0
30
0.0
10
2050.0
20
-7960.0
30
0.0
10
2031.0
20
-7957.0
30
0.0
10
2013.0
20
-7953.0
30
0.0
10
1995.0
20
-7946.0
30
0.0
10
1978.0
20
-7939.0
30
0.0
10
1961.0
20
-7932.0
30
0.0
10
1943.0
20
-7925.0
30
0.0
10
1925.0
20
-7920.0
30
0.0
10
1907.0
20
-7918.0
30
0.0
10
1886.0
20
-7919.0
30
0.0
10
1863.0
20
-7923.0
30
0.0
10
1840.0
20
-7930.0
30
0.0
10
1816.0
20
-7939.0
30
0.0
10
1792.0
20
-7948.0
30
0.0
10
1767.0
20
-7957.0
30
0.0
10
1742.0
20
-7965.0
30
0.0
10
1715.0
20
-7972.0
30
0.0
10
1688.0
20
-7977.0
30
0.0
10
1661.0
20
-7981.0
30
0.0
10
1633.0
20
-7985.0
30
0.0
10
1606.0
20
-7989.0
30
0.0
10
1578.0
20
-7994.0
30
0.0
10
1550.0
20
-8001.0
30
0.0
10
1520.0
20
-8012.0
30
0.0
10
1489.0
20
-8025.0
30
0.0
10
1459.0
20
-8041.0
30
0.0
10
1429.0
20
-8058.0
30
0.0
10
1399.0
20
-8077.0
30
0.0
10
1370.0
20
-8096.0
30
0.0
10
1341.0
20
-8115.0
30
0.0
10
1314.0
20
-8134.0
30
0.0
10
1287.0
20
-8153.0
30
0.0
10
1261.0
20
-8172.0
30
0.0
10
1236.0
20
-8190.0
30
0.0
10
1210.0
20
-8209.0
30
0.0
10
1186.0
20
-8229.0
30
0.0
10
1162.0
20
-8248.0
30
0.0
10
1139.0
20
-8267.0
30
0.0
10
1116.0
20
-8285.0
30
0.0
10
1094.0
20
-8304.0
30
0.0
10
1071.0
20
-8322.0
30
0.0
10
1049.0
20
-8340.0
30
0.0
10
1026.0
20
-8357.0
30
0.0
10
1002.0
20
-8373.0
30
0.0
10
979.0
20
-8388.0
30
0.0
10
955.0
20
-8402.0
30
0.0
10
931.0
20
-8416.0
30
0.0
10
906.0
20
-8429.0
30
0.0
10
882.0
20
-8443.0
30
0.0
10
857.0
20
-8457.0
30
0.0
10
832.0
20
-8473.0
30
0.0
10
801.0
20
-8493.0
30
0.0
10
770.0
20
-8515.0
30
0.0
10
738.0
20
-8539.0
30
0.0
10
704.0
20
-8564.0
30
0.0
10
669.0
20
-8591.0
30
0.0
10
631.0
20
-8619.0
30
0.0
10
591.0
20
-8648.0
30
0.0
10
553.0
20
-8674.0
30
0.0
10
516.0
20
-8699.0
30
0.0
10
480.0
20
-8723.0
30
0.0
10
449.0
20
-8743.0
30
0.0
10
424.0
20
-8760.0
30
0.0
10
407.0
20
-8770.0
30
0.0
10
401.0
20
-8774.0
30
0.0
10
271.0
20
-8667.0
30
0.0
10
270.0
20
-8663.0
30
0.0
10
265.0
20
-8651.0
30
0.0
10
256.0
20
-8634.0
30
0.0
10
245.0
20
-8611.0
30
0.0
10
232.0
20
-8586.0
30
0.0
10
216.0
20
-8560.0
30
0.0
10
197.0
20
-8534.0
30
0.0
10
171.0
20
-8503.0
30
0.0
10
143.0
20
-8475.0
30
0.0
10
115.0
20
-8449.0
30
0.0
10
87.0
20
-8424.0
30
0.0
10
61.0
20
-8400.0
30
0.0
10
39.0
20
-8377.0
30
0.0
10
21.0
20
-8353.0
30
0.0
10
12.0
20
-8335.0
30
0.0
10
6.0
20
-8318.0
30
0.0
10
2.0
20
-8299.0
30
0.0
10
0.0
20
-8280.0
30
0.0
10
0.0
20
-8261.0
30
0.0
10
2.0
20
-8241.0
30
0.0
10
5.0
20
-8221.0
30
0.0
10
9.0
20
-8195.0
30
0.0
10
15.0
20
-8169.0
30
0.0
10
23.0
20
-8142.0
30
0.0
10
31.0
20
-8115.0
30
0.0
10
40.0
20
-8087.0
30
0.0
10
50.0
20
-8059.0
30
0.0
10
62.0
20
-8030.0
30
0.0
10
75.0
20
-7996.0
30
0.0
10
90.0
20
-7961.0
30
0.0
10
105.0
20
-7926.0
30
0.0
10
121.0
20
-7891.0
30
0.0
10
138.0
20
-7855.0
30
0.0
10
155.0
20
-7819.0
30
0.0
10
171.0
20
-7783.0
30
0.0
10
189.0
20
-7744.0
30
0.0
10
206.0
20
-7706.0
30
0.0
10
224.0
20
-7667.0
30
0.0
10
242.0
20
-7629.0
30
0.0
10
261.0
20
-7591.0
30
0.0
10
281.0
20
-7553.0
30
0.0
10
301.0
20
-7517.0
30
0.0
10
321.0
20
-7482.0
30
0.0
10
342.0
20
-7449.0
30
0.0
10
363.0
20
-7416.0
30
0.0
10
384.0
20
-7383.0
30
0.0
10
405.0
20
-7351.0
30
0.0
10
425.0
20
-7319.0
30
0.0
10
443.0
20
-7286.0
30
0.0
10
460.0
20
-7253.0
30
0.0
10
476.0
20
-7220.0
30
0.0
10
491.0
20
-7185.0
30
0.0
10
505.0
20
-7150.0
30
0.0
10
518.0
20
-7114.0
30
0.0
10
530.0
20
-7076.0
30
0.0
10
543.0
20
-7036.0
30
0.0
10
557.0
20
-6986.0
30
0.0
10
570.0
20
-6935.0
30
0.0
10
583.0
20
-6882.0
30
0.0
10
596.0
20
-6829.0
30
0.0
10
607.0
20
-6775.0
30
0.0
10
618.0
20
-6722.0
30
0.0
10
628.0
20
-6671.0
30
0.0
10
637.0
20
-6625.0
30
0.0
10
645.0
20
-6580.0
30
0.0
10
652.0
20
-6536.0
30
0.0
10
659.0
20
-6492.0
30
0.0
10
667.0
20
-6448.0
30
0.0
10
675.0
20
-6403.0
30
0.0
10
684.0
20
-6357.0
30
0.0
10
695.0
20
-6305.0
30
0.0
10
706.0
20
-6252.0
30
0.0
10
717.0
20
-6198.0
30
0.0
10
726.0
20
-6142.0
30
0.0
10
732.0
20
-6087.0
30
0.0
10
735.0
20
-6033.0
30
0.0
10
733.0
20
-5979.0
30
0.0
10
726.0
20
-5925.0
30
0.0
10
714.0
20
-5872.0
30
0.0
10
699.0
20
-5819.0
30
0.0
10
682.0
20
-5765.0
30
0.0
10
664.0
20
-5710.0
30
0.0
10
646.0
20
-5654.0
30
0.0
10
630.0
20
-5595.0
30
0.0
10
616.0
20
-5528.0
30
0.0
10
604.0
20
-5460.0
30
0.0
10
593.0
20
-5391.0
30
0.0
10
584.0
20
-5323.0
30
0.0
10
574.0
20
-5257.0
30
0.0
10
564.0
20
-5196.0
30
0.0
10
553.0
20
-5140.0
30
0.0
10
543.0
20
-5103.0
30
0.0
10
533.0
20
-5069.0
30
0.0
10
522.0
20
-5037.0
30
0.0
10
510.0
20
-5005.0
30
0.0
10
498.0
20
-4974.0
30
0.0
10
486.0
20
-4941.0
30
0.0
10
474.0
20
-4906.0
30
0.0
10
460.0
20
-4862.0
30
0.0
10
446.0
20
-4814.0
30
0.0
10
433.0
20
-4765.0
30
0.0
10
421.0
20
-4716.0
30
0.0
10
408.0
20
-4668.0
30
0.0
10
395.0
20
-4623.0
30
0.0
10
382.0
20
-4582.0
30
0.0
10
372.0
20
-4552.0
30
0.0
10
360.0
20
-4526.0
30
0.0
10
347.0
20
-4502.0
30
0.0
10
331.0
20
-4479.0
30
0.0
10
311.0
20
-4456.0
30
0.0
10
287.0
20
-4434.0
30
0.0
10
257.0
20
-4411.0
30
0.0
10
216.0
20
-4383.0
30
0.0
10
171.0
20
-4356.0
30
0.0
10
125.0
20
-4329.0
30
0.0
10
83.0
20
-4306.0
30
0.0
10
48.0
20
-4288.0
30
0.0
10
24.0
20
-4275.0
30
0.0
10
16.0
20
-4271.0
30
0.0
10
34.0
20
-4061.0
30
0.0
10
35.0
20
-4054.0
30
0.0
10
39.0
20
-4033.0
30
0.0
10
44.0
20
-4003.0
30
0.0
10
51.0
20
-3965.0
30
0.0
10
58.0
20
-3924.0
30
0.0
10
64.0
20
-3881.0
30
0.0
10
70.0
20
-3841.0
30
0.0
10
75.0
20
-3809.0
30
0.0
10
78.0
20
-3780.0
30
0.0
10
82.0
20
-3754.0
30
0.0
10
85.0
20
-3730.0
30
0.0
10
89.0
20
-3706.0
30
0.0
10
94.0
20
-3683.0
30
0.0
10
100.0
20
-3659.0
30
0.0
10
109.0
20
-3631.0
30
0.0
10
120.0
20
-3602.0
30
0.0
10
132.0
20
-3571.0
30
0.0
10
146.0
20
-3541.0
30
0.0
10
160.0
20
-3511.0
30
0.0
10
174.0
20
-3481.0
30
0.0
10
189.0
20
-3453.0
30
0.0
10
200.0
20
-3432.0
30
0.0
10
211.0
20
-3411.0
30
0.0
10
221.0
20
-3391.0
30
0.0
10
228.0
20
-3371.0
30
0.0
10
234.0
20
-3351.0
30
0.0
10
235.0
20
-3331.0
30
0.0
10
234.0
20
-3310.0
30
0.0
10
226.0
20
-3281.0
30
0.0
10
213.0
20
-3251.0
30
0.0
10
196.0
20
-3219.0
30
0.0
10
178.0
20
-3187.0
30
0.0
10
161.0
20
-3154.0
30
0.0
10
145.0
20
-3120.0
30
0.0
10
134.0
20
-3086.0
30
0.0
10
128.0
20
-3056.0
30
0.0
10
125.0
20
-3026.0
30
0.0
10
123.0
20
-2996.0
30
0.0
10
122.0
20
-2967.0
30
0.0
10
118.0
20
-2940.0
30
0.0
10
111.0
20
-2914.0
30
0.0
10
99.0
20
-2889.0
30
0.0
10
85.0
20
-2872.0
30
0.0
10
70.0
20
-2856.0
30
0.0
10
54.0
20
-2842.0
30
0.0
10
38.0
20
-2830.0
30
0.0
10
25.0
20
-2822.0
30
0.0
10
16.0
20
-2816.0
30
0.0
10
13.0
20
-2814.0
30
0.0
10
40.0
20
-2598.0
30
0.0
10
43.0
20
-2596.0
30
0.0
10
51.0
20
-2589.0
30
0.0
10
64.0
20
-2579.0
30
0.0
10
81.0
20
-2565.0
30
0.0
10
100.0
20
-2548.0
30
0.0
10
121.0
20
-2528.0
30
0.0
10
143.0
20
-2506.0
30
0.0
10
180.0
20
-2464.0
30
0.0
10
216.0
20
-2417.0
30
0.0
10
250.0
20
-2367.0
30
0.0
10
282.0
20
-2315.0
30
0.0
10
310.0
20
-2261.0
30
0.0
10
334.0
20
-2207.0
30
0.0
10
354.0
20
-2153.0
30
0.0
10
366.0
20
-2108.0
30
0.0
10
376.0
20
-2063.0
30
0.0
10
384.0
20
-2019.0
30
0.0
10
391.0
20
-1976.0
30
0.0
10
400.0
20
-1934.0
30
0.0
10
412.0
20
-1892.0
30
0.0
10
427.0
20
-1851.0
30
0.0
10
447.0
20
-1809.0
30
0.0
10
471.0
20
-1767.0
30
0.0
10
497.0
20
-1725.0
30
0.0
10
522.0
20
-1682.0
30
0.0
10
546.0
20
-1640.0
30
0.0
10
565.0
20
-1597.0
30
0.0
10
579.0
20
-1553.0
30
0.0
10
585.0
20
-1511.0
30
0.0
10
586.0
20
-1470.0
30
0.0
10
582.0
20
-1428.0
30
0.0
10
575.0
20
-1386.0
30
0.0
10
566.0
20
-1346.0
30
0.0
10
556.0
20
-1306.0
30
0.0
10
545.0
20
-1267.0
30
0.0
10
536.0
20
-1231.0
30
0.0
10
527.0
20
-1195.0
30
0.0
10
516.0
20
-1160.0
30
0.0
10
503.0
20
-1124.0
30
0.0
10
486.0
20
-1088.0
30
0.0
10
465.0
20
-1049.0
30
0.0
10
438.0
20
-1008.0
30
0.0
10
402.0
20
-961.0
30
0.0
10
362.0
20
-913.0
30
0.0
10
320.0
20
-867.0
30
0.0
10
282.0
20
-827.0
30
0.0
10
250.0
20
-794.0
30
0.0
10
228.0
20
-772.0
30
0.0
10
220.0
20
-764.0
30
0.0
10
227.0
20
-758.0
30
0.0
6
Solid
370
35
62
0
0
LWPOLYLINE
5
26a5
100
AcDbEntity
100
AcDbPolyline
90
5
70
1
10
6419.0
20
-6640.0
30
0.0
10
6389.0
20
-6598.0
30
0.0
10
6358.0
20
-6510.0
30
0.0
10
6405.0
20
-6569.0
30
0.0
10
6419.0
20
-6640.0
30
0.0
6
Solid
370
35
62
0
0
LWPOLYLINE
5
26a7
100
AcDbEntity
100
AcDbPolyline
90
10
70
1
10
8011.0
20
-1379.0
30
0.0
10
7928.0
20
-1480.0
30
0.0
10
7770.0
20
-1543.0
30
0.0
10
7613.0
20
-1541.0
30
0.0
10
7591.0
20
-1474.0
30
0.0
10
7629.0
20
-1370.0
30
0.0
10
7784.0
20
-1270.0
30
0.0
10
7905.0
20
-1207.0
30
0.0
10
7924.0
20
-1227.0
30
0.0
10
8011.0
20
-1379.0
30
0.0
6
Solid
370
35
62
0
0
LWPOLYLINE
5
26a9
100
AcDbEntity
100
AcDbPolyline
90
5
70
1
10
6477.0
20
-2079.0
30
0.0
10
6453.0
20
-2137.0
30
0.0
10
6389.0
20
-2124.0
30
0.0
10
6400.0
20
-2059.0
30
0.0
10
6477.0
20
-2079.0
30
0.0
6
Solid
370
35
62
0
0
LWPOLYLINE
5
26ab
100
AcDbEntity
100
AcDbPolyline
90
5
70
1
10
6196.0
20
-4217.0
30
0.0
10
6198.0
20
-4285.0
30
0.0
10
6124.0
20
-4285.0
30
0.0
10
6138.0
20
-4217.0
30
0.0
10
6196.0
20
-4217.0
30
0.0
6
Solid
370
35
62
0
0
LWPOLYLINE
5
26ad
100
AcDbEntity
100
AcDbPolyline
90
5
70
1
10
4418.0
20
-4137.0
30
0.0
10
4373.0
20
-4245.0
30
0.0
10
4347.0
20
-4201.0
30
0.0
10
4342.0
20
-4138.0
30
0.0
10
4418.0
20
-4137.0
30
0.0
6
Solid
370
35
62
0
0
LWPOLYLINE
5
26af
100
AcDbEntity
100
AcDbPolyline
90
5
70
1
10
6182.0
20
-3509.0
30
0.0
10
6153.0
20
-3569.0
30
0.0
10
6078.0
20
-3559.0
30
0.0
10
6096.0
20
-3498.0
30
0.0
10
6182.0
20
-3509.0
30
0.0
6
Solid
370
35
62
0
0
LWPOLYLINE
5
26b1
100
AcDbEntity
100
AcDbPolyline
90
5
70
1
10
2209.0
20
-5163.0
30
0.0
10
2142.0
20
-5158.0
30
0.0
10
2133.0
20
-5064.0
30
0.0
10
2215.0
20
-5073.0
30
0.0
10
2209.0
20
-5163.0
30
0.0
6
Solid
370
35
62
0
0
LWPOLYLINE
5
26b3
100
AcDbEntity
100
AcDbPolyline
90
5
70
1
10
2156.0
20
-4782.0
30
0.0
10
2156.0
20
-4845.0
30
0.0
10
2094.0
20
-4825.0
30
0.0
10
2102.0
20
-4782.0
30
0.0
10
2156.0
20
-4782.0
30
0.0
6
Solid
370
35
62
0
0
LWPOLYLINE
5
26b5
100
AcDbEntity
100
AcDbPolyline
90
5
70
1
10
1894.0
20
-4593.0
30
0.0
10
1889.0
20
-4658.0
30
0.0
10
1824.0
20
-4660.0
30
0.0
10
1815.0
20
-4593.0
30
0.0
10
1894.0
20
-4593.0
30
0.0
6
Solid
370
35
62
0
0
LWPOLYLINE
5
26b7
100
AcDbEntity
100
AcDbPolyline
90
5
70
1
10
1804.0
20
-3888.0
30
0.0
10
1774.0
20
-3957.0
30
0.0
10
1701.0
20
-3971.0
30
0.0
10
1702.0
20
-3884.0
30
0.0
10
1804.0
20
-3888.0
30
0.0
6
Solid
370
35
62
0
0
LWPOLYLINE
5
26ba
100
AcDbEntity
8
zone_0_q2
100
AcDbPolyline
90
40
70
1
10
4539.0
20
-1095.0
30
0.0
10
4559.0
20
-1235.0
30
0.0
10
4546.0
20
-1329.0
30
0.0
10
4422.0
20
-1373.0
30
0.0
10
4378.0
20
-1403.0
30
0.0
10
4184.0
20
-1436.0
30
0.0
10
3976.0
20
-1466.0
30
0.0
10
3842.0
20
-1373.0
30
0.0
10
3819.0
20
-1249.0
30
0.0
10
3796.0
20
-1145.0
30
0.0
10
3768.0
20
-1067.0
30
0.0
10
3794.0
20
-1070.0
30
0.0
10
3821.0
20
-1073.0
30
0.0
10
3848.0
20
-1074.0
30
0.0
10
3875.0
20
-1076.0
30
0.0
10
3903.0
20
-1077.0
30
0.0
10
3930.0
20
-1077.0
30
0.0
10
3957.0
20
-1077.0
30
0.0
10
3996.0
20
-1076.0
30
0.0
10
4035.0
20
-1074.0
30
0.0
10
4074.0
20
-1072.0
30
0.0
10
4113.0
20
-1068.0
30
0.0
10
4151.0
20
-1065.0
30
0.0
10
4189.0
20
-1062.0
30
0.0
10
4227.0
20
-1059.0
30
0.0
10
4263.0
20
-1057.0
30
0.0
10
4299.0
20
-1055.0
30
0.0
10
4335.0
20
-1052.0
30
0.0
10
4370.0
20
-1048.0
30
0.0
10
4405.0
20
-1043.0
30
0.0
10
4439.0
20
-1035.0
30
0.0
10
4474.0
20
-1024.0
30
0.0
10
4477.0
20
-1023.0
30
0.0
10
4481.0
20
-1021.0
30
0.0
10
4485.0
20
-1020.0
30
0.0
10
4489.0
20
-1018.0
30
0.0
10
4493.0
20
-1017.0
30
0.0
10
4497.0
20
-1015.0
30
0.0
10
4500.0
20
-1013.0
30
0.0
10
4539.0
20
-1095.0
30
0.0
6
Solid
370
35
62
2
0
LWPOLYLINE
5
26bd
100
AcDbEntity
8
zone_1_q3
100
AcDbPolyline
90
5
70
1
10
1345.0
20
-824.0
30
0.0
10
2017.0
20
-621.0
30
0.0
10
2136.0
20
-1434.0
30
0.0
10
1337.0
20
-1595.0
30
0.0
10
1345.0
20
-824.0
30
0.0
6
Solid
370
35
62
3
0
LWPOLYLINE
5
26c0
100
AcDbEntity
8
zone_2_q2
100
AcDbPolyline
90
10
70
1
10
390.0
20
-2014.0
30
0.0
10
521.0
20
-1921.0
30
0.0
10
599.0
20
-2007.0
30
0.0
10
682.0
20
-2131.0
30
0.0
10
662.0
20
-2286.0
30
0.0
10
509.0
20
-2479.0
30
0.0
10
311.0
20
-2584.0
30
0.0
10
115.0
20
-2578.0
30
0.0
10
365.0
20
-2255.0
30
0.0
10
390.0
20
-2014.0
30
0.0
6
Solid
370
35
62
2
0
LWPOLYLINE
5
26c3
100
AcDbEntity
8
zone_3_q3
100
AcDbPolyline
90
6
70
1
10
2004.0
20
-7342.0
30
0.0
10
2062.0
20
-7882.0
30
0.0
10
1512.0
20
-7988.0
30
0.0
10
1310.0
20
-8073.0
30
0.0
10
1448.0
20
-7322.0
30
0.0
10
2004.0
20
-7342.0
30
0.0
6
Solid
370
35
62
3
0
LWPOLYLINE
5
26c6
100
AcDbEntity
8
zone_4_q2
100
AcDbPolyline
90
17
70
1
10
2369.0
20
-7899.0
30
0.0
10
2453.0
20
-7662.0
30
0.0
10
2660.0
20
-7394.0
30
0.0
10
2808.0
20
-7296.0
30
0.0
10
3138.0
20
-7198.0
30
0.0
10
3390.0
20
-7240.0
30
0.0
10
3618.0
20
-7422.0
30
0.0
10
3726.0
20
-7537.0
30
0.0
10
3855.0
20
-7719.0
30
0.0
10
3693.0
20
-7755.0
30
0.0
10
3612.0
20
-7852.0
30
0.0
10
3530.0
20
-7944.0
30
0.0
10
3282.0
20
-8203.0
30
0.0
10
2819.0
20
-8193.0
30
0.0
10
2591.0
20
-8289.0
30
0.0
10
2241.0
20
-8076.0
30
0.0
10
2369.0
20
-7899.0
30
0.0
6
Solid
370
35
62
2
0
LWPOLYLINE
5
26c9
100
AcDbEntity
8
zone_5_q3
100
AcDbPolyline
90
5
70
1
10
6435.0
20
-6781.0
30
0.0
10
6550.0
20
-7559.0
30
0.0
10
5889.0
20
-7338.0
30
0.0
10
5724.0
20
-6821.0
30
0.0
10
6435.0
20
-6781.0
30
0.0
6
Solid
370
35
62
3
0
LWPOLYLINE
5
26cc
100
AcDbEntity
8
zone_6_q2
100
AcDbPolyline
90
5
70
1
10
6612.0
20
-425.0
30
0.0
10
6739.0
20
-1153.0
30
0.0
10
6264.0
20
-1279.0
30
0.0
10
6065.0
20
-577.0
30
0.0
10
6612.0
20
-425.0
30
0.0
6
Solid
370
35
62
2
0
ENDSEC
0
SECTION
2
OBJECTS
0
DICTIONARY
5
26a1
330
0
100
AcDbDictionary
281
1
3
ACAD_GROUP
350
26a2
0
DICTIONARY
5
26a2
330
26a1
100
AcDbDictionary
281
1
0
ENDSEC
0
EOF
