999

0
SECTION
2
HEADER
9
$ACADVER
1
AC1021
9
$HANDSEED
5
1d
0
ENDSEC
0
SECTION
2
CLASSES
0
ENDSEC
0
SECTION
2
TABLES
0
TABLE
2
VPORT
5
2
100
AcDbSymbolTable
70
1
0
VPORT
5
1
100
AcDbSymbolTableRecord
100
AcDbViewportTableRecord
2
*ACTIVE
10
0
20
0
11
1
21
1
12
500.0
22
500.0
40
1000.0
70
0
0
ENDTAB
0
TABLE
2
LTYPE
5
3
100
AcDbSymbolTable
70
3
0
LTYPE
5
b
100
AcDbSymbolTableRecord
100
AcDbLinetypeTableRecord
2
Solid
70
0
72
65
73
0
3

0
LTYPE
5
c
100
AcDbSymbolTableRecord
100
AcDbLinetypeTableRecord
2
ByBlock
70
0
72
65
73
0
3

0
LTYPE
5
d
100
AcDbSymbolTableRecord
100
AcDbLinetypeTableRecord
2
ByLayer
70
0
72
65
73
0
3

0
ENDTAB
0
TABLE
2
LAYER
5
4
100
AcDbSymbolTable
70
2
0
LAYER
5
e
100
AcDbSymbolTableRecord
100
AcDbLayerTableRecord
2
0
70
0
390
0
0
LAYER
5
1a
100
AcDbSymbolTableRecord
100
AcDbLayerTableRecord
2
zone_0_q4
70
0
390
0
0
ENDTAB
0
TABLE
2
STYLE
5
5
100
AcDbSymbolTable
70
0
0
ENDTAB
0
TABLE
2
VIEW
5
6
100
AcDbSymbolTable
70
0
0
ENDTAB
0
TABLE
2
UCS
5
7
100
AcDbSymbolTable
70
0
0
ENDTAB
0
TABLE
2
APPID
5
8
100
AcDbSymbolTable
70
1
0
APPID
5
f
100
AcDbSymbolTableRecord
100
AcDbRegAppTableRecord
2
ACAD
70
0
0
ENDTAB
0
TABLE
2
DIMSTYLE
5
9
100
AcDbSymbolTable
70
0
100
AcDbDimStyleTable
71
1
0
ENDTAB
0
TABLE
2
BLOCK_RECORD
5
a
100
AcDbSymbolTable
70
2
0
BLOCK_RECORD
5
10
100
AcDbSymbolTableRecord
100
AcDbBlockTableRecord
2
*Model_Space
70
0
280
1
281
0
0
BLOCK_RECORD
5
11
100
AcDbSymbolTableRecord
100
AcDbBlockTableRecord
2
*Paper_Space
70
0
280
1
281
0
0
ENDTAB
0
ENDSEC
0
SECTION
2
BLOCKS
0
BLOCK
5
12
100
AcDbEntity
100
AcDbBlockBegin
2
*Model_Space
70
0
10
0
20
0
30
0
3
*Model_Space
1

0
ENDBLK
5
13
100
AcDbEntity
100
AcDbBlockEnd
0
BLOCK
5
14
100
AcDbEntity
100
AcDbBlockBegin
2
*Paper_Space
70
0
10
0
20
0
30
0
3
*Paper_Space
1

0
ENDBLK
5
15
100
AcDbEntity
100
AcDbBlockEnd
0
ENDSEC
0
SECTION
2
ENTITIES
0
LWPOLYLINE
5
18
100
AcDbEntity
100
AcDbPolyline
90
104
70
1
10
10.0
20
-186.0
30
0.0
10
7.0
20
-180.0
30
0.0
10
5.0
20
-174.0
30
0.0
10
3.0
20
-169.0
30
0.0
10
2.0
20
-163.0
30
0.0
10
1.0
20
-158.0
30
0.0
10
0.0
20
-153.0
30
0.0
10
0.0
20
-147.0
30
0.0
10
0.0
20
-142.0
30
0.0
10
0.0
20
-137.0
30
0.0
10
1.0
20
-132.0
30
0.0
10
2.0
20
-128.0
30
0.0
10
3.0
20
-123.0
30
0.0
10
6.0
20
-117.0
30
0.0
10
36.0
20
-118.0
30
0.0
10
41.0
20
-118.0
30
0.0
10
44.0
20
-118.0
30
0.0
10
46.0
20
-117.0
30
0.0
10
47.0
20
-116.0
30
0.0
10
49.0
20
-114.0
30
0.0
10
50.0
20
-111.0
30
0.0
10
91.0
20
-106.0
30
0.0
10
98.0
20
-107.0
30
0.0
10
102.0
20
-107.0
30
0.0
10
104.0
20
-108.0
30
0.0
10
110.0
20
-107.0
30
0.0
10
110.0
20
-75.0
30
0.0
10
51.0
20
-75.0
30
0.0
10
51.0
20
-73.0
30
0.0
10
50.0
20
-71.0
30
0.0
10
49.0
20
-70.0
30
0.0
10
47.0
20
-69.0
30
0.0
10
46.0
20
-68.0
30
0.0
10
43.0
20
-68.0
30
0.0
10
38.0
20
-68.0
30
0.0
10
28.0
20
-68.0
30
0.0
10
7.0
20
-69.0
30
0.0
10
4.0
20
-63.0
30
0.0
10
2.0
20
-58.0
30
0.0
10
1.0
20
-53.0
30
0.0
10
0.0
20
-49.0
30
0.0
10
0.0
20
-44.0
30
0.0
10
0.0
20
-39.0
30
0.0
10
0.0
20
-33.0
30
0.0
10
0.0
20
-27.0
30
0.0
10
1.0
20
-22.0
30
0.0
10
3.0
20
-16.0
30
0.0
10
4.0
20
-10.0
30
0.0
10
6.0
20
-5.0
30
0.0
10
9.0
20
0.0
30
0.0
10
138.0
20
-5.0
30
0.0
10
151.0
20
-6.0
30
0.0
10
160.0
20
-7.0
30
0.0
10
168.0
20
-8.0
30
0.0
10
176.0
20
-10.0
30
0.0
10
187.0
20
-12.0
30
0.0
10
199.0
20
-15.0
30
0.0
10
213.0
20
-19.0
30
0.0
10
221.0
20
-22.0
30
0.0
10
231.0
20
-26.0
30
0.0
10
241.0
20
-30.0
30
0.0
10
250.0
20
-34.0
30
0.0
10
257.0
20
-38.0
30
0.0
10
263.0
20
-41.0
30
0.0
10
268.0
20
-45.0
30
0.0
10
273.0
20
-49.0
30
0.0
10
278.0
20
-53.0
30
0.0
10
282.0
20
-57.0
30
0.0
10
286.0
20
-61.0
30
0.0
10
288.0
20
-65.0
30
0.0
10
291.0
20
-68.0
30
0.0
10
293.0
20
-72.0
30
0.0
10
295.0
20
-76.0
30
0.0
10
296.0
20
-80.0
30
0.0
10
297.0
20
-84.0
30
0.0
10
297.0
20
-89.0
30
0.0
10
298.0
20
-94.0
30
0.0
10
298.0
20
-99.0
30
0.0
10
297.0
20
-103.0
30
0.0
10
297.0
20
-107.0
30
0.0
10
296.0
20
-110.0
30
0.0
10
294.0
20
-114.0
30
0.0
10
293.0
20
-118.0
30
0.0
10
290.0
20
-122.0
30
0.0
10
288.0
20
-125.0
30
0.0
10
285.0
20
-129.0
30
0.0
10
281.0
20
-133.0
30
0.0
10
277.0
20
-137.0
30
0.0
10
273.0
20
-141.0
30
0.0
10
268.0
20
-144.0
30
0.0
10
263.0
20
-147.0
30
0.0
10
257.0
20
-151.0
30
0.0
10
251.0
20
-154.0
30
0.0
10
243.0
20
-157.0
30
0.0
10
234.0
20
-161.0
30
0.0
10
225.0
20
-164.0
30
0.0
10
217.0
20
-166.0
30
0.0
10
208.0
20
-169.0
30
0.0
10
198.0
20
-171.0
30
0.0
10
186.0
20
-173.0
30
0.0
10
178.0
20
-174.0
30
0.0
10
168.0
20
-175.0
30
0.0
10
149.0
20
-177.0
30
0.0
10
10.0
20
-186.0
30
0.0
6
Solid
370
35
62
2
0
LWPOLYLINE
5
1b
100
AcDbEntity
8
zone_0_q4
100
AcDbPolyline
90
51
70
1
10
158.0
20
-40.0
30
0.0
10
176.0
20
-40.0
30
0.0
10
195.0
20
-42.0
30
0.0
10
210.0
20
-45.0
30
0.0
10
224.0
20
-48.0
30
0.0
10
237.0
20
-52.0
30
0.0
10
247.0
20
-55.0
30
0.0
10
253.0
20
-58.0
30
0.0
10
259.0
20
-61.0
30
0.0
10
264.0
20
-65.0
30
0.0
10
268.0
20
-70.0
30
0.0
10
272.0
20
-76.0
30
0.0
10
275.0
20
-81.0
30
0.0
10
276.0
20
-86.0
30
0.0
10
277.0
20
-91.0
30
0.0
10
277.0
20
-100.0
30
0.0
10
276.0
20
-105.0
30
0.0
10
274.0
20
-111.0
30
0.0
10
271.0
20
-116.0
30
0.0
10
269.0
20
-120.0
30
0.0
10
265.0
20
-124.0
30
0.0
10
260.0
20
-128.0
30
0.0
10
254.0
20
-130.0
30
0.0
10
248.0
20
-133.0
30
0.0
10
238.0
20
-136.0
30
0.0
10
219.0
20
-140.0
30
0.0
10
197.0
20
-144.0
30
0.0
10
164.0
20
-148.0
30
0.0
10
151.0
20
-137.0
30
0.0
10
136.0
20
-137.0
30
0.0
10
126.0
20
-136.0
30
0.0
10
121.0
20
-135.0
30
0.0
10
119.0
20
-134.0
30
0.0
10
117.0
20
-133.0
30
0.0
10
115.0
20
-131.0
30
0.0
10
114.0
20
-129.0
30
0.0
10
113.0
20
-127.0
30
0.0
10
112.0
20
-123.0
30
0.0
10
111.0
20
-115.0
30
0.0
10
110.0
20
-107.0
30
0.0
10
110.0
20
-75.0
30
0.0
10
111.0
20
-71.0
30
0.0
10
113.0
20
-64.0
30
0.0
10
114.0
20
-61.0
30
0.0
10
116.0
20
-58.0
30
0.0
10
119.0
20
-57.0
30
0.0
10
122.0
20
-55.0
30
0.0
10
126.0
20
-54.0
30
0.0
10
133.0
20
-54.0
30
0.0
10
153.0
20
-54.0
30
0.0
10
158.0
20
-40.0
30
0.0
6
Solid
370
35
62
5
0
ENDSEC
0
SECTION
2
OBJECTS
0
DICTIONARY
5
16
330
0
100
AcDbDictionary
281
1
3
ACAD_GROUP
350
17
0
DICTIONARY
5
17
330
16
100
AcDbDictionary
281
1
0
ENDSEC
0
EOF
