999

0
SECTION
2
HEADER
9
$ACADVER
1
AC1021
9
$HANDSEED
5
bf1
0
ENDSEC
0
SECTION
2
CLASSES
0
ENDSEC
0
SECTION
2
TABLES
0
TABLE
2
VPORT
5
bd9
100
AcDbSymbolTable
70
1
0
VPORT
5
bd8
100
AcDbSymbolTableRecord
100
AcDbViewportTableRecord
2
*ACTIVE
10
0
20
0
11
1
21
1
12
500.0
22
500.0
40
1000.0
70
0
0
ENDTAB
0
TABLE
2
LTYPE
5
bda
100
AcDbSymbolTable
70
3
0
LTYPE
5
be2
100
AcDbSymbolTableRecord
100
AcDbLinetypeTableRecord
2
Solid
70
0
72
65
73
0
3

0
LTYPE
5
be3
100
AcDbSymbolTableRecord
100
AcDbLinetypeTableRecord
2
ByBlock
70
0
72
65
73
0
3

0
LTYPE
5
be4
100
AcDbSymbolTableRecord
100
AcDbLinetypeTableRecord
2
ByLayer
70
0
72
65
73
0
3

0
ENDTAB
0
TABLE
2
LAYER
5
bdb
100
AcDbSymbolTable
70
1
0
LAYER
5
be5
100
AcDbSymbolTableRecord
100
AcDbLayerTableRecord
2
0
70
0
390
0
0
ENDTAB
0
TABLE
2
STYLE
5
bdc
100
AcDbSymbolTable
70
0
0
ENDTAB
0
TABLE
2
VIEW
5
bdd
100
AcDbSymbolTable
70
0
0
ENDTAB
0
TABLE
2
UCS
5
bde
100
AcDbSymbolTable
70
0
0
ENDTAB
0
TABLE
2
APPID
5
bdf
100
AcDbSymbolTable
70
1
0
APPID
5
be6
100
AcDbSymbolTableRecord
100
AcDbRegAppTableRecord
2
ACAD
70
0
0
ENDTAB
0
TABLE
2
DIMSTYLE
5
be0
100
AcDbSymbolTable
70
0
100
AcDbDimStyleTable
71
1
0
ENDTAB
0
TABLE
2
BLOCK_RECORD
5
be1
100
AcDbSymbolTable
70
2
0
BLOCK_RECORD
5
be7
100
AcDbSymbolTableRecord
100
AcDbBlockTableRecord
2
*Model_Space
70
0
280
1
281
0
0
BLOCK_RECORD
5
be8
100
AcDbSymbolTableRecord
100
AcDbBlockTableRecord
2
*Paper_Space
70
0
280
1
281
0
0
ENDTAB
0
ENDSEC
0
SECTION
2
BLOCKS
0
BLOCK
5
be9
100
AcDbEntity
100
AcDbBlockBegin
2
*Model_Space
70
0
10
0
20
0
30
0
3
*Model_Space
1

0
ENDBLK
5
bea
100
AcDbEntity
100
AcDbBlockEnd
0
BLOCK
5
beb
100
AcDbEntity
100
AcDbBlockBegin
2
*Paper_Space
70
0
10
0
20
0
30
0
3
*Paper_Space
1

0
ENDBLK
5
bec
100
AcDbEntity
100
AcDbBlockEnd
0
ENDSEC
0
SECTION
2
ENTITIES
0
LWPOLYLINE
5
bef
100
AcDbEntity
100
AcDbPolyline
90
75
70
1
10
1645.0
20
-21.0
30
0.0
10
1658.0
20
-53.0
30
0.0
10
1679.0
20
-102.0
30
0.0
10
1710.0
20
-163.0
30
0.0
10
1750.0
20
-232.0
30
0.0
10
1799.0
20
-305.0
30
0.0
10
1857.0
20
-378.0
30
0.0
10
1917.0
20
-439.0
30
0.0
10
1980.0
20
-496.0
30
0.0
10
2041.0
20
-545.0
30
0.0
10
2097.0
20
-587.0
30
0.0
10
2143.0
20
-618.0
30
0.0
10
2173.0
20
-638.0
30
0.0
10
2185.0
20
-645.0
30
0.0
10
2196.0
20
-653.0
30
0.0
10
2230.0
20
-677.0
30
0.0
10
2285.0
20
-715.0
30
0.0
10
2360.0
20
-766.0
30
0.0
10
2454.0
20
-828.0
30
0.0
10
2567.0
20
-900.0
30
0.0
10
2697.0
20
-980.0
30
0.0
10
2770.0
20
-1025.0
30
0.0
10
2848.0
20
-1071.0
30
0.0
10
2929.0
20
-1119.0
30
0.0
10
3014.0
20
-1169.0
30
0.0
10
3101.0
20
-1221.0
30
0.0
10
3191.0
20
-1275.0
30
0.0
10
3282.0
20
-1330.0
30
0.0
10
3647.0
20
-1558.0
30
0.0
10
4013.0
20
-1796.0
30
0.0
10
4362.0
20
-2029.0
30
0.0
10
4670.0
20
-2238.0
30
0.0
10
4916.0
20
-2408.0
30
0.0
10
5080.0
20
-2522.0
30
0.0
10
5139.0
20
-2564.0
30
0.0
10
5132.0
20
-2566.0
30
0.0
10
5112.0
20
-2575.0
30
0.0
10
5082.0
20
-2588.0
30
0.0
10
5043.0
20
-2606.0
30
0.0
10
4999.0
20
-2628.0
30
0.0
10
4950.0
20
-2655.0
30
0.0
10
4901.0
20
-2686.0
30
0.0
10
4856.0
20
-2717.0
30
0.0
10
4812.0
20
-2751.0
30
0.0
10
4771.0
20
-2789.0
30
0.0
10
4731.0
20
-2830.0
30
0.0
10
4695.0
20
-2876.0
30
0.0
10
4662.0
20
-2926.0
30
0.0
10
4633.0
20
-2981.0
30
0.0
10
4606.0
20
-3046.0
30
0.0
10
4584.0
20
-3114.0
30
0.0
10
4567.0
20
-3179.0
30
0.0
10
4554.0
20
-3237.0
30
0.0
10
4546.0
20
-3284.0
30
0.0
10
4541.0
20
-3316.0
30
0.0
10
4540.0
20
-3327.0
30
0.0
10
4539.0
20
-3333.0
30
0.0
10
4536.0
20
-3350.0
30
0.0
10
4533.0
20
-3377.0
30
0.0
10
4528.0
20
-3412.0
30
0.0
10
4523.0
20
-3454.0
30
0.0
10
4518.0
20
-3503.0
30
0.0
10
4514.0
20
-3557.0
30
0.0
10
4506.0
20
-3679.0
30
0.0
10
4502.0
20
-3808.0
30
0.0
10
4500.0
20
-3935.0
30
0.0
10
4499.0
20
-4050.0
30
0.0
10
4499.0
20
-4143.0
30
0.0
10
4500.0
20
-4206.0
30
0.0
10
4500.0
20
-4229.0
30
0.0
10
10.0
20
-4232.0
30
0.0
10
3.0
20
-2720.0
30
0.0
10
0.0
20
0.0
30
0.0
10
1640.0
20
-9.0
30
0.0
10
1645.0
20
-21.0
30
0.0
6
Solid
370
35
62
0
0
ENDSEC
0
SECTION
2
OBJECTS
0
DICTIONARY
5
bed
330
0
100
AcDbDictionary
281
1
3
ACAD_GROUP
350
bee
0
DICTIONARY
5
bee
330
bed
100
AcDbDictionary
281
1
0
ENDSEC
0
EOF
