999

0
SECTION
2
HEADER
9
$ACADVER
1
AC1021
9
$HANDSEED
5
c0a
0
ENDSEC
0
SECTION
2
CLASSES
0
ENDSEC
0
SECTION
2
TABLES
0
TABLE
2
VPORT
5
bf2
100
AcDbSymbolTable
70
1
0
VPORT
5
bf1
100
AcDbSymbolTableRecord
100
AcDbViewportTableRecord
2
*ACTIVE
10
0
20
0
11
1
21
1
12
500.0
22
500.0
40
1000.0
70
0
0
ENDTAB
0
TABLE
2
LTYPE
5
bf3
100
AcDbSymbolTable
70
3
0
LTYPE
5
bfb
100
AcDbSymbolTableRecord
100
AcDbLinetypeTableRecord
2
Solid
70
0
72
65
73
0
3

0
LTYPE
5
bfc
100
AcDbSymbolTableRecord
100
AcDbLinetypeTableRecord
2
ByBlock
70
0
72
65
73
0
3

0
LTYPE
5
bfd
100
AcDbSymbolTableRecord
100
AcDbLinetypeTableRecord
2
ByLayer
70
0
72
65
73
0
3

0
ENDTAB
0
TABLE
2
LAYER
5
bf4
100
AcDbSymbolTable
70
1
0
LAYER
5
bfe
100
AcDbSymbolTableRecord
100
AcDbLayerTableRecord
2
0
70
0
390
0
0
ENDTAB
0
TABLE
2
STYLE
5
bf5
100
AcDbSymbolTable
70
0
0
ENDTAB
0
TABLE
2
VIEW
5
bf6
100
AcDbSymbolTable
70
0
0
ENDTAB
0
TABLE
2
UCS
5
bf7
100
AcDbSymbolTable
70
0
0
ENDTAB
0
TABLE
2
APPID
5
bf8
100
AcDbSymbolTable
70
1
0
APPID
5
bff
100
AcDbSymbolTableRecord
100
AcDbRegAppTableRecord
2
ACAD
70
0
0
ENDTAB
0
TABLE
2
DIMSTYLE
5
bf9
100
AcDbSymbolTable
70
0
100
AcDbDimStyleTable
71
1
0
ENDTAB
0
TABLE
2
BLOCK_RECORD
5
bfa
100
AcDbSymbolTable
70
2
0
BLOCK_RECORD
5
c00
100
AcDbSymbolTableRecord
100
AcDbBlockTableRecord
2
*Model_Space
70
0
280
1
281
0
0
BLOCK_RECORD
5
c01
100
AcDbSymbolTableRecord
100
AcDbBlockTableRecord
2
*Paper_Space
70
0
280
1
281
0
0
ENDTAB
0
ENDSEC
0
SECTION
2
BLOCKS
0
BLOCK
5
c02
100
AcDbEntity
100
AcDbBlockBegin
2
*Model_Space
70
0
10
0
20
0
30
0
3
*Model_Space
1

0
ENDBLK
5
c03
100
AcDbEntity
100
AcDbBlockEnd
0
BLOCK
5
c04
100
AcDbEntity
100
AcDbBlockBegin
2
*Paper_Space
70
0
10
0
20
0
30
0
3
*Paper_Space
1

0
ENDBLK
5
c05
100
AcDbEntity
100
AcDbBlockEnd
0
ENDSEC
0
SECTION
2
ENTITIES
0
LWPOLYLINE
5
c08
100
AcDbEntity
100
AcDbPolyline
90
120
70
1
10
2036.0
20
-4405.0
30
0.0
10
1997.0
20
-4276.0
30
0.0
10
1935.0
20
-4076.0
30
0.0
10
1851.0
20
-3818.0
30
0.0
10
1746.0
20
-3515.0
30
0.0
10
1624.0
20
-3177.0
30
0.0
10
1485.0
20
-2819.0
30
0.0
10
1433.0
20
-2692.0
30
0.0
10
1380.0
20
-2565.0
30
0.0
10
1326.0
20
-2439.0
30
0.0
10
1271.0
20
-2316.0
30
0.0
10
1216.0
20
-2198.0
30
0.0
10
1161.0
20
-2085.0
30
0.0
10
1106.0
20
-1978.0
30
0.0
10
1024.0
20
-1829.0
30
0.0
10
946.0
20
-1701.0
30
0.0
10
877.0
20
-1593.0
30
0.0
10
818.0
20
-1508.0
30
0.0
10
772.0
20
-1445.0
30
0.0
10
743.0
20
-1407.0
30
0.0
10
732.0
20
-1394.0
30
0.0
10
726.0
20
-1386.0
30
0.0
10
707.0
20
-1365.0
30
0.0
10
678.0
20
-1332.0
30
0.0
10
640.0
20
-1291.0
30
0.0
10
594.0
20
-1244.0
30
0.0
10
542.0
20
-1195.0
30
0.0
10
484.0
20
-1146.0
30
0.0
10
392.0
20
-1076.0
30
0.0
10
297.0
20
-1014.0
30
0.0
10
206.0
20
-961.0
30
0.0
10
125.0
20
-917.0
30
0.0
10
60.0
20
-884.0
30
0.0
10
16.0
20
-864.0
30
0.0
10
0.0
20
-857.0
30
0.0
10
3.0
20
-848.0
30
0.0
10
10.0
20
-824.0
30
0.0
10
21.0
20
-787.0
30
0.0
10
36.0
20
-738.0
30
0.0
10
53.0
20
-680.0
30
0.0
10
74.0
20
-614.0
30
0.0
10
96.0
20
-543.0
30
0.0
10
122.0
20
-459.0
30
0.0
10
148.0
20
-376.0
30
0.0
10
173.0
20
-298.0
30
0.0
10
195.0
20
-229.0
30
0.0
10
213.0
20
-174.0
30
0.0
10
225.0
20
-137.0
30
0.0
10
229.0
20
-124.0
30
0.0
10
240.0
20
-124.0
30
0.0
10
272.0
20
-123.0
30
0.0
10
322.0
20
-121.0
30
0.0
10
389.0
20
-119.0
30
0.0
10
470.0
20
-116.0
30
0.0
10
564.0
20
-113.0
30
0.0
10
669.0
20
-109.0
30
0.0
10
828.0
20
-103.0
30
0.0
10
992.0
20
-96.0
30
0.0
10
1151.0
20
-89.0
30
0.0
10
1294.0
20
-83.0
30
0.0
10
1409.0
20
-78.0
30
0.0
10
1487.0
20
-75.0
30
0.0
10
1515.0
20
-73.0
30
0.0
10
1632.0
20
-69.0
30
0.0
10
1936.0
20
-59.0
30
0.0
10
2351.0
20
-44.0
30
0.0
10
2804.0
20
-29.0
30
0.0
10
3219.0
20
-15.0
30
0.0
10
3523.0
20
-4.0
30
0.0
10
3640.0
20
0.0
30
0.0
10
3640.0
20
-9.0
30
0.0
10
3639.0
20
-36.0
30
0.0
10
3637.0
20
-79.0
30
0.0
10
3636.0
20
-138.0
30
0.0
10
3635.0
20
-212.0
30
0.0
10
3635.0
20
-300.0
30
0.0
10
3636.0
20
-400.0
30
0.0
10
3638.0
20
-477.0
30
0.0
10
3640.0
20
-559.0
30
0.0
10
3643.0
20
-646.0
30
0.0
10
3647.0
20
-738.0
30
0.0
10
3651.0
20
-833.0
30
0.0
10
3656.0
20
-932.0
30
0.0
10
3660.0
20
-1034.0
30
0.0
10
3669.0
20
-1229.0
30
0.0
10
3676.0
20
-1432.0
30
0.0
10
3678.0
20
-1639.0
30
0.0
10
3673.0
20
-1850.0
30
0.0
10
3659.0
20
-2063.0
30
0.0
10
3631.0
20
-2275.0
30
0.0
10
3589.0
20
-2486.0
30
0.0
10
3535.0
20
-2677.0
30
0.0
10
3469.0
20
-2864.0
30
0.0
10
3394.0
20
-3047.0
30
0.0
10
3313.0
20
-3224.0
30
0.0
10
3229.0
20
-3395.0
30
0.0
10
3145.0
20
-3559.0
30
0.0
10
3064.0
20
-3716.0
30
0.0
10
2958.0
20
-3928.0
30
0.0
10
2865.0
20
-4118.0
30
0.0
10
2786.0
20
-4283.0
30
0.0
10
2723.0
20
-4419.0
30
0.0
10
2677.0
20
-4521.0
30
0.0
10
2648.0
20
-4586.0
30
0.0
10
2639.0
20
-4608.0
30
0.0
10
2630.0
20
-4604.0
30
0.0
10
2606.0
20
-4595.0
30
0.0
10
2569.0
20
-4580.0
30
0.0
10
2522.0
20
-4562.0
30
0.0
10
2469.0
20
-4543.0
30
0.0
10
2411.0
20
-4524.0
30
0.0
10
2352.0
20
-4506.0
30
0.0
10
2285.0
20
-4489.0
30
0.0
10
2222.0
20
-4475.0
30
0.0
10
2166.0
20
-4465.0
30
0.0
10
2118.0
20
-4458.0
30
0.0
10
2081.0
20
-4454.0
30
0.0
10
2057.0
20
-4451.0
30
0.0
10
2049.0
20
-4450.0
30
0.0
10
2036.0
20
-4405.0
30
0.0
6
Solid
370
35
62
0
0
ENDSEC
0
SECTION
2
OBJECTS
0
DICTIONARY
5
c06
330
0
100
AcDbDictionary
281
1
3
ACAD_GROUP
350
c07
0
DICTIONARY
5
c07
330
c06
100
AcDbDictionary
281
1
0
ENDSEC
0
EOF
