999

0
SECTION
2
HEADER
9
$ACADVER
1
AC1021
9
$HANDSEED
5
cb9
0
ENDSEC
0
SECTION
2
CLASSES
0
ENDSEC
0
SECTION
2
TABLES
0
TABLE
2
VPORT
5
ca1
100
AcDbSymbolTable
70
1
0
VPORT
5
ca0
100
AcDbSymbolTableRecord
100
AcDbViewportTableRecord
2
*ACTIVE
10
0
20
0
11
1
21
1
12
500.0
22
500.0
40
1000.0
70
0
0
ENDTAB
0
TABLE
2
LTYPE
5
ca2
100
AcDbSymbolTable
70
3
0
LTYPE
5
caa
100
AcDbSymbolTableRecord
100
AcDbLinetypeTableRecord
2
Solid
70
0
72
65
73
0
3

0
LTYPE
5
cab
100
AcDbSymbolTableRecord
100
AcDbLinetypeTableRecord
2
ByBlock
70
0
72
65
73
0
3

0
LTYPE
5
cac
100
AcDbSymbolTableRecord
100
AcDbLinetypeTableRecord
2
ByLayer
70
0
72
65
73
0
3

0
ENDTAB
0
TABLE
2
LAYER
5
ca3
100
AcDbSymbolTable
70
1
0
LAYER
5
cad
100
AcDbSymbolTableRecord
100
AcDbLayerTableRecord
2
0
70
0
390
0
0
ENDTAB
0
TABLE
2
STYLE
5
ca4
100
AcDbSymbolTable
70
0
0
ENDTAB
0
TABLE
2
VIEW
5
ca5
100
AcDbSymbolTable
70
0
0
ENDTAB
0
TABLE
2
UCS
5
ca6
100
AcDbSymbolTable
70
0
0
ENDTAB
0
TABLE
2
APPID
5
ca7
100
AcDbSymbolTable
70
1
0
APPID
5
cae
100
AcDbSymbolTableRecord
100
AcDbRegAppTableRecord
2
ACAD
70
0
0
ENDTAB
0
TABLE
2
DIMSTYLE
5
ca8
100
AcDbSymbolTable
70
0
100
AcDbDimStyleTable
71
1
0
ENDTAB
0
TABLE
2
BLOCK_RECORD
5
ca9
100
AcDbSymbolTable
70
2
0
BLOCK_RECORD
5
caf
100
AcDbSymbolTableRecord
100
AcDbBlockTableRecord
2
*Model_Space
70
0
280
1
281
0
0
BLOCK_RECORD
5
cb0
100
AcDbSymbolTableRecord
100
AcDbBlockTableRecord
2
*Paper_Space
70
0
280
1
281
0
0
ENDTAB
0
ENDSEC
0
SECTION
2
BLOCKS
0
BLOCK
5
cb1
100
AcDbEntity
100
AcDbBlockBegin
2
*Model_Space
70
0
10
0
20
0
30
0
3
*Model_Space
1

0
ENDBLK
5
cb2
100
AcDbEntity
100
AcDbBlockEnd
0
BLOCK
5
cb3
100
AcDbEntity
100
AcDbBlockBegin
2
*Paper_Space
70
0
10
0
20
0
30
0
3
*Paper_Space
1

0
ENDBLK
5
cb4
100
AcDbEntity
100
AcDbBlockEnd
0
ENDSEC
0
SECTION
2
ENTITIES
0
LWPOLYLINE
5
cb7
100
AcDbEntity
100
AcDbPolyline
90
108
70
1
10
815.0
20
-18.0
30
0.0
10
831.0
20
-70.0
30
0.0
10
857.0
20
-148.0
30
0.0
10
895.0
20
-247.0
30
0.0
10
944.0
20
-360.0
30
0.0
10
1007.0
20
-483.0
30
0.0
10
1081.0
20
-608.0
30
0.0
10
1180.0
20
-745.0
30
0.0
10
1287.0
20
-873.0
30
0.0
10
1393.0
20
-988.0
30
0.0
10
1491.0
20
-1086.0
30
0.0
10
1571.0
20
-1161.0
30
0.0
10
1625.0
20
-1210.0
30
0.0
10
1645.0
20
-1227.0
30
0.0
10
1655.0
20
-1235.0
30
0.0
10
1683.0
20
-1257.0
30
0.0
10
1728.0
20
-1290.0
30
0.0
10
1790.0
20
-1332.0
30
0.0
10
1868.0
20
-1380.0
30
0.0
10
1962.0
20
-1431.0
30
0.0
10
2069.0
20
-1482.0
30
0.0
10
2178.0
20
-1526.0
30
0.0
10
2296.0
20
-1568.0
30
0.0
10
2423.0
20
-1609.0
30
0.0
10
2557.0
20
-1647.0
30
0.0
10
2696.0
20
-1684.0
30
0.0
10
2839.0
20
-1720.0
30
0.0
10
2985.0
20
-1755.0
30
0.0
10
3332.0
20
-1831.0
30
0.0
10
3670.0
20
-1901.0
30
0.0
10
3983.0
20
-1961.0
30
0.0
10
4254.0
20
-2011.0
30
0.0
10
4469.0
20
-2048.0
30
0.0
10
4609.0
20
-2072.0
30
0.0
10
4660.0
20
-2080.0
30
0.0
10
4655.0
20
-2091.0
30
0.0
10
4642.0
20
-2120.0
30
0.0
10
4623.0
20
-2164.0
30
0.0
10
4603.0
20
-2219.0
30
0.0
10
4583.0
20
-2282.0
30
0.0
10
4568.0
20
-2349.0
30
0.0
10
4559.0
20
-2416.0
30
0.0
10
4558.0
20
-2469.0
30
0.0
10
4562.0
20
-2519.0
30
0.0
10
4569.0
20
-2562.0
30
0.0
10
4578.0
20
-2599.0
30
0.0
10
4586.0
20
-2627.0
30
0.0
10
4593.0
20
-2645.0
30
0.0
10
4595.0
20
-2651.0
30
0.0
10
4589.0
20
-2655.0
30
0.0
10
4570.0
20
-2665.0
30
0.0
10
4541.0
20
-2681.0
30
0.0
10
4504.0
20
-2702.0
30
0.0
10
4459.0
20
-2726.0
30
0.0
10
4409.0
20
-2753.0
30
0.0
10
4355.0
20
-2781.0
30
0.0
10
4265.0
20
-2828.0
30
0.0
10
4169.0
20
-2876.0
30
0.0
10
4070.0
20
-2925.0
30
0.0
10
3967.0
20
-2975.0
30
0.0
10
3862.0
20
-3027.0
30
0.0
10
3755.0
20
-3080.0
30
0.0
10
3648.0
20
-3133.0
30
0.0
10
3546.0
20
-3186.0
30
0.0
10
3444.0
20
-3238.0
30
0.0
10
3343.0
20
-3290.0
30
0.0
10
3244.0
20
-3340.0
30
0.0
10
3146.0
20
-3389.0
30
0.0
10
3050.0
20
-3435.0
30
0.0
10
2957.0
20
-3478.0
30
0.0
10
2838.0
20
-3530.0
30
0.0
10
2720.0
20
-3575.0
30
0.0
10
2600.0
20
-3613.0
30
0.0
10
2476.0
20
-3646.0
30
0.0
10
2343.0
20
-3674.0
30
0.0
10
2200.0
20
-3696.0
30
0.0
10
2042.0
20
-3714.0
30
0.0
10
1897.0
20
-3725.0
30
0.0
10
1742.0
20
-3734.0
30
0.0
10
1581.0
20
-3740.0
30
0.0
10
1414.0
20
-3744.0
30
0.0
10
1246.0
20
-3746.0
30
0.0
10
1078.0
20
-3747.0
30
0.0
10
913.0
20
-3748.0
30
0.0
10
706.0
20
-3747.0
30
0.0
10
515.0
20
-3746.0
30
0.0
10
346.0
20
-3745.0
30
0.0
10
203.0
20
-3743.0
30
0.0
10
94.0
20
-3742.0
30
0.0
10
25.0
20
-3740.0
30
0.0
10
0.0
20
-3740.0
30
0.0
10
17.0
20
-2660.0
30
0.0
10
58.0
20
-260.0
30
0.0
10
68.0
20
-257.0
30
0.0
10
98.0
20
-247.0
30
0.0
10
144.0
20
-232.0
30
0.0
10
203.0
20
-213.0
30
0.0
10
272.0
20
-190.0
30
0.0
10
347.0
20
-165.0
30
0.0
10
426.0
20
-138.0
30
0.0
10
507.0
20
-109.0
30
0.0
10
586.0
20
-82.0
30
0.0
10
657.0
20
-56.0
30
0.0
10
719.0
20
-33.0
30
0.0
10
767.0
20
-16.0
30
0.0
10
799.0
20
-4.0
30
0.0
10
810.0
20
0.0
30
0.0
10
815.0
20
-18.0
30
0.0
6
Solid
370
35
62
0
0
ENDSEC
0
SECTION
2
OBJECTS
0
DICTIONARY
5
cb5
330
0
100
AcDbDictionary
281
1
3
ACAD_GROUP
350
cb6
0
DICTIONARY
5
cb6
330
cb5
100
AcDbDictionary
281
1
0
ENDSEC
0
EOF
