999

0
SECTION
2
HEADER
9
$ACADVER
1
AC1021
9
$HANDSEED
5
d1d
0
ENDSEC
0
SECTION
2
CLASSES
0
ENDSEC
0
SECTION
2
TABLES
0
TABLE
2
VPORT
5
d05
100
AcDbSymbolTable
70
1
0
VPORT
5
d04
100
AcDbSymbolTableRecord
100
AcDbViewportTableRecord
2
*ACTIVE
10
0
20
0
11
1
21
1
12
500.0
22
500.0
40
1000.0
70
0
0
ENDTAB
0
TABLE
2
LTYPE
5
d06
100
AcDbSymbolTable
70
3
0
LTYPE
5
d0e
100
AcDbSymbolTableRecord
100
AcDbLinetypeTableRecord
2
Solid
70
0
72
65
73
0
3

0
LTYPE
5
d0f
100
AcDbSymbolTableRecord
100
AcDbLinetypeTableRecord
2
ByBlock
70
0
72
65
73
0
3

0
LTYPE
5
d10
100
AcDbSymbolTableRecord
100
AcDbLinetypeTableRecord
2
ByLayer
70
0
72
65
73
0
3

0
ENDTAB
0
TABLE
2
LAYER
5
d07
100
AcDbSymbolTable
70
1
0
LAYER
5
d11
100
AcDbSymbolTableRecord
100
AcDbLayerTableRecord
2
0
70
0
390
0
0
ENDTAB
0
TABLE
2
STYLE
5
d08
100
AcDbSymbolTable
70
0
0
ENDTAB
0
TABLE
2
VIEW
5
d09
100
AcDbSymbolTable
70
0
0
ENDTAB
0
TABLE
2
UCS
5
d0a
100
AcDbSymbolTable
70
0
0
ENDTAB
0
TABLE
2
APPID
5
d0b
100
AcDbSymbolTable
70
1
0
APPID
5
d12
100
AcDbSymbolTableRecord
100
AcDbRegAppTableRecord
2
ACAD
70
0
0
ENDTAB
0
TABLE
2
DIMSTYLE
5
d0c
100
AcDbSymbolTable
70
0
100
AcDbDimStyleTable
71
1
0
ENDTAB
0
TABLE
2
BLOCK_RECORD
5
d0d
100
AcDbSymbolTable
70
2
0
BLOCK_RECORD
5
d13
100
AcDbSymbolTableRecord
100
AcDbBlockTableRecord
2
*Model_Space
70
0
280
1
281
0
0
BLOCK_RECORD
5
d14
100
AcDbSymbolTableRecord
100
AcDbBlockTableRecord
2
*Paper_Space
70
0
280
1
281
0
0
ENDTAB
0
ENDSEC
0
SECTION
2
BLOCKS
0
BLOCK
5
d15
100
AcDbEntity
100
AcDbBlockBegin
2
*Model_Space
70
0
10
0
20
0
30
0
3
*Model_Space
1

0
ENDBLK
5
d16
100
AcDbEntity
100
AcDbBlockEnd
0
BLOCK
5
d17
100
AcDbEntity
100
AcDbBlockBegin
2
*Paper_Space
70
0
10
0
20
0
30
0
3
*Paper_Space
1

0
ENDBLK
5
d18
100
AcDbEntity
100
AcDbBlockEnd
0
ENDSEC
0
SECTION
2
ENTITIES
0
LWPOLYLINE
5
d1b
100
AcDbEntity
100
AcDbPolyline
90
120
70
1
10
1621.0
20
-4451.0
30
0.0
10
1597.0
20
-4454.0
30
0.0
10
1561.0
20
-4458.0
30
0.0
10
1513.0
20
-4465.0
30
0.0
10
1456.0
20
-4475.0
30
0.0
10
1393.0
20
-4489.0
30
0.0
10
1326.0
20
-4506.0
30
0.0
10
1267.0
20
-4524.0
30
0.0
10
1209.0
20
-4543.0
30
0.0
10
1156.0
20
-4562.0
30
0.0
10
1109.0
20
-4580.0
30
0.0
10
1072.0
20
-4595.0
30
0.0
10
1048.0
20
-4604.0
30
0.0
10
1040.0
20
-4608.0
30
0.0
10
1030.0
20
-4586.0
30
0.0
10
1001.0
20
-4521.0
30
0.0
10
955.0
20
-4419.0
30
0.0
10
892.0
20
-4283.0
30
0.0
10
814.0
20
-4118.0
30
0.0
10
721.0
20
-3928.0
30
0.0
10
614.0
20
-3716.0
30
0.0
10
533.0
20
-3559.0
30
0.0
10
449.0
20
-3395.0
30
0.0
10
365.0
20
-3224.0
30
0.0
10
284.0
20
-3047.0
30
0.0
10
209.0
20
-2864.0
30
0.0
10
143.0
20
-2677.0
30
0.0
10
89.0
20
-2486.0
30
0.0
10
47.0
20
-2275.0
30
0.0
10
20.0
20
-2063.0
30
0.0
10
5.0
20
-1850.0
30
0.0
10
0.0
20
-1639.0
30
0.0
10
2.0
20
-1432.0
30
0.0
10
9.0
20
-1229.0
30
0.0
10
18.0
20
-1034.0
30
0.0
10
23.0
20
-932.0
30
0.0
10
27.0
20
-833.0
30
0.0
10
31.0
20
-738.0
30
0.0
10
35.0
20
-646.0
30
0.0
10
38.0
20
-559.0
30
0.0
10
41.0
20
-477.0
30
0.0
10
43.0
20
-400.0
30
0.0
10
44.0
20
-300.0
30
0.0
10
44.0
20
-212.0
30
0.0
10
43.0
20
-138.0
30
0.0
10
41.0
20
-79.0
30
0.0
10
40.0
20
-36.0
30
0.0
10
38.0
20
-9.0
30
0.0
10
38.0
20
0.0
30
0.0
10
156.0
20
-4.0
30
0.0
10
459.0
20
-15.0
30
0.0
10
875.0
20
-29.0
30
0.0
10
1327.0
20
-44.0
30
0.0
10
1742.0
20
-59.0
30
0.0
10
2046.0
20
-69.0
30
0.0
10
2164.0
20
-73.0
30
0.0
10
2192.0
20
-75.0
30
0.0
10
2269.0
20
-78.0
30
0.0
10
2385.0
20
-83.0
30
0.0
10
2527.0
20
-89.0
30
0.0
10
2686.0
20
-96.0
30
0.0
10
2851.0
20
-103.0
30
0.0
10
3009.0
20
-109.0
30
0.0
10
3114.0
20
-113.0
30
0.0
10
3208.0
20
-116.0
30
0.0
10
3290.0
20
-119.0
30
0.0
10
3356.0
20
-121.0
30
0.0
10
3407.0
20
-123.0
30
0.0
10
3438.0
20
-124.0
30
0.0
10
3449.0
20
-124.0
30
0.0
10
3453.0
20
-137.0
30
0.0
10
3465.0
20
-174.0
30
0.0
10
3483.0
20
-229.0
30
0.0
10
3505.0
20
-298.0
30
0.0
10
3530.0
20
-376.0
30
0.0
10
3556.0
20
-459.0
30
0.0
10
3583.0
20
-543.0
30
0.0
10
3605.0
20
-614.0
30
0.0
10
3625.0
20
-680.0
30
0.0
10
3643.0
20
-738.0
30
0.0
10
3657.0
20
-787.0
30
0.0
10
3669.0
20
-824.0
30
0.0
10
3676.0
20
-848.0
30
0.0
10
3678.0
20
-857.0
30
0.0
10
3662.0
20
-864.0
30
0.0
10
3619.0
20
-884.0
30
0.0
10
3553.0
20
-917.0
30
0.0
10
3472.0
20
-961.0
30
0.0
10
3381.0
20
-1014.0
30
0.0
10
3286.0
20
-1076.0
30
0.0
10
3194.0
20
-1146.0
30
0.0
10
3136.0
20
-1195.0
30
0.0
10
3084.0
20
-1244.0
30
0.0
10
3038.0
20
-1291.0
30
0.0
10
3000.0
20
-1332.0
30
0.0
10
2971.0
20
-1365.0
30
0.0
10
2953.0
20
-1386.0
30
0.0
10
2946.0
20
-1394.0
30
0.0
10
2936.0
20
-1407.0
30
0.0
10
2906.0
20
-1445.0
30
0.0
10
2861.0
20
-1508.0
30
0.0
10
2801.0
20
-1593.0
30
0.0
10
2732.0
20
-1701.0
30
0.0
10
2655.0
20
-1829.0
30
0.0
10
2572.0
20
-1978.0
30
0.0
10
2518.0
20
-2085.0
30
0.0
10
2463.0
20
-2198.0
30
0.0
10
2407.0
20
-2316.0
30
0.0
10
2353.0
20
-2439.0
30
0.0
10
2298.0
20
-2565.0
30
0.0
10
2245.0
20
-2692.0
30
0.0
10
2193.0
20
-2819.0
30
0.0
10
2054.0
20
-3177.0
30
0.0
10
1932.0
20
-3515.0
30
0.0
10
1828.0
20
-3818.0
30
0.0
10
1744.0
20
-4076.0
30
0.0
10
1681.0
20
-4276.0
30
0.0
10
1643.0
20
-4405.0
30
0.0
10
1629.0
20
-4450.0
30
0.0
10
1621.0
20
-4451.0
30
0.0
6
Solid
370
35
62
0
0
ENDSEC
0
SECTION
2
OBJECTS
0
DICTIONARY
5
d19
330
0
100
AcDbDictionary
281
1
3
ACAD_GROUP
350
d1a
0
DICTIONARY
5
d1a
330
d19
100
AcDbDictionary
281
1
0
ENDSEC
0
EOF
