999

0
SECTION
2
HEADER
9
$ACADVER
1
AC1021
9
$HANDSEED
5
d4f
0
ENDSEC
0
SECTION
2
CLASSES
0
ENDSEC
0
SECTION
2
TABLES
0
TABLE
2
VPORT
5
d37
100
AcDbSymbolTable
70
1
0
VPORT
5
d36
100
AcDbSymbolTableRecord
100
AcDbViewportTableRecord
2
*ACTIVE
10
0
20
0
11
1
21
1
12
500.0
22
500.0
40
1000.0
70
0
0
ENDTAB
0
TABLE
2
LTYPE
5
d38
100
AcDbSymbolTable
70
3
0
LTYPE
5
d40
100
AcDbSymbolTableRecord
100
AcDbLinetypeTableRecord
2
Solid
70
0
72
65
73
0
3

0
LTYPE
5
d41
100
AcDbSymbolTableRecord
100
AcDbLinetypeTableRecord
2
ByBlock
70
0
72
65
73
0
3

0
LTYPE
5
d42
100
AcDbSymbolTableRecord
100
AcDbLinetypeTableRecord
2
ByLayer
70
0
72
65
73
0
3

0
ENDTAB
0
TABLE
2
LAYER
5
d39
100
AcDbSymbolTable
70
1
0
LAYER
5
d43
100
AcDbSymbolTableRecord
100
AcDbLayerTableRecord
2
0
70
0
390
0
0
ENDTAB
0
TABLE
2
STYLE
5
d3a
100
AcDbSymbolTable
70
0
0
ENDTAB
0
TABLE
2
VIEW
5
d3b
100
AcDbSymbolTable
70
0
0
ENDTAB
0
TABLE
2
UCS
5
d3c
100
AcDbSymbolTable
70
0
0
ENDTAB
0
TABLE
2
APPID
5
d3d
100
AcDbSymbolTable
70
1
0
APPID
5
d44
100
AcDbSymbolTableRecord
100
AcDbRegAppTableRecord
2
ACAD
70
0
0
ENDTAB
0
TABLE
2
DIMSTYLE
5
d3e
100
AcDbSymbolTable
70
0
100
AcDbDimStyleTable
71
1
0
ENDTAB
0
TABLE
2
BLOCK_RECORD
5
d3f
100
AcDbSymbolTable
70
2
0
BLOCK_RECORD
5
d45
100
AcDbSymbolTableRecord
100
AcDbBlockTableRecord
2
*Model_Space
70
0
280
1
281
0
0
BLOCK_RECORD
5
d46
100
AcDbSymbolTableRecord
100
AcDbBlockTableRecord
2
*Paper_Space
70
0
280
1
281
0
0
ENDTAB
0
ENDSEC
0
SECTION
2
BLOCKS
0
BLOCK
5
d47
100
AcDbEntity
100
AcDbBlockBegin
2
*Model_Space
70
0
10
0
20
0
30
0
3
*Model_Space
1

0
ENDBLK
5
d48
100
AcDbEntity
100
AcDbBlockEnd
0
BLOCK
5
d49
100
AcDbEntity
100
AcDbBlockBegin
2
*Paper_Space
70
0
10
0
20
0
30
0
3
*Paper_Space
1

0
ENDBLK
5
d4a
100
AcDbEntity
100
AcDbBlockEnd
0
ENDSEC
0
SECTION
2
ENTITIES
0
LWPOLYLINE
5
d4d
100
AcDbEntity
100
AcDbPolyline
90
45
70
1
10
521.0
20
0.0
30
0.0
10
548.0
20
-7.0
30
0.0
10
620.0
20
-27.0
30
0.0
10
730.0
20
-58.0
30
0.0
10
867.0
20
-97.0
30
0.0
10
1022.0
20
-142.0
30
0.0
10
1184.0
20
-191.0
30
0.0
10
1346.0
20
-241.0
30
0.0
10
1509.0
20
-294.0
30
0.0
10
1663.0
20
-347.0
30
0.0
10
1810.0
20
-398.0
30
0.0
10
1955.0
20
-448.0
30
0.0
10
2101.0
20
-497.0
30
0.0
10
2249.0
20
-545.0
30
0.0
10
2405.0
20
-592.0
30
0.0
10
2569.0
20
-637.0
30
0.0
10
2734.0
20
-680.0
30
0.0
10
2890.0
20
-718.0
30
0.0
10
3028.0
20
-751.0
30
0.0
10
3138.0
20
-776.0
30
0.0
10
3211.0
20
-793.0
30
0.0
10
3237.0
20
-798.0
30
0.0
10
2975.0
20
-1954.0
30
0.0
10
2942.0
20
-1947.0
30
0.0
10
2851.0
20
-1927.0
30
0.0
10
2714.0
20
-1897.0
30
0.0
10
2543.0
20
-1858.0
30
0.0
10
2352.0
20
-1813.0
30
0.0
10
2154.0
20
-1764.0
30
0.0
10
1959.0
20
-1713.0
30
0.0
10
1782.0
20
-1663.0
30
0.0
10
1617.0
20
-1612.0
30
0.0
10
1461.0
20
-1559.0
30
0.0
10
1310.0
20
-1504.0
30
0.0
10
1159.0
20
-1445.0
30
0.0
10
1006.0
20
-1381.0
30
0.0
10
845.0
20
-1312.0
30
0.0
10
679.0
20
-1238.0
30
0.0
10
511.0
20
-1163.0
30
0.0
10
353.0
20
-1091.0
30
0.0
10
213.0
20
-1026.0
30
0.0
10
101.0
20
-974.0
30
0.0
10
27.0
20
-940.0
30
0.0
10
0.0
20
-927.0
30
0.0
10
521.0
20
0.0
30
0.0
6
Solid
370
35
62
0
0
ENDSEC
0
SECTION
2
OBJECTS
0
DICTIONARY
5
d4b
330
0
100
AcDbDictionary
281
1
3
ACAD_GROUP
350
d4c
0
DICTIONARY
5
d4c
330
d4b
100
AcDbDictionary
281
1
0
ENDSEC
0
EOF
