999

0
SECTION
2
HEADER
9
$ACADVER
1
AC1021
9
$HANDSEED
5
d68
0
ENDSEC
0
SECTION
2
CLASSES
0
ENDSEC
0
SECTION
2
TABLES
0
TABLE
2
VPORT
5
d50
100
AcDbSymbolTable
70
1
0
VPORT
5
d4f
100
AcDbSymbolTableRecord
100
AcDbViewportTableRecord
2
*ACTIVE
10
0
20
0
11
1
21
1
12
500.0
22
500.0
40
1000.0
70
0
0
ENDTAB
0
TABLE
2
LTYPE
5
d51
100
AcDbSymbolTable
70
3
0
LTYPE
5
d59
100
AcDbSymbolTableRecord
100
AcDbLinetypeTableRecord
2
Solid
70
0
72
65
73
0
3

0
LTYPE
5
d5a
100
AcDbSymbolTableRecord
100
AcDbLinetypeTableRecord
2
ByBlock
70
0
72
65
73
0
3

0
LTYPE
5
d5b
100
AcDbSymbolTableRecord
100
AcDbLinetypeTableRecord
2
ByLayer
70
0
72
65
73
0
3

0
ENDTAB
0
TABLE
2
LAYER
5
d52
100
AcDbSymbolTable
70
1
0
LAYER
5
d5c
100
AcDbSymbolTableRecord
100
AcDbLayerTableRecord
2
0
70
0
390
0
0
ENDTAB
0
TABLE
2
STYLE
5
d53
100
AcDbSymbolTable
70
0
0
ENDTAB
0
TABLE
2
VIEW
5
d54
100
AcDbSymbolTable
70
0
0
ENDTAB
0
TABLE
2
UCS
5
d55
100
AcDbSymbolTable
70
0
0
ENDTAB
0
TABLE
2
APPID
5
d56
100
AcDbSymbolTable
70
1
0
APPID
5
d5d
100
AcDbSymbolTableRecord
100
AcDbRegAppTableRecord
2
ACAD
70
0
0
ENDTAB
0
TABLE
2
DIMSTYLE
5
d57
100
AcDbSymbolTable
70
0
100
AcDbDimStyleTable
71
1
0
ENDTAB
0
TABLE
2
BLOCK_RECORD
5
d58
100
AcDbSymbolTable
70
2
0
BLOCK_RECORD
5
d5e
100
AcDbSymbolTableRecord
100
AcDbBlockTableRecord
2
*Model_Space
70
0
280
1
281
0
0
BLOCK_RECORD
5
d5f
100
AcDbSymbolTableRecord
100
AcDbBlockTableRecord
2
*Paper_Space
70
0
280
1
281
0
0
ENDTAB
0
ENDSEC
0
SECTION
2
BLOCKS
0
BLOCK
5
d60
100
AcDbEntity
100
AcDbBlockBegin
2
*Model_Space
70
0
10
0
20
0
30
0
3
*Model_Space
1

0
ENDBLK
5
d61
100
AcDbEntity
100
AcDbBlockEnd
0
BLOCK
5
d62
100
AcDbEntity
100
AcDbBlockBegin
2
*Paper_Space
70
0
10
0
20
0
30
0
3
*Paper_Space
1

0
ENDBLK
5
d63
100
AcDbEntity
100
AcDbBlockEnd
0
ENDSEC
0
SECTION
2
ENTITIES
0
LWPOLYLINE
5
d66
100
AcDbEntity
100
AcDbPolyline
90
58
70
1
10
88.0
20
-984.0
30
0.0
10
332.0
20
-979.0
30
0.0
10
704.0
20
-966.0
30
0.0
10
1176.0
20
-939.0
30
0.0
10
1719.0
20
-894.0
30
0.0
10
2304.0
20
-825.0
30
0.0
10
2904.0
20
-730.0
30
0.0
10
3461.0
20
-612.0
30
0.0
10
3986.0
20
-477.0
30
0.0
10
4459.0
20
-339.0
30
0.0
10
4860.0
20
-210.0
30
0.0
10
5171.0
20
-102.0
30
0.0
10
5372.0
20
-27.0
30
0.0
10
5444.0
20
0.0
30
0.0
10
5494.0
20
-73.0
30
0.0
10
5623.0
20
-260.0
30
0.0
10
5800.0
20
-517.0
30
0.0
10
5993.0
20
-796.0
30
0.0
10
6170.0
20
-1052.0
30
0.0
10
6299.0
20
-1240.0
30
0.0
10
6349.0
20
-1312.0
30
0.0
10
6083.0
20
-1400.0
30
0.0
10
5396.0
20
-1625.0
30
0.0
10
4458.0
20
-1932.0
30
0.0
10
3435.0
20
-2268.0
30
0.0
10
2496.0
20
-2575.0
30
0.0
10
1809.0
20
-2800.0
30
0.0
10
1543.0
20
-2887.0
30
0.0
10
1538.0
20
-2871.0
30
0.0
10
1522.0
20
-2826.0
30
0.0
10
1499.0
20
-2759.0
30
0.0
10
1470.0
20
-2674.0
30
0.0
10
1436.0
20
-2578.0
30
0.0
10
1400.0
20
-2477.0
30
0.0
10
1363.0
20
-2376.0
30
0.0
10
1333.0
20
-2299.0
30
0.0
10
1305.0
20
-2228.0
30
0.0
10
1280.0
20
-2166.0
30
0.0
10
1259.0
20
-2113.0
30
0.0
10
1242.0
20
-2073.0
30
0.0
10
1231.0
20
-2048.0
30
0.0
10
1228.0
20
-2039.0
30
0.0
10
1222.0
20
-2023.0
30
0.0
10
1203.0
20
-1980.0
30
0.0
10
1170.0
20
-1918.0
30
0.0
10
1122.0
20
-1844.0
30
0.0
10
1059.0
20
-1765.0
30
0.0
10
979.0
20
-1689.0
30
0.0
10
880.0
20
-1622.0
30
0.0
10
740.0
20
-1563.0
30
0.0
10
585.0
20
-1524.0
30
0.0
10
428.0
20
-1502.0
30
0.0
10
284.0
20
-1493.0
30
0.0
10
165.0
20
-1491.0
30
0.0
10
84.0
20
-1493.0
30
0.0
10
54.0
20
-1495.0
30
0.0
10
0.0
20
-985.0
30
0.0
10
88.0
20
-984.0
30
0.0
6
Solid
370
35
62
0
0
ENDSEC
0
SECTION
2
OBJECTS
0
DICTIONARY
5
d64
330
0
100
AcDbDictionary
281
1
3
ACAD_GROUP
350
d65
0
DICTIONARY
5
d65
330
d64
100
AcDbDictionary
281
1
0
ENDSEC
0
EOF
