999

0
SECTION
2
HEADER
9
$ACADVER
1
AC1021
9
$HANDSEED
5
b42
0
ENDSEC
0
SECTION
2
CLASSES
0
ENDSEC
0
SECTION
2
TABLES
0
TABLE
2
VPORT
5
b2a
100
AcDbSymbolTable
70
1
0
VPORT
5
b29
100
AcDbSymbolTableRecord
100
AcDbViewportTableRecord
2
*ACTIVE
10
0
20
0
11
1
21
1
12
500.0
22
500.0
40
1000.0
70
0
0
ENDTAB
0
TABLE
2
LTYPE
5
b2b
100
AcDbSymbolTable
70
3
0
LTYPE
5
b33
100
AcDbSymbolTableRecord
100
AcDbLinetypeTableRecord
2
Solid
70
0
72
65
73
0
3

0
LTYPE
5
b34
100
AcDbSymbolTableRecord
100
AcDbLinetypeTableRecord
2
ByBlock
70
0
72
65
73
0
3

0
LTYPE
5
b35
100
AcDbSymbolTableRecord
100
AcDbLinetypeTableRecord
2
ByLayer
70
0
72
65
73
0
3

0
ENDTAB
0
TABLE
2
LAYER
5
b2c
100
AcDbSymbolTable
70
1
0
LAYER
5
b36
100
AcDbSymbolTableRecord
100
AcDbLayerTableRecord
2
0
70
0
390
0
0
ENDTAB
0
TABLE
2
STYLE
5
b2d
100
AcDbSymbolTable
70
0
0
ENDTAB
0
TABLE
2
VIEW
5
b2e
100
AcDbSymbolTable
70
0
0
ENDTAB
0
TABLE
2
UCS
5
b2f
100
AcDbSymbolTable
70
0
0
ENDTAB
0
TABLE
2
APPID
5
b30
100
AcDbSymbolTable
70
1
0
APPID
5
b37
100
AcDbSymbolTableRecord
100
AcDbRegAppTableRecord
2
ACAD
70
0
0
ENDTAB
0
TABLE
2
DIMSTYLE
5
b31
100
AcDbSymbolTable
70
0
100
AcDbDimStyleTable
71
1
0
ENDTAB
0
TABLE
2
BLOCK_RECORD
5
b32
100
AcDbSymbolTable
70
2
0
BLOCK_RECORD
5
b38
100
AcDbSymbolTableRecord
100
AcDbBlockTableRecord
2
*Model_Space
70
0
280
1
281
0
0
BLOCK_RECORD
5
b39
100
AcDbSymbolTableRecord
100
AcDbBlockTableRecord
2
*Paper_Space
70
0
280
1
281
0
0
ENDTAB
0
ENDSEC
0
SECTION
2
BLOCKS
0
BLOCK
5
b3a
100
AcDbEntity
100
AcDbBlockBegin
2
*Model_Space
70
0
10
0
20
0
30
0
3
*Model_Space
1

0
ENDBLK
5
b3b
100
AcDbEntity
100
AcDbBlockEnd
0
BLOCK
5
b3c
100
AcDbEntity
100
AcDbBlockBegin
2
*Paper_Space
70
0
10
0
20
0
30
0
3
*Paper_Space
1

0
ENDBLK
5
b3d
100
AcDbEntity
100
AcDbBlockEnd
0
ENDSEC
0
SECTION
2
ENTITIES
0
LWPOLYLINE
5
b40
100
AcDbEntity
100
AcDbPolyline
90
45
70
1
10
27.0
20
-1014.0
30
0.0
10
101.0
20
-980.0
30
0.0
10
213.0
20
-928.0
30
0.0
10
353.0
20
-864.0
30
0.0
10
511.0
20
-791.0
30
0.0
10
679.0
20
-716.0
30
0.0
10
845.0
20
-642.0
30
0.0
10
1006.0
20
-573.0
30
0.0
10
1159.0
20
-509.0
30
0.0
10
1310.0
20
-450.0
30
0.0
10
1461.0
20
-395.0
30
0.0
10
1617.0
20
-342.0
30
0.0
10
1782.0
20
-291.0
30
0.0
10
1959.0
20
-241.0
30
0.0
10
2154.0
20
-190.0
30
0.0
10
2352.0
20
-141.0
30
0.0
10
2543.0
20
-96.0
30
0.0
10
2714.0
20
-57.0
30
0.0
10
2851.0
20
-27.0
30
0.0
10
2942.0
20
-7.0
30
0.0
10
2975.0
20
0.0
30
0.0
10
3237.0
20
-1156.0
30
0.0
10
3211.0
20
-1162.0
30
0.0
10
3138.0
20
-1178.0
30
0.0
10
3028.0
20
-1203.0
30
0.0
10
2890.0
20
-1236.0
30
0.0
10
2734.0
20
-1274.0
30
0.0
10
2569.0
20
-1317.0
30
0.0
10
2405.0
20
-1362.0
30
0.0
10
2249.0
20
-1409.0
30
0.0
10
2101.0
20
-1457.0
30
0.0
10
1955.0
20
-1506.0
30
0.0
10
1810.0
20
-1556.0
30
0.0
10
1663.0
20
-1607.0
30
0.0
10
1509.0
20
-1660.0
30
0.0
10
1346.0
20
-1713.0
30
0.0
10
1184.0
20
-1763.0
30
0.0
10
1022.0
20
-1812.0
30
0.0
10
867.0
20
-1857.0
30
0.0
10
730.0
20
-1896.0
30
0.0
10
620.0
20
-1927.0
30
0.0
10
548.0
20
-1947.0
30
0.0
10
521.0
20
-1954.0
30
0.0
10
0.0
20
-1027.0
30
0.0
10
27.0
20
-1014.0
30
0.0
6
Solid
370
35
62
0
0
ENDSEC
0
SECTION
2
OBJECTS
0
DICTIONARY
5
b3e
330
0
100
AcDbDictionary
281
1
3
ACAD_GROUP
350
b3f
0
DICTIONARY
5
b3f
330
b3e
100
AcDbDictionary
281
1
0
ENDSEC
0
EOF
