999

0
SECTION
2
HEADER
9
$ACADVER
1
AC1021
9
$HANDSEED
5
ded
0
ENDSEC
0
SECTION
2
CLASSES
0
ENDSEC
0
SECTION
2
TABLES
0
TABLE
2
VPORT
5
db4
100
AcDbSymbolTable
70
1
0
VPORT
5
db3
100
AcDbSymbolTableRecord
100
AcDbViewportTableRecord
2
*ACTIVE
10
0
20
0
11
1
21
1
12
500.0
22
500.0
40
1000.0
70
0
0
ENDTAB
0
TABLE
2
LTYPE
5
db5
100
AcDbSymbolTable
70
3
0
LTYPE
5
dbd
100
AcDbSymbolTableRecord
100
AcDbLinetypeTableRecord
2
Solid
70
0
72
65
73
0
3

0
LTYPE
5
dbe
100
AcDbSymbolTableRecord
100
AcDbLinetypeTableRecord
2
ByBlock
70
0
72
65
73
0
3

0
LTYPE
5
dbf
100
AcDbSymbolTableRecord
100
AcDbLinetypeTableRecord
2
ByLayer
70
0
72
65
73
0
3

0
ENDTAB
0
TABLE
2
LAYER
5
db6
100
AcDbSymbolTable
70
8
0
LAYER
5
dc0
100
AcDbSymbolTableRecord
100
AcDbLayerTableRecord
2
0
70
0
390
0
0
LAYER
5
dd8
100
AcDbSymbolTableRecord
100
AcDbLayerTableRecord
2
zone_0_q2
70
0
390
0
0
LAYER
5
ddb
100
AcDbSymbolTableRecord
100
AcDbLayerTableRecord
2
zone_1_q3
70
0
390
0
0
LAYER
5
dde
100
AcDbSymbolTableRecord
100
AcDbLayerTableRecord
2
zone_2_q1
70
0
390
0
0
LAYER
5
de1
100
AcDbSymbolTableRecord
100
AcDbLayerTableRecord
2
zone_3_q3
70
0
390
0
0
LAYER
5
de4
100
AcDbSymbolTableRecord
100
AcDbLayerTableRecord
2
zone_4_q3
70
0
390
0
0
LAYER
5
de7
100
AcDbSymbolTableRecord
100
AcDbLayerTableRecord
2
zone_5_q2
70
0
390
0
0
LAYER
5
dea
100
AcDbSymbolTableRecord
100
AcDbLayerTableRecord
2
zone_6_q3
70
0
390
0
0
ENDTAB
0
TABLE
2
STYLE
5
db7
100
AcDbSymbolTable
70
0
0
ENDTAB
0
TABLE
2
VIEW
5
db8
100
AcDbSymbolTable
70
0
0
ENDTAB
0
TABLE
2
UCS
5
db9
100
AcDbSymbolTable
70
0
0
ENDTAB
0
TABLE
2
APPID
5
dba
100
AcDbSymbolTable
70
1
0
APPID
5
dc1
100
AcDbSymbolTableRecord
100
AcDbRegAppTableRecord
2
ACAD
70
0
0
ENDTAB
0
TABLE
2
DIMSTYLE
5
dbb
100
AcDbSymbolTable
70
0
100
AcDbDimStyleTable
71
1
0
ENDTAB
0
TABLE
2
BLOCK_RECORD
5
dbc
100
AcDbSymbolTable
70
2
0
BLOCK_RECORD
5
dc2
100
AcDbSymbolTableRecord
100
AcDbBlockTableRecord
2
*Model_Space
70
0
280
1
281
0
0
BLOCK_RECORD
5
dc3
100
AcDbSymbolTableRecord
100
AcDbBlockTableRecord
2
*Paper_Space
70
0
280
1
281
0
0
ENDTAB
0
ENDSEC
0
SECTION
2
BLOCKS
0
BLOCK
5
dc4
100
AcDbEntity
100
AcDbBlockBegin
2
*Model_Space
70
0
10
0
20
0
30
0
3
*Model_Space
1

0
ENDBLK
5
dc5
100
AcDbEntity
100
AcDbBlockEnd
0
BLOCK
5
dc6
100
AcDbEntity
100
AcDbBlockBegin
2
*Paper_Space
70
0
10
0
20
0
30
0
3
*Paper_Space
1

0
ENDBLK
5
dc7
100
AcDbEntity
100
AcDbBlockEnd
0
ENDSEC
0
SECTION
2
ENTITIES
0
LWPOLYLINE
5
dca
100
AcDbEntity
100
AcDbPolyline
90
1246
70
1
10
559.0
20
-5124.0
30
0.0
10
370.0
20
-5117.0
30
0.0
10
223.0
20
-5145.0
30
0.0
10
222.0
20
-5140.0
30
0.0
10
219.0
20
-5128.0
30
0.0
10
215.0
20
-5111.0
30
0.0
10
210.0
20
-5089.0
30
0.0
10
204.0
20
-5065.0
30
0.0
10
198.0
20
-5040.0
30
0.0
10
190.0
20
-5017.0
30
0.0
10
182.0
20
-4992.0
30
0.0
10
172.0
20
-4971.0
30
0.0
10
162.0
20
-4950.0
30
0.0
10
151.0
20
-4930.0
30
0.0
10
139.0
20
-4908.0
30
0.0
10
125.0
20
-4884.0
30
0.0
10
110.0
20
-4855.0
30
0.0
10
90.0
20
-4814.0
30
0.0
10
69.0
20
-4769.0
30
0.0
10
48.0
20
-4723.0
30
0.0
10
29.0
20
-4681.0
30
0.0
10
14.0
20
-4647.0
30
0.0
10
4.0
20
-4623.0
30
0.0
10
0.0
20
-4614.0
30
0.0
10
4.0
20
-4608.0
30
0.0
10
15.0
20
-4592.0
30
0.0
10
29.0
20
-4569.0
30
0.0
10
46.0
20
-4540.0
30
0.0
10
63.0
20
-4508.0
30
0.0
10
77.0
20
-4476.0
30
0.0
10
86.0
20
-4446.0
30
0.0
10
88.0
20
-4431.0
30
0.0
10
89.0
20
-4418.0
30
0.0
10
88.0
20
-4406.0
30
0.0
10
87.0
20
-4397.0
30
0.0
10
85.0
20
-4390.0
30
0.0
10
84.0
20
-4386.0
30
0.0
10
84.0
20
-4385.0
30
0.0
10
86.0
20
-4378.0
30
0.0
10
94.0
20
-4361.0
30
0.0
10
105.0
20
-4335.0
30
0.0
10
119.0
20
-4302.0
30
0.0
10
134.0
20
-4264.0
30
0.0
10
150.0
20
-4224.0
30
0.0
10
166.0
20
-4184.0
30
0.0
10
183.0
20
-4140.0
30
0.0
10
198.0
20
-4098.0
30
0.0
10
211.0
20
-4058.0
30
0.0
10
223.0
20
-4020.0
30
0.0
10
234.0
20
-3982.0
30
0.0
10
243.0
20
-3945.0
30
0.0
10
251.0
20
-3908.0
30
0.0
10
257.0
20
-3874.0
30
0.0
10
263.0
20
-3840.0
30
0.0
10
268.0
20
-3806.0
30
0.0
10
273.0
20
-3772.0
30
0.0
10
278.0
20
-3738.0
30
0.0
10
283.0
20
-3705.0
30
0.0
10
288.0
20
-3672.0
30
0.0
10
293.0
20
-3643.0
30
0.0
10
298.0
20
-3614.0
30
0.0
10
304.0
20
-3587.0
30
0.0
10
311.0
20
-3560.0
30
0.0
10
318.0
20
-3534.0
30
0.0
10
327.0
20
-3509.0
30
0.0
10
337.0
20
-3486.0
30
0.0
10
346.0
20
-3467.0
30
0.0
10
356.0
20
-3450.0
30
0.0
10
367.0
20
-3433.0
30
0.0
10
379.0
20
-3418.0
30
0.0
10
392.0
20
-3403.0
30
0.0
10
406.0
20
-3389.0
30
0.0
10
421.0
20
-3377.0
30
0.0
10
437.0
20
-3365.0
30
0.0
10
455.0
20
-3354.0
30
0.0
10
474.0
20
-3343.0
30
0.0
10
494.0
20
-3334.0
30
0.0
10
514.0
20
-3325.0
30
0.0
10
537.0
20
-3316.0
30
0.0
10
560.0
20
-3307.0
30
0.0
10
579.0
20
-3300.0
30
0.0
10
599.0
20
-3293.0
30
0.0
10
617.0
20
-3287.0
30
0.0
10
633.0
20
-3282.0
30
0.0
10
646.0
20
-3278.0
30
0.0
10
654.0
20
-3275.0
30
0.0
10
657.0
20
-3274.0
30
0.0
10
764.0
20
-3268.0
30
0.0
10
768.0
20
-3266.0
30
0.0
10
779.0
20
-3258.0
30
0.0
10
796.0
20
-3246.0
30
0.0
10
816.0
20
-3232.0
30
0.0
10
839.0
20
-3215.0
30
0.0
10
863.0
20
-3197.0
30
0.0
10
886.0
20
-3179.0
30
0.0
10
908.0
20
-3160.0
30
0.0
10
927.0
20
-3142.0
30
0.0
10
944.0
20
-3124.0
30
0.0
10
958.0
20
-3106.0
30
0.0
10
970.0
20
-3088.0
30
0.0
10
979.0
20
-3069.0
30
0.0
10
987.0
20
-3050.0
30
0.0
10
991.0
20
-3032.0
30
0.0
10
995.0
20
-3013.0
30
0.0
10
998.0
20
-2994.0
30
0.0
10
1001.0
20
-2975.0
30
0.0
10
1005.0
20
-2956.0
30
0.0
10
1011.0
20
-2938.0
30
0.0
10
1019.0
20
-2919.0
30
0.0
10
1027.0
20
-2905.0
30
0.0
10
1036.0
20
-2892.0
30
0.0
10
1045.0
20
-2880.0
30
0.0
10
1054.0
20
-2870.0
30
0.0
10
1061.0
20
-2862.0
30
0.0
10
1066.0
20
-2857.0
30
0.0
10
1067.0
20
-2855.0
30
0.0
10
1069.0
20
-2848.0
30
0.0
10
1075.0
20
-2828.0
30
0.0
10
1083.0
20
-2798.0
30
0.0
10
1092.0
20
-2762.0
30
0.0
10
1101.0
20
-2721.0
30
0.0
10
1109.0
20
-2680.0
30
0.0
10
1115.0
20
-2641.0
30
0.0
10
1118.0
20
-2607.0
30
0.0
10
1118.0
20
-2577.0
30
0.0
10
1117.0
20
-2548.0
30
0.0
10
1115.0
20
-2521.0
30
0.0
10
1113.0
20
-2494.0
30
0.0
10
1112.0
20
-2464.0
30
0.0
10
1113.0
20
-2432.0
30
0.0
10
1115.0
20
-2400.0
30
0.0
10
1120.0
20
-2366.0
30
0.0
10
1124.0
20
-2333.0
30
0.0
10
1129.0
20
-2303.0
30
0.0
10
1134.0
20
-2279.0
30
0.0
10
1137.0
20
-2263.0
30
0.0
10
1138.0
20
-2257.0
30
0.0
10
1141.0
20
-2255.0
30
0.0
10
1148.0
20
-2249.0
30
0.0
10
1160.0
20
-2240.0
30
0.0
10
1174.0
20
-2230.0
30
0.0
10
1190.0
20
-2219.0
30
0.0
10
1206.0
20
-2208.0
30
0.0
10
1223.0
20
-2197.0
30
0.0
10
1237.0
20
-2189.0
30
0.0
10
1251.0
20
-2182.0
30
0.0
10
1264.0
20
-2177.0
30
0.0
10
1277.0
20
-2174.0
30
0.0
10
1289.0
20
-2172.0
30
0.0
10
1301.0
20
-2172.0
30
0.0
10
1314.0
20
-2173.0
30
0.0
10
1329.0
20
-2176.0
30
0.0
10
1344.0
20
-2180.0
30
0.0
10
1359.0
20
-2186.0
30
0.0
10
1376.0
20
-2192.0
30
0.0
10
1392.0
20
-2198.0
30
0.0
10
1409.0
20
-2205.0
30
0.0
10
1426.0
20
-2211.0
30
0.0
10
1445.0
20
-2216.0
30
0.0
10
1463.0
20
-2221.0
30
0.0
10
1482.0
20
-2224.0
30
0.0
10
1501.0
20
-2227.0
30
0.0
10
1520.0
20
-2228.0
30
0.0
10
1538.0
20
-2228.0
30
0.0
10
1557.0
20
-2227.0
30
0.0
10
1577.0
20
-2224.0
30
0.0
10
1596.0
20
-2220.0
30
0.0
10
1615.0
20
-2214.0
30
0.0
10
1634.0
20
-2206.0
30
0.0
10
1652.0
20
-2196.0
30
0.0
10
1670.0
20
-2183.0
30
0.0
10
1688.0
20
-2168.0
30
0.0
10
1703.0
20
-2153.0
30
0.0
10
1717.0
20
-2138.0
30
0.0
10
1729.0
20
-2122.0
30
0.0
10
1740.0
20
-2108.0
30
0.0
10
1749.0
20
-2096.0
30
0.0
10
1754.0
20
-2088.0
30
0.0
10
1756.0
20
-2086.0
30
0.0
10
1817.0
20
-1878.0
30
0.0
10
1824.0
20
-1883.0
30
0.0
10
1842.0
20
-1897.0
30
0.0
10
1869.0
20
-1918.0
30
0.0
10
1902.0
20
-1943.0
30
0.0
10
1937.0
20
-1970.0
30
0.0
10
1973.0
20
-1997.0
30
0.0
10
2005.0
20
-2020.0
30
0.0
10
2028.0
20
-2035.0
30
0.0
10
2048.0
20
-2047.0
30
0.0
10
2066.0
20
-2057.0
30
0.0
10
2085.0
20
-2064.0
30
0.0
10
2104.0
20
-2071.0
30
0.0
10
2124.0
20
-2076.0
30
0.0
10
2149.0
20
-2080.0
30
0.0
10
2177.0
20
-2085.0
30
0.0
10
2208.0
20
-2089.0
30
0.0
10
2239.0
20
-2094.0
30
0.0
10
2267.0
20
-2097.0
30
0.0
10
2290.0
20
-2100.0
30
0.0
10
2305.0
20
-2102.0
30
0.0
10
2311.0
20
-2103.0
30
0.0
10
2307.0
20
-2099.0
30
0.0
10
2298.0
20
-2089.0
30
0.0
10
2283.0
20
-2074.0
30
0.0
10
2265.0
20
-2055.0
30
0.0
10
2245.0
20
-2033.0
30
0.0
10
2223.0
20
-2010.0
30
0.0
10
2203.0
20
-1986.0
30
0.0
10
2179.0
20
-1956.0
30
0.0
10
2158.0
20
-1926.0
30
0.0
10
2138.0
20
-1897.0
30
0.0
10
2119.0
20
-1867.0
30
0.0
10
2101.0
20
-1836.0
30
0.0
10
2082.0
20
-1805.0
30
0.0
10
2061.0
20
-1772.0
30
0.0
10
2044.0
20
-1745.0
30
0.0
10
2027.0
20
-1718.0
30
0.0
10
2010.0
20
-1692.0
30
0.0
10
1996.0
20
-1670.0
30
0.0
10
1984.0
20
-1653.0
30
0.0
10
1976.0
20
-1641.0
30
0.0
10
1973.0
20
-1637.0
30
0.0
10
1978.0
20
-1634.0
30
0.0
10
1990.0
20
-1628.0
30
0.0
10
2008.0
20
-1618.0
30
0.0
10
2030.0
20
-1605.0
30
0.0
10
2054.0
20
-1590.0
30
0.0
10
2078.0
20
-1574.0
30
0.0
10
2100.0
20
-1557.0
30
0.0
10
2117.0
20
-1540.0
30
0.0
10
2132.0
20
-1524.0
30
0.0
10
2144.0
20
-1508.0
30
0.0
10
2156.0
20
-1493.0
30
0.0
10
2167.0
20
-1480.0
30
0.0
10
2179.0
20
-1467.0
30
0.0
10
2193.0
20
-1457.0
30
0.0
10
2211.0
20
-1448.0
30
0.0
10
2231.0
20
-1441.0
30
0.0
10
2254.0
20
-1436.0
30
0.0
10
2278.0
20
-1431.0
30
0.0
10
2304.0
20
-1427.0
30
0.0
10
2331.0
20
-1423.0
30
0.0
10
2358.0
20
-1417.0
30
0.0
10
2387.0
20
-1410.0
30
0.0
10
2417.0
20
-1402.0
30
0.0
10
2446.0
20
-1394.0
30
0.0
10
2474.0
20
-1387.0
30
0.0
10
2502.0
20
-1381.0
30
0.0
10
2528.0
20
-1377.0
30
0.0
10
2553.0
20
-1377.0
30
0.0
10
2571.0
20
-1380.0
30
0.0
10
2589.0
20
-1384.0
30
0.0
10
2606.0
20
-1389.0
30
0.0
10
2622.0
20
-1394.0
30
0.0
10
2639.0
20
-1398.0
30
0.0
10
2656.0
20
-1400.0
30
0.0
10
2673.0
20
-1399.0
30
0.0
10
2690.0
20
-1396.0
30
0.0
10
2707.0
20
-1390.0
30
0.0
10
2723.0
20
-1383.0
30
0.0
10
2739.0
20
-1377.0
30
0.0
10
2754.0
20
-1373.0
30
0.0
10
2768.0
20
-1371.0
30
0.0
10
2780.0
20
-1373.0
30
0.0
10
2789.0
20
-1380.0
30
0.0
10
2797.0
20
-1391.0
30
0.0
10
2804.0
20
-1405.0
30
0.0
10
2810.0
20
-1420.0
30
0.0
10
2817.0
20
-1435.0
30
0.0
10
2825.0
20
-1449.0
30
0.0
10
2835.0
20
-1460.0
30
0.0
10
2844.0
20
-1467.0
30
0.0
10
2855.0
20
-1472.0
30
0.0
10
2865.0
20
-1474.0
30
0.0
10
2876.0
20
-1473.0
30
0.0
10
2886.0
20
-1470.0
30
0.0
10
2894.0
20
-1463.0
30
0.0
10
2901.0
20
-1453.0
30
0.0
10
2907.0
20
-1434.0
30
0.0
10
2910.0
20
-1411.0
30
0.0
10
2910.0
20
-1386.0
30
0.0
10
2908.0
20
-1362.0
30
0.0
10
2906.0
20
-1341.0
30
0.0
10
2904.0
20
-1327.0
30
0.0
10
2903.0
20
-1322.0
30
0.0
10
2906.0
20
-1321.0
30
0.0
10
2916.0
20
-1318.0
30
0.0
10
2930.0
20
-1313.0
30
0.0
10
2949.0
20
-1306.0
30
0.0
10
2970.0
20
-1298.0
30
0.0
10
2993.0
20
-1288.0
30
0.0
10
3016.0
20
-1277.0
30
0.0
10
3038.0
20
-1266.0
30
0.0
10
3059.0
20
-1254.0
30
0.0
10
3077.0
20
-1243.0
30
0.0
10
3093.0
20
-1233.0
30
0.0
10
3105.0
20
-1225.0
30
0.0
10
3113.0
20
-1219.0
30
0.0
10
3116.0
20
-1217.0
30
0.0
10
3264.0
20
-1242.0
30
0.0
10
3336.0
20
-1330.0
30
0.0
10
3471.0
20
-1138.0
30
0.0
10
3473.0
20
-1142.0
30
0.0
10
3480.0
20
-1151.0
30
0.0
10
3491.0
20
-1166.0
30
0.0
10
3504.0
20
-1183.0
30
0.0
10
3519.0
20
-1201.0
30
0.0
10
3536.0
20
-1218.0
30
0.0
10
3553.0
20
-1233.0
30
0.0
10
3565.0
20
-1241.0
30
0.0
10
3576.0
20
-1247.0
30
0.0
10
3586.0
20
-1252.0
30
0.0
10
3594.0
20
-1255.0
30
0.0
10
3601.0
20
-1257.0
30
0.0
10
3605.0
20
-1258.0
30
0.0
10
3607.0
20
-1258.0
30
0.0
10
3612.0
20
-1257.0
30
0.0
10
3627.0
20
-1252.0
30
0.0
10
3649.0
20
-1245.0
30
0.0
10
3678.0
20
-1236.0
30
0.0
10
3711.0
20
-1225.0
30
0.0
10
3747.0
20
-1214.0
30
0.0
10
3784.0
20
-1203.0
30
0.0
10
3827.0
20
-1191.0
30
0.0
10
3869.0
20
-1179.0
30
0.0
10
3909.0
20
-1168.0
30
0.0
10
3947.0
20
-1158.0
30
0.0
10
3981.0
20
-1148.0
30
0.0
10
4012.0
20
-1139.0
30
0.0
10
4039.0
20
-1131.0
30
0.0
10
4052.0
20
-1126.0
30
0.0
10
4063.0
20
-1122.0
30
0.0
10
4074.0
20
-1118.0
30
0.0
10
4084.0
20
-1113.0
30
0.0
10
4094.0
20
-1108.0
30
0.0
10
4104.0
20
-1102.0
30
0.0
10
4114.0
20
-1096.0
30
0.0
10
4126.0
20
-1087.0
30
0.0
10
4139.0
20
-1078.0
30
0.0
10
4153.0
20
-1068.0
30
0.0
10
4167.0
20
-1057.0
30
0.0
10
4182.0
20
-1046.0
30
0.0
10
4197.0
20
-1035.0
30
0.0
10
4212.0
20
-1024.0
30
0.0
10
4229.0
20
-1012.0
30
0.0
10
4247.0
20
-1001.0
30
0.0
10
4265.0
20
-991.0
30
0.0
10
4283.0
20
-981.0
30
0.0
10
4301.0
20
-971.0
30
0.0
10
4321.0
20
-963.0
30
0.0
10
4340.0
20
-955.0
30
0.0
10
4361.0
20
-947.0
30
0.0
10
4382.0
20
-941.0
30
0.0
10
4403.0
20
-936.0
30
0.0
10
4425.0
20
-932.0
30
0.0
10
4446.0
20
-929.0
30
0.0
10
4468.0
20
-928.0
30
0.0
10
4489.0
20
-928.0
30
0.0
10
4509.0
20
-931.0
30
0.0
10
4530.0
20
-935.0
30
0.0
10
4550.0
20
-940.0
30
0.0
10
4571.0
20
-947.0
30
0.0
10
4591.0
20
-955.0
30
0.0
10
4613.0
20
-964.0
30
0.0
10
4636.0
20
-973.0
30
0.0
10
4654.0
20
-981.0
30
0.0
10
4673.0
20
-989.0
30
0.0
10
4690.0
20
-996.0
30
0.0
10
4705.0
20
-1003.0
30
0.0
10
4717.0
20
-1008.0
30
0.0
10
4725.0
20
-1011.0
30
0.0
10
4728.0
20
-1012.0
30
0.0
10
4733.0
20
-1011.0
30
0.0
10
4746.0
20
-1009.0
30
0.0
10
4766.0
20
-1005.0
30
0.0
10
4791.0
20
-1000.0
30
0.0
10
4820.0
20
-994.0
30
0.0
10
4850.0
20
-987.0
30
0.0
10
4879.0
20
-979.0
30
0.0
10
4913.0
20
-970.0
30
0.0
10
4944.0
20
-960.0
30
0.0
10
4973.0
20
-950.0
30
0.0
10
5001.0
20
-939.0
30
0.0
10
5028.0
20
-928.0
30
0.0
10
5055.0
20
-916.0
30
0.0
10
5083.0
20
-903.0
30
0.0
10
5112.0
20
-890.0
30
0.0
10
5141.0
20
-876.0
30
0.0
10
5170.0
20
-862.0
30
0.0
10
5200.0
20
-847.0
30
0.0
10
5229.0
20
-831.0
30
0.0
10
5259.0
20
-814.0
30
0.0
10
5287.0
20
-796.0
30
0.0
10
5315.0
20
-777.0
30
0.0
10
5342.0
20
-757.0
30
0.0
10
5368.0
20
-737.0
30
0.0
10
5394.0
20
-716.0
30
0.0
10
5420.0
20
-695.0
30
0.0
10
5445.0
20
-674.0
30
0.0
10
5470.0
20
-653.0
30
0.0
10
5497.0
20
-630.0
30
0.0
10
5524.0
20
-608.0
30
0.0
10
5551.0
20
-586.0
30
0.0
10
5579.0
20
-563.0
30
0.0
10
5608.0
20
-540.0
30
0.0
10
5639.0
20
-516.0
30
0.0
10
5671.0
20
-491.0
30
0.0
10
5710.0
20
-461.0
30
0.0
10
5752.0
20
-431.0
30
0.0
10
5795.0
20
-402.0
30
0.0
10
5840.0
20
-376.0
30
0.0
10
5885.0
20
-354.0
30
0.0
10
5931.0
20
-337.0
30
0.0
10
5976.0
20
-327.0
30
0.0
10
6015.0
20
-325.0
30
0.0
10
6054.0
20
-327.0
30
0.0
10
6092.0
20
-333.0
30
0.0
10
6129.0
20
-341.0
30
0.0
10
6166.0
20
-350.0
30
0.0
10
6202.0
20
-357.0
30
0.0
10
6237.0
20
-363.0
30
0.0
10
6268.0
20
-365.0
30
0.0
10
6298.0
20
-365.0
30
0.0
10
6329.0
20
-362.0
30
0.0
10
6359.0
20
-358.0
30
0.0
10
6390.0
20
-351.0
30
0.0
10
6421.0
20
-343.0
30
0.0
10
6453.0
20
-335.0
30
0.0
10
6490.0
20
-324.0
30
0.0
10
6528.0
20
-312.0
30
0.0
10
6567.0
20
-300.0
30
0.0
10
6606.0
20
-288.0
30
0.0
10
6644.0
20
-276.0
30
0.0
10
6682.0
20
-265.0
30
0.0
10
6720.0
20
-255.0
30
0.0
10
6751.0
20
-247.0
30
0.0
10
6781.0
20
-240.0
30
0.0
10
6810.0
20
-232.0
30
0.0
10
6838.0
20
-225.0
30
0.0
10
6866.0
20
-217.0
30
0.0
10
6893.0
20
-209.0
30
0.0
10
6920.0
20
-199.0
30
0.0
10
6948.0
20
-186.0
30
0.0
10
6976.0
20
-173.0
30
0.0
10
7004.0
20
-157.0
30
0.0
10
7033.0
20
-141.0
30
0.0
10
7063.0
20
-123.0
30
0.0
10
7094.0
20
-104.0
30
0.0
10
7127.0
20
-84.0
30
0.0
10
7156.0
20
-67.0
30
0.0
10
7186.0
20
-51.0
30
0.0
10
7217.0
20
-35.0
30
0.0
10
7247.0
20
-22.0
30
0.0
10
7277.0
20
-11.0
30
0.0
10
7307.0
20
-3.0
30
0.0
10
7335.0
20
0.0
30
0.0
10
7343.0
20
0.0
30
0.0
10
7351.0
20
0.0
30
0.0
10
7359.0
20
-1.0
30
0.0
10
7366.0
20
-3.0
30
0.0
10
7374.0
20
-5.0
30
0.0
10
7381.0
20
-8.0
30
0.0
10
7388.0
20
-11.0
30
0.0
10
7405.0
20
-23.0
30
0.0
10
7420.0
20
-38.0
30
0.0
10
7433.0
20
-54.0
30
0.0
10
7443.0
20
-69.0
30
0.0
10
7450.0
20
-82.0
30
0.0
10
7455.0
20
-91.0
30
0.0
10
7456.0
20
-95.0
30
0.0
10
7535.0
20
-149.0
30
0.0
10
7673.0
20
-161.0
30
0.0
10
7680.0
20
-161.0
30
0.0
10
7699.0
20
-161.0
30
0.0
10
7726.0
20
-161.0
30
0.0
10
7760.0
20
-160.0
30
0.0
10
7797.0
20
-159.0
30
0.0
10
7833.0
20
-156.0
30
0.0
10
7867.0
20
-152.0
30
0.0
10
7893.0
20
-147.0
30
0.0
10
7915.0
20
-140.0
30
0.0
10
7935.0
20
-133.0
30
0.0
10
7953.0
20
-123.0
30
0.0
10
7971.0
20
-113.0
30
0.0
10
7990.0
20
-101.0
30
0.0
10
8011.0
20
-87.0
30
0.0
10
8034.0
20
-73.0
30
0.0
10
8058.0
20
-58.0
30
0.0
10
8081.0
20
-43.0
30
0.0
10
8103.0
20
-30.0
30
0.0
10
8120.0
20
-19.0
30
0.0
10
8132.0
20
-12.0
30
0.0
10
8136.0
20
-10.0
30
0.0
10
8141.0
20
-10.0
30
0.0
10
8153.0
20
-12.0
30
0.0
10
8171.0
20
-14.0
30
0.0
10
8193.0
20
-17.0
30
0.0
10
8218.0
20
-21.0
30
0.0
10
8244.0
20
-26.0
30
0.0
10
8269.0
20
-32.0
30
0.0
10
8296.0
20
-40.0
30
0.0
10
8320.0
20
-49.0
30
0.0
10
8343.0
20
-58.0
30
0.0
10
8365.0
20
-68.0
30
0.0
10
8386.0
20
-79.0
30
0.0
10
8408.0
20
-90.0
30
0.0
10
8432.0
20
-102.0
30
0.0
10
8450.0
20
-111.0
30
0.0
10
8469.0
20
-120.0
30
0.0
10
8486.0
20
-128.0
30
0.0
10
8502.0
20
-135.0
30
0.0
10
8514.0
20
-140.0
30
0.0
10
8523.0
20
-144.0
30
0.0
10
8526.0
20
-145.0
30
0.0
10
8527.0
20
-147.0
30
0.0
10
8530.0
20
-154.0
30
0.0
10
8535.0
20
-164.0
30
0.0
10
8542.0
20
-177.0
30
0.0
10
8551.0
20
-191.0
30
0.0
10
8561.0
20
-207.0
30
0.0
10
8572.0
20
-223.0
30
0.0
10
8584.0
20
-239.0
30
0.0
10
8596.0
20
-254.0
30
0.0
10
8607.0
20
-268.0
30
0.0
10
8618.0
20
-280.0
30
0.0
10
8626.0
20
-289.0
30
0.0
10
8631.0
20
-295.0
30
0.0
10
8633.0
20
-297.0
30
0.0
10
8633.0
20
-299.0
30
0.0
10
8630.0
20
-306.0
30
0.0
10
8627.0
20
-317.0
30
0.0
10
8624.0
20
-330.0
30
0.0
10
8620.0
20
-345.0
30
0.0
10
8617.0
20
-361.0
30
0.0
10
8616.0
20
-377.0
30
0.0
10
8616.0
20
-399.0
30
0.0
10
8619.0
20
-420.0
30
0.0
10
8624.0
20
-441.0
30
0.0
10
8633.0
20
-462.0
30
0.0
10
8644.0
20
-485.0
30
0.0
10
8657.0
20
-510.0
30
0.0
10
8672.0
20
-537.0
30
0.0
10
8692.0
20
-572.0
30
0.0
10
8712.0
20
-608.0
30
0.0
10
8732.0
20
-644.0
30
0.0
10
8750.0
20
-676.0
30
0.0
10
8765.0
20
-703.0
30
0.0
10
8775.0
20
-720.0
30
0.0
10
8779.0
20
-727.0
30
0.0
10
8779.0
20
-729.0
30
0.0
10
8778.0
20
-737.0
30
0.0
10
8777.0
20
-748.0
30
0.0
10
8775.0
20
-762.0
30
0.0
10
8772.0
20
-778.0
30
0.0
10
8768.0
20
-796.0
30
0.0
10
8764.0
20
-816.0
30
0.0
10
8758.0
20
-837.0
30
0.0
10
8752.0
20
-858.0
30
0.0
10
8745.0
20
-877.0
30
0.0
10
8739.0
20
-894.0
30
0.0
10
8734.0
20
-907.0
30
0.0
10
8730.0
20
-915.0
30
0.0
10
8729.0
20
-918.0
30
0.0
10
8733.0
20
-921.0
30
0.0
10
8742.0
20
-927.0
30
0.0
10
8756.0
20
-938.0
30
0.0
10
8773.0
20
-954.0
30
0.0
10
8792.0
20
-973.0
30
0.0
10
8811.0
20
-996.0
30
0.0
10
8829.0
20
-1024.0
30
0.0
10
8848.0
20
-1063.0
30
0.0
10
8863.0
20
-1104.0
30
0.0
10
8875.0
20
-1146.0
30
0.0
10
8884.0
20
-1183.0
30
0.0
10
8890.0
20
-1214.0
30
0.0
10
8893.0
20
-1235.0
30
0.0
10
8894.0
20
-1243.0
30
0.0
10
8893.0
20
-1246.0
30
0.0
10
8889.0
20
-1254.0
30
0.0
10
8885.0
20
-1268.0
30
0.0
10
8880.0
20
-1287.0
30
0.0
10
8875.0
20
-1308.0
30
0.0
10
8872.0
20
-1334.0
30
0.0
10
8872.0
20
-1361.0
30
0.0
10
8875.0
20
-1399.0
30
0.0
10
8882.0
20
-1437.0
30
0.0
10
8891.0
20
-1474.0
30
0.0
10
8900.0
20
-1506.0
30
0.0
10
8909.0
20
-1532.0
30
0.0
10
8915.0
20
-1549.0
30
0.0
10
8918.0
20
-1556.0
30
0.0
10
8814.0
20
-1784.0
30
0.0
10
8830.0
20
-1873.0
30
0.0
10
8791.0
20
-1925.0
30
0.0
10
8842.0
20
-2164.0
30
0.0
10
8842.0
20
-2244.0
30
0.0
10
8798.0
20
-2318.0
30
0.0
10
8797.0
20
-2319.0
30
0.0
10
8793.0
20
-2321.0
30
0.0
10
8787.0
20
-2324.0
30
0.0
10
8780.0
20
-2329.0
30
0.0
10
8772.0
20
-2334.0
30
0.0
10
8763.0
20
-2341.0
30
0.0
10
8756.0
20
-2350.0
30
0.0
10
8743.0
20
-2369.0
30
0.0
10
8733.0
20
-2393.0
30
0.0
10
8726.0
20
-2419.0
30
0.0
10
8722.0
20
-2449.0
30
0.0
10
8718.0
20
-2480.0
30
0.0
10
8716.0
20
-2512.0
30
0.0
10
8714.0
20
-2545.0
30
0.0
10
8712.0
20
-2580.0
30
0.0
10
8710.0
20
-2614.0
30
0.0
10
8708.0
20
-2649.0
30
0.0
10
8706.0
20
-2682.0
30
0.0
10
8705.0
20
-2715.0
30
0.0
10
8704.0
20
-2748.0
30
0.0
10
8703.0
20
-2779.0
30
0.0
10
8703.0
20
-2807.0
30
0.0
10
8703.0
20
-2835.0
30
0.0
10
8704.0
20
-2862.0
30
0.0
10
8704.0
20
-2889.0
30
0.0
10
8704.0
20
-2917.0
30
0.0
10
8704.0
20
-2945.0
30
0.0
10
8704.0
20
-2973.0
30
0.0
10
8703.0
20
-3006.0
30
0.0
10
8702.0
20
-3040.0
30
0.0
10
8701.0
20
-3075.0
30
0.0
10
8699.0
20
-3111.0
30
0.0
10
8698.0
20
-3146.0
30
0.0
10
8696.0
20
-3182.0
30
0.0
10
8695.0
20
-3218.0
30
0.0
10
8694.0
20
-3254.0
30
0.0
10
8694.0
20
-3290.0
30
0.0
10
8694.0
20
-3325.0
30
0.0
10
8694.0
20
-3360.0
30
0.0
10
8695.0
20
-3395.0
30
0.0
10
8696.0
20
-3429.0
30
0.0
10
8697.0
20
-3463.0
30
0.0
10
8699.0
20
-3495.0
30
0.0
10
8700.0
20
-3526.0
30
0.0
10
8702.0
20
-3557.0
30
0.0
10
8704.0
20
-3589.0
30
0.0
10
8706.0
20
-3620.0
30
0.0
10
8708.0
20
-3651.0
30
0.0
10
8711.0
20
-3683.0
30
0.0
10
8712.0
20
-3706.0
30
0.0
10
8714.0
20
-3727.0
30
0.0
10
8716.0
20
-3747.0
30
0.0
10
8717.0
20
-3764.0
30
0.0
10
8719.0
20
-3778.0
30
0.0
10
8719.0
20
-3786.0
30
0.0
10
8720.0
20
-3789.0
30
0.0
10
8721.0
20
-3790.0
30
0.0
10
8726.0
20
-3793.0
30
0.0
10
8734.0
20
-3797.0
30
0.0
10
8742.0
20
-3802.0
30
0.0
10
8751.0
20
-3808.0
30
0.0
10
8760.0
20
-3816.0
30
0.0
10
8767.0
20
-3824.0
30
0.0
10
8775.0
20
-3839.0
30
0.0
10
8778.0
20
-3856.0
30
0.0
10
8778.0
20
-3875.0
30
0.0
10
8776.0
20
-3896.0
30
0.0
10
8774.0
20
-3918.0
30
0.0
10
8772.0
20
-3943.0
30
0.0
10
8773.0
20
-3969.0
30
0.0
10
8779.0
20
-4012.0
30
0.0
10
8792.0
20
-4058.0
30
0.0
10
8808.0
20
-4105.0
30
0.0
10
8828.0
20
-4153.0
30
0.0
10
8849.0
20
-4199.0
30
0.0
10
8869.0
20
-4243.0
30
0.0
10
8888.0
20
-4284.0
30
0.0
10
8899.0
20
-4310.0
30
0.0
10
8910.0
20
-4334.0
30
0.0
10
8920.0
20
-4357.0
30
0.0
10
8930.0
20
-4378.0
30
0.0
10
8941.0
20
-4398.0
30
0.0
10
8954.0
20
-4417.0
30
0.0
10
8968.0
20
-4436.0
30
0.0
10
8981.0
20
-4451.0
30
0.0
10
8995.0
20
-4464.0
30
0.0
10
9008.0
20
-4477.0
30
0.0
10
9020.0
20
-4488.0
30
0.0
10
9030.0
20
-4496.0
30
0.0
10
9037.0
20
-4502.0
30
0.0
10
9039.0
20
-4504.0
30
0.0
10
9040.0
20
-4508.0
30
0.0
10
9042.0
20
-4522.0
30
0.0
10
9046.0
20
-4541.0
30
0.0
10
9051.0
20
-4566.0
30
0.0
10
9056.0
20
-4594.0
30
0.0
10
9063.0
20
-4623.0
30
0.0
10
9070.0
20
-4653.0
30
0.0
10
9080.0
20
-4685.0
30
0.0
10
9090.0
20
-4716.0
30
0.0
10
9099.0
20
-4745.0
30
0.0
10
9108.0
20
-4774.0
30
0.0
10
9116.0
20
-4804.0
30
0.0
10
9122.0
20
-4834.0
30
0.0
10
9125.0
20
-4867.0
30
0.0
10
9127.0
20
-4895.0
30
0.0
10
9126.0
20
-4923.0
30
0.0
10
9125.0
20
-4950.0
30
0.0
10
9124.0
20
-4974.0
30
0.0
10
9122.0
20
-4993.0
30
0.0
10
9121.0
20
-5005.0
30
0.0
10
9120.0
20
-5010.0
30
0.0
10
9119.0
20
-5013.0
30
0.0
10
9115.0
20
-5021.0
30
0.0
10
9110.0
20
-5033.0
30
0.0
10
9105.0
20
-5049.0
30
0.0
10
9099.0
20
-5067.0
30
0.0
10
9093.0
20
-5086.0
30
0.0
10
9089.0
20
-5106.0
30
0.0
10
9087.0
20
-5131.0
30
0.0
10
9087.0
20
-5156.0
30
0.0
10
9090.0
20
-5180.0
30
0.0
10
9094.0
20
-5204.0
30
0.0
10
9100.0
20
-5226.0
30
0.0
10
9106.0
20
-5249.0
30
0.0
10
9112.0
20
-5270.0
30
0.0
10
9118.0
20
-5289.0
30
0.0
10
9122.0
20
-5307.0
30
0.0
10
9126.0
20
-5325.0
30
0.0
10
9129.0
20
-5343.0
30
0.0
10
9131.0
20
-5362.0
30
0.0
10
9131.0
20
-5380.0
30
0.0
10
9130.0
20
-5399.0
30
0.0
10
9125.0
20
-5424.0
30
0.0
10
9119.0
20
-5450.0
30
0.0
10
9111.0
20
-5477.0
30
0.0
10
9102.0
20
-5505.0
30
0.0
10
9094.0
20
-5535.0
30
0.0
10
9087.0
20
-5566.0
30
0.0
10
9082.0
20
-5599.0
30
0.0
10
9079.0
20
-5644.0
30
0.0
10
9080.0
20
-5691.0
30
0.0
10
9084.0
20
-5740.0
30
0.0
10
9090.0
20
-5789.0
30
0.0
10
9098.0
20
-5839.0
30
0.0
10
9106.0
20
-5889.0
30
0.0
10
9114.0
20
-5938.0
30
0.0
10
9120.0
20
-5981.0
30
0.0
10
9126.0
20
-6024.0
30
0.0
10
9131.0
20
-6066.0
30
0.0
10
9136.0
20
-6107.0
30
0.0
10
9141.0
20
-6148.0
30
0.0
10
9147.0
20
-6188.0
30
0.0
10
9153.0
20
-6229.0
30
0.0
10
9161.0
20
-6270.0
30
0.0
10
9169.0
20
-6312.0
30
0.0
10
9178.0
20
-6354.0
30
0.0
10
9188.0
20
-6397.0
30
0.0
10
9198.0
20
-6440.0
30
0.0
10
9208.0
20
-6483.0
30
0.0
10
9218.0
20
-6527.0
30
0.0
10
9228.0
20
-6572.0
30
0.0
10
9238.0
20
-6617.0
30
0.0
10
9248.0
20
-6662.0
30
0.0
10
9259.0
20
-6707.0
30
0.0
10
9270.0
20
-6751.0
30
0.0
10
9282.0
20
-6794.0
30
0.0
10
9295.0
20
-6836.0
30
0.0
10
9304.0
20
-6860.0
30
0.0
10
9313.0
20
-6884.0
30
0.0
10
9321.0
20
-6905.0
30
0.0
10
9329.0
20
-6922.0
30
0.0
10
9335.0
20
-6936.0
30
0.0
10
9338.0
20
-6945.0
30
0.0
10
9340.0
20
-6948.0
30
0.0
10
9353.0
20
-7022.0
30
0.0
10
9353.0
20
-7029.0
30
0.0
10
9355.0
20
-7047.0
30
0.0
10
9357.0
20
-7074.0
30
0.0
10
9360.0
20
-7107.0
30
0.0
10
9362.0
20
-7144.0
30
0.0
10
9365.0
20
-7181.0
30
0.0
10
9367.0
20
-7216.0
30
0.0
10
9368.0
20
-7247.0
30
0.0
10
9369.0
20
-7275.0
30
0.0
10
9370.0
20
-7300.0
30
0.0
10
9370.0
20
-7325.0
30
0.0
10
9371.0
20
-7352.0
30
0.0
10
9371.0
20
-7381.0
30
0.0
10
9372.0
20
-7414.0
30
0.0
10
9374.0
20
-7455.0
30
0.0
10
9376.0
20
-7500.0
30
0.0
10
9378.0
20
-7545.0
30
0.0
10
9380.0
20
-7586.0
30
0.0
10
9382.0
20
-7620.0
30
0.0
10
9384.0
20
-7642.0
30
0.0
10
9384.0
20
-7651.0
30
0.0
10
9380.0
20
-7653.0
30
0.0
10
9371.0
20
-7658.0
30
0.0
10
9355.0
20
-7666.0
30
0.0
10
9337.0
20
-7676.0
30
0.0
10
9315.0
20
-7687.0
30
0.0
10
9292.0
20
-7699.0
30
0.0
10
9268.0
20
-7710.0
30
0.0
10
9242.0
20
-7721.0
30
0.0
10
9216.0
20
-7732.0
30
0.0
10
9192.0
20
-7741.0
30
0.0
10
9169.0
20
-7751.0
30
0.0
10
9147.0
20
-7762.0
30
0.0
10
9125.0
20
-7775.0
30
0.0
10
9105.0
20
-7790.0
30
0.0
10
9083.0
20
-7809.0
30
0.0
10
9063.0
20
-7830.0
30
0.0
10
9043.0
20
-7854.0
30
0.0
10
9023.0
20
-7879.0
30
0.0
10
9005.0
20
-7905.0
30
0.0
10
8987.0
20
-7930.0
30
0.0
10
8971.0
20
-7955.0
30
0.0
10
8961.0
20
-7970.0
30
0.0
10
8952.0
20
-7983.0
30
0.0
10
8944.0
20
-7995.0
30
0.0
10
8937.0
20
-8005.0
30
0.0
10
8931.0
20
-8012.0
30
0.0
10
8928.0
20
-8017.0
30
0.0
10
8927.0
20
-8019.0
30
0.0
10
8921.0
20
-8017.0
30
0.0
10
8906.0
20
-8013.0
30
0.0
10
8884.0
20
-8006.0
30
0.0
10
8856.0
20
-7997.0
30
0.0
10
8825.0
20
-7987.0
30
0.0
10
8793.0
20
-7975.0
30
0.0
10
8763.0
20
-7963.0
30
0.0
10
8733.0
20
-7951.0
30
0.0
10
8707.0
20
-7938.0
30
0.0
10
8682.0
20
-7927.0
30
0.0
10
8657.0
20
-7916.0
30
0.0
10
8631.0
20
-7907.0
30
0.0
10
8603.0
20
-7899.0
30
0.0
10
8572.0
20
-7894.0
30
0.0
10
8526.0
20
-7890.0
30
0.0
10
8475.0
20
-7889.0
30
0.0
10
8422.0
20
-7890.0
30
0.0
10
8369.0
20
-7892.0
30
0.0
10
8319.0
20
-7893.0
30
0.0
10
8275.0
20
-7893.0
30
0.0
10
8240.0
20
-7891.0
30
0.0
10
8229.0
20
-7889.0
30
0.0
10
8219.0
20
-7887.0
30
0.0
10
8210.0
20
-7884.0
30
0.0
10
8202.0
20
-7882.0
30
0.0
10
8195.0
20
-7881.0
30
0.0
10
8188.0
20
-7880.0
30
0.0
10
8181.0
20
-7880.0
30
0.0
10
8173.0
20
-7881.0
30
0.0
10
8164.0
20
-7883.0
30
0.0
10
8154.0
20
-7886.0
30
0.0
10
8144.0
20
-7890.0
30
0.0
10
8133.0
20
-7893.0
30
0.0
10
8121.0
20
-7896.0
30
0.0
10
8108.0
20
-7897.0
30
0.0
10
8088.0
20
-7898.0
30
0.0
10
8066.0
20
-7896.0
30
0.0
10
8043.0
20
-7893.0
30
0.0
10
8020.0
20
-7889.0
30
0.0
10
7995.0
20
-7885.0
30
0.0
10
7971.0
20
-7881.0
30
0.0
10
7946.0
20
-7879.0
30
0.0
10
7920.0
20
-7878.0
30
0.0
10
7894.0
20
-7879.0
30
0.0
10
7868.0
20
-7882.0
30
0.0
10
7842.0
20
-7886.0
30
0.0
10
7816.0
20
-7892.0
30
0.0
10
7789.0
20
-7899.0
30
0.0
10
7762.0
20
-7907.0
30
0.0
10
7731.0
20
-7916.0
30
0.0
10
7700.0
20
-7926.0
30
0.0
10
7669.0
20
-7936.0
30
0.0
10
7637.0
20
-7947.0
30
0.0
10
7605.0
20
-7959.0
30
0.0
10
7574.0
20
-7971.0
30
0.0
10
7543.0
20
-7982.0
30
0.0
10
7516.0
20
-7993.0
30
0.0
10
7489.0
20
-8004.0
30
0.0
10
7462.0
20
-8013.0
30
0.0
10
7436.0
20
-8021.0
30
0.0
10
7409.0
20
-8026.0
30
0.0
10
7383.0
20
-8030.0
30
0.0
10
7356.0
20
-8030.0
30
0.0
10
7329.0
20
-8026.0
30
0.0
10
7302.0
20
-8020.0
30
0.0
10
7274.0
20
-8013.0
30
0.0
10
7246.0
20
-8004.0
30
0.0
10
7218.0
20
-7997.0
30
0.0
10
7189.0
20
-7991.0
30
0.0
10
7160.0
20
-7987.0
30
0.0
10
7130.0
20
-7988.0
30
0.0
10
7099.0
20
-7991.0
30
0.0
10
7069.0
20
-7997.0
30
0.0
10
7038.0
20
-8005.0
30
0.0
10
7008.0
20
-8014.0
30
0.0
10
6978.0
20
-8023.0
30
0.0
10
6948.0
20
-8031.0
30
0.0
10
6920.0
20
-8038.0
30
0.0
10
6892.0
20
-8044.0
30
0.0
10
6864.0
20
-8049.0
30
0.0
10
6837.0
20
-8053.0
30
0.0
10
6809.0
20
-8057.0
30
0.0
10
6781.0
20
-8061.0
30
0.0
10
6753.0
20
-8065.0
30
0.0
10
6721.0
20
-8070.0
30
0.0
10
6688.0
20
-8076.0
30
0.0
10
6656.0
20
-8085.0
30
0.0
10
6623.0
20
-8097.0
30
0.0
10
6591.0
20
-8113.0
30
0.0
10
6559.0
20
-8135.0
30
0.0
10
6529.0
20
-8163.0
30
0.0
10
6498.0
20
-8200.0
30
0.0
10
6470.0
20
-8240.0
30
0.0
10
6445.0
20
-8281.0
30
0.0
10
6424.0
20
-8320.0
30
0.0
10
6408.0
20
-8352.0
30
0.0
10
6397.0
20
-8374.0
30
0.0
10
6393.0
20
-8382.0
30
0.0
10
6221.0
20
-8378.0
30
0.0
10
6128.0
20
-8394.0
30
0.0
10
6053.0
20
-8317.0
30
0.0
10
6049.0
20
-8317.0
30
0.0
10
6037.0
20
-8318.0
30
0.0
10
6020.0
20
-8319.0
30
0.0
10
5998.0
20
-8320.0
30
0.0
10
5973.0
20
-8321.0
30
0.0
10
5947.0
20
-8321.0
30
0.0
10
5922.0
20
-8320.0
30
0.0
10
5897.0
20
-8319.0
30
0.0
10
5873.0
20
-8316.0
30
0.0
10
5851.0
20
-8313.0
30
0.0
10
5830.0
20
-8310.0
30
0.0
10
5809.0
20
-8308.0
30
0.0
10
5789.0
20
-8305.0
30
0.0
10
5767.0
20
-8304.0
30
0.0
10
5743.0
20
-8304.0
30
0.0
10
5718.0
20
-8305.0
30
0.0
10
5692.0
20
-8306.0
30
0.0
10
5665.0
20
-8308.0
30
0.0
10
5637.0
20
-8310.0
30
0.0
10
5610.0
20
-8312.0
30
0.0
10
5582.0
20
-8312.0
30
0.0
10
5553.0
20
-8311.0
30
0.0
10
5524.0
20
-8310.0
30
0.0
10
5496.0
20
-8308.0
30
0.0
10
5467.0
20
-8306.0
30
0.0
10
5439.0
20
-8305.0
30
0.0
10
5411.0
20
-8306.0
30
0.0
10
5383.0
20
-8309.0
30
0.0
10
5355.0
20
-8314.0
30
0.0
10
5329.0
20
-8320.0
30
0.0
10
5302.0
20
-8327.0
30
0.0
10
5275.0
20
-8334.0
30
0.0
10
5249.0
20
-8340.0
30
0.0
10
5224.0
20
-8344.0
30
0.0
10
5198.0
20
-8345.0
30
0.0
10
5173.0
20
-8343.0
30
0.0
10
5148.0
20
-8338.0
30
0.0
10
5124.0
20
-8330.0
30
0.0
10
5099.0
20
-8320.0
30
0.0
10
5074.0
20
-8308.0
30
0.0
10
5048.0
20
-8295.0
30
0.0
10
5022.0
20
-8281.0
30
0.0
10
4992.0
20
-8265.0
30
0.0
10
4961.0
20
-8249.0
30
0.0
10
4929.0
20
-8233.0
30
0.0
10
4898.0
20
-8217.0
30
0.0
10
4868.0
20
-8201.0
30
0.0
10
4838.0
20
-8185.0
30
0.0
10
4809.0
20
-8169.0
30
0.0
10
4786.0
20
-8156.0
30
0.0
10
4764.0
20
-8144.0
30
0.0
10
4742.0
20
-8132.0
30
0.0
10
4720.0
20
-8122.0
30
0.0
10
4698.0
20
-8113.0
30
0.0
10
4675.0
20
-8106.0
30
0.0
10
4652.0
20
-8100.0
30
0.0
10
4623.0
20
-8097.0
30
0.0
10
4594.0
20
-8096.0
30
0.0
10
4564.0
20
-8097.0
30
0.0
10
4533.0
20
-8101.0
30
0.0
10
4502.0
20
-8107.0
30
0.0
10
4471.0
20
-8114.0
30
0.0
10
4441.0
20
-8124.0
30
0.0
10
4413.0
20
-8134.0
30
0.0
10
4386.0
20
-8146.0
30
0.0
10
4359.0
20
-8159.0
30
0.0
10
4334.0
20
-8172.0
30
0.0
10
4308.0
20
-8186.0
30
0.0
10
4283.0
20
-8199.0
30
0.0
10
4258.0
20
-8211.0
30
0.0
10
4233.0
20
-8223.0
30
0.0
10
4208.0
20
-8234.0
30
0.0
10
4183.0
20
-8245.0
30
0.0
10
4158.0
20
-8257.0
30
0.0
10
4132.0
20
-8270.0
30
0.0
10
4105.0
20
-8285.0
30
0.0
10
4078.0
20
-8303.0
30
0.0
10
4055.0
20
-8320.0
30
0.0
10
4033.0
20
-8339.0
30
0.0
10
4012.0
20
-8356.0
30
0.0
10
3993.0
20
-8373.0
30
0.0
10
3979.0
20
-8386.0
30
0.0
10
3970.0
20
-8395.0
30
0.0
10
3966.0
20
-8398.0
30
0.0
10
3963.0
20
-8400.0
30
0.0
10
3955.0
20
-8405.0
30
0.0
10
3942.0
20
-8414.0
30
0.0
10
3926.0
20
-8425.0
30
0.0
10
3908.0
20
-8437.0
30
0.0
10
3887.0
20
-8451.0
30
0.0
10
3866.0
20
-8465.0
30
0.0
10
3845.0
20
-8478.0
30
0.0
10
3825.0
20
-8491.0
30
0.0
10
3806.0
20
-8503.0
30
0.0
10
3791.0
20
-8513.0
30
0.0
10
3778.0
20
-8521.0
30
0.0
10
3770.0
20
-8526.0
30
0.0
10
3767.0
20
-8528.0
30
0.0
10
3628.0
20
-8559.0
30
0.0
10
3445.0
20
-8582.0
30
0.0
10
3447.0
20
-8574.0
30
0.0
10
3450.0
20
-8551.0
30
0.0
10
3453.0
20
-8518.0
30
0.0
10
3455.0
20
-8478.0
30
0.0
10
3455.0
20
-8435.0
30
0.0
10
3451.0
20
-8393.0
30
0.0
10
3441.0
20
-8356.0
30
0.0
10
3427.0
20
-8329.0
30
0.0
10
3408.0
20
-8307.0
30
0.0
10
3386.0
20
-8290.0
30
0.0
10
3361.0
20
-8277.0
30
0.0
10
3336.0
20
-8265.0
30
0.0
10
3310.0
20
-8254.0
30
0.0
10
3287.0
20
-8242.0
30
0.0
10
3266.0
20
-8229.0
30
0.0
10
3247.0
20
-8216.0
30
0.0
10
3229.0
20
-8202.0
30
0.0
10
3210.0
20
-8189.0
30
0.0
10
3190.0
20
-8177.0
30
0.0
10
3167.0
20
-8168.0
30
0.0
10
3142.0
20
-8161.0
30
0.0
10
3114.0
20
-8158.0
30
0.0
10
3084.0
20
-8158.0
30
0.0
10
3055.0
20
-8160.0
30
0.0
10
3028.0
20
-8163.0
30
0.0
10
3007.0
20
-8166.0
30
0.0
10
2992.0
20
-8168.0
30
0.0
10
2987.0
20
-8169.0
30
0.0
10
2989.0
20
-8164.0
30
0.0
10
2994.0
20
-8151.0
30
0.0
10
3002.0
20
-8133.0
30
0.0
10
3010.0
20
-8110.0
30
0.0
10
3018.0
20
-8085.0
30
0.0
10
3024.0
20
-8059.0
30
0.0
10
3027.0
20
-8036.0
30
0.0
10
3028.0
20
-8022.0
30
0.0
10
3027.0
20
-8010.0
30
0.0
10
3024.0
20
-8000.0
30
0.0
10
3019.0
20
-7991.0
30
0.0
10
3014.0
20
-7985.0
30
0.0
10
3007.0
20
-7980.0
30
0.0
10
2999.0
20
-7978.0
30
0.0
10
2988.0
20
-7978.0
30
0.0
10
2975.0
20
-7981.0
30
0.0
10
2962.0
20
-7986.0
30
0.0
10
2949.0
20
-7993.0
30
0.0
10
2936.0
20
-8001.0
30
0.0
10
2923.0
20
-8010.0
30
0.0
10
2911.0
20
-8020.0
30
0.0
10
2901.0
20
-8030.0
30
0.0
10
2891.0
20
-8040.0
30
0.0
10
2883.0
20
-8050.0
30
0.0
10
2875.0
20
-8060.0
30
0.0
10
2867.0
20
-8071.0
30
0.0
10
2859.0
20
-8081.0
30
0.0
10
2851.0
20
-8092.0
30
0.0
10
2841.0
20
-8106.0
30
0.0
10
2830.0
20
-8119.0
30
0.0
10
2817.0
20
-8131.0
30
0.0
10
2802.0
20
-8141.0
30
0.0
10
2785.0
20
-8149.0
30
0.0
10
2765.0
20
-8154.0
30
0.0
10
2741.0
20
-8156.0
30
0.0
10
2703.0
20
-8151.0
30
0.0
10
2661.0
20
-8140.0
30
0.0
10
2618.0
20
-8125.0
30
0.0
10
2579.0
20
-8110.0
30
0.0
10
2547.0
20
-8096.0
30
0.0
10
2525.0
20
-8086.0
30
0.0
10
2517.0
20
-8082.0
30
0.0
10
2515.0
20
-8077.0
30
0.0
10
2510.0
20
-8062.0
30
0.0
10
2503.0
20
-8041.0
30
0.0
10
2493.0
20
-8014.0
30
0.0
10
2482.0
20
-7984.0
30
0.0
10
2469.0
20
-7953.0
30
0.0
10
2456.0
20
-7923.0
30
0.0
10
2442.0
20
-7892.0
30
0.0
10
2427.0
20
-7864.0
30
0.0
10
2412.0
20
-7837.0
30
0.0
10
2398.0
20
-7813.0
30
0.0
10
2382.0
20
-7790.0
30
0.0
10
2367.0
20
-7767.0
30
0.0
10
2351.0
20
-7745.0
30
0.0
10
2335.0
20
-7723.0
30
0.0
10
2318.0
20
-7701.0
30
0.0
10
2300.0
20
-7680.0
30
0.0
10
2280.0
20
-7660.0
30
0.0
10
2257.0
20
-7642.0
30
0.0
10
2232.0
20
-7626.0
30
0.0
10
2204.0
20
-7613.0
30
0.0
10
2177.0
20
-7604.0
30
0.0
10
2150.0
20
-7598.0
30
0.0
10
2123.0
20
-7593.0
30
0.0
10
2100.0
20
-7590.0
30
0.0
10
2080.0
20
-7588.0
30
0.0
10
2068.0
20
-7587.0
30
0.0
10
2063.0
20
-7587.0
30
0.0
10
2061.0
20
-7582.0
30
0.0
10
2057.0
20
-7570.0
30
0.0
10
2048.0
20
-7552.0
30
0.0
10
2036.0
20
-7531.0
30
0.0
10
2020.0
20
-7507.0
30
0.0
10
2000.0
20
-7484.0
30
0.0
10
1975.0
20
-7463.0
30
0.0
10
1942.0
20
-7444.0
30
0.0
10
1906.0
20
-7429.0
30
0.0
10
1869.0
20
-7419.0
30
0.0
10
1836.0
20
-7412.0
30
0.0
10
1808.0
20
-7408.0
30
0.0
10
1789.0
20
-7406.0
30
0.0
10
1783.0
20
-7406.0
30
0.0
10
1785.0
20
-7402.0
30
0.0
10
1791.0
20
-7392.0
30
0.0
10
1799.0
20
-7376.0
30
0.0
10
1809.0
20
-7356.0
30
0.0
10
1818.0
20
-7332.0
30
0.0
10
1825.0
20
-7307.0
30
0.0
10
1829.0
20
-7280.0
30
0.0
10
1828.0
20
-7256.0
30
0.0
10
1825.0
20
-7233.0
30
0.0
10
1820.0
20
-7211.0
30
0.0
10
1814.0
20
-7193.0
30
0.0
10
1808.0
20
-7179.0
30
0.0
10
1804.0
20
-7170.0
30
0.0
10
1802.0
20
-7166.0
30
0.0
10
1700.0
20
-7096.0
30
0.0
10
1684.0
20
-6895.0
30
0.0
10
1682.0
20
-6772.0
30
0.0
10
1697.0
20
-6696.0
30
0.0
10
1609.0
20
-6438.0
30
0.0
10
1613.0
20
-6429.0
30
0.0
10
1624.0
20
-6404.0
30
0.0
10
1641.0
20
-6368.0
30
0.0
10
1661.0
20
-6323.0
30
0.0
10
1684.0
20
-6274.0
30
0.0
10
1707.0
20
-6225.0
30
0.0
10
1729.0
20
-6179.0
30
0.0
10
1745.0
20
-6147.0
30
0.0
10
1758.0
20
-6119.0
30
0.0
10
1770.0
20
-6094.0
30
0.0
10
1779.0
20
-6071.0
30
0.0
10
1786.0
20
-6049.0
30
0.0
10
1790.0
20
-6029.0
30
0.0
10
1791.0
20
-6008.0
30
0.0
10
1791.0
20
-5990.0
30
0.0
10
1788.0
20
-5972.0
30
0.0
10
1785.0
20
-5953.0
30
0.0
10
1780.0
20
-5935.0
30
0.0
10
1775.0
20
-5917.0
30
0.0
10
1769.0
20
-5900.0
30
0.0
10
1763.0
20
-5884.0
30
0.0
10
1758.0
20
-5871.0
30
0.0
10
1752.0
20
-5859.0
30
0.0
10
1747.0
20
-5847.0
30
0.0
10
1740.0
20
-5836.0
30
0.0
10
1732.0
20
-5825.0
30
0.0
10
1723.0
20
-5815.0
30
0.0
10
1712.0
20
-5805.0
30
0.0
10
1692.0
20
-5789.0
30
0.0
10
1667.0
20
-5773.0
30
0.0
10
1640.0
20
-5758.0
30
0.0
10
1610.0
20
-5743.0
30
0.0
10
1579.0
20
-5728.0
30
0.0
10
1547.0
20
-5714.0
30
0.0
10
1516.0
20
-5701.0
30
0.0
10
1497.0
20
-5693.0
30
0.0
10
1479.0
20
-5686.0
30
0.0
10
1463.0
20
-5679.0
30
0.0
10
1449.0
20
-5674.0
30
0.0
10
1438.0
20
-5669.0
30
0.0
10
1432.0
20
-5667.0
30
0.0
10
1429.0
20
-5666.0
30
0.0
10
1422.0
20
-5665.0
30
0.0
10
1402.0
20
-5664.0
30
0.0
10
1372.0
20
-5661.0
30
0.0
10
1335.0
20
-5659.0
30
0.0
10
1295.0
20
-5657.0
30
0.0
10
1253.0
20
-5656.0
30
0.0
10
1213.0
20
-5655.0
30
0.0
10
1178.0
20
-5656.0
30
0.0
10
1147.0
20
-5657.0
30
0.0
10
1119.0
20
-5660.0
30
0.0
10
1091.0
20
-5663.0
30
0.0
10
1065.0
20
-5666.0
30
0.0
10
1037.0
20
-5669.0
30
0.0
10
1008.0
20
-5672.0
30
0.0
10
972.0
20
-5674.0
30
0.0
10
933.0
20
-5675.0
30
0.0
10
893.0
20
-5675.0
30
0.0
10
853.0
20
-5673.0
30
0.0
10
813.0
20
-5669.0
30
0.0
10
775.0
20
-5662.0
30
0.0
10
740.0
20
-5652.0
30
0.0
10
712.0
20
-5642.0
30
0.0
10
687.0
20
-5629.0
30
0.0
10
664.0
20
-5613.0
30
0.0
10
641.0
20
-5596.0
30
0.0
10
620.0
20
-5578.0
30
0.0
10
599.0
20
-5557.0
30
0.0
10
577.0
20
-5535.0
30
0.0
10
560.0
20
-5518.0
30
0.0
10
543.0
20
-5500.0
30
0.0
10
527.0
20
-5483.0
30
0.0
10
513.0
20
-5468.0
30
0.0
10
503.0
20
-5457.0
30
0.0
10
495.0
20
-5449.0
30
0.0
10
493.0
20
-5446.0
30
0.0
10
491.0
20
-5443.0
30
0.0
10
488.0
20
-5435.0
30
0.0
10
482.0
20
-5421.0
30
0.0
10
474.0
20
-5403.0
30
0.0
10
465.0
20
-5381.0
30
0.0
10
454.0
20
-5357.0
30
0.0
10
443.0
20
-5330.0
30
0.0
10
429.0
20
-5296.0
30
0.0
10
415.0
20
-5261.0
30
0.0
10
402.0
20
-5228.0
30
0.0
10
391.0
20
-5199.0
30
0.0
10
382.0
20
-5175.0
30
0.0
10
376.0
20
-5160.0
30
0.0
10
374.0
20
-5154.0
30
0.0
10
559.0
20
-5124.0
30
0.0
6
Solid
370
35
62
0
0
LWPOLYLINE
5
dcc
100
AcDbEntity
100
AcDbPolyline
90
6
70
1
10
8725.0
20
-6831.0
30
0.0
10
8620.0
20
-6938.0
30
0.0
10
8484.0
20
-6908.0
30
0.0
10
8512.0
20
-6836.0
30
0.0
10
8589.0
20
-6774.0
30
0.0
10
8725.0
20
-6831.0
30
0.0
6
Solid
370
35
62
0
0
LWPOLYLINE
5
dce
100
AcDbEntity
100
AcDbPolyline
90
5
70
1
10
7081.0
20
-4494.0
30
0.0
10
7110.0
20
-4566.0
30
0.0
10
7014.0
20
-4592.0
30
0.0
10
6987.0
20
-4500.0
30
0.0
10
7081.0
20
-4494.0
30
0.0
6
Solid
370
35
62
0
0
LWPOLYLINE
5
dd0
100
AcDbEntity
100
AcDbPolyline
90
5
70
1
10
2756.0
20
-4890.0
30
0.0
10
2753.0
20
-4968.0
30
0.0
10
2680.0
20
-4963.0
30
0.0
10
2688.0
20
-4877.0
30
0.0
10
2756.0
20
-4890.0
30
0.0
6
Solid
370
35
62
0
0
LWPOLYLINE
5
dd2
100
AcDbEntity
100
AcDbPolyline
90
5
70
1
10
2784.0
20
-3960.0
30
0.0
10
2739.0
20
-4014.0
30
0.0
10
2647.0
20
-4025.0
30
0.0
10
2677.0
20
-3951.0
30
0.0
10
2784.0
20
-3960.0
30
0.0
6
Solid
370
35
62
0
0
LWPOLYLINE
5
dd4
100
AcDbEntity
100
AcDbPolyline
90
4
70
1
10
672.0
20
-4170.0
30
0.0
10
707.0
20
-4248.0
30
0.0
10
669.0
20
-4224.0
30
0.0
10
672.0
20
-4170.0
30
0.0
6
Solid
370
35
62
0
0
LWPOLYLINE
5
dd6
100
AcDbEntity
100
AcDbPolyline
90
5
70
1
10
705.0
20
-4508.0
30
0.0
10
742.0
20
-4543.0
30
0.0
10
705.0
20
-4588.0
30
0.0
10
655.0
20
-4529.0
30
0.0
10
705.0
20
-4508.0
30
0.0
6
Solid
370
35
62
0
0
LWPOLYLINE
5
dd9
100
AcDbEntity
8
zone_0_q2
100
AcDbPolyline
90
54
70
1
10
5510.0
20
-857.0
30
0.0
10
5575.0
20
-924.0
30
0.0
10
5685.0
20
-1007.0
30
0.0
10
5940.0
20
-1130.0
30
0.0
10
6098.0
20
-1275.0
30
0.0
10
6403.0
20
-1331.0
30
0.0
10
6697.0
20
-1336.0
30
0.0
10
6913.0
20
-1381.0
30
0.0
10
7194.0
20
-1614.0
30
0.0
10
7204.0
20
-1914.0
30
0.0
10
7060.0
20
-2120.0
30
0.0
10
6743.0
20
-2217.0
30
0.0
10
6296.0
20
-2334.0
30
0.0
10
5996.0
20
-2330.0
30
0.0
10
5668.0
20
-2254.0
30
0.0
10
5382.0
20
-2203.0
30
0.0
10
5208.0
20
-2060.0
30
0.0
10
5010.0
20
-1873.0
30
0.0
10
4731.0
20
-1705.0
30
0.0
10
4455.0
20
-1630.0
30
0.0
10
4180.0
20
-1714.0
30
0.0
10
3807.0
20
-1812.0
30
0.0
10
3593.0
20
-1653.0
30
0.0
10
3550.0
20
-1533.0
30
0.0
10
3537.0
20
-1272.0
30
0.0
10
3541.0
20
-1274.0
30
0.0
10
3553.0
20
-1281.0
30
0.0
10
3574.0
20
-1289.0
30
0.0
10
3605.0
20
-1298.0
30
0.0
10
3645.0
20
-1304.0
30
0.0
10
3695.0
20
-1305.0
30
0.0
10
3756.0
20
-1300.0
30
0.0
10
3890.0
20
-1270.0
30
0.0
10
4046.0
20
-1220.0
30
0.0
10
4207.0
20
-1159.0
30
0.0
10
4358.0
20
-1096.0
30
0.0
10
4485.0
20
-1040.0
30
0.0
10
4572.0
20
-1000.0
30
0.0
10
4604.0
20
-985.0
30
0.0
10
4610.0
20
-989.0
30
0.0
10
4626.0
20
-1002.0
30
0.0
10
4652.0
20
-1019.0
30
0.0
10
4686.0
20
-1038.0
30
0.0
10
4726.0
20
-1056.0
30
0.0
10
4772.0
20
-1071.0
30
0.0
10
4822.0
20
-1079.0
30
0.0
10
4940.0
20
-1067.0
30
0.0
10
5063.0
20
-1024.0
30
0.0
10
5182.0
20
-960.0
30
0.0
10
5290.0
20
-889.0
30
0.0
10
5377.0
20
-823.0
30
0.0
10
5436.0
20
-774.0
30
0.0
10
5457.0
20
-755.0
30
0.0
10
5510.0
20
-857.0
30
0.0
6
Solid
370
35
62
2
0
LWPOLYLINE
5
ddc
100
AcDbEntity
8
zone_1_q3
100
AcDbPolyline
90
5
70
1
10
7954.0
20
-7170.0
30
0.0
10
8103.0
20
-7818.0
30
0.0
10
7410.0
20
-7860.0
30
0.0
10
7280.0
20
-7261.0
30
0.0
10
7954.0
20
-7170.0
30
0.0
6
Solid
370
35
62
3
0
LWPOLYLINE
5
ddf
100
AcDbEntity
8
zone_2_q1
100
AcDbPolyline
90
5
70
1
10
7103.0
20
-3590.0
30
0.0
10
7093.0
20
-3650.0
30
0.0
10
7018.0
20
-3639.0
30
0.0
10
7046.0
20
-3596.0
30
0.0
10
7103.0
20
-3590.0
30
0.0
6
Solid
370
35
62
40
0
LWPOLYLINE
5
de2
100
AcDbEntity
8
zone_3_q3
100
AcDbPolyline
90
5
70
1
10
2735.0
20
-1740.0
30
0.0
10
2963.0
20
-2177.0
30
0.0
10
2401.0
20
-2293.0
30
0.0
10
2208.0
20
-1663.0
30
0.0
10
2735.0
20
-1740.0
30
0.0
6
Solid
370
35
62
3
0
LWPOLYLINE
5
de5
100
AcDbEntity
8
zone_4_q3
100
AcDbPolyline
90
5
70
1
10
3719.0
20
-8165.0
30
0.0
10
2995.0
20
-7967.0
30
0.0
10
3084.0
20
-7366.0
30
0.0
10
3788.0
20
-7331.0
30
0.0
10
3719.0
20
-8165.0
30
0.0
6
Solid
370
35
62
3
0
LWPOLYLINE
5
de8
100
AcDbEntity
8
zone_5_q2
100
AcDbPolyline
90
18
70
1
10
3963.0
20
-8284.0
30
0.0
10
3746.0
20
-8002.0
30
0.0
10
3854.0
20
-7932.0
30
0.0
10
3947.0
20
-7892.0
30
0.0
10
3967.0
20
-7583.0
30
0.0
10
4120.0
20
-7379.0
30
0.0
10
4331.0
20
-7425.0
30
0.0
10
4377.0
20
-7259.0
30
0.0
10
4800.0
20
-7228.0
30
0.0
10
5260.0
20
-7210.0
30
0.0
10
5654.0
20
-7149.0
30
0.0
10
6156.0
20
-7040.0
30
0.0
10
7087.0
20
-7041.0
30
0.0
10
7139.0
20
-7270.0
30
0.0
10
7184.0
20
-7533.0
30
0.0
10
7241.0
20
-7974.0
30
0.0
10
4027.0
20
-8111.0
30
0.0
10
3963.0
20
-8284.0
30
0.0
6
Solid
370
35
62
2
0
LWPOLYLINE
5
deb
100
AcDbEntity
8
zone_6_q3
100
AcDbPolyline
90
42
70
1
10
8185.0
20
-999.0
30
0.0
10
7294.0
20
-1085.0
30
0.0
10
7225.0
20
-212.0
30
0.0
10
7335.0
20
0.0
30
0.0
10
7343.0
20
0.0
30
0.0
10
7351.0
20
0.0
30
0.0
10
7359.0
20
-1.0
30
0.0
10
7366.0
20
-3.0
30
0.0
10
7374.0
20
-5.0
30
0.0
10
7381.0
20
-8.0
30
0.0
10
7388.0
20
-11.0
30
0.0
10
7405.0
20
-23.0
30
0.0
10
7420.0
20
-38.0
30
0.0
10
7433.0
20
-54.0
30
0.0
10
7443.0
20
-69.0
30
0.0
10
7450.0
20
-82.0
30
0.0
10
7455.0
20
-91.0
30
0.0
10
7456.0
20
-95.0
30
0.0
10
7535.0
20
-149.0
30
0.0
10
7673.0
20
-161.0
30
0.0
10
7680.0
20
-161.0
30
0.0
10
7699.0
20
-161.0
30
0.0
10
7726.0
20
-161.0
30
0.0
10
7760.0
20
-160.0
30
0.0
10
7797.0
20
-159.0
30
0.0
10
7833.0
20
-156.0
30
0.0
10
7867.0
20
-152.0
30
0.0
10
7893.0
20
-147.0
30
0.0
10
7915.0
20
-140.0
30
0.0
10
7935.0
20
-133.0
30
0.0
10
7953.0
20
-123.0
30
0.0
10
7971.0
20
-113.0
30
0.0
10
7990.0
20
-101.0
30
0.0
10
8011.0
20
-87.0
30
0.0
10
8034.0
20
-73.0
30
0.0
10
8058.0
20
-58.0
30
0.0
10
8081.0
20
-43.0
30
0.0
10
8103.0
20
-30.0
30
0.0
10
8120.0
20
-19.0
30
0.0
10
8132.0
20
-12.0
30
0.0
10
8136.0
20
-10.0
30
0.0
10
8185.0
20
-999.0
30
0.0
6
Solid
370
35
62
3
0
ENDSEC
0
SECTION
2
OBJECTS
0
DICTIONARY
5
dc8
330
0
100
AcDbDictionary
281
1
3
ACAD_GROUP
350
dc9
0
DICTIONARY
5
dc9
330
dc8
100
AcDbDictionary
281
1
0
ENDSEC
0
EOF
