999

0
SECTION
2
HEADER
9
$ACADVER
1
AC1021
9
$HANDSEED
5
e36
0
ENDSEC
0
SECTION
2
CLASSES
0
ENDSEC
0
SECTION
2
TABLES
0
TABLE
2
VPORT
5
dee
100
AcDbSymbolTable
70
1
0
VPORT
5
ded
100
AcDbSymbolTableRecord
100
AcDbViewportTableRecord
2
*ACTIVE
10
0
20
0
11
1
21
1
12
500.0
22
500.0
40
1000.0
70
0
0
ENDTAB
0
TABLE
2
LTYPE
5
def
100
AcDbSymbolTable
70
3
0
LTYPE
5
df7
100
AcDbSymbolTableRecord
100
AcDbLinetypeTableRecord
2
Solid
70
0
72
65
73
0
3

0
LTYPE
5
df8
100
AcDbSymbolTableRecord
100
AcDbLinetypeTableRecord
2
ByBlock
70
0
72
65
73
0
3

0
LTYPE
5
df9
100
AcDbSymbolTableRecord
100
AcDbLinetypeTableRecord
2
ByLayer
70
0
72
65
73
0
3

0
ENDTAB
0
TABLE
2
LAYER
5
df0
100
AcDbSymbolTable
70
13
0
LAYER
5
dfa
100
AcDbSymbolTableRecord
100
AcDbLayerTableRecord
2
0
70
0
390
0
0
LAYER
5
e12
100
AcDbSymbolTableRecord
100
AcDbLayerTableRecord
2
zone_0_q2
70
0
390
0
0
LAYER
5
e15
100
AcDbSymbolTableRecord
100
AcDbLayerTableRecord
2
zone_1_q3
70
0
390
0
0
LAYER
5
e18
100
AcDbSymbolTableRecord
100
AcDbLayerTableRecord
2
zone_2_q2
70
0
390
0
0
LAYER
5
e1b
100
AcDbSymbolTableRecord
100
AcDbLayerTableRecord
2
zone_3_q2
70
0
390
0
0
LAYER
5
e1e
100
AcDbSymbolTableRecord
100
AcDbLayerTableRecord
2
zone_4_q3
70
0
390
0
0
LAYER
5
e21
100
AcDbSymbolTableRecord
100
AcDbLayerTableRecord
2
zone_5_q2
70
0
390
0
0
LAYER
5
e24
100
AcDbSymbolTableRecord
100
AcDbLayerTableRecord
2
zone_6_q2
70
0
390
0
0
LAYER
5
e27
100
AcDbSymbolTableRecord
100
AcDbLayerTableRecord
2
zone_7_q3
70
0
390
0
0
LAYER
5
e2a
100
AcDbSymbolTableRecord
100
AcDbLayerTableRecord
2
zone_8_q2
70
0
390
0
0
LAYER
5
e2d
100
AcDbSymbolTableRecord
100
AcDbLayerTableRecord
2
zone_9_q3
70
0
390
0
0
LAYER
5
e30
100
AcDbSymbolTableRecord
100
AcDbLayerTableRecord
2
zone_10_q2
70
0
390
0
0
LAYER
5
e33
100
AcDbSymbolTableRecord
100
AcDbLayerTableRecord
2
zone_11_q3
70
0
390
0
0
ENDTAB
0
TABLE
2
STYLE
5
df1
100
AcDbSymbolTable
70
0
0
ENDTAB
0
TABLE
2
VIEW
5
df2
100
AcDbSymbolTable
70
0
0
ENDTAB
0
TABLE
2
UCS
5
df3
100
AcDbSymbolTable
70
0
0
ENDTAB
0
TABLE
2
APPID
5
df4
100
AcDbSymbolTable
70
1
0
APPID
5
dfb
100
AcDbSymbolTableRecord
100
AcDbRegAppTableRecord
2
ACAD
70
0
0
ENDTAB
0
TABLE
2
DIMSTYLE
5
df5
100
AcDbSymbolTable
70
0
100
AcDbDimStyleTable
71
1
0
ENDTAB
0
TABLE
2
BLOCK_RECORD
5
df6
100
AcDbSymbolTable
70
2
0
BLOCK_RECORD
5
dfc
100
AcDbSymbolTableRecord
100
AcDbBlockTableRecord
2
*Model_Space
70
0
280
1
281
0
0
BLOCK_RECORD
5
dfd
100
AcDbSymbolTableRecord
100
AcDbBlockTableRecord
2
*Paper_Space
70
0
280
1
281
0
0
ENDTAB
0
ENDSEC
0
SECTION
2
BLOCKS
0
BLOCK
5
dfe
100
AcDbEntity
100
AcDbBlockBegin
2
*Model_Space
70
0
10
0
20
0
30
0
3
*Model_Space
1

0
ENDBLK
5
dff
100
AcDbEntity
100
AcDbBlockEnd
0
BLOCK
5
e00
100
AcDbEntity
100
AcDbBlockBegin
2
*Paper_Space
70
0
10
0
20
0
30
0
3
*Paper_Space
1

0
ENDBLK
5
e01
100
AcDbEntity
100
AcDbBlockEnd
0
ENDSEC
0
SECTION
2
ENTITIES
0
LWPOLYLINE
5
e04
100
AcDbEntity
100
AcDbPolyline
90
1884
70
1
10
2597.0
20
-1581.0
30
0.0
10
2600.0
20
-1591.0
30
0.0
10
2605.0
20
-1606.0
30
0.0
10
2612.0
20
-1624.0
30
0.0
10
2619.0
20
-1645.0
30
0.0
10
2627.0
20
-1665.0
30
0.0
10
2635.0
20
-1686.0
30
0.0
10
2641.0
20
-1699.0
30
0.0
10
2646.0
20
-1711.0
30
0.0
10
2651.0
20
-1722.0
30
0.0
10
2655.0
20
-1730.0
30
0.0
10
2658.0
20
-1737.0
30
0.0
10
2660.0
20
-1741.0
30
0.0
10
2661.0
20
-1742.0
30
0.0
10
2661.0
20
-1744.0
30
0.0
10
2661.0
20
-1748.0
30
0.0
10
2662.0
20
-1755.0
30
0.0
10
2664.0
20
-1763.0
30
0.0
10
2667.0
20
-1772.0
30
0.0
10
2671.0
20
-1781.0
30
0.0
10
2677.0
20
-1790.0
30
0.0
10
2685.0
20
-1798.0
30
0.0
10
2695.0
20
-1805.0
30
0.0
10
2705.0
20
-1810.0
30
0.0
10
2714.0
20
-1815.0
30
0.0
10
2722.0
20
-1818.0
30
0.0
10
2727.0
20
-1819.0
30
0.0
10
2729.0
20
-1820.0
30
0.0
10
2730.0
20
-1823.0
30
0.0
10
2731.0
20
-1831.0
30
0.0
10
2733.0
20
-1842.0
30
0.0
10
2736.0
20
-1856.0
30
0.0
10
2740.0
20
-1872.0
30
0.0
10
2746.0
20
-1889.0
30
0.0
10
2753.0
20
-1904.0
30
0.0
10
2765.0
20
-1923.0
30
0.0
10
2779.0
20
-1939.0
30
0.0
10
2795.0
20
-1953.0
30
0.0
10
2812.0
20
-1966.0
30
0.0
10
2830.0
20
-1979.0
30
0.0
10
2846.0
20
-1991.0
30
0.0
10
2862.0
20
-2004.0
30
0.0
10
2875.0
20
-2017.0
30
0.0
10
2886.0
20
-2030.0
30
0.0
10
2897.0
20
-2044.0
30
0.0
10
2908.0
20
-2057.0
30
0.0
10
2920.0
20
-2070.0
30
0.0
10
2932.0
20
-2083.0
30
0.0
10
2946.0
20
-2094.0
30
0.0
10
2964.0
20
-2105.0
30
0.0
10
2983.0
20
-2115.0
30
0.0
10
3003.0
20
-2124.0
30
0.0
10
3024.0
20
-2131.0
30
0.0
10
3044.0
20
-2139.0
30
0.0
10
3064.0
20
-2146.0
30
0.0
10
3082.0
20
-2153.0
30
0.0
10
3095.0
20
-2160.0
30
0.0
10
3108.0
20
-2166.0
30
0.0
10
3119.0
20
-2173.0
30
0.0
10
3131.0
20
-2180.0
30
0.0
10
3144.0
20
-2186.0
30
0.0
10
3157.0
20
-2193.0
30
0.0
10
3172.0
20
-2199.0
30
0.0
10
3194.0
20
-2206.0
30
0.0
10
3218.0
20
-2213.0
30
0.0
10
3244.0
20
-2218.0
30
0.0
10
3269.0
20
-2222.0
30
0.0
10
3294.0
20
-2225.0
30
0.0
10
3316.0
20
-2225.0
30
0.0
10
3335.0
20
-2224.0
30
0.0
10
3344.0
20
-2221.0
30
0.0
10
3352.0
20
-2219.0
30
0.0
10
3359.0
20
-2215.0
30
0.0
10
3365.0
20
-2211.0
30
0.0
10
3371.0
20
-2206.0
30
0.0
10
3377.0
20
-2200.0
30
0.0
10
3383.0
20
-2194.0
30
0.0
10
3391.0
20
-2185.0
30
0.0
10
3399.0
20
-2176.0
30
0.0
10
3408.0
20
-2165.0
30
0.0
10
3416.0
20
-2153.0
30
0.0
10
3423.0
20
-2141.0
30
0.0
10
3429.0
20
-2128.0
30
0.0
10
3433.0
20
-2113.0
30
0.0
10
3436.0
20
-2095.0
30
0.0
10
3437.0
20
-2077.0
30
0.0
10
3436.0
20
-2057.0
30
0.0
10
3434.0
20
-2038.0
30
0.0
10
3431.0
20
-2018.0
30
0.0
10
3427.0
20
-1999.0
30
0.0
10
3424.0
20
-1980.0
30
0.0
10
3421.0
20
-1963.0
30
0.0
10
3417.0
20
-1946.0
30
0.0
10
3414.0
20
-1929.0
30
0.0
10
3409.0
20
-1912.0
30
0.0
10
3404.0
20
-1893.0
30
0.0
10
3396.0
20
-1874.0
30
0.0
10
3386.0
20
-1852.0
30
0.0
10
3372.0
20
-1826.0
30
0.0
10
3355.0
20
-1798.0
30
0.0
10
3339.0
20
-1771.0
30
0.0
10
3323.0
20
-1747.0
30
0.0
10
3310.0
20
-1727.0
30
0.0
10
3301.0
20
-1714.0
30
0.0
10
3298.0
20
-1709.0
30
0.0
10
3300.0
20
-1708.0
30
0.0
10
3306.0
20
-1705.0
30
0.0
10
3314.0
20
-1701.0
30
0.0
10
3325.0
20
-1695.0
30
0.0
10
3338.0
20
-1689.0
30
0.0
10
3351.0
20
-1683.0
30
0.0
10
3364.0
20
-1676.0
30
0.0
10
3378.0
20
-1669.0
30
0.0
10
3391.0
20
-1663.0
30
0.0
10
3403.0
20
-1657.0
30
0.0
10
3414.0
20
-1650.0
30
0.0
10
3423.0
20
-1644.0
30
0.0
10
3432.0
20
-1636.0
30
0.0
10
3438.0
20
-1628.0
30
0.0
10
3442.0
20
-1621.0
30
0.0
10
3446.0
20
-1613.0
30
0.0
10
3448.0
20
-1604.0
30
0.0
10
3450.0
20
-1595.0
30
0.0
10
3452.0
20
-1586.0
30
0.0
10
3454.0
20
-1577.0
30
0.0
10
3455.0
20
-1567.0
30
0.0
10
3457.0
20
-1557.0
30
0.0
10
3460.0
20
-1548.0
30
0.0
10
3463.0
20
-1538.0
30
0.0
10
3466.0
20
-1529.0
30
0.0
10
3471.0
20
-1520.0
30
0.0
10
3477.0
20
-1512.0
30
0.0
10
3484.0
20
-1503.0
30
0.0
10
3498.0
20
-1491.0
30
0.0
10
3515.0
20
-1479.0
30
0.0
10
3535.0
20
-1468.0
30
0.0
10
3558.0
20
-1455.0
30
0.0
10
3583.0
20
-1441.0
30
0.0
10
3610.0
20
-1426.0
30
0.0
10
3639.0
20
-1407.0
30
0.0
10
3671.0
20
-1385.0
30
0.0
10
3703.0
20
-1361.0
30
0.0
10
3733.0
20
-1337.0
30
0.0
10
3760.0
20
-1316.0
30
0.0
10
3781.0
20
-1298.0
30
0.0
10
3795.0
20
-1286.0
30
0.0
10
3800.0
20
-1281.0
30
0.0
10
3802.0
20
-1282.0
30
0.0
10
3810.0
20
-1284.0
30
0.0
10
3821.0
20
-1286.0
30
0.0
10
3835.0
20
-1289.0
30
0.0
10
3851.0
20
-1292.0
30
0.0
10
3869.0
20
-1295.0
30
0.0
10
3886.0
20
-1296.0
30
0.0
10
3911.0
20
-1296.0
30
0.0
10
3936.0
20
-1295.0
30
0.0
10
3960.0
20
-1291.0
30
0.0
10
3984.0
20
-1285.0
30
0.0
10
4010.0
20
-1277.0
30
0.0
10
4036.0
20
-1269.0
30
0.0
10
4064.0
20
-1259.0
30
0.0
10
4089.0
20
-1249.0
30
0.0
10
4115.0
20
-1240.0
30
0.0
10
4139.0
20
-1231.0
30
0.0
10
4161.0
20
-1223.0
30
0.0
10
4178.0
20
-1216.0
30
0.0
10
4189.0
20
-1212.0
30
0.0
10
4193.0
20
-1211.0
30
0.0
10
4197.0
20
-1211.0
30
0.0
10
4208.0
20
-1212.0
30
0.0
10
4225.0
20
-1213.0
30
0.0
10
4245.0
20
-1214.0
30
0.0
10
4268.0
20
-1215.0
30
0.0
10
4292.0
20
-1217.0
30
0.0
10
4315.0
20
-1217.0
30
0.0
10
4337.0
20
-1218.0
30
0.0
10
4357.0
20
-1218.0
30
0.0
10
4375.0
20
-1218.0
30
0.0
10
4392.0
20
-1217.0
30
0.0
10
4407.0
20
-1217.0
30
0.0
10
4422.0
20
-1217.0
30
0.0
10
4437.0
20
-1217.0
30
0.0
10
4450.0
20
-1217.0
30
0.0
10
4462.0
20
-1218.0
30
0.0
10
4475.0
20
-1219.0
30
0.0
10
4488.0
20
-1220.0
30
0.0
10
4502.0
20
-1221.0
30
0.0
10
4517.0
20
-1223.0
30
0.0
10
4534.0
20
-1225.0
30
0.0
10
4558.0
20
-1228.0
30
0.0
10
4585.0
20
-1231.0
30
0.0
10
4613.0
20
-1234.0
30
0.0
10
4642.0
20
-1236.0
30
0.0
10
4670.0
20
-1237.0
30
0.0
10
4698.0
20
-1237.0
30
0.0
10
4723.0
20
-1234.0
30
0.0
10
4741.0
20
-1231.0
30
0.0
10
4759.0
20
-1227.0
30
0.0
10
4775.0
20
-1222.0
30
0.0
10
4791.0
20
-1215.0
30
0.0
10
4806.0
20
-1209.0
30
0.0
10
4822.0
20
-1202.0
30
0.0
10
4838.0
20
-1195.0
30
0.0
10
4858.0
20
-1187.0
30
0.0
10
4878.0
20
-1179.0
30
0.0
10
4898.0
20
-1171.0
30
0.0
10
4919.0
20
-1162.0
30
0.0
10
4939.0
20
-1154.0
30
0.0
10
4959.0
20
-1145.0
30
0.0
10
4978.0
20
-1135.0
30
0.0
10
4994.0
20
-1126.0
30
0.0
10
5010.0
20
-1117.0
30
0.0
10
5024.0
20
-1108.0
30
0.0
10
5039.0
20
-1099.0
30
0.0
10
5054.0
20
-1090.0
30
0.0
10
5069.0
20
-1082.0
30
0.0
10
5084.0
20
-1074.0
30
0.0
10
5101.0
20
-1067.0
30
0.0
10
5119.0
20
-1062.0
30
0.0
10
5138.0
20
-1057.0
30
0.0
10
5157.0
20
-1052.0
30
0.0
10
5177.0
20
-1049.0
30
0.0
10
5198.0
20
-1045.0
30
0.0
10
5219.0
20
-1042.0
30
0.0
10
5243.0
20
-1038.0
30
0.0
10
5266.0
20
-1035.0
30
0.0
10
5290.0
20
-1032.0
30
0.0
10
5313.0
20
-1029.0
30
0.0
10
5334.0
20
-1027.0
30
0.0
10
5355.0
20
-1026.0
30
0.0
10
5373.0
20
-1026.0
30
0.0
10
5384.0
20
-1027.0
30
0.0
10
5395.0
20
-1028.0
30
0.0
10
5405.0
20
-1029.0
30
0.0
10
5414.0
20
-1030.0
30
0.0
10
5424.0
20
-1031.0
30
0.0
10
5434.0
20
-1030.0
30
0.0
10
5444.0
20
-1029.0
30
0.0
10
5461.0
20
-1026.0
30
0.0
10
5479.0
20
-1020.0
30
0.0
10
5497.0
20
-1012.0
30
0.0
10
5517.0
20
-1004.0
30
0.0
10
5536.0
20
-994.0
30
0.0
10
5555.0
20
-984.0
30
0.0
10
5573.0
20
-973.0
30
0.0
10
5589.0
20
-963.0
30
0.0
10
5605.0
20
-954.0
30
0.0
10
5619.0
20
-944.0
30
0.0
10
5634.0
20
-935.0
30
0.0
10
5648.0
20
-925.0
30
0.0
10
5662.0
20
-916.0
30
0.0
10
5677.0
20
-906.0
30
0.0
10
5694.0
20
-896.0
30
0.0
10
5712.0
20
-885.0
30
0.0
10
5731.0
20
-873.0
30
0.0
10
5749.0
20
-860.0
30
0.0
10
5768.0
20
-847.0
30
0.0
10
5786.0
20
-832.0
30
0.0
10
5804.0
20
-815.0
30
0.0
10
5818.0
20
-800.0
30
0.0
10
5832.0
20
-784.0
30
0.0
10
5844.0
20
-770.0
30
0.0
10
5854.0
20
-757.0
30
0.0
10
5862.0
20
-746.0
30
0.0
10
5867.0
20
-739.0
30
0.0
10
5868.0
20
-736.0
30
0.0
10
5872.0
20
-736.0
30
0.0
10
5883.0
20
-735.0
30
0.0
10
5899.0
20
-733.0
30
0.0
10
5919.0
20
-732.0
30
0.0
10
5942.0
20
-731.0
30
0.0
10
5965.0
20
-730.0
30
0.0
10
5989.0
20
-730.0
30
0.0
10
6012.0
20
-731.0
30
0.0
10
6033.0
20
-734.0
30
0.0
10
6053.0
20
-737.0
30
0.0
10
6072.0
20
-740.0
30
0.0
10
6090.0
20
-744.0
30
0.0
10
6107.0
20
-747.0
30
0.0
10
6124.0
20
-751.0
30
0.0
10
6137.0
20
-753.0
30
0.0
10
6150.0
20
-754.0
30
0.0
10
6163.0
20
-756.0
30
0.0
10
6176.0
20
-757.0
30
0.0
10
6189.0
20
-757.0
30
0.0
10
6201.0
20
-757.0
30
0.0
10
6214.0
20
-756.0
30
0.0
10
6226.0
20
-755.0
30
0.0
10
6239.0
20
-754.0
30
0.0
10
6251.0
20
-752.0
30
0.0
10
6264.0
20
-749.0
30
0.0
10
6278.0
20
-746.0
30
0.0
10
6291.0
20
-742.0
30
0.0
10
6306.0
20
-738.0
30
0.0
10
6326.0
20
-731.0
30
0.0
10
6348.0
20
-722.0
30
0.0
10
6371.0
20
-713.0
30
0.0
10
6394.0
20
-703.0
30
0.0
10
6417.0
20
-692.0
30
0.0
10
6441.0
20
-681.0
30
0.0
10
6465.0
20
-669.0
30
0.0
10
6490.0
20
-656.0
30
0.0
10
6514.0
20
-644.0
30
0.0
10
6538.0
20
-630.0
30
0.0
10
6562.0
20
-617.0
30
0.0
10
6586.0
20
-603.0
30
0.0
10
6609.0
20
-588.0
30
0.0
10
6632.0
20
-573.0
30
0.0
10
6656.0
20
-557.0
30
0.0
10
6679.0
20
-541.0
30
0.0
10
6703.0
20
-524.0
30
0.0
10
6727.0
20
-508.0
30
0.0
10
6752.0
20
-492.0
30
0.0
10
6777.0
20
-477.0
30
0.0
10
6804.0
20
-463.0
30
0.0
10
6834.0
20
-449.0
30
0.0
10
6865.0
20
-437.0
30
0.0
10
6897.0
20
-427.0
30
0.0
10
6929.0
20
-418.0
30
0.0
10
6961.0
20
-411.0
30
0.0
10
6994.0
20
-405.0
30
0.0
10
7026.0
20
-400.0
30
0.0
10
7046.0
20
-398.0
30
0.0
10
7065.0
20
-396.0
30
0.0
10
7082.0
20
-395.0
30
0.0
10
7096.0
20
-394.0
30
0.0
10
7108.0
20
-393.0
30
0.0
10
7115.0
20
-393.0
30
0.0
10
7118.0
20
-393.0
30
0.0
10
7118.0
20
-395.0
30
0.0
10
7121.0
20
-399.0
30
0.0
10
7125.0
20
-406.0
30
0.0
10
7131.0
20
-415.0
30
0.0
10
7137.0
20
-425.0
30
0.0
10
7144.0
20
-435.0
30
0.0
10
7152.0
20
-444.0
30
0.0
10
7164.0
20
-456.0
30
0.0
10
7176.0
20
-466.0
30
0.0
10
7189.0
20
-474.0
30
0.0
10
7203.0
20
-481.0
30
0.0
10
7218.0
20
-487.0
30
0.0
10
7233.0
20
-492.0
30
0.0
10
7249.0
20
-496.0
30
0.0
10
7267.0
20
-499.0
30
0.0
10
7287.0
20
-502.0
30
0.0
10
7307.0
20
-503.0
30
0.0
10
7328.0
20
-504.0
30
0.0
10
7349.0
20
-503.0
30
0.0
10
7370.0
20
-502.0
30
0.0
10
7392.0
20
-500.0
30
0.0
10
7415.0
20
-497.0
30
0.0
10
7439.0
20
-494.0
30
0.0
10
7463.0
20
-489.0
30
0.0
10
7486.0
20
-485.0
30
0.0
10
7509.0
20
-480.0
30
0.0
10
7532.0
20
-475.0
30
0.0
10
7554.0
20
-470.0
30
0.0
10
7574.0
20
-465.0
30
0.0
10
7593.0
20
-460.0
30
0.0
10
7612.0
20
-455.0
30
0.0
10
7631.0
20
-451.0
30
0.0
10
7649.0
20
-446.0
30
0.0
10
7667.0
20
-442.0
30
0.0
10
7685.0
20
-438.0
30
0.0
10
7704.0
20
-434.0
30
0.0
10
7722.0
20
-431.0
30
0.0
10
7741.0
20
-428.0
30
0.0
10
7761.0
20
-425.0
30
0.0
10
7781.0
20
-421.0
30
0.0
10
7802.0
20
-418.0
30
0.0
10
7824.0
20
-415.0
30
0.0
10
7854.0
20
-410.0
30
0.0
10
7885.0
20
-405.0
30
0.0
10
7916.0
20
-400.0
30
0.0
10
7949.0
20
-394.0
30
0.0
10
7982.0
20
-389.0
30
0.0
10
8014.0
20
-384.0
30
0.0
10
8046.0
20
-378.0
30
0.0
10
8073.0
20
-374.0
30
0.0
10
8100.0
20
-370.0
30
0.0
10
8125.0
20
-367.0
30
0.0
10
8150.0
20
-364.0
30
0.0
10
8174.0
20
-363.0
30
0.0
10
8198.0
20
-362.0
30
0.0
10
8220.0
20
-362.0
30
0.0
10
8241.0
20
-364.0
30
0.0
10
8260.0
20
-366.0
30
0.0
10
8280.0
20
-368.0
30
0.0
10
8300.0
20
-371.0
30
0.0
10
8321.0
20
-374.0
30
0.0
10
8342.0
20
-377.0
30
0.0
10
8365.0
20
-380.0
30
0.0
10
8391.0
20
-382.0
30
0.0
10
8419.0
20
-383.0
30
0.0
10
8447.0
20
-385.0
30
0.0
10
8475.0
20
-386.0
30
0.0
10
8501.0
20
-388.0
30
0.0
10
8526.0
20
-390.0
30
0.0
10
8549.0
20
-393.0
30
0.0
10
8564.0
20
-397.0
30
0.0
10
8578.0
20
-400.0
30
0.0
10
8592.0
20
-404.0
30
0.0
10
8605.0
20
-408.0
30
0.0
10
8618.0
20
-412.0
30
0.0
10
8632.0
20
-416.0
30
0.0
10
8647.0
20
-419.0
30
0.0
10
8669.0
20
-422.0
30
0.0
10
8693.0
20
-424.0
30
0.0
10
8719.0
20
-424.0
30
0.0
10
8746.0
20
-423.0
30
0.0
10
8772.0
20
-421.0
30
0.0
10
8799.0
20
-417.0
30
0.0
10
8824.0
20
-412.0
30
0.0
10
8843.0
20
-407.0
30
0.0
10
8861.0
20
-401.0
30
0.0
10
8878.0
20
-394.0
30
0.0
10
8894.0
20
-388.0
30
0.0
10
8909.0
20
-381.0
30
0.0
10
8922.0
20
-374.0
30
0.0
10
8934.0
20
-367.0
30
0.0
10
8944.0
20
-362.0
30
0.0
10
8953.0
20
-356.0
30
0.0
10
8962.0
20
-351.0
30
0.0
10
8970.0
20
-345.0
30
0.0
10
8980.0
20
-338.0
30
0.0
10
8990.0
20
-331.0
30
0.0
10
9001.0
20
-322.0
30
0.0
10
9014.0
20
-311.0
30
0.0
10
9028.0
20
-299.0
30
0.0
10
9042.0
20
-288.0
30
0.0
10
9054.0
20
-277.0
30
0.0
10
9064.0
20
-268.0
30
0.0
10
9071.0
20
-262.0
30
0.0
10
9074.0
20
-260.0
30
0.0
10
9075.0
20
-261.0
30
0.0
10
9080.0
20
-264.0
30
0.0
10
9087.0
20
-269.0
30
0.0
10
9096.0
20
-275.0
30
0.0
10
9107.0
20
-281.0
30
0.0
10
9118.0
20
-288.0
30
0.0
10
9131.0
20
-295.0
30
0.0
10
9147.0
20
-303.0
30
0.0
10
9164.0
20
-310.0
30
0.0
10
9181.0
20
-316.0
30
0.0
10
9197.0
20
-321.0
30
0.0
10
9214.0
20
-325.0
30
0.0
10
9230.0
20
-328.0
30
0.0
10
9247.0
20
-330.0
30
0.0
10
9263.0
20
-331.0
30
0.0
10
9278.0
20
-331.0
30
0.0
10
9294.0
20
-330.0
30
0.0
10
9310.0
20
-328.0
30
0.0
10
9326.0
20
-324.0
30
0.0
10
9342.0
20
-320.0
30
0.0
10
9359.0
20
-314.0
30
0.0
10
9380.0
20
-306.0
30
0.0
10
9400.0
20
-296.0
30
0.0
10
9422.0
20
-285.0
30
0.0
10
9443.0
20
-273.0
30
0.0
10
9463.0
20
-262.0
30
0.0
10
9484.0
20
-250.0
30
0.0
10
9503.0
20
-239.0
30
0.0
10
9521.0
20
-229.0
30
0.0
10
9538.0
20
-219.0
30
0.0
10
9555.0
20
-208.0
30
0.0
10
9571.0
20
-197.0
30
0.0
10
9587.0
20
-183.0
30
0.0
10
9603.0
20
-166.0
30
0.0
10
9618.0
20
-147.0
30
0.0
10
9635.0
20
-121.0
30
0.0
10
9651.0
20
-94.0
30
0.0
10
9665.0
20
-66.0
30
0.0
10
9678.0
20
-41.0
30
0.0
10
9688.0
20
-20.0
30
0.0
10
9694.0
20
-5.0
30
0.0
10
9697.0
20
0.0
30
0.0
10
9702.0
20
-5.0
30
0.0
10
9717.0
20
-19.0
30
0.0
10
9739.0
20
-39.0
30
0.0
10
9766.0
20
-65.0
30
0.0
10
9795.0
20
-94.0
30
0.0
10
9825.0
20
-124.0
30
0.0
10
9853.0
20
-155.0
30
0.0
10
9880.0
20
-185.0
30
0.0
10
9904.0
20
-214.0
30
0.0
10
9926.0
20
-241.0
30
0.0
10
9949.0
20
-266.0
30
0.0
10
9972.0
20
-290.0
30
0.0
10
9999.0
20
-313.0
30
0.0
10
10031.0
20
-336.0
30
0.0
10
10063.0
20
-355.0
30
0.0
10
10098.0
20
-374.0
30
0.0
10
10132.0
20
-391.0
30
0.0
10
10164.0
20
-405.0
30
0.0
10
10189.0
20
-416.0
30
0.0
10
10207.0
20
-423.0
30
0.0
10
10213.0
20
-425.0
30
0.0
10
10211.0
20
-427.0
30
0.0
10
10206.0
20
-431.0
30
0.0
10
10200.0
20
-437.0
30
0.0
10
10192.0
20
-444.0
30
0.0
10
10183.0
20
-454.0
30
0.0
10
10176.0
20
-464.0
30
0.0
10
10171.0
20
-475.0
30
0.0
10
10167.0
20
-492.0
30
0.0
10
10168.0
20
-509.0
30
0.0
10
10172.0
20
-527.0
30
0.0
10
10178.0
20
-545.0
30
0.0
10
10185.0
20
-564.0
30
0.0
10
10192.0
20
-583.0
30
0.0
10
10197.0
20
-603.0
30
0.0
10
10200.0
20
-624.0
30
0.0
10
10200.0
20
-645.0
30
0.0
10
10198.0
20
-666.0
30
0.0
10
10195.0
20
-687.0
30
0.0
10
10189.0
20
-707.0
30
0.0
10
10183.0
20
-728.0
30
0.0
10
10175.0
20
-748.0
30
0.0
10
10168.0
20
-766.0
30
0.0
10
10161.0
20
-784.0
30
0.0
10
10153.0
20
-801.0
30
0.0
10
10146.0
20
-819.0
30
0.0
10
10140.0
20
-835.0
30
0.0
10
10134.0
20
-852.0
30
0.0
10
10130.0
20
-868.0
30
0.0
10
10128.0
20
-882.0
30
0.0
10
10126.0
20
-895.0
30
0.0
10
10126.0
20
-909.0
30
0.0
10
10126.0
20
-922.0
30
0.0
10
10126.0
20
-936.0
30
0.0
10
10127.0
20
-949.0
30
0.0
10
10129.0
20
-963.0
30
0.0
10
10130.0
20
-978.0
30
0.0
10
10131.0
20
-992.0
30
0.0
10
10133.0
20
-1007.0
30
0.0
10
10135.0
20
-1021.0
30
0.0
10
10137.0
20
-1036.0
30
0.0
10
10139.0
20
-1050.0
30
0.0
10
10142.0
20
-1063.0
30
0.0
10
10146.0
20
-1075.0
30
0.0
10
10149.0
20
-1087.0
30
0.0
10
10152.0
20
-1098.0
30
0.0
10
10155.0
20
-1110.0
30
0.0
10
10158.0
20
-1121.0
30
0.0
10
10159.0
20
-1133.0
30
0.0
10
10159.0
20
-1145.0
30
0.0
10
10157.0
20
-1159.0
30
0.0
10
10154.0
20
-1172.0
30
0.0
10
10150.0
20
-1186.0
30
0.0
10
10144.0
20
-1200.0
30
0.0
10
10139.0
20
-1212.0
30
0.0
10
10133.0
20
-1224.0
30
0.0
10
10128.0
20
-1235.0
30
0.0
10
10124.0
20
-1243.0
30
0.0
10
10121.0
20
-1250.0
30
0.0
10
10118.0
20
-1256.0
30
0.0
10
10116.0
20
-1264.0
30
0.0
10
10115.0
20
-1272.0
30
0.0
10
10115.0
20
-1281.0
30
0.0
10
10116.0
20
-1291.0
30
0.0
10
10120.0
20
-1309.0
30
0.0
10
10125.0
20
-1329.0
30
0.0
10
10131.0
20
-1349.0
30
0.0
10
10137.0
20
-1368.0
30
0.0
10
10143.0
20
-1383.0
30
0.0
10
10147.0
20
-1394.0
30
0.0
10
10148.0
20
-1398.0
30
0.0
10
10147.0
20
-1400.0
30
0.0
10
10144.0
20
-1408.0
30
0.0
10
10139.0
20
-1419.0
30
0.0
10
10135.0
20
-1433.0
30
0.0
10
10131.0
20
-1450.0
30
0.0
10
10130.0
20
-1467.0
30
0.0
10
10130.0
20
-1484.0
30
0.0
10
10134.0
20
-1498.0
30
0.0
10
10139.0
20
-1512.0
30
0.0
10
10145.0
20
-1524.0
30
0.0
10
10152.0
20
-1534.0
30
0.0
10
10158.0
20
-1542.0
30
0.0
10
10162.0
20
-1547.0
30
0.0
10
10164.0
20
-1548.0
30
0.0
10
10165.0
20
-1553.0
30
0.0
10
10168.0
20
-1565.0
30
0.0
10
10172.0
20
-1582.0
30
0.0
10
10177.0
20
-1604.0
30
0.0
10
10183.0
20
-1629.0
30
0.0
10
10187.0
20
-1654.0
30
0.0
10
10191.0
20
-1679.0
30
0.0
10
10192.0
20
-1696.0
30
0.0
10
10193.0
20
-1711.0
30
0.0
10
10193.0
20
-1724.0
30
0.0
10
10193.0
20
-1735.0
30
0.0
10
10193.0
20
-1743.0
30
0.0
10
10193.0
20
-1749.0
30
0.0
10
10193.0
20
-1750.0
30
0.0
10
10191.0
20
-1753.0
30
0.0
10
10188.0
20
-1760.0
30
0.0
10
10183.0
20
-1771.0
30
0.0
10
10178.0
20
-1786.0
30
0.0
10
10173.0
20
-1802.0
30
0.0
10
10169.0
20
-1821.0
30
0.0
10
10167.0
20
-1841.0
30
0.0
10
10167.0
20
-1863.0
30
0.0
10
10170.0
20
-1884.0
30
0.0
10
10173.0
20
-1904.0
30
0.0
10
10178.0
20
-1921.0
30
0.0
10
10182.0
20
-1934.0
30
0.0
10
10184.0
20
-1943.0
30
0.0
10
10186.0
20
-1946.0
30
0.0
10
10157.0
20
-2011.0
30
0.0
10
10156.0
20
-2014.0
30
0.0
10
10153.0
20
-2020.0
30
0.0
10
10149.0
20
-2029.0
30
0.0
10
10145.0
20
-2040.0
30
0.0
10
10141.0
20
-2052.0
30
0.0
10
10138.0
20
-2065.0
30
0.0
10
10137.0
20
-2077.0
30
0.0
10
10138.0
20
-2090.0
30
0.0
10
10142.0
20
-2102.0
30
0.0
10
10148.0
20
-2113.0
30
0.0
10
10156.0
20
-2124.0
30
0.0
10
10164.0
20
-2135.0
30
0.0
10
10173.0
20
-2148.0
30
0.0
10
10181.0
20
-2162.0
30
0.0
10
10188.0
20
-2176.0
30
0.0
10
10194.0
20
-2192.0
30
0.0
10
10199.0
20
-2207.0
30
0.0
10
10203.0
20
-2221.0
30
0.0
10
10206.0
20
-2232.0
30
0.0
10
10208.0
20
-2240.0
30
0.0
10
10208.0
20
-2243.0
30
0.0
10
10208.0
20
-2244.0
30
0.0
10
10206.0
20
-2250.0
30
0.0
10
10203.0
20
-2258.0
30
0.0
10
10201.0
20
-2268.0
30
0.0
10
10198.0
20
-2280.0
30
0.0
10
10195.0
20
-2294.0
30
0.0
10
10193.0
20
-2307.0
30
0.0
10
10192.0
20
-2326.0
30
0.0
10
10192.0
20
-2345.0
30
0.0
10
10193.0
20
-2364.0
30
0.0
10
10195.0
20
-2383.0
30
0.0
10
10197.0
20
-2401.0
30
0.0
10
10198.0
20
-2419.0
30
0.0
10
10198.0
20
-2437.0
30
0.0
10
10197.0
20
-2453.0
30
0.0
10
10195.0
20
-2469.0
30
0.0
10
10192.0
20
-2485.0
30
0.0
10
10189.0
20
-2501.0
30
0.0
10
10185.0
20
-2517.0
30
0.0
10
10182.0
20
-2532.0
30
0.0
10
10179.0
20
-2547.0
30
0.0
10
10176.0
20
-2564.0
30
0.0
10
10174.0
20
-2581.0
30
0.0
10
10172.0
20
-2599.0
30
0.0
10
10170.0
20
-2618.0
30
0.0
10
10169.0
20
-2638.0
30
0.0
10
10168.0
20
-2659.0
30
0.0
10
10167.0
20
-2683.0
30
0.0
10
10165.0
20
-2724.0
30
0.0
10
10163.0
20
-2768.0
30
0.0
10
10161.0
20
-2816.0
30
0.0
10
10158.0
20
-2864.0
30
0.0
10
10156.0
20
-2912.0
30
0.0
10
10153.0
20
-2958.0
30
0.0
10
10150.0
20
-3001.0
30
0.0
10
10148.0
20
-3029.0
30
0.0
10
10146.0
20
-3056.0
30
0.0
10
10144.0
20
-3080.0
30
0.0
10
10142.0
20
-3104.0
30
0.0
10
10140.0
20
-3128.0
30
0.0
10
10138.0
20
-3151.0
30
0.0
10
10135.0
20
-3176.0
30
0.0
10
10133.0
20
-3204.0
30
0.0
10
10131.0
20
-3234.0
30
0.0
10
10129.0
20
-3265.0
30
0.0
10
10128.0
20
-3297.0
30
0.0
10
10128.0
20
-3329.0
30
0.0
10
10128.0
20
-3362.0
30
0.0
10
10130.0
20
-3394.0
30
0.0
10
10133.0
20
-3425.0
30
0.0
10
10138.0
20
-3456.0
30
0.0
10
10143.0
20
-3487.0
30
0.0
10
10148.0
20
-3517.0
30
0.0
10
10154.0
20
-3546.0
30
0.0
10
10159.0
20
-3575.0
30
0.0
10
10165.0
20
-3604.0
30
0.0
10
10169.0
20
-3630.0
30
0.0
10
10174.0
20
-3656.0
30
0.0
10
10178.0
20
-3681.0
30
0.0
10
10182.0
20
-3706.0
30
0.0
10
10187.0
20
-3731.0
30
0.0
10
10193.0
20
-3755.0
30
0.0
10
10200.0
20
-3779.0
30
0.0
10
10208.0
20
-3803.0
30
0.0
10
10217.0
20
-3827.0
30
0.0
10
10227.0
20
-3851.0
30
0.0
10
10236.0
20
-3876.0
30
0.0
10
10246.0
20
-3902.0
30
0.0
10
10255.0
20
-3928.0
30
0.0
10
10262.0
20
-3956.0
30
0.0
10
10269.0
20
-3991.0
30
0.0
10
10274.0
20
-4027.0
30
0.0
10
10279.0
20
-4063.0
30
0.0
10
10282.0
20
-4100.0
30
0.0
10
10285.0
20
-4136.0
30
0.0
10
10289.0
20
-4171.0
30
0.0
10
10293.0
20
-4204.0
30
0.0
10
10297.0
20
-4228.0
30
0.0
10
10302.0
20
-4252.0
30
0.0
10
10308.0
20
-4274.0
30
0.0
10
10313.0
20
-4297.0
30
0.0
10
10319.0
20
-4319.0
30
0.0
10
10325.0
20
-4343.0
30
0.0
10
10331.0
20
-4368.0
30
0.0
10
10339.0
20
-4401.0
30
0.0
10
10346.0
20
-4437.0
30
0.0
10
10353.0
20
-4474.0
30
0.0
10
10361.0
20
-4511.0
30
0.0
10
10368.0
20
-4548.0
30
0.0
10
10377.0
20
-4582.0
30
0.0
10
10386.0
20
-4614.0
30
0.0
10
10393.0
20
-4636.0
30
0.0
10
10401.0
20
-4656.0
30
0.0
10
10409.0
20
-4674.0
30
0.0
10
10417.0
20
-4692.0
30
0.0
10
10424.0
20
-4710.0
30
0.0
10
10432.0
20
-4727.0
30
0.0
10
10438.0
20
-4745.0
30
0.0
10
10445.0
20
-4765.0
30
0.0
10
10451.0
20
-4787.0
30
0.0
10
10457.0
20
-4810.0
30
0.0
10
10464.0
20
-4834.0
30
0.0
10
10471.0
20
-4859.0
30
0.0
10
10480.0
20
-4886.0
30
0.0
10
10490.0
20
-4914.0
30
0.0
10
10501.0
20
-4940.0
30
0.0
10
10513.0
20
-4966.0
30
0.0
10
10524.0
20
-4990.0
30
0.0
10
10535.0
20
-5011.0
30
0.0
10
10544.0
20
-5028.0
30
0.0
10
10550.0
20
-5039.0
30
0.0
10
10552.0
20
-5043.0
30
0.0
10
10551.0
20
-5046.0
30
0.0
10
10550.0
20
-5053.0
30
0.0
10
10549.0
20
-5064.0
30
0.0
10
10546.0
20
-5077.0
30
0.0
10
10543.0
20
-5092.0
30
0.0
10
10539.0
20
-5107.0
30
0.0
10
10534.0
20
-5121.0
30
0.0
10
10528.0
20
-5134.0
30
0.0
10
10521.0
20
-5145.0
30
0.0
10
10514.0
20
-5155.0
30
0.0
10
10506.0
20
-5165.0
30
0.0
10
10498.0
20
-5174.0
30
0.0
10
10491.0
20
-5184.0
30
0.0
10
10484.0
20
-5194.0
30
0.0
10
10477.0
20
-5208.0
30
0.0
10
10470.0
20
-5224.0
30
0.0
10
10465.0
20
-5242.0
30
0.0
10
10460.0
20
-5260.0
30
0.0
10
10456.0
20
-5279.0
30
0.0
10
10453.0
20
-5299.0
30
0.0
10
10449.0
20
-5319.0
30
0.0
10
10445.0
20
-5341.0
30
0.0
10
10442.0
20
-5362.0
30
0.0
10
10438.0
20
-5384.0
30
0.0
10
10435.0
20
-5406.0
30
0.0
10
10431.0
20
-5429.0
30
0.0
10
10428.0
20
-5452.0
30
0.0
10
10425.0
20
-5475.0
30
0.0
10
10423.0
20
-5493.0
30
0.0
10
10420.0
20
-5510.0
30
0.0
10
10418.0
20
-5526.0
30
0.0
10
10417.0
20
-5539.0
30
0.0
10
10415.0
20
-5550.0
30
0.0
10
10414.0
20
-5557.0
30
0.0
10
10414.0
20
-5560.0
30
0.0
10
10413.0
20
-5563.0
30
0.0
10
10410.0
20
-5570.0
30
0.0
10
10405.0
20
-5580.0
30
0.0
10
10400.0
20
-5593.0
30
0.0
10
10395.0
20
-5608.0
30
0.0
10
10390.0
20
-5623.0
30
0.0
10
10386.0
20
-5637.0
30
0.0
10
10384.0
20
-5651.0
30
0.0
10
10383.0
20
-5663.0
30
0.0
10
10383.0
20
-5675.0
30
0.0
10
10383.0
20
-5687.0
30
0.0
10
10384.0
20
-5698.0
30
0.0
10
10384.0
20
-5710.0
30
0.0
10
10385.0
20
-5722.0
30
0.0
10
10384.0
20
-5737.0
30
0.0
10
10382.0
20
-5754.0
30
0.0
10
10380.0
20
-5770.0
30
0.0
10
10377.0
20
-5787.0
30
0.0
10
10373.0
20
-5804.0
30
0.0
10
10368.0
20
-5819.0
30
0.0
10
10362.0
20
-5833.0
30
0.0
10
10358.0
20
-5843.0
30
0.0
10
10354.0
20
-5852.0
30
0.0
10
10350.0
20
-5861.0
30
0.0
10
10346.0
20
-5869.0
30
0.0
10
10344.0
20
-5878.0
30
0.0
10
10343.0
20
-5887.0
30
0.0
10
10343.0
20
-5897.0
30
0.0
10
10345.0
20
-5906.0
30
0.0
10
10348.0
20
-5915.0
30
0.0
10
10352.0
20
-5924.0
30
0.0
10
10355.0
20
-5932.0
30
0.0
10
10358.0
20
-5938.0
30
0.0
10
10361.0
20
-5943.0
30
0.0
10
10361.0
20
-5944.0
30
0.0
10
10361.0
20
-5946.0
30
0.0
10
10360.0
20
-5952.0
30
0.0
10
10359.0
20
-5960.0
30
0.0
10
10357.0
20
-5971.0
30
0.0
10
10356.0
20
-5983.0
30
0.0
10
10355.0
20
-5995.0
30
0.0
10
10355.0
20
-6008.0
30
0.0
10
10356.0
20
-6022.0
30
0.0
10
10358.0
20
-6036.0
30
0.0
10
10362.0
20
-6048.0
30
0.0
10
10365.0
20
-6061.0
30
0.0
10
10369.0
20
-6075.0
30
0.0
10
10372.0
20
-6089.0
30
0.0
10
10375.0
20
-6104.0
30
0.0
10
10376.0
20
-6129.0
30
0.0
10
10376.0
20
-6156.0
30
0.0
10
10374.0
20
-6185.0
30
0.0
10
10371.0
20
-6215.0
30
0.0
10
10366.0
20
-6244.0
30
0.0
10
10361.0
20
-6272.0
30
0.0
10
10355.0
20
-6298.0
30
0.0
10
10349.0
20
-6315.0
30
0.0
10
10344.0
20
-6332.0
30
0.0
10
10339.0
20
-6347.0
30
0.0
10
10335.0
20
-6362.0
30
0.0
10
10331.0
20
-6377.0
30
0.0
10
10328.0
20
-6391.0
30
0.0
10
10326.0
20
-6407.0
30
0.0
10
10325.0
20
-6428.0
30
0.0
10
10326.0
20
-6449.0
30
0.0
10
10327.0
20
-6472.0
30
0.0
10
10330.0
20
-6496.0
30
0.0
10
10333.0
20
-6521.0
30
0.0
10
10336.0
20
-6546.0
30
0.0
10
10338.0
20
-6572.0
30
0.0
10
10340.0
20
-6600.0
30
0.0
10
10340.0
20
-6627.0
30
0.0
10
10341.0
20
-6655.0
30
0.0
10
10340.0
20
-6682.0
30
0.0
10
10339.0
20
-6710.0
30
0.0
10
10338.0
20
-6737.0
30
0.0
10
10336.0
20
-6764.0
30
0.0
10
10334.0
20
-6791.0
30
0.0
10
10333.0
20
-6818.0
30
0.0
10
10332.0
20
-6845.0
30
0.0
10
10330.0
20
-6872.0
30
0.0
10
10330.0
20
-6900.0
30
0.0
10
10330.0
20
-6929.0
30
0.0
10
10331.0
20
-6959.0
30
0.0
10
10333.0
20
-6994.0
30
0.0
10
10335.0
20
-7031.0
30
0.0
10
10339.0
20
-7068.0
30
0.0
10
10343.0
20
-7105.0
30
0.0
10
10347.0
20
-7142.0
30
0.0
10
10351.0
20
-7178.0
30
0.0
10
10355.0
20
-7212.0
30
0.0
10
10359.0
20
-7240.0
30
0.0
10
10362.0
20
-7267.0
30
0.0
10
10366.0
20
-7293.0
30
0.0
10
10370.0
20
-7318.0
30
0.0
10
10375.0
20
-7343.0
30
0.0
10
10381.0
20
-7368.0
30
0.0
10
10388.0
20
-7392.0
30
0.0
10
10393.0
20
-7410.0
30
0.0
10
10399.0
20
-7426.0
30
0.0
10
10404.0
20
-7442.0
30
0.0
10
10409.0
20
-7455.0
30
0.0
10
10414.0
20
-7465.0
30
0.0
10
10416.0
20
-7472.0
30
0.0
10
10417.0
20
-7474.0
30
0.0
10
10416.0
20
-7477.0
30
0.0
10
10412.0
20
-7484.0
30
0.0
10
10407.0
20
-7495.0
30
0.0
10
10401.0
20
-7509.0
30
0.0
10
10393.0
20
-7525.0
30
0.0
10
10386.0
20
-7542.0
30
0.0
10
10378.0
20
-7559.0
30
0.0
10
10372.0
20
-7574.0
30
0.0
10
10367.0
20
-7587.0
30
0.0
10
10362.0
20
-7599.0
30
0.0
10
10358.0
20
-7610.0
30
0.0
10
10355.0
20
-7618.0
30
0.0
10
10354.0
20
-7623.0
30
0.0
10
10353.0
20
-7625.0
30
0.0
10
10354.0
20
-7628.0
30
0.0
10
10357.0
20
-7636.0
30
0.0
10
10360.0
20
-7648.0
30
0.0
10
10365.0
20
-7663.0
30
0.0
10
10370.0
20
-7680.0
30
0.0
10
10376.0
20
-7699.0
30
0.0
10
10381.0
20
-7719.0
30
0.0
10
10386.0
20
-7736.0
30
0.0
10
10390.0
20
-7753.0
30
0.0
10
10393.0
20
-7768.0
30
0.0
10
10396.0
20
-7781.0
30
0.0
10
10398.0
20
-7791.0
30
0.0
10
10400.0
20
-7797.0
30
0.0
10
10400.0
20
-7800.0
30
0.0
10
10371.0
20
-7910.0
30
0.0
10
10326.0
20
-7963.0
30
0.0
10
10266.0
20
-8044.0
30
0.0
10
10119.0
20
-8352.0
30
0.0
10
10116.0
20
-8353.0
30
0.0
10
10107.0
20
-8355.0
30
0.0
10
10094.0
20
-8358.0
30
0.0
10
10078.0
20
-8363.0
30
0.0
10
10061.0
20
-8368.0
30
0.0
10
10043.0
20
-8373.0
30
0.0
10
10026.0
20
-8378.0
30
0.0
10
10011.0
20
-8384.0
30
0.0
10
9997.0
20
-8390.0
30
0.0
10
9985.0
20
-8395.0
30
0.0
10
9973.0
20
-8402.0
30
0.0
10
9962.0
20
-8409.0
30
0.0
10
9951.0
20
-8417.0
30
0.0
10
9939.0
20
-8426.0
30
0.0
10
9921.0
20
-8440.0
30
0.0
10
9903.0
20
-8455.0
30
0.0
10
9884.0
20
-8472.0
30
0.0
10
9865.0
20
-8489.0
30
0.0
10
9846.0
20
-8506.0
30
0.0
10
9829.0
20
-8522.0
30
0.0
10
9814.0
20
-8538.0
30
0.0
10
9803.0
20
-8549.0
30
0.0
10
9794.0
20
-8559.0
30
0.0
10
9784.0
20
-8569.0
30
0.0
10
9775.0
20
-8578.0
30
0.0
10
9764.0
20
-8587.0
30
0.0
10
9752.0
20
-8595.0
30
0.0
10
9737.0
20
-8604.0
30
0.0
10
9717.0
20
-8614.0
30
0.0
10
9695.0
20
-8624.0
30
0.0
10
9673.0
20
-8633.0
30
0.0
10
9653.0
20
-8641.0
30
0.0
10
9636.0
20
-8647.0
30
0.0
10
9625.0
20
-8651.0
30
0.0
10
9621.0
20
-8653.0
30
0.0
10
9618.0
20
-8650.0
30
0.0
10
9609.0
20
-8645.0
30
0.0
10
9596.0
20
-8636.0
30
0.0
10
9579.0
20
-8625.0
30
0.0
10
9561.0
20
-8613.0
30
0.0
10
9542.0
20
-8601.0
30
0.0
10
9523.0
20
-8590.0
30
0.0
10
9507.0
20
-8580.0
30
0.0
10
9492.0
20
-8572.0
30
0.0
10
9477.0
20
-8567.0
30
0.0
10
9464.0
20
-8563.0
30
0.0
10
9450.0
20
-8563.0
30
0.0
10
9436.0
20
-8566.0
30
0.0
10
9421.0
20
-8573.0
30
0.0
10
9406.0
20
-8584.0
30
0.0
10
9390.0
20
-8598.0
30
0.0
10
9375.0
20
-8613.0
30
0.0
10
9362.0
20
-8628.0
30
0.0
10
9352.0
20
-8640.0
30
0.0
10
9345.0
20
-8649.0
30
0.0
10
9343.0
20
-8653.0
30
0.0
10
9339.0
20
-8650.0
30
0.0
10
9330.0
20
-8644.0
30
0.0
10
9316.0
20
-8635.0
30
0.0
10
9298.0
20
-8623.0
30
0.0
10
9278.0
20
-8611.0
30
0.0
10
9257.0
20
-8598.0
30
0.0
10
9235.0
20
-8586.0
30
0.0
10
9213.0
20
-8575.0
30
0.0
10
9191.0
20
-8565.0
30
0.0
10
9171.0
20
-8558.0
30
0.0
10
9150.0
20
-8552.0
30
0.0
10
9131.0
20
-8548.0
30
0.0
10
9111.0
20
-8547.0
30
0.0
10
9091.0
20
-8548.0
30
0.0
10
9070.0
20
-8550.0
30
0.0
10
9049.0
20
-8555.0
30
0.0
10
9027.0
20
-8562.0
30
0.0
10
9004.0
20
-8569.0
30
0.0
10
8981.0
20
-8578.0
30
0.0
10
8957.0
20
-8586.0
30
0.0
10
8932.0
20
-8595.0
30
0.0
10
8903.0
20
-8603.0
30
0.0
10
8874.0
20
-8611.0
30
0.0
10
8844.0
20
-8618.0
30
0.0
10
8815.0
20
-8623.0
30
0.0
10
8786.0
20
-8627.0
30
0.0
10
8759.0
20
-8629.0
30
0.0
10
8734.0
20
-8629.0
30
0.0
10
8716.0
20
-8627.0
30
0.0
10
8700.0
20
-8625.0
30
0.0
10
8684.0
20
-8621.0
30
0.0
10
8668.0
20
-8617.0
30
0.0
10
8653.0
20
-8613.0
30
0.0
10
8637.0
20
-8610.0
30
0.0
10
8620.0
20
-8607.0
30
0.0
10
8597.0
20
-8604.0
30
0.0
10
8572.0
20
-8603.0
30
0.0
10
8545.0
20
-8602.0
30
0.0
10
8518.0
20
-8601.0
30
0.0
10
8490.0
20
-8600.0
30
0.0
10
8461.0
20
-8598.0
30
0.0
10
8432.0
20
-8595.0
30
0.0
10
8399.0
20
-8590.0
30
0.0
10
8367.0
20
-8583.0
30
0.0
10
8335.0
20
-8575.0
30
0.0
10
8304.0
20
-8564.0
30
0.0
10
8273.0
20
-8553.0
30
0.0
10
8244.0
20
-8540.0
30
0.0
10
8215.0
20
-8525.0
30
0.0
10
8191.0
20
-8511.0
30
0.0
10
8167.0
20
-8496.0
30
0.0
10
8145.0
20
-8480.0
30
0.0
10
8124.0
20
-8464.0
30
0.0
10
8103.0
20
-8447.0
30
0.0
10
8084.0
20
-8431.0
30
0.0
10
8066.0
20
-8415.0
30
0.0
10
8052.0
20
-8402.0
30
0.0
10
8038.0
20
-8389.0
30
0.0
10
8025.0
20
-8377.0
30
0.0
10
8011.0
20
-8366.0
30
0.0
10
7997.0
20
-8356.0
30
0.0
10
7982.0
20
-8346.0
30
0.0
10
7967.0
20
-8338.0
30
0.0
10
7949.0
20
-8330.0
30
0.0
10
7929.0
20
-8324.0
30
0.0
10
7909.0
20
-8319.0
30
0.0
10
7889.0
20
-8314.0
30
0.0
10
7868.0
20
-8309.0
30
0.0
10
7847.0
20
-8305.0
30
0.0
10
7826.0
20
-8300.0
30
0.0
10
7803.0
20
-8295.0
30
0.0
10
7781.0
20
-8289.0
30
0.0
10
7759.0
20
-8283.0
30
0.0
10
7736.0
20
-8276.0
30
0.0
10
7712.0
20
-8269.0
30
0.0
10
7688.0
20
-8262.0
30
0.0
10
7661.0
20
-8255.0
30
0.0
10
7644.0
20
-8251.0
30
0.0
10
7627.0
20
-8246.0
30
0.0
10
7609.0
20
-8242.0
30
0.0
10
7591.0
20
-8237.0
30
0.0
10
7572.0
20
-8233.0
30
0.0
10
7553.0
20
-8229.0
30
0.0
10
7534.0
20
-8225.0
30
0.0
10
7511.0
20
-8220.0
30
0.0
10
7489.0
20
-8215.0
30
0.0
10
7466.0
20
-8211.0
30
0.0
10
7444.0
20
-8207.0
30
0.0
10
7422.0
20
-8203.0
30
0.0
10
7400.0
20
-8200.0
30
0.0
10
7378.0
20
-8197.0
30
0.0
10
7342.0
20
-8192.0
30
0.0
10
7306.0
20
-8188.0
30
0.0
10
7271.0
20
-8184.0
30
0.0
10
7236.0
20
-8179.0
30
0.0
10
7201.0
20
-8174.0
30
0.0
10
7164.0
20
-8168.0
30
0.0
10
7125.0
20
-8160.0
30
0.0
10
7072.0
20
-8147.0
30
0.0
10
7017.0
20
-8131.0
30
0.0
10
6959.0
20
-8115.0
30
0.0
10
6900.0
20
-8098.0
30
0.0
10
6841.0
20
-8082.0
30
0.0
10
6783.0
20
-8068.0
30
0.0
10
6726.0
20
-8057.0
30
0.0
10
6682.0
20
-8051.0
30
0.0
10
6639.0
20
-8047.0
30
0.0
10
6598.0
20
-8044.0
30
0.0
10
6558.0
20
-8041.0
30
0.0
10
6520.0
20
-8037.0
30
0.0
10
6484.0
20
-8032.0
30
0.0
10
6450.0
20
-8025.0
30
0.0
10
6431.0
20
-8019.0
30
0.0
10
6413.0
20
-8013.0
30
0.0
10
6397.0
20
-8006.0
30
0.0
10
6383.0
20
-8000.0
30
0.0
10
6372.0
20
-7995.0
30
0.0
10
6366.0
20
-7992.0
30
0.0
10
6363.0
20
-7991.0
30
0.0
10
6321.0
20
-7934.0
30
0.0
10
6241.0
20
-7954.0
30
0.0
10
6238.0
20
-7953.0
30
0.0
10
6230.0
20
-7950.0
30
0.0
10
6218.0
20
-7947.0
30
0.0
10
6203.0
20
-7944.0
30
0.0
10
6186.0
20
-7940.0
30
0.0
10
6168.0
20
-7938.0
30
0.0
10
6151.0
20
-7936.0
30
0.0
10
6134.0
20
-7936.0
30
0.0
10
6118.0
20
-7937.0
30
0.0
10
6104.0
20
-7939.0
30
0.0
10
6091.0
20
-7943.0
30
0.0
10
6079.0
20
-7946.0
30
0.0
10
6068.0
20
-7950.0
30
0.0
10
6057.0
20
-7954.0
30
0.0
10
6049.0
20
-7956.0
30
0.0
10
6042.0
20
-7959.0
30
0.0
10
6034.0
20
-7961.0
30
0.0
10
6025.0
20
-7964.0
30
0.0
10
6016.0
20
-7966.0
30
0.0
10
6006.0
20
-7969.0
30
0.0
10
5994.0
20
-7972.0
30
0.0
10
5978.0
20
-7976.0
30
0.0
10
5960.0
20
-7980.0
30
0.0
10
5943.0
20
-7985.0
30
0.0
10
5927.0
20
-7989.0
30
0.0
10
5914.0
20
-7992.0
30
0.0
10
5905.0
20
-7994.0
30
0.0
10
5901.0
20
-7995.0
30
0.0
10
5814.0
20
-7972.0
30
0.0
10
5812.0
20
-7971.0
30
0.0
10
5806.0
20
-7966.0
30
0.0
10
5796.0
20
-7960.0
30
0.0
10
5784.0
20
-7952.0
30
0.0
10
5770.0
20
-7943.0
30
0.0
10
5756.0
20
-7934.0
30
0.0
10
5741.0
20
-7924.0
30
0.0
10
5723.0
20
-7913.0
30
0.0
10
5705.0
20
-7903.0
30
0.0
10
5688.0
20
-7893.0
30
0.0
10
5671.0
20
-7883.0
30
0.0
10
5654.0
20
-7872.0
30
0.0
10
5636.0
20
-7862.0
30
0.0
10
5618.0
20
-7850.0
30
0.0
10
5604.0
20
-7840.0
30
0.0
10
5589.0
20
-7831.0
30
0.0
10
5576.0
20
-7821.0
30
0.0
10
5564.0
20
-7813.0
30
0.0
10
5555.0
20
-7806.0
30
0.0
10
5549.0
20
-7802.0
30
0.0
10
5546.0
20
-7800.0
30
0.0
10
5543.0
20
-7800.0
30
0.0
10
5532.0
20
-7798.0
30
0.0
10
5517.0
20
-7796.0
30
0.0
10
5497.0
20
-7794.0
30
0.0
10
5476.0
20
-7790.0
30
0.0
10
5453.0
20
-7786.0
30
0.0
10
5431.0
20
-7781.0
30
0.0
10
5409.0
20
-7776.0
30
0.0
10
5389.0
20
-7770.0
30
0.0
10
5370.0
20
-7763.0
30
0.0
10
5352.0
20
-7757.0
30
0.0
10
5336.0
20
-7751.0
30
0.0
10
5320.0
20
-7746.0
30
0.0
10
5305.0
20
-7741.0
30
0.0
10
5292.0
20
-7737.0
30
0.0
10
5280.0
20
-7734.0
30
0.0
10
5268.0
20
-7731.0
30
0.0
10
5255.0
20
-7729.0
30
0.0
10
5243.0
20
-7726.0
30
0.0
10
5231.0
20
-7723.0
30
0.0
10
5218.0
20
-7720.0
30
0.0
10
5205.0
20
-7716.0
30
0.0
10
5193.0
20
-7713.0
30
0.0
10
5180.0
20
-7709.0
30
0.0
10
5168.0
20
-7706.0
30
0.0
10
5156.0
20
-7703.0
30
0.0
10
5144.0
20
-7700.0
30
0.0
10
5134.0
20
-7699.0
30
0.0
10
5126.0
20
-7699.0
30
0.0
10
5118.0
20
-7700.0
30
0.0
10
5111.0
20
-7701.0
30
0.0
10
5103.0
20
-7702.0
30
0.0
10
5096.0
20
-7704.0
30
0.0
10
5088.0
20
-7706.0
30
0.0
10
5080.0
20
-7707.0
30
0.0
10
5069.0
20
-7710.0
30
0.0
10
5056.0
20
-7712.0
30
0.0
10
5044.0
20
-7715.0
30
0.0
10
5031.0
20
-7718.0
30
0.0
10
5018.0
20
-7722.0
30
0.0
10
5006.0
20
-7727.0
30
0.0
10
4995.0
20
-7733.0
30
0.0
10
4982.0
20
-7742.0
30
0.0
10
4971.0
20
-7752.0
30
0.0
10
4960.0
20
-7764.0
30
0.0
10
4949.0
20
-7778.0
30
0.0
10
4938.0
20
-7792.0
30
0.0
10
4926.0
20
-7808.0
30
0.0
10
4912.0
20
-7824.0
30
0.0
10
4898.0
20
-7840.0
30
0.0
10
4883.0
20
-7856.0
30
0.0
10
4868.0
20
-7871.0
30
0.0
10
4854.0
20
-7885.0
30
0.0
10
4843.0
20
-7895.0
30
0.0
10
4836.0
20
-7902.0
30
0.0
10
4833.0
20
-7904.0
30
0.0
10
4831.0
20
-7905.0
30
0.0
10
4823.0
20
-7906.0
30
0.0
10
4812.0
20
-7909.0
30
0.0
10
4798.0
20
-7912.0
30
0.0
10
4782.0
20
-7917.0
30
0.0
10
4765.0
20
-7921.0
30
0.0
10
4748.0
20
-7926.0
30
0.0
10
4727.0
20
-7933.0
30
0.0
10
4708.0
20
-7941.0
30
0.0
10
4689.0
20
-7948.0
30
0.0
10
4671.0
20
-7956.0
30
0.0
10
4654.0
20
-7965.0
30
0.0
10
4637.0
20
-7973.0
30
0.0
10
4620.0
20
-7981.0
30
0.0
10
4605.0
20
-7989.0
30
0.0
10
4589.0
20
-7996.0
30
0.0
10
4574.0
20
-8004.0
30
0.0
10
4559.0
20
-8010.0
30
0.0
10
4545.0
20
-8017.0
30
0.0
10
4530.0
20
-8023.0
30
0.0
10
4516.0
20
-8029.0
30
0.0
10
4502.0
20
-8034.0
30
0.0
10
4488.0
20
-8039.0
30
0.0
10
4474.0
20
-8043.0
30
0.0
10
4458.0
20
-8048.0
30
0.0
10
4441.0
20
-8052.0
30
0.0
10
4423.0
20
-8057.0
30
0.0
10
4402.0
20
-8063.0
30
0.0
10
4377.0
20
-8070.0
30
0.0
10
4350.0
20
-8078.0
30
0.0
10
4323.0
20
-8085.0
30
0.0
10
4300.0
20
-8092.0
30
0.0
10
4280.0
20
-8098.0
30
0.0
10
4267.0
20
-8101.0
30
0.0
10
4263.0
20
-8103.0
30
0.0
10
4207.0
20
-8075.0
30
0.0
10
4211.0
20
-7954.0
30
0.0
10
4158.0
20
-8005.0
30
0.0
10
4155.0
20
-8004.0
30
0.0
10
4146.0
20
-7999.0
30
0.0
10
4132.0
20
-7992.0
30
0.0
10
4114.0
20
-7984.0
30
0.0
10
4094.0
20
-7974.0
30
0.0
10
4073.0
20
-7964.0
30
0.0
10
4051.0
20
-7954.0
30
0.0
10
4028.0
20
-7944.0
30
0.0
10
4005.0
20
-7935.0
30
0.0
10
3984.0
20
-7927.0
30
0.0
10
3964.0
20
-7919.0
30
0.0
10
3945.0
20
-7913.0
30
0.0
10
3926.0
20
-7907.0
30
0.0
10
3908.0
20
-7902.0
30
0.0
10
3893.0
20
-7898.0
30
0.0
10
3879.0
20
-7895.0
30
0.0
10
3865.0
20
-7892.0
30
0.0
10
3852.0
20
-7889.0
30
0.0
10
3838.0
20
-7887.0
30
0.0
10
3825.0
20
-7884.0
30
0.0
10
3812.0
20
-7882.0
30
0.0
10
3799.0
20
-7880.0
30
0.0
10
3787.0
20
-7878.0
30
0.0
10
3775.0
20
-7876.0
30
0.0
10
3762.0
20
-7874.0
30
0.0
10
3750.0
20
-7873.0
30
0.0
10
3737.0
20
-7872.0
30
0.0
10
3724.0
20
-7871.0
30
0.0
10
3709.0
20
-7871.0
30
0.0
10
3694.0
20
-7871.0
30
0.0
10
3679.0
20
-7871.0
30
0.0
10
3663.0
20
-7872.0
30
0.0
10
3648.0
20
-7873.0
30
0.0
10
3633.0
20
-7875.0
30
0.0
10
3617.0
20
-7877.0
30
0.0
10
3603.0
20
-7880.0
30
0.0
10
3588.0
20
-7882.0
30
0.0
10
3574.0
20
-7885.0
30
0.0
10
3560.0
20
-7889.0
30
0.0
10
3546.0
20
-7892.0
30
0.0
10
3532.0
20
-7896.0
30
0.0
10
3518.0
20
-7900.0
30
0.0
10
3505.0
20
-7904.0
30
0.0
10
3492.0
20
-7908.0
30
0.0
10
3479.0
20
-7912.0
30
0.0
10
3466.0
20
-7917.0
30
0.0
10
3454.0
20
-7921.0
30
0.0
10
3441.0
20
-7925.0
30
0.0
10
3428.0
20
-7929.0
30
0.0
10
3416.0
20
-7933.0
30
0.0
10
3404.0
20
-7937.0
30
0.0
10
3391.0
20
-7940.0
30
0.0
10
3379.0
20
-7944.0
30
0.0
10
3366.0
20
-7948.0
30
0.0
10
3353.0
20
-7953.0
30
0.0
10
3340.0
20
-7958.0
30
0.0
10
3325.0
20
-7964.0
30
0.0
10
3310.0
20
-7971.0
30
0.0
10
3295.0
20
-7978.0
30
0.0
10
3280.0
20
-7986.0
30
0.0
10
3267.0
20
-7994.0
30
0.0
10
3255.0
20
-8003.0
30
0.0
10
3244.0
20
-8013.0
30
0.0
10
3238.0
20
-8020.0
30
0.0
10
3232.0
20
-8027.0
30
0.0
10
3227.0
20
-8034.0
30
0.0
10
3222.0
20
-8041.0
30
0.0
10
3217.0
20
-8047.0
30
0.0
10
3211.0
20
-8052.0
30
0.0
10
3204.0
20
-8057.0
30
0.0
10
3196.0
20
-8061.0
30
0.0
10
3185.0
20
-8064.0
30
0.0
10
3174.0
20
-8067.0
30
0.0
10
3162.0
20
-8068.0
30
0.0
10
3150.0
20
-8070.0
30
0.0
10
3137.0
20
-8071.0
30
0.0
10
3124.0
20
-8072.0
30
0.0
10
3110.0
20
-8073.0
30
0.0
10
3097.0
20
-8075.0
30
0.0
10
3084.0
20
-8077.0
30
0.0
10
3071.0
20
-8079.0
30
0.0
10
3059.0
20
-8081.0
30
0.0
10
3047.0
20
-8082.0
30
0.0
10
3036.0
20
-8083.0
30
0.0
10
3026.0
20
-8083.0
30
0.0
10
3016.0
20
-8084.0
30
0.0
10
3006.0
20
-8084.0
30
0.0
10
2996.0
20
-8085.0
30
0.0
10
2985.0
20
-8086.0
30
0.0
10
2973.0
20
-8088.0
30
0.0
10
2961.0
20
-8092.0
30
0.0
10
2945.0
20
-8097.0
30
0.0
10
2929.0
20
-8104.0
30
0.0
10
2913.0
20
-8111.0
30
0.0
10
2899.0
20
-8117.0
30
0.0
10
2887.0
20
-8123.0
30
0.0
10
2880.0
20
-8127.0
30
0.0
10
2877.0
20
-8128.0
30
0.0
10
2874.0
20
-8124.0
30
0.0
10
2866.0
20
-8112.0
30
0.0
10
2854.0
20
-8095.0
30
0.0
10
2840.0
20
-8074.0
30
0.0
10
2823.0
20
-8052.0
30
0.0
10
2804.0
20
-8030.0
30
0.0
10
2786.0
20
-8009.0
30
0.0
10
2769.0
20
-7993.0
30
0.0
10
2752.0
20
-7980.0
30
0.0
10
2736.0
20
-7969.0
30
0.0
10
2720.0
20
-7960.0
30
0.0
10
2703.0
20
-7951.0
30
0.0
10
2687.0
20
-7943.0
30
0.0
10
2670.0
20
-7934.0
30
0.0
10
2652.0
20
-7923.0
30
0.0
10
2634.0
20
-7911.0
30
0.0
10
2616.0
20
-7899.0
30
0.0
10
2599.0
20
-7886.0
30
0.0
10
2582.0
20
-7873.0
30
0.0
10
2566.0
20
-7861.0
30
0.0
10
2551.0
20
-7850.0
30
0.0
10
2539.0
20
-7841.0
30
0.0
10
2529.0
20
-7833.0
30
0.0
10
2518.0
20
-7824.0
30
0.0
10
2507.0
20
-7815.0
30
0.0
10
2495.0
20
-7805.0
30
0.0
10
2483.0
20
-7794.0
30
0.0
10
2468.0
20
-7780.0
30
0.0
10
2447.0
20
-7759.0
30
0.0
10
2424.0
20
-7736.0
30
0.0
10
2401.0
20
-7713.0
30
0.0
10
2380.0
20
-7691.0
30
0.0
10
2363.0
20
-7674.0
30
0.0
10
2351.0
20
-7662.0
30
0.0
10
2347.0
20
-7657.0
30
0.0
10
2347.0
20
-7654.0
30
0.0
10
2349.0
20
-7645.0
30
0.0
10
2352.0
20
-7632.0
30
0.0
10
2357.0
20
-7616.0
30
0.0
10
2363.0
20
-7598.0
30
0.0
10
2371.0
20
-7580.0
30
0.0
10
2381.0
20
-7562.0
30
0.0
10
2396.0
20
-7541.0
30
0.0
10
2412.0
20
-7523.0
30
0.0
10
2430.0
20
-7506.0
30
0.0
10
2447.0
20
-7491.0
30
0.0
10
2463.0
20
-7475.0
30
0.0
10
2476.0
20
-7459.0
30
0.0
10
2484.0
20
-7441.0
30
0.0
10
2488.0
20
-7424.0
30
0.0
10
2488.0
20
-7406.0
30
0.0
10
2486.0
20
-7387.0
30
0.0
10
2482.0
20
-7368.0
30
0.0
10
2476.0
20
-7349.0
30
0.0
10
2470.0
20
-7331.0
30
0.0
10
2464.0
20
-7314.0
30
0.0
10
2461.0
20
-7302.0
30
0.0
10
2457.0
20
-7291.0
30
0.0
10
2454.0
20
-7281.0
30
0.0
10
2451.0
20
-7272.0
30
0.0
10
2447.0
20
-7263.0
30
0.0
10
2443.0
20
-7255.0
30
0.0
10
2438.0
20
-7248.0
30
0.0
10
2431.0
20
-7240.0
30
0.0
10
2424.0
20
-7233.0
30
0.0
10
2416.0
20
-7226.0
30
0.0
10
2407.0
20
-7218.0
30
0.0
10
2399.0
20
-7210.0
30
0.0
10
2390.0
20
-7201.0
30
0.0
10
2382.0
20
-7190.0
30
0.0
10
2375.0
20
-7180.0
30
0.0
10
2368.0
20
-7169.0
30
0.0
10
2363.0
20
-7158.0
30
0.0
10
2358.0
20
-7149.0
30
0.0
10
2355.0
20
-7141.0
30
0.0
10
2353.0
20
-7136.0
30
0.0
10
2352.0
20
-7134.0
30
0.0
10
2351.0
20
-7131.0
30
0.0
10
2350.0
20
-7122.0
30
0.0
10
2347.0
20
-7109.0
30
0.0
10
2344.0
20
-7093.0
30
0.0
10
2340.0
20
-7075.0
30
0.0
10
2336.0
20
-7056.0
30
0.0
10
2331.0
20
-7037.0
30
0.0
10
2324.0
20
-7016.0
30
0.0
10
2316.0
20
-6996.0
30
0.0
10
2308.0
20
-6978.0
30
0.0
10
2300.0
20
-6960.0
30
0.0
10
2291.0
20
-6942.0
30
0.0
10
2282.0
20
-6925.0
30
0.0
10
2273.0
20
-6907.0
30
0.0
10
2264.0
20
-6889.0
30
0.0
10
2254.0
20
-6871.0
30
0.0
10
2245.0
20
-6853.0
30
0.0
10
2235.0
20
-6836.0
30
0.0
10
2225.0
20
-6820.0
30
0.0
10
2214.0
20
-6806.0
30
0.0
10
2202.0
20
-6794.0
30
0.0
10
2192.0
20
-6787.0
30
0.0
10
2182.0
20
-6781.0
30
0.0
10
2172.0
20
-6775.0
30
0.0
10
2162.0
20
-6771.0
30
0.0
10
2153.0
20
-6766.0
30
0.0
10
2144.0
20
-6762.0
30
0.0
10
2135.0
20
-6757.0
30
0.0
10
2129.0
20
-6753.0
30
0.0
10
2124.0
20
-6748.0
30
0.0
10
2118.0
20
-6743.0
30
0.0
10
2113.0
20
-6738.0
30
0.0
10
2108.0
20
-6733.0
30
0.0
10
2102.0
20
-6728.0
30
0.0
10
2095.0
20
-6724.0
30
0.0
10
2086.0
20
-6718.0
30
0.0
10
2076.0
20
-6714.0
30
0.0
10
2065.0
20
-6709.0
30
0.0
10
2053.0
20
-6706.0
30
0.0
10
2041.0
20
-6702.0
30
0.0
10
2028.0
20
-6698.0
30
0.0
10
2015.0
20
-6694.0
30
0.0
10
2000.0
20
-6690.0
30
0.0
10
1984.0
20
-6685.0
30
0.0
10
1969.0
20
-6680.0
30
0.0
10
1954.0
20
-6675.0
30
0.0
10
1940.0
20
-6669.0
30
0.0
10
1925.0
20
-6662.0
30
0.0
10
1912.0
20
-6655.0
30
0.0
10
1899.0
20
-6648.0
30
0.0
10
1888.0
20
-6640.0
30
0.0
10
1877.0
20
-6632.0
30
0.0
10
1866.0
20
-6623.0
30
0.0
10
1857.0
20
-6613.0
30
0.0
10
1849.0
20
-6602.0
30
0.0
10
1842.0
20
-6591.0
30
0.0
10
1836.0
20
-6578.0
30
0.0
10
1831.0
20
-6565.0
30
0.0
10
1827.0
20
-6551.0
30
0.0
10
1823.0
20
-6536.0
30
0.0
10
1819.0
20
-6522.0
30
0.0
10
1814.0
20
-6507.0
30
0.0
10
1808.0
20
-6493.0
30
0.0
10
1800.0
20
-6479.0
30
0.0
10
1792.0
20
-6465.0
30
0.0
10
1782.0
20
-6452.0
30
0.0
10
1771.0
20
-6439.0
30
0.0
10
1761.0
20
-6426.0
30
0.0
10
1750.0
20
-6412.0
30
0.0
10
1739.0
20
-6399.0
30
0.0
10
1729.0
20
-6385.0
30
0.0
10
1719.0
20
-6370.0
30
0.0
10
1709.0
20
-6355.0
30
0.0
10
1700.0
20
-6340.0
30
0.0
10
1690.0
20
-6324.0
30
0.0
10
1680.0
20
-6307.0
30
0.0
10
1670.0
20
-6290.0
30
0.0
10
1658.0
20
-6269.0
30
0.0
10
1646.0
20
-6249.0
30
0.0
10
1633.0
20
-6228.0
30
0.0
10
1620.0
20
-6207.0
30
0.0
10
1608.0
20
-6188.0
30
0.0
10
1595.0
20
-6170.0
30
0.0
10
1583.0
20
-6153.0
30
0.0
10
1576.0
20
-6144.0
30
0.0
10
1569.0
20
-6135.0
30
0.0
10
1562.0
20
-6128.0
30
0.0
10
1555.0
20
-6121.0
30
0.0
10
1548.0
20
-6116.0
30
0.0
10
1541.0
20
-6111.0
30
0.0
10
1534.0
20
-6108.0
30
0.0
10
1527.0
20
-6106.0
30
0.0
10
1519.0
20
-6105.0
30
0.0
10
1512.0
20
-6104.0
30
0.0
10
1504.0
20
-6103.0
30
0.0
10
1496.0
20
-6103.0
30
0.0
10
1488.0
20
-6102.0
30
0.0
10
1479.0
20
-6101.0
30
0.0
10
1468.0
20
-6098.0
30
0.0
10
1456.0
20
-6095.0
30
0.0
10
1444.0
20
-6092.0
30
0.0
10
1432.0
20
-6088.0
30
0.0
10
1420.0
20
-6085.0
30
0.0
10
1407.0
20
-6083.0
30
0.0
10
1395.0
20
-6082.0
30
0.0
10
1382.0
20
-6082.0
30
0.0
10
1369.0
20
-6084.0
30
0.0
10
1356.0
20
-6087.0
30
0.0
10
1343.0
20
-6090.0
30
0.0
10
1329.0
20
-6093.0
30
0.0
10
1315.0
20
-6095.0
30
0.0
10
1300.0
20
-6096.0
30
0.0
10
1287.0
20
-6096.0
30
0.0
10
1274.0
20
-6096.0
30
0.0
10
1262.0
20
-6095.0
30
0.0
10
1251.0
20
-6094.0
30
0.0
10
1243.0
20
-6093.0
30
0.0
10
1237.0
20
-6092.0
30
0.0
10
1235.0
20
-6091.0
30
0.0
10
1233.0
20
-6090.0
30
0.0
10
1228.0
20
-6085.0
30
0.0
10
1220.0
20
-6079.0
30
0.0
10
1209.0
20
-6071.0
30
0.0
10
1197.0
20
-6061.0
30
0.0
10
1183.0
20
-6052.0
30
0.0
10
1168.0
20
-6043.0
30
0.0
10
1149.0
20
-6033.0
30
0.0
10
1129.0
20
-6024.0
30
0.0
10
1110.0
20
-6017.0
30
0.0
10
1091.0
20
-6012.0
30
0.0
10
1073.0
20
-6009.0
30
0.0
10
1056.0
20
-6008.0
30
0.0
10
1039.0
20
-6009.0
30
0.0
10
1029.0
20
-6012.0
30
0.0
10
1018.0
20
-6015.0
30
0.0
10
1009.0
20
-6019.0
30
0.0
10
999.0
20
-6022.0
30
0.0
10
990.0
20
-6025.0
30
0.0
10
981.0
20
-6027.0
30
0.0
10
972.0
20
-6027.0
30
0.0
10
962.0
20
-6025.0
30
0.0
10
952.0
20
-6021.0
30
0.0
10
942.0
20
-6016.0
30
0.0
10
931.0
20
-6012.0
30
0.0
10
919.0
20
-6009.0
30
0.0
10
907.0
20
-6007.0
30
0.0
10
894.0
20
-6007.0
30
0.0
10
880.0
20
-6011.0
30
0.0
10
865.0
20
-6017.0
30
0.0
10
852.0
20
-6024.0
30
0.0
10
840.0
20
-6032.0
30
0.0
10
830.0
20
-6038.0
30
0.0
10
824.0
20
-6043.0
30
0.0
10
822.0
20
-6045.0
30
0.0
10
820.0
20
-6043.0
30
0.0
10
816.0
20
-6038.0
30
0.0
10
809.0
20
-6032.0
30
0.0
10
801.0
20
-6023.0
30
0.0
10
791.0
20
-6015.0
30
0.0
10
781.0
20
-6007.0
30
0.0
10
771.0
20
-6000.0
30
0.0
10
761.0
20
-5995.0
30
0.0
10
751.0
20
-5991.0
30
0.0
10
741.0
20
-5989.0
30
0.0
10
731.0
20
-5988.0
30
0.0
10
721.0
20
-5987.0
30
0.0
10
711.0
20
-5986.0
30
0.0
10
701.0
20
-5984.0
30
0.0
10
689.0
20
-5981.0
30
0.0
10
677.0
20
-5977.0
30
0.0
10
664.0
20
-5972.0
30
0.0
10
652.0
20
-5967.0
30
0.0
10
639.0
20
-5961.0
30
0.0
10
627.0
20
-5956.0
30
0.0
10
614.0
20
-5950.0
30
0.0
10
605.0
20
-5946.0
30
0.0
10
595.0
20
-5942.0
30
0.0
10
586.0
20
-5938.0
30
0.0
10
578.0
20
-5934.0
30
0.0
10
570.0
20
-5930.0
30
0.0
10
564.0
20
-5925.0
30
0.0
10
558.0
20
-5919.0
30
0.0
10
553.0
20
-5914.0
30
0.0
10
550.0
20
-5908.0
30
0.0
10
546.0
20
-5902.0
30
0.0
10
543.0
20
-5895.0
30
0.0
10
540.0
20
-5888.0
30
0.0
10
537.0
20
-5880.0
30
0.0
10
533.0
20
-5872.0
30
0.0
10
527.0
20
-5863.0
30
0.0
10
521.0
20
-5853.0
30
0.0
10
514.0
20
-5844.0
30
0.0
10
506.0
20
-5835.0
30
0.0
10
498.0
20
-5826.0
30
0.0
10
489.0
20
-5819.0
30
0.0
10
480.0
20
-5814.0
30
0.0
10
472.0
20
-5810.0
30
0.0
10
464.0
20
-5808.0
30
0.0
10
456.0
20
-5805.0
30
0.0
10
449.0
20
-5803.0
30
0.0
10
442.0
20
-5800.0
30
0.0
10
435.0
20
-5797.0
30
0.0
10
429.0
20
-5792.0
30
0.0
10
422.0
20
-5784.0
30
0.0
10
416.0
20
-5773.0
30
0.0
10
411.0
20
-5762.0
30
0.0
10
406.0
20
-5749.0
30
0.0
10
401.0
20
-5735.0
30
0.0
10
396.0
20
-5722.0
30
0.0
10
390.0
20
-5709.0
30
0.0
10
384.0
20
-5697.0
30
0.0
10
377.0
20
-5686.0
30
0.0
10
370.0
20
-5676.0
30
0.0
10
362.0
20
-5666.0
30
0.0
10
353.0
20
-5657.0
30
0.0
10
345.0
20
-5647.0
30
0.0
10
336.0
20
-5638.0
30
0.0
10
327.0
20
-5627.0
30
0.0
10
317.0
20
-5615.0
30
0.0
10
307.0
20
-5604.0
30
0.0
10
297.0
20
-5592.0
30
0.0
10
286.0
20
-5579.0
30
0.0
10
275.0
20
-5567.0
30
0.0
10
264.0
20
-5554.0
30
0.0
10
251.0
20
-5540.0
30
0.0
10
237.0
20
-5526.0
30
0.0
10
223.0
20
-5512.0
30
0.0
10
210.0
20
-5497.0
30
0.0
10
197.0
20
-5483.0
30
0.0
10
186.0
20
-5469.0
30
0.0
10
176.0
20
-5455.0
30
0.0
10
169.0
20
-5442.0
30
0.0
10
162.0
20
-5430.0
30
0.0
10
156.0
20
-5417.0
30
0.0
10
150.0
20
-5404.0
30
0.0
10
142.0
20
-5390.0
30
0.0
10
132.0
20
-5376.0
30
0.0
10
119.0
20
-5361.0
30
0.0
10
100.0
20
-5342.0
30
0.0
10
78.0
20
-5323.0
30
0.0
10
55.0
20
-5306.0
30
0.0
10
34.0
20
-5290.0
30
0.0
10
17.0
20
-5277.0
30
0.0
10
5.0
20
-5268.0
30
0.0
10
0.0
20
-5265.0
30
0.0
10
19.0
20
-5145.0
30
0.0
10
1.0
20
-5049.0
30
0.0
10
55.0
20
-5050.0
30
0.0
10
55.0
20
-5048.0
30
0.0
10
58.0
20
-5043.0
30
0.0
10
61.0
20
-5035.0
30
0.0
10
65.0
20
-5025.0
30
0.0
10
69.0
20
-5014.0
30
0.0
10
73.0
20
-5002.0
30
0.0
10
77.0
20
-4990.0
30
0.0
10
80.0
20
-4976.0
30
0.0
10
83.0
20
-4962.0
30
0.0
10
85.0
20
-4949.0
30
0.0
10
86.0
20
-4936.0
30
0.0
10
87.0
20
-4923.0
30
0.0
10
88.0
20
-4910.0
30
0.0
10
89.0
20
-4897.0
30
0.0
10
91.0
20
-4881.0
30
0.0
10
93.0
20
-4865.0
30
0.0
10
96.0
20
-4848.0
30
0.0
10
98.0
20
-4830.0
30
0.0
10
100.0
20
-4812.0
30
0.0
10
102.0
20
-4794.0
30
0.0
10
102.0
20
-4776.0
30
0.0
10
102.0
20
-4758.0
30
0.0
10
100.0
20
-4739.0
30
0.0
10
98.0
20
-4721.0
30
0.0
10
96.0
20
-4702.0
30
0.0
10
93.0
20
-4683.0
30
0.0
10
89.0
20
-4664.0
30
0.0
10
86.0
20
-4645.0
30
0.0
10
83.0
20
-4625.0
30
0.0
10
81.0
20
-4605.0
30
0.0
10
78.0
20
-4585.0
30
0.0
10
76.0
20
-4564.0
30
0.0
10
73.0
20
-4544.0
30
0.0
10
71.0
20
-4523.0
30
0.0
10
68.0
20
-4502.0
30
0.0
10
66.0
20
-4489.0
30
0.0
10
64.0
20
-4475.0
30
0.0
10
63.0
20
-4463.0
30
0.0
10
61.0
20
-4453.0
30
0.0
10
60.0
20
-4445.0
30
0.0
10
59.0
20
-4439.0
30
0.0
10
59.0
20
-4437.0
30
0.0
10
61.0
20
-4436.0
30
0.0
10
65.0
20
-4432.0
30
0.0
10
71.0
20
-4426.0
30
0.0
10
80.0
20
-4419.0
30
0.0
10
89.0
20
-4410.0
30
0.0
10
99.0
20
-4400.0
30
0.0
10
109.0
20
-4389.0
30
0.0
10
124.0
20
-4372.0
30
0.0
10
137.0
20
-4355.0
30
0.0
10
150.0
20
-4337.0
30
0.0
10
161.0
20
-4318.0
30
0.0
10
173.0
20
-4298.0
30
0.0
10
183.0
20
-4278.0
30
0.0
10
193.0
20
-4258.0
30
0.0
10
205.0
20
-4232.0
30
0.0
10
217.0
20
-4205.0
30
0.0
10
228.0
20
-4176.0
30
0.0
10
240.0
20
-4145.0
30
0.0
10
251.0
20
-4112.0
30
0.0
10
262.0
20
-4075.0
30
0.0
10
273.0
20
-4035.0
30
0.0
10
284.0
20
-3991.0
30
0.0
10
295.0
20
-3945.0
30
0.0
10
305.0
20
-3901.0
30
0.0
10
314.0
20
-3862.0
30
0.0
10
321.0
20
-3830.0
30
0.0
10
325.0
20
-3809.0
30
0.0
10
327.0
20
-3801.0
30
0.0
10
330.0
20
-3800.0
30
0.0
10
340.0
20
-3797.0
30
0.0
10
355.0
20
-3792.0
30
0.0
10
373.0
20
-3785.0
30
0.0
10
393.0
20
-3777.0
30
0.0
10
414.0
20
-3768.0
30
0.0
10
434.0
20
-3758.0
30
0.0
10
454.0
20
-3746.0
30
0.0
10
471.0
20
-3734.0
30
0.0
10
487.0
20
-3720.0
30
0.0
10
501.0
20
-3707.0
30
0.0
10
514.0
20
-3694.0
30
0.0
10
525.0
20
-3680.0
30
0.0
10
536.0
20
-3667.0
30
0.0
10
545.0
20
-3657.0
30
0.0
10
553.0
20
-3647.0
30
0.0
10
562.0
20
-3637.0
30
0.0
10
571.0
20
-3628.0
30
0.0
10
580.0
20
-3619.0
30
0.0
10
590.0
20
-3611.0
30
0.0
10
601.0
20
-3603.0
30
0.0
10
616.0
20
-3594.0
30
0.0
10
632.0
20
-3586.0
30
0.0
10
649.0
20
-3579.0
30
0.0
10
667.0
20
-3573.0
30
0.0
10
685.0
20
-3567.0
30
0.0
10
704.0
20
-3561.0
30
0.0
10
724.0
20
-3557.0
30
0.0
10
744.0
20
-3553.0
30
0.0
10
764.0
20
-3549.0
30
0.0
10
784.0
20
-3546.0
30
0.0
10
805.0
20
-3543.0
30
0.0
10
826.0
20
-3540.0
30
0.0
10
846.0
20
-3537.0
30
0.0
10
867.0
20
-3535.0
30
0.0
10
890.0
20
-3532.0
30
0.0
10
913.0
20
-3528.0
30
0.0
10
936.0
20
-3525.0
30
0.0
10
959.0
20
-3520.0
30
0.0
10
982.0
20
-3516.0
30
0.0
10
1004.0
20
-3510.0
30
0.0
10
1026.0
20
-3503.0
30
0.0
10
1048.0
20
-3496.0
30
0.0
10
1069.0
20
-3487.0
30
0.0
10
1090.0
20
-3478.0
30
0.0
10
1110.0
20
-3468.0
30
0.0
10
1130.0
20
-3457.0
30
0.0
10
1149.0
20
-3445.0
30
0.0
10
1168.0
20
-3433.0
30
0.0
10
1186.0
20
-3420.0
30
0.0
10
1205.0
20
-3406.0
30
0.0
10
1222.0
20
-3392.0
30
0.0
10
1239.0
20
-3377.0
30
0.0
10
1256.0
20
-3361.0
30
0.0
10
1272.0
20
-3344.0
30
0.0
10
1288.0
20
-3326.0
30
0.0
10
1304.0
20
-3307.0
30
0.0
10
1319.0
20
-3287.0
30
0.0
10
1334.0
20
-3267.0
30
0.0
10
1349.0
20
-3247.0
30
0.0
10
1363.0
20
-3227.0
30
0.0
10
1377.0
20
-3209.0
30
0.0
10
1391.0
20
-3192.0
30
0.0
10
1403.0
20
-3180.0
30
0.0
10
1414.0
20
-3168.0
30
0.0
10
1425.0
20
-3157.0
30
0.0
10
1435.0
20
-3145.0
30
0.0
10
1445.0
20
-3133.0
30
0.0
10
1455.0
20
-3119.0
30
0.0
10
1463.0
20
-3103.0
30
0.0
10
1470.0
20
-3087.0
30
0.0
10
1477.0
20
-3071.0
30
0.0
10
1482.0
20
-3054.0
30
0.0
10
1486.0
20
-3040.0
30
0.0
10
1490.0
20
-3028.0
30
0.0
10
1492.0
20
-3020.0
30
0.0
10
1493.0
20
-3017.0
30
0.0
10
1497.0
20
-3012.0
30
0.0
10
1510.0
20
-2997.0
30
0.0
10
1528.0
20
-2974.0
30
0.0
10
1549.0
20
-2945.0
30
0.0
10
1572.0
20
-2912.0
30
0.0
10
1594.0
20
-2876.0
30
0.0
10
1613.0
20
-2839.0
30
0.0
10
1629.0
20
-2795.0
30
0.0
10
1639.0
20
-2752.0
30
0.0
10
1645.0
20
-2710.0
30
0.0
10
1647.0
20
-2668.0
30
0.0
10
1647.0
20
-2625.0
30
0.0
10
1646.0
20
-2582.0
30
0.0
10
1644.0
20
-2538.0
30
0.0
10
1644.0
20
-2506.0
30
0.0
10
1645.0
20
-2476.0
30
0.0
10
1645.0
20
-2448.0
30
0.0
10
1646.0
20
-2423.0
30
0.0
10
1647.0
20
-2404.0
30
0.0
10
1648.0
20
-2391.0
30
0.0
10
1648.0
20
-2387.0
30
0.0
10
1651.0
20
-2384.0
30
0.0
10
1660.0
20
-2376.0
30
0.0
10
1674.0
20
-2364.0
30
0.0
10
1691.0
20
-2348.0
30
0.0
10
1711.0
20
-2330.0
30
0.0
10
1731.0
20
-2309.0
30
0.0
10
1752.0
20
-2286.0
30
0.0
10
1772.0
20
-2263.0
30
0.0
10
1790.0
20
-2239.0
30
0.0
10
1807.0
20
-2218.0
30
0.0
10
1820.0
20
-2199.0
30
0.0
10
1831.0
20
-2184.0
30
0.0
10
1837.0
20
-2174.0
30
0.0
10
1840.0
20
-2170.0
30
0.0
10
1843.0
20
-2170.0
30
0.0
10
1853.0
20
-2169.0
30
0.0
10
1867.0
20
-2166.0
30
0.0
10
1885.0
20
-2163.0
30
0.0
10
1905.0
20
-2158.0
30
0.0
10
1925.0
20
-2151.0
30
0.0
10
1945.0
20
-2144.0
30
0.0
10
1968.0
20
-2132.0
30
0.0
10
1989.0
20
-2118.0
30
0.0
10
2007.0
20
-2102.0
30
0.0
10
2024.0
20
-2085.0
30
0.0
10
2039.0
20
-2068.0
30
0.0
10
2053.0
20
-2049.0
30
0.0
10
2067.0
20
-2031.0
30
0.0
10
2081.0
20
-2012.0
30
0.0
10
2094.0
20
-1993.0
30
0.0
10
2108.0
20
-1973.0
30
0.0
10
2121.0
20
-1953.0
30
0.0
10
2133.0
20
-1931.0
30
0.0
10
2146.0
20
-1908.0
30
0.0
10
2159.0
20
-1883.0
30
0.0
10
2169.0
20
-1860.0
30
0.0
10
2180.0
20
-1836.0
30
0.0
10
2189.0
20
-1814.0
30
0.0
10
2197.0
20
-1794.0
30
0.0
10
2203.0
20
-1778.0
30
0.0
10
2207.0
20
-1767.0
30
0.0
10
2209.0
20
-1763.0
30
0.0
10
2211.0
20
-1761.0
30
0.0
10
2220.0
20
-1754.0
30
0.0
10
2233.0
20
-1744.0
30
0.0
10
2251.0
20
-1731.0
30
0.0
10
2274.0
20
-1716.0
30
0.0
10
2301.0
20
-1700.0
30
0.0
10
2331.0
20
-1683.0
30
0.0
10
2379.0
20
-1660.0
30
0.0
10
2430.0
20
-1638.0
30
0.0
10
2479.0
20
-1619.0
30
0.0
10
2525.0
20
-1602.0
30
0.0
10
2561.0
20
-1589.0
30
0.0
10
2586.0
20
-1581.0
30
0.0
10
2595.0
20
-1578.0
30
0.0
10
2597.0
20
-1581.0
30
0.0
6
Solid
370
35
62
0
0
LWPOLYLINE
5
e06
100
AcDbEntity
100
AcDbPolyline
90
5
70
1
10
9084.0
20
-7267.0
30
0.0
10
9074.0
20
-7319.0
30
0.0
10
9000.0
20
-7332.0
30
0.0
10
9018.0
20
-7259.0
30
0.0
10
9084.0
20
-7267.0
30
0.0
6
Solid
370
35
62
0
0
LWPOLYLINE
5
e08
100
AcDbEntity
100
AcDbPolyline
90
7
70
1
10
3409.0
20
-7691.0
30
0.0
10
3416.0
20
-7757.0
30
0.0
10
3420.0
20
-7808.0
30
0.0
10
3263.0
20
-7804.0
30
0.0
10
3265.0
20
-7752.0
30
0.0
10
3357.0
20
-7664.0
30
0.0
10
3409.0
20
-7691.0
30
0.0
6
Solid
370
35
62
0
0
LWPOLYLINE
5
e0a
100
AcDbEntity
100
AcDbPolyline
90
5
70
1
10
7754.0
20
-4617.0
30
0.0
10
7665.0
20
-4579.0
30
0.0
10
7684.0
20
-4513.0
30
0.0
10
7802.0
20
-4553.0
30
0.0
10
7754.0
20
-4617.0
30
0.0
6
Solid
370
35
62
0
0
LWPOLYLINE
5
e0c
100
AcDbEntity
100
AcDbPolyline
90
5
70
1
10
7770.0
20
-3895.0
30
0.0
10
7678.0
20
-3854.0
30
0.0
10
7717.0
20
-3784.0
30
0.0
10
7797.0
20
-3813.0
30
0.0
10
7770.0
20
-3895.0
30
0.0
6
Solid
370
35
62
0
0
LWPOLYLINE
5
e0e
100
AcDbEntity
100
AcDbPolyline
90
5
70
1
10
3441.0
20
-4693.0
30
0.0
10
3335.0
20
-4688.0
30
0.0
10
3361.0
20
-4618.0
30
0.0
10
3460.0
20
-4603.0
30
0.0
10
3441.0
20
-4693.0
30
0.0
6
Solid
370
35
62
0
0
LWPOLYLINE
5
e10
100
AcDbEntity
100
AcDbPolyline
90
5
70
1
10
3340.0
20
-3973.0
30
0.0
10
3257.0
20
-3956.0
30
0.0
10
3281.0
20
-3887.0
30
0.0
10
3373.0
20
-3894.0
30
0.0
10
3340.0
20
-3973.0
30
0.0
6
Solid
370
35
62
0
0
LWPOLYLINE
5
e13
100
AcDbEntity
8
zone_0_q2
100
AcDbPolyline
90
18
70
1
10
5945.0
20
-7556.0
30
0.0
10
5910.0
20
-7149.0
30
0.0
10
6176.0
20
-6959.0
30
0.0
10
6495.0
20
-6767.0
30
0.0
10
6772.0
20
-6643.0
30
0.0
10
7106.0
20
-6610.0
30
0.0
10
7341.0
20
-6650.0
30
0.0
10
7645.0
20
-6709.0
30
0.0
10
7971.0
20
-6774.0
30
0.0
10
8364.0
20
-7020.0
30
0.0
10
8524.0
20
-7313.0
30
0.0
10
8433.0
20
-7719.0
30
0.0
10
8394.0
20
-8103.0
30
0.0
10
8308.0
20
-8415.0
30
0.0
10
7699.0
20
-8247.0
30
0.0
10
6361.0
20
-7932.0
30
0.0
10
5948.0
20
-7859.0
30
0.0
10
5945.0
20
-7556.0
30
0.0
6
Solid
370
35
62
2
0
LWPOLYLINE
5
e16
100
AcDbEntity
8
zone_1_q3
100
AcDbPolyline
90
5
70
1
10
9458.0
20
-8457.0
30
0.0
10
8968.0
20
-8431.0
30
0.0
10
8929.0
20
-7880.0
30
0.0
10
9439.0
20
-7877.0
30
0.0
10
9458.0
20
-8457.0
30
0.0
6
Solid
370
35
62
3
0
LWPOLYLINE
5
e19
100
AcDbEntity
8
zone_2_q2
100
AcDbPolyline
90
57
70
1
10
9027.0
20
-6430.0
30
0.0
10
9037.0
20
-6439.0
30
0.0
10
9051.0
20
-6452.0
30
0.0
10
9067.0
20
-6470.0
30
0.0
10
9084.0
20
-6492.0
30
0.0
10
9099.0
20
-6515.0
30
0.0
10
9110.0
20
-6541.0
30
0.0
10
9116.0
20
-6566.0
30
0.0
10
9118.0
20
-6590.0
30
0.0
10
9118.0
20
-6613.0
30
0.0
10
9116.0
20
-6633.0
30
0.0
10
9114.0
20
-6648.0
30
0.0
10
9111.0
20
-6659.0
30
0.0
10
9110.0
20
-6662.0
30
0.0
10
9107.0
20
-6663.0
30
0.0
10
9097.0
20
-6664.0
30
0.0
10
9082.0
20
-6666.0
30
0.0
10
9064.0
20
-6666.0
30
0.0
10
9044.0
20
-6665.0
30
0.0
10
9022.0
20
-6662.0
30
0.0
10
9001.0
20
-6655.0
30
0.0
10
8982.0
20
-6645.0
30
0.0
10
8964.0
20
-6632.0
30
0.0
10
8949.0
20
-6618.0
30
0.0
10
8936.0
20
-6605.0
30
0.0
10
8927.0
20
-6593.0
30
0.0
10
8921.0
20
-6585.0
30
0.0
10
8919.0
20
-6582.0
30
0.0
10
8917.0
20
-6579.0
30
0.0
10
8910.0
20
-6571.0
30
0.0
10
8901.0
20
-6558.0
30
0.0
10
8891.0
20
-6542.0
30
0.0
10
8882.0
20
-6523.0
30
0.0
10
8874.0
20
-6502.0
30
0.0
10
8868.0
20
-6481.0
30
0.0
10
8867.0
20
-6463.0
30
0.0
10
8868.0
20
-6446.0
30
0.0
10
8871.0
20
-6431.0
30
0.0
10
8875.0
20
-6417.0
30
0.0
10
8878.0
20
-6407.0
30
0.0
10
8881.0
20
-6400.0
30
0.0
10
8882.0
20
-6398.0
30
0.0
10
8885.0
20
-6397.0
30
0.0
10
8892.0
20
-6395.0
30
0.0
10
8902.0
20
-6392.0
30
0.0
10
8916.0
20
-6390.0
30
0.0
10
8931.0
20
-6388.0
30
0.0
10
8946.0
20
-6388.0
30
0.0
10
8962.0
20
-6390.0
30
0.0
10
8976.0
20
-6395.0
30
0.0
10
8989.0
20
-6401.0
30
0.0
10
9001.0
20
-6408.0
30
0.0
10
9010.0
20
-6415.0
30
0.0
10
9017.0
20
-6421.0
30
0.0
10
9022.0
20
-6425.0
30
0.0
10
9024.0
20
-6427.0
30
0.0
10
9027.0
20
-6430.0
30
0.0
6
Solid
370
35
62
2
0
LWPOLYLINE
5
e1c
100
AcDbEntity
8
zone_3_q2
100
AcDbPolyline
90
9
70
1
10
4432.0
20
-7749.0
30
0.0
10
4403.0
20
-7800.0
30
0.0
10
4241.0
20
-7769.0
30
0.0
10
4214.0
20
-7726.0
30
0.0
10
4245.0
20
-7656.0
30
0.0
10
4289.0
20
-7625.0
30
0.0
10
4358.0
20
-7628.0
30
0.0
10
4441.0
20
-7688.0
30
0.0
10
4432.0
20
-7749.0
30
0.0
6
Solid
370
35
62
2
0
LWPOLYLINE
5
e1f
100
AcDbEntity
8
zone_4_q3
100
AcDbPolyline
90
6
70
1
10
4178.0
20
-7884.0
30
0.0
10
3665.0
20
-7847.0
30
0.0
10
3572.0
20
-7872.0
30
0.0
10
3571.0
20
-7240.0
30
0.0
10
4151.0
20
-7337.0
30
0.0
10
4178.0
20
-7884.0
30
0.0
6
Solid
370
35
62
3
0
LWPOLYLINE
5
e22
100
AcDbEntity
8
zone_5_q2
100
AcDbPolyline
90
15
70
1
10
8339.0
20
-3585.0
30
0.0
10
8370.0
20
-3650.0
30
0.0
10
8372.0
20
-3743.0
30
0.0
10
8403.0
20
-3806.0
30
0.0
10
8386.0
20
-3895.0
30
0.0
10
8347.0
20
-3940.0
30
0.0
10
8290.0
20
-3925.0
30
0.0
10
8244.0
20
-3849.0
30
0.0
10
8200.0
20
-3785.0
30
0.0
10
8165.0
20
-3718.0
30
0.0
10
8156.0
20
-3629.0
30
0.0
10
8171.0
20
-3570.0
30
0.0
10
8224.0
20
-3521.0
30
0.0
10
8293.0
20
-3527.0
30
0.0
10
8339.0
20
-3585.0
30
0.0
6
Solid
370
35
62
2
0
LWPOLYLINE
5
e25
100
AcDbEntity
8
zone_6_q2
100
AcDbPolyline
90
5
70
1
10
580.0
20
-4073.0
30
0.0
10
475.0
20
-4066.0
30
0.0
10
481.0
20
-3992.0
30
0.0
10
589.0
20
-3986.0
30
0.0
10
580.0
20
-4073.0
30
0.0
6
Solid
370
35
62
2
0
LWPOLYLINE
5
e28
100
AcDbEntity
8
zone_7_q3
100
AcDbPolyline
90
7
70
1
10
4231.0
20
-2156.0
30
0.0
10
3758.0
20
-2257.0
30
0.0
10
3888.0
20
-1994.0
30
0.0
10
3819.0
20
-1772.0
30
0.0
10
4150.0
20
-1541.0
30
0.0
10
4594.0
20
-1396.0
30
0.0
10
4231.0
20
-2156.0
30
0.0
6
Solid
370
35
62
3
0
LWPOLYLINE
5
e2b
100
AcDbEntity
8
zone_8_q2
100
AcDbPolyline
90
19
70
1
10
7942.0
20
-724.0
30
0.0
10
8025.0
20
-974.0
30
0.0
10
8079.0
20
-1194.0
30
0.0
10
8063.0
20
-1401.0
30
0.0
10
7981.0
20
-1537.0
30
0.0
10
7760.0
20
-1691.0
30
0.0
10
7453.0
20
-1826.0
30
0.0
10
7093.0
20
-1935.0
30
0.0
10
6829.0
20
-2051.0
30
0.0
10
6659.0
20
-1985.0
30
0.0
10
6603.0
20
-1852.0
30
0.0
10
6492.0
20
-1688.0
30
0.0
10
6371.0
20
-1538.0
30
0.0
10
6222.0
20
-1358.0
30
0.0
10
6004.0
20
-1090.0
30
0.0
10
5825.0
20
-821.0
30
0.0
10
6268.0
20
-769.0
30
0.0
10
7838.0
20
-453.0
30
0.0
10
7942.0
20
-724.0
30
0.0
6
Solid
370
35
62
2
0
LWPOLYLINE
5
e2e
100
AcDbEntity
8
zone_9_q3
100
AcDbPolyline
90
57
70
1
10
9875.0
20
-871.0
30
0.0
10
9876.0
20
-868.0
30
0.0
10
9878.0
20
-863.0
30
0.0
10
9880.0
20
-858.0
30
0.0
10
9884.0
20
-852.0
30
0.0
10
9889.0
20
-846.0
30
0.0
10
9896.0
20
-841.0
30
0.0
10
9912.0
20
-835.0
30
0.0
10
9931.0
20
-831.0
30
0.0
10
9952.0
20
-829.0
30
0.0
10
9972.0
20
-829.0
30
0.0
10
9988.0
20
-829.0
30
0.0
10
10000.0
20
-830.0
30
0.0
10
10004.0
20
-831.0
30
0.0
10
10006.0
20
-833.0
30
0.0
10
10011.0
20
-838.0
30
0.0
10
10018.0
20
-847.0
30
0.0
10
10026.0
20
-859.0
30
0.0
10
10033.0
20
-873.0
30
0.0
10
10040.0
20
-890.0
30
0.0
10
10045.0
20
-908.0
30
0.0
10
10047.0
20
-929.0
30
0.0
10
10045.0
20
-950.0
30
0.0
10
10042.0
20
-971.0
30
0.0
10
10038.0
20
-989.0
30
0.0
10
10034.0
20
-1003.0
30
0.0
10
10031.0
20
-1013.0
30
0.0
10
10030.0
20
-1016.0
30
0.0
10
10027.0
20
-1019.0
30
0.0
10
10021.0
20
-1028.0
30
0.0
10
10011.0
20
-1040.0
30
0.0
10
9998.0
20
-1054.0
30
0.0
10
9982.0
20
-1070.0
30
0.0
10
9965.0
20
-1084.0
30
0.0
10
9946.0
20
-1097.0
30
0.0
10
9928.0
20
-1105.0
30
0.0
10
9910.0
20
-1110.0
30
0.0
10
9894.0
20
-1114.0
30
0.0
10
9880.0
20
-1116.0
30
0.0
10
9868.0
20
-1117.0
30
0.0
10
9861.0
20
-1117.0
30
0.0
10
9858.0
20
-1117.0
30
0.0
10
9855.0
20
-1113.0
30
0.0
10
9846.0
20
-1100.0
30
0.0
10
9835.0
20
-1081.0
30
0.0
10
9824.0
20
-1057.0
30
0.0
10
9814.0
20
-1030.0
30
0.0
10
9807.0
20
-1002.0
30
0.0
10
9807.0
20
-974.0
30
0.0
10
9813.0
20
-950.0
30
0.0
10
9824.0
20
-929.0
30
0.0
10
9837.0
20
-910.0
30
0.0
10
9850.0
20
-894.0
30
0.0
10
9863.0
20
-882.0
30
0.0
10
9872.0
20
-875.0
30
0.0
10
9875.0
20
-872.0
30
0.0
10
9875.0
20
-871.0
30
0.0
6
Solid
370
35
62
3
0
LWPOLYLINE
5
e31
100
AcDbEntity
8
zone_10_q2
100
AcDbPolyline
90
64
70
1
10
8966.0
20
-1415.0
30
0.0
10
8960.0
20
-1416.0
30
0.0
10
8951.0
20
-1417.0
30
0.0
10
8940.0
20
-1417.0
30
0.0
10
8928.0
20
-1417.0
30
0.0
10
8915.0
20
-1414.0
30
0.0
10
8903.0
20
-1408.0
30
0.0
10
8892.0
20
-1399.0
30
0.0
10
8882.0
20
-1388.0
30
0.0
10
8874.0
20
-1376.0
30
0.0
10
8868.0
20
-1364.0
30
0.0
10
8863.0
20
-1354.0
30
0.0
10
8860.0
20
-1347.0
30
0.0
10
8859.0
20
-1344.0
30
0.0
10
8863.0
20
-1338.0
30
0.0
10
8874.0
20
-1323.0
30
0.0
10
8890.0
20
-1300.0
30
0.0
10
8910.0
20
-1271.0
30
0.0
10
8932.0
20
-1240.0
30
0.0
10
8955.0
20
-1209.0
30
0.0
10
8976.0
20
-1180.0
30
0.0
10
8996.0
20
-1154.0
30
0.0
10
9014.0
20
-1132.0
30
0.0
10
9032.0
20
-1113.0
30
0.0
10
9051.0
20
-1095.0
30
0.0
10
9072.0
20
-1079.0
30
0.0
10
9096.0
20
-1063.0
30
0.0
10
9124.0
20
-1046.0
30
0.0
10
9160.0
20
-1027.0
30
0.0
10
9199.0
20
-1008.0
30
0.0
10
9238.0
20
-989.0
30
0.0
10
9274.0
20
-973.0
30
0.0
10
9303.0
20
-959.0
30
0.0
10
9323.0
20
-951.0
30
0.0
10
9331.0
20
-947.0
30
0.0
10
9332.0
20
-953.0
30
0.0
10
9336.0
20
-969.0
30
0.0
10
9341.0
20
-991.0
30
0.0
10
9345.0
20
-1019.0
30
0.0
10
9349.0
20
-1048.0
30
0.0
10
9350.0
20
-1077.0
30
0.0
10
9348.0
20
-1103.0
30
0.0
10
9344.0
20
-1121.0
30
0.0
10
9336.0
20
-1136.0
30
0.0
10
9327.0
20
-1148.0
30
0.0
10
9316.0
20
-1159.0
30
0.0
10
9304.0
20
-1169.0
30
0.0
10
9292.0
20
-1179.0
30
0.0
10
9279.0
20
-1190.0
30
0.0
10
9263.0
20
-1206.0
30
0.0
10
9248.0
20
-1224.0
30
0.0
10
9232.0
20
-1243.0
30
0.0
10
9214.0
20
-1264.0
30
0.0
10
9194.0
20
-1285.0
30
0.0
10
9171.0
20
-1306.0
30
0.0
10
9144.0
20
-1326.0
30
0.0
10
9113.0
20
-1346.0
30
0.0
10
9079.0
20
-1365.0
30
0.0
10
9046.0
20
-1381.0
30
0.0
10
9016.0
20
-1395.0
30
0.0
10
8991.0
20
-1406.0
30
0.0
10
8974.0
20
-1412.0
30
0.0
10
8968.0
20
-1415.0
30
0.0
10
8966.0
20
-1415.0
30
0.0
6
Solid
370
35
62
2
0
LWPOLYLINE
5
e34
100
AcDbEntity
8
zone_11_q3
100
AcDbPolyline
90
5
70
1
10
8765.0
20
-1105.0
30
0.0
10
8488.0
20
-1268.0
30
0.0
10
8341.0
20
-704.0
30
0.0
10
8877.0
20
-601.0
30
0.0
10
8765.0
20
-1105.0
30
0.0
6
Solid
370
35
62
3
0
ENDSEC
0
SECTION
2
OBJECTS
0
DICTIONARY
5
e02
330
0
100
AcDbDictionary
281
1
3
ACAD_GROUP
350
e03
0
DICTIONARY
5
e03
330
e02
100
AcDbDictionary
281
1
0
ENDSEC
0
EOF
