999

0
SECTION
2
HEADER
9
$ACADVER
1
AC1021
9
$HANDSEED
5
e75
0
ENDSEC
0
SECTION
2
CLASSES
0
ENDSEC
0
SECTION
2
TABLES
0
TABLE
2
VPORT
5
e37
100
AcDbSymbolTable
70
1
0
VPORT
5
e36
100
AcDbSymbolTableRecord
100
AcDbViewportTableRecord
2
*ACTIVE
10
0
20
0
11
1
21
1
12
500.0
22
500.0
40
1000.0
70
0
0
ENDTAB
0
TABLE
2
LTYPE
5
e38
100
AcDbSymbolTable
70
3
0
LTYPE
5
e40
100
AcDbSymbolTableRecord
100
AcDbLinetypeTableRecord
2
Solid
70
0
72
65
73
0
3

0
LTYPE
5
e41
100
AcDbSymbolTableRecord
100
AcDbLinetypeTableRecord
2
ByBlock
70
0
72
65
73
0
3

0
LTYPE
5
e42
100
AcDbSymbolTableRecord
100
AcDbLinetypeTableRecord
2
ByLayer
70
0
72
65
73
0
3

0
ENDTAB
0
TABLE
2
LAYER
5
e39
100
AcDbSymbolTable
70
9
0
LAYER
5
e43
100
AcDbSymbolTableRecord
100
AcDbLayerTableRecord
2
0
70
0
390
0
0
LAYER
5
e5d
100
AcDbSymbolTableRecord
100
AcDbLayerTableRecord
2
zone_0_q3
70
0
390
0
0
LAYER
5
e60
100
AcDbSymbolTableRecord
100
AcDbLayerTableRecord
2
zone_1_q1
70
0
390
0
0
LAYER
5
e63
100
AcDbSymbolTableRecord
100
AcDbLayerTableRecord
2
zone_2_q2
70
0
390
0
0
LAYER
5
e66
100
AcDbSymbolTableRecord
100
AcDbLayerTableRecord
2
zone_3_q3
70
0
390
0
0
LAYER
5
e69
100
AcDbSymbolTableRecord
100
AcDbLayerTableRecord
2
zone_4_q1
70
0
390
0
0
LAYER
5
e6c
100
AcDbSymbolTableRecord
100
AcDbLayerTableRecord
2
zone_5_q3
70
0
390
0
0
LAYER
5
e6f
100
AcDbSymbolTableRecord
100
AcDbLayerTableRecord
2
zone_6_q2
70
0
390
0
0
LAYER
5
e72
100
AcDbSymbolTableRecord
100
AcDbLayerTableRecord
2
zone_7_q3
70
0
390
0
0
ENDTAB
0
TABLE
2
STYLE
5
e3a
100
AcDbSymbolTable
70
0
0
ENDTAB
0
TABLE
2
VIEW
5
e3b
100
AcDbSymbolTable
70
0
0
ENDTAB
0
TABLE
2
UCS
5
e3c
100
AcDbSymbolTable
70
0
0
ENDTAB
0
TABLE
2
APPID
5
e3d
100
AcDbSymbolTable
70
1
0
APPID
5
e44
100
AcDbSymbolTableRecord
100
AcDbRegAppTableRecord
2
ACAD
70
0
0
ENDTAB
0
TABLE
2
DIMSTYLE
5
e3e
100
AcDbSymbolTable
70
0
100
AcDbDimStyleTable
71
1
0
ENDTAB
0
TABLE
2
BLOCK_RECORD
5
e3f
100
AcDbSymbolTable
70
2
0
BLOCK_RECORD
5
e45
100
AcDbSymbolTableRecord
100
AcDbBlockTableRecord
2
*Model_Space
70
0
280
1
281
0
0
BLOCK_RECORD
5
e46
100
AcDbSymbolTableRecord
100
AcDbBlockTableRecord
2
*Paper_Space
70
0
280
1
281
0
0
ENDTAB
0
ENDSEC
0
SECTION
2
BLOCKS
0
BLOCK
5
e47
100
AcDbEntity
100
AcDbBlockBegin
2
*Model_Space
70
0
10
0
20
0
30
0
3
*Model_Space
1

0
ENDBLK
5
e48
100
AcDbEntity
100
AcDbBlockEnd
0
BLOCK
5
e49
100
AcDbEntity
100
AcDbBlockBegin
2
*Paper_Space
70
0
10
0
20
0
30
0
3
*Paper_Space
1

0
ENDBLK
5
e4a
100
AcDbEntity
100
AcDbBlockEnd
0
ENDSEC
0
SECTION
2
ENTITIES
0
LWPOLYLINE
5
e4d
100
AcDbEntity
100
AcDbPolyline
90
1100
70
1
10
0.0
20
-4511.0
30
0.0
10
2.0
20
-4497.0
30
0.0
10
4.0
20
-4476.0
30
0.0
10
8.0
20
-4448.0
30
0.0
10
12.0
20
-4416.0
30
0.0
10
17.0
20
-4381.0
30
0.0
10
24.0
20
-4344.0
30
0.0
10
31.0
20
-4306.0
30
0.0
10
39.0
20
-4269.0
30
0.0
10
47.0
20
-4234.0
30
0.0
10
55.0
20
-4205.0
30
0.0
10
61.0
20
-4182.0
30
0.0
10
65.0
20
-4167.0
30
0.0
10
66.0
20
-4161.0
30
0.0
10
70.0
20
-4156.0
30
0.0
10
82.0
20
-4141.0
30
0.0
10
100.0
20
-4118.0
30
0.0
10
122.0
20
-4088.0
30
0.0
10
148.0
20
-4053.0
30
0.0
10
175.0
20
-4014.0
30
0.0
10
203.0
20
-3973.0
30
0.0
10
231.0
20
-3931.0
30
0.0
10
258.0
20
-3890.0
30
0.0
10
281.0
20
-3853.0
30
0.0
10
301.0
20
-3820.0
30
0.0
10
317.0
20
-3794.0
30
0.0
10
327.0
20
-3778.0
30
0.0
10
330.0
20
-3772.0
30
0.0
10
333.0
20
-3771.0
30
0.0
10
340.0
20
-3768.0
30
0.0
10
351.0
20
-3764.0
30
0.0
10
364.0
20
-3759.0
30
0.0
10
380.0
20
-3752.0
30
0.0
10
396.0
20
-3744.0
30
0.0
10
411.0
20
-3735.0
30
0.0
10
431.0
20
-3722.0
30
0.0
10
450.0
20
-3707.0
30
0.0
10
466.0
20
-3691.0
30
0.0
10
482.0
20
-3674.0
30
0.0
10
496.0
20
-3655.0
30
0.0
10
509.0
20
-3636.0
30
0.0
10
521.0
20
-3616.0
30
0.0
10
532.0
20
-3596.0
30
0.0
10
542.0
20
-3577.0
30
0.0
10
553.0
20
-3557.0
30
0.0
10
564.0
20
-3540.0
30
0.0
10
577.0
20
-3523.0
30
0.0
10
590.0
20
-3509.0
30
0.0
10
605.0
20
-3498.0
30
0.0
10
624.0
20
-3490.0
30
0.0
10
645.0
20
-3485.0
30
0.0
10
668.0
20
-3482.0
30
0.0
10
693.0
20
-3481.0
30
0.0
10
719.0
20
-3479.0
30
0.0
10
747.0
20
-3477.0
30
0.0
10
775.0
20
-3473.0
30
0.0
10
816.0
20
-3465.0
30
0.0
10
857.0
20
-3451.0
30
0.0
10
899.0
20
-3435.0
30
0.0
10
941.0
20
-3415.0
30
0.0
10
982.0
20
-3394.0
30
0.0
10
1023.0
20
-3370.0
30
0.0
10
1061.0
20
-3346.0
30
0.0
10
1097.0
20
-3322.0
30
0.0
10
1131.0
20
-3298.0
30
0.0
10
1164.0
20
-3273.0
30
0.0
10
1195.0
20
-3247.0
30
0.0
10
1226.0
20
-3219.0
30
0.0
10
1256.0
20
-3189.0
30
0.0
10
1286.0
20
-3157.0
30
0.0
10
1317.0
20
-3121.0
30
0.0
10
1348.0
20
-3084.0
30
0.0
10
1379.0
20
-3045.0
30
0.0
10
1408.0
20
-3007.0
30
0.0
10
1437.0
20
-2970.0
30
0.0
10
1463.0
20
-2936.0
30
0.0
10
1488.0
20
-2904.0
30
0.0
10
1504.0
20
-2884.0
30
0.0
10
1519.0
20
-2866.0
30
0.0
10
1533.0
20
-2848.0
30
0.0
10
1545.0
20
-2831.0
30
0.0
10
1556.0
20
-2813.0
30
0.0
10
1565.0
20
-2793.0
30
0.0
10
1573.0
20
-2773.0
30
0.0
10
1580.0
20
-2746.0
30
0.0
10
1585.0
20
-2716.0
30
0.0
10
1588.0
20
-2685.0
30
0.0
10
1589.0
20
-2652.0
30
0.0
10
1590.0
20
-2620.0
30
0.0
10
1591.0
20
-2588.0
30
0.0
10
1591.0
20
-2558.0
30
0.0
10
1592.0
20
-2531.0
30
0.0
10
1593.0
20
-2506.0
30
0.0
10
1594.0
20
-2481.0
30
0.0
10
1596.0
20
-2456.0
30
0.0
10
1598.0
20
-2430.0
30
0.0
10
1601.0
20
-2403.0
30
0.0
10
1604.0
20
-2374.0
30
0.0
10
1608.0
20
-2346.0
30
0.0
10
1611.0
20
-2319.0
30
0.0
10
1615.0
20
-2292.0
30
0.0
10
1618.0
20
-2269.0
30
0.0
10
1620.0
20
-2250.0
30
0.0
10
1622.0
20
-2237.0
30
0.0
10
1623.0
20
-2233.0
30
0.0
10
1627.0
20
-2226.0
30
0.0
10
1638.0
20
-2207.0
30
0.0
10
1655.0
20
-2177.0
30
0.0
10
1678.0
20
-2139.0
30
0.0
10
1704.0
20
-2094.0
30
0.0
10
1734.0
20
-2045.0
30
0.0
10
1765.0
20
-1993.0
30
0.0
10
1799.0
20
-1938.0
30
0.0
10
1832.0
20
-1884.0
30
0.0
10
1863.0
20
-1834.0
30
0.0
10
1889.0
20
-1792.0
30
0.0
10
1910.0
20
-1758.0
30
0.0
10
1924.0
20
-1736.0
30
0.0
10
1929.0
20
-1728.0
30
0.0
10
2171.0
20
-1784.0
30
0.0
10
2200.0
20
-1732.0
30
0.0
10
2204.0
20
-1731.0
30
0.0
10
2216.0
20
-1727.0
30
0.0
10
2233.0
20
-1721.0
30
0.0
10
2253.0
20
-1714.0
30
0.0
10
2276.0
20
-1705.0
30
0.0
10
2299.0
20
-1695.0
30
0.0
10
2321.0
20
-1684.0
30
0.0
10
2343.0
20
-1669.0
30
0.0
10
2361.0
20
-1652.0
30
0.0
10
2375.0
20
-1634.0
30
0.0
10
2388.0
20
-1613.0
30
0.0
10
2398.0
20
-1588.0
30
0.0
10
2407.0
20
-1560.0
30
0.0
10
2416.0
20
-1528.0
30
0.0
10
2425.0
20
-1485.0
30
0.0
10
2434.0
20
-1440.0
30
0.0
10
2443.0
20
-1396.0
30
0.0
10
2450.0
20
-1356.0
30
0.0
10
2456.0
20
-1323.0
30
0.0
10
2460.0
20
-1301.0
30
0.0
10
2461.0
20
-1292.0
30
0.0
10
2464.0
20
-1288.0
30
0.0
10
2472.0
20
-1276.0
30
0.0
10
2484.0
20
-1257.0
30
0.0
10
2498.0
20
-1233.0
30
0.0
10
2514.0
20
-1205.0
30
0.0
10
2530.0
20
-1175.0
30
0.0
10
2546.0
20
-1145.0
30
0.0
10
2563.0
20
-1106.0
30
0.0
10
2577.0
20
-1067.0
30
0.0
10
2590.0
20
-1029.0
30
0.0
10
2600.0
20
-991.0
30
0.0
10
2609.0
20
-952.0
30
0.0
10
2617.0
20
-912.0
30
0.0
10
2626.0
20
-871.0
30
0.0
10
2632.0
20
-840.0
30
0.0
10
2638.0
20
-809.0
30
0.0
10
2644.0
20
-780.0
30
0.0
10
2649.0
20
-755.0
30
0.0
10
2653.0
20
-735.0
30
0.0
10
2655.0
20
-722.0
30
0.0
10
2656.0
20
-718.0
30
0.0
10
2663.0
20
-717.0
30
0.0
10
2680.0
20
-716.0
30
0.0
10
2706.0
20
-714.0
30
0.0
10
2738.0
20
-710.0
30
0.0
10
2774.0
20
-706.0
30
0.0
10
2810.0
20
-700.0
30
0.0
10
2846.0
20
-693.0
30
0.0
10
2879.0
20
-685.0
30
0.0
10
2909.0
20
-675.0
30
0.0
10
2936.0
20
-664.0
30
0.0
10
2961.0
20
-650.0
30
0.0
10
2983.0
20
-635.0
30
0.0
10
3005.0
20
-618.0
30
0.0
10
3025.0
20
-599.0
30
0.0
10
3040.0
20
-584.0
30
0.0
10
3053.0
20
-568.0
30
0.0
10
3066.0
20
-554.0
30
0.0
10
3076.0
20
-541.0
30
0.0
10
3085.0
20
-531.0
30
0.0
10
3090.0
20
-524.0
30
0.0
10
3092.0
20
-521.0
30
0.0
10
3097.0
20
-522.0
30
0.0
10
3112.0
20
-522.0
30
0.0
10
3133.0
20
-524.0
30
0.0
10
3159.0
20
-525.0
30
0.0
10
3188.0
20
-527.0
30
0.0
10
3218.0
20
-529.0
30
0.0
10
3246.0
20
-532.0
30
0.0
10
3270.0
20
-534.0
30
0.0
10
3291.0
20
-536.0
30
0.0
10
3310.0
20
-538.0
30
0.0
10
3328.0
20
-542.0
30
0.0
10
3344.0
20
-546.0
30
0.0
10
3360.0
20
-552.0
30
0.0
10
3375.0
20
-559.0
30
0.0
10
3391.0
20
-568.0
30
0.0
10
3407.0
20
-579.0
30
0.0
10
3424.0
20
-591.0
30
0.0
10
3441.0
20
-603.0
30
0.0
10
3459.0
20
-614.0
30
0.0
10
3478.0
20
-625.0
30
0.0
10
3497.0
20
-635.0
30
0.0
10
3516.0
20
-643.0
30
0.0
10
3537.0
20
-650.0
30
0.0
10
3558.0
20
-655.0
30
0.0
10
3579.0
20
-659.0
30
0.0
10
3599.0
20
-662.0
30
0.0
10
3620.0
20
-665.0
30
0.0
10
3639.0
20
-667.0
30
0.0
10
3656.0
20
-669.0
30
0.0
10
3672.0
20
-670.0
30
0.0
10
3688.0
20
-672.0
30
0.0
10
3704.0
20
-674.0
30
0.0
10
3720.0
20
-675.0
30
0.0
10
3736.0
20
-677.0
30
0.0
10
3752.0
20
-679.0
30
0.0
10
3772.0
20
-681.0
30
0.0
10
3793.0
20
-684.0
30
0.0
10
3814.0
20
-687.0
30
0.0
10
3836.0
20
-691.0
30
0.0
10
3859.0
20
-694.0
30
0.0
10
3882.0
20
-698.0
30
0.0
10
3906.0
20
-703.0
30
0.0
10
3936.0
20
-708.0
30
0.0
10
3966.0
20
-714.0
30
0.0
10
3997.0
20
-720.0
30
0.0
10
4029.0
20
-727.0
30
0.0
10
4061.0
20
-732.0
30
0.0
10
4094.0
20
-738.0
30
0.0
10
4128.0
20
-743.0
30
0.0
10
4162.0
20
-747.0
30
0.0
10
4197.0
20
-751.0
30
0.0
10
4232.0
20
-754.0
30
0.0
10
4266.0
20
-757.0
30
0.0
10
4299.0
20
-760.0
30
0.0
10
4331.0
20
-762.0
30
0.0
10
4361.0
20
-763.0
30
0.0
10
4385.0
20
-765.0
30
0.0
10
4408.0
20
-766.0
30
0.0
10
4430.0
20
-768.0
30
0.0
10
4453.0
20
-771.0
30
0.0
10
4475.0
20
-775.0
30
0.0
10
4499.0
20
-780.0
30
0.0
10
4523.0
20
-787.0
30
0.0
10
4557.0
20
-798.0
30
0.0
10
4593.0
20
-812.0
30
0.0
10
4630.0
20
-828.0
30
0.0
10
4668.0
20
-844.0
30
0.0
10
4707.0
20
-860.0
30
0.0
10
4746.0
20
-874.0
30
0.0
10
4785.0
20
-886.0
30
0.0
10
4820.0
20
-895.0
30
0.0
10
4854.0
20
-902.0
30
0.0
10
4888.0
20
-906.0
30
0.0
10
4922.0
20
-909.0
30
0.0
10
4956.0
20
-909.0
30
0.0
10
4990.0
20
-908.0
30
0.0
10
5024.0
20
-906.0
30
0.0
10
5057.0
20
-902.0
30
0.0
10
5091.0
20
-898.0
30
0.0
10
5125.0
20
-895.0
30
0.0
10
5158.0
20
-891.0
30
0.0
10
5191.0
20
-890.0
30
0.0
10
5222.0
20
-890.0
30
0.0
10
5253.0
20
-892.0
30
0.0
10
5280.0
20
-897.0
30
0.0
10
5306.0
20
-904.0
30
0.0
10
5332.0
20
-912.0
30
0.0
10
5358.0
20
-921.0
30
0.0
10
5384.0
20
-929.0
30
0.0
10
5411.0
20
-937.0
30
0.0
10
5439.0
20
-944.0
30
0.0
10
5472.0
20
-948.0
30
0.0
10
5507.0
20
-950.0
30
0.0
10
5542.0
20
-950.0
30
0.0
10
5578.0
20
-946.0
30
0.0
10
5612.0
20
-940.0
30
0.0
10
5646.0
20
-930.0
30
0.0
10
5678.0
20
-918.0
30
0.0
10
5705.0
20
-904.0
30
0.0
10
5730.0
20
-888.0
30
0.0
10
5753.0
20
-871.0
30
0.0
10
5776.0
20
-853.0
30
0.0
10
5797.0
20
-835.0
30
0.0
10
5818.0
20
-818.0
30
0.0
10
5839.0
20
-802.0
30
0.0
10
5857.0
20
-789.0
30
0.0
10
5876.0
20
-777.0
30
0.0
10
5895.0
20
-766.0
30
0.0
10
5914.0
20
-757.0
30
0.0
10
5935.0
20
-748.0
30
0.0
10
5956.0
20
-741.0
30
0.0
10
5978.0
20
-734.0
30
0.0
10
6009.0
20
-727.0
30
0.0
10
6041.0
20
-721.0
30
0.0
10
6075.0
20
-717.0
30
0.0
10
6110.0
20
-713.0
30
0.0
10
6146.0
20
-710.0
30
0.0
10
6184.0
20
-708.0
30
0.0
10
6222.0
20
-707.0
30
0.0
10
6263.0
20
-706.0
30
0.0
10
6305.0
20
-706.0
30
0.0
10
6346.0
20
-705.0
30
0.0
10
6387.0
20
-702.0
30
0.0
10
6428.0
20
-698.0
30
0.0
10
6468.0
20
-691.0
30
0.0
10
6506.0
20
-680.0
30
0.0
10
6542.0
20
-667.0
30
0.0
10
6577.0
20
-650.0
30
0.0
10
6610.0
20
-631.0
30
0.0
10
6643.0
20
-610.0
30
0.0
10
6674.0
20
-587.0
30
0.0
10
6704.0
20
-564.0
30
0.0
10
6733.0
20
-540.0
30
0.0
10
6750.0
20
-526.0
30
0.0
10
6766.0
20
-512.0
30
0.0
10
6781.0
20
-499.0
30
0.0
10
6793.0
20
-488.0
30
0.0
10
6802.0
20
-480.0
30
0.0
10
6809.0
20
-475.0
30
0.0
10
6811.0
20
-473.0
30
0.0
10
6817.0
20
-472.0
30
0.0
10
6835.0
20
-471.0
30
0.0
10
6861.0
20
-469.0
30
0.0
10
6892.0
20
-465.0
30
0.0
10
6927.0
20
-460.0
30
0.0
10
6961.0
20
-454.0
30
0.0
10
6992.0
20
-445.0
30
0.0
10
7018.0
20
-435.0
30
0.0
10
7039.0
20
-423.0
30
0.0
10
7057.0
20
-410.0
30
0.0
10
7073.0
20
-395.0
30
0.0
10
7089.0
20
-379.0
30
0.0
10
7105.0
20
-362.0
30
0.0
10
7122.0
20
-345.0
30
0.0
10
7147.0
20
-322.0
30
0.0
10
7174.0
20
-299.0
30
0.0
10
7204.0
20
-276.0
30
0.0
10
7235.0
20
-255.0
30
0.0
10
7267.0
20
-236.0
30
0.0
10
7299.0
20
-220.0
30
0.0
10
7331.0
20
-208.0
30
0.0
10
7355.0
20
-201.0
30
0.0
10
7378.0
20
-197.0
30
0.0
10
7401.0
20
-195.0
30
0.0
10
7423.0
20
-196.0
30
0.0
10
7444.0
20
-199.0
30
0.0
10
7465.0
20
-205.0
30
0.0
10
7485.0
20
-212.0
30
0.0
10
7505.0
20
-221.0
30
0.0
10
7524.0
20
-232.0
30
0.0
10
7544.0
20
-243.0
30
0.0
10
7563.0
20
-255.0
30
0.0
10
7582.0
20
-267.0
30
0.0
10
7601.0
20
-278.0
30
0.0
10
7620.0
20
-288.0
30
0.0
10
7639.0
20
-297.0
30
0.0
10
7658.0
20
-304.0
30
0.0
10
7677.0
20
-309.0
30
0.0
10
7697.0
20
-313.0
30
0.0
10
7718.0
20
-316.0
30
0.0
10
7739.0
20
-318.0
30
0.0
10
7761.0
20
-319.0
30
0.0
10
7790.0
20
-318.0
30
0.0
10
7820.0
20
-315.0
30
0.0
10
7851.0
20
-311.0
30
0.0
10
7883.0
20
-306.0
30
0.0
10
7915.0
20
-299.0
30
0.0
10
7947.0
20
-291.0
30
0.0
10
7978.0
20
-282.0
30
0.0
10
8008.0
20
-273.0
30
0.0
10
8038.0
20
-262.0
30
0.0
10
8066.0
20
-251.0
30
0.0
10
8095.0
20
-239.0
30
0.0
10
8122.0
20
-226.0
30
0.0
10
8150.0
20
-213.0
30
0.0
10
8177.0
20
-200.0
30
0.0
10
8206.0
20
-186.0
30
0.0
10
8235.0
20
-171.0
30
0.0
10
8264.0
20
-155.0
30
0.0
10
8295.0
20
-139.0
30
0.0
10
8326.0
20
-122.0
30
0.0
10
8359.0
20
-105.0
30
0.0
10
8394.0
20
-86.0
30
0.0
10
8425.0
20
-69.0
30
0.0
10
8456.0
20
-52.0
30
0.0
10
8486.0
20
-36.0
30
0.0
10
8512.0
20
-21.0
30
0.0
10
8532.0
20
-10.0
30
0.0
10
8546.0
20
-3.0
30
0.0
10
8551.0
20
0.0
30
0.0
10
8560.0
20
-1.0
30
0.0
10
8585.0
20
-4.0
30
0.0
10
8623.0
20
-8.0
30
0.0
10
8668.0
20
-13.0
30
0.0
10
8717.0
20
-18.0
30
0.0
10
8765.0
20
-22.0
30
0.0
10
8808.0
20
-25.0
30
0.0
10
8839.0
20
-26.0
30
0.0
10
8866.0
20
-26.0
30
0.0
10
8890.0
20
-25.0
30
0.0
10
8913.0
20
-25.0
30
0.0
10
8938.0
20
-25.0
30
0.0
10
8966.0
20
-26.0
30
0.0
10
8999.0
20
-29.0
30
0.0
10
9051.0
20
-37.0
30
0.0
10
9110.0
20
-46.0
30
0.0
10
9171.0
20
-57.0
30
0.0
10
9227.0
20
-68.0
30
0.0
10
9274.0
20
-77.0
30
0.0
10
9306.0
20
-84.0
30
0.0
10
9318.0
20
-86.0
30
0.0
10
9560.0
20
-108.0
30
0.0
10
9561.0
20
-110.0
30
0.0
10
9565.0
20
-116.0
30
0.0
10
9570.0
20
-125.0
30
0.0
10
9578.0
20
-136.0
30
0.0
10
9587.0
20
-149.0
30
0.0
10
9598.0
20
-162.0
30
0.0
10
9611.0
20
-175.0
30
0.0
10
9613.0
20
-178.0
30
0.0
10
9616.0
20
-180.0
30
0.0
10
9619.0
20
-182.0
30
0.0
10
9621.0
20
-185.0
30
0.0
10
9624.0
20
-187.0
30
0.0
10
9627.0
20
-189.0
30
0.0
10
9630.0
20
-192.0
30
0.0
10
9657.0
20
-207.0
30
0.0
10
9685.0
20
-217.0
30
0.0
10
9716.0
20
-224.0
30
0.0
10
9747.0
20
-227.0
30
0.0
10
9777.0
20
-228.0
30
0.0
10
9806.0
20
-228.0
30
0.0
10
9832.0
20
-227.0
30
0.0
10
9852.0
20
-225.0
30
0.0
10
9870.0
20
-223.0
30
0.0
10
9887.0
20
-221.0
30
0.0
10
9905.0
20
-216.0
30
0.0
10
9923.0
20
-211.0
30
0.0
10
9944.0
20
-203.0
30
0.0
10
9967.0
20
-193.0
30
0.0
10
9999.0
20
-177.0
30
0.0
10
10034.0
20
-159.0
30
0.0
10
10069.0
20
-140.0
30
0.0
10
10100.0
20
-122.0
30
0.0
10
10126.0
20
-107.0
30
0.0
10
10144.0
20
-97.0
30
0.0
10
10150.0
20
-93.0
30
0.0
10
10312.0
20
-265.0
30
0.0
10
10413.0
20
-396.0
30
0.0
10
10363.0
20
-481.0
30
0.0
10
10420.0
20
-503.0
30
0.0
10
10417.0
20
-568.0
30
0.0
10
10349.0
20
-634.0
30
0.0
10
10387.0
20
-726.0
30
0.0
10
10297.0
20
-836.0
30
0.0
10
10223.0
20
-966.0
30
0.0
10
10136.0
20
-1019.0
30
0.0
10
10131.0
20
-1022.0
30
0.0
10
10118.0
20
-1030.0
30
0.0
10
10099.0
20
-1043.0
30
0.0
10
10074.0
20
-1059.0
30
0.0
10
10046.0
20
-1077.0
30
0.0
10
10015.0
20
-1097.0
30
0.0
10
9982.0
20
-1116.0
30
0.0
10
9952.0
20
-1134.0
30
0.0
10
9923.0
20
-1151.0
30
0.0
10
9897.0
20
-1167.0
30
0.0
10
9875.0
20
-1179.0
30
0.0
10
9857.0
20
-1189.0
30
0.0
10
9846.0
20
-1196.0
30
0.0
10
9842.0
20
-1198.0
30
0.0
10
9846.0
20
-1206.0
30
0.0
10
9859.0
20
-1227.0
30
0.0
10
9878.0
20
-1259.0
30
0.0
10
9902.0
20
-1298.0
30
0.0
10
9929.0
20
-1343.0
30
0.0
10
9957.0
20
-1390.0
30
0.0
10
9985.0
20
-1436.0
30
0.0
10
10007.0
20
-1471.0
30
0.0
10
10026.0
20
-1502.0
30
0.0
10
10044.0
20
-1530.0
30
0.0
10
10058.0
20
-1553.0
30
0.0
10
10070.0
20
-1571.0
30
0.0
10
10077.0
20
-1582.0
30
0.0
10
10079.0
20
-1585.0
30
0.0
10
10079.0
20
-1591.0
30
0.0
10
10078.0
20
-1607.0
30
0.0
10
10077.0
20
-1630.0
30
0.0
10
10076.0
20
-1659.0
30
0.0
10
10075.0
20
-1692.0
30
0.0
10
10076.0
20
-1725.0
30
0.0
10
10078.0
20
-1757.0
30
0.0
10
10082.0
20
-1786.0
30
0.0
10
10088.0
20
-1812.0
30
0.0
10
10094.0
20
-1836.0
30
0.0
10
10100.0
20
-1859.0
30
0.0
10
10107.0
20
-1881.0
30
0.0
10
10112.0
20
-1904.0
30
0.0
10
10116.0
20
-1927.0
30
0.0
10
10119.0
20
-1955.0
30
0.0
10
10121.0
20
-1984.0
30
0.0
10
10123.0
20
-2014.0
30
0.0
10
10127.0
20
-2045.0
30
0.0
10
10134.0
20
-2076.0
30
0.0
10
10145.0
20
-2107.0
30
0.0
10
10163.0
20
-2138.0
30
0.0
10
10186.0
20
-2166.0
30
0.0
10
10212.0
20
-2192.0
30
0.0
10
10240.0
20
-2216.0
30
0.0
10
10267.0
20
-2235.0
30
0.0
10
10289.0
20
-2251.0
30
0.0
10
10304.0
20
-2261.0
30
0.0
10
10310.0
20
-2264.0
30
0.0
10
10307.0
20
-2270.0
30
0.0
10
10298.0
20
-2285.0
30
0.0
10
10286.0
20
-2308.0
30
0.0
10
10270.0
20
-2336.0
30
0.0
10
10253.0
20
-2367.0
30
0.0
10
10235.0
20
-2399.0
30
0.0
10
10218.0
20
-2428.0
30
0.0
10
10204.0
20
-2452.0
30
0.0
10
10192.0
20
-2473.0
30
0.0
10
10182.0
20
-2492.0
30
0.0
10
10173.0
20
-2510.0
30
0.0
10
10166.0
20
-2526.0
30
0.0
10
10161.0
20
-2543.0
30
0.0
10
10158.0
20
-2559.0
30
0.0
10
10156.0
20
-2575.0
30
0.0
10
10156.0
20
-2591.0
30
0.0
10
10158.0
20
-2608.0
30
0.0
10
10162.0
20
-2625.0
30
0.0
10
10168.0
20
-2643.0
30
0.0
10
10176.0
20
-2661.0
30
0.0
10
10186.0
20
-2680.0
30
0.0
10
10198.0
20
-2698.0
30
0.0
10
10210.0
20
-2716.0
30
0.0
10
10223.0
20
-2732.0
30
0.0
10
10235.0
20
-2746.0
30
0.0
10
10245.0
20
-2758.0
30
0.0
10
10251.0
20
-2765.0
30
0.0
10
10253.0
20
-2768.0
30
0.0
10
10250.0
20
-2774.0
30
0.0
10
10242.0
20
-2790.0
30
0.0
10
10230.0
20
-2816.0
30
0.0
10
10214.0
20
-2847.0
30
0.0
10
10197.0
20
-2883.0
30
0.0
10
10178.0
20
-2922.0
30
0.0
10
10161.0
20
-2960.0
30
0.0
10
10143.0
20
-3000.0
30
0.0
10
10127.0
20
-3037.0
30
0.0
10
10113.0
20
-3073.0
30
0.0
10
10100.0
20
-3107.0
30
0.0
10
10089.0
20
-3140.0
30
0.0
10
10079.0
20
-3171.0
30
0.0
10
10071.0
20
-3202.0
30
0.0
10
10065.0
20
-3228.0
30
0.0
10
10059.0
20
-3253.0
30
0.0
10
10054.0
20
-3278.0
30
0.0
10
10048.0
20
-3302.0
30
0.0
10
10041.0
20
-3327.0
30
0.0
10
10033.0
20
-3351.0
30
0.0
10
10023.0
20
-3374.0
30
0.0
10
10010.0
20
-3400.0
30
0.0
10
9995.0
20
-3426.0
30
0.0
10
9979.0
20
-3453.0
30
0.0
10
9963.0
20
-3479.0
30
0.0
10
9946.0
20
-3507.0
30
0.0
10
9930.0
20
-3535.0
30
0.0
10
9915.0
20
-3565.0
30
0.0
10
9902.0
20
-3599.0
30
0.0
10
9890.0
20
-3635.0
30
0.0
10
9880.0
20
-3672.0
30
0.0
10
9872.0
20
-3709.0
30
0.0
10
9864.0
20
-3747.0
30
0.0
10
9857.0
20
-3784.0
30
0.0
10
9850.0
20
-3820.0
30
0.0
10
9844.0
20
-3852.0
30
0.0
10
9838.0
20
-3884.0
30
0.0
10
9832.0
20
-3914.0
30
0.0
10
9827.0
20
-3945.0
30
0.0
10
9822.0
20
-3975.0
30
0.0
10
9818.0
20
-4005.0
30
0.0
10
9815.0
20
-4035.0
30
0.0
10
9813.0
20
-4068.0
30
0.0
10
9813.0
20
-4101.0
30
0.0
10
9813.0
20
-4135.0
30
0.0
10
9814.0
20
-4170.0
30
0.0
10
9816.0
20
-4206.0
30
0.0
10
9818.0
20
-4244.0
30
0.0
10
9820.0
20
-4282.0
30
0.0
10
9822.0
20
-4327.0
30
0.0
10
9825.0
20
-4372.0
30
0.0
10
9828.0
20
-4418.0
30
0.0
10
9832.0
20
-4462.0
30
0.0
10
9838.0
20
-4505.0
30
0.0
10
9846.0
20
-4546.0
30
0.0
10
9855.0
20
-4583.0
30
0.0
10
9863.0
20
-4605.0
30
0.0
10
9871.0
20
-4626.0
30
0.0
10
9880.0
20
-4645.0
30
0.0
10
9888.0
20
-4663.0
30
0.0
10
9895.0
20
-4680.0
30
0.0
10
9900.0
20
-4696.0
30
0.0
10
9903.0
20
-4710.0
30
0.0
10
9904.0
20
-4721.0
30
0.0
10
9904.0
20
-4732.0
30
0.0
10
9903.0
20
-4742.0
30
0.0
10
9901.0
20
-4753.0
30
0.0
10
9899.0
20
-4764.0
30
0.0
10
9897.0
20
-4776.0
30
0.0
10
9896.0
20
-4789.0
30
0.0
10
9895.0
20
-4809.0
30
0.0
10
9896.0
20
-4832.0
30
0.0
10
9898.0
20
-4856.0
30
0.0
10
9901.0
20
-4881.0
30
0.0
10
9904.0
20
-4907.0
30
0.0
10
9909.0
20
-4935.0
30
0.0
10
9914.0
20
-4963.0
30
0.0
10
9919.0
20
-4993.0
30
0.0
10
9925.0
20
-5024.0
30
0.0
10
9932.0
20
-5054.0
30
0.0
10
9940.0
20
-5084.0
30
0.0
10
9950.0
20
-5112.0
30
0.0
10
9962.0
20
-5138.0
30
0.0
10
9976.0
20
-5162.0
30
0.0
10
9993.0
20
-5186.0
30
0.0
10
10013.0
20
-5207.0
30
0.0
10
10034.0
20
-5230.0
30
0.0
10
10055.0
20
-5253.0
30
0.0
10
10077.0
20
-5280.0
30
0.0
10
10097.0
20
-5312.0
30
0.0
10
10116.0
20
-5349.0
30
0.0
10
10135.0
20
-5400.0
30
0.0
10
10150.0
20
-5456.0
30
0.0
10
10162.0
20
-5513.0
30
0.0
10
10172.0
20
-5566.0
30
0.0
10
10178.0
20
-5609.0
30
0.0
10
10182.0
20
-5638.0
30
0.0
10
10183.0
20
-5649.0
30
0.0
10
10275.0
20
-5988.0
30
0.0
10
10272.0
20
-5989.0
30
0.0
10
10267.0
20
-5994.0
30
0.0
10
10259.0
20
-6000.0
30
0.0
10
10251.0
20
-6008.0
30
0.0
10
10244.0
20
-6017.0
30
0.0
10
10238.0
20
-6028.0
30
0.0
10
10236.0
20
-6039.0
30
0.0
10
10239.0
20
-6051.0
30
0.0
10
10246.0
20
-6063.0
30
0.0
10
10255.0
20
-6074.0
30
0.0
10
10265.0
20
-6084.0
30
0.0
10
10274.0
20
-6092.0
30
0.0
10
10281.0
20
-6096.0
30
0.0
10
10284.0
20
-6098.0
30
0.0
10
10289.0
20
-6268.0
30
0.0
10
10287.0
20
-6269.0
30
0.0
10
10283.0
20
-6270.0
30
0.0
10
10276.0
20
-6273.0
30
0.0
10
10268.0
20
-6277.0
30
0.0
10
10258.0
20
-6282.0
30
0.0
10
10249.0
20
-6288.0
30
0.0
10
10240.0
20
-6296.0
30
0.0
10
10226.0
20
-6314.0
30
0.0
10
10215.0
20
-6336.0
30
0.0
10
10207.0
20
-6363.0
30
0.0
10
10202.0
20
-6392.0
30
0.0
10
10199.0
20
-6423.0
30
0.0
10
10198.0
20
-6455.0
30
0.0
10
10198.0
20
-6487.0
30
0.0
10
10201.0
20
-6526.0
30
0.0
10
10204.0
20
-6564.0
30
0.0
10
10207.0
20
-6603.0
30
0.0
10
10210.0
20
-6643.0
30
0.0
10
10211.0
20
-6685.0
30
0.0
10
10209.0
20
-6728.0
30
0.0
10
10203.0
20
-6774.0
30
0.0
10
10190.0
20
-6835.0
30
0.0
10
10172.0
20
-6900.0
30
0.0
10
10151.0
20
-6966.0
30
0.0
10
10128.0
20
-7031.0
30
0.0
10
10105.0
20
-7094.0
30
0.0
10
10084.0
20
-7152.0
30
0.0
10
10067.0
20
-7204.0
30
0.0
10
10060.0
20
-7232.0
30
0.0
10
10054.0
20
-7257.0
30
0.0
10
10050.0
20
-7280.0
30
0.0
10
10047.0
20
-7302.0
30
0.0
10
10045.0
20
-7322.0
30
0.0
10
10045.0
20
-7342.0
30
0.0
10
10045.0
20
-7361.0
30
0.0
10
10045.0
20
-7383.0
30
0.0
10
10047.0
20
-7405.0
30
0.0
10
10050.0
20
-7428.0
30
0.0
10
10054.0
20
-7453.0
30
0.0
10
10059.0
20
-7480.0
30
0.0
10
10067.0
20
-7510.0
30
0.0
10
10076.0
20
-7544.0
30
0.0
10
10090.0
20
-7587.0
30
0.0
10
10106.0
20
-7633.0
30
0.0
10
10122.0
20
-7678.0
30
0.0
10
10137.0
20
-7719.0
30
0.0
10
10149.0
20
-7752.0
30
0.0
10
10157.0
20
-7774.0
30
0.0
10
10161.0
20
-7782.0
30
0.0
10
10160.0
20
-7787.0
30
0.0
10
10157.0
20
-7802.0
30
0.0
10
10153.0
20
-7824.0
30
0.0
10
10149.0
20
-7852.0
30
0.0
10
10144.0
20
-7883.0
30
0.0
10
10138.0
20
-7916.0
30
0.0
10
10133.0
20
-7947.0
30
0.0
10
10127.0
20
-7980.0
30
0.0
10
10123.0
20
-8010.0
30
0.0
10
10120.0
20
-8038.0
30
0.0
10
10119.0
20
-8065.0
30
0.0
10
10122.0
20
-8092.0
30
0.0
10
10128.0
20
-8120.0
30
0.0
10
10137.0
20
-8150.0
30
0.0
10
10158.0
20
-8194.0
30
0.0
10
10186.0
20
-8241.0
30
0.0
10
10218.0
20
-8289.0
30
0.0
10
10254.0
20
-8337.0
30
0.0
10
10290.0
20
-8384.0
30
0.0
10
10325.0
20
-8427.0
30
0.0
10
10357.0
20
-8466.0
30
0.0
10
10378.0
20
-8492.0
30
0.0
10
10397.0
20
-8515.0
30
0.0
10
10414.0
20
-8536.0
30
0.0
10
10432.0
20
-8558.0
30
0.0
10
10449.0
20
-8580.0
30
0.0
10
10468.0
20
-8603.0
30
0.0
10
10488.0
20
-8630.0
30
0.0
10
10510.0
20
-8657.0
30
0.0
10
10532.0
20
-8686.0
30
0.0
10
10554.0
20
-8714.0
30
0.0
10
10573.0
20
-8739.0
30
0.0
10
10589.0
20
-8760.0
30
0.0
10
10600.0
20
-8774.0
30
0.0
10
10604.0
20
-8779.0
30
0.0
10
10619.0
20
-9047.0
30
0.0
10
10609.0
20
-9046.0
30
0.0
10
10584.0
20
-9042.0
30
0.0
10
10546.0
20
-9038.0
30
0.0
10
10500.0
20
-9033.0
30
0.0
10
10449.0
20
-9030.0
30
0.0
10
10399.0
20
-9029.0
30
0.0
10
10353.0
20
-9032.0
30
0.0
10
10316.0
20
-9038.0
30
0.0
10
10284.0
20
-9047.0
30
0.0
10
10256.0
20
-9058.0
30
0.0
10
10228.0
20
-9069.0
30
0.0
10
10199.0
20
-9080.0
30
0.0
10
10166.0
20
-9089.0
30
0.0
10
10129.0
20
-9096.0
30
0.0
10
10079.0
20
-9099.0
30
0.0
10
10025.0
20
-9099.0
30
0.0
10
9971.0
20
-9096.0
30
0.0
10
9921.0
20
-9092.0
30
0.0
10
9880.0
20
-9087.0
30
0.0
10
9852.0
20
-9084.0
30
0.0
10
9841.0
20
-9083.0
30
0.0
10
9572.0
20
-8967.0
30
0.0
10
9559.0
20
-8964.0
30
0.0
10
9520.0
20
-8958.0
30
0.0
10
9463.0
20
-8947.0
30
0.0
10
9393.0
20
-8934.0
30
0.0
10
9314.0
20
-8919.0
30
0.0
10
9233.0
20
-8902.0
30
0.0
10
9155.0
20
-8885.0
30
0.0
10
9085.0
20
-8868.0
30
0.0
10
9022.0
20
-8851.0
30
0.0
10
8964.0
20
-8835.0
30
0.0
10
8910.0
20
-8819.0
30
0.0
10
8859.0
20
-8803.0
30
0.0
10
8809.0
20
-8789.0
30
0.0
10
8759.0
20
-8775.0
30
0.0
10
8710.0
20
-8763.0
30
0.0
10
8661.0
20
-8752.0
30
0.0
10
8610.0
20
-8742.0
30
0.0
10
8558.0
20
-8734.0
30
0.0
10
8505.0
20
-8728.0
30
0.0
10
8452.0
20
-8724.0
30
0.0
10
8398.0
20
-8723.0
30
0.0
10
8340.0
20
-8725.0
30
0.0
10
8281.0
20
-8728.0
30
0.0
10
8223.0
20
-8733.0
30
0.0
10
8164.0
20
-8737.0
30
0.0
10
8106.0
20
-8741.0
30
0.0
10
8047.0
20
-8743.0
30
0.0
10
7990.0
20
-8742.0
30
0.0
10
7935.0
20
-8737.0
30
0.0
10
7882.0
20
-8730.0
30
0.0
10
7830.0
20
-8721.0
30
0.0
10
7778.0
20
-8710.0
30
0.0
10
7727.0
20
-8698.0
30
0.0
10
7677.0
20
-8686.0
30
0.0
10
7629.0
20
-8675.0
30
0.0
10
7587.0
20
-8665.0
30
0.0
10
7546.0
20
-8656.0
30
0.0
10
7505.0
20
-8648.0
30
0.0
10
7465.0
20
-8639.0
30
0.0
10
7425.0
20
-8631.0
30
0.0
10
7386.0
20
-8622.0
30
0.0
10
7347.0
20
-8612.0
30
0.0
10
7308.0
20
-8602.0
30
0.0
10
7270.0
20
-8591.0
30
0.0
10
7231.0
20
-8581.0
30
0.0
10
7192.0
20
-8571.0
30
0.0
10
7153.0
20
-8563.0
30
0.0
10
7114.0
20
-8557.0
30
0.0
10
7074.0
20
-8553.0
30
0.0
10
7033.0
20
-8552.0
30
0.0
10
6993.0
20
-8553.0
30
0.0
10
6952.0
20
-8558.0
30
0.0
10
6912.0
20
-8565.0
30
0.0
10
6872.0
20
-8574.0
30
0.0
10
6833.0
20
-8585.0
30
0.0
10
6795.0
20
-8598.0
30
0.0
10
6761.0
20
-8612.0
30
0.0
10
6728.0
20
-8626.0
30
0.0
10
6695.0
20
-8641.0
30
0.0
10
6662.0
20
-8655.0
30
0.0
10
6630.0
20
-8667.0
30
0.0
10
6597.0
20
-8678.0
30
0.0
10
6563.0
20
-8686.0
30
0.0
10
6526.0
20
-8692.0
30
0.0
10
6489.0
20
-8694.0
30
0.0
10
6451.0
20
-8692.0
30
0.0
10
6412.0
20
-8688.0
30
0.0
10
6374.0
20
-8680.0
30
0.0
10
6335.0
20
-8669.0
30
0.0
10
6297.0
20
-8656.0
30
0.0
10
6258.0
20
-8639.0
30
0.0
10
6220.0
20
-8619.0
30
0.0
10
6182.0
20
-8597.0
30
0.0
10
6146.0
20
-8573.0
30
0.0
10
6111.0
20
-8549.0
30
0.0
10
6078.0
20
-8524.0
30
0.0
10
6045.0
20
-8499.0
30
0.0
10
6018.0
20
-8478.0
30
0.0
10
5991.0
20
-8457.0
30
0.0
10
5965.0
20
-8438.0
30
0.0
10
5937.0
20
-8420.0
30
0.0
10
5909.0
20
-8404.0
30
0.0
10
5879.0
20
-8390.0
30
0.0
10
5847.0
20
-8378.0
30
0.0
10
5808.0
20
-8368.0
30
0.0
10
5768.0
20
-8360.0
30
0.0
10
5726.0
20
-8352.0
30
0.0
10
5685.0
20
-8344.0
30
0.0
10
5644.0
20
-8335.0
30
0.0
10
5607.0
20
-8323.0
30
0.0
10
5573.0
20
-8306.0
30
0.0
10
5547.0
20
-8288.0
30
0.0
10
5525.0
20
-8267.0
30
0.0
10
5504.0
20
-8245.0
30
0.0
10
5484.0
20
-8221.0
30
0.0
10
5465.0
20
-8198.0
30
0.0
10
5445.0
20
-8176.0
30
0.0
10
5424.0
20
-8157.0
30
0.0
10
5402.0
20
-8142.0
30
0.0
10
5378.0
20
-8130.0
30
0.0
10
5352.0
20
-8122.0
30
0.0
10
5325.0
20
-8116.0
30
0.0
10
5297.0
20
-8113.0
30
0.0
10
5268.0
20
-8112.0
30
0.0
10
5238.0
20
-8115.0
30
0.0
10
5203.0
20
-8120.0
30
0.0
10
5167.0
20
-8128.0
30
0.0
10
5132.0
20
-8139.0
30
0.0
10
5098.0
20
-8152.0
30
0.0
10
5065.0
20
-8167.0
30
0.0
10
5035.0
20
-8183.0
30
0.0
10
5007.0
20
-8199.0
30
0.0
10
4989.0
20
-8211.0
30
0.0
10
4973.0
20
-8222.0
30
0.0
10
4958.0
20
-8232.0
30
0.0
10
4944.0
20
-8240.0
30
0.0
10
4931.0
20
-8246.0
30
0.0
10
4917.0
20
-8249.0
30
0.0
10
4904.0
20
-8248.0
30
0.0
10
4886.0
20
-8240.0
30
0.0
10
4868.0
20
-8225.0
30
0.0
10
4848.0
20
-8207.0
30
0.0
10
4828.0
20
-8185.0
30
0.0
10
4806.0
20
-8163.0
30
0.0
10
4782.0
20
-8141.0
30
0.0
10
4756.0
20
-8121.0
30
0.0
10
4721.0
20
-8102.0
30
0.0
10
4682.0
20
-8087.0
30
0.0
10
4641.0
20
-8077.0
30
0.0
10
4598.0
20
-8070.0
30
0.0
10
4553.0
20
-8065.0
30
0.0
10
4506.0
20
-8062.0
30
0.0
10
4459.0
20
-8060.0
30
0.0
10
4410.0
20
-8057.0
30
0.0
10
4360.0
20
-8054.0
30
0.0
10
4311.0
20
-8053.0
30
0.0
10
4263.0
20
-8053.0
30
0.0
10
4215.0
20
-8055.0
30
0.0
10
4170.0
20
-8061.0
30
0.0
10
4126.0
20
-8070.0
30
0.0
10
4090.0
20
-8082.0
30
0.0
10
4055.0
20
-8096.0
30
0.0
10
4021.0
20
-8113.0
30
0.0
10
3989.0
20
-8131.0
30
0.0
10
3958.0
20
-8150.0
30
0.0
10
3927.0
20
-8170.0
30
0.0
10
3898.0
20
-8190.0
30
0.0
10
3870.0
20
-8208.0
30
0.0
10
3843.0
20
-8225.0
30
0.0
10
3816.0
20
-8242.0
30
0.0
10
3789.0
20
-8259.0
30
0.0
10
3762.0
20
-8275.0
30
0.0
10
3733.0
20
-8291.0
30
0.0
10
3704.0
20
-8307.0
30
0.0
10
3670.0
20
-8324.0
30
0.0
10
3634.0
20
-8340.0
30
0.0
10
3597.0
20
-8357.0
30
0.0
10
3560.0
20
-8373.0
30
0.0
10
3522.0
20
-8388.0
30
0.0
10
3483.0
20
-8403.0
30
0.0
10
3444.0
20
-8418.0
30
0.0
10
3406.0
20
-8432.0
30
0.0
10
3369.0
20
-8445.0
30
0.0
10
3333.0
20
-8458.0
30
0.0
10
3299.0
20
-8473.0
30
0.0
10
3266.0
20
-8487.0
30
0.0
10
3235.0
20
-8503.0
30
0.0
10
3208.0
20
-8521.0
30
0.0
10
3186.0
20
-8538.0
30
0.0
10
3165.0
20
-8556.0
30
0.0
10
3145.0
20
-8576.0
30
0.0
10
3124.0
20
-8595.0
30
0.0
10
3102.0
20
-8615.0
30
0.0
10
3076.0
20
-8634.0
30
0.0
10
3047.0
20
-8653.0
30
0.0
10
3013.0
20
-8671.0
30
0.0
10
2978.0
20
-8688.0
30
0.0
10
2942.0
20
-8703.0
30
0.0
10
2910.0
20
-8715.0
30
0.0
10
2883.0
20
-8724.0
30
0.0
10
2865.0
20
-8730.0
30
0.0
10
2859.0
20
-8733.0
30
0.0
10
2854.0
20
-8723.0
30
0.0
10
2842.0
20
-8698.0
30
0.0
10
2825.0
20
-8660.0
30
0.0
10
2804.0
20
-8613.0
30
0.0
10
2782.0
20
-8559.0
30
0.0
10
2760.0
20
-8503.0
30
0.0
10
2741.0
20
-8447.0
30
0.0
10
2726.0
20
-8395.0
30
0.0
10
2715.0
20
-8347.0
30
0.0
10
2707.0
20
-8302.0
30
0.0
10
2701.0
20
-8259.0
30
0.0
10
2698.0
20
-8220.0
30
0.0
10
2695.0
20
-8183.0
30
0.0
10
2693.0
20
-8147.0
30
0.0
10
2691.0
20
-8119.0
30
0.0
10
2689.0
20
-8090.0
30
0.0
10
2687.0
20
-8061.0
30
0.0
10
2685.0
20
-8032.0
30
0.0
10
2684.0
20
-8000.0
30
0.0
10
2684.0
20
-7965.0
30
0.0
10
2684.0
20
-7926.0
30
0.0
10
2685.0
20
-7883.0
30
0.0
10
2687.0
20
-7837.0
30
0.0
10
2689.0
20
-7793.0
30
0.0
10
2691.0
20
-7754.0
30
0.0
10
2693.0
20
-7722.0
30
0.0
10
2694.0
20
-7700.0
30
0.0
10
2694.0
20
-7693.0
30
0.0
10
2690.0
20
-7690.0
30
0.0
10
2678.0
20
-7681.0
30
0.0
10
2660.0
20
-7667.0
30
0.0
10
2639.0
20
-7650.0
30
0.0
10
2615.0
20
-7630.0
30
0.0
10
2592.0
20
-7607.0
30
0.0
10
2570.0
20
-7583.0
30
0.0
10
2551.0
20
-7558.0
30
0.0
10
2535.0
20
-7534.0
30
0.0
10
2520.0
20
-7512.0
30
0.0
10
2504.0
20
-7492.0
30
0.0
10
2488.0
20
-7477.0
30
0.0
10
2468.0
20
-7466.0
30
0.0
10
2444.0
20
-7462.0
30
0.0
10
2415.0
20
-7465.0
30
0.0
10
2382.0
20
-7474.0
30
0.0
10
2349.0
20
-7486.0
30
0.0
10
2319.0
20
-7499.0
30
0.0
10
2293.0
20
-7512.0
30
0.0
10
2276.0
20
-7521.0
30
0.0
10
2270.0
20
-7524.0
30
0.0
10
2120.0
20
-7504.0
30
0.0
10
2117.0
20
-7500.0
30
0.0
10
2109.0
20
-7489.0
30
0.0
10
2098.0
20
-7472.0
30
0.0
10
2085.0
20
-7451.0
30
0.0
10
2069.0
20
-7427.0
30
0.0
10
2053.0
20
-7401.0
30
0.0
10
2038.0
20
-7375.0
30
0.0
10
2020.0
20
-7341.0
30
0.0
10
2004.0
20
-7308.0
30
0.0
10
1989.0
20
-7275.0
30
0.0
10
1975.0
20
-7242.0
30
0.0
10
1961.0
20
-7207.0
30
0.0
10
1947.0
20
-7171.0
30
0.0
10
1931.0
20
-7132.0
30
0.0
10
1910.0
20
-7081.0
30
0.0
10
1886.0
20
-7026.0
30
0.0
10
1862.0
20
-6971.0
30
0.0
10
1837.0
20
-6916.0
30
0.0
10
1813.0
20
-6864.0
30
0.0
10
1790.0
20
-6816.0
30
0.0
10
1769.0
20
-6773.0
30
0.0
10
1756.0
20
-6748.0
30
0.0
10
1743.0
20
-6725.0
30
0.0
10
1729.0
20
-6704.0
30
0.0
10
1714.0
20
-6685.0
30
0.0
10
1695.0
20
-6665.0
30
0.0
10
1673.0
20
-6645.0
30
0.0
10
1646.0
20
-6623.0
30
0.0
10
1604.0
20
-6593.0
30
0.0
10
1558.0
20
-6561.0
30
0.0
10
1510.0
20
-6529.0
30
0.0
10
1466.0
20
-6501.0
30
0.0
10
1429.0
20
-6477.0
30
0.0
10
1404.0
20
-6462.0
30
0.0
10
1394.0
20
-6456.0
30
0.0
10
1354.0
20
-6267.0
30
0.0
10
1131.0
20
-6104.0
30
0.0
10
1126.0
20
-6102.0
30
0.0
10
1113.0
20
-6096.0
30
0.0
10
1092.0
20
-6088.0
30
0.0
10
1064.0
20
-6078.0
30
0.0
10
1031.0
20
-6067.0
30
0.0
10
993.0
20
-6056.0
30
0.0
10
952.0
20
-6046.0
30
0.0
10
899.0
20
-6037.0
30
0.0
10
846.0
20
-6030.0
30
0.0
10
795.0
20
-6026.0
30
0.0
10
750.0
20
-6023.0
30
0.0
10
714.0
20
-6021.0
30
0.0
10
690.0
20
-6021.0
30
0.0
10
681.0
20
-6021.0
30
0.0
10
677.0
20
-6012.0
30
0.0
10
666.0
20
-5989.0
30
0.0
10
649.0
20
-5956.0
30
0.0
10
630.0
20
-5914.0
30
0.0
10
609.0
20
-5869.0
30
0.0
10
589.0
20
-5824.0
30
0.0
10
571.0
20
-5782.0
30
0.0
10
560.0
20
-5752.0
30
0.0
10
551.0
20
-5726.0
30
0.0
10
544.0
20
-5702.0
30
0.0
10
538.0
20
-5681.0
30
0.0
10
531.0
20
-5661.0
30
0.0
10
525.0
20
-5641.0
30
0.0
10
517.0
20
-5620.0
30
0.0
10
505.0
20
-5593.0
30
0.0
10
490.0
20
-5564.0
30
0.0
10
473.0
20
-5534.0
30
0.0
10
454.0
20
-5501.0
30
0.0
10
434.0
20
-5467.0
30
0.0
10
412.0
20
-5431.0
30
0.0
10
389.0
20
-5394.0
30
0.0
10
369.0
20
-5361.0
30
0.0
10
350.0
20
-5329.0
30
0.0
10
333.0
20
-5300.0
30
0.0
10
317.0
20
-5274.0
30
0.0
10
305.0
20
-5253.0
30
0.0
10
297.0
20
-5240.0
30
0.0
10
294.0
20
-5235.0
30
0.0
10
295.0
20
-5228.0
30
0.0
10
296.0
20
-5209.0
30
0.0
10
299.0
20
-5182.0
30
0.0
10
302.0
20
-5149.0
30
0.0
10
306.0
20
-5114.0
30
0.0
10
310.0
20
-5078.0
30
0.0
10
314.0
20
-5046.0
30
0.0
10
317.0
20
-5024.0
30
0.0
10
320.0
20
-5005.0
30
0.0
10
320.0
20
-4988.0
30
0.0
10
319.0
20
-4972.0
30
0.0
10
314.0
20
-4957.0
30
0.0
10
306.0
20
-4940.0
30
0.0
10
293.0
20
-4921.0
30
0.0
10
266.0
20
-4888.0
30
0.0
10
231.0
20
-4852.0
30
0.0
10
193.0
20
-4815.0
30
0.0
10
156.0
20
-4780.0
30
0.0
10
125.0
20
-4752.0
30
0.0
10
103.0
20
-4733.0
30
0.0
10
95.0
20
-4725.0
30
0.0
10
0.0
20
-4516.0
30
0.0
10
0.0
20
-4511.0
30
0.0
6
Solid
370
35
62
0
0
LWPOLYLINE
5
e4f
100
AcDbEntity
100
AcDbPolyline
90
6
70
1
10
9855.0
20
-7459.0
30
0.0
10
9749.0
20
-7474.0
30
0.0
10
9724.0
20
-7335.0
30
0.0
10
9802.0
20
-7259.0
30
0.0
10
9902.0
20
-7335.0
30
0.0
10
9855.0
20
-7459.0
30
0.0
6
Solid
370
35
62
0
0
LWPOLYLINE
5
e51
100
AcDbEntity
100
AcDbPolyline
90
6
70
1
10
7596.0
20
-5679.0
30
0.0
10
7462.0
20
-5738.0
30
0.0
10
7371.0
20
-5643.0
30
0.0
10
7458.0
20
-5562.0
30
0.0
10
7592.0
20
-5583.0
30
0.0
10
7596.0
20
-5679.0
30
0.0
6
Solid
370
35
62
0
0
LWPOLYLINE
5
e53
100
AcDbEntity
100
AcDbPolyline
90
5
70
1
10
7588.0
20
-4786.0
30
0.0
10
7602.0
20
-4849.0
30
0.0
10
7512.0
20
-4883.0
30
0.0
10
7525.0
20
-4806.0
30
0.0
10
7588.0
20
-4786.0
30
0.0
6
Solid
370
35
62
0
0
LWPOLYLINE
5
e55
100
AcDbEntity
100
AcDbPolyline
90
5
70
1
10
7586.0
20
-4066.0
30
0.0
10
7595.0
20
-4133.0
30
0.0
10
7514.0
20
-4148.0
30
0.0
10
7530.0
20
-4076.0
30
0.0
10
7586.0
20
-4066.0
30
0.0
6
Solid
370
35
62
0
0
LWPOLYLINE
5
e57
100
AcDbEntity
100
AcDbPolyline
90
6
70
1
10
2179.0
20
-5513.0
30
0.0
10
2093.0
20
-5590.0
30
0.0
10
2021.0
20
-5584.0
30
0.0
10
2007.0
20
-5500.0
30
0.0
10
2066.0
20
-5433.0
30
0.0
10
2179.0
20
-5513.0
30
0.0
6
Solid
370
35
62
0
0
LWPOLYLINE
5
e59
100
AcDbEntity
100
AcDbPolyline
90
5
70
1
10
3279.0
20
-4696.0
30
0.0
10
3282.0
20
-4775.0
30
0.0
10
3203.0
20
-4790.0
30
0.0
10
3199.0
20
-4698.0
30
0.0
10
3279.0
20
-4696.0
30
0.0
6
Solid
370
35
62
0
0
LWPOLYLINE
5
e5b
100
AcDbEntity
100
AcDbPolyline
90
5
70
1
10
3230.0
20
-3971.0
30
0.0
10
3220.0
20
-4047.0
30
0.0
10
3128.0
20
-4048.0
30
0.0
10
3136.0
20
-3973.0
30
0.0
10
3230.0
20
-3971.0
30
0.0
6
Solid
370
35
62
0
0
LWPOLYLINE
5
e5e
100
AcDbEntity
8
zone_0_q3
100
AcDbPolyline
90
119
70
1
10
9640.0
20
-241.0
30
0.0
10
9570.0
20
-403.0
30
0.0
10
9420.0
20
-647.0
30
0.0
10
9222.0
20
-949.0
30
0.0
10
9129.0
20
-1117.0
30
0.0
10
8955.0
20
-1187.0
30
0.0
10
8584.0
20
-1384.0
30
0.0
10
8091.0
20
-1576.0
30
0.0
10
7830.0
20
-1692.0
30
0.0
10
7557.0
20
-1692.0
30
0.0
10
7249.0
20
-1744.0
30
0.0
10
7075.0
20
-1773.0
30
0.0
10
6895.0
20
-1663.0
30
0.0
10
6715.0
20
-1483.0
30
0.0
10
6634.0
20
-1268.0
30
0.0
10
6582.0
20
-1019.0
30
0.0
10
6565.0
20
-711.0
30
0.0
10
6750.0
20
-624.0
30
0.0
10
6811.0
20
-473.0
30
0.0
10
6817.0
20
-472.0
30
0.0
10
6835.0
20
-471.0
30
0.0
10
6861.0
20
-469.0
30
0.0
10
6892.0
20
-465.0
30
0.0
10
6927.0
20
-460.0
30
0.0
10
6961.0
20
-454.0
30
0.0
10
6992.0
20
-445.0
30
0.0
10
7018.0
20
-435.0
30
0.0
10
7039.0
20
-423.0
30
0.0
10
7057.0
20
-410.0
30
0.0
10
7073.0
20
-395.0
30
0.0
10
7089.0
20
-379.0
30
0.0
10
7105.0
20
-362.0
30
0.0
10
7122.0
20
-345.0
30
0.0
10
7147.0
20
-322.0
30
0.0
10
7174.0
20
-299.0
30
0.0
10
7204.0
20
-276.0
30
0.0
10
7235.0
20
-255.0
30
0.0
10
7267.0
20
-236.0
30
0.0
10
7299.0
20
-220.0
30
0.0
10
7331.0
20
-208.0
30
0.0
10
7355.0
20
-201.0
30
0.0
10
7378.0
20
-197.0
30
0.0
10
7401.0
20
-195.0
30
0.0
10
7423.0
20
-196.0
30
0.0
10
7444.0
20
-199.0
30
0.0
10
7465.0
20
-205.0
30
0.0
10
7485.0
20
-212.0
30
0.0
10
7505.0
20
-221.0
30
0.0
10
7524.0
20
-232.0
30
0.0
10
7544.0
20
-243.0
30
0.0
10
7563.0
20
-255.0
30
0.0
10
7582.0
20
-267.0
30
0.0
10
7601.0
20
-278.0
30
0.0
10
7620.0
20
-288.0
30
0.0
10
7639.0
20
-297.0
30
0.0
10
7658.0
20
-304.0
30
0.0
10
7677.0
20
-309.0
30
0.0
10
7697.0
20
-313.0
30
0.0
10
7718.0
20
-316.0
30
0.0
10
7739.0
20
-318.0
30
0.0
10
7761.0
20
-319.0
30
0.0
10
7790.0
20
-318.0
30
0.0
10
7820.0
20
-315.0
30
0.0
10
7851.0
20
-311.0
30
0.0
10
7883.0
20
-306.0
30
0.0
10
7915.0
20
-299.0
30
0.0
10
7947.0
20
-291.0
30
0.0
10
7978.0
20
-282.0
30
0.0
10
8008.0
20
-273.0
30
0.0
10
8038.0
20
-262.0
30
0.0
10
8066.0
20
-251.0
30
0.0
10
8095.0
20
-239.0
30
0.0
10
8122.0
20
-226.0
30
0.0
10
8150.0
20
-213.0
30
0.0
10
8177.0
20
-200.0
30
0.0
10
8206.0
20
-186.0
30
0.0
10
8235.0
20
-171.0
30
0.0
10
8264.0
20
-155.0
30
0.0
10
8295.0
20
-139.0
30
0.0
10
8326.0
20
-122.0
30
0.0
10
8359.0
20
-105.0
30
0.0
10
8394.0
20
-86.0
30
0.0
10
8425.0
20
-69.0
30
0.0
10
8456.0
20
-52.0
30
0.0
10
8486.0
20
-36.0
30
0.0
10
8512.0
20
-21.0
30
0.0
10
8532.0
20
-10.0
30
0.0
10
8546.0
20
-3.0
30
0.0
10
8551.0
20
0.0
30
0.0
10
8560.0
20
-1.0
30
0.0
10
8585.0
20
-4.0
30
0.0
10
8623.0
20
-8.0
30
0.0
10
8668.0
20
-13.0
30
0.0
10
8717.0
20
-18.0
30
0.0
10
8765.0
20
-22.0
30
0.0
10
8808.0
20
-25.0
30
0.0
10
8839.0
20
-26.0
30
0.0
10
8866.0
20
-26.0
30
0.0
10
8890.0
20
-25.0
30
0.0
10
8913.0
20
-25.0
30
0.0
10
8938.0
20
-25.0
30
0.0
10
8966.0
20
-26.0
30
0.0
10
8999.0
20
-29.0
30
0.0
10
9051.0
20
-37.0
30
0.0
10
9110.0
20
-46.0
30
0.0
10
9171.0
20
-57.0
30
0.0
10
9227.0
20
-68.0
30
0.0
10
9274.0
20
-77.0
30
0.0
10
9306.0
20
-84.0
30
0.0
10
9318.0
20
-86.0
30
0.0
10
9560.0
20
-108.0
30
0.0
10
9561.0
20
-110.0
30
0.0
10
9565.0
20
-116.0
30
0.0
10
9570.0
20
-125.0
30
0.0
10
9578.0
20
-136.0
30
0.0
10
9587.0
20
-149.0
30
0.0
10
9598.0
20
-162.0
30
0.0
10
9611.0
20
-175.0
30
0.0
10
9640.0
20
-241.0
30
0.0
6
Solid
370
35
62
3
0
LWPOLYLINE
5
e61
100
AcDbEntity
8
zone_1_q1
100
AcDbPolyline
90
7
70
1
10
10259.0
20
-8879.0
30
0.0
10
9977.0
20
-8984.0
30
0.0
10
9968.0
20
-8873.0
30
0.0
10
9970.0
20
-8776.0
30
0.0
10
10031.0
20
-8654.0
30
0.0
10
10171.0
20
-8799.0
30
0.0
10
10259.0
20
-8879.0
30
0.0
6
Solid
370
35
62
40
0
LWPOLYLINE
5
e64
100
AcDbEntity
8
zone_2_q2
100
AcDbPolyline
90
8
70
1
10
8236.0
20
-7659.0
30
0.0
10
7996.0
20
-7758.0
30
0.0
10
7785.0
20
-7624.0
30
0.0
10
7815.0
20
-7432.0
30
0.0
10
8039.0
20
-7295.0
30
0.0
10
8203.0
20
-7341.0
30
0.0
10
8469.0
20
-7397.0
30
0.0
10
8236.0
20
-7659.0
30
0.0
6
Solid
370
35
62
2
0
LWPOLYLINE
5
e67
100
AcDbEntity
8
zone_3_q3
100
AcDbPolyline
90
5
70
1
10
9108.0
20
-8636.0
30
0.0
10
8280.0
20
-8583.0
30
0.0
10
8452.0
20
-7971.0
30
0.0
10
9099.0
20
-7916.0
30
0.0
10
9108.0
20
-8636.0
30
0.0
6
Solid
370
35
62
3
0
LWPOLYLINE
5
e6a
100
AcDbEntity
8
zone_4_q1
100
AcDbPolyline
90
9
70
1
10
8239.0
20
-4628.0
30
0.0
10
8106.0
20
-4641.0
30
0.0
10
7986.0
20
-4617.0
30
0.0
10
7888.0
20
-4558.0
30
0.0
10
7853.0
20
-4475.0
30
0.0
10
7993.0
20
-4404.0
30
0.0
10
8184.0
20
-4437.0
30
0.0
10
8337.0
20
-4511.0
30
0.0
10
8239.0
20
-4628.0
30
0.0
6
Solid
370
35
62
40
0
LWPOLYLINE
5
e6d
100
AcDbEntity
8
zone_5_q3
100
AcDbPolyline
90
5
70
1
10
4421.0
20
-7558.0
30
0.0
10
4585.0
20
-7976.0
30
0.0
10
4037.0
20
-7972.0
30
0.0
10
4032.0
20
-7448.0
30
0.0
10
4421.0
20
-7558.0
30
0.0
6
Solid
370
35
62
3
0
LWPOLYLINE
5
e70
100
AcDbEntity
8
zone_6_q2
100
AcDbPolyline
90
9
70
1
10
3442.0
20
-1279.0
30
0.0
10
3528.0
20
-1407.0
30
0.0
10
3587.0
20
-1550.0
30
0.0
10
3435.0
20
-1507.0
30
0.0
10
3318.0
20
-1406.0
30
0.0
10
3227.0
20
-1322.0
30
0.0
10
3232.0
20
-1160.0
30
0.0
10
3337.0
20
-1139.0
30
0.0
10
3442.0
20
-1279.0
30
0.0
6
Solid
370
35
62
2
0
LWPOLYLINE
5
e73
100
AcDbEntity
8
zone_7_q3
100
AcDbPolyline
90
5
70
1
10
3375.0
20
-820.0
30
0.0
10
3834.0
20
-765.0
30
0.0
10
4138.0
20
-1445.0
30
0.0
10
3663.0
20
-1345.0
30
0.0
10
3375.0
20
-820.0
30
0.0
6
Solid
370
35
62
3
0
ENDSEC
0
SECTION
2
OBJECTS
0
DICTIONARY
5
e4b
330
0
100
AcDbDictionary
281
1
3
ACAD_GROUP
350
e4c
0
DICTIONARY
5
e4c
330
e4b
100
AcDbDictionary
281
1
0
ENDSEC
0
EOF
