999

0
SECTION
2
HEADER
9
$ACADVER
1
AC1021
9
$HANDSEED
5
f72
0
ENDSEC
0
SECTION
2
CLASSES
0
ENDSEC
0
SECTION
2
TABLES
0
TABLE
2
VPORT
5
f34
100
AcDbSymbolTable
70
1
0
VPORT
5
f33
100
AcDbSymbolTableRecord
100
AcDbViewportTableRecord
2
*ACTIVE
10
0
20
0
11
1
21
1
12
500.0
22
500.0
40
1000.0
70
0
0
ENDTAB
0
TABLE
2
LTYPE
5
f35
100
AcDbSymbolTable
70
3
0
LTYPE
5
f3d
100
AcDbSymbolTableRecord
100
AcDbLinetypeTableRecord
2
Solid
70
0
72
65
73
0
3

0
LTYPE
5
f3e
100
AcDbSymbolTableRecord
100
AcDbLinetypeTableRecord
2
ByBlock
70
0
72
65
73
0
3

0
LTYPE
5
f3f
100
AcDbSymbolTableRecord
100
AcDbLinetypeTableRecord
2
ByLayer
70
0
72
65
73
0
3

0
ENDTAB
0
TABLE
2
LAYER
5
f36
100
AcDbSymbolTable
70
5
0
LAYER
5
f40
100
AcDbSymbolTableRecord
100
AcDbLayerTableRecord
2
0
70
0
390
0
0
LAYER
5
f66
100
AcDbSymbolTableRecord
100
AcDbLayerTableRecord
2
zone_0_q3
70
0
390
0
0
LAYER
5
f69
100
AcDbSymbolTableRecord
100
AcDbLayerTableRecord
2
zone_1_q2
70
0
390
0
0
LAYER
5
f6c
100
AcDbSymbolTableRecord
100
AcDbLayerTableRecord
2
zone_2_q2
70
0
390
0
0
LAYER
5
f6f
100
AcDbSymbolTableRecord
100
AcDbLayerTableRecord
2
zone_3_q3
70
0
390
0
0
ENDTAB
0
TABLE
2
STYLE
5
f37
100
AcDbSymbolTable
70
0
0
ENDTAB
0
TABLE
2
VIEW
5
f38
100
AcDbSymbolTable
70
0
0
ENDTAB
0
TABLE
2
UCS
5
f39
100
AcDbSymbolTable
70
0
0
ENDTAB
0
TABLE
2
APPID
5
f3a
100
AcDbSymbolTable
70
1
0
APPID
5
f41
100
AcDbSymbolTableRecord
100
AcDbRegAppTableRecord
2
ACAD
70
0
0
ENDTAB
0
TABLE
2
DIMSTYLE
5
f3b
100
AcDbSymbolTable
70
0
100
AcDbDimStyleTable
71
1
0
ENDTAB
0
TABLE
2
BLOCK_RECORD
5
f3c
100
AcDbSymbolTable
70
2
0
BLOCK_RECORD
5
f42
100
AcDbSymbolTableRecord
100
AcDbBlockTableRecord
2
*Model_Space
70
0
280
1
281
0
0
BLOCK_RECORD
5
f43
100
AcDbSymbolTableRecord
100
AcDbBlockTableRecord
2
*Paper_Space
70
0
280
1
281
0
0
ENDTAB
0
ENDSEC
0
SECTION
2
BLOCKS
0
BLOCK
5
f44
100
AcDbEntity
100
AcDbBlockBegin
2
*Model_Space
70
0
10
0
20
0
30
0
3
*Model_Space
1

0
ENDBLK
5
f45
100
AcDbEntity
100
AcDbBlockEnd
0
BLOCK
5
f46
100
AcDbEntity
100
AcDbBlockBegin
2
*Paper_Space
70
0
10
0
20
0
30
0
3
*Paper_Space
1

0
ENDBLK
5
f47
100
AcDbEntity
100
AcDbBlockEnd
0
ENDSEC
0
SECTION
2
ENTITIES
0
LWPOLYLINE
5
f4a
100
AcDbEntity
100
AcDbPolyline
90
1244
70
1
10
356.0
20
-2917.0
30
0.0
10
371.0
20
-2919.0
30
0.0
10
395.0
20
-2923.0
30
0.0
10
424.0
20
-2928.0
30
0.0
10
457.0
20
-2934.0
30
0.0
10
492.0
20
-2940.0
30
0.0
10
527.0
20
-2946.0
30
0.0
10
565.0
20
-2952.0
30
0.0
10
600.0
20
-2958.0
30
0.0
10
634.0
20
-2964.0
30
0.0
10
666.0
20
-2969.0
30
0.0
10
697.0
20
-2975.0
30
0.0
10
727.0
20
-2981.0
30
0.0
10
757.0
20
-2987.0
30
0.0
10
785.0
20
-2992.0
30
0.0
10
812.0
20
-2997.0
30
0.0
10
840.0
20
-3001.0
30
0.0
10
867.0
20
-3003.0
30
0.0
10
895.0
20
-3003.0
30
0.0
10
922.0
20
-2999.0
30
0.0
10
950.0
20
-2991.0
30
0.0
10
971.0
20
-2982.0
30
0.0
10
992.0
20
-2970.0
30
0.0
10
1010.0
20
-2959.0
30
0.0
10
1026.0
20
-2948.0
30
0.0
10
1039.0
20
-2938.0
30
0.0
10
1047.0
20
-2932.0
30
0.0
10
1050.0
20
-2929.0
30
0.0
10
1056.0
20
-2929.0
30
0.0
10
1071.0
20
-2926.0
30
0.0
10
1094.0
20
-2922.0
30
0.0
10
1122.0
20
-2915.0
30
0.0
10
1150.0
20
-2906.0
30
0.0
10
1178.0
20
-2894.0
30
0.0
10
1201.0
20
-2879.0
30
0.0
10
1219.0
20
-2860.0
30
0.0
10
1231.0
20
-2839.0
30
0.0
10
1238.0
20
-2815.0
30
0.0
10
1241.0
20
-2790.0
30
0.0
10
1241.0
20
-2764.0
30
0.0
10
1240.0
20
-2737.0
30
0.0
10
1239.0
20
-2711.0
30
0.0
10
1238.0
20
-2685.0
30
0.0
10
1238.0
20
-2661.0
30
0.0
10
1239.0
20
-2636.0
30
0.0
10
1238.0
20
-2613.0
30
0.0
10
1238.0
20
-2589.0
30
0.0
10
1236.0
20
-2565.0
30
0.0
10
1233.0
20
-2541.0
30
0.0
10
1229.0
20
-2517.0
30
0.0
10
1223.0
20
-2492.0
30
0.0
10
1216.0
20
-2468.0
30
0.0
10
1209.0
20
-2443.0
30
0.0
10
1202.0
20
-2419.0
30
0.0
10
1195.0
20
-2396.0
30
0.0
10
1189.0
20
-2373.0
30
0.0
10
1186.0
20
-2355.0
30
0.0
10
1183.0
20
-2337.0
30
0.0
10
1182.0
20
-2321.0
30
0.0
10
1183.0
20
-2305.0
30
0.0
10
1185.0
20
-2290.0
30
0.0
10
1190.0
20
-2275.0
30
0.0
10
1197.0
20
-2262.0
30
0.0
10
1209.0
20
-2248.0
30
0.0
10
1224.0
20
-2234.0
30
0.0
10
1241.0
20
-2222.0
30
0.0
10
1260.0
20
-2210.0
30
0.0
10
1281.0
20
-2197.0
30
0.0
10
1302.0
20
-2185.0
30
0.0
10
1322.0
20
-2172.0
30
0.0
10
1344.0
20
-2157.0
30
0.0
10
1364.0
20
-2141.0
30
0.0
10
1384.0
20
-2125.0
30
0.0
10
1402.0
20
-2107.0
30
0.0
10
1420.0
20
-2089.0
30
0.0
10
1435.0
20
-2071.0
30
0.0
10
1450.0
20
-2052.0
30
0.0
10
1463.0
20
-2033.0
30
0.0
10
1474.0
20
-2013.0
30
0.0
10
1485.0
20
-1992.0
30
0.0
10
1496.0
20
-1971.0
30
0.0
10
1506.0
20
-1947.0
30
0.0
10
1516.0
20
-1922.0
30
0.0
10
1527.0
20
-1894.0
30
0.0
10
1537.0
20
-1865.0
30
0.0
10
1548.0
20
-1836.0
30
0.0
10
1559.0
20
-1808.0
30
0.0
10
1568.0
20
-1783.0
30
0.0
10
1575.0
20
-1763.0
30
0.0
10
1580.0
20
-1750.0
30
0.0
10
1582.0
20
-1745.0
30
0.0
10
1588.0
20
-1746.0
30
0.0
10
1605.0
20
-1750.0
30
0.0
10
1630.0
20
-1756.0
30
0.0
10
1661.0
20
-1763.0
30
0.0
10
1695.0
20
-1771.0
30
0.0
10
1731.0
20
-1780.0
30
0.0
10
1764.0
20
-1788.0
30
0.0
10
1794.0
20
-1795.0
30
0.0
10
1822.0
20
-1802.0
30
0.0
10
1847.0
20
-1808.0
30
0.0
10
1871.0
20
-1813.0
30
0.0
10
1895.0
20
-1818.0
30
0.0
10
1920.0
20
-1821.0
30
0.0
10
1948.0
20
-1824.0
30
0.0
10
1972.0
20
-1826.0
30
0.0
10
1996.0
20
-1827.0
30
0.0
10
2020.0
20
-1828.0
30
0.0
10
2041.0
20
-1828.0
30
0.0
10
2058.0
20
-1828.0
30
0.0
10
2069.0
20
-1829.0
30
0.0
10
2073.0
20
-1829.0
30
0.0
10
2073.0
20
-1824.0
30
0.0
10
2074.0
20
-1811.0
30
0.0
10
2073.0
20
-1792.0
30
0.0
10
2073.0
20
-1768.0
30
0.0
10
2071.0
20
-1741.0
30
0.0
10
2069.0
20
-1712.0
30
0.0
10
2065.0
20
-1684.0
30
0.0
10
2060.0
20
-1655.0
30
0.0
10
2053.0
20
-1628.0
30
0.0
10
2045.0
20
-1603.0
30
0.0
10
2036.0
20
-1580.0
30
0.0
10
2026.0
20
-1557.0
30
0.0
10
2016.0
20
-1535.0
30
0.0
10
2007.0
20
-1514.0
30
0.0
10
1997.0
20
-1492.0
30
0.0
10
1987.0
20
-1469.0
30
0.0
10
1978.0
20
-1445.0
30
0.0
10
1970.0
20
-1420.0
30
0.0
10
1961.0
20
-1392.0
30
0.0
10
1953.0
20
-1363.0
30
0.0
10
1946.0
20
-1330.0
30
0.0
10
1939.0
20
-1296.0
30
0.0
10
1932.0
20
-1260.0
30
0.0
10
1926.0
20
-1226.0
30
0.0
10
1921.0
20
-1196.0
30
0.0
10
1918.0
20
-1172.0
30
0.0
10
1915.0
20
-1155.0
30
0.0
10
1914.0
20
-1149.0
30
0.0
10
2223.0
20
-983.0
30
0.0
10
2341.0
20
-1031.0
30
0.0
10
2345.0
20
-1033.0
30
0.0
10
2355.0
20
-1038.0
30
0.0
10
2370.0
20
-1046.0
30
0.0
10
2390.0
20
-1055.0
30
0.0
10
2412.0
20
-1064.0
30
0.0
10
2435.0
20
-1072.0
30
0.0
10
2459.0
20
-1079.0
30
0.0
10
2485.0
20
-1083.0
30
0.0
10
2511.0
20
-1084.0
30
0.0
10
2536.0
20
-1082.0
30
0.0
10
2560.0
20
-1078.0
30
0.0
10
2584.0
20
-1072.0
30
0.0
10
2608.0
20
-1067.0
30
0.0
10
2632.0
20
-1061.0
30
0.0
10
2658.0
20
-1055.0
30
0.0
10
2685.0
20
-1049.0
30
0.0
10
2711.0
20
-1041.0
30
0.0
10
2738.0
20
-1031.0
30
0.0
10
2765.0
20
-1017.0
30
0.0
10
2791.0
20
-998.0
30
0.0
10
2816.0
20
-973.0
30
0.0
10
2844.0
20
-937.0
30
0.0
10
2869.0
20
-896.0
30
0.0
10
2892.0
20
-853.0
30
0.0
10
2912.0
20
-813.0
30
0.0
10
2927.0
20
-780.0
30
0.0
10
2936.0
20
-757.0
30
0.0
10
2940.0
20
-748.0
30
0.0
10
3097.0
20
-734.0
30
0.0
10
3105.0
20
-737.0
30
0.0
10
3129.0
20
-746.0
30
0.0
10
3163.0
20
-759.0
30
0.0
10
3205.0
20
-776.0
30
0.0
10
3251.0
20
-796.0
30
0.0
10
3298.0
20
-816.0
30
0.0
10
3342.0
20
-837.0
30
0.0
10
3377.0
20
-855.0
30
0.0
10
3408.0
20
-872.0
30
0.0
10
3435.0
20
-888.0
30
0.0
10
3461.0
20
-902.0
30
0.0
10
3484.0
20
-916.0
30
0.0
10
3507.0
20
-927.0
30
0.0
10
3531.0
20
-937.0
30
0.0
10
3552.0
20
-944.0
30
0.0
10
3573.0
20
-951.0
30
0.0
10
3595.0
20
-957.0
30
0.0
10
3618.0
20
-963.0
30
0.0
10
3640.0
20
-971.0
30
0.0
10
3662.0
20
-980.0
30
0.0
10
3684.0
20
-991.0
30
0.0
10
3707.0
20
-1006.0
30
0.0
10
3730.0
20
-1024.0
30
0.0
10
3752.0
20
-1042.0
30
0.0
10
3775.0
20
-1061.0
30
0.0
10
3797.0
20
-1079.0
30
0.0
10
3820.0
20
-1094.0
30
0.0
10
3844.0
20
-1107.0
30
0.0
10
3869.0
20
-1116.0
30
0.0
10
3896.0
20
-1120.0
30
0.0
10
3925.0
20
-1122.0
30
0.0
10
3955.0
20
-1120.0
30
0.0
10
3988.0
20
-1117.0
30
0.0
10
4023.0
20
-1112.0
30
0.0
10
4061.0
20
-1106.0
30
0.0
10
4101.0
20
-1101.0
30
0.0
10
4142.0
20
-1096.0
30
0.0
10
4181.0
20
-1091.0
30
0.0
10
4216.0
20
-1087.0
30
0.0
10
4243.0
20
-1084.0
30
0.0
10
4262.0
20
-1082.0
30
0.0
10
4269.0
20
-1082.0
30
0.0
10
4272.0
20
-1086.0
30
0.0
10
4281.0
20
-1097.0
30
0.0
10
4295.0
20
-1114.0
30
0.0
10
4312.0
20
-1135.0
30
0.0
10
4330.0
20
-1158.0
30
0.0
10
4348.0
20
-1181.0
30
0.0
10
4365.0
20
-1202.0
30
0.0
10
4378.0
20
-1218.0
30
0.0
10
4388.0
20
-1232.0
30
0.0
10
4398.0
20
-1244.0
30
0.0
10
4408.0
20
-1255.0
30
0.0
10
4417.0
20
-1265.0
30
0.0
10
4428.0
20
-1275.0
30
0.0
10
4440.0
20
-1284.0
30
0.0
10
4458.0
20
-1296.0
30
0.0
10
4480.0
20
-1308.0
30
0.0
10
4504.0
20
-1319.0
30
0.0
10
4530.0
20
-1330.0
30
0.0
10
4558.0
20
-1340.0
30
0.0
10
4587.0
20
-1349.0
30
0.0
10
4618.0
20
-1357.0
30
0.0
10
4654.0
20
-1365.0
30
0.0
10
4691.0
20
-1371.0
30
0.0
10
4729.0
20
-1376.0
30
0.0
10
4767.0
20
-1380.0
30
0.0
10
4805.0
20
-1383.0
30
0.0
10
4843.0
20
-1386.0
30
0.0
10
4880.0
20
-1389.0
30
0.0
10
4916.0
20
-1392.0
30
0.0
10
4952.0
20
-1396.0
30
0.0
10
4988.0
20
-1399.0
30
0.0
10
5023.0
20
-1401.0
30
0.0
10
5060.0
20
-1404.0
30
0.0
10
5096.0
20
-1405.0
30
0.0
10
5134.0
20
-1405.0
30
0.0
10
5172.0
20
-1404.0
30
0.0
10
5209.0
20
-1402.0
30
0.0
10
5247.0
20
-1398.0
30
0.0
10
5282.0
20
-1392.0
30
0.0
10
5315.0
20
-1384.0
30
0.0
10
5346.0
20
-1373.0
30
0.0
10
5372.0
20
-1361.0
30
0.0
10
5388.0
20
-1349.0
30
0.0
10
5403.0
20
-1337.0
30
0.0
10
5416.0
20
-1324.0
30
0.0
10
5430.0
20
-1311.0
30
0.0
10
5443.0
20
-1297.0
30
0.0
10
5458.0
20
-1284.0
30
0.0
10
5475.0
20
-1272.0
30
0.0
10
5508.0
20
-1256.0
30
0.0
10
5546.0
20
-1242.0
30
0.0
10
5589.0
20
-1229.0
30
0.0
10
5636.0
20
-1217.0
30
0.0
10
5686.0
20
-1206.0
30
0.0
10
5738.0
20
-1194.0
30
0.0
10
5791.0
20
-1181.0
30
0.0
10
5849.0
20
-1164.0
30
0.0
10
5907.0
20
-1145.0
30
0.0
10
5963.0
20
-1126.0
30
0.0
10
6019.0
20
-1106.0
30
0.0
10
6072.0
20
-1086.0
30
0.0
10
6123.0
20
-1067.0
30
0.0
10
6171.0
20
-1049.0
30
0.0
10
6209.0
20
-1036.0
30
0.0
10
6246.0
20
-1024.0
30
0.0
10
6281.0
20
-1011.0
30
0.0
10
6316.0
20
-997.0
30
0.0
10
6352.0
20
-981.0
30
0.0
10
6388.0
20
-961.0
30
0.0
10
6425.0
20
-938.0
30
0.0
10
6458.0
20
-914.0
30
0.0
10
6492.0
20
-888.0
30
0.0
10
6523.0
20
-863.0
30
0.0
10
6550.0
20
-839.0
30
0.0
10
6572.0
20
-820.0
30
0.0
10
6586.0
20
-807.0
30
0.0
10
6592.0
20
-802.0
30
0.0
10
6687.0
20
-758.0
30
0.0
10
6692.0
20
-761.0
30
0.0
10
6707.0
20
-767.0
30
0.0
10
6729.0
20
-775.0
30
0.0
10
6757.0
20
-785.0
30
0.0
10
6788.0
20
-795.0
30
0.0
10
6823.0
20
-804.0
30
0.0
10
6858.0
20
-811.0
30
0.0
10
6901.0
20
-815.0
30
0.0
10
6943.0
20
-814.0
30
0.0
10
6984.0
20
-810.0
30
0.0
10
7025.0
20
-804.0
30
0.0
10
7066.0
20
-796.0
30
0.0
10
7107.0
20
-788.0
30
0.0
10
7149.0
20
-781.0
30
0.0
10
7194.0
20
-776.0
30
0.0
10
7241.0
20
-772.0
30
0.0
10
7288.0
20
-768.0
30
0.0
10
7335.0
20
-763.0
30
0.0
10
7381.0
20
-756.0
30
0.0
10
7426.0
20
-747.0
30
0.0
10
7470.0
20
-734.0
30
0.0
10
7508.0
20
-717.0
30
0.0
10
7546.0
20
-698.0
30
0.0
10
7581.0
20
-676.0
30
0.0
10
7616.0
20
-654.0
30
0.0
10
7649.0
20
-633.0
30
0.0
10
7682.0
20
-613.0
30
0.0
10
7715.0
20
-595.0
30
0.0
10
7742.0
20
-584.0
30
0.0
10
7769.0
20
-575.0
30
0.0
10
7796.0
20
-567.0
30
0.0
10
7823.0
20
-562.0
30
0.0
10
7851.0
20
-558.0
30
0.0
10
7879.0
20
-555.0
30
0.0
10
7908.0
20
-553.0
30
0.0
10
7942.0
20
-551.0
30
0.0
10
7977.0
20
-549.0
30
0.0
10
8013.0
20
-546.0
30
0.0
10
8049.0
20
-543.0
30
0.0
10
8087.0
20
-539.0
30
0.0
10
8125.0
20
-533.0
30
0.0
10
8163.0
20
-525.0
30
0.0
10
8205.0
20
-514.0
30
0.0
10
8247.0
20
-501.0
30
0.0
10
8288.0
20
-486.0
30
0.0
10
8329.0
20
-469.0
30
0.0
10
8369.0
20
-452.0
30
0.0
10
8407.0
20
-434.0
30
0.0
10
8443.0
20
-416.0
30
0.0
10
8473.0
20
-401.0
30
0.0
10
8502.0
20
-386.0
30
0.0
10
8530.0
20
-371.0
30
0.0
10
8558.0
20
-355.0
30
0.0
10
8587.0
20
-339.0
30
0.0
10
8617.0
20
-323.0
30
0.0
10
8649.0
20
-306.0
30
0.0
10
8689.0
20
-285.0
30
0.0
10
8730.0
20
-264.0
30
0.0
10
8773.0
20
-243.0
30
0.0
10
8815.0
20
-224.0
30
0.0
10
8856.0
20
-207.0
30
0.0
10
8894.0
20
-192.0
30
0.0
10
8929.0
20
-182.0
30
0.0
10
8949.0
20
-178.0
30
0.0
10
8969.0
20
-175.0
30
0.0
10
8987.0
20
-174.0
30
0.0
10
9006.0
20
-173.0
30
0.0
10
9025.0
20
-174.0
30
0.0
10
9046.0
20
-174.0
30
0.0
10
9069.0
20
-174.0
30
0.0
10
9112.0
20
-172.0
30
0.0
10
9161.0
20
-169.0
30
0.0
10
9213.0
20
-164.0
30
0.0
10
9267.0
20
-158.0
30
0.0
10
9320.0
20
-150.0
30
0.0
10
9371.0
20
-142.0
30
0.0
10
9418.0
20
-133.0
30
0.0
10
9451.0
20
-126.0
30
0.0
10
9482.0
20
-118.0
30
0.0
10
9512.0
20
-109.0
30
0.0
10
9542.0
20
-100.0
30
0.0
10
9574.0
20
-91.0
30
0.0
10
9609.0
20
-81.0
30
0.0
10
9649.0
20
-70.0
30
0.0
10
9701.0
20
-56.0
30
0.0
10
9758.0
20
-43.0
30
0.0
10
9813.0
20
-30.0
30
0.0
10
9865.0
20
-18.0
30
0.0
10
9907.0
20
-9.0
30
0.0
10
9935.0
20
-2.0
30
0.0
10
9946.0
20
0.0
30
0.0
10
10248.0
20
-416.0
30
0.0
10
10242.0
20
-420.0
30
0.0
10
10226.0
20
-433.0
30
0.0
10
10203.0
20
-452.0
30
0.0
10
10174.0
20
-476.0
30
0.0
10
10143.0
20
-503.0
30
0.0
10
10111.0
20
-533.0
30
0.0
10
10082.0
20
-562.0
30
0.0
10
10055.0
20
-590.0
30
0.0
10
10033.0
20
-618.0
30
0.0
10
10013.0
20
-644.0
30
0.0
10
9995.0
20
-671.0
30
0.0
10
9979.0
20
-697.0
30
0.0
10
9962.0
20
-724.0
30
0.0
10
9944.0
20
-752.0
30
0.0
10
9920.0
20
-786.0
30
0.0
10
9895.0
20
-822.0
30
0.0
10
9869.0
20
-860.0
30
0.0
10
9843.0
20
-899.0
30
0.0
10
9818.0
20
-939.0
30
0.0
10
9795.0
20
-981.0
30
0.0
10
9775.0
20
-1023.0
30
0.0
10
9758.0
20
-1069.0
30
0.0
10
9744.0
20
-1117.0
30
0.0
10
9734.0
20
-1165.0
30
0.0
10
9727.0
20
-1215.0
30
0.0
10
9721.0
20
-1265.0
30
0.0
10
9717.0
20
-1317.0
30
0.0
10
9714.0
20
-1370.0
30
0.0
10
9712.0
20
-1430.0
30
0.0
10
9711.0
20
-1490.0
30
0.0
10
9710.0
20
-1551.0
30
0.0
10
9711.0
20
-1613.0
30
0.0
10
9713.0
20
-1674.0
30
0.0
10
9717.0
20
-1735.0
30
0.0
10
9723.0
20
-1794.0
30
0.0
10
9731.0
20
-1848.0
30
0.0
10
9740.0
20
-1901.0
30
0.0
10
9750.0
20
-1952.0
30
0.0
10
9762.0
20
-2002.0
30
0.0
10
9773.0
20
-2051.0
30
0.0
10
9785.0
20
-2098.0
30
0.0
10
9797.0
20
-2144.0
30
0.0
10
9808.0
20
-2187.0
30
0.0
10
9820.0
20
-2229.0
30
0.0
10
9832.0
20
-2272.0
30
0.0
10
9847.0
20
-2315.0
30
0.0
10
9864.0
20
-2360.0
30
0.0
10
9884.0
20
-2407.0
30
0.0
10
9909.0
20
-2457.0
30
0.0
10
9936.0
20
-2507.0
30
0.0
10
9966.0
20
-2558.0
30
0.0
10
9995.0
20
-2606.0
30
0.0
10
10022.0
20
-2649.0
30
0.0
10
10045.0
20
-2683.0
30
0.0
10
10059.0
20
-2706.0
30
0.0
10
10065.0
20
-2714.0
30
0.0
10
10064.0
20
-2719.0
30
0.0
10
10060.0
20
-2732.0
30
0.0
10
10055.0
20
-2751.0
30
0.0
10
10048.0
20
-2775.0
30
0.0
10
10040.0
20
-2799.0
30
0.0
10
10033.0
20
-2823.0
30
0.0
10
10025.0
20
-2844.0
30
0.0
10
10020.0
20
-2854.0
30
0.0
10
10016.0
20
-2863.0
30
0.0
10
10012.0
20
-2871.0
30
0.0
10
10009.0
20
-2878.0
30
0.0
10
10007.0
20
-2885.0
30
0.0
10
10006.0
20
-2891.0
30
0.0
10
10005.0
20
-2899.0
30
0.0
10
10007.0
20
-2910.0
30
0.0
10
10009.0
20
-2923.0
30
0.0
10
10013.0
20
-2937.0
30
0.0
10
10017.0
20
-2951.0
30
0.0
10
10021.0
20
-2966.0
30
0.0
10
10025.0
20
-2980.0
30
0.0
10
10027.0
20
-2993.0
30
0.0
10
10027.0
20
-3004.0
30
0.0
10
10027.0
20
-3014.0
30
0.0
10
10026.0
20
-3024.0
30
0.0
10
10025.0
20
-3035.0
30
0.0
10
10025.0
20
-3046.0
30
0.0
10
10026.0
20
-3058.0
30
0.0
10
10028.0
20
-3072.0
30
0.0
10
10034.0
20
-3093.0
30
0.0
10
10042.0
20
-3116.0
30
0.0
10
10051.0
20
-3139.0
30
0.0
10
10059.0
20
-3160.0
30
0.0
10
10067.0
20
-3177.0
30
0.0
10
10072.0
20
-3189.0
30
0.0
10
10074.0
20
-3193.0
30
0.0
10
10072.0
20
-3198.0
30
0.0
10
10065.0
20
-3210.0
30
0.0
10
10055.0
20
-3228.0
30
0.0
10
10043.0
20
-3250.0
30
0.0
10
10029.0
20
-3275.0
30
0.0
10
10015.0
20
-3302.0
30
0.0
10
10001.0
20
-3327.0
30
0.0
10
9987.0
20
-3354.0
30
0.0
10
9975.0
20
-3379.0
30
0.0
10
9963.0
20
-3402.0
30
0.0
10
9953.0
20
-3426.0
30
0.0
10
9944.0
20
-3452.0
30
0.0
10
9935.0
20
-3479.0
30
0.0
10
9927.0
20
-3510.0
30
0.0
10
9918.0
20
-3543.0
30
0.0
10
9910.0
20
-3577.0
30
0.0
10
9903.0
20
-3611.0
30
0.0
10
9897.0
20
-3642.0
30
0.0
10
9892.0
20
-3667.0
30
0.0
10
9889.0
20
-3683.0
30
0.0
10
9888.0
20
-3690.0
30
0.0
10
9884.0
20
-3692.0
30
0.0
10
9872.0
20
-3697.0
30
0.0
10
9854.0
20
-3706.0
30
0.0
10
9833.0
20
-3718.0
30
0.0
10
9810.0
20
-3733.0
30
0.0
10
9787.0
20
-3750.0
30
0.0
10
9765.0
20
-3769.0
30
0.0
10
9744.0
20
-3794.0
30
0.0
10
9727.0
20
-3822.0
30
0.0
10
9714.0
20
-3851.0
30
0.0
10
9704.0
20
-3882.0
30
0.0
10
9696.0
20
-3913.0
30
0.0
10
9689.0
20
-3945.0
30
0.0
10
9682.0
20
-3977.0
30
0.0
10
9675.0
20
-4010.0
30
0.0
10
9667.0
20
-4044.0
30
0.0
10
9658.0
20
-4077.0
30
0.0
10
9650.0
20
-4112.0
30
0.0
10
9641.0
20
-4147.0
30
0.0
10
9633.0
20
-4184.0
30
0.0
10
9626.0
20
-4222.0
30
0.0
10
9619.0
20
-4268.0
30
0.0
10
9613.0
20
-4316.0
30
0.0
10
9608.0
20
-4365.0
30
0.0
10
9604.0
20
-4414.0
30
0.0
10
9601.0
20
-4463.0
30
0.0
10
9599.0
20
-4510.0
30
0.0
10
9599.0
20
-4556.0
30
0.0
10
9599.0
20
-4590.0
30
0.0
10
9600.0
20
-4623.0
30
0.0
10
9602.0
20
-4654.0
30
0.0
10
9604.0
20
-4685.0
30
0.0
10
9608.0
20
-4714.0
30
0.0
10
9613.0
20
-4742.0
30
0.0
10
9619.0
20
-4769.0
30
0.0
10
9625.0
20
-4794.0
30
0.0
10
9632.0
20
-4819.0
30
0.0
10
9640.0
20
-4844.0
30
0.0
10
9648.0
20
-4868.0
30
0.0
10
9656.0
20
-4893.0
30
0.0
10
9663.0
20
-4919.0
30
0.0
10
9671.0
20
-4945.0
30
0.0
10
9678.0
20
-4975.0
30
0.0
10
9684.0
20
-5006.0
30
0.0
10
9689.0
20
-5037.0
30
0.0
10
9695.0
20
-5069.0
30
0.0
10
9700.0
20
-5102.0
30
0.0
10
9705.0
20
-5135.0
30
0.0
10
9710.0
20
-5169.0
30
0.0
10
9717.0
20
-5204.0
30
0.0
10
9723.0
20
-5239.0
30
0.0
10
9729.0
20
-5275.0
30
0.0
10
9735.0
20
-5310.0
30
0.0
10
9741.0
20
-5345.0
30
0.0
10
9745.0
20
-5380.0
30
0.0
10
9748.0
20
-5415.0
30
0.0
10
9749.0
20
-5448.0
30
0.0
10
9750.0
20
-5481.0
30
0.0
10
9750.0
20
-5514.0
30
0.0
10
9750.0
20
-5547.0
30
0.0
10
9750.0
20
-5579.0
30
0.0
10
9751.0
20
-5611.0
30
0.0
10
9754.0
20
-5643.0
30
0.0
10
9759.0
20
-5678.0
30
0.0
10
9766.0
20
-5714.0
30
0.0
10
9776.0
20
-5750.0
30
0.0
10
9787.0
20
-5788.0
30
0.0
10
9800.0
20
-5827.0
30
0.0
10
9815.0
20
-5868.0
30
0.0
10
9832.0
20
-5911.0
30
0.0
10
9856.0
20
-5974.0
30
0.0
10
9882.0
20
-6040.0
30
0.0
10
9909.0
20
-6108.0
30
0.0
10
9936.0
20
-6177.0
30
0.0
10
9963.0
20
-6246.0
30
0.0
10
9989.0
20
-6311.0
30
0.0
10
10012.0
20
-6373.0
30
0.0
10
10024.0
20
-6405.0
30
0.0
10
10035.0
20
-6434.0
30
0.0
10
10045.0
20
-6460.0
30
0.0
10
10052.0
20
-6481.0
30
0.0
10
10058.0
20
-6497.0
30
0.0
10
10062.0
20
-6508.0
30
0.0
10
10063.0
20
-6512.0
30
0.0
10
10061.0
20
-6516.0
30
0.0
10
10055.0
20
-6527.0
30
0.0
10
10047.0
20
-6544.0
30
0.0
10
10036.0
20
-6565.0
30
0.0
10
10025.0
20
-6588.0
30
0.0
10
10015.0
20
-6613.0
30
0.0
10
10007.0
20
-6636.0
30
0.0
10
10000.0
20
-6660.0
30
0.0
10
9996.0
20
-6683.0
30
0.0
10
9994.0
20
-6704.0
30
0.0
10
9994.0
20
-6726.0
30
0.0
10
9995.0
20
-6748.0
30
0.0
10
9997.0
20
-6773.0
30
0.0
10
9998.0
20
-6801.0
30
0.0
10
10000.0
20
-6832.0
30
0.0
10
10000.0
20
-6865.0
30
0.0
10
10001.0
20
-6898.0
30
0.0
10
10001.0
20
-6927.0
30
0.0
10
10001.0
20
-6951.0
30
0.0
10
10001.0
20
-6967.0
30
0.0
10
10001.0
20
-6973.0
30
0.0
10
9997.0
20
-6976.0
30
0.0
10
9988.0
20
-6986.0
30
0.0
10
9974.0
20
-7000.0
30
0.0
10
9957.0
20
-7019.0
30
0.0
10
9938.0
20
-7040.0
30
0.0
10
9920.0
20
-7063.0
30
0.0
10
9903.0
20
-7086.0
30
0.0
10
9888.0
20
-7112.0
30
0.0
10
9875.0
20
-7138.0
30
0.0
10
9865.0
20
-7163.0
30
0.0
10
9855.0
20
-7187.0
30
0.0
10
9846.0
20
-7211.0
30
0.0
10
9835.0
20
-7234.0
30
0.0
10
9822.0
20
-7257.0
30
0.0
10
9812.0
20
-7272.0
30
0.0
10
9801.0
20
-7286.0
30
0.0
10
9790.0
20
-7299.0
30
0.0
10
9781.0
20
-7309.0
30
0.0
10
9773.0
20
-7318.0
30
0.0
10
9767.0
20
-7323.0
30
0.0
10
9766.0
20
-7325.0
30
0.0
10
9764.0
20
-7323.0
30
0.0
10
9760.0
20
-7318.0
30
0.0
10
9755.0
20
-7309.0
30
0.0
10
9747.0
20
-7299.0
30
0.0
10
9738.0
20
-7289.0
30
0.0
10
9727.0
20
-7279.0
30
0.0
10
9716.0
20
-7270.0
30
0.0
10
9702.0
20
-7262.0
30
0.0
10
9688.0
20
-7258.0
30
0.0
10
9674.0
20
-7256.0
30
0.0
10
9659.0
20
-7257.0
30
0.0
10
9646.0
20
-7261.0
30
0.0
10
9633.0
20
-7266.0
30
0.0
10
9621.0
20
-7274.0
30
0.0
10
9610.0
20
-7286.0
30
0.0
10
9600.0
20
-7300.0
30
0.0
10
9593.0
20
-7316.0
30
0.0
10
9587.0
20
-7334.0
30
0.0
10
9583.0
20
-7353.0
30
0.0
10
9581.0
20
-7372.0
30
0.0
10
9580.0
20
-7392.0
30
0.0
10
9582.0
20
-7415.0
30
0.0
10
9585.0
20
-7437.0
30
0.0
10
9591.0
20
-7459.0
30
0.0
10
9598.0
20
-7481.0
30
0.0
10
9607.0
20
-7503.0
30
0.0
10
9618.0
20
-7523.0
30
0.0
10
9631.0
20
-7543.0
30
0.0
10
9642.0
20
-7557.0
30
0.0
10
9652.0
20
-7569.0
30
0.0
10
9662.0
20
-7580.0
30
0.0
10
9671.0
20
-7590.0
30
0.0
10
9678.0
20
-7597.0
30
0.0
10
9683.0
20
-7602.0
30
0.0
10
9685.0
20
-7604.0
30
0.0
10
9678.0
20
-7616.0
30
0.0
10
9659.0
20
-7650.0
30
0.0
10
9631.0
20
-7702.0
30
0.0
10
9596.0
20
-7765.0
30
0.0
10
9557.0
20
-7835.0
30
0.0
10
9516.0
20
-7908.0
30
0.0
10
9477.0
20
-7979.0
30
0.0
10
9442.0
20
-8041.0
30
0.0
10
9411.0
20
-8097.0
30
0.0
10
9381.0
20
-8148.0
30
0.0
10
9353.0
20
-8195.0
30
0.0
10
9325.0
20
-8237.0
30
0.0
10
9298.0
20
-8277.0
30
0.0
10
9269.0
20
-8315.0
30
0.0
10
9240.0
20
-8350.0
30
0.0
10
9210.0
20
-8385.0
30
0.0
10
9177.0
20
-8422.0
30
0.0
10
9143.0
20
-8461.0
30
0.0
10
9105.0
20
-8503.0
30
0.0
10
9065.0
20
-8551.0
30
0.0
10
9022.0
20
-8606.0
30
0.0
10
8972.0
20
-8674.0
30
0.0
10
8921.0
20
-8745.0
30
0.0
10
8872.0
20
-8816.0
30
0.0
10
8828.0
20
-8880.0
30
0.0
10
8793.0
20
-8932.0
30
0.0
10
8770.0
20
-8968.0
30
0.0
10
8762.0
20
-8981.0
30
0.0
10
8555.0
20
-8953.0
30
0.0
10
8502.0
20
-8906.0
30
0.0
10
8340.0
20
-8946.0
30
0.0
10
8337.0
20
-8944.0
30
0.0
10
8329.0
20
-8938.0
30
0.0
10
8316.0
20
-8929.0
30
0.0
10
8299.0
20
-8920.0
30
0.0
10
8280.0
20
-8910.0
30
0.0
10
8259.0
20
-8901.0
30
0.0
10
8237.0
20
-8894.0
30
0.0
10
8207.0
20
-8891.0
30
0.0
10
8177.0
20
-8892.0
30
0.0
10
8147.0
20
-8899.0
30
0.0
10
8117.0
20
-8908.0
30
0.0
10
8087.0
20
-8920.0
30
0.0
10
8057.0
20
-8933.0
30
0.0
10
8026.0
20
-8946.0
30
0.0
10
7997.0
20
-8957.0
30
0.0
10
7968.0
20
-8967.0
30
0.0
10
7939.0
20
-8975.0
30
0.0
10
7911.0
20
-8981.0
30
0.0
10
7885.0
20
-8983.0
30
0.0
10
7861.0
20
-8982.0
30
0.0
10
7840.0
20
-8976.0
30
0.0
10
7823.0
20
-8967.0
30
0.0
10
7808.0
20
-8956.0
30
0.0
10
7793.0
20
-8943.0
30
0.0
10
7777.0
20
-8930.0
30
0.0
10
7760.0
20
-8918.0
30
0.0
10
7739.0
20
-8908.0
30
0.0
10
7715.0
20
-8902.0
30
0.0
10
7679.0
20
-8900.0
30
0.0
10
7640.0
20
-8902.0
30
0.0
10
7601.0
20
-8908.0
30
0.0
10
7564.0
20
-8916.0
30
0.0
10
7533.0
20
-8923.0
30
0.0
10
7513.0
20
-8929.0
30
0.0
10
7505.0
20
-8931.0
30
0.0
10
7419.0
20
-8846.0
30
0.0
10
7416.0
20
-8839.0
30
0.0
10
7408.0
20
-8821.0
30
0.0
10
7396.0
20
-8794.0
30
0.0
10
7380.0
20
-8761.0
30
0.0
10
7361.0
20
-8723.0
30
0.0
10
7340.0
20
-8685.0
30
0.0
10
7318.0
20
-8648.0
30
0.0
10
7290.0
20
-8608.0
30
0.0
10
7261.0
20
-8573.0
30
0.0
10
7230.0
20
-8541.0
30
0.0
10
7198.0
20
-8512.0
30
0.0
10
7164.0
20
-8485.0
30
0.0
10
7128.0
20
-8458.0
30
0.0
10
7089.0
20
-8431.0
30
0.0
10
7043.0
20
-8399.0
30
0.0
10
6994.0
20
-8365.0
30
0.0
10
6944.0
20
-8332.0
30
0.0
10
6892.0
20
-8298.0
30
0.0
10
6840.0
20
-8264.0
30
0.0
10
6789.0
20
-8232.0
30
0.0
10
6739.0
20
-8202.0
30
0.0
10
6696.0
20
-8177.0
30
0.0
10
6654.0
20
-8154.0
30
0.0
10
6613.0
20
-8132.0
30
0.0
10
6572.0
20
-8113.0
30
0.0
10
6530.0
20
-8096.0
30
0.0
10
6487.0
20
-8080.0
30
0.0
10
6443.0
20
-8068.0
30
0.0
10
6395.0
20
-8056.0
30
0.0
10
6346.0
20
-8047.0
30
0.0
10
6295.0
20
-8038.0
30
0.0
10
6243.0
20
-8030.0
30
0.0
10
6191.0
20
-8021.0
30
0.0
10
6139.0
20
-8011.0
30
0.0
10
6088.0
20
-7999.0
30
0.0
10
6037.0
20
-7984.0
30
0.0
10
5988.0
20
-7967.0
30
0.0
10
5939.0
20
-7948.0
30
0.0
10
5891.0
20
-7930.0
30
0.0
10
5844.0
20
-7911.0
30
0.0
10
5798.0
20
-7895.0
30
0.0
10
5753.0
20
-7880.0
30
0.0
10
5716.0
20
-7871.0
30
0.0
10
5680.0
20
-7862.0
30
0.0
10
5644.0
20
-7855.0
30
0.0
10
5610.0
20
-7849.0
30
0.0
10
5575.0
20
-7842.0
30
0.0
10
5542.0
20
-7835.0
30
0.0
10
5509.0
20
-7827.0
30
0.0
10
5481.0
20
-7818.0
30
0.0
10
5454.0
20
-7809.0
30
0.0
10
5427.0
20
-7801.0
30
0.0
10
5401.0
20
-7794.0
30
0.0
10
5376.0
20
-7789.0
30
0.0
10
5351.0
20
-7787.0
30
0.0
10
5326.0
20
-7789.0
30
0.0
10
5303.0
20
-7796.0
30
0.0
10
5280.0
20
-7807.0
30
0.0
10
5258.0
20
-7820.0
30
0.0
10
5235.0
20
-7835.0
30
0.0
10
5213.0
20
-7851.0
30
0.0
10
5191.0
20
-7866.0
30
0.0
10
5169.0
20
-7880.0
30
0.0
10
5144.0
20
-7893.0
30
0.0
10
5118.0
20
-7903.0
30
0.0
10
5091.0
20
-7913.0
30
0.0
10
5063.0
20
-7921.0
30
0.0
10
5032.0
20
-7930.0
30
0.0
10
4999.0
20
-7940.0
30
0.0
10
4962.0
20
-7952.0
30
0.0
10
4922.0
20
-7966.0
30
0.0
10
4881.0
20
-7981.0
30
0.0
10
4842.0
20
-7997.0
30
0.0
10
4807.0
20
-8011.0
30
0.0
10
4778.0
20
-8023.0
30
0.0
10
4759.0
20
-8031.0
30
0.0
10
4753.0
20
-8034.0
30
0.0
10
4747.0
20
-8032.0
30
0.0
10
4733.0
20
-8027.0
30
0.0
10
4712.0
20
-8019.0
30
0.0
10
4685.0
20
-8011.0
30
0.0
10
4654.0
20
-8003.0
30
0.0
10
4622.0
20
-7997.0
30
0.0
10
4589.0
20
-7992.0
30
0.0
10
4552.0
20
-7991.0
30
0.0
10
4516.0
20
-7993.0
30
0.0
10
4483.0
20
-7999.0
30
0.0
10
4451.0
20
-8008.0
30
0.0
10
4421.0
20
-8019.0
30
0.0
10
4392.0
20
-8031.0
30
0.0
10
4365.0
20
-8045.0
30
0.0
10
4341.0
20
-8057.0
30
0.0
10
4319.0
20
-8070.0
30
0.0
10
4298.0
20
-8083.0
30
0.0
10
4277.0
20
-8098.0
30
0.0
10
4258.0
20
-8114.0
30
0.0
10
4239.0
20
-8132.0
30
0.0
10
4222.0
20
-8152.0
30
0.0
10
4205.0
20
-8177.0
30
0.0
10
4188.0
20
-8203.0
30
0.0
10
4172.0
20
-8230.0
30
0.0
10
4156.0
20
-8258.0
30
0.0
10
4140.0
20
-8285.0
30
0.0
10
4123.0
20
-8311.0
30
0.0
10
4105.0
20
-8334.0
30
0.0
10
4089.0
20
-8351.0
30
0.0
10
4073.0
20
-8367.0
30
0.0
10
4057.0
20
-8381.0
30
0.0
10
4041.0
20
-8395.0
30
0.0
10
4026.0
20
-8408.0
30
0.0
10
4012.0
20
-8422.0
30
0.0
10
4000.0
20
-8436.0
30
0.0
10
3990.0
20
-8453.0
30
0.0
10
3981.0
20
-8472.0
30
0.0
10
3973.0
20
-8492.0
30
0.0
10
3964.0
20
-8514.0
30
0.0
10
3955.0
20
-8537.0
30
0.0
10
3942.0
20
-8563.0
30
0.0
10
3927.0
20
-8591.0
30
0.0
10
3904.0
20
-8625.0
30
0.0
10
3878.0
20
-8659.0
30
0.0
10
3850.0
20
-8692.0
30
0.0
10
3825.0
20
-8722.0
30
0.0
10
3803.0
20
-8746.0
30
0.0
10
3789.0
20
-8762.0
30
0.0
10
3783.0
20
-8767.0
30
0.0
10
3782.0
20
-8765.0
30
0.0
10
3779.0
20
-8758.0
30
0.0
10
3775.0
20
-8749.0
30
0.0
10
3768.0
20
-8739.0
30
0.0
10
3760.0
20
-8729.0
30
0.0
10
3750.0
20
-8720.0
30
0.0
10
3738.0
20
-8715.0
30
0.0
10
3724.0
20
-8715.0
30
0.0
10
3708.0
20
-8719.0
30
0.0
10
3693.0
20
-8725.0
30
0.0
10
3680.0
20
-8733.0
30
0.0
10
3669.0
20
-8741.0
30
0.0
10
3661.0
20
-8747.0
30
0.0
10
3658.0
20
-8749.0
30
0.0
10
3657.0
20
-8744.0
30
0.0
10
3654.0
20
-8732.0
30
0.0
10
3648.0
20
-8715.0
30
0.0
10
3641.0
20
-8695.0
30
0.0
10
3632.0
20
-8673.0
30
0.0
10
3622.0
20
-8652.0
30
0.0
10
3611.0
20
-8635.0
30
0.0
10
3599.0
20
-8623.0
30
0.0
10
3585.0
20
-8615.0
30
0.0
10
3569.0
20
-8610.0
30
0.0
10
3552.0
20
-8608.0
30
0.0
10
3532.0
20
-8606.0
30
0.0
10
3511.0
20
-8605.0
30
0.0
10
3486.0
20
-8603.0
30
0.0
10
3453.0
20
-8598.0
30
0.0
10
3417.0
20
-8591.0
30
0.0
10
3383.0
20
-8583.0
30
0.0
10
3351.0
20
-8574.0
30
0.0
10
3326.0
20
-8567.0
30
0.0
10
3309.0
20
-8562.0
30
0.0
10
3302.0
20
-8560.0
30
0.0
10
3301.0
20
-8556.0
30
0.0
10
3298.0
20
-8546.0
30
0.0
10
3292.0
20
-8531.0
30
0.0
10
3284.0
20
-8512.0
30
0.0
10
3273.0
20
-8490.0
30
0.0
10
3258.0
20
-8467.0
30
0.0
10
3241.0
20
-8444.0
30
0.0
10
3217.0
20
-8418.0
30
0.0
10
3191.0
20
-8394.0
30
0.0
10
3165.0
20
-8373.0
30
0.0
10
3141.0
20
-8356.0
30
0.0
10
3121.0
20
-8343.0
30
0.0
10
3107.0
20
-8334.0
30
0.0
10
3102.0
20
-8331.0
30
0.0
10
3106.0
20
-8329.0
30
0.0
10
3117.0
20
-8324.0
30
0.0
10
3132.0
20
-8316.0
30
0.0
10
3151.0
20
-8305.0
30
0.0
10
3171.0
20
-8292.0
30
0.0
10
3190.0
20
-8279.0
30
0.0
10
3208.0
20
-8264.0
30
0.0
10
3218.0
20
-8254.0
30
0.0
10
3226.0
20
-8244.0
30
0.0
10
3233.0
20
-8235.0
30
0.0
10
3238.0
20
-8228.0
30
0.0
10
3242.0
20
-8222.0
30
0.0
10
3244.0
20
-8218.0
30
0.0
10
3245.0
20
-8216.0
30
0.0
10
3114.0
20
-8234.0
30
0.0
10
3111.0
20
-8238.0
30
0.0
10
3102.0
20
-8248.0
30
0.0
10
3087.0
20
-8263.0
30
0.0
10
3070.0
20
-8281.0
30
0.0
10
3049.0
20
-8301.0
30
0.0
10
3028.0
20
-8322.0
30
0.0
10
3006.0
20
-8341.0
30
0.0
10
2985.0
20
-8359.0
30
0.0
10
2964.0
20
-8375.0
30
0.0
10
2944.0
20
-8389.0
30
0.0
10
2925.0
20
-8402.0
30
0.0
10
2906.0
20
-8414.0
30
0.0
10
2887.0
20
-8427.0
30
0.0
10
2869.0
20
-8440.0
30
0.0
10
2850.0
20
-8456.0
30
0.0
10
2831.0
20
-8472.0
30
0.0
10
2811.0
20
-8490.0
30
0.0
10
2792.0
20
-8508.0
30
0.0
10
2773.0
20
-8526.0
30
0.0
10
2754.0
20
-8544.0
30
0.0
10
2736.0
20
-8562.0
30
0.0
10
2718.0
20
-8578.0
30
0.0
10
2702.0
20
-8594.0
30
0.0
10
2685.0
20
-8609.0
30
0.0
10
2669.0
20
-8625.0
30
0.0
10
2653.0
20
-8642.0
30
0.0
10
2638.0
20
-8659.0
30
0.0
10
2624.0
20
-8677.0
30
0.0
10
2614.0
20
-8691.0
30
0.0
10
2604.0
20
-8705.0
30
0.0
10
2596.0
20
-8718.0
30
0.0
10
2589.0
20
-8730.0
30
0.0
10
2583.0
20
-8739.0
30
0.0
10
2580.0
20
-8745.0
30
0.0
10
2578.0
20
-8748.0
30
0.0
10
2574.0
20
-8746.0
30
0.0
10
2561.0
20
-8741.0
30
0.0
10
2541.0
20
-8734.0
30
0.0
10
2515.0
20
-8726.0
30
0.0
10
2486.0
20
-8719.0
30
0.0
10
2455.0
20
-8714.0
30
0.0
10
2422.0
20
-8712.0
30
0.0
10
2392.0
20
-8713.0
30
0.0
10
2363.0
20
-8717.0
30
0.0
10
2338.0
20
-8723.0
30
0.0
10
2316.0
20
-8729.0
30
0.0
10
2298.0
20
-8734.0
30
0.0
10
2287.0
20
-8738.0
30
0.0
10
2283.0
20
-8740.0
30
0.0
10
2282.0
20
-8740.0
30
0.0
10
2280.0
20
-8739.0
30
0.0
10
2275.0
20
-8737.0
30
0.0
10
2268.0
20
-8734.0
30
0.0
10
2260.0
20
-8729.0
30
0.0
10
2250.0
20
-8723.0
30
0.0
10
2238.0
20
-8714.0
30
0.0
10
2200.0
20
-8679.0
30
0.0
10
2154.0
20
-8633.0
30
0.0
10
2106.0
20
-8582.0
30
0.0
10
2060.0
20
-8531.0
30
0.0
10
2022.0
20
-8486.0
30
0.0
10
1995.0
20
-8455.0
30
0.0
10
1986.0
20
-8444.0
30
0.0
10
1989.0
20
-8431.0
30
0.0
10
1999.0
20
-8398.0
30
0.0
10
2014.0
20
-8349.0
30
0.0
10
2032.0
20
-8292.0
30
0.0
10
2053.0
20
-8233.0
30
0.0
10
2074.0
20
-8176.0
30
0.0
10
2095.0
20
-8130.0
30
0.0
10
2107.0
20
-8108.0
30
0.0
10
2118.0
20
-8091.0
30
0.0
10
2129.0
20
-8077.0
30
0.0
10
2138.0
20
-8066.0
30
0.0
10
2147.0
20
-8054.0
30
0.0
10
2155.0
20
-8042.0
30
0.0
10
2163.0
20
-8028.0
30
0.0
10
2171.0
20
-8006.0
30
0.0
10
2178.0
20
-7980.0
30
0.0
10
2184.0
20
-7950.0
30
0.0
10
2189.0
20
-7919.0
30
0.0
10
2194.0
20
-7887.0
30
0.0
10
2198.0
20
-7855.0
30
0.0
10
2202.0
20
-7826.0
30
0.0
10
2205.0
20
-7803.0
30
0.0
10
2208.0
20
-7781.0
30
0.0
10
2209.0
20
-7761.0
30
0.0
10
2210.0
20
-7740.0
30
0.0
10
2208.0
20
-7719.0
30
0.0
10
2205.0
20
-7697.0
30
0.0
10
2198.0
20
-7674.0
30
0.0
10
2190.0
20
-7649.0
30
0.0
10
2179.0
20
-7624.0
30
0.0
10
2168.0
20
-7600.0
30
0.0
10
2157.0
20
-7578.0
30
0.0
10
2148.0
20
-7560.0
30
0.0
10
2142.0
20
-7549.0
30
0.0
10
2140.0
20
-7545.0
30
0.0
10
2239.0
20
-7486.0
30
0.0
10
2238.0
20
-7484.0
30
0.0
10
2236.0
20
-7479.0
30
0.0
10
2232.0
20
-7472.0
30
0.0
10
2227.0
20
-7464.0
30
0.0
10
2220.0
20
-7456.0
30
0.0
10
2212.0
20
-7448.0
30
0.0
10
2203.0
20
-7441.0
30
0.0
10
2193.0
20
-7437.0
30
0.0
10
2184.0
20
-7435.0
30
0.0
10
2174.0
20
-7434.0
30
0.0
10
2165.0
20
-7433.0
30
0.0
10
2158.0
20
-7434.0
30
0.0
10
2154.0
20
-7434.0
30
0.0
10
2152.0
20
-7435.0
30
0.0
10
2151.0
20
-7427.0
30
0.0
10
2147.0
20
-7407.0
30
0.0
10
2139.0
20
-7377.0
30
0.0
10
2129.0
20
-7340.0
30
0.0
10
2116.0
20
-7298.0
30
0.0
10
2100.0
20
-7255.0
30
0.0
10
2081.0
20
-7213.0
30
0.0
10
2053.0
20
-7164.0
30
0.0
10
2021.0
20
-7121.0
30
0.0
10
1986.0
20
-7081.0
30
0.0
10
1950.0
20
-7043.0
30
0.0
10
1914.0
20
-7006.0
30
0.0
10
1878.0
20
-6968.0
30
0.0
10
1845.0
20
-6928.0
30
0.0
10
1816.0
20
-6888.0
30
0.0
10
1790.0
20
-6846.0
30
0.0
10
1766.0
20
-6803.0
30
0.0
10
1745.0
20
-6760.0
30
0.0
10
1726.0
20
-6719.0
30
0.0
10
1710.0
20
-6679.0
30
0.0
10
1695.0
20
-6642.0
30
0.0
10
1685.0
20
-6616.0
30
0.0
10
1675.0
20
-6592.0
30
0.0
10
1665.0
20
-6569.0
30
0.0
10
1655.0
20
-6546.0
30
0.0
10
1643.0
20
-6522.0
30
0.0
10
1629.0
20
-6497.0
30
0.0
10
1613.0
20
-6470.0
30
0.0
10
1595.0
20
-6441.0
30
0.0
10
1575.0
20
-6412.0
30
0.0
10
1555.0
20
-6383.0
30
0.0
10
1536.0
20
-6357.0
30
0.0
10
1522.0
20
-6337.0
30
0.0
10
1511.0
20
-6323.0
30
0.0
10
1508.0
20
-6318.0
30
0.0
10
1510.0
20
-6314.0
30
0.0
10
1514.0
20
-6303.0
30
0.0
10
1520.0
20
-6287.0
30
0.0
10
1527.0
20
-6267.0
30
0.0
10
1532.0
20
-6245.0
30
0.0
10
1536.0
20
-6221.0
30
0.0
10
1536.0
20
-6198.0
30
0.0
10
1530.0
20
-6171.0
30
0.0
10
1518.0
20
-6147.0
30
0.0
10
1502.0
20
-6126.0
30
0.0
10
1482.0
20
-6107.0
30
0.0
10
1460.0
20
-6089.0
30
0.0
10
1437.0
20
-6074.0
30
0.0
10
1415.0
20
-6060.0
30
0.0
10
1394.0
20
-6047.0
30
0.0
10
1373.0
20
-6036.0
30
0.0
10
1352.0
20
-6026.0
30
0.0
10
1330.0
20
-6017.0
30
0.0
10
1306.0
20
-6008.0
30
0.0
10
1278.0
20
-6000.0
30
0.0
10
1246.0
20
-5992.0
30
0.0
10
1204.0
20
-5984.0
30
0.0
10
1159.0
20
-5975.0
30
0.0
10
1114.0
20
-5968.0
30
0.0
10
1073.0
20
-5962.0
30
0.0
10
1040.0
20
-5957.0
30
0.0
10
1017.0
20
-5953.0
30
0.0
10
1008.0
20
-5952.0
30
0.0
10
1005.0
20
-5948.0
30
0.0
10
997.0
20
-5937.0
30
0.0
10
984.0
20
-5920.0
30
0.0
10
968.0
20
-5900.0
30
0.0
10
949.0
20
-5879.0
30
0.0
10
928.0
20
-5858.0
30
0.0
10
906.0
20
-5840.0
30
0.0
10
882.0
20
-5825.0
30
0.0
10
858.0
20
-5814.0
30
0.0
10
833.0
20
-5806.0
30
0.0
10
809.0
20
-5801.0
30
0.0
10
785.0
20
-5797.0
30
0.0
10
761.0
20
-5793.0
30
0.0
10
737.0
20
-5788.0
30
0.0
10
716.0
20
-5782.0
30
0.0
10
695.0
20
-5774.0
30
0.0
10
674.0
20
-5766.0
30
0.0
10
654.0
20
-5758.0
30
0.0
10
634.0
20
-5750.0
30
0.0
10
615.0
20
-5742.0
30
0.0
10
596.0
20
-5735.0
30
0.0
10
579.0
20
-5730.0
30
0.0
10
563.0
20
-5727.0
30
0.0
10
545.0
20
-5725.0
30
0.0
10
528.0
20
-5725.0
30
0.0
10
509.0
20
-5727.0
30
0.0
10
489.0
20
-5731.0
30
0.0
10
466.0
20
-5737.0
30
0.0
10
440.0
20
-5747.0
30
0.0
10
414.0
20
-5758.0
30
0.0
10
388.0
20
-5769.0
30
0.0
10
365.0
20
-5780.0
30
0.0
10
346.0
20
-5789.0
30
0.0
10
333.0
20
-5795.0
30
0.0
10
329.0
20
-5798.0
30
0.0
10
329.0
20
-5796.0
30
0.0
10
328.0
20
-5790.0
30
0.0
10
327.0
20
-5780.0
30
0.0
10
325.0
20
-5769.0
30
0.0
10
322.0
20
-5756.0
30
0.0
10
317.0
20
-5742.0
30
0.0
10
311.0
20
-5728.0
30
0.0
10
298.0
20
-5708.0
30
0.0
10
282.0
20
-5690.0
30
0.0
10
265.0
20
-5672.0
30
0.0
10
246.0
20
-5656.0
30
0.0
10
229.0
20
-5639.0
30
0.0
10
213.0
20
-5623.0
30
0.0
10
200.0
20
-5606.0
30
0.0
10
192.0
20
-5590.0
30
0.0
10
187.0
20
-5574.0
30
0.0
10
184.0
20
-5557.0
30
0.0
10
182.0
20
-5539.0
30
0.0
10
181.0
20
-5520.0
30
0.0
10
181.0
20
-5501.0
30
0.0
10
179.0
20
-5480.0
30
0.0
10
176.0
20
-5449.0
30
0.0
10
170.0
20
-5417.0
30
0.0
10
163.0
20
-5382.0
30
0.0
10
153.0
20
-5346.0
30
0.0
10
142.0
20
-5308.0
30
0.0
10
130.0
20
-5268.0
30
0.0
10
115.0
20
-5227.0
30
0.0
10
102.0
20
-5190.0
30
0.0
10
89.0
20
-5155.0
30
0.0
10
77.0
20
-5121.0
30
0.0
10
65.0
20
-5092.0
30
0.0
10
56.0
20
-5069.0
30
0.0
10
50.0
20
-5054.0
30
0.0
10
48.0
20
-5049.0
30
0.0
10
51.0
20
-5042.0
30
0.0
10
58.0
20
-5025.0
30
0.0
10
67.0
20
-4998.0
30
0.0
10
78.0
20
-4966.0
30
0.0
10
89.0
20
-4929.0
30
0.0
10
99.0
20
-4891.0
30
0.0
10
105.0
20
-4854.0
30
0.0
10
108.0
20
-4820.0
30
0.0
10
107.0
20
-4788.0
30
0.0
10
103.0
20
-4758.0
30
0.0
10
97.0
20
-4729.0
30
0.0
10
89.0
20
-4700.0
30
0.0
10
82.0
20
-4671.0
30
0.0
10
74.0
20
-4640.0
30
0.0
10
66.0
20
-4602.0
30
0.0
10
60.0
20
-4561.0
30
0.0
10
55.0
20
-4519.0
30
0.0
10
51.0
20
-4476.0
30
0.0
10
48.0
20
-4434.0
30
0.0
10
46.0
20
-4393.0
30
0.0
10
44.0
20
-4354.0
30
0.0
10
43.0
20
-4325.0
30
0.0
10
42.0
20
-4297.0
30
0.0
10
41.0
20
-4270.0
30
0.0
10
39.0
20
-4244.0
30
0.0
10
37.0
20
-4217.0
30
0.0
10
33.0
20
-4190.0
30
0.0
10
29.0
20
-4161.0
30
0.0
10
24.0
20
-4137.0
30
0.0
10
19.0
20
-4113.0
30
0.0
10
13.0
20
-4091.0
30
0.0
10
8.0
20
-4071.0
30
0.0
10
4.0
20
-4056.0
30
0.0
10
1.0
20
-4045.0
30
0.0
10
0.0
20
-4042.0
30
0.0
10
3.0
20
-4039.0
30
0.0
10
11.0
20
-4033.0
30
0.0
10
24.0
20
-4024.0
30
0.0
10
38.0
20
-4011.0
30
0.0
10
54.0
20
-3997.0
30
0.0
10
70.0
20
-3982.0
30
0.0
10
85.0
20
-3966.0
30
0.0
10
99.0
20
-3948.0
30
0.0
10
110.0
20
-3929.0
30
0.0
10
118.0
20
-3910.0
30
0.0
10
123.0
20
-3890.0
30
0.0
10
127.0
20
-3869.0
30
0.0
10
130.0
20
-3845.0
30
0.0
10
132.0
20
-3820.0
30
0.0
10
134.0
20
-3775.0
30
0.0
10
135.0
20
-3726.0
30
0.0
10
135.0
20
-3672.0
30
0.0
10
135.0
20
-3616.0
30
0.0
10
135.0
20
-3559.0
30
0.0
10
134.0
20
-3501.0
30
0.0
10
133.0
20
-3445.0
30
0.0
10
132.0
20
-3397.0
30
0.0
10
131.0
20
-3351.0
30
0.0
10
131.0
20
-3307.0
30
0.0
10
133.0
20
-3265.0
30
0.0
10
138.0
20
-3226.0
30
0.0
10
145.0
20
-3190.0
30
0.0
10
156.0
20
-3156.0
30
0.0
10
164.0
20
-3138.0
30
0.0
10
172.0
20
-3123.0
30
0.0
10
180.0
20
-3108.0
30
0.0
10
188.0
20
-3097.0
30
0.0
10
194.0
20
-3088.0
30
0.0
10
198.0
20
-3082.0
30
0.0
10
200.0
20
-3080.0
30
0.0
10
202.0
20
-3077.0
30
0.0
10
209.0
20
-3069.0
30
0.0
10
219.0
20
-3057.0
30
0.0
10
232.0
20
-3042.0
30
0.0
10
247.0
20
-3025.0
30
0.0
10
263.0
20
-3007.0
30
0.0
10
280.0
20
-2988.0
30
0.0
10
295.0
20
-2972.0
30
0.0
10
309.0
20
-2957.0
30
0.0
10
323.0
20
-2943.0
30
0.0
10
334.0
20
-2932.0
30
0.0
10
343.0
20
-2923.0
30
0.0
10
348.0
20
-2918.0
30
0.0
10
350.0
20
-2916.0
30
0.0
10
356.0
20
-2917.0
30
0.0
6
Solid
370
35
62
0
0
LWPOLYLINE
5
f4c
100
AcDbEntity
100
AcDbPolyline
90
5
70
1
10
3364.0
20
-7140.0
30
0.0
10
3304.0
20
-7170.0
30
0.0
10
3276.0
20
-7102.0
30
0.0
10
3311.0
20
-7078.0
30
0.0
10
3364.0
20
-7140.0
30
0.0
6
Solid
370
35
62
0
0
LWPOLYLINE
5
f4e
100
AcDbEntity
100
AcDbPolyline
90
7
70
1
10
3619.0
20
-7108.0
30
0.0
10
3665.0
20
-7166.0
30
0.0
10
3636.0
20
-7214.0
30
0.0
10
3554.0
20
-7236.0
30
0.0
10
3517.0
20
-7184.0
30
0.0
10
3551.0
20
-7120.0
30
0.0
10
3619.0
20
-7108.0
30
0.0
6
Solid
370
35
62
0
0
LWPOLYLINE
5
f50
100
AcDbEntity
100
AcDbPolyline
90
5
70
1
10
7555.0
20
-4390.0
30
0.0
10
7547.0
20
-4460.0
30
0.0
10
7463.0
20
-4450.0
30
0.0
10
7483.0
20
-4391.0
30
0.0
10
7555.0
20
-4390.0
30
0.0
6
Solid
370
35
62
0
0
LWPOLYLINE
5
f52
100
AcDbEntity
100
AcDbPolyline
90
5
70
1
10
7564.0
20
-3663.0
30
0.0
10
7566.0
20
-3747.0
30
0.0
10
7477.0
20
-3755.0
30
0.0
10
7474.0
20
-3669.0
30
0.0
10
7564.0
20
-3663.0
30
0.0
6
Solid
370
35
62
0
0
LWPOLYLINE
5
f54
100
AcDbEntity
100
AcDbPolyline
90
6
70
1
10
9497.0
20
-1539.0
30
0.0
10
9405.0
20
-1656.0
30
0.0
10
9361.0
20
-1606.0
30
0.0
10
9373.0
20
-1554.0
30
0.0
10
9443.0
20
-1510.0
30
0.0
10
9497.0
20
-1539.0
30
0.0
6
Solid
370
35
62
0
0
LWPOLYLINE
5
f56
100
AcDbEntity
100
AcDbPolyline
90
5
70
1
10
9090.0
20
-1478.0
30
0.0
10
9071.0
20
-1539.0
30
0.0
10
8992.0
20
-1508.0
30
0.0
10
9014.0
20
-1467.0
30
0.0
10
9090.0
20
-1478.0
30
0.0
6
Solid
370
35
62
0
0
LWPOLYLINE
5
f58
100
AcDbEntity
100
AcDbPolyline
90
5
70
1
10
8855.0
20
-1122.0
30
0.0
10
8850.0
20
-1200.0
30
0.0
10
8786.0
20
-1184.0
30
0.0
10
8773.0
20
-1127.0
30
0.0
10
8855.0
20
-1122.0
30
0.0
6
Solid
370
35
62
0
0
LWPOLYLINE
5
f5a
100
AcDbEntity
100
AcDbPolyline
90
5
70
1
10
8663.0
20
-810.0
30
0.0
10
8681.0
20
-870.0
30
0.0
10
8590.0
20
-877.0
30
0.0
10
8602.0
20
-807.0
30
0.0
10
8663.0
20
-810.0
30
0.0
6
Solid
370
35
62
0
0
LWPOLYLINE
5
f5c
100
AcDbEntity
100
AcDbPolyline
90
4
70
1
10
2624.0
20
-4968.0
30
0.0
10
2515.0
20
-5032.0
30
0.0
10
2526.0
20
-4964.0
30
0.0
10
2624.0
20
-4968.0
30
0.0
6
Solid
370
35
62
0
0
LWPOLYLINE
5
f5e
100
AcDbEntity
100
AcDbPolyline
90
5
70
1
10
451.0
20
-3203.0
30
0.0
10
407.0
20
-3256.0
30
0.0
10
356.0
20
-3160.0
30
0.0
10
409.0
20
-3153.0
30
0.0
10
451.0
20
-3203.0
30
0.0
6
Solid
370
35
62
0
0
LWPOLYLINE
5
f60
100
AcDbEntity
100
AcDbPolyline
90
5
70
1
10
3799.0
20
-1878.0
30
0.0
10
3766.0
20
-1939.0
30
0.0
10
3701.0
20
-1924.0
30
0.0
10
3727.0
20
-1865.0
30
0.0
10
3799.0
20
-1878.0
30
0.0
6
Solid
370
35
62
0
0
LWPOLYLINE
5
f62
100
AcDbEntity
100
AcDbPolyline
90
4
70
1
10
3539.0
20
-1555.0
30
0.0
10
3527.0
20
-1621.0
30
0.0
10
3472.0
20
-1553.0
30
0.0
10
3539.0
20
-1555.0
30
0.0
6
Solid
370
35
62
0
0
LWPOLYLINE
5
f64
100
AcDbEntity
100
AcDbPolyline
90
5
70
1
10
3396.0
20
-1366.0
30
0.0
10
3314.0
20
-1334.0
30
0.0
10
3326.0
20
-1278.0
30
0.0
10
3414.0
20
-1293.0
30
0.0
10
3396.0
20
-1366.0
30
0.0
6
Solid
370
35
62
0
0
LWPOLYLINE
5
f67
100
AcDbEntity
8
zone_0_q3
100
AcDbPolyline
90
5
70
1
10
7794.0
20
-8785.0
30
0.0
10
7794.0
20
-7767.0
30
0.0
10
8560.0
20
-7879.0
30
0.0
10
8658.0
20
-8840.0
30
0.0
10
7794.0
20
-8785.0
30
0.0
6
Solid
370
35
62
3
0
LWPOLYLINE
5
f6a
100
AcDbEntity
8
zone_1_q2
100
AcDbPolyline
90
6
70
1
10
8413.0
20
-7271.0
30
0.0
10
8440.0
20
-7394.0
30
0.0
10
8353.0
20
-7463.0
30
0.0
10
8284.0
20
-7340.0
30
0.0
10
8324.0
20
-7293.0
30
0.0
10
8413.0
20
-7271.0
30
0.0
6
Solid
370
35
62
2
0
LWPOLYLINE
5
f6d
100
AcDbEntity
8
zone_2_q2
100
AcDbPolyline
90
6
70
1
10
8580.0
20
-6791.0
30
0.0
10
8603.0
20
-6872.0
30
0.0
10
8537.0
20
-6922.0
30
0.0
10
8468.0
20
-6860.0
30
0.0
10
8520.0
20
-6763.0
30
0.0
10
8580.0
20
-6791.0
30
0.0
6
Solid
370
35
62
2
0
LWPOLYLINE
5
f70
100
AcDbEntity
8
zone_3_q3
100
AcDbPolyline
90
5
70
1
10
4071.0
20
-7630.0
30
0.0
10
3934.0
20
-8384.0
30
0.0
10
3365.0
20
-8570.0
30
0.0
10
3186.0
20
-7644.0
30
0.0
10
4071.0
20
-7630.0
30
0.0
6
Solid
370
35
62
3
0
ENDSEC
0
SECTION
2
OBJECTS
0
DICTIONARY
5
f48
330
0
100
AcDbDictionary
281
1
3
ACAD_GROUP
350
f49
0
DICTIONARY
5
f49
330
f48
100
AcDbDictionary
281
1
0
ENDSEC
0
EOF
