999

0
SECTION
2
HEADER
9
$ACADVER
1
AC1021
9
$HANDSEED
5
fb8
0
ENDSEC
0
SECTION
2
CLASSES
0
ENDSEC
0
SECTION
2
TABLES
0
TABLE
2
VPORT
5
f73
100
AcDbSymbolTable
70
1
0
VPORT
5
f72
100
AcDbSymbolTableRecord
100
AcDbViewportTableRecord
2
*ACTIVE
10
0
20
0
11
1
21
1
12
500.0
22
500.0
40
1000.0
70
0
0
ENDTAB
0
TABLE
2
LTYPE
5
f74
100
AcDbSymbolTable
70
3
0
LTYPE
5
f7c
100
AcDbSymbolTableRecord
100
AcDbLinetypeTableRecord
2
Solid
70
0
72
65
73
0
3

0
LTYPE
5
f7d
100
AcDbSymbolTableRecord
100
AcDbLinetypeTableRecord
2
ByBlock
70
0
72
65
73
0
3

0
LTYPE
5
f7e
100
AcDbSymbolTableRecord
100
AcDbLinetypeTableRecord
2
ByLayer
70
0
72
65
73
0
3

0
ENDTAB
0
TABLE
2
LAYER
5
f75
100
AcDbSymbolTable
70
8
0
LAYER
5
f7f
100
AcDbSymbolTableRecord
100
AcDbLayerTableRecord
2
0
70
0
390
0
0
LAYER
5
fa3
100
AcDbSymbolTableRecord
100
AcDbLayerTableRecord
2
zone_0_q2
70
0
390
0
0
LAYER
5
fa6
100
AcDbSymbolTableRecord
100
AcDbLayerTableRecord
2
zone_1_q2
70
0
390
0
0
LAYER
5
fa9
100
AcDbSymbolTableRecord
100
AcDbLayerTableRecord
2
zone_2_q3
70
0
390
0
0
LAYER
5
fac
100
AcDbSymbolTableRecord
100
AcDbLayerTableRecord
2
zone_3_q3
70
0
390
0
0
LAYER
5
faf
100
AcDbSymbolTableRecord
100
AcDbLayerTableRecord
2
zone_4_q3
70
0
390
0
0
LAYER
5
fb2
100
AcDbSymbolTableRecord
100
AcDbLayerTableRecord
2
zone_5_q3
70
0
390
0
0
LAYER
5
fb5
100
AcDbSymbolTableRecord
100
AcDbLayerTableRecord
2
zone_6_q3
70
0
390
0
0
ENDTAB
0
TABLE
2
STYLE
5
f76
100
AcDbSymbolTable
70
0
0
ENDTAB
0
TABLE
2
VIEW
5
f77
100
AcDbSymbolTable
70
0
0
ENDTAB
0
TABLE
2
UCS
5
f78
100
AcDbSymbolTable
70
0
0
ENDTAB
0
TABLE
2
APPID
5
f79
100
AcDbSymbolTable
70
1
0
APPID
5
f80
100
AcDbSymbolTableRecord
100
AcDbRegAppTableRecord
2
ACAD
70
0
0
ENDTAB
0
TABLE
2
DIMSTYLE
5
f7a
100
AcDbSymbolTable
70
0
100
AcDbDimStyleTable
71
1
0
ENDTAB
0
TABLE
2
BLOCK_RECORD
5
f7b
100
AcDbSymbolTable
70
2
0
BLOCK_RECORD
5
f81
100
AcDbSymbolTableRecord
100
AcDbBlockTableRecord
2
*Model_Space
70
0
280
1
281
0
0
BLOCK_RECORD
5
f82
100
AcDbSymbolTableRecord
100
AcDbBlockTableRecord
2
*Paper_Space
70
0
280
1
281
0
0
ENDTAB
0
ENDSEC
0
SECTION
2
BLOCKS
0
BLOCK
5
f83
100
AcDbEntity
100
AcDbBlockBegin
2
*Model_Space
70
0
10
0
20
0
30
0
3
*Model_Space
1

0
ENDBLK
5
f84
100
AcDbEntity
100
AcDbBlockEnd
0
BLOCK
5
f85
100
AcDbEntity
100
AcDbBlockBegin
2
*Paper_Space
70
0
10
0
20
0
30
0
3
*Paper_Space
1

0
ENDBLK
5
f86
100
AcDbEntity
100
AcDbBlockEnd
0
ENDSEC
0
SECTION
2
ENTITIES
0
LWPOLYLINE
5
f89
100
AcDbEntity
100
AcDbPolyline
90
1203
70
1
10
37.0
20
-4657.0
30
0.0
10
59.0
20
-4642.0
30
0.0
10
93.0
20
-4621.0
30
0.0
10
136.0
20
-4595.0
30
0.0
10
184.0
20
-4568.0
30
0.0
10
234.0
20
-4541.0
30
0.0
10
285.0
20
-4516.0
30
0.0
10
334.0
20
-4496.0
30
0.0
10
380.0
20
-4481.0
30
0.0
10
424.0
20
-4469.0
30
0.0
10
467.0
20
-4459.0
30
0.0
10
508.0
20
-4450.0
30
0.0
10
549.0
20
-4441.0
30
0.0
10
589.0
20
-4430.0
30
0.0
10
629.0
20
-4418.0
30
0.0
10
669.0
20
-4403.0
30
0.0
10
709.0
20
-4388.0
30
0.0
10
748.0
20
-4371.0
30
0.0
10
786.0
20
-4353.0
30
0.0
10
823.0
20
-4334.0
30
0.0
10
859.0
20
-4316.0
30
0.0
10
887.0
20
-4301.0
30
0.0
10
913.0
20
-4286.0
30
0.0
10
937.0
20
-4270.0
30
0.0
10
960.0
20
-4252.0
30
0.0
10
981.0
20
-4233.0
30
0.0
10
999.0
20
-4213.0
30
0.0
10
1014.0
20
-4189.0
30
0.0
10
1029.0
20
-4158.0
30
0.0
10
1042.0
20
-4124.0
30
0.0
10
1051.0
20
-4087.0
30
0.0
10
1059.0
20
-4048.0
30
0.0
10
1066.0
20
-4009.0
30
0.0
10
1073.0
20
-3968.0
30
0.0
10
1080.0
20
-3928.0
30
0.0
10
1087.0
20
-3893.0
30
0.0
10
1094.0
20
-3858.0
30
0.0
10
1100.0
20
-3825.0
30
0.0
10
1106.0
20
-3792.0
30
0.0
10
1110.0
20
-3762.0
30
0.0
10
1112.0
20
-3733.0
30
0.0
10
1111.0
20
-3706.0
30
0.0
10
1107.0
20
-3683.0
30
0.0
10
1102.0
20
-3661.0
30
0.0
10
1095.0
20
-3638.0
30
0.0
10
1088.0
20
-3615.0
30
0.0
10
1082.0
20
-3589.0
30
0.0
10
1077.0
20
-3560.0
30
0.0
10
1073.0
20
-3527.0
30
0.0
10
1073.0
20
-3484.0
30
0.0
10
1075.0
20
-3438.0
30
0.0
10
1080.0
20
-3392.0
30
0.0
10
1085.0
20
-3350.0
30
0.0
10
1090.0
20
-3316.0
30
0.0
10
1093.0
20
-3293.0
30
0.0
10
1095.0
20
-3284.0
30
0.0
10
1210.0
20
-3246.0
30
0.0
10
1314.0
20
-3238.0
30
0.0
10
1318.0
20
-3233.0
30
0.0
10
1330.0
20
-3221.0
30
0.0
10
1348.0
20
-3202.0
30
0.0
10
1369.0
20
-3180.0
30
0.0
10
1394.0
20
-3154.0
30
0.0
10
1420.0
20
-3128.0
30
0.0
10
1446.0
20
-3103.0
30
0.0
10
1470.0
20
-3080.0
30
0.0
10
1493.0
20
-3059.0
30
0.0
10
1513.0
20
-3039.0
30
0.0
10
1532.0
20
-3020.0
30
0.0
10
1547.0
20
-3001.0
30
0.0
10
1560.0
20
-2980.0
30
0.0
10
1570.0
20
-2959.0
30
0.0
10
1577.0
20
-2936.0
30
0.0
10
1581.0
20
-2912.0
30
0.0
10
1583.0
20
-2886.0
30
0.0
10
1583.0
20
-2860.0
30
0.0
10
1580.0
20
-2833.0
30
0.0
10
1576.0
20
-2807.0
30
0.0
10
1570.0
20
-2782.0
30
0.0
10
1563.0
20
-2759.0
30
0.0
10
1556.0
20
-2738.0
30
0.0
10
1548.0
20
-2717.0
30
0.0
10
1542.0
20
-2696.0
30
0.0
10
1536.0
20
-2676.0
30
0.0
10
1533.0
20
-2656.0
30
0.0
10
1532.0
20
-2636.0
30
0.0
10
1534.0
20
-2614.0
30
0.0
10
1539.0
20
-2593.0
30
0.0
10
1546.0
20
-2572.0
30
0.0
10
1555.0
20
-2550.0
30
0.0
10
1564.0
20
-2529.0
30
0.0
10
1574.0
20
-2509.0
30
0.0
10
1584.0
20
-2489.0
30
0.0
10
1593.0
20
-2472.0
30
0.0
10
1601.0
20
-2456.0
30
0.0
10
1609.0
20
-2440.0
30
0.0
10
1617.0
20
-2425.0
30
0.0
10
1625.0
20
-2411.0
30
0.0
10
1634.0
20
-2398.0
30
0.0
10
1643.0
20
-2386.0
30
0.0
10
1653.0
20
-2375.0
30
0.0
10
1662.0
20
-2365.0
30
0.0
10
1672.0
20
-2355.0
30
0.0
10
1682.0
20
-2345.0
30
0.0
10
1691.0
20
-2334.0
30
0.0
10
1700.0
20
-2323.0
30
0.0
10
1707.0
20
-2312.0
30
0.0
10
1716.0
20
-2292.0
30
0.0
10
1723.0
20
-2270.0
30
0.0
10
1728.0
20
-2245.0
30
0.0
10
1734.0
20
-2217.0
30
0.0
10
1739.0
20
-2184.0
30
0.0
10
1745.0
20
-2148.0
30
0.0
10
1754.0
20
-2107.0
30
0.0
10
1767.0
20
-2052.0
30
0.0
10
1782.0
20
-1993.0
30
0.0
10
1798.0
20
-1936.0
30
0.0
10
1814.0
20
-1884.0
30
0.0
10
1827.0
20
-1841.0
30
0.0
10
1836.0
20
-1813.0
30
0.0
10
1839.0
20
-1803.0
30
0.0
10
1846.0
20
-1808.0
30
0.0
10
1866.0
20
-1824.0
30
0.0
10
1897.0
20
-1846.0
30
0.0
10
1935.0
20
-1873.0
30
0.0
10
1979.0
20
-1903.0
30
0.0
10
2025.0
20
-1933.0
30
0.0
10
2071.0
20
-1960.0
30
0.0
10
2116.0
20
-1984.0
30
0.0
10
2159.0
20
-2004.0
30
0.0
10
2200.0
20
-2020.0
30
0.0
10
2239.0
20
-2034.0
30
0.0
10
2275.0
20
-2046.0
30
0.0
10
2311.0
20
-2058.0
30
0.0
10
2344.0
20
-2069.0
30
0.0
10
2369.0
20
-2079.0
30
0.0
10
2394.0
20
-2088.0
30
0.0
10
2418.0
20
-2098.0
30
0.0
10
2441.0
20
-2107.0
30
0.0
10
2465.0
20
-2115.0
30
0.0
10
2488.0
20
-2122.0
30
0.0
10
2511.0
20
-2128.0
30
0.0
10
2533.0
20
-2132.0
30
0.0
10
2554.0
20
-2134.0
30
0.0
10
2576.0
20
-2134.0
30
0.0
10
2597.0
20
-2132.0
30
0.0
10
2619.0
20
-2127.0
30
0.0
10
2640.0
20
-2119.0
30
0.0
10
2660.0
20
-2108.0
30
0.0
10
2684.0
20
-2091.0
30
0.0
10
2706.0
20
-2071.0
30
0.0
10
2727.0
20
-2047.0
30
0.0
10
2746.0
20
-2022.0
30
0.0
10
2764.0
20
-1996.0
30
0.0
10
2778.0
20
-1970.0
30
0.0
10
2790.0
20
-1946.0
30
0.0
10
2798.0
20
-1928.0
30
0.0
10
2803.0
20
-1910.0
30
0.0
10
2806.0
20
-1893.0
30
0.0
10
2807.0
20
-1875.0
30
0.0
10
2806.0
20
-1855.0
30
0.0
10
2803.0
20
-1834.0
30
0.0
10
2798.0
20
-1809.0
30
0.0
10
2790.0
20
-1776.0
30
0.0
10
2779.0
20
-1741.0
30
0.0
10
2768.0
20
-1706.0
30
0.0
10
2758.0
20
-1674.0
30
0.0
10
2749.0
20
-1648.0
30
0.0
10
2743.0
20
-1631.0
30
0.0
10
2740.0
20
-1624.0
30
0.0
10
2750.0
20
-1623.0
30
0.0
10
2776.0
20
-1618.0
30
0.0
10
2815.0
20
-1611.0
30
0.0
10
2862.0
20
-1602.0
30
0.0
10
2914.0
20
-1593.0
30
0.0
10
2966.0
20
-1584.0
30
0.0
10
3014.0
20
-1576.0
30
0.0
10
3052.0
20
-1570.0
30
0.0
10
3084.0
20
-1565.0
30
0.0
10
3114.0
20
-1559.0
30
0.0
10
3141.0
20
-1553.0
30
0.0
10
3169.0
20
-1546.0
30
0.0
10
3197.0
20
-1536.0
30
0.0
10
3228.0
20
-1524.0
30
0.0
10
3260.0
20
-1510.0
30
0.0
10
3293.0
20
-1493.0
30
0.0
10
3326.0
20
-1477.0
30
0.0
10
3355.0
20
-1462.0
30
0.0
10
3378.0
20
-1449.0
30
0.0
10
3394.0
20
-1440.0
30
0.0
10
3400.0
20
-1437.0
30
0.0
10
3549.0
20
-1550.0
30
0.0
10
3671.0
20
-1509.0
30
0.0
10
3678.0
20
-1516.0
30
0.0
10
3697.0
20
-1534.0
30
0.0
10
3725.0
20
-1560.0
30
0.0
10
3761.0
20
-1592.0
30
0.0
10
3801.0
20
-1626.0
30
0.0
10
3844.0
20
-1659.0
30
0.0
10
3886.0
20
-1688.0
30
0.0
10
3925.0
20
-1710.0
30
0.0
10
3963.0
20
-1727.0
30
0.0
10
3999.0
20
-1739.0
30
0.0
10
4034.0
20
-1749.0
30
0.0
10
4069.0
20
-1756.0
30
0.0
10
4105.0
20
-1763.0
30
0.0
10
4141.0
20
-1770.0
30
0.0
10
4183.0
20
-1779.0
30
0.0
10
4226.0
20
-1790.0
30
0.0
10
4270.0
20
-1801.0
30
0.0
10
4315.0
20
-1812.0
30
0.0
10
4360.0
20
-1824.0
30
0.0
10
4406.0
20
-1834.0
30
0.0
10
4452.0
20
-1842.0
30
0.0
10
4495.0
20
-1848.0
30
0.0
10
4538.0
20
-1852.0
30
0.0
10
4580.0
20
-1853.0
30
0.0
10
4622.0
20
-1853.0
30
0.0
10
4663.0
20
-1850.0
30
0.0
10
4703.0
20
-1844.0
30
0.0
10
4743.0
20
-1836.0
30
0.0
10
4782.0
20
-1826.0
30
0.0
10
4820.0
20
-1814.0
30
0.0
10
4858.0
20
-1800.0
30
0.0
10
4895.0
20
-1785.0
30
0.0
10
4932.0
20
-1768.0
30
0.0
10
4969.0
20
-1752.0
30
0.0
10
5005.0
20
-1735.0
30
0.0
10
5042.0
20
-1717.0
30
0.0
10
5079.0
20
-1699.0
30
0.0
10
5115.0
20
-1679.0
30
0.0
10
5150.0
20
-1656.0
30
0.0
10
5184.0
20
-1630.0
30
0.0
10
5216.0
20
-1598.0
30
0.0
10
5246.0
20
-1561.0
30
0.0
10
5273.0
20
-1521.0
30
0.0
10
5296.0
20
-1478.0
30
0.0
10
5317.0
20
-1436.0
30
0.0
10
5335.0
20
-1398.0
30
0.0
10
5348.0
20
-1367.0
30
0.0
10
5356.0
20
-1346.0
30
0.0
10
5359.0
20
-1338.0
30
0.0
10
5366.0
20
-1336.0
30
0.0
10
5385.0
20
-1329.0
30
0.0
10
5413.0
20
-1319.0
30
0.0
10
5448.0
20
-1306.0
30
0.0
10
5487.0
20
-1293.0
30
0.0
10
5527.0
20
-1279.0
30
0.0
10
5566.0
20
-1267.0
30
0.0
10
5603.0
20
-1256.0
30
0.0
10
5637.0
20
-1246.0
30
0.0
10
5669.0
20
-1236.0
30
0.0
10
5698.0
20
-1226.0
30
0.0
10
5727.0
20
-1214.0
30
0.0
10
5756.0
20
-1199.0
30
0.0
10
5785.0
20
-1180.0
30
0.0
10
5811.0
20
-1160.0
30
0.0
10
5837.0
20
-1139.0
30
0.0
10
5861.0
20
-1118.0
30
0.0
10
5882.0
20
-1099.0
30
0.0
10
5898.0
20
-1083.0
30
0.0
10
5909.0
20
-1072.0
30
0.0
10
5913.0
20
-1068.0
30
0.0
10
6006.0
20
-1098.0
30
0.0
10
6067.0
20
-1119.0
30
0.0
10
6072.0
20
-1117.0
30
0.0
10
6086.0
20
-1111.0
30
0.0
10
6107.0
20
-1102.0
30
0.0
10
6133.0
20
-1092.0
30
0.0
10
6162.0
20
-1080.0
30
0.0
10
6192.0
20
-1068.0
30
0.0
10
6222.0
20
-1057.0
30
0.0
10
6249.0
20
-1046.0
30
0.0
10
6274.0
20
-1037.0
30
0.0
10
6298.0
20
-1028.0
30
0.0
10
6320.0
20
-1020.0
30
0.0
10
6341.0
20
-1013.0
30
0.0
10
6362.0
20
-1005.0
30
0.0
10
6384.0
20
-998.0
30
0.0
10
6407.0
20
-989.0
30
0.0
10
6430.0
20
-981.0
30
0.0
10
6455.0
20
-973.0
30
0.0
10
6479.0
20
-965.0
30
0.0
10
6505.0
20
-959.0
30
0.0
10
6530.0
20
-953.0
30
0.0
10
6555.0
20
-950.0
30
0.0
10
6583.0
20
-948.0
30
0.0
10
6612.0
20
-947.0
30
0.0
10
6641.0
20
-947.0
30
0.0
10
6670.0
20
-945.0
30
0.0
10
6701.0
20
-941.0
30
0.0
10
6734.0
20
-934.0
30
0.0
10
6768.0
20
-922.0
30
0.0
10
6805.0
20
-905.0
30
0.0
10
6841.0
20
-884.0
30
0.0
10
6876.0
20
-862.0
30
0.0
10
6906.0
20
-841.0
30
0.0
10
6931.0
20
-823.0
30
0.0
10
6947.0
20
-811.0
30
0.0
10
6953.0
20
-806.0
30
0.0
10
6956.0
20
-802.0
30
0.0
10
6966.0
20
-791.0
30
0.0
10
6980.0
20
-775.0
30
0.0
10
6998.0
20
-755.0
30
0.0
10
7017.0
20
-732.0
30
0.0
10
7037.0
20
-707.0
30
0.0
10
7055.0
20
-683.0
30
0.0
10
7071.0
20
-661.0
30
0.0
10
7085.0
20
-640.0
30
0.0
10
7097.0
20
-620.0
30
0.0
10
7107.0
20
-600.0
30
0.0
10
7117.0
20
-582.0
30
0.0
10
7125.0
20
-563.0
30
0.0
10
7133.0
20
-545.0
30
0.0
10
7142.0
20
-525.0
30
0.0
10
7150.0
20
-505.0
30
0.0
10
7159.0
20
-483.0
30
0.0
10
7168.0
20
-460.0
30
0.0
10
7177.0
20
-435.0
30
0.0
10
7186.0
20
-408.0
30
0.0
10
7196.0
20
-378.0
30
0.0
10
7206.0
20
-344.0
30
0.0
10
7216.0
20
-310.0
30
0.0
10
7226.0
20
-277.0
30
0.0
10
7234.0
20
-248.0
30
0.0
10
7240.0
20
-224.0
30
0.0
10
7245.0
20
-208.0
30
0.0
10
7246.0
20
-202.0
30
0.0
10
7252.0
20
-204.0
30
0.0
10
7268.0
20
-210.0
30
0.0
10
7293.0
20
-217.0
30
0.0
10
7322.0
20
-226.0
30
0.0
10
7354.0
20
-234.0
30
0.0
10
7387.0
20
-241.0
30
0.0
10
7417.0
20
-245.0
30
0.0
10
7438.0
20
-246.0
30
0.0
10
7457.0
20
-245.0
30
0.0
10
7474.0
20
-241.0
30
0.0
10
7489.0
20
-236.0
30
0.0
10
7503.0
20
-231.0
30
0.0
10
7517.0
20
-224.0
30
0.0
10
7532.0
20
-217.0
30
0.0
10
7550.0
20
-208.0
30
0.0
10
7570.0
20
-200.0
30
0.0
10
7592.0
20
-191.0
30
0.0
10
7614.0
20
-181.0
30
0.0
10
7638.0
20
-171.0
30
0.0
10
7664.0
20
-159.0
30
0.0
10
7691.0
20
-146.0
30
0.0
10
7717.0
20
-133.0
30
0.0
10
7742.0
20
-120.0
30
0.0
10
7767.0
20
-107.0
30
0.0
10
7788.0
20
-95.0
30
0.0
10
7805.0
20
-86.0
30
0.0
10
7816.0
20
-79.0
30
0.0
10
7820.0
20
-77.0
30
0.0
10
7904.0
20
-133.0
30
0.0
10
8056.0
20
-177.0
30
0.0
10
8166.0
20
-244.0
30
0.0
10
8216.0
20
-176.0
30
0.0
10
8303.0
20
-260.0
30
0.0
10
8309.0
20
-262.0
30
0.0
10
8324.0
20
-267.0
30
0.0
10
8347.0
20
-274.0
30
0.0
10
8376.0
20
-283.0
30
0.0
10
8409.0
20
-292.0
30
0.0
10
8443.0
20
-300.0
30
0.0
10
8477.0
20
-307.0
30
0.0
10
8512.0
20
-311.0
30
0.0
10
8544.0
20
-313.0
30
0.0
10
8575.0
20
-312.0
30
0.0
10
8604.0
20
-310.0
30
0.0
10
8633.0
20
-307.0
30
0.0
10
8662.0
20
-303.0
30
0.0
10
8690.0
20
-299.0
30
0.0
10
8720.0
20
-296.0
30
0.0
10
8751.0
20
-293.0
30
0.0
10
8782.0
20
-291.0
30
0.0
10
8814.0
20
-289.0
30
0.0
10
8846.0
20
-287.0
30
0.0
10
8878.0
20
-285.0
30
0.0
10
8910.0
20
-284.0
30
0.0
10
8943.0
20
-282.0
30
0.0
10
8975.0
20
-280.0
30
0.0
10
9008.0
20
-275.0
30
0.0
10
9040.0
20
-268.0
30
0.0
10
9072.0
20
-256.0
30
0.0
10
9104.0
20
-239.0
30
0.0
10
9136.0
20
-216.0
30
0.0
10
9166.0
20
-188.0
30
0.0
10
9195.0
20
-156.0
30
0.0
10
9221.0
20
-123.0
30
0.0
10
9243.0
20
-92.0
30
0.0
10
9261.0
20
-67.0
30
0.0
10
9272.0
20
-49.0
30
0.0
10
9276.0
20
-42.0
30
0.0
10
9599.0
20
0.0
30
0.0
10
9692.0
20
-124.0
30
0.0
10
9696.0
20
-134.0
30
0.0
10
9707.0
20
-162.0
30
0.0
10
9723.0
20
-202.0
30
0.0
10
9742.0
20
-252.0
30
0.0
10
9760.0
20
-307.0
30
0.0
10
9776.0
20
-362.0
30
0.0
10
9787.0
20
-413.0
30
0.0
10
9791.0
20
-454.0
30
0.0
10
9791.0
20
-490.0
30
0.0
10
9789.0
20
-522.0
30
0.0
10
9785.0
20
-554.0
30
0.0
10
9781.0
20
-586.0
30
0.0
10
9779.0
20
-619.0
30
0.0
10
9780.0
20
-657.0
30
0.0
10
9784.0
20
-695.0
30
0.0
10
9791.0
20
-736.0
30
0.0
10
9800.0
20
-775.0
30
0.0
10
9809.0
20
-811.0
30
0.0
10
9816.0
20
-840.0
30
0.0
10
9822.0
20
-859.0
30
0.0
10
9824.0
20
-866.0
30
0.0
10
9823.0
20
-874.0
30
0.0
10
9820.0
20
-894.0
30
0.0
10
9816.0
20
-925.0
30
0.0
10
9810.0
20
-962.0
30
0.0
10
9803.0
20
-1002.0
30
0.0
10
9795.0
20
-1042.0
30
0.0
10
9786.0
20
-1080.0
30
0.0
10
9779.0
20
-1105.0
30
0.0
10
9772.0
20
-1127.0
30
0.0
10
9767.0
20
-1146.0
30
0.0
10
9763.0
20
-1163.0
30
0.0
10
9761.0
20
-1180.0
30
0.0
10
9763.0
20
-1195.0
30
0.0
10
9768.0
20
-1211.0
30
0.0
10
9774.0
20
-1224.0
30
0.0
10
9782.0
20
-1236.0
30
0.0
10
9791.0
20
-1248.0
30
0.0
10
9799.0
20
-1258.0
30
0.0
10
9806.0
20
-1266.0
30
0.0
10
9811.0
20
-1271.0
30
0.0
10
9813.0
20
-1273.0
30
0.0
10
9809.0
20
-1279.0
30
0.0
10
9797.0
20
-1293.0
30
0.0
10
9781.0
20
-1316.0
30
0.0
10
9762.0
20
-1344.0
30
0.0
10
9742.0
20
-1377.0
30
0.0
10
9724.0
20
-1413.0
30
0.0
10
9710.0
20
-1450.0
30
0.0
10
9702.0
20
-1490.0
30
0.0
10
9699.0
20
-1529.0
30
0.0
10
9702.0
20
-1566.0
30
0.0
10
9709.0
20
-1602.0
30
0.0
10
9718.0
20
-1636.0
30
0.0
10
9728.0
20
-1667.0
30
0.0
10
9739.0
20
-1696.0
30
0.0
10
9745.0
20
-1714.0
30
0.0
10
9751.0
20
-1731.0
30
0.0
10
9756.0
20
-1748.0
30
0.0
10
9760.0
20
-1764.0
30
0.0
10
9763.0
20
-1780.0
30
0.0
10
9765.0
20
-1797.0
30
0.0
10
9767.0
20
-1816.0
30
0.0
10
9767.0
20
-1831.0
30
0.0
10
9767.0
20
-1846.0
30
0.0
10
9767.0
20
-1860.0
30
0.0
10
9766.0
20
-1873.0
30
0.0
10
9765.0
20
-1883.0
30
0.0
10
9765.0
20
-1890.0
30
0.0
10
9765.0
20
-1892.0
30
0.0
10
9761.0
20
-1896.0
30
0.0
10
9750.0
20
-1907.0
30
0.0
10
9735.0
20
-1923.0
30
0.0
10
9717.0
20
-1942.0
30
0.0
10
9698.0
20
-1965.0
30
0.0
10
9680.0
20
-1988.0
30
0.0
10
9665.0
20
-2011.0
30
0.0
10
9654.0
20
-2034.0
30
0.0
10
9649.0
20
-2055.0
30
0.0
10
9647.0
20
-2076.0
30
0.0
10
9648.0
20
-2097.0
30
0.0
10
9653.0
20
-2120.0
30
0.0
10
9660.0
20
-2145.0
30
0.0
10
9669.0
20
-2173.0
30
0.0
10
9681.0
20
-2208.0
30
0.0
10
9693.0
20
-2244.0
30
0.0
10
9705.0
20
-2280.0
30
0.0
10
9717.0
20
-2312.0
30
0.0
10
9726.0
20
-2338.0
30
0.0
10
9732.0
20
-2356.0
30
0.0
10
9734.0
20
-2363.0
30
0.0
10
9743.0
20
-2775.0
30
0.0
10
9742.0
20
-2775.0
30
0.0
10
9739.0
20
-2774.0
30
0.0
10
9734.0
20
-2774.0
30
0.0
10
9728.0
20
-2774.0
30
0.0
10
9720.0
20
-2774.0
30
0.0
10
9712.0
20
-2775.0
30
0.0
10
9702.0
20
-2776.0
30
0.0
10
9688.0
20
-2778.0
30
0.0
10
9674.0
20
-2781.0
30
0.0
10
9661.0
20
-2784.0
30
0.0
10
9649.0
20
-2787.0
30
0.0
10
9640.0
20
-2790.0
30
0.0
10
9633.0
20
-2792.0
30
0.0
10
9631.0
20
-2793.0
30
0.0
10
9724.0
20
-2820.0
30
0.0
10
9838.0
20
-3001.0
30
0.0
10
9837.0
20
-3005.0
30
0.0
10
9834.0
20
-3016.0
30
0.0
10
9831.0
20
-3032.0
30
0.0
10
9827.0
20
-3052.0
30
0.0
10
9824.0
20
-3074.0
30
0.0
10
9823.0
20
-3096.0
30
0.0
10
9824.0
20
-3117.0
30
0.0
10
9827.0
20
-3135.0
30
0.0
10
9832.0
20
-3151.0
30
0.0
10
9837.0
20
-3166.0
30
0.0
10
9842.0
20
-3180.0
30
0.0
10
9844.0
20
-3195.0
30
0.0
10
9844.0
20
-3211.0
30
0.0
10
9839.0
20
-3229.0
30
0.0
10
9824.0
20
-3258.0
30
0.0
10
9801.0
20
-3291.0
30
0.0
10
9774.0
20
-3323.0
30
0.0
10
9747.0
20
-3353.0
30
0.0
10
9724.0
20
-3378.0
30
0.0
10
9707.0
20
-3395.0
30
0.0
10
9701.0
20
-3401.0
30
0.0
10
9696.0
20
-3410.0
30
0.0
10
9685.0
20
-3433.0
30
0.0
10
9668.0
20
-3467.0
30
0.0
10
9647.0
20
-3510.0
30
0.0
10
9625.0
20
-3557.0
30
0.0
10
9602.0
20
-3604.0
30
0.0
10
9581.0
20
-3650.0
30
0.0
10
9565.0
20
-3687.0
30
0.0
10
9552.0
20
-3720.0
30
0.0
10
9540.0
20
-3750.0
30
0.0
10
9530.0
20
-3779.0
30
0.0
10
9521.0
20
-3807.0
30
0.0
10
9512.0
20
-3835.0
30
0.0
10
9504.0
20
-3865.0
30
0.0
10
9493.0
20
-3901.0
30
0.0
10
9483.0
20
-3939.0
30
0.0
10
9473.0
20
-3979.0
30
0.0
10
9464.0
20
-4020.0
30
0.0
10
9456.0
20
-4061.0
30
0.0
10
9451.0
20
-4102.0
30
0.0
10
9448.0
20
-4141.0
30
0.0
10
9448.0
20
-4180.0
30
0.0
10
9451.0
20
-4218.0
30
0.0
10
9457.0
20
-4256.0
30
0.0
10
9464.0
20
-4295.0
30
0.0
10
9473.0
20
-4336.0
30
0.0
10
9483.0
20
-4379.0
30
0.0
10
9493.0
20
-4427.0
30
0.0
10
9502.0
20
-4476.0
30
0.0
10
9511.0
20
-4527.0
30
0.0
10
9519.0
20
-4575.0
30
0.0
10
9526.0
20
-4619.0
30
0.0
10
9531.0
20
-4654.0
30
0.0
10
9534.0
20
-4677.0
30
0.0
10
9536.0
20
-4685.0
30
0.0
10
9534.0
20
-4690.0
30
0.0
10
9528.0
20
-4702.0
30
0.0
10
9521.0
20
-4721.0
30
0.0
10
9514.0
20
-4746.0
30
0.0
10
9508.0
20
-4776.0
30
0.0
10
9505.0
20
-4808.0
30
0.0
10
9506.0
20
-4843.0
30
0.0
10
9514.0
20
-4884.0
30
0.0
10
9528.0
20
-4924.0
30
0.0
10
9545.0
20
-4961.0
30
0.0
10
9562.0
20
-4994.0
30
0.0
10
9578.0
20
-5019.0
30
0.0
10
9589.0
20
-5036.0
30
0.0
10
9593.0
20
-5042.0
30
0.0
10
9593.0
20
-5047.0
30
0.0
10
9592.0
20
-5059.0
30
0.0
10
9591.0
20
-5078.0
30
0.0
10
9590.0
20
-5102.0
30
0.0
10
9591.0
20
-5130.0
30
0.0
10
9593.0
20
-5159.0
30
0.0
10
9598.0
20
-5189.0
30
0.0
10
9608.0
20
-5230.0
30
0.0
10
9623.0
20
-5269.0
30
0.0
10
9641.0
20
-5306.0
30
0.0
10
9661.0
20
-5343.0
30
0.0
10
9683.0
20
-5378.0
30
0.0
10
9704.0
20
-5414.0
30
0.0
10
9724.0
20
-5449.0
30
0.0
10
9741.0
20
-5482.0
30
0.0
10
9756.0
20
-5516.0
30
0.0
10
9771.0
20
-5549.0
30
0.0
10
9786.0
20
-5582.0
30
0.0
10
9801.0
20
-5614.0
30
0.0
10
9817.0
20
-5646.0
30
0.0
10
9835.0
20
-5678.0
30
0.0
10
9855.0
20
-5709.0
30
0.0
10
9878.0
20
-5740.0
30
0.0
10
9903.0
20
-5769.0
30
0.0
10
9930.0
20
-5798.0
30
0.0
10
9958.0
20
-5826.0
30
0.0
10
9988.0
20
-5852.0
30
0.0
10
10020.0
20
-5877.0
30
0.0
10
10042.0
20
-5894.0
30
0.0
10
10064.0
20
-5909.0
30
0.0
10
10085.0
20
-5923.0
30
0.0
10
10102.0
20
-5935.0
30
0.0
10
10116.0
20
-5944.0
30
0.0
10
10126.0
20
-5950.0
30
0.0
10
10129.0
20
-5952.0
30
0.0
10
10129.0
20
-5958.0
30
0.0
10
10129.0
20
-5973.0
30
0.0
10
10130.0
20
-5996.0
30
0.0
10
10132.0
20
-6025.0
30
0.0
10
10135.0
20
-6057.0
30
0.0
10
10140.0
20
-6091.0
30
0.0
10
10148.0
20
-6125.0
30
0.0
10
10160.0
20
-6164.0
30
0.0
10
10177.0
20
-6200.0
30
0.0
10
10196.0
20
-6233.0
30
0.0
10
10218.0
20
-6264.0
30
0.0
10
10242.0
20
-6293.0
30
0.0
10
10266.0
20
-6320.0
30
0.0
10
10291.0
20
-6346.0
30
0.0
10
10306.0
20
-6362.0
30
0.0
10
10321.0
20
-6377.0
30
0.0
10
10335.0
20
-6391.0
30
0.0
10
10346.0
20
-6403.0
30
0.0
10
10355.0
20
-6412.0
30
0.0
10
10361.0
20
-6418.0
30
0.0
10
10363.0
20
-6420.0
30
0.0
10
10363.0
20
-6427.0
30
0.0
10
10362.0
20
-6447.0
30
0.0
10
10362.0
20
-6478.0
30
0.0
10
10362.0
20
-6515.0
30
0.0
10
10363.0
20
-6557.0
30
0.0
10
10365.0
20
-6600.0
30
0.0
10
10368.0
20
-6642.0
30
0.0
10
10373.0
20
-6683.0
30
0.0
10
10381.0
20
-6720.0
30
0.0
10
10391.0
20
-6754.0
30
0.0
10
10403.0
20
-6788.0
30
0.0
10
10417.0
20
-6821.0
30
0.0
10
10434.0
20
-6857.0
30
0.0
10
10453.0
20
-6896.0
30
0.0
10
10474.0
20
-6936.0
30
0.0
10
10495.0
20
-6979.0
30
0.0
10
10516.0
20
-7019.0
30
0.0
10
10535.0
20
-7056.0
30
0.0
10
10550.0
20
-7086.0
30
0.0
10
10560.0
20
-7106.0
30
0.0
10
10564.0
20
-7113.0
30
0.0
10
10561.0
20
-7120.0
30
0.0
10
10552.0
20
-7139.0
30
0.0
10
10539.0
20
-7168.0
30
0.0
10
10522.0
20
-7204.0
30
0.0
10
10504.0
20
-7245.0
30
0.0
10
10485.0
20
-7287.0
30
0.0
10
10467.0
20
-7328.0
30
0.0
10
10451.0
20
-7365.0
30
0.0
10
10437.0
20
-7399.0
30
0.0
10
10425.0
20
-7430.0
30
0.0
10
10416.0
20
-7458.0
30
0.0
10
10409.0
20
-7485.0
30
0.0
10
10406.0
20
-7510.0
30
0.0
10
10406.0
20
-7533.0
30
0.0
10
10409.0
20
-7552.0
30
0.0
10
10415.0
20
-7572.0
30
0.0
10
10422.0
20
-7592.0
30
0.0
10
10431.0
20
-7614.0
30
0.0
10
10441.0
20
-7638.0
30
0.0
10
10451.0
20
-7665.0
30
0.0
10
10461.0
20
-7697.0
30
0.0
10
10472.0
20
-7743.0
30
0.0
10
10482.0
20
-7792.0
30
0.0
10
10491.0
20
-7841.0
30
0.0
10
10499.0
20
-7887.0
30
0.0
10
10504.0
20
-7924.0
30
0.0
10
10507.0
20
-7949.0
30
0.0
10
10508.0
20
-7958.0
30
0.0
10
10506.0
20
-7963.0
30
0.0
10
10500.0
20
-7975.0
30
0.0
10
10491.0
20
-7993.0
30
0.0
10
10480.0
20
-8016.0
30
0.0
10
10467.0
20
-8043.0
30
0.0
10
10454.0
20
-8071.0
30
0.0
10
10440.0
20
-8099.0
30
0.0
10
10425.0
20
-8134.0
30
0.0
10
10412.0
20
-8167.0
30
0.0
10
10402.0
20
-8200.0
30
0.0
10
10397.0
20
-8234.0
30
0.0
10
10397.0
20
-8270.0
30
0.0
10
10404.0
20
-8308.0
30
0.0
10
10418.0
20
-8349.0
30
0.0
10
10444.0
20
-8404.0
30
0.0
10
10478.0
20
-8460.0
30
0.0
10
10515.0
20
-8515.0
30
0.0
10
10551.0
20
-8564.0
30
0.0
10
10582.0
20
-8604.0
30
0.0
10
10604.0
20
-8631.0
30
0.0
10
10612.0
20
-8641.0
30
0.0
10
10607.0
20
-8651.0
30
0.0
10
10594.0
20
-8679.0
30
0.0
10
10571.0
20
-8720.0
30
0.0
10
10539.0
20
-8770.0
30
0.0
10
10498.0
20
-8823.0
30
0.0
10
10448.0
20
-8875.0
30
0.0
10
10390.0
20
-8922.0
30
0.0
10
10319.0
20
-8962.0
30
0.0
10
10244.0
20
-8992.0
30
0.0
10
10170.0
20
-9013.0
30
0.0
10
10103.0
20
-9027.0
30
0.0
10
10048.0
20
-9035.0
30
0.0
10
10011.0
20
-9039.0
30
0.0
10
9998.0
20
-9040.0
30
0.0
10
9995.0
20
-9033.0
30
0.0
10
9985.0
20
-9012.0
30
0.0
10
9971.0
20
-8982.0
30
0.0
10
9952.0
20
-8946.0
30
0.0
10
9931.0
20
-8910.0
30
0.0
10
9908.0
20
-8875.0
30
0.0
10
9885.0
20
-8847.0
30
0.0
10
9865.0
20
-8831.0
30
0.0
10
9845.0
20
-8820.0
30
0.0
10
9824.0
20
-8814.0
30
0.0
10
9803.0
20
-8811.0
30
0.0
10
9781.0
20
-8809.0
30
0.0
10
9757.0
20
-8808.0
30
0.0
10
9731.0
20
-8806.0
30
0.0
10
9706.0
20
-8802.0
30
0.0
10
9681.0
20
-8796.0
30
0.0
10
9657.0
20
-8790.0
30
0.0
10
9636.0
20
-8784.0
30
0.0
10
9619.0
20
-8779.0
30
0.0
10
9608.0
20
-8776.0
30
0.0
10
9604.0
20
-8774.0
30
0.0
10
9599.0
20
-8774.0
30
0.0
10
9584.0
20
-8774.0
30
0.0
10
9562.0
20
-8773.0
30
0.0
10
9534.0
20
-8773.0
30
0.0
10
9503.0
20
-8773.0
30
0.0
10
9470.0
20
-8773.0
30
0.0
10
9438.0
20
-8774.0
30
0.0
10
9407.0
20
-8776.0
30
0.0
10
9379.0
20
-8779.0
30
0.0
10
9352.0
20
-8784.0
30
0.0
10
9328.0
20
-8790.0
30
0.0
10
9305.0
20
-8798.0
30
0.0
10
9283.0
20
-8808.0
30
0.0
10
9262.0
20
-8821.0
30
0.0
10
9243.0
20
-8835.0
30
0.0
10
9225.0
20
-8851.0
30
0.0
10
9206.0
20
-8866.0
30
0.0
10
9188.0
20
-8880.0
30
0.0
10
9169.0
20
-8893.0
30
0.0
10
9150.0
20
-8901.0
30
0.0
10
9131.0
20
-8906.0
30
0.0
10
9111.0
20
-8905.0
30
0.0
10
9090.0
20
-8900.0
30
0.0
10
9068.0
20
-8893.0
30
0.0
10
9047.0
20
-8885.0
30
0.0
10
9025.0
20
-8877.0
30
0.0
10
9003.0
20
-8872.0
30
0.0
10
8981.0
20
-8869.0
30
0.0
10
8961.0
20
-8872.0
30
0.0
10
8941.0
20
-8879.0
30
0.0
10
8922.0
20
-8889.0
30
0.0
10
8905.0
20
-8903.0
30
0.0
10
8890.0
20
-8920.0
30
0.0
10
8877.0
20
-8939.0
30
0.0
10
8867.0
20
-8959.0
30
0.0
10
8861.0
20
-8977.0
30
0.0
10
8856.0
20
-8995.0
30
0.0
10
8851.0
20
-9012.0
30
0.0
10
8846.0
20
-9027.0
30
0.0
10
8841.0
20
-9038.0
30
0.0
10
8833.0
20
-9046.0
30
0.0
10
8823.0
20
-9049.0
30
0.0
10
8802.0
20
-9044.0
30
0.0
10
8776.0
20
-9030.0
30
0.0
10
8746.0
20
-9011.0
30
0.0
10
8714.0
20
-8992.0
30
0.0
10
8682.0
20
-8976.0
30
0.0
10
8652.0
20
-8967.0
30
0.0
10
8625.0
20
-8969.0
30
0.0
10
8610.0
20
-8979.0
30
0.0
10
8596.0
20
-8993.0
30
0.0
10
8586.0
20
-9011.0
30
0.0
10
8578.0
20
-9028.0
30
0.0
10
8572.0
20
-9044.0
30
0.0
10
8569.0
20
-9055.0
30
0.0
10
8568.0
20
-9059.0
30
0.0
10
8557.0
20
-9061.0
30
0.0
10
8526.0
20
-9067.0
30
0.0
10
8478.0
20
-9075.0
30
0.0
10
8417.0
20
-9085.0
30
0.0
10
8346.0
20
-9095.0
30
0.0
10
8268.0
20
-9105.0
30
0.0
10
8186.0
20
-9112.0
30
0.0
10
8103.0
20
-9117.0
30
0.0
10
8023.0
20
-9120.0
30
0.0
10
7950.0
20
-9121.0
30
0.0
10
7886.0
20
-9121.0
30
0.0
10
7837.0
20
-9121.0
30
0.0
10
7804.0
20
-9120.0
30
0.0
10
7793.0
20
-9119.0
30
0.0
10
7788.0
20
-9112.0
30
0.0
10
7773.0
20
-9094.0
30
0.0
10
7751.0
20
-9066.0
30
0.0
10
7723.0
20
-9032.0
30
0.0
10
7690.0
20
-8996.0
30
0.0
10
7652.0
20
-8958.0
30
0.0
10
7613.0
20
-8924.0
30
0.0
10
7566.0
20
-8890.0
30
0.0
10
7518.0
20
-8862.0
30
0.0
10
7470.0
20
-8840.0
30
0.0
10
7422.0
20
-8822.0
30
0.0
10
7375.0
20
-8809.0
30
0.0
10
7330.0
20
-8798.0
30
0.0
10
7286.0
20
-8790.0
30
0.0
10
7251.0
20
-8784.0
30
0.0
10
7217.0
20
-8778.0
30
0.0
10
7184.0
20
-8773.0
30
0.0
10
7151.0
20
-8766.0
30
0.0
10
7116.0
20
-8759.0
30
0.0
10
7080.0
20
-8750.0
30
0.0
10
7042.0
20
-8739.0
30
0.0
10
7004.0
20
-8726.0
30
0.0
10
6963.0
20
-8711.0
30
0.0
10
6921.0
20
-8695.0
30
0.0
10
6877.0
20
-8678.0
30
0.0
10
6833.0
20
-8660.0
30
0.0
10
6788.0
20
-8643.0
30
0.0
10
6744.0
20
-8627.0
30
0.0
10
6725.0
20
-8621.0
30
0.0
10
6707.0
20
-8615.0
30
0.0
10
6689.0
20
-8609.0
30
0.0
10
6671.0
20
-8604.0
30
0.0
10
6653.0
20
-8599.0
30
0.0
10
6635.0
20
-8595.0
30
0.0
10
6618.0
20
-8591.0
30
0.0
10
6571.0
20
-8582.0
30
0.0
10
6525.0
20
-8577.0
30
0.0
10
6481.0
20
-8574.0
30
0.0
10
6439.0
20
-8574.0
30
0.0
10
6396.0
20
-8574.0
30
0.0
10
6354.0
20
-8575.0
30
0.0
10
6311.0
20
-8576.0
30
0.0
10
6272.0
20
-8575.0
30
0.0
10
6232.0
20
-8575.0
30
0.0
10
6192.0
20
-8574.0
30
0.0
10
6154.0
20
-8575.0
30
0.0
10
6117.0
20
-8576.0
30
0.0
10
6083.0
20
-8580.0
30
0.0
10
6052.0
20
-8586.0
30
0.0
10
6029.0
20
-8593.0
30
0.0
10
6008.0
20
-8602.0
30
0.0
10
5989.0
20
-8612.0
30
0.0
10
5969.0
20
-8623.0
30
0.0
10
5950.0
20
-8636.0
30
0.0
10
5929.0
20
-8649.0
30
0.0
10
5907.0
20
-8663.0
30
0.0
10
5877.0
20
-8682.0
30
0.0
10
5844.0
20
-8700.0
30
0.0
10
5809.0
20
-8717.0
30
0.0
10
5773.0
20
-8733.0
30
0.0
10
5737.0
20
-8747.0
30
0.0
10
5701.0
20
-8757.0
30
0.0
10
5666.0
20
-8763.0
30
0.0
10
5646.0
20
-8765.0
30
0.0
10
5628.0
20
-8765.0
30
0.0
10
5612.0
20
-8765.0
30
0.0
10
5598.0
20
-8764.0
30
0.0
10
5587.0
20
-8763.0
30
0.0
10
5580.0
20
-8762.0
30
0.0
10
5578.0
20
-8762.0
30
0.0
10
5568.0
20
-8759.0
30
0.0
10
5542.0
20
-8753.0
30
0.0
10
5503.0
20
-8744.0
30
0.0
10
5455.0
20
-8734.0
30
0.0
10
5403.0
20
-8725.0
30
0.0
10
5352.0
20
-8717.0
30
0.0
10
5304.0
20
-8711.0
30
0.0
10
5273.0
20
-8710.0
30
0.0
10
5245.0
20
-8711.0
30
0.0
10
5222.0
20
-8714.0
30
0.0
10
5201.0
20
-8719.0
30
0.0
10
5182.0
20
-8726.0
30
0.0
10
5165.0
20
-8735.0
30
0.0
10
5149.0
20
-8746.0
30
0.0
10
5135.0
20
-8756.0
30
0.0
10
5122.0
20
-8767.0
30
0.0
10
5108.0
20
-8778.0
30
0.0
10
5094.0
20
-8788.0
30
0.0
10
5080.0
20
-8796.0
30
0.0
10
5066.0
20
-8802.0
30
0.0
10
5051.0
20
-8805.0
30
0.0
10
5030.0
20
-8803.0
30
0.0
10
5008.0
20
-8798.0
30
0.0
10
4984.0
20
-8790.0
30
0.0
10
4959.0
20
-8782.0
30
0.0
10
4931.0
20
-8774.0
30
0.0
10
4902.0
20
-8770.0
30
0.0
10
4870.0
20
-8771.0
30
0.0
10
4834.0
20
-8777.0
30
0.0
10
4799.0
20
-8789.0
30
0.0
10
4765.0
20
-8803.0
30
0.0
10
4734.0
20
-8818.0
30
0.0
10
4710.0
20
-8831.0
30
0.0
10
4694.0
20
-8841.0
30
0.0
10
4688.0
20
-8845.0
30
0.0
10
4667.0
20
-8692.0
30
0.0
10
4663.0
20
-8692.0
30
0.0
10
4651.0
20
-8689.0
30
0.0
10
4633.0
20
-8687.0
30
0.0
10
4610.0
20
-8684.0
30
0.0
10
4586.0
20
-8682.0
30
0.0
10
4560.0
20
-8680.0
30
0.0
10
4535.0
20
-8681.0
30
0.0
10
4509.0
20
-8684.0
30
0.0
10
4486.0
20
-8689.0
30
0.0
10
4464.0
20
-8697.0
30
0.0
10
4442.0
20
-8705.0
30
0.0
10
4420.0
20
-8714.0
30
0.0
10
4396.0
20
-8724.0
30
0.0
10
4369.0
20
-8733.0
30
0.0
10
4342.0
20
-8740.0
30
0.0
10
4314.0
20
-8746.0
30
0.0
10
4287.0
20
-8751.0
30
0.0
10
4262.0
20
-8756.0
30
0.0
10
4242.0
20
-8759.0
30
0.0
10
4229.0
20
-8761.0
30
0.0
10
4224.0
20
-8761.0
30
0.0
10
4222.0
20
-8759.0
30
0.0
10
4215.0
20
-8754.0
30
0.0
10
4206.0
20
-8747.0
30
0.0
10
4195.0
20
-8739.0
30
0.0
10
4182.0
20
-8732.0
30
0.0
10
4169.0
20
-8727.0
30
0.0
10
4156.0
20
-8726.0
30
0.0
10
4138.0
20
-8731.0
30
0.0
10
4123.0
20
-8745.0
30
0.0
10
4109.0
20
-8766.0
30
0.0
10
4095.0
20
-8792.0
30
0.0
10
4080.0
20
-8819.0
30
0.0
10
4064.0
20
-8847.0
30
0.0
10
4044.0
20
-8874.0
30
0.0
10
4026.0
20
-8893.0
30
0.0
10
4006.0
20
-8909.0
30
0.0
10
3987.0
20
-8922.0
30
0.0
10
3969.0
20
-8933.0
30
0.0
10
3955.0
20
-8941.0
30
0.0
10
3945.0
20
-8945.0
30
0.0
10
3941.0
20
-8947.0
30
0.0
10
3887.0
20
-9034.0
30
0.0
10
3698.0
20
-9131.0
30
0.0
10
3698.0
20
-9125.0
30
0.0
10
3696.0
20
-9110.0
30
0.0
10
3694.0
20
-9087.0
30
0.0
10
3691.0
20
-9060.0
30
0.0
10
3688.0
20
-9030.0
30
0.0
10
3684.0
20
-9002.0
30
0.0
10
3681.0
20
-8976.0
30
0.0
10
3679.0
20
-8959.0
30
0.0
10
3677.0
20
-8945.0
30
0.0
10
3674.0
20
-8933.0
30
0.0
10
3670.0
20
-8921.0
30
0.0
10
3665.0
20
-8910.0
30
0.0
10
3658.0
20
-8899.0
30
0.0
10
3649.0
20
-8886.0
30
0.0
10
3635.0
20
-8868.0
30
0.0
10
3620.0
20
-8849.0
30
0.0
10
3605.0
20
-8830.0
30
0.0
10
3590.0
20
-8812.0
30
0.0
10
3578.0
20
-8798.0
30
0.0
10
3570.0
20
-8788.0
30
0.0
10
3566.0
20
-8785.0
30
0.0
10
3488.0
20
-8830.0
30
0.0
10
3450.0
20
-8907.0
30
0.0
10
3445.0
20
-8906.0
30
0.0
10
3433.0
20
-8906.0
30
0.0
10
3415.0
20
-8905.0
30
0.0
10
3393.0
20
-8904.0
30
0.0
10
3369.0
20
-8905.0
30
0.0
10
3344.0
20
-8907.0
30
0.0
10
3321.0
20
-8911.0
30
0.0
10
3297.0
20
-8919.0
30
0.0
10
3276.0
20
-8929.0
30
0.0
10
3257.0
20
-8942.0
30
0.0
10
3238.0
20
-8957.0
30
0.0
10
3218.0
20
-8973.0
30
0.0
10
3196.0
20
-8991.0
30
0.0
10
3171.0
20
-9008.0
30
0.0
10
3139.0
20
-9028.0
30
0.0
10
3104.0
20
-9046.0
30
0.0
10
3069.0
20
-9063.0
30
0.0
10
3037.0
20
-9077.0
30
0.0
10
3010.0
20
-9089.0
30
0.0
10
2992.0
20
-9096.0
30
0.0
10
2986.0
20
-9099.0
30
0.0
10
2980.0
20
-9100.0
30
0.0
10
2965.0
20
-9105.0
30
0.0
10
2941.0
20
-9111.0
30
0.0
10
2909.0
20
-9117.0
30
0.0
10
2871.0
20
-9123.0
30
0.0
10
2829.0
20
-9128.0
30
0.0
10
2784.0
20
-9131.0
30
0.0
10
2728.0
20
-9130.0
30
0.0
10
2673.0
20
-9125.0
30
0.0
10
2621.0
20
-9119.0
30
0.0
10
2575.0
20
-9112.0
30
0.0
10
2538.0
20
-9105.0
30
0.0
10
2514.0
20
-9100.0
30
0.0
10
2506.0
20
-9098.0
30
0.0
10
2302.0
20
-8812.0
30
0.0
10
2293.0
20
-8606.0
30
0.0
10
2348.0
20
-8485.0
30
0.0
10
2363.0
20
-8305.0
30
0.0
10
2368.0
20
-8305.0
30
0.0
10
2383.0
20
-8305.0
30
0.0
10
2403.0
20
-8304.0
30
0.0
10
2427.0
20
-8301.0
30
0.0
10
2451.0
20
-8297.0
30
0.0
10
2472.0
20
-8290.0
30
0.0
10
2488.0
20
-8280.0
30
0.0
10
2497.0
20
-8266.0
30
0.0
10
2497.0
20
-8248.0
30
0.0
10
2491.0
20
-8229.0
30
0.0
10
2478.0
20
-8207.0
30
0.0
10
2461.0
20
-8186.0
30
0.0
10
2442.0
20
-8165.0
30
0.0
10
2420.0
20
-8145.0
30
0.0
10
2395.0
20
-8125.0
30
0.0
10
2370.0
20
-8107.0
30
0.0
10
2344.0
20
-8092.0
30
0.0
10
2319.0
20
-8079.0
30
0.0
10
2294.0
20
-8067.0
30
0.0
10
2269.0
20
-8056.0
30
0.0
10
2245.0
20
-8047.0
30
0.0
10
2221.0
20
-8038.0
30
0.0
10
2197.0
20
-8029.0
30
0.0
10
2173.0
20
-8021.0
30
0.0
10
2147.0
20
-8013.0
30
0.0
10
2118.0
20
-8005.0
30
0.0
10
2086.0
20
-7997.0
30
0.0
10
2051.0
20
-7989.0
30
0.0
10
2007.0
20
-7980.0
30
0.0
10
1961.0
20
-7971.0
30
0.0
10
1916.0
20
-7963.0
30
0.0
10
1875.0
20
-7956.0
30
0.0
10
1841.0
20
-7951.0
30
0.0
10
1819.0
20
-7947.0
30
0.0
10
1811.0
20
-7946.0
30
0.0
10
1810.0
20
-7938.0
30
0.0
10
1808.0
20
-7918.0
30
0.0
10
1805.0
20
-7889.0
30
0.0
10
1801.0
20
-7853.0
30
0.0
10
1796.0
20
-7813.0
30
0.0
10
1791.0
20
-7772.0
30
0.0
10
1785.0
20
-7734.0
30
0.0
10
1780.0
20
-7708.0
30
0.0
10
1774.0
20
-7685.0
30
0.0
10
1767.0
20
-7666.0
30
0.0
10
1759.0
20
-7650.0
30
0.0
10
1749.0
20
-7639.0
30
0.0
10
1737.0
20
-7632.0
30
0.0
10
1722.0
20
-7630.0
30
0.0
10
1706.0
20
-7632.0
30
0.0
10
1690.0
20
-7637.0
30
0.0
10
1673.0
20
-7643.0
30
0.0
10
1658.0
20
-7650.0
30
0.0
10
1646.0
20
-7657.0
30
0.0
10
1638.0
20
-7661.0
30
0.0
10
1635.0
20
-7663.0
30
0.0
10
1380.0
20
-7517.0
30
0.0
10
1380.0
20
-7510.0
30
0.0
10
1378.0
20
-7490.0
30
0.0
10
1376.0
20
-7460.0
30
0.0
10
1372.0
20
-7423.0
30
0.0
10
1367.0
20
-7384.0
30
0.0
10
1360.0
20
-7344.0
30
0.0
10
1351.0
20
-7307.0
30
0.0
10
1341.0
20
-7278.0
30
0.0
10
1330.0
20
-7253.0
30
0.0
10
1317.0
20
-7232.0
30
0.0
10
1302.0
20
-7213.0
30
0.0
10
1285.0
20
-7196.0
30
0.0
10
1267.0
20
-7180.0
30
0.0
10
1247.0
20
-7164.0
30
0.0
10
1222.0
20
-7145.0
30
0.0
10
1194.0
20
-7126.0
30
0.0
10
1165.0
20
-7108.0
30
0.0
10
1134.0
20
-7090.0
30
0.0
10
1101.0
20
-7073.0
30
0.0
10
1068.0
20
-7059.0
30
0.0
10
1034.0
20
-7048.0
30
0.0
10
1000.0
20
-7040.0
30
0.0
10
966.0
20
-7034.0
30
0.0
10
932.0
20
-7031.0
30
0.0
10
899.0
20
-7028.0
30
0.0
10
867.0
20
-7026.0
30
0.0
10
837.0
20
-7024.0
30
0.0
10
808.0
20
-7022.0
30
0.0
10
782.0
20
-7018.0
30
0.0
10
757.0
20
-7014.0
30
0.0
10
732.0
20
-7007.0
30
0.0
10
706.0
20
-6999.0
30
0.0
10
678.0
20
-6988.0
30
0.0
10
646.0
20
-6975.0
30
0.0
10
610.0
20
-6959.0
30
0.0
10
559.0
20
-6934.0
30
0.0
10
503.0
20
-6908.0
30
0.0
10
447.0
20
-6881.0
30
0.0
10
396.0
20
-6856.0
30
0.0
10
354.0
20
-6835.0
30
0.0
10
326.0
20
-6821.0
30
0.0
10
315.0
20
-6816.0
30
0.0
10
318.0
20
-6811.0
30
0.0
10
325.0
20
-6800.0
30
0.0
10
334.0
20
-6782.0
30
0.0
10
346.0
20
-6759.0
30
0.0
10
357.0
20
-6733.0
30
0.0
10
368.0
20
-6705.0
30
0.0
10
376.0
20
-6675.0
30
0.0
10
382.0
20
-6632.0
30
0.0
10
382.0
20
-6589.0
30
0.0
10
377.0
20
-6546.0
30
0.0
10
368.0
20
-6503.0
30
0.0
10
356.0
20
-6458.0
30
0.0
10
342.0
20
-6411.0
30
0.0
10
327.0
20
-6363.0
30
0.0
10
311.0
20
-6308.0
30
0.0
10
295.0
20
-6252.0
30
0.0
10
280.0
20
-6196.0
30
0.0
10
266.0
20
-6141.0
30
0.0
10
253.0
20
-6089.0
30
0.0
10
241.0
20
-6042.0
30
0.0
10
230.0
20
-6000.0
30
0.0
10
223.0
20
-5976.0
30
0.0
10
216.0
20
-5955.0
30
0.0
10
209.0
20
-5935.0
30
0.0
10
201.0
20
-5915.0
30
0.0
10
192.0
20
-5895.0
30
0.0
10
180.0
20
-5874.0
30
0.0
10
166.0
20
-5851.0
30
0.0
10
148.0
20
-5824.0
30
0.0
10
128.0
20
-5797.0
30
0.0
10
108.0
20
-5769.0
30
0.0
10
90.0
20
-5745.0
30
0.0
10
75.0
20
-5725.0
30
0.0
10
65.0
20
-5712.0
30
0.0
10
61.0
20
-5707.0
30
0.0
10
65.0
20
-5702.0
30
0.0
10
75.0
20
-5689.0
30
0.0
10
88.0
20
-5669.0
30
0.0
10
103.0
20
-5645.0
30
0.0
10
117.0
20
-5620.0
30
0.0
10
128.0
20
-5595.0
30
0.0
10
132.0
20
-5573.0
30
0.0
10
130.0
20
-5557.0
30
0.0
10
122.0
20
-5544.0
30
0.0
10
111.0
20
-5533.0
30
0.0
10
97.0
20
-5523.0
30
0.0
10
81.0
20
-5514.0
30
0.0
10
64.0
20
-5505.0
30
0.0
10
48.0
20
-5494.0
30
0.0
10
37.0
20
-5485.0
30
0.0
10
26.0
20
-5475.0
30
0.0
10
17.0
20
-5465.0
30
0.0
10
10.0
20
-5457.0
30
0.0
10
5.0
20
-5449.0
30
0.0
10
1.0
20
-5445.0
30
0.0
10
0.0
20
-5443.0
30
0.0
10
3.0
20
-5439.0
30
0.0
10
10.0
20
-5427.0
30
0.0
10
21.0
20
-5410.0
30
0.0
10
33.0
20
-5388.0
30
0.0
10
46.0
20
-5363.0
30
0.0
10
58.0
20
-5336.0
30
0.0
10
68.0
20
-5308.0
30
0.0
10
74.0
20
-5277.0
30
0.0
10
76.0
20
-5247.0
30
0.0
10
76.0
20
-5218.0
30
0.0
10
73.0
20
-5189.0
30
0.0
10
69.0
20
-5160.0
30
0.0
10
65.0
20
-5131.0
30
0.0
10
62.0
20
-5102.0
30
0.0
10
61.0
20
-5068.0
30
0.0
10
62.0
20
-5033.0
30
0.0
10
63.0
20
-4996.0
30
0.0
10
66.0
20
-4959.0
30
0.0
10
67.0
20
-4920.0
30
0.0
10
67.0
20
-4879.0
30
0.0
10
64.0
20
-4837.0
30
0.0
10
59.0
20
-4801.0
30
0.0
10
53.0
20
-4766.0
30
0.0
10
46.0
20
-4733.0
30
0.0
10
40.0
20
-4705.0
30
0.0
10
34.0
20
-4682.0
30
0.0
10
30.0
20
-4667.0
30
0.0
10
29.0
20
-4662.0
30
0.0
10
37.0
20
-4657.0
30
0.0
6
Solid
370
35
62
0
0
LWPOLYLINE
5
f8b
100
AcDbEntity
100
AcDbPolyline
90
6
70
1
10
4615.0
20
-7696.0
30
0.0
10
4652.0
20
-7811.0
30
0.0
10
4546.0
20
-7860.0
30
0.0
10
4498.0
20
-7772.0
30
0.0
10
4486.0
20
-7682.0
30
0.0
10
4615.0
20
-7696.0
30
0.0
6
Solid
370
35
62
0
0
LWPOLYLINE
5
f8d
100
AcDbEntity
100
AcDbPolyline
90
7
70
1
10
2434.0
20
-8039.0
30
0.0
10
2529.0
20
-8016.0
30
0.0
10
2612.0
20
-8073.0
30
0.0
10
2670.0
20
-8190.0
30
0.0
10
2631.0
20
-8284.0
30
0.0
10
2388.0
20
-8112.0
30
0.0
10
2434.0
20
-8039.0
30
0.0
6
Solid
370
35
62
0
0
LWPOLYLINE
5
f8f
100
AcDbEntity
100
AcDbPolyline
90
6
70
1
10
10506.0
20
-7107.0
30
0.0
10
10473.0
20
-7175.0
30
0.0
10
10422.0
20
-7211.0
30
0.0
10
10373.0
20
-7125.0
30
0.0
10
10451.0
20
-7040.0
30
0.0
10
10506.0
20
-7107.0
30
0.0
6
Solid
370
35
62
0
0
LWPOLYLINE
5
f91
100
AcDbEntity
100
AcDbPolyline
90
6
70
1
10
8288.0
20
-7598.0
30
0.0
10
8290.0
20
-7724.0
30
0.0
10
8220.0
20
-7750.0
30
0.0
10
8191.0
20
-7703.0
30
0.0
10
8189.0
20
-7626.0
30
0.0
10
8288.0
20
-7598.0
30
0.0
6
Solid
370
35
62
0
0
LWPOLYLINE
5
f93
100
AcDbEntity
100
AcDbPolyline
90
5
70
1
10
7489.0
20
-4928.0
30
0.0
10
7517.0
20
-5043.0
30
0.0
10
7357.0
20
-5053.0
30
0.0
10
7386.0
20
-4929.0
30
0.0
10
7489.0
20
-4928.0
30
0.0
6
Solid
370
35
62
0
0
LWPOLYLINE
5
f95
100
AcDbEntity
100
AcDbPolyline
90
5
70
1
10
7403.0
20
-4241.0
30
0.0
10
7409.0
20
-4295.0
30
0.0
10
7343.0
20
-4304.0
30
0.0
10
7331.0
20
-4237.0
30
0.0
10
7403.0
20
-4241.0
30
0.0
6
Solid
370
35
62
0
0
LWPOLYLINE
5
f97
100
AcDbEntity
100
AcDbPolyline
90
5
70
1
10
9707.0
20
-975.0
30
0.0
10
9627.0
20
-985.0
30
0.0
10
9613.0
20
-876.0
30
0.0
10
9693.0
20
-869.0
30
0.0
10
9707.0
20
-975.0
30
0.0
6
Solid
370
35
62
0
0
LWPOLYLINE
5
f99
100
AcDbEntity
100
AcDbPolyline
90
5
70
1
10
3199.0
20
-5440.0
30
0.0
10
3188.0
20
-5523.0
30
0.0
10
3084.0
20
-5518.0
30
0.0
10
3100.0
20
-5450.0
30
0.0
10
3199.0
20
-5440.0
30
0.0
6
Solid
370
35
62
0
0
LWPOLYLINE
5
f9b
100
AcDbEntity
100
AcDbPolyline
90
5
70
1
10
3096.0
20
-4731.0
30
0.0
10
3098.0
20
-4794.0
30
0.0
10
3022.0
20
-4788.0
30
0.0
10
3021.0
20
-4733.0
30
0.0
10
3096.0
20
-4731.0
30
0.0
6
Solid
370
35
62
0
0
LWPOLYLINE
5
f9d
100
AcDbEntity
100
AcDbPolyline
90
5
70
1
10
2417.0
20
-4144.0
30
0.0
10
2411.0
20
-4227.0
30
0.0
10
2327.0
20
-4214.0
30
0.0
10
2331.0
20
-4134.0
30
0.0
10
2417.0
20
-4144.0
30
0.0
6
Solid
370
35
62
0
0
LWPOLYLINE
5
f9f
100
AcDbEntity
100
AcDbPolyline
90
7
70
1
10
1361.0
20
-4250.0
30
0.0
10
1374.0
20
-4305.0
30
0.0
10
1337.0
20
-4346.0
30
0.0
10
1262.0
20
-4362.0
30
0.0
10
1224.0
20
-4297.0
30
0.0
10
1299.0
20
-4209.0
30
0.0
10
1361.0
20
-4250.0
30
0.0
6
Solid
370
35
62
0
0
LWPOLYLINE
5
fa1
100
AcDbEntity
100
AcDbPolyline
90
6
70
1
10
1820.0
20
-2735.0
30
0.0
10
1754.0
20
-2778.0
30
0.0
10
1674.0
20
-2760.0
30
0.0
10
1675.0
20
-2664.0
30
0.0
10
1793.0
20
-2666.0
30
0.0
10
1820.0
20
-2735.0
30
0.0
6
Solid
370
35
62
0
0
LWPOLYLINE
5
fa4
100
AcDbEntity
8
zone_0_q2
100
AcDbPolyline
90
82
70
1
10
6182.0
20
-1402.0
30
0.0
10
6130.0
20
-1888.0
30
0.0
10
5611.0
20
-2239.0
30
0.0
10
5113.0
20
-2386.0
30
0.0
10
4638.0
20
-2519.0
30
0.0
10
4374.0
20
-2377.0
30
0.0
10
4163.0
20
-2236.0
30
0.0
10
3815.0
20
-1947.0
30
0.0
10
3671.0
20
-1509.0
30
0.0
10
3678.0
20
-1516.0
30
0.0
10
3697.0
20
-1534.0
30
0.0
10
3725.0
20
-1560.0
30
0.0
10
3761.0
20
-1592.0
30
0.0
10
3801.0
20
-1626.0
30
0.0
10
3844.0
20
-1659.0
30
0.0
10
3886.0
20
-1688.0
30
0.0
10
3925.0
20
-1710.0
30
0.0
10
3963.0
20
-1727.0
30
0.0
10
3999.0
20
-1739.0
30
0.0
10
4034.0
20
-1749.0
30
0.0
10
4069.0
20
-1756.0
30
0.0
10
4105.0
20
-1763.0
30
0.0
10
4141.0
20
-1770.0
30
0.0
10
4183.0
20
-1779.0
30
0.0
10
4226.0
20
-1790.0
30
0.0
10
4270.0
20
-1801.0
30
0.0
10
4315.0
20
-1812.0
30
0.0
10
4360.0
20
-1824.0
30
0.0
10
4406.0
20
-1834.0
30
0.0
10
4452.0
20
-1842.0
30
0.0
10
4495.0
20
-1848.0
30
0.0
10
4538.0
20
-1852.0
30
0.0
10
4580.0
20
-1853.0
30
0.0
10
4622.0
20
-1853.0
30
0.0
10
4663.0
20
-1850.0
30
0.0
10
4703.0
20
-1844.0
30
0.0
10
4743.0
20
-1836.0
30
0.0
10
4782.0
20
-1826.0
30
0.0
10
4820.0
20
-1814.0
30
0.0
10
4858.0
20
-1800.0
30
0.0
10
4895.0
20
-1785.0
30
0.0
10
4932.0
20
-1768.0
30
0.0
10
4969.0
20
-1752.0
30
0.0
10
5005.0
20
-1735.0
30
0.0
10
5042.0
20
-1717.0
30
0.0
10
5079.0
20
-1699.0
30
0.0
10
5115.0
20
-1679.0
30
0.0
10
5150.0
20
-1656.0
30
0.0
10
5184.0
20
-1630.0
30
0.0
10
5216.0
20
-1598.0
30
0.0
10
5246.0
20
-1561.0
30
0.0
10
5273.0
20
-1521.0
30
0.0
10
5296.0
20
-1478.0
30
0.0
10
5317.0
20
-1436.0
30
0.0
10
5335.0
20
-1398.0
30
0.0
10
5348.0
20
-1367.0
30
0.0
10
5356.0
20
-1346.0
30
0.0
10
5359.0
20
-1338.0
30
0.0
10
5366.0
20
-1336.0
30
0.0
10
5385.0
20
-1329.0
30
0.0
10
5413.0
20
-1319.0
30
0.0
10
5448.0
20
-1306.0
30
0.0
10
5487.0
20
-1293.0
30
0.0
10
5527.0
20
-1279.0
30
0.0
10
5566.0
20
-1267.0
30
0.0
10
5603.0
20
-1256.0
30
0.0
10
5637.0
20
-1246.0
30
0.0
10
5669.0
20
-1236.0
30
0.0
10
5698.0
20
-1226.0
30
0.0
10
5727.0
20
-1214.0
30
0.0
10
5756.0
20
-1199.0
30
0.0
10
5785.0
20
-1180.0
30
0.0
10
5811.0
20
-1160.0
30
0.0
10
5837.0
20
-1139.0
30
0.0
10
5861.0
20
-1118.0
30
0.0
10
5882.0
20
-1099.0
30
0.0
10
5898.0
20
-1083.0
30
0.0
10
5909.0
20
-1072.0
30
0.0
10
5913.0
20
-1068.0
30
0.0
10
6148.0
20
-1171.0
30
0.0
10
6223.0
20
-1115.0
30
0.0
10
6182.0
20
-1402.0
30
0.0
6
Solid
370
35
62
2
0
LWPOLYLINE
5
fa7
100
AcDbEntity
8
zone_1_q2
100
AcDbPolyline
90
92
70
1
10
4650.0
20
-8561.0
30
0.0
10
4689.0
20
-8516.0
30
0.0
10
4801.0
20
-8192.0
30
0.0
10
4942.0
20
-7949.0
30
0.0
10
5074.0
20
-7775.0
30
0.0
10
5398.0
20
-7570.0
30
0.0
10
5779.0
20
-7506.0
30
0.0
10
6183.0
20
-7487.0
30
0.0
10
6539.0
20
-7695.0
30
0.0
10
6632.0
20
-7945.0
30
0.0
10
6687.0
20
-8183.0
30
0.0
10
6719.0
20
-8366.0
30
0.0
10
6744.0
20
-8627.0
30
0.0
10
6725.0
20
-8621.0
30
0.0
10
6707.0
20
-8615.0
30
0.0
10
6689.0
20
-8609.0
30
0.0
10
6671.0
20
-8604.0
30
0.0
10
6653.0
20
-8599.0
30
0.0
10
6635.0
20
-8595.0
30
0.0
10
6618.0
20
-8591.0
30
0.0
10
6571.0
20
-8582.0
30
0.0
10
6525.0
20
-8577.0
30
0.0
10
6481.0
20
-8574.0
30
0.0
10
6439.0
20
-8574.0
30
0.0
10
6396.0
20
-8574.0
30
0.0
10
6354.0
20
-8575.0
30
0.0
10
6311.0
20
-8576.0
30
0.0
10
6272.0
20
-8575.0
30
0.0
10
6232.0
20
-8575.0
30
0.0
10
6192.0
20
-8574.0
30
0.0
10
6154.0
20
-8575.0
30
0.0
10
6117.0
20
-8576.0
30
0.0
10
6083.0
20
-8580.0
30
0.0
10
6052.0
20
-8586.0
30
0.0
10
6029.0
20
-8593.0
30
0.0
10
6008.0
20
-8602.0
30
0.0
10
5989.0
20
-8612.0
30
0.0
10
5969.0
20
-8623.0
30
0.0
10
5950.0
20
-8636.0
30
0.0
10
5929.0
20
-8649.0
30
0.0
10
5907.0
20
-8663.0
30
0.0
10
5877.0
20
-8682.0
30
0.0
10
5844.0
20
-8700.0
30
0.0
10
5809.0
20
-8717.0
30
0.0
10
5773.0
20
-8733.0
30
0.0
10
5737.0
20
-8747.0
30
0.0
10
5701.0
20
-8757.0
30
0.0
10
5666.0
20
-8763.0
30
0.0
10
5646.0
20
-8765.0
30
0.0
10
5628.0
20
-8765.0
30
0.0
10
5612.0
20
-8765.0
30
0.0
10
5598.0
20
-8764.0
30
0.0
10
5587.0
20
-8763.0
30
0.0
10
5580.0
20
-8762.0
30
0.0
10
5578.0
20
-8762.0
30
0.0
10
5568.0
20
-8759.0
30
0.0
10
5542.0
20
-8753.0
30
0.0
10
5503.0
20
-8744.0
30
0.0
10
5455.0
20
-8734.0
30
0.0
10
5403.0
20
-8725.0
30
0.0
10
5352.0
20
-8717.0
30
0.0
10
5304.0
20
-8711.0
30
0.0
10
5273.0
20
-8710.0
30
0.0
10
5245.0
20
-8711.0
30
0.0
10
5222.0
20
-8714.0
30
0.0
10
5201.0
20
-8719.0
30
0.0
10
5182.0
20
-8726.0
30
0.0
10
5165.0
20
-8735.0
30
0.0
10
5149.0
20
-8746.0
30
0.0
10
5135.0
20
-8756.0
30
0.0
10
5122.0
20
-8767.0
30
0.0
10
5108.0
20
-8778.0
30
0.0
10
5094.0
20
-8788.0
30
0.0
10
5080.0
20
-8796.0
30
0.0
10
5066.0
20
-8802.0
30
0.0
10
5051.0
20
-8805.0
30
0.0
10
5030.0
20
-8803.0
30
0.0
10
5008.0
20
-8798.0
30
0.0
10
4984.0
20
-8790.0
30
0.0
10
4959.0
20
-8782.0
30
0.0
10
4931.0
20
-8774.0
30
0.0
10
4902.0
20
-8770.0
30
0.0
10
4870.0
20
-8771.0
30
0.0
10
4834.0
20
-8777.0
30
0.0
10
4799.0
20
-8789.0
30
0.0
10
4765.0
20
-8803.0
30
0.0
10
4734.0
20
-8818.0
30
0.0
10
4710.0
20
-8831.0
30
0.0
10
4694.0
20
-8841.0
30
0.0
10
4688.0
20
-8845.0
30
0.0
10
4667.0
20
-8692.0
30
0.0
10
4650.0
20
-8561.0
30
0.0
6
Solid
370
35
62
2
0
LWPOLYLINE
5
faa
100
AcDbEntity
8
zone_2_q3
100
AcDbPolyline
90
5
70
1
10
9501.0
20
-8450.0
30
0.0
10
8538.0
20
-8607.0
30
0.0
10
8428.0
20
-7806.0
30
0.0
10
9172.0
20
-7641.0
30
0.0
10
9501.0
20
-8450.0
30
0.0
6
Solid
370
35
62
3
0
LWPOLYLINE
5
fad
100
AcDbEntity
8
zone_3_q3
100
AcDbPolyline
90
5
70
1
10
3545.0
20
-8461.0
30
0.0
10
3620.0
20
-7711.0
30
0.0
10
4297.0
20
-7700.0
30
0.0
10
4192.0
20
-8492.0
30
0.0
10
3545.0
20
-8461.0
30
0.0
6
Solid
370
35
62
3
0
LWPOLYLINE
5
fb0
100
AcDbEntity
8
zone_4_q3
100
AcDbPolyline
90
5
70
1
10
3931.0
20
-2704.0
30
0.0
10
2979.0
20
-2773.0
30
0.0
10
2804.0
20
-1735.0
30
0.0
10
3748.0
20
-1826.0
30
0.0
10
3931.0
20
-2704.0
30
0.0
6
Solid
370
35
62
3
0
LWPOLYLINE
5
fb3
100
AcDbEntity
8
zone_5_q3
100
AcDbPolyline
90
5
70
1
10
7693.0
20
-601.0
30
0.0
10
8794.0
20
-545.0
30
0.0
10
8941.0
20
-1173.0
30
0.0
10
8022.0
20
-1439.0
30
0.0
10
7693.0
20
-601.0
30
0.0
6
Solid
370
35
62
3
0
LWPOLYLINE
5
fb6
100
AcDbEntity
8
zone_6_q3
100
AcDbPolyline
90
17
70
1
10
6159.0
20
-2151.0
30
0.0
10
6538.0
20
-2001.0
30
0.0
10
6796.0
20
-1936.0
30
0.0
10
7045.0
20
-1885.0
30
0.0
10
7393.0
20
-1827.0
30
0.0
10
7632.0
20
-2025.0
30
0.0
10
7695.0
20
-2104.0
30
0.0
10
7558.0
20
-2343.0
30
0.0
10
7396.0
20
-2487.0
30
0.0
10
7205.0
20
-2651.0
30
0.0
10
6948.0
20
-2803.0
30
0.0
10
6785.0
20
-2877.0
30
0.0
10
6531.0
20
-2815.0
30
0.0
10
6330.0
20
-2704.0
30
0.0
10
6083.0
20
-2604.0
30
0.0
10
6020.0
20
-2284.0
30
0.0
10
6159.0
20
-2151.0
30
0.0
6
Solid
370
35
62
3
0
ENDSEC
0
SECTION
2
OBJECTS
0
DICTIONARY
5
f87
330
0
100
AcDbDictionary
281
1
3
ACAD_GROUP
350
f88
0
DICTIONARY
5
f88
330
f87
100
AcDbDictionary
281
1
0
ENDSEC
0
EOF
