999

0
SECTION
2
HEADER
9
$ACADVER
1
AC1021
9
$HANDSEED
5
feb
0
ENDSEC
0
SECTION
2
CLASSES
0
ENDSEC
0
SECTION
2
TABLES
0
TABLE
2
VPORT
5
fb9
100
AcDbSymbolTable
70
1
0
VPORT
5
fb8
100
AcDbSymbolTableRecord
100
AcDbViewportTableRecord
2
*ACTIVE
10
0
20
0
11
1
21
1
12
500.0
22
500.0
40
1000.0
70
0
0
ENDTAB
0
TABLE
2
LTYPE
5
fba
100
AcDbSymbolTable
70
3
0
LTYPE
5
fc2
100
AcDbSymbolTableRecord
100
AcDbLinetypeTableRecord
2
Solid
70
0
72
65
73
0
3

0
LTYPE
5
fc3
100
AcDbSymbolTableRecord
100
AcDbLinetypeTableRecord
2
ByBlock
70
0
72
65
73
0
3

0
LTYPE
5
fc4
100
AcDbSymbolTableRecord
100
AcDbLinetypeTableRecord
2
ByLayer
70
0
72
65
73
0
3

0
ENDTAB
0
TABLE
2
LAYER
5
fbb
100
AcDbSymbolTable
70
7
0
LAYER
5
fc5
100
AcDbSymbolTableRecord
100
AcDbLayerTableRecord
2
0
70
0
390
0
0
LAYER
5
fd9
100
AcDbSymbolTableRecord
100
AcDbLayerTableRecord
2
zone_0_q3
70
0
390
0
0
LAYER
5
fdc
100
AcDbSymbolTableRecord
100
AcDbLayerTableRecord
2
zone_1_q3
70
0
390
0
0
LAYER
5
fdf
100
AcDbSymbolTableRecord
100
AcDbLayerTableRecord
2
zone_2_q3
70
0
390
0
0
LAYER
5
fe2
100
AcDbSymbolTableRecord
100
AcDbLayerTableRecord
2
zone_3_q3
70
0
390
0
0
LAYER
5
fe5
100
AcDbSymbolTableRecord
100
AcDbLayerTableRecord
2
zone_4_q3
70
0
390
0
0
LAYER
5
fe8
100
AcDbSymbolTableRecord
100
AcDbLayerTableRecord
2
zone_5_q2
70
0
390
0
0
ENDTAB
0
TABLE
2
STYLE
5
fbc
100
AcDbSymbolTable
70
0
0
ENDTAB
0
TABLE
2
VIEW
5
fbd
100
AcDbSymbolTable
70
0
0
ENDTAB
0
TABLE
2
UCS
5
fbe
100
AcDbSymbolTable
70
0
0
ENDTAB
0
TABLE
2
APPID
5
fbf
100
AcDbSymbolTable
70
1
0
APPID
5
fc6
100
AcDbSymbolTableRecord
100
AcDbRegAppTableRecord
2
ACAD
70
0
0
ENDTAB
0
TABLE
2
DIMSTYLE
5
fc0
100
AcDbSymbolTable
70
0
100
AcDbDimStyleTable
71
1
0
ENDTAB
0
TABLE
2
BLOCK_RECORD
5
fc1
100
AcDbSymbolTable
70
2
0
BLOCK_RECORD
5
fc7
100
AcDbSymbolTableRecord
100
AcDbBlockTableRecord
2
*Model_Space
70
0
280
1
281
0
0
BLOCK_RECORD
5
fc8
100
AcDbSymbolTableRecord
100
AcDbBlockTableRecord
2
*Paper_Space
70
0
280
1
281
0
0
ENDTAB
0
ENDSEC
0
SECTION
2
BLOCKS
0
BLOCK
5
fc9
100
AcDbEntity
100
AcDbBlockBegin
2
*Model_Space
70
0
10
0
20
0
30
0
3
*Model_Space
1

0
ENDBLK
5
fca
100
AcDbEntity
100
AcDbBlockEnd
0
BLOCK
5
fcb
100
AcDbEntity
100
AcDbBlockBegin
2
*Paper_Space
70
0
10
0
20
0
30
0
3
*Paper_Space
1

0
ENDBLK
5
fcc
100
AcDbEntity
100
AcDbBlockEnd
0
ENDSEC
0
SECTION
2
ENTITIES
0
LWPOLYLINE
5
fcf
100
AcDbEntity
100
AcDbPolyline
90
1300
70
1
10
170.0
20
-3629.0
30
0.0
10
184.0
20
-3620.0
30
0.0
10
207.0
20
-3607.0
30
0.0
10
235.0
20
-3591.0
30
0.0
10
267.0
20
-3575.0
30
0.0
10
302.0
20
-3559.0
30
0.0
10
337.0
20
-3545.0
30
0.0
10
376.0
20
-3533.0
30
0.0
10
414.0
20
-3525.0
30
0.0
10
451.0
20
-3520.0
30
0.0
10
487.0
20
-3517.0
30
0.0
10
523.0
20
-3516.0
30
0.0
10
559.0
20
-3514.0
30
0.0
10
596.0
20
-3513.0
30
0.0
10
633.0
20
-3509.0
30
0.0
10
670.0
20
-3505.0
30
0.0
10
707.0
20
-3498.0
30
0.0
10
743.0
20
-3490.0
30
0.0
10
778.0
20
-3481.0
30
0.0
10
810.0
20
-3470.0
30
0.0
10
838.0
20
-3458.0
30
0.0
10
857.0
20
-3448.0
30
0.0
10
875.0
20
-3437.0
30
0.0
10
891.0
20
-3426.0
30
0.0
10
905.0
20
-3414.0
30
0.0
10
919.0
20
-3403.0
30
0.0
10
933.0
20
-3391.0
30
0.0
10
946.0
20
-3380.0
30
0.0
10
961.0
20
-3368.0
30
0.0
10
976.0
20
-3356.0
30
0.0
10
992.0
20
-3344.0
30
0.0
10
1008.0
20
-3330.0
30
0.0
10
1026.0
20
-3316.0
30
0.0
10
1045.0
20
-3300.0
30
0.0
10
1066.0
20
-3282.0
30
0.0
10
1090.0
20
-3260.0
30
0.0
10
1114.0
20
-3238.0
30
0.0
10
1137.0
20
-3216.0
30
0.0
10
1158.0
20
-3196.0
30
0.0
10
1175.0
20
-3179.0
30
0.0
10
1186.0
20
-3168.0
30
0.0
10
1190.0
20
-3164.0
30
0.0
10
1194.0
20
-3166.0
30
0.0
10
1206.0
20
-3172.0
30
0.0
10
1223.0
20
-3180.0
30
0.0
10
1245.0
20
-3189.0
30
0.0
10
1270.0
20
-3197.0
30
0.0
10
1298.0
20
-3205.0
30
0.0
10
1326.0
20
-3210.0
30
0.0
10
1350.0
20
-3212.0
30
0.0
10
1373.0
20
-3212.0
30
0.0
10
1394.0
20
-3210.0
30
0.0
10
1412.0
20
-3208.0
30
0.0
10
1426.0
20
-3206.0
30
0.0
10
1434.0
20
-3204.0
30
0.0
10
1438.0
20
-3203.0
30
0.0
10
1480.0
20
-3127.0
30
0.0
10
1482.0
20
-3126.0
30
0.0
10
1489.0
20
-3124.0
30
0.0
10
1498.0
20
-3120.0
30
0.0
10
1509.0
20
-3115.0
30
0.0
10
1521.0
20
-3107.0
30
0.0
10
1532.0
20
-3098.0
30
0.0
10
1542.0
20
-3087.0
30
0.0
10
1548.0
20
-3073.0
30
0.0
10
1553.0
20
-3058.0
30
0.0
10
1555.0
20
-3044.0
30
0.0
10
1556.0
20
-3030.0
30
0.0
10
1556.0
20
-3019.0
30
0.0
10
1555.0
20
-3011.0
30
0.0
10
1555.0
20
-3009.0
30
0.0
10
1557.0
20
-3007.0
30
0.0
10
1564.0
20
-3003.0
30
0.0
10
1575.0
20
-2997.0
30
0.0
10
1588.0
20
-2989.0
30
0.0
10
1602.0
20
-2978.0
30
0.0
10
1616.0
20
-2967.0
30
0.0
10
1629.0
20
-2954.0
30
0.0
10
1644.0
20
-2935.0
30
0.0
10
1656.0
20
-2915.0
30
0.0
10
1665.0
20
-2894.0
30
0.0
10
1671.0
20
-2871.0
30
0.0
10
1676.0
20
-2847.0
30
0.0
10
1680.0
20
-2822.0
30
0.0
10
1683.0
20
-2797.0
30
0.0
10
1685.0
20
-2776.0
30
0.0
10
1687.0
20
-2757.0
30
0.0
10
1688.0
20
-2739.0
30
0.0
10
1689.0
20
-2723.0
30
0.0
10
1690.0
20
-2710.0
30
0.0
10
1691.0
20
-2702.0
30
0.0
10
1691.0
20
-2699.0
30
0.0
10
1751.0
20
-2566.0
30
0.0
10
1716.0
20
-2448.0
30
0.0
10
1715.0
20
-2445.0
30
0.0
10
1714.0
20
-2437.0
30
0.0
10
1714.0
20
-2426.0
30
0.0
10
1714.0
20
-2413.0
30
0.0
10
1714.0
20
-2398.0
30
0.0
10
1716.0
20
-2384.0
30
0.0
10
1720.0
20
-2371.0
30
0.0
10
1728.0
20
-2359.0
30
0.0
10
1739.0
20
-2350.0
30
0.0
10
1752.0
20
-2344.0
30
0.0
10
1768.0
20
-2339.0
30
0.0
10
1785.0
20
-2334.0
30
0.0
10
1804.0
20
-2328.0
30
0.0
10
1824.0
20
-2320.0
30
0.0
10
1846.0
20
-2309.0
30
0.0
10
1867.0
20
-2296.0
30
0.0
10
1886.0
20
-2282.0
30
0.0
10
1904.0
20
-2269.0
30
0.0
10
1917.0
20
-2258.0
30
0.0
10
1926.0
20
-2251.0
30
0.0
10
1930.0
20
-2248.0
30
0.0
10
1997.0
20
-2264.0
30
0.0
10
2001.0
20
-2264.0
30
0.0
10
2011.0
20
-2262.0
30
0.0
10
2026.0
20
-2260.0
30
0.0
10
2046.0
20
-2257.0
30
0.0
10
2068.0
20
-2255.0
30
0.0
10
2091.0
20
-2252.0
30
0.0
10
2115.0
20
-2250.0
30
0.0
10
2143.0
20
-2250.0
30
0.0
10
2170.0
20
-2250.0
30
0.0
10
2196.0
20
-2250.0
30
0.0
10
2221.0
20
-2250.0
30
0.0
10
2245.0
20
-2250.0
30
0.0
10
2269.0
20
-2248.0
30
0.0
10
2293.0
20
-2245.0
30
0.0
10
2315.0
20
-2240.0
30
0.0
10
2336.0
20
-2233.0
30
0.0
10
2356.0
20
-2224.0
30
0.0
10
2374.0
20
-2213.0
30
0.0
10
2391.0
20
-2201.0
30
0.0
10
2405.0
20
-2187.0
30
0.0
10
2416.0
20
-2171.0
30
0.0
10
2424.0
20
-2153.0
30
0.0
10
2428.0
20
-2133.0
30
0.0
10
2430.0
20
-2112.0
30
0.0
10
2428.0
20
-2090.0
30
0.0
10
2424.0
20
-2067.0
30
0.0
10
2418.0
20
-2043.0
30
0.0
10
2409.0
20
-2019.0
30
0.0
10
2396.0
20
-1988.0
30
0.0
10
2381.0
20
-1956.0
30
0.0
10
2363.0
20
-1926.0
30
0.0
10
2344.0
20
-1895.0
30
0.0
10
2324.0
20
-1866.0
30
0.0
10
2303.0
20
-1838.0
30
0.0
10
2281.0
20
-1813.0
30
0.0
10
2263.0
20
-1792.0
30
0.0
10
2244.0
20
-1773.0
30
0.0
10
2226.0
20
-1755.0
30
0.0
10
2208.0
20
-1739.0
30
0.0
10
2190.0
20
-1723.0
30
0.0
10
2172.0
20
-1707.0
30
0.0
10
2154.0
20
-1692.0
30
0.0
10
2138.0
20
-1678.0
30
0.0
10
2121.0
20
-1664.0
30
0.0
10
2105.0
20
-1649.0
30
0.0
10
2088.0
20
-1633.0
30
0.0
10
2070.0
20
-1616.0
30
0.0
10
2051.0
20
-1598.0
30
0.0
10
2031.0
20
-1577.0
30
0.0
10
2012.0
20
-1556.0
30
0.0
10
1991.0
20
-1535.0
30
0.0
10
1972.0
20
-1514.0
30
0.0
10
1955.0
20
-1495.0
30
0.0
10
1942.0
20
-1480.0
30
0.0
10
1933.0
20
-1470.0
30
0.0
10
1929.0
20
-1466.0
30
0.0
10
1932.0
20
-1463.0
30
0.0
10
1938.0
20
-1454.0
30
0.0
10
1947.0
20
-1440.0
30
0.0
10
1959.0
20
-1423.0
30
0.0
10
1974.0
20
-1405.0
30
0.0
10
1990.0
20
-1386.0
30
0.0
10
2008.0
20
-1367.0
30
0.0
10
2032.0
20
-1345.0
30
0.0
10
2056.0
20
-1326.0
30
0.0
10
2081.0
20
-1308.0
30
0.0
10
2105.0
20
-1291.0
30
0.0
10
2129.0
20
-1274.0
30
0.0
10
2153.0
20
-1256.0
30
0.0
10
2175.0
20
-1236.0
30
0.0
10
2197.0
20
-1212.0
30
0.0
10
2218.0
20
-1186.0
30
0.0
10
2238.0
20
-1158.0
30
0.0
10
2256.0
20
-1129.0
30
0.0
10
2274.0
20
-1099.0
30
0.0
10
2292.0
20
-1070.0
30
0.0
10
2309.0
20
-1041.0
30
0.0
10
2326.0
20
-1013.0
30
0.0
10
2343.0
20
-986.0
30
0.0
10
2361.0
20
-958.0
30
0.0
10
2378.0
20
-931.0
30
0.0
10
2396.0
20
-902.0
30
0.0
10
2414.0
20
-872.0
30
0.0
10
2432.0
20
-840.0
30
0.0
10
2446.0
20
-811.0
30
0.0
10
2461.0
20
-782.0
30
0.0
10
2474.0
20
-755.0
30
0.0
10
2485.0
20
-731.0
30
0.0
10
2494.0
20
-712.0
30
0.0
10
2500.0
20
-699.0
30
0.0
10
2502.0
20
-694.0
30
0.0
10
2509.0
20
-695.0
30
0.0
10
2528.0
20
-697.0
30
0.0
10
2556.0
20
-699.0
30
0.0
10
2591.0
20
-703.0
30
0.0
10
2630.0
20
-708.0
30
0.0
10
2670.0
20
-714.0
30
0.0
10
2709.0
20
-720.0
30
0.0
10
2743.0
20
-728.0
30
0.0
10
2774.0
20
-736.0
30
0.0
10
2801.0
20
-745.0
30
0.0
10
2826.0
20
-756.0
30
0.0
10
2848.0
20
-767.0
30
0.0
10
2867.0
20
-780.0
30
0.0
10
2884.0
20
-794.0
30
0.0
10
2896.0
20
-806.0
30
0.0
10
2908.0
20
-818.0
30
0.0
10
2919.0
20
-831.0
30
0.0
10
2930.0
20
-844.0
30
0.0
10
2940.0
20
-857.0
30
0.0
10
2952.0
20
-869.0
30
0.0
10
2964.0
20
-881.0
30
0.0
10
2978.0
20
-893.0
30
0.0
10
2993.0
20
-903.0
30
0.0
10
3009.0
20
-913.0
30
0.0
10
3025.0
20
-923.0
30
0.0
10
3041.0
20
-933.0
30
0.0
10
3058.0
20
-942.0
30
0.0
10
3074.0
20
-951.0
30
0.0
10
3090.0
20
-961.0
30
0.0
10
3106.0
20
-971.0
30
0.0
10
3122.0
20
-980.0
30
0.0
10
3138.0
20
-990.0
30
0.0
10
3155.0
20
-998.0
30
0.0
10
3172.0
20
-1006.0
30
0.0
10
3190.0
20
-1014.0
30
0.0
10
3213.0
20
-1021.0
30
0.0
10
3237.0
20
-1027.0
30
0.0
10
3262.0
20
-1031.0
30
0.0
10
3288.0
20
-1035.0
30
0.0
10
3314.0
20
-1038.0
30
0.0
10
3341.0
20
-1040.0
30
0.0
10
3367.0
20
-1042.0
30
0.0
10
3392.0
20
-1044.0
30
0.0
10
3417.0
20
-1045.0
30
0.0
10
3442.0
20
-1046.0
30
0.0
10
3466.0
20
-1045.0
30
0.0
10
3490.0
20
-1043.0
30
0.0
10
3515.0
20
-1039.0
30
0.0
10
3539.0
20
-1034.0
30
0.0
10
3564.0
20
-1026.0
30
0.0
10
3588.0
20
-1017.0
30
0.0
10
3613.0
20
-1008.0
30
0.0
10
3638.0
20
-1000.0
30
0.0
10
3662.0
20
-994.0
30
0.0
10
3685.0
20
-990.0
30
0.0
10
3708.0
20
-991.0
30
0.0
10
3730.0
20
-996.0
30
0.0
10
3751.0
20
-1005.0
30
0.0
10
3772.0
20
-1018.0
30
0.0
10
3793.0
20
-1033.0
30
0.0
10
3813.0
20
-1049.0
30
0.0
10
3833.0
20
-1066.0
30
0.0
10
3853.0
20
-1083.0
30
0.0
10
3873.0
20
-1099.0
30
0.0
10
3893.0
20
-1114.0
30
0.0
10
3912.0
20
-1129.0
30
0.0
10
3932.0
20
-1144.0
30
0.0
10
3950.0
20
-1160.0
30
0.0
10
3969.0
20
-1175.0
30
0.0
10
3986.0
20
-1192.0
30
0.0
10
4003.0
20
-1209.0
30
0.0
10
4019.0
20
-1228.0
30
0.0
10
4035.0
20
-1246.0
30
0.0
10
4051.0
20
-1264.0
30
0.0
10
4068.0
20
-1282.0
30
0.0
10
4087.0
20
-1299.0
30
0.0
10
4107.0
20
-1315.0
30
0.0
10
4132.0
20
-1330.0
30
0.0
10
4158.0
20
-1343.0
30
0.0
10
4186.0
20
-1354.0
30
0.0
10
4215.0
20
-1362.0
30
0.0
10
4244.0
20
-1368.0
30
0.0
10
4274.0
20
-1372.0
30
0.0
10
4303.0
20
-1374.0
30
0.0
10
4332.0
20
-1373.0
30
0.0
10
4361.0
20
-1369.0
30
0.0
10
4389.0
20
-1364.0
30
0.0
10
4419.0
20
-1357.0
30
0.0
10
4449.0
20
-1349.0
30
0.0
10
4481.0
20
-1340.0
30
0.0
10
4516.0
20
-1330.0
30
0.0
10
4548.0
20
-1321.0
30
0.0
10
4581.0
20
-1313.0
30
0.0
10
4612.0
20
-1305.0
30
0.0
10
4640.0
20
-1298.0
30
0.0
10
4662.0
20
-1292.0
30
0.0
10
4676.0
20
-1289.0
30
0.0
10
4682.0
20
-1287.0
30
0.0
10
4686.0
20
-1288.0
30
0.0
10
4699.0
20
-1290.0
30
0.0
10
4718.0
20
-1294.0
30
0.0
10
4741.0
20
-1299.0
30
0.0
10
4767.0
20
-1305.0
30
0.0
10
4794.0
20
-1314.0
30
0.0
10
4821.0
20
-1323.0
30
0.0
10
4851.0
20
-1337.0
30
0.0
10
4878.0
20
-1352.0
30
0.0
10
4904.0
20
-1368.0
30
0.0
10
4928.0
20
-1385.0
30
0.0
10
4951.0
20
-1402.0
30
0.0
10
4975.0
20
-1418.0
30
0.0
10
5000.0
20
-1434.0
30
0.0
10
5029.0
20
-1449.0
30
0.0
10
5060.0
20
-1462.0
30
0.0
10
5093.0
20
-1474.0
30
0.0
10
5128.0
20
-1484.0
30
0.0
10
5164.0
20
-1492.0
30
0.0
10
5202.0
20
-1499.0
30
0.0
10
5242.0
20
-1504.0
30
0.0
10
5293.0
20
-1507.0
30
0.0
10
5345.0
20
-1508.0
30
0.0
10
5398.0
20
-1507.0
30
0.0
10
5452.0
20
-1503.0
30
0.0
10
5505.0
20
-1495.0
30
0.0
10
5558.0
20
-1485.0
30
0.0
10
5610.0
20
-1472.0
30
0.0
10
5657.0
20
-1456.0
30
0.0
10
5702.0
20
-1439.0
30
0.0
10
5745.0
20
-1419.0
30
0.0
10
5787.0
20
-1398.0
30
0.0
10
5828.0
20
-1375.0
30
0.0
10
5867.0
20
-1353.0
30
0.0
10
5905.0
20
-1330.0
30
0.0
10
5928.0
20
-1316.0
30
0.0
10
5949.0
20
-1304.0
30
0.0
10
5968.0
20
-1292.0
30
0.0
10
5984.0
20
-1282.0
30
0.0
10
5997.0
20
-1274.0
30
0.0
10
6005.0
20
-1269.0
30
0.0
10
6008.0
20
-1268.0
30
0.0
10
6015.0
20
-1267.0
30
0.0
10
6036.0
20
-1265.0
30
0.0
10
6066.0
20
-1262.0
30
0.0
10
6103.0
20
-1257.0
30
0.0
10
6143.0
20
-1252.0
30
0.0
10
6182.0
20
-1247.0
30
0.0
10
6219.0
20
-1241.0
30
0.0
10
6244.0
20
-1236.0
30
0.0
10
6266.0
20
-1230.0
30
0.0
10
6285.0
20
-1223.0
30
0.0
10
6303.0
20
-1215.0
30
0.0
10
6319.0
20
-1206.0
30
0.0
10
6335.0
20
-1195.0
30
0.0
10
6352.0
20
-1182.0
30
0.0
10
6368.0
20
-1169.0
30
0.0
10
6384.0
20
-1156.0
30
0.0
10
6400.0
20
-1142.0
30
0.0
10
6413.0
20
-1130.0
30
0.0
10
6425.0
20
-1120.0
30
0.0
10
6432.0
20
-1113.0
30
0.0
10
6435.0
20
-1110.0
30
0.0
10
6440.0
20
-1110.0
30
0.0
10
6456.0
20
-1111.0
30
0.0
10
6481.0
20
-1111.0
30
0.0
10
6510.0
20
-1112.0
30
0.0
10
6544.0
20
-1114.0
30
0.0
10
6578.0
20
-1117.0
30
0.0
10
6612.0
20
-1121.0
30
0.0
10
6643.0
20
-1125.0
30
0.0
10
6672.0
20
-1131.0
30
0.0
10
6698.0
20
-1136.0
30
0.0
10
6723.0
20
-1141.0
30
0.0
10
6746.0
20
-1145.0
30
0.0
10
6769.0
20
-1146.0
30
0.0
10
6791.0
20
-1145.0
30
0.0
10
6812.0
20
-1142.0
30
0.0
10
6834.0
20
-1136.0
30
0.0
10
6857.0
20
-1128.0
30
0.0
10
6880.0
20
-1118.0
30
0.0
10
6903.0
20
-1108.0
30
0.0
10
6928.0
20
-1098.0
30
0.0
10
6953.0
20
-1088.0
30
0.0
10
6983.0
20
-1077.0
30
0.0
10
7014.0
20
-1067.0
30
0.0
10
7045.0
20
-1056.0
30
0.0
10
7075.0
20
-1044.0
30
0.0
10
7105.0
20
-1031.0
30
0.0
10
7132.0
20
-1015.0
30
0.0
10
7157.0
20
-996.0
30
0.0
10
7181.0
20
-972.0
30
0.0
10
7202.0
20
-945.0
30
0.0
10
7222.0
20
-915.0
30
0.0
10
7242.0
20
-885.0
30
0.0
10
7263.0
20
-854.0
30
0.0
10
7285.0
20
-824.0
30
0.0
10
7311.0
20
-797.0
30
0.0
10
7332.0
20
-779.0
30
0.0
10
7354.0
20
-762.0
30
0.0
10
7375.0
20
-748.0
30
0.0
10
7394.0
20
-737.0
30
0.0
10
7409.0
20
-729.0
30
0.0
10
7420.0
20
-723.0
30
0.0
10
7423.0
20
-721.0
30
0.0
10
7434.0
20
-724.0
30
0.0
10
7462.0
20
-732.0
30
0.0
10
7505.0
20
-743.0
30
0.0
10
7558.0
20
-755.0
30
0.0
10
7617.0
20
-765.0
30
0.0
10
7679.0
20
-773.0
30
0.0
10
7740.0
20
-775.0
30
0.0
10
7783.0
20
-773.0
30
0.0
10
7821.0
20
-767.0
30
0.0
10
7855.0
20
-760.0
30
0.0
10
7883.0
20
-753.0
30
0.0
10
7904.0
20
-746.0
30
0.0
10
7918.0
20
-741.0
30
0.0
10
7923.0
20
-739.0
30
0.0
10
7928.0
20
-741.0
30
0.0
10
7943.0
20
-747.0
30
0.0
10
7965.0
20
-755.0
30
0.0
10
7993.0
20
-764.0
30
0.0
10
8024.0
20
-774.0
30
0.0
10
8057.0
20
-782.0
30
0.0
10
8089.0
20
-788.0
30
0.0
10
8123.0
20
-791.0
30
0.0
10
8154.0
20
-790.0
30
0.0
10
8184.0
20
-786.0
30
0.0
10
8213.0
20
-778.0
30
0.0
10
8241.0
20
-768.0
30
0.0
10
8270.0
20
-756.0
30
0.0
10
8300.0
20
-743.0
30
0.0
10
8338.0
20
-725.0
30
0.0
10
8377.0
20
-705.0
30
0.0
10
8418.0
20
-683.0
30
0.0
10
8458.0
20
-660.0
30
0.0
10
8498.0
20
-635.0
30
0.0
10
8537.0
20
-608.0
30
0.0
10
8573.0
20
-580.0
30
0.0
10
8605.0
20
-552.0
30
0.0
10
8634.0
20
-522.0
30
0.0
10
8661.0
20
-491.0
30
0.0
10
8685.0
20
-459.0
30
0.0
10
8707.0
20
-425.0
30
0.0
10
8727.0
20
-391.0
30
0.0
10
8745.0
20
-356.0
30
0.0
10
8761.0
20
-320.0
30
0.0
10
8776.0
20
-284.0
30
0.0
10
8792.0
20
-248.0
30
0.0
10
8809.0
20
-212.0
30
0.0
10
8830.0
20
-177.0
30
0.0
10
8855.0
20
-144.0
30
0.0
10
8886.0
20
-112.0
30
0.0
10
8919.0
20
-86.0
30
0.0
10
8954.0
20
-63.0
30
0.0
10
8989.0
20
-42.0
30
0.0
10
9021.0
20
-24.0
30
0.0
10
9047.0
20
-11.0
30
0.0
10
9065.0
20
-3.0
30
0.0
10
9072.0
20
0.0
30
0.0
10
9074.0
20
-2.0
30
0.0
10
9080.0
20
-8.0
30
0.0
10
9089.0
20
-16.0
30
0.0
10
9101.0
20
-26.0
30
0.0
10
9115.0
20
-36.0
30
0.0
10
9131.0
20
-45.0
30
0.0
10
9149.0
20
-52.0
30
0.0
10
9167.0
20
-57.0
30
0.0
10
9185.0
20
-60.0
30
0.0
10
9202.0
20
-61.0
30
0.0
10
9217.0
20
-61.0
30
0.0
10
9229.0
20
-60.0
30
0.0
10
9237.0
20
-59.0
30
0.0
10
9240.0
20
-59.0
30
0.0
10
9239.0
20
-64.0
30
0.0
10
9239.0
20
-79.0
30
0.0
10
9238.0
20
-102.0
30
0.0
10
9240.0
20
-129.0
30
0.0
10
9243.0
20
-158.0
30
0.0
10
9249.0
20
-188.0
30
0.0
10
9259.0
20
-216.0
30
0.0
10
9275.0
20
-243.0
30
0.0
10
9296.0
20
-266.0
30
0.0
10
9319.0
20
-285.0
30
0.0
10
9343.0
20
-303.0
30
0.0
10
9368.0
20
-319.0
30
0.0
10
9390.0
20
-336.0
30
0.0
10
9410.0
20
-355.0
30
0.0
10
9424.0
20
-372.0
30
0.0
10
9435.0
20
-391.0
30
0.0
10
9445.0
20
-410.0
30
0.0
10
9455.0
20
-429.0
30
0.0
10
9466.0
20
-447.0
30
0.0
10
9479.0
20
-463.0
30
0.0
10
9495.0
20
-475.0
30
0.0
10
9511.0
20
-484.0
30
0.0
10
9529.0
20
-490.0
30
0.0
10
9548.0
20
-495.0
30
0.0
10
9566.0
20
-499.0
30
0.0
10
9582.0
20
-503.0
30
0.0
10
9594.0
20
-509.0
30
0.0
10
9601.0
20
-516.0
30
0.0
10
9603.0
20
-522.0
30
0.0
10
9602.0
20
-530.0
30
0.0
10
9600.0
20
-539.0
30
0.0
10
9599.0
20
-549.0
30
0.0
10
9598.0
20
-559.0
30
0.0
10
9601.0
20
-570.0
30
0.0
10
9607.0
20
-581.0
30
0.0
10
9630.0
20
-602.0
30
0.0
10
9667.0
20
-622.0
30
0.0
10
9709.0
20
-640.0
30
0.0
10
9753.0
20
-656.0
30
0.0
10
9791.0
20
-668.0
30
0.0
10
9819.0
20
-676.0
30
0.0
10
9829.0
20
-679.0
30
0.0
10
9825.0
20
-681.0
30
0.0
10
9813.0
20
-686.0
30
0.0
10
9797.0
20
-693.0
30
0.0
10
9777.0
20
-703.0
30
0.0
10
9757.0
20
-714.0
30
0.0
10
9738.0
20
-727.0
30
0.0
10
9721.0
20
-740.0
30
0.0
10
9710.0
20
-754.0
30
0.0
10
9704.0
20
-768.0
30
0.0
10
9701.0
20
-782.0
30
0.0
10
9702.0
20
-798.0
30
0.0
10
9706.0
20
-814.0
30
0.0
10
9713.0
20
-832.0
30
0.0
10
9722.0
20
-851.0
30
0.0
10
9734.0
20
-873.0
30
0.0
10
9748.0
20
-896.0
30
0.0
10
9762.0
20
-918.0
30
0.0
10
9774.0
20
-937.0
30
0.0
10
9785.0
20
-952.0
30
0.0
10
9792.0
20
-963.0
30
0.0
10
9794.0
20
-966.0
30
0.0
10
9792.0
20
-969.0
30
0.0
10
9784.0
20
-975.0
30
0.0
10
9771.0
20
-985.0
30
0.0
10
9757.0
20
-998.0
30
0.0
10
9740.0
20
-1014.0
30
0.0
10
9723.0
20
-1031.0
30
0.0
10
9707.0
20
-1049.0
30
0.0
10
9687.0
20
-1075.0
30
0.0
10
9670.0
20
-1102.0
30
0.0
10
9656.0
20
-1131.0
30
0.0
10
9645.0
20
-1162.0
30
0.0
10
9637.0
20
-1195.0
30
0.0
10
9631.0
20
-1231.0
30
0.0
10
9627.0
20
-1269.0
30
0.0
10
9625.0
20
-1305.0
30
0.0
10
9624.0
20
-1341.0
30
0.0
10
9624.0
20
-1376.0
30
0.0
10
9625.0
20
-1406.0
30
0.0
10
9626.0
20
-1431.0
30
0.0
10
9627.0
20
-1447.0
30
0.0
10
9627.0
20
-1453.0
30
0.0
10
9626.0
20
-1459.0
30
0.0
10
9623.0
20
-1475.0
30
0.0
10
9618.0
20
-1499.0
30
0.0
10
9612.0
20
-1530.0
30
0.0
10
9607.0
20
-1565.0
30
0.0
10
9602.0
20
-1604.0
30
0.0
10
9598.0
20
-1642.0
30
0.0
10
9595.0
20
-1688.0
30
0.0
10
9595.0
20
-1732.0
30
0.0
10
9597.0
20
-1774.0
30
0.0
10
9601.0
20
-1814.0
30
0.0
10
9606.0
20
-1852.0
30
0.0
10
9613.0
20
-1887.0
30
0.0
10
9621.0
20
-1920.0
30
0.0
10
9628.0
20
-1946.0
30
0.0
10
9636.0
20
-1970.0
30
0.0
10
9645.0
20
-1994.0
30
0.0
10
9655.0
20
-2017.0
30
0.0
10
9666.0
20
-2042.0
30
0.0
10
9679.0
20
-2067.0
30
0.0
10
9694.0
20
-2094.0
30
0.0
10
9709.0
20
-2120.0
30
0.0
10
9724.0
20
-2147.0
30
0.0
10
9739.0
20
-2173.0
30
0.0
10
9753.0
20
-2195.0
30
0.0
10
9764.0
20
-2213.0
30
0.0
10
9771.0
20
-2225.0
30
0.0
10
9774.0
20
-2230.0
30
0.0
10
9772.0
20
-2234.0
30
0.0
10
9768.0
20
-2245.0
30
0.0
10
9762.0
20
-2262.0
30
0.0
10
9755.0
20
-2286.0
30
0.0
10
9748.0
20
-2314.0
30
0.0
10
9742.0
20
-2346.0
30
0.0
10
9737.0
20
-2381.0
30
0.0
10
9733.0
20
-2428.0
30
0.0
10
9732.0
20
-2475.0
30
0.0
10
9733.0
20
-2520.0
30
0.0
10
9735.0
20
-2560.0
30
0.0
10
9738.0
20
-2592.0
30
0.0
10
9740.0
20
-2614.0
30
0.0
10
9741.0
20
-2621.0
30
0.0
10
9741.0
20
-2624.0
30
0.0
10
9740.0
20
-2631.0
30
0.0
10
9740.0
20
-2642.0
30
0.0
10
9740.0
20
-2656.0
30
0.0
10
9741.0
20
-2673.0
30
0.0
10
9742.0
20
-2693.0
30
0.0
10
9744.0
20
-2715.0
30
0.0
10
9749.0
20
-2747.0
30
0.0
10
9755.0
20
-2779.0
30
0.0
10
9762.0
20
-2810.0
30
0.0
10
9769.0
20
-2837.0
30
0.0
10
9775.0
20
-2859.0
30
0.0
10
9779.0
20
-2874.0
30
0.0
10
9780.0
20
-2879.0
30
0.0
10
9780.0
20
-2883.0
30
0.0
10
9780.0
20
-2892.0
30
0.0
10
9781.0
20
-2905.0
30
0.0
10
9783.0
20
-2921.0
30
0.0
10
9787.0
20
-2939.0
30
0.0
10
9793.0
20
-2957.0
30
0.0
10
9802.0
20
-2974.0
30
0.0
10
9813.0
20
-2988.0
30
0.0
10
9825.0
20
-3000.0
30
0.0
10
9838.0
20
-3009.0
30
0.0
10
9850.0
20
-3017.0
30
0.0
10
9861.0
20
-3022.0
30
0.0
10
9868.0
20
-3025.0
30
0.0
10
9870.0
20
-3026.0
30
0.0
10
9868.0
20
-3030.0
30
0.0
10
9864.0
20
-3039.0
30
0.0
10
9857.0
20
-3054.0
30
0.0
10
9850.0
20
-3074.0
30
0.0
10
9842.0
20
-3098.0
30
0.0
10
9836.0
20
-3125.0
30
0.0
10
9831.0
20
-3154.0
30
0.0
10
9829.0
20
-3190.0
30
0.0
10
9831.0
20
-3225.0
30
0.0
10
9834.0
20
-3258.0
30
0.0
10
9838.0
20
-3288.0
30
0.0
10
9842.0
20
-3311.0
30
0.0
10
9845.0
20
-3327.0
30
0.0
10
9846.0
20
-3332.0
30
0.0
10
9841.0
20
-3339.0
30
0.0
10
9826.0
20
-3357.0
30
0.0
10
9805.0
20
-3383.0
30
0.0
10
9779.0
20
-3417.0
30
0.0
10
9750.0
20
-3454.0
30
0.0
10
9722.0
20
-3493.0
30
0.0
10
9697.0
20
-3531.0
30
0.0
10
9676.0
20
-3566.0
30
0.0
10
9659.0
20
-3600.0
30
0.0
10
9647.0
20
-3632.0
30
0.0
10
9638.0
20
-3665.0
30
0.0
10
9631.0
20
-3699.0
30
0.0
10
9628.0
20
-3736.0
30
0.0
10
9626.0
20
-3777.0
30
0.0
10
9625.0
20
-3820.0
30
0.0
10
9626.0
20
-3864.0
30
0.0
10
9627.0
20
-3907.0
30
0.0
10
9628.0
20
-3946.0
30
0.0
10
9629.0
20
-3978.0
30
0.0
10
9630.0
20
-3999.0
30
0.0
10
9630.0
20
-4006.0
30
0.0
10
9626.0
20
-4014.0
30
0.0
10
9614.0
20
-4036.0
30
0.0
10
9597.0
20
-4068.0
30
0.0
10
9577.0
20
-4109.0
30
0.0
10
9556.0
20
-4155.0
30
0.0
10
9535.0
20
-4204.0
30
0.0
10
9518.0
20
-4253.0
30
0.0
10
9505.0
20
-4306.0
30
0.0
10
9497.0
20
-4357.0
30
0.0
10
9494.0
20
-4406.0
30
0.0
10
9495.0
20
-4453.0
30
0.0
10
9498.0
20
-4501.0
30
0.0
10
9502.0
20
-4548.0
30
0.0
10
9508.0
20
-4597.0
30
0.0
10
9513.0
20
-4650.0
30
0.0
10
9518.0
20
-4705.0
30
0.0
10
9524.0
20
-4761.0
30
0.0
10
9530.0
20
-4818.0
30
0.0
10
9538.0
20
-4874.0
30
0.0
10
9547.0
20
-4930.0
30
0.0
10
9558.0
20
-4984.0
30
0.0
10
9570.0
20
-5033.0
30
0.0
10
9584.0
20
-5081.0
30
0.0
10
9600.0
20
-5128.0
30
0.0
10
9616.0
20
-5173.0
30
0.0
10
9634.0
20
-5217.0
30
0.0
10
9653.0
20
-5259.0
30
0.0
10
9672.0
20
-5301.0
30
0.0
10
9691.0
20
-5341.0
30
0.0
10
9710.0
20
-5380.0
30
0.0
10
9730.0
20
-5419.0
30
0.0
10
9752.0
20
-5458.0
30
0.0
10
9775.0
20
-5499.0
30
0.0
10
9801.0
20
-5540.0
30
0.0
10
9829.0
20
-5583.0
30
0.0
10
9854.0
20
-5621.0
30
0.0
10
9879.0
20
-5657.0
30
0.0
10
9904.0
20
-5692.0
30
0.0
10
9925.0
20
-5722.0
30
0.0
10
9943.0
20
-5746.0
30
0.0
10
9954.0
20
-5762.0
30
0.0
10
9959.0
20
-5768.0
30
0.0
10
9959.0
20
-5773.0
30
0.0
10
9962.0
20
-5789.0
30
0.0
10
9967.0
20
-5813.0
30
0.0
10
9975.0
20
-5845.0
30
0.0
10
9985.0
20
-5882.0
30
0.0
10
9999.0
20
-5924.0
30
0.0
10
10016.0
20
-5968.0
30
0.0
10
10042.0
20
-6025.0
30
0.0
10
10070.0
20
-6081.0
30
0.0
10
10100.0
20
-6133.0
30
0.0
10
10127.0
20
-6179.0
30
0.0
10
10150.0
20
-6215.0
30
0.0
10
10165.0
20
-6239.0
30
0.0
10
10171.0
20
-6247.0
30
0.0
10
10171.0
20
-6250.0
30
0.0
10
10172.0
20
-6260.0
30
0.0
10
10174.0
20
-6274.0
30
0.0
10
10175.0
20
-6292.0
30
0.0
10
10175.0
20
-6312.0
30
0.0
10
10173.0
20
-6333.0
30
0.0
10
10170.0
20
-6355.0
30
0.0
10
10162.0
20
-6384.0
30
0.0
10
10151.0
20
-6413.0
30
0.0
10
10136.0
20
-6440.0
30
0.0
10
10121.0
20
-6468.0
30
0.0
10
10105.0
20
-6497.0
30
0.0
10
10090.0
20
-6527.0
30
0.0
10
10078.0
20
-6560.0
30
0.0
10
10070.0
20
-6589.0
30
0.0
10
10064.0
20
-6619.0
30
0.0
10
10059.0
20
-6648.0
30
0.0
10
10056.0
20
-6673.0
30
0.0
10
10054.0
20
-6693.0
30
0.0
10
10054.0
20
-6707.0
30
0.0
10
10053.0
20
-6711.0
30
0.0
10
10055.0
20
-6717.0
30
0.0
10
10061.0
20
-6734.0
30
0.0
10
10069.0
20
-6757.0
30
0.0
10
10080.0
20
-6786.0
30
0.0
10
10093.0
20
-6818.0
30
0.0
10
10107.0
20
-6849.0
30
0.0
10
10122.0
20
-6878.0
30
0.0
10
10132.0
20
-6895.0
30
0.0
10
10142.0
20
-6909.0
30
0.0
10
10151.0
20
-6921.0
30
0.0
10
10158.0
20
-6930.0
30
0.0
10
10164.0
20
-6937.0
30
0.0
10
10168.0
20
-6941.0
30
0.0
10
10170.0
20
-6942.0
30
0.0
10
10168.0
20
-6954.0
30
0.0
10
10163.0
20
-6987.0
30
0.0
10
10155.0
20
-7036.0
30
0.0
10
10146.0
20
-7097.0
30
0.0
10
10136.0
20
-7164.0
30
0.0
10
10126.0
20
-7232.0
30
0.0
10
10116.0
20
-7297.0
30
0.0
10
10108.0
20
-7351.0
30
0.0
10
10101.0
20
-7400.0
30
0.0
10
10095.0
20
-7444.0
30
0.0
10
10090.0
20
-7485.0
30
0.0
10
10086.0
20
-7525.0
30
0.0
10
10084.0
20
-7564.0
30
0.0
10
10083.0
20
-7605.0
30
0.0
10
10083.0
20
-7649.0
30
0.0
10
10085.0
20
-7694.0
30
0.0
10
10087.0
20
-7741.0
30
0.0
10
10091.0
20
-7789.0
30
0.0
10
10095.0
20
-7837.0
30
0.0
10
10099.0
20
-7884.0
30
0.0
10
10104.0
20
-7930.0
30
0.0
10
10109.0
20
-7969.0
30
0.0
10
10114.0
20
-8006.0
30
0.0
10
10121.0
20
-8042.0
30
0.0
10
10129.0
20
-8077.0
30
0.0
10
10140.0
20
-8110.0
30
0.0
10
10154.0
20
-8142.0
30
0.0
10
10171.0
20
-8172.0
30
0.0
10
10185.0
20
-8192.0
30
0.0
10
10199.0
20
-8211.0
30
0.0
10
10214.0
20
-8227.0
30
0.0
10
10227.0
20
-8241.0
30
0.0
10
10238.0
20
-8252.0
30
0.0
10
10245.0
20
-8259.0
30
0.0
10
10247.0
20
-8262.0
30
0.0
10
10247.0
20
-8266.0
30
0.0
10
10247.0
20
-8278.0
30
0.0
10
10247.0
20
-8297.0
30
0.0
10
10248.0
20
-8319.0
30
0.0
10
10251.0
20
-8344.0
30
0.0
10
10256.0
20
-8369.0
30
0.0
10
10264.0
20
-8394.0
30
0.0
10
10277.0
20
-8422.0
30
0.0
10
10295.0
20
-8446.0
30
0.0
10
10314.0
20
-8468.0
30
0.0
10
10335.0
20
-8489.0
30
0.0
10
10356.0
20
-8509.0
30
0.0
10
10376.0
20
-8530.0
30
0.0
10
10393.0
20
-8552.0
30
0.0
10
10402.0
20
-8568.0
30
0.0
10
10410.0
20
-8583.0
30
0.0
10
10416.0
20
-8598.0
30
0.0
10
10421.0
20
-8610.0
30
0.0
10
10424.0
20
-8621.0
30
0.0
10
10426.0
20
-8628.0
30
0.0
10
10426.0
20
-8630.0
30
0.0
10
10425.0
20
-8632.0
30
0.0
10
10421.0
20
-8639.0
30
0.0
10
10415.0
20
-8649.0
30
0.0
10
10406.0
20
-8662.0
30
0.0
10
10396.0
20
-8679.0
30
0.0
10
10384.0
20
-8698.0
30
0.0
10
10370.0
20
-8719.0
30
0.0
10
10350.0
20
-8750.0
30
0.0
10
10329.0
20
-8783.0
30
0.0
10
10309.0
20
-8814.0
30
0.0
10
10291.0
20
-8842.0
30
0.0
10
10276.0
20
-8865.0
30
0.0
10
10266.0
20
-8881.0
30
0.0
10
10263.0
20
-8886.0
30
0.0
10
10258.0
20
-8886.0
30
0.0
10
10244.0
20
-8884.0
30
0.0
10
10224.0
20
-8883.0
30
0.0
10
10198.0
20
-8882.0
30
0.0
10
10168.0
20
-8883.0
30
0.0
10
10136.0
20
-8886.0
30
0.0
10
10104.0
20
-8892.0
30
0.0
10
10071.0
20
-8902.0
30
0.0
10
10041.0
20
-8914.0
30
0.0
10
10014.0
20
-8927.0
30
0.0
10
9991.0
20
-8939.0
30
0.0
10
9973.0
20
-8950.0
30
0.0
10
9961.0
20
-8958.0
30
0.0
10
9957.0
20
-8961.0
30
0.0
10
9951.0
20
-8957.0
30
0.0
10
9935.0
20
-8945.0
30
0.0
10
9910.0
20
-8929.0
30
0.0
10
9879.0
20
-8909.0
30
0.0
10
9844.0
20
-8886.0
30
0.0
10
9807.0
20
-8864.0
30
0.0
10
9770.0
20
-8843.0
30
0.0
10
9734.0
20
-8824.0
30
0.0
10
9701.0
20
-8808.0
30
0.0
10
9669.0
20
-8795.0
30
0.0
10
9639.0
20
-8783.0
30
0.0
10
9611.0
20
-8772.0
30
0.0
10
9584.0
20
-8761.0
30
0.0
10
9559.0
20
-8751.0
30
0.0
10
9540.0
20
-8744.0
30
0.0
10
9522.0
20
-8736.0
30
0.0
10
9505.0
20
-8729.0
30
0.0
10
9487.0
20
-8723.0
30
0.0
10
9471.0
20
-8718.0
30
0.0
10
9454.0
20
-8715.0
30
0.0
10
9437.0
20
-8713.0
30
0.0
10
9418.0
20
-8715.0
30
0.0
10
9399.0
20
-8719.0
30
0.0
10
9379.0
20
-8726.0
30
0.0
10
9358.0
20
-8737.0
30
0.0
10
9336.0
20
-8749.0
30
0.0
10
9312.0
20
-8765.0
30
0.0
10
9286.0
20
-8783.0
30
0.0
10
9255.0
20
-8806.0
30
0.0
10
9224.0
20
-8830.0
30
0.0
10
9193.0
20
-8853.0
30
0.0
10
9166.0
20
-8874.0
30
0.0
10
9145.0
20
-8892.0
30
0.0
10
9130.0
20
-8903.0
30
0.0
10
9125.0
20
-8908.0
30
0.0
10
9116.0
20
-8902.0
30
0.0
10
9091.0
20
-8886.0
30
0.0
10
9054.0
20
-8864.0
30
0.0
10
9010.0
20
-8836.0
30
0.0
10
8961.0
20
-8807.0
30
0.0
10
8911.0
20
-8778.0
30
0.0
10
8865.0
20
-8752.0
30
0.0
10
8832.0
20
-8734.0
30
0.0
10
8803.0
20
-8721.0
30
0.0
10
8776.0
20
-8710.0
30
0.0
10
8751.0
20
-8703.0
30
0.0
10
8727.0
20
-8699.0
30
0.0
10
8703.0
20
-8697.0
30
0.0
10
8678.0
20
-8698.0
30
0.0
10
8646.0
20
-8703.0
30
0.0
10
8612.0
20
-8710.0
30
0.0
10
8577.0
20
-8720.0
30
0.0
10
8540.0
20
-8731.0
30
0.0
10
8502.0
20
-8744.0
30
0.0
10
8464.0
20
-8757.0
30
0.0
10
8425.0
20
-8771.0
30
0.0
10
8389.0
20
-8783.0
30
0.0
10
8352.0
20
-8794.0
30
0.0
10
8316.0
20
-8804.0
30
0.0
10
8281.0
20
-8811.0
30
0.0
10
8246.0
20
-8815.0
30
0.0
10
8211.0
20
-8815.0
30
0.0
10
8177.0
20
-8810.0
30
0.0
10
8139.0
20
-8799.0
30
0.0
10
8101.0
20
-8783.0
30
0.0
10
8063.0
20
-8763.0
30
0.0
10
8025.0
20
-8740.0
30
0.0
10
7986.0
20
-8716.0
30
0.0
10
7946.0
20
-8691.0
30
0.0
10
7904.0
20
-8667.0
30
0.0
10
7858.0
20
-8644.0
30
0.0
10
7812.0
20
-8622.0
30
0.0
10
7765.0
20
-8601.0
30
0.0
10
7720.0
20
-8581.0
30
0.0
10
7676.0
20
-8559.0
30
0.0
10
7636.0
20
-8537.0
30
0.0
10
7599.0
20
-8512.0
30
0.0
10
7571.0
20
-8490.0
30
0.0
10
7547.0
20
-8467.0
30
0.0
10
7524.0
20
-8442.0
30
0.0
10
7503.0
20
-8416.0
30
0.0
10
7483.0
20
-8389.0
30
0.0
10
7464.0
20
-8362.0
30
0.0
10
7444.0
20
-8334.0
30
0.0
10
7424.0
20
-8307.0
30
0.0
10
7404.0
20
-8281.0
30
0.0
10
7383.0
20
-8256.0
30
0.0
10
7361.0
20
-8233.0
30
0.0
10
7339.0
20
-8212.0
30
0.0
10
7316.0
20
-8193.0
30
0.0
10
7292.0
20
-8178.0
30
0.0
10
7274.0
20
-8170.0
30
0.0
10
7256.0
20
-8164.0
30
0.0
10
7238.0
20
-8161.0
30
0.0
10
7221.0
20
-8160.0
30
0.0
10
7205.0
20
-8163.0
30
0.0
10
7190.0
20
-8170.0
30
0.0
10
7176.0
20
-8180.0
30
0.0
10
7166.0
20
-8191.0
30
0.0
10
7157.0
20
-8204.0
30
0.0
10
7150.0
20
-8218.0
30
0.0
10
7144.0
20
-8230.0
30
0.0
10
7140.0
20
-8241.0
30
0.0
10
7137.0
20
-8248.0
30
0.0
10
7136.0
20
-8251.0
30
0.0
10
7128.0
20
-8247.0
30
0.0
10
7103.0
20
-8235.0
30
0.0
10
7067.0
20
-8218.0
30
0.0
10
7022.0
20
-8196.0
30
0.0
10
6972.0
20
-8172.0
30
0.0
10
6921.0
20
-8147.0
30
0.0
10
6871.0
20
-8122.0
30
0.0
10
6821.0
20
-8097.0
30
0.0
10
6776.0
20
-8074.0
30
0.0
10
6734.0
20
-8051.0
30
0.0
10
6693.0
20
-8027.0
30
0.0
10
6652.0
20
-8003.0
30
0.0
10
6609.0
20
-7975.0
30
0.0
10
6563.0
20
-7945.0
30
0.0
10
6498.0
20
-7902.0
30
0.0
10
6427.0
20
-7854.0
30
0.0
10
6354.0
20
-7805.0
30
0.0
10
6280.0
20
-7758.0
30
0.0
10
6209.0
20
-7714.0
30
0.0
10
6144.0
20
-7678.0
30
0.0
10
6086.0
20
-7651.0
30
0.0
10
6058.0
20
-7641.0
30
0.0
10
6033.0
20
-7634.0
30
0.0
10
6010.0
20
-7630.0
30
0.0
10
5988.0
20
-7628.0
30
0.0
10
5966.0
20
-7627.0
30
0.0
10
5944.0
20
-7627.0
30
0.0
10
5920.0
20
-7627.0
30
0.0
10
5889.0
20
-7626.0
30
0.0
10
5855.0
20
-7625.0
30
0.0
10
5818.0
20
-7624.0
30
0.0
10
5780.0
20
-7622.0
30
0.0
10
5740.0
20
-7622.0
30
0.0
10
5699.0
20
-7621.0
30
0.0
10
5657.0
20
-7622.0
30
0.0
10
5606.0
20
-7625.0
30
0.0
10
5553.0
20
-7628.0
30
0.0
10
5500.0
20
-7632.0
30
0.0
10
5446.0
20
-7636.0
30
0.0
10
5391.0
20
-7640.0
30
0.0
10
5335.0
20
-7642.0
30
0.0
10
5280.0
20
-7642.0
30
0.0
10
5227.0
20
-7640.0
30
0.0
10
5176.0
20
-7638.0
30
0.0
10
5125.0
20
-7635.0
30
0.0
10
5076.0
20
-7634.0
30
0.0
10
5030.0
20
-7636.0
30
0.0
10
4988.0
20
-7641.0
30
0.0
10
4950.0
20
-7650.0
30
0.0
10
4922.0
20
-7663.0
30
0.0
10
4895.0
20
-7678.0
30
0.0
10
4870.0
20
-7697.0
30
0.0
10
4844.0
20
-7716.0
30
0.0
10
4816.0
20
-7736.0
30
0.0
10
4785.0
20
-7756.0
30
0.0
10
4749.0
20
-7774.0
30
0.0
10
4706.0
20
-7791.0
30
0.0
10
4661.0
20
-7805.0
30
0.0
10
4616.0
20
-7816.0
30
0.0
10
4575.0
20
-7826.0
30
0.0
10
4542.0
20
-7832.0
30
0.0
10
4519.0
20
-7836.0
30
0.0
10
4511.0
20
-7837.0
30
0.0
10
4501.0
20
-7838.0
30
0.0
10
4476.0
20
-7840.0
30
0.0
10
4441.0
20
-7840.0
30
0.0
10
4402.0
20
-7838.0
30
0.0
10
4363.0
20
-7831.0
30
0.0
10
4330.0
20
-7819.0
30
0.0
10
4310.0
20
-7799.0
30
0.0
10
4304.0
20
-7773.0
30
0.0
10
4310.0
20
-7742.0
30
0.0
10
4324.0
20
-7710.0
30
0.0
10
4341.0
20
-7679.0
30
0.0
10
4359.0
20
-7654.0
30
0.0
10
4372.0
20
-7636.0
30
0.0
10
4377.0
20
-7629.0
30
0.0
10
4371.0
20
-7632.0
30
0.0
10
4356.0
20
-7641.0
30
0.0
10
4334.0
20
-7654.0
30
0.0
10
4307.0
20
-7671.0
30
0.0
10
4278.0
20
-7690.0
30
0.0
10
4248.0
20
-7711.0
30
0.0
10
4221.0
20
-7733.0
30
0.0
10
4199.0
20
-7753.0
30
0.0
10
4180.0
20
-7774.0
30
0.0
10
4165.0
20
-7794.0
30
0.0
10
4152.0
20
-7815.0
30
0.0
10
4141.0
20
-7837.0
30
0.0
10
4132.0
20
-7859.0
30
0.0
10
4123.0
20
-7882.0
30
0.0
10
4113.0
20
-7910.0
30
0.0
10
4103.0
20
-7941.0
30
0.0
10
4093.0
20
-7973.0
30
0.0
10
4084.0
20
-8007.0
30
0.0
10
4075.0
20
-8044.0
30
0.0
10
4067.0
20
-8083.0
30
0.0
10
4059.0
20
-8124.0
30
0.0
10
4052.0
20
-8162.0
30
0.0
10
4046.0
20
-8199.0
30
0.0
10
4041.0
20
-8234.0
30
0.0
10
4037.0
20
-8266.0
30
0.0
10
4034.0
20
-8290.0
30
0.0
10
4032.0
20
-8307.0
30
0.0
10
4031.0
20
-8313.0
30
0.0
10
4025.0
20
-8314.0
30
0.0
10
4008.0
20
-8316.0
30
0.0
10
3982.0
20
-8319.0
30
0.0
10
3949.0
20
-8323.0
30
0.0
10
3912.0
20
-8326.0
30
0.0
10
3872.0
20
-8328.0
30
0.0
10
3832.0
20
-8329.0
30
0.0
10
3790.0
20
-8327.0
30
0.0
10
3751.0
20
-8324.0
30
0.0
10
3714.0
20
-8321.0
30
0.0
10
3680.0
20
-8319.0
30
0.0
10
3648.0
20
-8319.0
30
0.0
10
3619.0
20
-8323.0
30
0.0
10
3592.0
20
-8331.0
30
0.0
10
3569.0
20
-8344.0
30
0.0
10
3547.0
20
-8361.0
30
0.0
10
3525.0
20
-8380.0
30
0.0
10
3502.0
20
-8399.0
30
0.0
10
3477.0
20
-8417.0
30
0.0
10
3449.0
20
-8432.0
30
0.0
10
3416.0
20
-8442.0
30
0.0
10
3379.0
20
-8446.0
30
0.0
10
3339.0
20
-8446.0
30
0.0
10
3300.0
20
-8442.0
30
0.0
10
3264.0
20
-8436.0
30
0.0
10
3235.0
20
-8430.0
30
0.0
10
3215.0
20
-8426.0
30
0.0
10
3208.0
20
-8424.0
30
0.0
10
3206.0
20
-8420.0
30
0.0
10
3202.0
20
-8410.0
30
0.0
10
3195.0
20
-8395.0
30
0.0
10
3187.0
20
-8376.0
30
0.0
10
3177.0
20
-8357.0
30
0.0
10
3167.0
20
-8337.0
30
0.0
10
3156.0
20
-8319.0
30
0.0
10
3144.0
20
-8302.0
30
0.0
10
3131.0
20
-8288.0
30
0.0
10
3116.0
20
-8277.0
30
0.0
10
3100.0
20
-8267.0
30
0.0
10
3081.0
20
-8256.0
30
0.0
10
3058.0
20
-8245.0
30
0.0
10
3032.0
20
-8231.0
30
0.0
10
2984.0
20
-8205.0
30
0.0
10
2931.0
20
-8174.0
30
0.0
10
2876.0
20
-8142.0
30
0.0
10
2825.0
20
-8112.0
30
0.0
10
2782.0
20
-8087.0
30
0.0
10
2753.0
20
-8070.0
30
0.0
10
2743.0
20
-8063.0
30
0.0
10
2744.0
20
-8055.0
30
0.0
10
2747.0
20
-8034.0
30
0.0
10
2752.0
20
-8001.0
30
0.0
10
2758.0
20
-7960.0
30
0.0
10
2765.0
20
-7914.0
30
0.0
10
2772.0
20
-7866.0
30
0.0
10
2780.0
20
-7818.0
30
0.0
10
2788.0
20
-7767.0
30
0.0
10
2796.0
20
-7720.0
30
0.0
10
2804.0
20
-7675.0
30
0.0
10
2812.0
20
-7633.0
30
0.0
10
2820.0
20
-7592.0
30
0.0
10
2828.0
20
-7552.0
30
0.0
10
2836.0
20
-7512.0
30
0.0
10
2844.0
20
-7477.0
30
0.0
10
2850.0
20
-7442.0
30
0.0
10
2853.0
20
-7406.0
30
0.0
10
2852.0
20
-7371.0
30
0.0
10
2846.0
20
-7336.0
30
0.0
10
2832.0
20
-7302.0
30
0.0
10
2810.0
20
-7268.0
30
0.0
10
2778.0
20
-7234.0
30
0.0
10
2739.0
20
-7202.0
30
0.0
10
2699.0
20
-7173.0
30
0.0
10
2662.0
20
-7148.0
30
0.0
10
2657.0
20
-7140.0
30
0.0
10
2658.0
20
-7135.0
30
0.0
10
2654.0
20
-7131.0
30
0.0
10
2646.0
20
-7127.0
30
0.0
10
2637.0
20
-7122.0
30
0.0
10
2627.0
20
-7118.0
30
0.0
10
2618.0
20
-7115.0
30
0.0
10
2611.0
20
-7112.0
30
0.0
10
2607.0
20
-7112.0
30
0.0
10
2611.0
20
-7117.0
30
0.0
10
2631.0
20
-7129.0
30
0.0
10
2644.0
20
-7142.0
30
0.0
10
2623.0
20
-7143.0
30
0.0
10
2595.0
20
-7144.0
30
0.0
10
2562.0
20
-7143.0
30
0.0
10
2526.0
20
-7144.0
30
0.0
10
2488.0
20
-7145.0
30
0.0
10
2451.0
20
-7147.0
30
0.0
10
2416.0
20
-7151.0
30
0.0
10
2384.0
20
-7155.0
30
0.0
10
2357.0
20
-7160.0
30
0.0
10
2336.0
20
-7163.0
30
0.0
10
2322.0
20
-7166.0
30
0.0
10
2317.0
20
-7167.0
30
0.0
10
2314.0
20
-7159.0
30
0.0
10
2305.0
20
-7135.0
30
0.0
10
2291.0
20
-7099.0
30
0.0
10
2274.0
20
-7055.0
30
0.0
10
2253.0
20
-7004.0
30
0.0
10
2231.0
20
-6952.0
30
0.0
10
2208.0
20
-6899.0
30
0.0
10
2183.0
20
-6846.0
30
0.0
10
2158.0
20
-6797.0
30
0.0
10
2134.0
20
-6752.0
30
0.0
10
2110.0
20
-6710.0
30
0.0
10
2086.0
20
-6671.0
30
0.0
10
2063.0
20
-6635.0
30
0.0
10
2041.0
20
-6601.0
30
0.0
10
2025.0
20
-6577.0
30
0.0
10
2009.0
20
-6554.0
30
0.0
10
1992.0
20
-6532.0
30
0.0
10
1975.0
20
-6511.0
30
0.0
10
1957.0
20
-6491.0
30
0.0
10
1937.0
20
-6472.0
30
0.0
10
1916.0
20
-6454.0
30
0.0
10
1891.0
20
-6437.0
30
0.0
10
1864.0
20
-6421.0
30
0.0
10
1836.0
20
-6406.0
30
0.0
10
1807.0
20
-6393.0
30
0.0
10
1778.0
20
-6382.0
30
0.0
10
1748.0
20
-6371.0
30
0.0
10
1718.0
20
-6363.0
30
0.0
10
1690.0
20
-6356.0
30
0.0
10
1663.0
20
-6350.0
30
0.0
10
1636.0
20
-6345.0
30
0.0
10
1608.0
20
-6340.0
30
0.0
10
1579.0
20
-6335.0
30
0.0
10
1550.0
20
-6330.0
30
0.0
10
1519.0
20
-6324.0
30
0.0
10
1493.0
20
-6319.0
30
0.0
10
1468.0
20
-6313.0
30
0.0
10
1444.0
20
-6307.0
30
0.0
10
1423.0
20
-6302.0
30
0.0
10
1407.0
20
-6298.0
30
0.0
10
1396.0
20
-6295.0
30
0.0
10
1392.0
20
-6294.0
30
0.0
10
1386.0
20
-6285.0
30
0.0
10
1369.0
20
-6263.0
30
0.0
10
1345.0
20
-6231.0
30
0.0
10
1314.0
20
-6193.0
30
0.0
10
1279.0
20
-6153.0
30
0.0
10
1243.0
20
-6115.0
30
0.0
10
1208.0
20
-6085.0
30
0.0
10
1182.0
20
-6067.0
30
0.0
10
1157.0
20
-6055.0
30
0.0
10
1133.0
20
-6047.0
30
0.0
10
1110.0
20
-6042.0
30
0.0
10
1088.0
20
-6038.0
30
0.0
10
1067.0
20
-6034.0
30
0.0
10
1045.0
20
-6029.0
30
0.0
10
1016.0
20
-6020.0
30
0.0
10
987.0
20
-6008.0
30
0.0
10
955.0
20
-5992.0
30
0.0
10
920.0
20
-5974.0
30
0.0
10
881.0
20
-5953.0
30
0.0
10
838.0
20
-5931.0
30
0.0
10
789.0
20
-5908.0
30
0.0
10
727.0
20
-5880.0
30
0.0
10
661.0
20
-5853.0
30
0.0
10
596.0
20
-5827.0
30
0.0
10
537.0
20
-5804.0
30
0.0
10
489.0
20
-5787.0
30
0.0
10
457.0
20
-5775.0
30
0.0
10
445.0
20
-5771.0
30
0.0
10
445.0
20
-5766.0
30
0.0
10
445.0
20
-5753.0
30
0.0
10
445.0
20
-5734.0
30
0.0
10
442.0
20
-5710.0
30
0.0
10
438.0
20
-5683.0
30
0.0
10
431.0
20
-5654.0
30
0.0
10
421.0
20
-5626.0
30
0.0
10
408.0
20
-5598.0
30
0.0
10
392.0
20
-5573.0
30
0.0
10
376.0
20
-5551.0
30
0.0
10
360.0
20
-5533.0
30
0.0
10
347.0
20
-5519.0
30
0.0
10
338.0
20
-5510.0
30
0.0
10
335.0
20
-5507.0
30
0.0
10
335.0
20
-5503.0
30
0.0
10
335.0
20
-5492.0
30
0.0
10
336.0
20
-5475.0
30
0.0
10
335.0
20
-5453.0
30
0.0
10
333.0
20
-5428.0
30
0.0
10
330.0
20
-5401.0
30
0.0
10
323.0
20
-5372.0
30
0.0
10
314.0
20
-5342.0
30
0.0
10
302.0
20
-5313.0
30
0.0
10
289.0
20
-5286.0
30
0.0
10
277.0
20
-5264.0
30
0.0
10
267.0
20
-5246.0
30
0.0
10
259.0
20
-5235.0
30
0.0
10
257.0
20
-5231.0
30
0.0
10
254.0
20
-5225.0
30
0.0
10
246.0
20
-5211.0
30
0.0
10
235.0
20
-5189.0
30
0.0
10
221.0
20
-5161.0
30
0.0
10
206.0
20
-5130.0
30
0.0
10
193.0
20
-5097.0
30
0.0
10
181.0
20
-5065.0
30
0.0
10
170.0
20
-5026.0
30
0.0
10
163.0
20
-4988.0
30
0.0
10
158.0
20
-4951.0
30
0.0
10
154.0
20
-4914.0
30
0.0
10
149.0
20
-4873.0
30
0.0
10
141.0
20
-4829.0
30
0.0
10
130.0
20
-4779.0
30
0.0
10
111.0
20
-4716.0
30
0.0
10
88.0
20
-4650.0
30
0.0
10
63.0
20
-4584.0
30
0.0
10
40.0
20
-4525.0
30
0.0
10
19.0
20
-4477.0
30
0.0
10
5.0
20
-4444.0
30
0.0
10
0.0
20
-4432.0
30
0.0
10
1.0
20
-4425.0
30
0.0
10
2.0
20
-4405.0
30
0.0
10
6.0
20
-4376.0
30
0.0
10
11.0
20
-4343.0
30
0.0
10
17.0
20
-4310.0
30
0.0
10
27.0
20
-4280.0
30
0.0
10
38.0
20
-4257.0
30
0.0
10
47.0
20
-4248.0
30
0.0
10
56.0
20
-4242.0
30
0.0
10
66.0
20
-4239.0
30
0.0
10
76.0
20
-4237.0
30
0.0
10
86.0
20
-4235.0
30
0.0
10
95.0
20
-4233.0
30
0.0
10
104.0
20
-4228.0
30
0.0
10
118.0
20
-4212.0
30
0.0
10
129.0
20
-4185.0
30
0.0
10
137.0
20
-4150.0
30
0.0
10
142.0
20
-4107.0
30
0.0
10
146.0
20
-4058.0
30
0.0
10
149.0
20
-4004.0
30
0.0
10
151.0
20
-3946.0
30
0.0
10
154.0
20
-3883.0
30
0.0
10
156.0
20
-3820.0
30
0.0
10
159.0
20
-3761.0
30
0.0
10
161.0
20
-3710.0
30
0.0
10
163.0
20
-3669.0
30
0.0
10
164.0
20
-3642.0
30
0.0
10
164.0
20
-3632.0
30
0.0
10
170.0
20
-3629.0
30
0.0
6
Solid
370
35
62
0
0
LWPOLYLINE
5
fd1
100
AcDbEntity
100
AcDbPolyline
90
6
70
1
10
9648.0
20
-671.0
30
0.0
10
9602.0
20
-722.0
30
0.0
10
9551.0
20
-703.0
30
0.0
10
9550.0
20
-636.0
30
0.0
10
9642.0
20
-618.0
30
0.0
10
9648.0
20
-671.0
30
0.0
6
Solid
370
35
62
0
0
LWPOLYLINE
5
fd3
100
AcDbEntity
100
AcDbPolyline
90
5
70
1
10
9670.0
20
-8530.0
30
0.0
10
9582.0
20
-8539.0
30
0.0
10
9580.0
20
-8470.0
30
0.0
10
9655.0
20
-8436.0
30
0.0
10
9670.0
20
-8530.0
30
0.0
6
Solid
370
35
62
0
0
LWPOLYLINE
5
fd5
100
AcDbEntity
100
AcDbPolyline
90
5
70
1
10
7806.0
20
-5529.0
30
0.0
10
7833.0
20
-5586.0
30
0.0
10
7740.0
20
-5595.0
30
0.0
10
7742.0
20
-5547.0
30
0.0
10
7806.0
20
-5529.0
30
0.0
6
Solid
370
35
62
0
0
LWPOLYLINE
5
fd7
100
AcDbEntity
100
AcDbPolyline
90
5
70
1
10
9532.0
20
-5503.0
30
0.0
10
9550.0
20
-5558.0
30
0.0
10
9444.0
20
-5599.0
30
0.0
10
9462.0
20
-5525.0
30
0.0
10
9532.0
20
-5503.0
30
0.0
6
Solid
370
35
62
0
0
LWPOLYLINE
5
fda
100
AcDbEntity
8
zone_0_q3
100
AcDbPolyline
90
8
70
1
10
2149.0
20
-3100.0
30
0.0
10
2325.0
20
-3005.0
30
0.0
10
2553.0
20
-3021.0
30
0.0
10
2643.0
20
-3260.0
30
0.0
10
2499.0
20
-3444.0
30
0.0
10
2241.0
20
-3491.0
30
0.0
10
2032.0
20
-3338.0
30
0.0
10
2149.0
20
-3100.0
30
0.0
6
Solid
370
35
62
3
0
LWPOLYLINE
5
fdd
100
AcDbEntity
8
zone_1_q3
100
AcDbPolyline
90
6
70
1
10
4061.0
20
-7905.0
30
0.0
10
3413.0
20
-8080.0
30
0.0
10
3349.0
20
-7099.0
30
0.0
10
4123.0
20
-7116.0
30
0.0
10
4096.0
20
-7949.0
30
0.0
10
4061.0
20
-7905.0
30
0.0
6
Solid
370
35
62
3
0
LWPOLYLINE
5
fe0
100
AcDbEntity
8
zone_2_q3
100
AcDbPolyline
90
5
70
1
10
7863.0
20
-8471.0
30
0.0
10
7767.0
20
-7578.0
30
0.0
10
8610.0
20
-7652.0
30
0.0
10
8702.0
20
-8538.0
30
0.0
10
7863.0
20
-8471.0
30
0.0
6
Solid
370
35
62
3
0
LWPOLYLINE
5
fe3
100
AcDbEntity
8
zone_3_q3
100
AcDbPolyline
90
5
70
1
10
8384.0
20
-866.0
30
0.0
10
8405.0
20
-1750.0
30
0.0
10
7551.0
20
-1930.0
30
0.0
10
7560.0
20
-1064.0
30
0.0
10
8384.0
20
-866.0
30
0.0
6
Solid
370
35
62
3
0
LWPOLYLINE
5
fe6
100
AcDbEntity
8
zone_4_q3
100
AcDbPolyline
90
5
70
1
10
2958.0
20
-1200.0
30
0.0
10
3781.0
20
-1133.0
30
0.0
10
3876.0
20
-2058.0
30
0.0
10
2852.0
20
-2114.0
30
0.0
10
2958.0
20
-1200.0
30
0.0
6
Solid
370
35
62
3
0
LWPOLYLINE
5
fe9
100
AcDbEntity
8
zone_5_q2
100
AcDbPolyline
90
7
70
1
10
3247.0
20
-1642.0
30
0.0
10
3240.0
20
-1721.0
30
0.0
10
3145.0
20
-1743.0
30
0.0
10
3100.0
20
-1697.0
30
0.0
10
3098.0
20
-1626.0
30
0.0
10
3174.0
20
-1599.0
30
0.0
10
3247.0
20
-1642.0
30
0.0
6
Solid
370
35
62
2
0
ENDSEC
0
SECTION
2
OBJECTS
0
DICTIONARY
5
fcd
330
0
100
AcDbDictionary
281
1
3
ACAD_GROUP
350
fce
0
DICTIONARY
5
fce
330
fcd
100
AcDbDictionary
281
1
0
ENDSEC
0
EOF
