999

0
SECTION
2
HEADER
9
$ACADVER
1
AC1021
9
$HANDSEED
5
102e
0
ENDSEC
0
SECTION
2
CLASSES
0
ENDSEC
0
SECTION
2
TABLES
0
TABLE
2
VPORT
5
fec
100
AcDbSymbolTable
70
1
0
VPORT
5
feb
100
AcDbSymbolTableRecord
100
AcDbViewportTableRecord
2
*ACTIVE
10
0
20
0
11
1
21
1
12
500.0
22
500.0
40
1000.0
70
0
0
ENDTAB
0
TABLE
2
LTYPE
5
fed
100
AcDbSymbolTable
70
3
0
LTYPE
5
ff5
100
AcDbSymbolTableRecord
100
AcDbLinetypeTableRecord
2
Solid
70
0
72
65
73
0
3

0
LTYPE
5
ff6
100
AcDbSymbolTableRecord
100
AcDbLinetypeTableRecord
2
ByBlock
70
0
72
65
73
0
3

0
LTYPE
5
ff7
100
AcDbSymbolTableRecord
100
AcDbLinetypeTableRecord
2
ByLayer
70
0
72
65
73
0
3

0
ENDTAB
0
TABLE
2
LAYER
5
fee
100
AcDbSymbolTable
70
9
0
LAYER
5
ff8
100
AcDbSymbolTableRecord
100
AcDbLayerTableRecord
2
0
70
0
390
0
0
LAYER
5
1016
100
AcDbSymbolTableRecord
100
AcDbLayerTableRecord
2
zone_0_q3
70
0
390
0
0
LAYER
5
1019
100
AcDbSymbolTableRecord
100
AcDbLayerTableRecord
2
zone_1_q3
70
0
390
0
0
LAYER
5
101c
100
AcDbSymbolTableRecord
100
AcDbLayerTableRecord
2
zone_2_q2
70
0
390
0
0
LAYER
5
101f
100
AcDbSymbolTableRecord
100
AcDbLayerTableRecord
2
zone_3_q2
70
0
390
0
0
LAYER
5
1022
100
AcDbSymbolTableRecord
100
AcDbLayerTableRecord
2
zone_4_q3
70
0
390
0
0
LAYER
5
1025
100
AcDbSymbolTableRecord
100
AcDbLayerTableRecord
2
zone_5_q3
70
0
390
0
0
LAYER
5
1028
100
AcDbSymbolTableRecord
100
AcDbLayerTableRecord
2
zone_6_q3
70
0
390
0
0
LAYER
5
102b
100
AcDbSymbolTableRecord
100
AcDbLayerTableRecord
2
zone_7_q3
70
0
390
0
0
ENDTAB
0
TABLE
2
STYLE
5
fef
100
AcDbSymbolTable
70
0
0
ENDTAB
0
TABLE
2
VIEW
5
ff0
100
AcDbSymbolTable
70
0
0
ENDTAB
0
TABLE
2
UCS
5
ff1
100
AcDbSymbolTable
70
0
0
ENDTAB
0
TABLE
2
APPID
5
ff2
100
AcDbSymbolTable
70
1
0
APPID
5
ff9
100
AcDbSymbolTableRecord
100
AcDbRegAppTableRecord
2
ACAD
70
0
0
ENDTAB
0
TABLE
2
DIMSTYLE
5
ff3
100
AcDbSymbolTable
70
0
100
AcDbDimStyleTable
71
1
0
ENDTAB
0
TABLE
2
BLOCK_RECORD
5
ff4
100
AcDbSymbolTable
70
2
0
BLOCK_RECORD
5
ffa
100
AcDbSymbolTableRecord
100
AcDbBlockTableRecord
2
*Model_Space
70
0
280
1
281
0
0
BLOCK_RECORD
5
ffb
100
AcDbSymbolTableRecord
100
AcDbBlockTableRecord
2
*Paper_Space
70
0
280
1
281
0
0
ENDTAB
0
ENDSEC
0
SECTION
2
BLOCKS
0
BLOCK
5
ffc
100
AcDbEntity
100
AcDbBlockBegin
2
*Model_Space
70
0
10
0
20
0
30
0
3
*Model_Space
1

0
ENDBLK
5
ffd
100
AcDbEntity
100
AcDbBlockEnd
0
BLOCK
5
ffe
100
AcDbEntity
100
AcDbBlockBegin
2
*Paper_Space
70
0
10
0
20
0
30
0
3
*Paper_Space
1

0
ENDBLK
5
fff
100
AcDbEntity
100
AcDbBlockEnd
0
ENDSEC
0
SECTION
2
ENTITIES
0
LWPOLYLINE
5
1002
100
AcDbEntity
100
AcDbPolyline
90
1124
70
1
10
11.0
20
-4241.0
30
0.0
10
40.0
20
-4232.0
30
0.0
10
84.0
20
-4219.0
30
0.0
10
137.0
20
-4204.0
30
0.0
10
197.0
20
-4186.0
30
0.0
10
258.0
20
-4167.0
30
0.0
10
318.0
20
-4149.0
30
0.0
10
370.0
20
-4132.0
30
0.0
10
418.0
20
-4116.0
30
0.0
10
461.0
20
-4102.0
30
0.0
10
501.0
20
-4088.0
30
0.0
10
539.0
20
-4074.0
30
0.0
10
575.0
20
-4061.0
30
0.0
10
611.0
20
-4048.0
30
0.0
10
640.0
20
-4036.0
30
0.0
10
670.0
20
-4025.0
30
0.0
10
699.0
20
-4012.0
30
0.0
10
728.0
20
-3999.0
30
0.0
10
756.0
20
-3985.0
30
0.0
10
783.0
20
-3969.0
30
0.0
10
809.0
20
-3952.0
30
0.0
10
834.0
20
-3934.0
30
0.0
10
857.0
20
-3915.0
30
0.0
10
880.0
20
-3894.0
30
0.0
10
902.0
20
-3872.0
30
0.0
10
923.0
20
-3850.0
30
0.0
10
945.0
20
-3828.0
30
0.0
10
966.0
20
-3806.0
30
0.0
10
989.0
20
-3784.0
30
0.0
10
1011.0
20
-3762.0
30
0.0
10
1034.0
20
-3740.0
30
0.0
10
1057.0
20
-3718.0
30
0.0
10
1080.0
20
-3695.0
30
0.0
10
1104.0
20
-3672.0
30
0.0
10
1127.0
20
-3647.0
30
0.0
10
1153.0
20
-3619.0
30
0.0
10
1178.0
20
-3590.0
30
0.0
10
1204.0
20
-3561.0
30
0.0
10
1230.0
20
-3531.0
30
0.0
10
1256.0
20
-3501.0
30
0.0
10
1281.0
20
-3471.0
30
0.0
10
1306.0
20
-3442.0
30
0.0
10
1330.0
20
-3416.0
30
0.0
10
1353.0
20
-3390.0
30
0.0
10
1376.0
20
-3365.0
30
0.0
10
1399.0
20
-3339.0
30
0.0
10
1421.0
20
-3313.0
30
0.0
10
1442.0
20
-3287.0
30
0.0
10
1463.0
20
-3259.0
30
0.0
10
1485.0
20
-3228.0
30
0.0
10
1505.0
20
-3196.0
30
0.0
10
1525.0
20
-3162.0
30
0.0
10
1543.0
20
-3126.0
30
0.0
10
1560.0
20
-3090.0
30
0.0
10
1576.0
20
-3053.0
30
0.0
10
1590.0
20
-3014.0
30
0.0
10
1603.0
20
-2976.0
30
0.0
10
1615.0
20
-2937.0
30
0.0
10
1625.0
20
-2898.0
30
0.0
10
1635.0
20
-2860.0
30
0.0
10
1643.0
20
-2823.0
30
0.0
10
1651.0
20
-2787.0
30
0.0
10
1658.0
20
-2753.0
30
0.0
10
1664.0
20
-2726.0
30
0.0
10
1669.0
20
-2700.0
30
0.0
10
1676.0
20
-2676.0
30
0.0
10
1684.0
20
-2651.0
30
0.0
10
1694.0
20
-2627.0
30
0.0
10
1707.0
20
-2603.0
30
0.0
10
1723.0
20
-2578.0
30
0.0
10
1740.0
20
-2555.0
30
0.0
10
1759.0
20
-2533.0
30
0.0
10
1778.0
20
-2512.0
30
0.0
10
1795.0
20
-2494.0
30
0.0
10
1809.0
20
-2480.0
30
0.0
10
1819.0
20
-2470.0
30
0.0
10
1822.0
20
-2467.0
30
0.0
10
1952.0
20
-2493.0
30
0.0
10
2088.0
20
-2507.0
30
0.0
10
2152.0
20
-2499.0
30
0.0
10
2155.0
20
-2501.0
30
0.0
10
2163.0
20
-2508.0
30
0.0
10
2175.0
20
-2517.0
30
0.0
10
2190.0
20
-2528.0
30
0.0
10
2207.0
20
-2539.0
30
0.0
10
2224.0
20
-2550.0
30
0.0
10
2241.0
20
-2559.0
30
0.0
10
2255.0
20
-2565.0
30
0.0
10
2268.0
20
-2568.0
30
0.0
10
2280.0
20
-2570.0
30
0.0
10
2291.0
20
-2570.0
30
0.0
10
2302.0
20
-2569.0
30
0.0
10
2313.0
20
-2567.0
30
0.0
10
2324.0
20
-2565.0
30
0.0
10
2337.0
20
-2562.0
30
0.0
10
2351.0
20
-2558.0
30
0.0
10
2365.0
20
-2553.0
30
0.0
10
2379.0
20
-2546.0
30
0.0
10
2393.0
20
-2539.0
30
0.0
10
2408.0
20
-2530.0
30
0.0
10
2423.0
20
-2519.0
30
0.0
10
2446.0
20
-2499.0
30
0.0
10
2469.0
20
-2475.0
30
0.0
10
2491.0
20
-2447.0
30
0.0
10
2511.0
20
-2417.0
30
0.0
10
2529.0
20
-2384.0
30
0.0
10
2544.0
20
-2350.0
30
0.0
10
2554.0
20
-2315.0
30
0.0
10
2560.0
20
-2278.0
30
0.0
10
2561.0
20
-2242.0
30
0.0
10
2558.0
20
-2205.0
30
0.0
10
2551.0
20
-2168.0
30
0.0
10
2541.0
20
-2131.0
30
0.0
10
2529.0
20
-2095.0
30
0.0
10
2514.0
20
-2060.0
30
0.0
10
2499.0
20
-2026.0
30
0.0
10
2482.0
20
-1994.0
30
0.0
10
2465.0
20
-1962.0
30
0.0
10
2447.0
20
-1931.0
30
0.0
10
2430.0
20
-1902.0
30
0.0
10
2414.0
20
-1874.0
30
0.0
10
2399.0
20
-1848.0
30
0.0
10
2387.0
20
-1826.0
30
0.0
10
2376.0
20
-1804.0
30
0.0
10
2364.0
20
-1782.0
30
0.0
10
2351.0
20
-1759.0
30
0.0
10
2337.0
20
-1733.0
30
0.0
10
2321.0
20
-1705.0
30
0.0
10
2301.0
20
-1673.0
30
0.0
10
2271.0
20
-1627.0
30
0.0
10
2238.0
20
-1577.0
30
0.0
10
2204.0
20
-1528.0
30
0.0
10
2173.0
20
-1482.0
30
0.0
10
2147.0
20
-1445.0
30
0.0
10
2130.0
20
-1420.0
30
0.0
10
2123.0
20
-1411.0
30
0.0
10
2128.0
20
-1406.0
30
0.0
10
2139.0
20
-1392.0
30
0.0
10
2157.0
20
-1370.0
30
0.0
10
2180.0
20
-1340.0
30
0.0
10
2207.0
20
-1304.0
30
0.0
10
2237.0
20
-1262.0
30
0.0
10
2268.0
20
-1216.0
30
0.0
10
2308.0
20
-1152.0
30
0.0
10
2346.0
20
-1086.0
30
0.0
10
2382.0
20
-1023.0
30
0.0
10
2412.0
20
-966.0
30
0.0
10
2436.0
20
-921.0
30
0.0
10
2451.0
20
-890.0
30
0.0
10
2457.0
20
-879.0
30
0.0
10
2463.0
20
-884.0
30
0.0
10
2479.0
20
-898.0
30
0.0
10
2503.0
20
-919.0
30
0.0
10
2532.0
20
-945.0
30
0.0
10
2564.0
20
-973.0
30
0.0
10
2596.0
20
-1002.0
30
0.0
10
2626.0
20
-1030.0
30
0.0
10
2647.0
20
-1051.0
30
0.0
10
2666.0
20
-1070.0
30
0.0
10
2682.0
20
-1087.0
30
0.0
10
2697.0
20
-1102.0
30
0.0
10
2710.0
20
-1117.0
30
0.0
10
2723.0
20
-1130.0
30
0.0
10
2735.0
20
-1144.0
30
0.0
10
2748.0
20
-1156.0
30
0.0
10
2761.0
20
-1169.0
30
0.0
10
2776.0
20
-1182.0
30
0.0
10
2793.0
20
-1194.0
30
0.0
10
2813.0
20
-1207.0
30
0.0
10
2836.0
20
-1219.0
30
0.0
10
2863.0
20
-1231.0
30
0.0
10
2902.0
20
-1246.0
30
0.0
10
2945.0
20
-1261.0
30
0.0
10
2987.0
20
-1274.0
30
0.0
10
3026.0
20
-1285.0
30
0.0
10
3058.0
20
-1293.0
30
0.0
10
3080.0
20
-1299.0
30
0.0
10
3088.0
20
-1301.0
30
0.0
10
3092.0
20
-1303.0
30
0.0
10
3102.0
20
-1309.0
30
0.0
10
3117.0
20
-1317.0
30
0.0
10
3137.0
20
-1327.0
30
0.0
10
3159.0
20
-1338.0
30
0.0
10
3184.0
20
-1349.0
30
0.0
10
3209.0
20
-1359.0
30
0.0
10
3240.0
20
-1369.0
30
0.0
10
3269.0
20
-1376.0
30
0.0
10
3299.0
20
-1382.0
30
0.0
10
3327.0
20
-1386.0
30
0.0
10
3356.0
20
-1388.0
30
0.0
10
3383.0
20
-1390.0
30
0.0
10
3411.0
20
-1391.0
30
0.0
10
3436.0
20
-1393.0
30
0.0
10
3461.0
20
-1394.0
30
0.0
10
3485.0
20
-1396.0
30
0.0
10
3510.0
20
-1398.0
30
0.0
10
3534.0
20
-1401.0
30
0.0
10
3559.0
20
-1405.0
30
0.0
10
3584.0
20
-1411.0
30
0.0
10
3612.0
20
-1419.0
30
0.0
10
3640.0
20
-1428.0
30
0.0
10
3669.0
20
-1437.0
30
0.0
10
3698.0
20
-1447.0
30
0.0
10
3728.0
20
-1455.0
30
0.0
10
3758.0
20
-1461.0
30
0.0
10
3789.0
20
-1465.0
30
0.0
10
3823.0
20
-1465.0
30
0.0
10
3858.0
20
-1464.0
30
0.0
10
3893.0
20
-1460.0
30
0.0
10
3928.0
20
-1456.0
30
0.0
10
3962.0
20
-1454.0
30
0.0
10
3996.0
20
-1453.0
30
0.0
10
4030.0
20
-1455.0
30
0.0
10
4060.0
20
-1461.0
30
0.0
10
4090.0
20
-1469.0
30
0.0
10
4118.0
20
-1480.0
30
0.0
10
4147.0
20
-1492.0
30
0.0
10
4175.0
20
-1505.0
30
0.0
10
4203.0
20
-1517.0
30
0.0
10
4230.0
20
-1528.0
30
0.0
10
4258.0
20
-1536.0
30
0.0
10
4286.0
20
-1544.0
30
0.0
10
4315.0
20
-1549.0
30
0.0
10
4345.0
20
-1554.0
30
0.0
10
4376.0
20
-1558.0
30
0.0
10
4408.0
20
-1562.0
30
0.0
10
4442.0
20
-1565.0
30
0.0
10
4486.0
20
-1571.0
30
0.0
10
4533.0
20
-1576.0
30
0.0
10
4580.0
20
-1582.0
30
0.0
10
4627.0
20
-1589.0
30
0.0
10
4674.0
20
-1595.0
30
0.0
10
4720.0
20
-1601.0
30
0.0
10
4763.0
20
-1606.0
30
0.0
10
4796.0
20
-1610.0
30
0.0
10
4827.0
20
-1613.0
30
0.0
10
4857.0
20
-1616.0
30
0.0
10
4886.0
20
-1618.0
30
0.0
10
4915.0
20
-1620.0
30
0.0
10
4944.0
20
-1621.0
30
0.0
10
4974.0
20
-1622.0
30
0.0
10
5015.0
20
-1621.0
30
0.0
10
5058.0
20
-1619.0
30
0.0
10
5104.0
20
-1617.0
30
0.0
10
5154.0
20
-1614.0
30
0.0
10
5208.0
20
-1611.0
30
0.0
10
5267.0
20
-1608.0
30
0.0
10
5330.0
20
-1605.0
30
0.0
10
5399.0
20
-1602.0
30
0.0
10
5470.0
20
-1600.0
30
0.0
10
5537.0
20
-1598.0
30
0.0
10
5597.0
20
-1597.0
30
0.0
10
5646.0
20
-1596.0
30
0.0
10
5678.0
20
-1595.0
30
0.0
10
5689.0
20
-1595.0
30
0.0
10
5696.0
20
-1601.0
30
0.0
10
5712.0
20
-1616.0
30
0.0
10
5738.0
20
-1639.0
30
0.0
10
5771.0
20
-1665.0
30
0.0
10
5809.0
20
-1693.0
30
0.0
10
5850.0
20
-1719.0
30
0.0
10
5892.0
20
-1739.0
30
0.0
10
5895.0
20
-1741.0
30
0.0
10
5899.0
20
-1742.0
30
0.0
10
5902.0
20
-1743.0
30
0.0
10
5906.0
20
-1745.0
30
0.0
10
5909.0
20
-1746.0
30
0.0
10
5912.0
20
-1747.0
30
0.0
10
5916.0
20
-1748.0
30
0.0
10
5957.0
20
-1758.0
30
0.0
10
5998.0
20
-1762.0
30
0.0
10
6038.0
20
-1762.0
30
0.0
10
6077.0
20
-1759.0
30
0.0
10
6116.0
20
-1754.0
30
0.0
10
6153.0
20
-1749.0
30
0.0
10
6190.0
20
-1744.0
30
0.0
10
6225.0
20
-1743.0
30
0.0
10
6259.0
20
-1743.0
30
0.0
10
6293.0
20
-1744.0
30
0.0
10
6327.0
20
-1745.0
30
0.0
10
6360.0
20
-1746.0
30
0.0
10
6394.0
20
-1746.0
30
0.0
10
6428.0
20
-1745.0
30
0.0
10
6465.0
20
-1742.0
30
0.0
10
6501.0
20
-1736.0
30
0.0
10
6538.0
20
-1729.0
30
0.0
10
6574.0
20
-1720.0
30
0.0
10
6611.0
20
-1709.0
30
0.0
10
6647.0
20
-1698.0
30
0.0
10
6682.0
20
-1685.0
30
0.0
10
6716.0
20
-1672.0
30
0.0
10
6749.0
20
-1658.0
30
0.0
10
6781.0
20
-1643.0
30
0.0
10
6813.0
20
-1628.0
30
0.0
10
6845.0
20
-1613.0
30
0.0
10
6876.0
20
-1597.0
30
0.0
10
6908.0
20
-1581.0
30
0.0
10
6940.0
20
-1564.0
30
0.0
10
6972.0
20
-1547.0
30
0.0
10
7003.0
20
-1527.0
30
0.0
10
7033.0
20
-1505.0
30
0.0
10
7062.0
20
-1480.0
30
0.0
10
7089.0
20
-1451.0
30
0.0
10
7114.0
20
-1417.0
30
0.0
10
7135.0
20
-1382.0
30
0.0
10
7153.0
20
-1346.0
30
0.0
10
7169.0
20
-1311.0
30
0.0
10
7182.0
20
-1279.0
30
0.0
10
7192.0
20
-1253.0
30
0.0
10
7198.0
20
-1235.0
30
0.0
10
7200.0
20
-1229.0
30
0.0
10
7206.0
20
-1226.0
30
0.0
10
7221.0
20
-1220.0
30
0.0
10
7245.0
20
-1210.0
30
0.0
10
7273.0
20
-1197.0
30
0.0
10
7305.0
20
-1181.0
30
0.0
10
7337.0
20
-1163.0
30
0.0
10
7367.0
20
-1144.0
30
0.0
10
7398.0
20
-1120.0
30
0.0
10
7423.0
20
-1096.0
30
0.0
10
7445.0
20
-1069.0
30
0.0
10
7464.0
20
-1041.0
30
0.0
10
7481.0
20
-1012.0
30
0.0
10
7496.0
20
-981.0
30
0.0
10
7511.0
20
-948.0
30
0.0
10
7522.0
20
-924.0
30
0.0
10
7532.0
20
-900.0
30
0.0
10
7542.0
20
-877.0
30
0.0
10
7550.0
20
-857.0
30
0.0
10
7557.0
20
-842.0
30
0.0
10
7561.0
20
-831.0
30
0.0
10
7562.0
20
-828.0
30
0.0
10
7568.0
20
-823.0
30
0.0
10
7584.0
20
-811.0
30
0.0
10
7609.0
20
-792.0
30
0.0
10
7641.0
20
-768.0
30
0.0
10
7679.0
20
-739.0
30
0.0
10
7721.0
20
-707.0
30
0.0
10
7766.0
20
-673.0
30
0.0
10
7834.0
20
-623.0
30
0.0
10
7902.0
20
-573.0
30
0.0
10
7970.0
20
-524.0
30
0.0
10
8036.0
20
-478.0
30
0.0
10
8097.0
20
-436.0
30
0.0
10
8152.0
20
-399.0
30
0.0
10
8199.0
20
-369.0
30
0.0
10
8222.0
20
-355.0
30
0.0
10
8243.0
20
-343.0
30
0.0
10
8262.0
20
-331.0
30
0.0
10
8281.0
20
-318.0
30
0.0
10
8299.0
20
-303.0
30
0.0
10
8319.0
20
-284.0
30
0.0
10
8340.0
20
-262.0
30
0.0
10
8368.0
20
-227.0
30
0.0
10
8398.0
20
-188.0
30
0.0
10
8427.0
20
-148.0
30
0.0
10
8454.0
20
-111.0
30
0.0
10
8475.0
20
-80.0
30
0.0
10
8490.0
20
-58.0
30
0.0
10
8495.0
20
-50.0
30
0.0
10
8501.0
20
-52.0
30
0.0
10
8517.0
20
-56.0
30
0.0
10
8541.0
20
-61.0
30
0.0
10
8572.0
20
-68.0
30
0.0
10
8605.0
20
-74.0
30
0.0
10
8641.0
20
-80.0
30
0.0
10
8676.0
20
-85.0
30
0.0
10
8714.0
20
-87.0
30
0.0
10
8748.0
20
-87.0
30
0.0
10
8782.0
20
-84.0
30
0.0
10
8814.0
20
-79.0
30
0.0
10
8847.0
20
-72.0
30
0.0
10
8882.0
20
-64.0
30
0.0
10
8918.0
20
-53.0
30
0.0
10
8952.0
20
-43.0
30
0.0
10
8986.0
20
-33.0
30
0.0
10
9019.0
20
-23.0
30
0.0
10
9047.0
20
-14.0
30
0.0
10
9070.0
20
-7.0
30
0.0
10
9086.0
20
-2.0
30
0.0
10
9091.0
20
0.0
30
0.0
10
9097.0
20
-2.0
30
0.0
10
9114.0
20
-7.0
30
0.0
10
9140.0
20
-15.0
30
0.0
10
9175.0
20
-24.0
30
0.0
10
9215.0
20
-33.0
30
0.0
10
9260.0
20
-43.0
30
0.0
10
9309.0
20
-52.0
30
0.0
10
9365.0
20
-59.0
30
0.0
10
9420.0
20
-65.0
30
0.0
10
9472.0
20
-69.0
30
0.0
10
9517.0
20
-72.0
30
0.0
10
9553.0
20
-73.0
30
0.0
10
9576.0
20
-74.0
30
0.0
10
9585.0
20
-74.0
30
0.0
10
9582.0
20
-81.0
30
0.0
10
9576.0
20
-98.0
30
0.0
10
9567.0
20
-125.0
30
0.0
10
9558.0
20
-158.0
30
0.0
10
9550.0
20
-195.0
30
0.0
10
9545.0
20
-233.0
30
0.0
10
9544.0
20
-271.0
30
0.0
10
9551.0
20
-310.0
30
0.0
10
9563.0
20
-345.0
30
0.0
10
9578.0
20
-378.0
30
0.0
10
9593.0
20
-410.0
30
0.0
10
9607.0
20
-442.0
30
0.0
10
9616.0
20
-475.0
30
0.0
10
9618.0
20
-509.0
30
0.0
10
9609.0
20
-555.0
30
0.0
10
9590.0
20
-604.0
30
0.0
10
9564.0
20
-655.0
30
0.0
10
9535.0
20
-707.0
30
0.0
10
9508.0
20
-759.0
30
0.0
10
9486.0
20
-809.0
30
0.0
10
9473.0
20
-856.0
30
0.0
10
9471.0
20
-891.0
30
0.0
10
9475.0
20
-923.0
30
0.0
10
9485.0
20
-954.0
30
0.0
10
9497.0
20
-984.0
30
0.0
10
9512.0
20
-1014.0
30
0.0
10
9527.0
20
-1043.0
30
0.0
10
9541.0
20
-1073.0
30
0.0
10
9552.0
20
-1103.0
30
0.0
10
9561.0
20
-1133.0
30
0.0
10
9569.0
20
-1163.0
30
0.0
10
9574.0
20
-1193.0
30
0.0
10
9578.0
20
-1222.0
30
0.0
10
9581.0
20
-1251.0
30
0.0
10
9583.0
20
-1279.0
30
0.0
10
9584.0
20
-1301.0
30
0.0
10
9584.0
20
-1322.0
30
0.0
10
9585.0
20
-1342.0
30
0.0
10
9587.0
20
-1363.0
30
0.0
10
9589.0
20
-1383.0
30
0.0
10
9593.0
20
-1403.0
30
0.0
10
9599.0
20
-1423.0
30
0.0
10
9609.0
20
-1448.0
30
0.0
10
9621.0
20
-1474.0
30
0.0
10
9635.0
20
-1500.0
30
0.0
10
9651.0
20
-1526.0
30
0.0
10
9667.0
20
-1553.0
30
0.0
10
9683.0
20
-1579.0
30
0.0
10
9698.0
20
-1605.0
30
0.0
10
9711.0
20
-1630.0
30
0.0
10
9724.0
20
-1654.0
30
0.0
10
9736.0
20
-1679.0
30
0.0
10
9747.0
20
-1704.0
30
0.0
10
9759.0
20
-1728.0
30
0.0
10
9772.0
20
-1754.0
30
0.0
10
9787.0
20
-1779.0
30
0.0
10
9799.0
20
-1799.0
30
0.0
10
9811.0
20
-1818.0
30
0.0
10
9823.0
20
-1835.0
30
0.0
10
9833.0
20
-1850.0
30
0.0
10
9841.0
20
-1862.0
30
0.0
10
9847.0
20
-1870.0
30
0.0
10
9849.0
20
-1873.0
30
0.0
10
9850.0
20
-1878.0
30
0.0
10
9854.0
20
-1894.0
30
0.0
10
9860.0
20
-1919.0
30
0.0
10
9866.0
20
-1951.0
30
0.0
10
9873.0
20
-1988.0
30
0.0
10
9879.0
20
-2030.0
30
0.0
10
9883.0
20
-2075.0
30
0.0
10
9886.0
20
-2144.0
30
0.0
10
9884.0
20
-2214.0
30
0.0
10
9879.0
20
-2285.0
30
0.0
10
9871.0
20
-2353.0
30
0.0
10
9862.0
20
-2417.0
30
0.0
10
9852.0
20
-2477.0
30
0.0
10
9841.0
20
-2530.0
30
0.0
10
9835.0
20
-2561.0
30
0.0
10
9828.0
20
-2589.0
30
0.0
10
9822.0
20
-2615.0
30
0.0
10
9816.0
20
-2640.0
30
0.0
10
9809.0
20
-2666.0
30
0.0
10
9803.0
20
-2692.0
30
0.0
10
9795.0
20
-2720.0
30
0.0
10
9786.0
20
-2760.0
30
0.0
10
9775.0
20
-2804.0
30
0.0
10
9764.0
20
-2850.0
30
0.0
10
9753.0
20
-2897.0
30
0.0
10
9741.0
20
-2945.0
30
0.0
10
9730.0
20
-2993.0
30
0.0
10
9719.0
20
-3038.0
30
0.0
10
9710.0
20
-3077.0
30
0.0
10
9701.0
20
-3115.0
30
0.0
10
9693.0
20
-3151.0
30
0.0
10
9684.0
20
-3187.0
30
0.0
10
9676.0
20
-3222.0
30
0.0
10
9667.0
20
-3257.0
30
0.0
10
9659.0
20
-3293.0
30
0.0
10
9650.0
20
-3332.0
30
0.0
10
9641.0
20
-3372.0
30
0.0
10
9632.0
20
-3413.0
30
0.0
10
9624.0
20
-3455.0
30
0.0
10
9616.0
20
-3496.0
30
0.0
10
9609.0
20
-3538.0
30
0.0
10
9603.0
20
-3581.0
30
0.0
10
9598.0
20
-3622.0
30
0.0
10
9594.0
20
-3663.0
30
0.0
10
9590.0
20
-3704.0
30
0.0
10
9586.0
20
-3745.0
30
0.0
10
9581.0
20
-3785.0
30
0.0
10
9576.0
20
-3824.0
30
0.0
10
9569.0
20
-3862.0
30
0.0
10
9560.0
20
-3904.0
30
0.0
10
9551.0
20
-3946.0
30
0.0
10
9541.0
20
-3990.0
30
0.0
10
9531.0
20
-4037.0
30
0.0
10
9524.0
20
-4088.0
30
0.0
10
9519.0
20
-4144.0
30
0.0
10
9518.0
20
-4207.0
30
0.0
10
9522.0
20
-4286.0
30
0.0
10
9530.0
20
-4370.0
30
0.0
10
9540.0
20
-4451.0
30
0.0
10
9551.0
20
-4525.0
30
0.0
10
9561.0
20
-4586.0
30
0.0
10
9569.0
20
-4626.0
30
0.0
10
9571.0
20
-4641.0
30
0.0
10
9567.0
20
-4642.0
30
0.0
10
9556.0
20
-4643.0
30
0.0
10
9538.0
20
-4646.0
30
0.0
10
9517.0
20
-4648.0
30
0.0
10
9493.0
20
-4651.0
30
0.0
10
9469.0
20
-4652.0
30
0.0
10
9445.0
20
-4653.0
30
0.0
10
9424.0
20
-4652.0
30
0.0
10
9405.0
20
-4650.0
30
0.0
10
9388.0
20
-4648.0
30
0.0
10
9372.0
20
-4645.0
30
0.0
10
9356.0
20
-4643.0
30
0.0
10
9340.0
20
-4641.0
30
0.0
10
9324.0
20
-4639.0
30
0.0
10
9306.0
20
-4639.0
30
0.0
10
9286.0
20
-4641.0
30
0.0
10
9265.0
20
-4645.0
30
0.0
10
9244.0
20
-4652.0
30
0.0
10
9222.0
20
-4660.0
30
0.0
10
9200.0
20
-4671.0
30
0.0
10
9178.0
20
-4685.0
30
0.0
10
9158.0
20
-4700.0
30
0.0
10
9139.0
20
-4716.0
30
0.0
10
9122.0
20
-4732.0
30
0.0
10
9107.0
20
-4746.0
30
0.0
10
9095.0
20
-4758.0
30
0.0
10
9088.0
20
-4766.0
30
0.0
10
9085.0
20
-4769.0
30
0.0
10
9090.0
20
-4770.0
30
0.0
10
9104.0
20
-4773.0
30
0.0
10
9126.0
20
-4778.0
30
0.0
10
9154.0
20
-4786.0
30
0.0
10
9187.0
20
-4795.0
30
0.0
10
9222.0
20
-4806.0
30
0.0
10
9260.0
20
-4818.0
30
0.0
10
9300.0
20
-4834.0
30
0.0
10
9339.0
20
-4851.0
30
0.0
10
9375.0
20
-4867.0
30
0.0
10
9406.0
20
-4882.0
30
0.0
10
9430.0
20
-4895.0
30
0.0
10
9446.0
20
-4903.0
30
0.0
10
9452.0
20
-4906.0
30
0.0
10
9453.0
20
-4909.0
30
0.0
10
9458.0
20
-4919.0
30
0.0
10
9464.0
20
-4933.0
30
0.0
10
9473.0
20
-4950.0
30
0.0
10
9483.0
20
-4970.0
30
0.0
10
9493.0
20
-4990.0
30
0.0
10
9505.0
20
-5010.0
30
0.0
10
9519.0
20
-5034.0
30
0.0
10
9534.0
20
-5056.0
30
0.0
10
9549.0
20
-5078.0
30
0.0
10
9564.0
20
-5099.0
30
0.0
10
9581.0
20
-5120.0
30
0.0
10
9599.0
20
-5144.0
30
0.0
10
9618.0
20
-5170.0
30
0.0
10
9638.0
20
-5198.0
30
0.0
10
9658.0
20
-5227.0
30
0.0
10
9678.0
20
-5256.0
30
0.0
10
9695.0
20
-5281.0
30
0.0
10
9710.0
20
-5302.0
30
0.0
10
9719.0
20
-5316.0
30
0.0
10
9722.0
20
-5321.0
30
0.0
10
9721.0
20
-5328.0
30
0.0
10
9718.0
20
-5347.0
30
0.0
10
9713.0
20
-5374.0
30
0.0
10
9708.0
20
-5409.0
30
0.0
10
9702.0
20
-5448.0
30
0.0
10
9697.0
20
-5488.0
30
0.0
10
9693.0
20
-5527.0
30
0.0
10
9691.0
20
-5563.0
30
0.0
10
9690.0
20
-5596.0
30
0.0
10
9690.0
20
-5626.0
30
0.0
10
9692.0
20
-5655.0
30
0.0
10
9695.0
20
-5682.0
30
0.0
10
9700.0
20
-5708.0
30
0.0
10
9705.0
20
-5734.0
30
0.0
10
9711.0
20
-5757.0
30
0.0
10
9717.0
20
-5781.0
30
0.0
10
9724.0
20
-5804.0
30
0.0
10
9731.0
20
-5827.0
30
0.0
10
9738.0
20
-5850.0
30
0.0
10
9746.0
20
-5873.0
30
0.0
10
9753.0
20
-5896.0
30
0.0
10
9761.0
20
-5919.0
30
0.0
10
9769.0
20
-5942.0
30
0.0
10
9776.0
20
-5966.0
30
0.0
10
9784.0
20
-5991.0
30
0.0
10
9793.0
20
-6017.0
30
0.0
10
9802.0
20
-6044.0
30
0.0
10
9812.0
20
-6073.0
30
0.0
10
9826.0
20
-6113.0
30
0.0
10
9841.0
20
-6156.0
30
0.0
10
9855.0
20
-6199.0
30
0.0
10
9868.0
20
-6243.0
30
0.0
10
9878.0
20
-6285.0
30
0.0
10
9884.0
20
-6325.0
30
0.0
10
9886.0
20
-6360.0
30
0.0
10
9885.0
20
-6381.0
30
0.0
10
9882.0
20
-6399.0
30
0.0
10
9878.0
20
-6417.0
30
0.0
10
9874.0
20
-6433.0
30
0.0
10
9871.0
20
-6449.0
30
0.0
10
9870.0
20
-6465.0
30
0.0
10
9870.0
20
-6481.0
30
0.0
10
9874.0
20
-6500.0
30
0.0
10
9881.0
20
-6519.0
30
0.0
10
9890.0
20
-6539.0
30
0.0
10
9899.0
20
-6560.0
30
0.0
10
9907.0
20
-6581.0
30
0.0
10
9914.0
20
-6602.0
30
0.0
10
9918.0
20
-6623.0
30
0.0
10
9919.0
20
-6644.0
30
0.0
10
9917.0
20
-6664.0
30
0.0
10
9913.0
20
-6685.0
30
0.0
10
9907.0
20
-6705.0
30
0.0
10
9900.0
20
-6726.0
30
0.0
10
9893.0
20
-6746.0
30
0.0
10
9886.0
20
-6766.0
30
0.0
10
9880.0
20
-6785.0
30
0.0
10
9876.0
20
-6804.0
30
0.0
10
9872.0
20
-6823.0
30
0.0
10
9870.0
20
-6843.0
30
0.0
10
9870.0
20
-6862.0
30
0.0
10
9872.0
20
-6882.0
30
0.0
10
9875.0
20
-6902.0
30
0.0
10
9881.0
20
-6926.0
30
0.0
10
9889.0
20
-6950.0
30
0.0
10
9897.0
20
-6974.0
30
0.0
10
9906.0
20
-6999.0
30
0.0
10
9913.0
20
-7023.0
30
0.0
10
9918.0
20
-7048.0
30
0.0
10
9920.0
20
-7072.0
30
0.0
10
9919.0
20
-7094.0
30
0.0
10
9916.0
20
-7115.0
30
0.0
10
9911.0
20
-7135.0
30
0.0
10
9907.0
20
-7155.0
30
0.0
10
9903.0
20
-7174.0
30
0.0
10
9901.0
20
-7193.0
30
0.0
10
9901.0
20
-7210.0
30
0.0
10
9905.0
20
-7227.0
30
0.0
10
9913.0
20
-7244.0
30
0.0
10
9922.0
20
-7262.0
30
0.0
10
9933.0
20
-7281.0
30
0.0
10
9944.0
20
-7302.0
30
0.0
10
9953.0
20
-7325.0
30
0.0
10
9961.0
20
-7353.0
30
0.0
10
9966.0
20
-7390.0
30
0.0
10
9968.0
20
-7431.0
30
0.0
10
9968.0
20
-7471.0
30
0.0
10
9966.0
20
-7508.0
30
0.0
10
9964.0
20
-7538.0
30
0.0
10
9962.0
20
-7559.0
30
0.0
10
9961.0
20
-7567.0
30
0.0
10
9959.0
20
-7572.0
30
0.0
10
9953.0
20
-7587.0
30
0.0
10
9945.0
20
-7609.0
30
0.0
10
9936.0
20
-7638.0
30
0.0
10
9927.0
20
-7670.0
30
0.0
10
9919.0
20
-7704.0
30
0.0
10
9914.0
20
-7738.0
30
0.0
10
9910.0
20
-7782.0
30
0.0
10
9912.0
20
-7824.0
30
0.0
10
9919.0
20
-7866.0
30
0.0
10
9928.0
20
-7909.0
30
0.0
10
9939.0
20
-7954.0
30
0.0
10
9951.0
20
-8005.0
30
0.0
10
9963.0
20
-8061.0
30
0.0
10
9975.0
20
-8127.0
30
0.0
10
9986.0
20
-8197.0
30
0.0
10
9995.0
20
-8265.0
30
0.0
10
10002.0
20
-8327.0
30
0.0
10
10008.0
20
-8377.0
30
0.0
10
10011.0
20
-8411.0
30
0.0
10
10012.0
20
-8424.0
30
0.0
10
10010.0
20
-8425.0
30
0.0
10
10004.0
20
-8429.0
30
0.0
10
9994.0
20
-8434.0
30
0.0
10
9981.0
20
-8441.0
30
0.0
10
9967.0
20
-8450.0
30
0.0
10
9952.0
20
-8458.0
30
0.0
10
9937.0
20
-8467.0
30
0.0
10
9924.0
20
-8475.0
30
0.0
10
9911.0
20
-8482.0
30
0.0
10
9900.0
20
-8488.0
30
0.0
10
9891.0
20
-8493.0
30
0.0
10
9884.0
20
-8497.0
30
0.0
10
9879.0
20
-8500.0
30
0.0
10
9878.0
20
-8501.0
30
0.0
10
9908.0
20
-8716.0
30
0.0
10
9663.0
20
-8999.0
30
0.0
10
9657.0
20
-8992.0
30
0.0
10
9641.0
20
-8974.0
30
0.0
10
9618.0
20
-8947.0
30
0.0
10
9588.0
20
-8916.0
30
0.0
10
9556.0
20
-8882.0
30
0.0
10
9523.0
20
-8851.0
30
0.0
10
9492.0
20
-8823.0
30
0.0
10
9470.0
20
-8807.0
30
0.0
10
9450.0
20
-8795.0
30
0.0
10
9430.0
20
-8787.0
30
0.0
10
9411.0
20
-8782.0
30
0.0
10
9391.0
20
-8780.0
30
0.0
10
9370.0
20
-8780.0
30
0.0
10
9347.0
20
-8781.0
30
0.0
10
9323.0
20
-8783.0
30
0.0
10
9298.0
20
-8785.0
30
0.0
10
9274.0
20
-8788.0
30
0.0
10
9253.0
20
-8791.0
30
0.0
10
9235.0
20
-8793.0
30
0.0
10
9224.0
20
-8794.0
30
0.0
10
9220.0
20
-8795.0
30
0.0
10
9406.0
20
-9098.0
30
0.0
10
9400.0
20
-9098.0
30
0.0
10
9383.0
20
-9101.0
30
0.0
10
9355.0
20
-9104.0
30
0.0
10
9320.0
20
-9108.0
30
0.0
10
9279.0
20
-9112.0
30
0.0
10
9232.0
20
-9115.0
30
0.0
10
9182.0
20
-9119.0
30
0.0
10
9125.0
20
-9121.0
30
0.0
10
9069.0
20
-9123.0
30
0.0
10
9017.0
20
-9123.0
30
0.0
10
8971.0
20
-9123.0
30
0.0
10
8935.0
20
-9123.0
30
0.0
10
8911.0
20
-9123.0
30
0.0
10
8903.0
20
-9123.0
30
0.0
10
8894.0
20
-9122.0
30
0.0
10
8869.0
20
-9121.0
30
0.0
10
8833.0
20
-9118.0
30
0.0
10
8788.0
20
-9113.0
30
0.0
10
8738.0
20
-9106.0
30
0.0
10
8686.0
20
-9095.0
30
0.0
10
8636.0
20
-9081.0
30
0.0
10
8588.0
20
-9062.0
30
0.0
10
8545.0
20
-9040.0
30
0.0
10
8505.0
20
-9016.0
30
0.0
10
8469.0
20
-8993.0
30
0.0
10
8434.0
20
-8971.0
30
0.0
10
8400.0
20
-8953.0
30
0.0
10
8366.0
20
-8940.0
30
0.0
10
8337.0
20
-8934.0
30
0.0
10
8307.0
20
-8932.0
30
0.0
10
8277.0
20
-8931.0
30
0.0
10
8247.0
20
-8929.0
30
0.0
10
8217.0
20
-8927.0
30
0.0
10
8188.0
20
-8921.0
30
0.0
10
8159.0
20
-8910.0
30
0.0
10
8137.0
20
-8897.0
30
0.0
10
8117.0
20
-8883.0
30
0.0
10
8099.0
20
-8867.0
30
0.0
10
8083.0
20
-8852.0
30
0.0
10
8071.0
20
-8840.0
30
0.0
10
8064.0
20
-8831.0
30
0.0
10
8061.0
20
-8828.0
30
0.0
10
7753.0
20
-8840.0
30
0.0
10
7561.0
20
-8888.0
30
0.0
10
7561.0
20
-8885.0
30
0.0
10
7559.0
20
-8875.0
30
0.0
10
7557.0
20
-8860.0
30
0.0
10
7553.0
20
-8840.0
30
0.0
10
7548.0
20
-8816.0
30
0.0
10
7542.0
20
-8789.0
30
0.0
10
7534.0
20
-8761.0
30
0.0
10
7528.0
20
-8737.0
30
0.0
10
7520.0
20
-8714.0
30
0.0
10
7511.0
20
-8690.0
30
0.0
10
7502.0
20
-8667.0
30
0.0
10
7492.0
20
-8645.0
30
0.0
10
7480.0
20
-8625.0
30
0.0
10
7468.0
20
-8606.0
30
0.0
10
7436.0
20
-8571.0
30
0.0
10
7399.0
20
-8545.0
30
0.0
10
7359.0
20
-8527.0
30
0.0
10
7317.0
20
-8515.0
30
0.0
10
7273.0
20
-8507.0
30
0.0
10
7230.0
20
-8500.0
30
0.0
10
7187.0
20
-8494.0
30
0.0
10
7148.0
20
-8487.0
30
0.0
10
7110.0
20
-8478.0
30
0.0
10
7072.0
20
-8470.0
30
0.0
10
7035.0
20
-8462.0
30
0.0
10
6997.0
20
-8455.0
30
0.0
10
6959.0
20
-8451.0
30
0.0
10
6919.0
20
-8449.0
30
0.0
10
6889.0
20
-8449.0
30
0.0
10
6860.0
20
-8451.0
30
0.0
10
6832.0
20
-8454.0
30
0.0
10
6808.0
20
-8457.0
30
0.0
10
6789.0
20
-8460.0
30
0.0
10
6777.0
20
-8462.0
30
0.0
10
6772.0
20
-8463.0
30
0.0
10
6765.0
20
-8457.0
30
0.0
10
6744.0
20
-8441.0
30
0.0
10
6712.0
20
-8419.0
30
0.0
10
6673.0
20
-8392.0
30
0.0
10
6629.0
20
-8362.0
30
0.0
10
6584.0
20
-8333.0
30
0.0
10
6539.0
20
-8306.0
30
0.0
10
6500.0
20
-8284.0
30
0.0
10
6464.0
20
-8267.0
30
0.0
10
6430.0
20
-8253.0
30
0.0
10
6397.0
20
-8243.0
30
0.0
10
6364.0
20
-8234.0
30
0.0
10
6330.0
20
-8227.0
30
0.0
10
6295.0
20
-8220.0
30
0.0
10
6255.0
20
-8214.0
30
0.0
10
6213.0
20
-8209.0
30
0.0
10
6171.0
20
-8205.0
30
0.0
10
6128.0
20
-8202.0
30
0.0
10
6086.0
20
-8200.0
30
0.0
10
6046.0
20
-8200.0
30
0.0
10
6009.0
20
-8203.0
30
0.0
10
5977.0
20
-8207.0
30
0.0
10
5948.0
20
-8214.0
30
0.0
10
5919.0
20
-8223.0
30
0.0
10
5890.0
20
-8235.0
30
0.0
10
5859.0
20
-8249.0
30
0.0
10
5826.0
20
-8266.0
30
0.0
10
5788.0
20
-8287.0
30
0.0
10
5740.0
20
-8313.0
30
0.0
10
5690.0
20
-8341.0
30
0.0
10
5640.0
20
-8370.0
30
0.0
10
5595.0
20
-8395.0
30
0.0
10
5558.0
20
-8416.0
30
0.0
10
5533.0
20
-8430.0
30
0.0
10
5524.0
20
-8436.0
30
0.0
10
5520.0
20
-8432.0
30
0.0
10
5509.0
20
-8423.0
30
0.0
10
5491.0
20
-8411.0
30
0.0
10
5468.0
20
-8397.0
30
0.0
10
5440.0
20
-8383.0
30
0.0
10
5409.0
20
-8371.0
30
0.0
10
5375.0
20
-8362.0
30
0.0
10
5367.0
20
-8361.0
30
0.0
10
5358.0
20
-8360.0
30
0.0
10
5350.0
20
-8360.0
30
0.0
10
5341.0
20
-8360.0
30
0.0
10
5333.0
20
-8360.0
30
0.0
10
5324.0
20
-8360.0
30
0.0
10
5316.0
20
-8360.0
30
0.0
10
5287.0
20
-8363.0
30
0.0
10
5260.0
20
-8368.0
30
0.0
10
5236.0
20
-8374.0
30
0.0
10
5216.0
20
-8380.0
30
0.0
10
5200.0
20
-8385.0
30
0.0
10
5190.0
20
-8388.0
30
0.0
10
5186.0
20
-8390.0
30
0.0
10
5181.0
20
-8385.0
30
0.0
10
5167.0
20
-8374.0
30
0.0
10
5145.0
20
-8357.0
30
0.0
10
5118.0
20
-8337.0
30
0.0
10
5087.0
20
-8317.0
30
0.0
10
5054.0
20
-8298.0
30
0.0
10
5021.0
20
-8283.0
30
0.0
10
4990.0
20
-8273.0
30
0.0
10
4960.0
20
-8268.0
30
0.0
10
4931.0
20
-8269.0
30
0.0
10
4903.0
20
-8273.0
30
0.0
10
4876.0
20
-8280.0
30
0.0
10
4850.0
20
-8291.0
30
0.0
10
4824.0
20
-8304.0
30
0.0
10
4798.0
20
-8319.0
30
0.0
10
4772.0
20
-8336.0
30
0.0
10
4748.0
20
-8355.0
30
0.0
10
4725.0
20
-8374.0
30
0.0
10
4704.0
20
-8396.0
30
0.0
10
4686.0
20
-8418.0
30
0.0
10
4670.0
20
-8442.0
30
0.0
10
4656.0
20
-8469.0
30
0.0
10
4645.0
20
-8498.0
30
0.0
10
4636.0
20
-8529.0
30
0.0
10
4627.0
20
-8563.0
30
0.0
10
4616.0
20
-8599.0
30
0.0
10
4603.0
20
-8638.0
30
0.0
10
4585.0
20
-8681.0
30
0.0
10
4561.0
20
-8732.0
30
0.0
10
4532.0
20
-8785.0
30
0.0
10
4502.0
20
-8835.0
30
0.0
10
4474.0
20
-8880.0
30
0.0
10
4451.0
20
-8917.0
30
0.0
10
4435.0
20
-8941.0
30
0.0
10
4429.0
20
-8950.0
30
0.0
10
4103.0
20
-9023.0
30
0.0
10
4100.0
20
-9015.0
30
0.0
10
4093.0
20
-8993.0
30
0.0
10
4082.0
20
-8962.0
30
0.0
10
4068.0
20
-8924.0
30
0.0
10
4050.0
20
-8885.0
30
0.0
10
4031.0
20
-8846.0
30
0.0
10
4009.0
20
-8812.0
30
0.0
10
3991.0
20
-8790.0
30
0.0
10
3971.0
20
-8773.0
30
0.0
10
3952.0
20
-8760.0
30
0.0
10
3931.0
20
-8750.0
30
0.0
10
3911.0
20
-8743.0
30
0.0
10
3890.0
20
-8738.0
30
0.0
10
3869.0
20
-8733.0
30
0.0
10
3843.0
20
-8727.0
30
0.0
10
3817.0
20
-8722.0
30
0.0
10
3789.0
20
-8718.0
30
0.0
10
3759.0
20
-8715.0
30
0.0
10
3726.0
20
-8713.0
30
0.0
10
3689.0
20
-8714.0
30
0.0
10
3648.0
20
-8718.0
30
0.0
10
3593.0
20
-8727.0
30
0.0
10
3536.0
20
-8739.0
30
0.0
10
3480.0
20
-8752.0
30
0.0
10
3430.0
20
-8765.0
30
0.0
10
3389.0
20
-8777.0
30
0.0
10
3361.0
20
-8785.0
30
0.0
10
3351.0
20
-8788.0
30
0.0
10
3348.0
20
-8781.0
30
0.0
10
3342.0
20
-8762.0
30
0.0
10
3333.0
20
-8735.0
30
0.0
10
3320.0
20
-8703.0
30
0.0
10
3306.0
20
-8667.0
30
0.0
10
3290.0
20
-8632.0
30
0.0
10
3273.0
20
-8599.0
30
0.0
10
3256.0
20
-8572.0
30
0.0
10
3237.0
20
-8549.0
30
0.0
10
3218.0
20
-8530.0
30
0.0
10
3196.0
20
-8512.0
30
0.0
10
3171.0
20
-8495.0
30
0.0
10
3143.0
20
-8476.0
30
0.0
10
3111.0
20
-8455.0
30
0.0
10
3068.0
20
-8425.0
30
0.0
10
3023.0
20
-8393.0
30
0.0
10
2978.0
20
-8360.0
30
0.0
10
2937.0
20
-8329.0
30
0.0
10
2904.0
20
-8304.0
30
0.0
10
2881.0
20
-8287.0
30
0.0
10
2873.0
20
-8280.0
30
0.0
10
2877.0
20
-8273.0
30
0.0
10
2886.0
20
-8252.0
30
0.0
10
2900.0
20
-8221.0
30
0.0
10
2917.0
20
-8183.0
30
0.0
10
2934.0
20
-8139.0
30
0.0
10
2950.0
20
-8093.0
30
0.0
10
2964.0
20
-8047.0
30
0.0
10
2974.0
20
-8003.0
30
0.0
10
2980.0
20
-7962.0
30
0.0
10
2984.0
20
-7923.0
30
0.0
10
2984.0
20
-7886.0
30
0.0
10
2984.0
20
-7850.0
30
0.0
10
2983.0
20
-7816.0
30
0.0
10
2981.0
20
-7782.0
30
0.0
10
2981.0
20
-7752.0
30
0.0
10
2980.0
20
-7722.0
30
0.0
10
2979.0
20
-7693.0
30
0.0
10
2976.0
20
-7663.0
30
0.0
10
2971.0
20
-7633.0
30
0.0
10
2963.0
20
-7603.0
30
0.0
10
2952.0
20
-7573.0
30
0.0
10
2935.0
20
-7540.0
30
0.0
10
2914.0
20
-7507.0
30
0.0
10
2889.0
20
-7476.0
30
0.0
10
2862.0
20
-7447.0
30
0.0
10
2834.0
20
-7421.0
30
0.0
10
2804.0
20
-7399.0
30
0.0
10
2775.0
20
-7382.0
30
0.0
10
2750.0
20
-7371.0
30
0.0
10
2725.0
20
-7364.0
30
0.0
10
2698.0
20
-7360.0
30
0.0
10
2670.0
20
-7359.0
30
0.0
10
2639.0
20
-7360.0
30
0.0
10
2605.0
20
-7363.0
30
0.0
10
2566.0
20
-7367.0
30
0.0
10
2514.0
20
-7372.0
30
0.0
10
2459.0
20
-7378.0
30
0.0
10
2404.0
20
-7383.0
30
0.0
10
2355.0
20
-7388.0
30
0.0
10
2314.0
20
-7392.0
30
0.0
10
2287.0
20
-7394.0
30
0.0
10
2277.0
20
-7395.0
30
0.0
10
2063.0
20
-7149.0
30
0.0
10
2063.0
20
-7143.0
30
0.0
10
2063.0
20
-7128.0
30
0.0
10
2061.0
20
-7105.0
30
0.0
10
2058.0
20
-7076.0
30
0.0
10
2053.0
20
-7045.0
30
0.0
10
2045.0
20
-7012.0
30
0.0
10
2033.0
20
-6980.0
30
0.0
10
2010.0
20
-6942.0
30
0.0
10
1981.0
20
-6909.0
30
0.0
10
1946.0
20
-6881.0
30
0.0
10
1908.0
20
-6856.0
30
0.0
10
1867.0
20
-6833.0
30
0.0
10
1824.0
20
-6811.0
30
0.0
10
1782.0
20
-6790.0
30
0.0
10
1743.0
20
-6770.0
30
0.0
10
1705.0
20
-6749.0
30
0.0
10
1668.0
20
-6729.0
30
0.0
10
1632.0
20
-6709.0
30
0.0
10
1597.0
20
-6690.0
30
0.0
10
1563.0
20
-6671.0
30
0.0
10
1529.0
20
-6655.0
30
0.0
10
1502.0
20
-6642.0
30
0.0
10
1476.0
20
-6630.0
30
0.0
10
1449.0
20
-6619.0
30
0.0
10
1423.0
20
-6609.0
30
0.0
10
1398.0
20
-6601.0
30
0.0
10
1372.0
20
-6593.0
30
0.0
10
1346.0
20
-6586.0
30
0.0
10
1320.0
20
-6579.0
30
0.0
10
1292.0
20
-6574.0
30
0.0
10
1264.0
20
-6572.0
30
0.0
10
1234.0
20
-6571.0
30
0.0
10
1203.0
20
-6574.0
30
0.0
10
1169.0
20
-6581.0
30
0.0
10
1132.0
20
-6592.0
30
0.0
10
1089.0
20
-6608.0
30
0.0
10
1045.0
20
-6629.0
30
0.0
10
1002.0
20
-6650.0
30
0.0
10
965.0
20
-6671.0
30
0.0
10
934.0
20
-6688.0
30
0.0
10
914.0
20
-6700.0
30
0.0
10
906.0
20
-6705.0
30
0.0
10
896.0
20
-6702.0
30
0.0
10
870.0
20
-6696.0
30
0.0
10
831.0
20
-6688.0
30
0.0
10
784.0
20
-6680.0
30
0.0
10
733.0
20
-6673.0
30
0.0
10
682.0
20
-6669.0
30
0.0
10
635.0
20
-6671.0
30
0.0
10
599.0
20
-6678.0
30
0.0
10
568.0
20
-6688.0
30
0.0
10
540.0
20
-6702.0
30
0.0
10
514.0
20
-6716.0
30
0.0
10
487.0
20
-6730.0
30
0.0
10
458.0
20
-6742.0
30
0.0
10
425.0
20
-6751.0
30
0.0
10
390.0
20
-6755.0
30
0.0
10
353.0
20
-6755.0
30
0.0
10
316.0
20
-6754.0
30
0.0
10
282.0
20
-6750.0
30
0.0
10
255.0
20
-6747.0
30
0.0
10
236.0
20
-6744.0
30
0.0
10
230.0
20
-6743.0
30
0.0
10
228.0
20
-6735.0
30
0.0
10
225.0
20
-6713.0
30
0.0
10
221.0
20
-6679.0
30
0.0
10
216.0
20
-6637.0
30
0.0
10
211.0
20
-6589.0
30
0.0
10
206.0
20
-6539.0
30
0.0
10
202.0
20
-6489.0
30
0.0
10
199.0
20
-6434.0
30
0.0
10
198.0
20
-6382.0
30
0.0
10
198.0
20
-6332.0
30
0.0
10
199.0
20
-6284.0
30
0.0
10
199.0
20
-6236.0
30
0.0
10
199.0
20
-6187.0
30
0.0
10
198.0
20
-6136.0
30
0.0
10
195.0
20
-6077.0
30
0.0
10
191.0
20
-6016.0
30
0.0
10
186.0
20
-5954.0
30
0.0
10
181.0
20
-5892.0
30
0.0
10
176.0
20
-5831.0
30
0.0
10
173.0
20
-5773.0
30
0.0
10
172.0
20
-5718.0
30
0.0
10
173.0
20
-5677.0
30
0.0
10
175.0
20
-5639.0
30
0.0
10
178.0
20
-5602.0
30
0.0
10
182.0
20
-5565.0
30
0.0
10
187.0
20
-5528.0
30
0.0
10
192.0
20
-5489.0
30
0.0
10
197.0
20
-5448.0
30
0.0
10
203.0
20
-5395.0
30
0.0
10
207.0
20
-5337.0
30
0.0
10
210.0
20
-5278.0
30
0.0
10
210.0
20
-5218.0
30
0.0
10
207.0
20
-5158.0
30
0.0
10
200.0
20
-5099.0
30
0.0
10
188.0
20
-5044.0
30
0.0
10
174.0
20
-4999.0
30
0.0
10
157.0
20
-4957.0
30
0.0
10
140.0
20
-4917.0
30
0.0
10
123.0
20
-4878.0
30
0.0
10
109.0
20
-4840.0
30
0.0
10
99.0
20
-4802.0
30
0.0
10
95.0
20
-4763.0
30
0.0
10
97.0
20
-4729.0
30
0.0
10
103.0
20
-4696.0
30
0.0
10
110.0
20
-4663.0
30
0.0
10
117.0
20
-4631.0
30
0.0
10
123.0
20
-4601.0
30
0.0
10
125.0
20
-4574.0
30
0.0
10
121.0
20
-4551.0
30
0.0
10
112.0
20
-4534.0
30
0.0
10
100.0
20
-4518.0
30
0.0
10
84.0
20
-4504.0
30
0.0
10
68.0
20
-4489.0
30
0.0
10
51.0
20
-4472.0
30
0.0
10
35.0
20
-4453.0
30
0.0
10
22.0
20
-4429.0
30
0.0
10
12.0
20
-4398.0
30
0.0
10
5.0
20
-4363.0
30
0.0
10
1.0
20
-4328.0
30
0.0
10
0.0
20
-4296.0
30
0.0
10
0.0
20
-4269.0
30
0.0
10
1.0
20
-4251.0
30
0.0
10
1.0
20
-4244.0
30
0.0
10
11.0
20
-4241.0
30
0.0
6
Solid
370
35
62
0
0
LWPOLYLINE
5
1004
100
AcDbEntity
100
AcDbPolyline
90
7
70
1
10
3514.0
20
-7843.0
30
0.0
10
3586.0
20
-7876.0
30
0.0
10
3604.0
20
-7951.0
30
0.0
10
3555.0
20
-8001.0
30
0.0
10
3490.0
20
-7956.0
30
0.0
10
3469.0
20
-7917.0
30
0.0
10
3514.0
20
-7843.0
30
0.0
6
Solid
370
35
62
0
0
LWPOLYLINE
5
1006
100
AcDbEntity
100
AcDbPolyline
90
5
70
1
10
7567.0
20
-5722.0
30
0.0
10
7561.0
20
-5790.0
30
0.0
10
7475.0
20
-5791.0
30
0.0
10
7486.0
20
-5723.0
30
0.0
10
7567.0
20
-5722.0
30
0.0
6
Solid
370
35
62
0
0
LWPOLYLINE
5
1008
100
AcDbEntity
100
AcDbPolyline
90
5
70
1
10
7541.0
20
-5017.0
30
0.0
10
7517.0
20
-5088.0
30
0.0
10
7451.0
20
-5068.0
30
0.0
10
7458.0
20
-5004.0
30
0.0
10
7541.0
20
-5017.0
30
0.0
6
Solid
370
35
62
0
0
LWPOLYLINE
5
100a
100
AcDbEntity
100
AcDbPolyline
90
5
70
1
10
9511.0
20
-5942.0
30
0.0
10
9506.0
20
-6012.0
30
0.0
10
9433.0
20
-6018.0
30
0.0
10
9429.0
20
-5937.0
30
0.0
10
9511.0
20
-5942.0
30
0.0
6
Solid
370
35
62
0
0
LWPOLYLINE
5
100c
100
AcDbEntity
100
AcDbPolyline
90
6
70
1
10
8164.0
20
-7720.0
30
0.0
10
8106.0
20
-7735.0
30
0.0
10
8049.0
20
-7738.0
30
0.0
10
8091.0
20
-7697.0
30
0.0
10
8086.0
20
-7674.0
30
0.0
10
8164.0
20
-7720.0
30
0.0
6
Solid
370
35
62
0
0
LWPOLYLINE
5
100e
100
AcDbEntity
100
AcDbPolyline
90
5
70
1
10
4762.0
20
-6244.0
30
0.0
10
4795.0
20
-6323.0
30
0.0
10
4731.0
20
-6373.0
30
0.0
10
4691.0
20
-6289.0
30
0.0
10
4762.0
20
-6244.0
30
0.0
6
Solid
370
35
62
0
0
LWPOLYLINE
5
1010
100
AcDbEntity
100
AcDbPolyline
90
5
70
1
10
3297.0
20
-5940.0
30
0.0
10
3301.0
20
-6004.0
30
0.0
10
3244.0
20
-6038.0
30
0.0
10
3223.0
20
-5959.0
30
0.0
10
3297.0
20
-5940.0
30
0.0
6
Solid
370
35
62
0
0
LWPOLYLINE
5
1012
100
AcDbEntity
100
AcDbPolyline
90
5
70
1
10
3209.0
20
-5220.0
30
0.0
10
3228.0
20
-5310.0
30
0.0
10
3171.0
20
-5325.0
30
0.0
10
3138.0
20
-5237.0
30
0.0
10
3209.0
20
-5220.0
30
0.0
6
Solid
370
35
62
0
0
LWPOLYLINE
5
1014
100
AcDbEntity
100
AcDbPolyline
90
6
70
1
10
4591.0
20
-4592.0
30
0.0
10
4522.0
20
-4605.0
30
0.0
10
4464.0
20
-4517.0
30
0.0
10
4521.0
20
-4461.0
30
0.0
10
4600.0
20
-4512.0
30
0.0
10
4591.0
20
-4592.0
30
0.0
6
Solid
370
35
62
0
0
LWPOLYLINE
5
1017
100
AcDbEntity
8
zone_0_q3
100
AcDbPolyline
90
7
70
1
10
8515.0
20
-1603.0
30
0.0
10
8472.0
20
-1646.0
30
0.0
10
8403.0
20
-1655.0
30
0.0
10
8361.0
20
-1592.0
30
0.0
10
8423.0
20
-1527.0
30
0.0
10
8510.0
20
-1535.0
30
0.0
10
8515.0
20
-1603.0
30
0.0
6
Solid
370
35
62
3
0
LWPOLYLINE
5
101a
100
AcDbEntity
8
zone_1_q3
100
AcDbPolyline
90
6
70
1
10
9639.0
20
-2122.0
30
0.0
10
9549.0
20
-2138.0
30
0.0
10
9496.0
20
-2070.0
30
0.0
10
9567.0
20
-1998.0
30
0.0
10
9672.0
20
-2028.0
30
0.0
10
9639.0
20
-2122.0
30
0.0
6
Solid
370
35
62
3
0
LWPOLYLINE
5
101d
100
AcDbEntity
8
zone_2_q2
100
AcDbPolyline
90
67
70
1
10
7610.0
20
-1285.0
30
0.0
10
7650.0
20
-1512.0
30
0.0
10
7615.0
20
-1804.0
30
0.0
10
7482.0
20
-2090.0
30
0.0
10
7269.0
20
-2332.0
30
0.0
10
6898.0
20
-2402.0
30
0.0
10
6597.0
20
-2278.0
30
0.0
10
6291.0
20
-2318.0
30
0.0
10
6044.0
20
-2125.0
30
0.0
10
5916.0
20
-1748.0
30
0.0
10
5957.0
20
-1758.0
30
0.0
10
5998.0
20
-1762.0
30
0.0
10
6038.0
20
-1762.0
30
0.0
10
6077.0
20
-1759.0
30
0.0
10
6116.0
20
-1754.0
30
0.0
10
6153.0
20
-1749.0
30
0.0
10
6190.0
20
-1744.0
30
0.0
10
6225.0
20
-1743.0
30
0.0
10
6259.0
20
-1743.0
30
0.0
10
6293.0
20
-1744.0
30
0.0
10
6327.0
20
-1745.0
30
0.0
10
6360.0
20
-1746.0
30
0.0
10
6394.0
20
-1746.0
30
0.0
10
6428.0
20
-1745.0
30
0.0
10
6465.0
20
-1742.0
30
0.0
10
6501.0
20
-1736.0
30
0.0
10
6538.0
20
-1729.0
30
0.0
10
6574.0
20
-1720.0
30
0.0
10
6611.0
20
-1709.0
30
0.0
10
6647.0
20
-1698.0
30
0.0
10
6682.0
20
-1685.0
30
0.0
10
6716.0
20
-1672.0
30
0.0
10
6749.0
20
-1658.0
30
0.0
10
6781.0
20
-1643.0
30
0.0
10
6813.0
20
-1628.0
30
0.0
10
6845.0
20
-1613.0
30
0.0
10
6876.0
20
-1597.0
30
0.0
10
6908.0
20
-1581.0
30
0.0
10
6940.0
20
-1564.0
30
0.0
10
6972.0
20
-1547.0
30
0.0
10
7003.0
20
-1527.0
30
0.0
10
7033.0
20
-1505.0
30
0.0
10
7062.0
20
-1480.0
30
0.0
10
7089.0
20
-1451.0
30
0.0
10
7114.0
20
-1417.0
30
0.0
10
7135.0
20
-1382.0
30
0.0
10
7153.0
20
-1346.0
30
0.0
10
7169.0
20
-1311.0
30
0.0
10
7182.0
20
-1279.0
30
0.0
10
7192.0
20
-1253.0
30
0.0
10
7198.0
20
-1235.0
30
0.0
10
7200.0
20
-1229.0
30
0.0
10
7206.0
20
-1226.0
30
0.0
10
7221.0
20
-1220.0
30
0.0
10
7245.0
20
-1210.0
30
0.0
10
7273.0
20
-1197.0
30
0.0
10
7305.0
20
-1181.0
30
0.0
10
7337.0
20
-1163.0
30
0.0
10
7367.0
20
-1144.0
30
0.0
10
7398.0
20
-1120.0
30
0.0
10
7423.0
20
-1096.0
30
0.0
10
7445.0
20
-1069.0
30
0.0
10
7464.0
20
-1041.0
30
0.0
10
7481.0
20
-1012.0
30
0.0
10
7496.0
20
-981.0
30
0.0
10
7511.0
20
-948.0
30
0.0
10
7610.0
20
-1285.0
30
0.0
6
Solid
370
35
62
2
0
LWPOLYLINE
5
1020
100
AcDbEntity
8
zone_3_q2
100
AcDbPolyline
90
89
70
1
10
5325.0
20
-7928.0
30
0.0
10
5662.0
20
-7618.0
30
0.0
10
5998.0
20
-7614.0
30
0.0
10
6358.0
20
-7395.0
30
0.0
10
6808.0
20
-7400.0
30
0.0
10
7199.0
20
-7609.0
30
0.0
10
7422.0
20
-7964.0
30
0.0
10
7472.0
20
-8141.0
30
0.0
10
7595.0
20
-8510.0
30
0.0
10
7618.0
20
-8642.0
30
0.0
10
7534.0
20
-8761.0
30
0.0
10
7528.0
20
-8737.0
30
0.0
10
7520.0
20
-8714.0
30
0.0
10
7511.0
20
-8690.0
30
0.0
10
7502.0
20
-8667.0
30
0.0
10
7492.0
20
-8645.0
30
0.0
10
7480.0
20
-8625.0
30
0.0
10
7468.0
20
-8606.0
30
0.0
10
7436.0
20
-8571.0
30
0.0
10
7399.0
20
-8545.0
30
0.0
10
7359.0
20
-8527.0
30
0.0
10
7317.0
20
-8515.0
30
0.0
10
7273.0
20
-8507.0
30
0.0
10
7230.0
20
-8500.0
30
0.0
10
7187.0
20
-8494.0
30
0.0
10
7148.0
20
-8487.0
30
0.0
10
7110.0
20
-8478.0
30
0.0
10
7072.0
20
-8470.0
30
0.0
10
7035.0
20
-8462.0
30
0.0
10
6997.0
20
-8455.0
30
0.0
10
6959.0
20
-8451.0
30
0.0
10
6919.0
20
-8449.0
30
0.0
10
6889.0
20
-8449.0
30
0.0
10
6860.0
20
-8451.0
30
0.0
10
6832.0
20
-8454.0
30
0.0
10
6808.0
20
-8457.0
30
0.0
10
6789.0
20
-8460.0
30
0.0
10
6777.0
20
-8462.0
30
0.0
10
6772.0
20
-8463.0
30
0.0
10
6765.0
20
-8457.0
30
0.0
10
6744.0
20
-8441.0
30
0.0
10
6712.0
20
-8419.0
30
0.0
10
6673.0
20
-8392.0
30
0.0
10
6629.0
20
-8362.0
30
0.0
10
6584.0
20
-8333.0
30
0.0
10
6539.0
20
-8306.0
30
0.0
10
6500.0
20
-8284.0
30
0.0
10
6464.0
20
-8267.0
30
0.0
10
6430.0
20
-8253.0
30
0.0
10
6397.0
20
-8243.0
30
0.0
10
6364.0
20
-8234.0
30
0.0
10
6330.0
20
-8227.0
30
0.0
10
6295.0
20
-8220.0
30
0.0
10
6255.0
20
-8214.0
30
0.0
10
6213.0
20
-8209.0
30
0.0
10
6171.0
20
-8205.0
30
0.0
10
6128.0
20
-8202.0
30
0.0
10
6086.0
20
-8200.0
30
0.0
10
6046.0
20
-8200.0
30
0.0
10
6009.0
20
-8203.0
30
0.0
10
5977.0
20
-8207.0
30
0.0
10
5948.0
20
-8214.0
30
0.0
10
5919.0
20
-8223.0
30
0.0
10
5890.0
20
-8235.0
30
0.0
10
5859.0
20
-8249.0
30
0.0
10
5826.0
20
-8266.0
30
0.0
10
5788.0
20
-8287.0
30
0.0
10
5740.0
20
-8313.0
30
0.0
10
5690.0
20
-8341.0
30
0.0
10
5640.0
20
-8370.0
30
0.0
10
5595.0
20
-8395.0
30
0.0
10
5558.0
20
-8416.0
30
0.0
10
5533.0
20
-8430.0
30
0.0
10
5524.0
20
-8436.0
30
0.0
10
5520.0
20
-8432.0
30
0.0
10
5509.0
20
-8423.0
30
0.0
10
5491.0
20
-8411.0
30
0.0
10
5468.0
20
-8397.0
30
0.0
10
5440.0
20
-8383.0
30
0.0
10
5409.0
20
-8371.0
30
0.0
10
5375.0
20
-8362.0
30
0.0
10
5367.0
20
-8361.0
30
0.0
10
5358.0
20
-8360.0
30
0.0
10
5350.0
20
-8360.0
30
0.0
10
5341.0
20
-8360.0
30
0.0
10
5333.0
20
-8360.0
30
0.0
10
5324.0
20
-8360.0
30
0.0
10
5316.0
20
-8360.0
30
0.0
10
5325.0
20
-7928.0
30
0.0
6
Solid
370
35
62
2
0
LWPOLYLINE
5
1023
100
AcDbEntity
8
zone_4_q3
100
AcDbPolyline
90
5
70
1
10
8789.0
20
-8085.0
30
0.0
10
8945.0
20
-8840.0
30
0.0
10
8028.0
20
-8594.0
30
0.0
10
8047.0
20
-7988.0
30
0.0
10
8789.0
20
-8085.0
30
0.0
6
Solid
370
35
62
3
0
LWPOLYLINE
5
1026
100
AcDbEntity
8
zone_5_q3
100
AcDbPolyline
90
5
70
1
10
4158.0
20
-8368.0
30
0.0
10
3943.0
20
-7551.0
30
0.0
10
4612.0
20
-7781.0
30
0.0
10
4589.0
20
-8660.0
30
0.0
10
4158.0
20
-8368.0
30
0.0
6
Solid
370
35
62
3
0
LWPOLYLINE
5
1029
100
AcDbEntity
8
zone_6_q3
100
AcDbPolyline
90
5
70
1
10
4247.0
20
-1580.0
30
0.0
10
4365.0
20
-2414.0
30
0.0
10
3524.0
20
-2542.0
30
0.0
10
3337.0
20
-1627.0
30
0.0
10
4247.0
20
-1580.0
30
0.0
6
Solid
370
35
62
3
0
LWPOLYLINE
5
102c
100
AcDbEntity
8
zone_7_q3
100
AcDbPolyline
90
5
70
1
10
9072.0
20
-309.0
30
0.0
10
8991.0
20
-1192.0
30
0.0
10
8166.0
20
-1404.0
30
0.0
10
8191.0
20
-446.0
30
0.0
10
9072.0
20
-309.0
30
0.0
6
Solid
370
35
62
3
0
ENDSEC
0
SECTION
2
OBJECTS
0
DICTIONARY
5
1000
330
0
100
AcDbDictionary
281
1
3
ACAD_GROUP
350
1001
0
DICTIONARY
5
1001
330
1000
100
AcDbDictionary
281
1
0
ENDSEC
0
EOF
