999

0
SECTION
2
HEADER
9
$ACADVER
1
AC1021
9
$HANDSEED
5
1fc9
0
ENDSEC
0
SECTION
2
CLASSES
0
ENDSEC
0
SECTION
2
TABLES
0
TABLE
2
VPORT
5
1fb1
100
AcDbSymbolTable
70
1
0
VPORT
5
1fb0
100
AcDbSymbolTableRecord
100
AcDbViewportTableRecord
2
*ACTIVE
10
0
20
0
11
1
21
1
12
500.0
22
500.0
40
1000.0
70
0
0
ENDTAB
0
TABLE
2
LTYPE
5
1fb2
100
AcDbSymbolTable
70
3
0
LTYPE
5
1fba
100
AcDbSymbolTableRecord
100
AcDbLinetypeTableRecord
2
Solid
70
0
72
65
73
0
3

0
LTYPE
5
1fbb
100
AcDbSymbolTableRecord
100
AcDbLinetypeTableRecord
2
ByBlock
70
0
72
65
73
0
3

0
LTYPE
5
1fbc
100
AcDbSymbolTableRecord
100
AcDbLinetypeTableRecord
2
ByLayer
70
0
72
65
73
0
3

0
ENDTAB
0
TABLE
2
LAYER
5
1fb3
100
AcDbSymbolTable
70
1
0
LAYER
5
1fbd
100
AcDbSymbolTableRecord
100
AcDbLayerTableRecord
2
0
70
0
390
0
0
ENDTAB
0
TABLE
2
STYLE
5
1fb4
100
AcDbSymbolTable
70
0
0
ENDTAB
0
TABLE
2
VIEW
5
1fb5
100
AcDbSymbolTable
70
0
0
ENDTAB
0
TABLE
2
UCS
5
1fb6
100
AcDbSymbolTable
70
0
0
ENDTAB
0
TABLE
2
APPID
5
1fb7
100
AcDbSymbolTable
70
1
0
APPID
5
1fbe
100
AcDbSymbolTableRecord
100
AcDbRegAppTableRecord
2
ACAD
70
0
0
ENDTAB
0
TABLE
2
DIMSTYLE
5
1fb8
100
AcDbSymbolTable
70
0
100
AcDbDimStyleTable
71
1
0
ENDTAB
0
TABLE
2
BLOCK_RECORD
5
1fb9
100
AcDbSymbolTable
70
2
0
BLOCK_RECORD
5
1fbf
100
AcDbSymbolTableRecord
100
AcDbBlockTableRecord
2
*Model_Space
70
0
280
1
281
0
0
BLOCK_RECORD
5
1fc0
100
AcDbSymbolTableRecord
100
AcDbBlockTableRecord
2
*Paper_Space
70
0
280
1
281
0
0
ENDTAB
0
ENDSEC
0
SECTION
2
BLOCKS
0
BLOCK
5
1fc1
100
AcDbEntity
100
AcDbBlockBegin
2
*Model_Space
70
0
10
0
20
0
30
0
3
*Model_Space
1

0
ENDBLK
5
1fc2
100
AcDbEntity
100
AcDbBlockEnd
0
BLOCK
5
1fc3
100
AcDbEntity
100
AcDbBlockBegin
2
*Paper_Space
70
0
10
0
20
0
30
0
3
*Paper_Space
1

0
ENDBLK
5
1fc4
100
AcDbEntity
100
AcDbBlockEnd
0
ENDSEC
0
SECTION
2
ENTITIES
0
LWPOLYLINE
5
1fc7
100
AcDbEntity
100
AcDbPolyline
90
35
70
1
10
1670.0
20
-185.0
30
0.0
10
1678.0
20
-208.0
30
0.0
10
1698.0
20
-272.0
30
0.0
10
1727.0
20
-371.0
30
0.0
10
1761.0
20
-497.0
30
0.0
10
1797.0
20
-642.0
30
0.0
10
1831.0
20
-801.0
30
0.0
10
1859.0
20
-964.0
30
0.0
10
1878.0
20
-1114.0
30
0.0
10
1890.0
20
-1256.0
30
0.0
10
1897.0
20
-1385.0
30
0.0
10
1900.0
20
-1495.0
30
0.0
10
1901.0
20
-1581.0
30
0.0
10
1900.0
20
-1637.0
30
0.0
10
1900.0
20
-1657.0
30
0.0
10
1888.0
20
-1954.0
30
0.0
10
950.0
20
-1954.0
30
0.0
10
13.0
20
-1954.0
30
0.0
10
1.0
20
-1657.0
30
0.0
10
1.0
20
-1637.0
30
0.0
10
0.0
20
-1581.0
30
0.0
10
1.0
20
-1495.0
30
0.0
10
4.0
20
-1385.0
30
0.0
10
11.0
20
-1256.0
30
0.0
10
23.0
20
-1114.0
30
0.0
10
41.0
20
-964.0
30
0.0
10
70.0
20
-801.0
30
0.0
10
104.0
20
-642.0
30
0.0
10
140.0
20
-497.0
30
0.0
10
174.0
20
-371.0
30
0.0
10
203.0
20
-272.0
30
0.0
10
223.0
20
-208.0
30
0.0
10
231.0
20
-185.0
30
0.0
10
950.0
20
0.0
30
0.0
10
1670.0
20
-185.0
30
0.0
6
Solid
370
35
62
0
0
ENDSEC
0
SECTION
2
OBJECTS
0
DICTIONARY
5
1fc5
330
0
100
AcDbDictionary
281
1
3
ACAD_GROUP
350
1fc6
0
DICTIONARY
5
1fc6
330
1fc5
100
AcDbDictionary
281
1
0
ENDSEC
0
EOF
