999

0
SECTION
2
HEADER
9
$ACADVER
1
AC1021
9
$HANDSEED
5
1fe2
0
ENDSEC
0
SECTION
2
CLASSES
0
ENDSEC
0
SECTION
2
TABLES
0
TABLE
2
VPORT
5
1fca
100
AcDbSymbolTable
70
1
0
VPORT
5
1fc9
100
AcDbSymbolTableRecord
100
AcDbViewportTableRecord
2
*ACTIVE
10
0
20
0
11
1
21
1
12
500.0
22
500.0
40
1000.0
70
0
0
ENDTAB
0
TABLE
2
LTYPE
5
1fcb
100
AcDbSymbolTable
70
3
0
LTYPE
5
1fd3
100
AcDbSymbolTableRecord
100
AcDbLinetypeTableRecord
2
Solid
70
0
72
65
73
0
3

0
LTYPE
5
1fd4
100
AcDbSymbolTableRecord
100
AcDbLinetypeTableRecord
2
ByBlock
70
0
72
65
73
0
3

0
LTYPE
5
1fd5
100
AcDbSymbolTableRecord
100
AcDbLinetypeTableRecord
2
ByLayer
70
0
72
65
73
0
3

0
ENDTAB
0
TABLE
2
LAYER
5
1fcc
100
AcDbSymbolTable
70
1
0
LAYER
5
1fd6
100
AcDbSymbolTableRecord
100
AcDbLayerTableRecord
2
0
70
0
390
0
0
ENDTAB
0
TABLE
2
STYLE
5
1fcd
100
AcDbSymbolTable
70
0
0
ENDTAB
0
TABLE
2
VIEW
5
1fce
100
AcDbSymbolTable
70
0
0
ENDTAB
0
TABLE
2
UCS
5
1fcf
100
AcDbSymbolTable
70
0
0
ENDTAB
0
TABLE
2
APPID
5
1fd0
100
AcDbSymbolTable
70
1
0
APPID
5
1fd7
100
AcDbSymbolTableRecord
100
AcDbRegAppTableRecord
2
ACAD
70
0
0
ENDTAB
0
TABLE
2
DIMSTYLE
5
1fd1
100
AcDbSymbolTable
70
0
100
AcDbDimStyleTable
71
1
0
ENDTAB
0
TABLE
2
BLOCK_RECORD
5
1fd2
100
AcDbSymbolTable
70
2
0
BLOCK_RECORD
5
1fd8
100
AcDbSymbolTableRecord
100
AcDbBlockTableRecord
2
*Model_Space
70
0
280
1
281
0
0
BLOCK_RECORD
5
1fd9
100
AcDbSymbolTableRecord
100
AcDbBlockTableRecord
2
*Paper_Space
70
0
280
1
281
0
0
ENDTAB
0
ENDSEC
0
SECTION
2
BLOCKS
0
BLOCK
5
1fda
100
AcDbEntity
100
AcDbBlockBegin
2
*Model_Space
70
0
10
0
20
0
30
0
3
*Model_Space
1

0
ENDBLK
5
1fdb
100
AcDbEntity
100
AcDbBlockEnd
0
BLOCK
5
1fdc
100
AcDbEntity
100
AcDbBlockBegin
2
*Paper_Space
70
0
10
0
20
0
30
0
3
*Paper_Space
1

0
ENDBLK
5
1fdd
100
AcDbEntity
100
AcDbBlockEnd
0
ENDSEC
0
SECTION
2
ENTITIES
0
LWPOLYLINE
5
1fe0
100
AcDbEntity
100
AcDbPolyline
90
94
70
1
10
2417.0
20
-4147.0
30
0.0
10
2419.0
20
-4078.0
30
0.0
10
2418.0
20
-3977.0
30
0.0
10
2414.0
20
-3853.0
30
0.0
10
2405.0
20
-3719.0
30
0.0
10
2388.0
20
-3584.0
30
0.0
10
2361.0
20
-3460.0
30
0.0
10
2317.0
20
-3342.0
30
0.0
10
2260.0
20
-3247.0
30
0.0
10
2195.0
20
-3174.0
30
0.0
10
2122.0
20
-3117.0
30
0.0
10
2047.0
20
-3074.0
30
0.0
10
1970.0
20
-3041.0
30
0.0
10
1896.0
20
-3014.0
30
0.0
10
1836.0
20
-2994.0
30
0.0
10
1776.0
20
-2974.0
30
0.0
10
1713.0
20
-2953.0
30
0.0
10
1644.0
20
-2931.0
30
0.0
10
1565.0
20
-2905.0
30
0.0
10
1473.0
20
-2875.0
30
0.0
10
1364.0
20
-2839.0
30
0.0
10
1167.0
20
-2774.0
30
0.0
10
945.0
20
-2699.0
30
0.0
10
719.0
20
-2623.0
30
0.0
10
507.0
20
-2551.0
30
0.0
10
331.0
20
-2491.0
30
0.0
10
211.0
20
-2450.0
30
0.0
10
166.0
20
-2435.0
30
0.0
10
165.0
20
-2411.0
30
0.0
10
161.0
20
-2347.0
30
0.0
10
156.0
20
-2250.0
30
0.0
10
149.0
20
-2130.0
30
0.0
10
142.0
20
-1995.0
30
0.0
10
133.0
20
-1855.0
30
0.0
10
125.0
20
-1718.0
30
0.0
10
116.0
20
-1577.0
30
0.0
10
106.0
20
-1447.0
30
0.0
10
97.0
20
-1324.0
30
0.0
10
87.0
20
-1203.0
30
0.0
10
77.0
20
-1081.0
30
0.0
10
67.0
20
-951.0
30
0.0
10
55.0
20
-811.0
30
0.0
10
44.0
20
-678.0
30
0.0
10
34.0
20
-542.0
30
0.0
10
23.0
20
-411.0
30
0.0
10
14.0
20
-294.0
30
0.0
10
7.0
20
-200.0
30
0.0
10
2.0
20
-137.0
30
0.0
10
0.0
20
-114.0
30
0.0
10
53.0
20
-107.0
30
0.0
10
200.0
20
-90.0
30
0.0
10
426.0
20
-66.0
30
0.0
10
713.0
20
-41.0
30
0.0
10
1046.0
20
-19.0
30
0.0
10
1407.0
20
-3.0
30
0.0
10
1781.0
20
0.0
30
0.0
10
2002.0
20
-5.0
30
0.0
10
2223.0
20
-16.0
30
0.0
10
2448.0
20
-32.0
30
0.0
10
2679.0
20
-54.0
30
0.0
10
2919.0
20
-82.0
30
0.0
10
3168.0
20
-115.0
30
0.0
10
3431.0
20
-153.0
30
0.0
10
3555.0
20
-172.0
30
0.0
10
3682.0
20
-192.0
30
0.0
10
3810.0
20
-212.0
30
0.0
10
3939.0
20
-233.0
30
0.0
10
4069.0
20
-255.0
30
0.0
10
4200.0
20
-276.0
30
0.0
10
4329.0
20
-297.0
30
0.0
10
4669.0
20
-350.0
30
0.0
10
4989.0
20
-398.0
30
0.0
10
5277.0
20
-441.0
30
0.0
10
5521.0
20
-476.0
30
0.0
10
5709.0
20
-502.0
30
0.0
10
5831.0
20
-519.0
30
0.0
10
5874.0
20
-525.0
30
0.0
10
5862.0
20
-2604.0
30
0.0
10
5865.0
20
-3410.0
30
0.0
10
5816.0
20
-3413.0
30
0.0
10
5678.0
20
-3422.0
30
0.0
10
5469.0
20
-3438.0
30
0.0
10
5205.0
20
-3463.0
30
0.0
10
4901.0
20
-3498.0
30
0.0
10
4576.0
20
-3544.0
30
0.0
10
4244.0
20
-3602.0
30
0.0
10
3833.0
20
-3695.0
30
0.0
10
3452.0
20
-3800.0
30
0.0
10
3112.0
20
-3908.0
30
0.0
10
2826.0
20
-4009.0
30
0.0
10
2607.0
20
-4093.0
30
0.0
10
2466.0
20
-4151.0
30
0.0
10
2416.0
20
-4173.0
30
0.0
10
2417.0
20
-4147.0
30
0.0
6
Solid
370
35
62
0
0
ENDSEC
0
SECTION
2
OBJECTS
0
DICTIONARY
5
1fde
330
0
100
AcDbDictionary
281
1
3
ACAD_GROUP
350
1fdf
0
DICTIONARY
5
1fdf
330
1fde
100
AcDbDictionary
281
1
0
ENDSEC
0
EOF
