999

0
SECTION
2
HEADER
9
$ACADVER
1
AC1021
9
$HANDSEED
5
1ffb
0
ENDSEC
0
SECTION
2
CLASSES
0
ENDSEC
0
SECTION
2
TABLES
0
TABLE
2
VPORT
5
1fe3
100
AcDbSymbolTable
70
1
0
VPORT
5
1fe2
100
AcDbSymbolTableRecord
100
AcDbViewportTableRecord
2
*ACTIVE
10
0
20
0
11
1
21
1
12
500.0
22
500.0
40
1000.0
70
0
0
ENDTAB
0
TABLE
2
LTYPE
5
1fe4
100
AcDbSymbolTable
70
3
0
LTYPE
5
1fec
100
AcDbSymbolTableRecord
100
AcDbLinetypeTableRecord
2
Solid
70
0
72
65
73
0
3

0
LTYPE
5
1fed
100
AcDbSymbolTableRecord
100
AcDbLinetypeTableRecord
2
ByBlock
70
0
72
65
73
0
3

0
LTYPE
5
1fee
100
AcDbSymbolTableRecord
100
AcDbLinetypeTableRecord
2
ByLayer
70
0
72
65
73
0
3

0
ENDTAB
0
TABLE
2
LAYER
5
1fe5
100
AcDbSymbolTable
70
1
0
LAYER
5
1fef
100
AcDbSymbolTableRecord
100
AcDbLayerTableRecord
2
0
70
0
390
0
0
ENDTAB
0
TABLE
2
STYLE
5
1fe6
100
AcDbSymbolTable
70
0
0
ENDTAB
0
TABLE
2
VIEW
5
1fe7
100
AcDbSymbolTable
70
0
0
ENDTAB
0
TABLE
2
UCS
5
1fe8
100
AcDbSymbolTable
70
0
0
ENDTAB
0
TABLE
2
APPID
5
1fe9
100
AcDbSymbolTable
70
1
0
APPID
5
1ff0
100
AcDbSymbolTableRecord
100
AcDbRegAppTableRecord
2
ACAD
70
0
0
ENDTAB
0
TABLE
2
DIMSTYLE
5
1fea
100
AcDbSymbolTable
70
0
100
AcDbDimStyleTable
71
1
0
ENDTAB
0
TABLE
2
BLOCK_RECORD
5
1feb
100
AcDbSymbolTable
70
2
0
BLOCK_RECORD
5
1ff1
100
AcDbSymbolTableRecord
100
AcDbBlockTableRecord
2
*Model_Space
70
0
280
1
281
0
0
BLOCK_RECORD
5
1ff2
100
AcDbSymbolTableRecord
100
AcDbBlockTableRecord
2
*Paper_Space
70
0
280
1
281
0
0
ENDTAB
0
ENDSEC
0
SECTION
2
BLOCKS
0
BLOCK
5
1ff3
100
AcDbEntity
100
AcDbBlockBegin
2
*Model_Space
70
0
10
0
20
0
30
0
3
*Model_Space
1

0
ENDBLK
5
1ff4
100
AcDbEntity
100
AcDbBlockEnd
0
BLOCK
5
1ff5
100
AcDbEntity
100
AcDbBlockBegin
2
*Paper_Space
70
0
10
0
20
0
30
0
3
*Paper_Space
1

0
ENDBLK
5
1ff6
100
AcDbEntity
100
AcDbBlockEnd
0
ENDSEC
0
SECTION
2
ENTITIES
0
LWPOLYLINE
5
1ff9
100
AcDbEntity
100
AcDbPolyline
90
50
70
1
10
200.0
20
-2622.0
30
0.0
10
193.0
20
-2550.0
30
0.0
10
184.0
20
-2452.0
30
0.0
10
174.0
20
-2345.0
30
0.0
10
164.0
20
-2247.0
30
0.0
10
158.0
20
-2175.0
30
0.0
10
155.0
20
-2147.0
30
0.0
10
151.0
20
-2107.0
30
0.0
10
141.0
20
-1997.0
30
0.0
10
127.0
20
-1830.0
30
0.0
10
109.0
20
-1621.0
30
0.0
10
89.0
20
-1384.0
30
0.0
10
69.0
20
-1133.0
30
0.0
10
49.0
20
-883.0
30
0.0
10
37.0
20
-712.0
30
0.0
10
27.0
20
-554.0
30
0.0
10
17.0
20
-413.0
30
0.0
10
10.0
20
-295.0
30
0.0
10
5.0
20
-204.0
30
0.0
10
1.0
20
-146.0
30
0.0
10
0.0
20
-125.0
30
0.0
10
281.0
20
-118.0
30
0.0
10
1005.0
20
-100.0
30
0.0
10
1995.0
20
-76.0
30
0.0
10
3073.0
20
-49.0
30
0.0
10
4063.0
20
-25.0
30
0.0
10
4787.0
20
-7.0
30
0.0
10
5068.0
20
0.0
30
0.0
10
5077.0
20
-110.0
30
0.0
10
5101.0
20
-394.0
30
0.0
10
5133.0
20
-783.0
30
0.0
10
5168.0
20
-1207.0
30
0.0
10
5201.0
20
-1595.0
30
0.0
10
5225.0
20
-1879.0
30
0.0
10
5234.0
20
-1990.0
30
0.0
10
5176.0
20
-1995.0
30
0.0
10
5013.0
20
-2012.0
30
0.0
10
4760.0
20
-2039.0
30
0.0
10
4432.0
20
-2075.0
30
0.0
10
4045.0
20
-2118.0
30
0.0
10
3615.0
20
-2169.0
30
0.0
10
3155.0
20
-2226.0
30
0.0
10
2554.0
20
-2306.0
30
0.0
10
1962.0
20
-2388.0
30
0.0
10
1410.0
20
-2467.0
30
0.0
10
927.0
20
-2539.0
30
0.0
10
545.0
20
-2597.0
30
0.0
10
293.0
20
-2635.0
30
0.0
10
203.0
20
-2650.0
30
0.0
10
200.0
20
-2622.0
30
0.0
6
Solid
370
35
62
0
0
ENDSEC
0
SECTION
2
OBJECTS
0
DICTIONARY
5
1ff7
330
0
100
AcDbDictionary
281
1
3
ACAD_GROUP
350
1ff8
0
DICTIONARY
5
1ff8
330
1ff7
100
AcDbDictionary
281
1
0
ENDSEC
0
EOF
