999

0
SECTION
2
HEADER
9
$ACADVER
1
AC1021
9
$HANDSEED
5
2014
0
ENDSEC
0
SECTION
2
CLASSES
0
ENDSEC
0
SECTION
2
TABLES
0
TABLE
2
VPORT
5
1ffc
100
AcDbSymbolTable
70
1
0
VPORT
5
1ffb
100
AcDbSymbolTableRecord
100
AcDbViewportTableRecord
2
*ACTIVE
10
0
20
0
11
1
21
1
12
500.0
22
500.0
40
1000.0
70
0
0
ENDTAB
0
TABLE
2
LTYPE
5
1ffd
100
AcDbSymbolTable
70
3
0
LTYPE
5
2005
100
AcDbSymbolTableRecord
100
AcDbLinetypeTableRecord
2
Solid
70
0
72
65
73
0
3

0
LTYPE
5
2006
100
AcDbSymbolTableRecord
100
AcDbLinetypeTableRecord
2
ByBlock
70
0
72
65
73
0
3

0
LTYPE
5
2007
100
AcDbSymbolTableRecord
100
AcDbLinetypeTableRecord
2
ByLayer
70
0
72
65
73
0
3

0
ENDTAB
0
TABLE
2
LAYER
5
1ffe
100
AcDbSymbolTable
70
1
0
LAYER
5
2008
100
AcDbSymbolTableRecord
100
AcDbLayerTableRecord
2
0
70
0
390
0
0
ENDTAB
0
TABLE
2
STYLE
5
1fff
100
AcDbSymbolTable
70
0
0
ENDTAB
0
TABLE
2
VIEW
5
2000
100
AcDbSymbolTable
70
0
0
ENDTAB
0
TABLE
2
UCS
5
2001
100
AcDbSymbolTable
70
0
0
ENDTAB
0
TABLE
2
APPID
5
2002
100
AcDbSymbolTable
70
1
0
APPID
5
2009
100
AcDbSymbolTableRecord
100
AcDbRegAppTableRecord
2
ACAD
70
0
0
ENDTAB
0
TABLE
2
DIMSTYLE
5
2003
100
AcDbSymbolTable
70
0
100
AcDbDimStyleTable
71
1
0
ENDTAB
0
TABLE
2
BLOCK_RECORD
5
2004
100
AcDbSymbolTable
70
2
0
BLOCK_RECORD
5
200a
100
AcDbSymbolTableRecord
100
AcDbBlockTableRecord
2
*Model_Space
70
0
280
1
281
0
0
BLOCK_RECORD
5
200b
100
AcDbSymbolTableRecord
100
AcDbBlockTableRecord
2
*Paper_Space
70
0
280
1
281
0
0
ENDTAB
0
ENDSEC
0
SECTION
2
BLOCKS
0
BLOCK
5
200c
100
AcDbEntity
100
AcDbBlockBegin
2
*Model_Space
70
0
10
0
20
0
30
0
3
*Model_Space
1

0
ENDBLK
5
200d
100
AcDbEntity
100
AcDbBlockEnd
0
BLOCK
5
200e
100
AcDbEntity
100
AcDbBlockBegin
2
*Paper_Space
70
0
10
0
20
0
30
0
3
*Paper_Space
1

0
ENDBLK
5
200f
100
AcDbEntity
100
AcDbBlockEnd
0
ENDSEC
0
SECTION
2
ENTITIES
0
LWPOLYLINE
5
2012
100
AcDbEntity
100
AcDbPolyline
90
141
70
1
10
2516.0
20
-2843.0
30
0.0
10
2508.0
20
-2827.0
30
0.0
10
2495.0
20
-2803.0
30
0.0
10
2479.0
20
-2775.0
30
0.0
10
2461.0
20
-2743.0
30
0.0
10
2440.0
20
-2710.0
30
0.0
10
2419.0
20
-2680.0
30
0.0
10
2395.0
20
-2650.0
30
0.0
10
2369.0
20
-2625.0
30
0.0
10
2343.0
20
-2604.0
30
0.0
10
2315.0
20
-2587.0
30
0.0
10
2285.0
20
-2572.0
30
0.0
10
2252.0
20
-2560.0
30
0.0
10
2216.0
20
-2550.0
30
0.0
10
2183.0
20
-2542.0
30
0.0
10
2150.0
20
-2535.0
30
0.0
10
2118.0
20
-2530.0
30
0.0
10
2090.0
20
-2525.0
30
0.0
10
2067.0
20
-2522.0
30
0.0
10
2052.0
20
-2520.0
30
0.0
10
2046.0
20
-2519.0
30
0.0
10
2015.0
20
-2515.0
30
0.0
10
1927.0
20
-2505.0
30
0.0
10
1793.0
20
-2488.0
30
0.0
10
1623.0
20
-2468.0
30
0.0
10
1426.0
20
-2446.0
30
0.0
10
1213.0
20
-2422.0
30
0.0
10
993.0
20
-2399.0
30
0.0
10
785.0
20
-2379.0
30
0.0
10
588.0
20
-2362.0
30
0.0
10
409.0
20
-2347.0
30
0.0
10
257.0
20
-2334.0
30
0.0
10
138.0
20
-2325.0
30
0.0
10
62.0
20
-2319.0
30
0.0
10
34.0
20
-2317.0
30
0.0
10
35.0
20
-2306.0
30
0.0
10
37.0
20
-2274.0
30
0.0
10
39.0
20
-2226.0
30
0.0
10
41.0
20
-2163.0
30
0.0
10
42.0
20
-2091.0
30
0.0
10
41.0
20
-2012.0
30
0.0
10
39.0
20
-1929.0
30
0.0
10
35.0
20
-1842.0
30
0.0
10
28.0
20
-1758.0
30
0.0
10
20.0
20
-1681.0
30
0.0
10
13.0
20
-1616.0
30
0.0
10
6.0
20
-1564.0
30
0.0
10
2.0
20
-1531.0
30
0.0
10
0.0
20
-1519.0
30
0.0
10
6.0
20
-1518.0
30
0.0
10
22.0
20
-1518.0
30
0.0
10
48.0
20
-1516.0
30
0.0
10
82.0
20
-1514.0
30
0.0
10
121.0
20
-1512.0
30
0.0
10
166.0
20
-1508.0
30
0.0
10
213.0
20
-1504.0
30
0.0
10
276.0
20
-1499.0
30
0.0
10
339.0
20
-1490.0
30
0.0
10
402.0
20
-1479.0
30
0.0
10
464.0
20
-1462.0
30
0.0
10
522.0
20
-1440.0
30
0.0
10
575.0
20
-1411.0
30
0.0
10
622.0
20
-1373.0
30
0.0
10
658.0
20
-1330.0
30
0.0
10
688.0
20
-1281.0
30
0.0
10
712.0
20
-1224.0
30
0.0
10
731.0
20
-1163.0
30
0.0
10
744.0
20
-1096.0
30
0.0
10
752.0
20
-1024.0
30
0.0
10
755.0
20
-949.0
30
0.0
10
749.0
20
-807.0
30
0.0
10
732.0
20
-664.0
30
0.0
10
708.0
20
-528.0
30
0.0
10
682.0
20
-408.0
30
0.0
10
659.0
20
-312.0
30
0.0
10
641.0
20
-248.0
30
0.0
10
634.0
20
-225.0
30
0.0
10
661.0
20
-217.0
30
0.0
10
741.0
20
-197.0
30
0.0
10
873.0
20
-169.0
30
0.0
10
1057.0
20
-135.0
30
0.0
10
1290.0
20
-100.0
30
0.0
10
1572.0
20
-66.0
30
0.0
10
1902.0
20
-38.0
30
0.0
10
2179.0
20
-23.0
30
0.0
10
2477.0
20
-12.0
30
0.0
10
2791.0
20
-5.0
30
0.0
10
3115.0
20
-1.0
30
0.0
10
3443.0
20
0.0
30
0.0
10
3771.0
20
-1.0
30
0.0
10
4093.0
20
-4.0
30
0.0
10
4509.0
20
-9.0
30
0.0
10
4894.0
20
-15.0
30
0.0
10
5235.0
20
-21.0
30
0.0
10
5520.0
20
-28.0
30
0.0
10
5737.0
20
-33.0
30
0.0
10
5877.0
20
-37.0
30
0.0
10
5926.0
20
-38.0
30
0.0
10
5927.0
20
-74.0
30
0.0
10
5930.0
20
-173.0
30
0.0
10
5934.0
20
-325.0
30
0.0
10
5940.0
20
-516.0
30
0.0
10
5948.0
20
-736.0
30
0.0
10
5956.0
20
-972.0
30
0.0
10
5964.0
20
-1212.0
30
0.0
10
5971.0
20
-1396.0
30
0.0
10
5977.0
20
-1569.0
30
0.0
10
5984.0
20
-1725.0
30
0.0
10
5989.0
20
-1857.0
30
0.0
10
5993.0
20
-1959.0
30
0.0
10
5996.0
20
-2025.0
30
0.0
10
5997.0
20
-2048.0
30
0.0
10
5997.0
20
-2056.0
30
0.0
10
5998.0
20
-2076.0
30
0.0
10
5999.0
20
-2108.0
30
0.0
10
6001.0
20
-2148.0
30
0.0
10
6004.0
20
-2195.0
30
0.0
10
6007.0
20
-2245.0
30
0.0
10
6010.0
20
-2298.0
30
0.0
10
6013.0
20
-2345.0
30
0.0
10
6016.0
20
-2390.0
30
0.0
10
6019.0
20
-2431.0
30
0.0
10
6022.0
20
-2466.0
30
0.0
10
6024.0
20
-2493.0
30
0.0
10
6025.0
20
-2511.0
30
0.0
10
6026.0
20
-2517.0
30
0.0
10
5984.0
20
-2521.0
30
0.0
10
5865.0
20
-2530.0
30
0.0
10
5680.0
20
-2546.0
30
0.0
10
5442.0
20
-2566.0
30
0.0
10
5161.0
20
-2590.0
30
0.0
10
4849.0
20
-2618.0
30
0.0
10
4517.0
20
-2648.0
30
0.0
10
4107.0
20
-2687.0
30
0.0
10
3705.0
20
-2727.0
30
0.0
10
3331.0
20
-2764.0
30
0.0
10
3006.0
20
-2798.0
30
0.0
10
2748.0
20
-2824.0
30
0.0
10
2579.0
20
-2842.0
30
0.0
10
2518.0
20
-2849.0
30
0.0
10
2516.0
20
-2843.0
30
0.0
6
Solid
370
35
62
0
0
ENDSEC
0
SECTION
2
OBJECTS
0
DICTIONARY
5
2010
330
0
100
AcDbDictionary
281
1
3
ACAD_GROUP
350
2011
0
DICTIONARY
5
2011
330
2010
100
AcDbDictionary
281
1
0
ENDSEC
0
EOF
