999

0
SECTION
2
HEADER
9
$ACADVER
1
AC1021
9
$HANDSEED
5
202d
0
ENDSEC
0
SECTION
2
CLASSES
0
ENDSEC
0
SECTION
2
TABLES
0
TABLE
2
VPORT
5
2015
100
AcDbSymbolTable
70
1
0
VPORT
5
2014
100
AcDbSymbolTableRecord
100
AcDbViewportTableRecord
2
*ACTIVE
10
0
20
0
11
1
21
1
12
500.0
22
500.0
40
1000.0
70
0
0
ENDTAB
0
TABLE
2
LTYPE
5
2016
100
AcDbSymbolTable
70
3
0
LTYPE
5
201e
100
AcDbSymbolTableRecord
100
AcDbLinetypeTableRecord
2
Solid
70
0
72
65
73
0
3

0
LTYPE
5
201f
100
AcDbSymbolTableRecord
100
AcDbLinetypeTableRecord
2
ByBlock
70
0
72
65
73
0
3

0
LTYPE
5
2020
100
AcDbSymbolTableRecord
100
AcDbLinetypeTableRecord
2
ByLayer
70
0
72
65
73
0
3

0
ENDTAB
0
TABLE
2
LAYER
5
2017
100
AcDbSymbolTable
70
1
0
LAYER
5
2021
100
AcDbSymbolTableRecord
100
AcDbLayerTableRecord
2
0
70
0
390
0
0
ENDTAB
0
TABLE
2
STYLE
5
2018
100
AcDbSymbolTable
70
0
0
ENDTAB
0
TABLE
2
VIEW
5
2019
100
AcDbSymbolTable
70
0
0
ENDTAB
0
TABLE
2
UCS
5
201a
100
AcDbSymbolTable
70
0
0
ENDTAB
0
TABLE
2
APPID
5
201b
100
AcDbSymbolTable
70
1
0
APPID
5
2022
100
AcDbSymbolTableRecord
100
AcDbRegAppTableRecord
2
ACAD
70
0
0
ENDTAB
0
TABLE
2
DIMSTYLE
5
201c
100
AcDbSymbolTable
70
0
100
AcDbDimStyleTable
71
1
0
ENDTAB
0
TABLE
2
BLOCK_RECORD
5
201d
100
AcDbSymbolTable
70
2
0
BLOCK_RECORD
5
2023
100
AcDbSymbolTableRecord
100
AcDbBlockTableRecord
2
*Model_Space
70
0
280
1
281
0
0
BLOCK_RECORD
5
2024
100
AcDbSymbolTableRecord
100
AcDbBlockTableRecord
2
*Paper_Space
70
0
280
1
281
0
0
ENDTAB
0
ENDSEC
0
SECTION
2
BLOCKS
0
BLOCK
5
2025
100
AcDbEntity
100
AcDbBlockBegin
2
*Model_Space
70
0
10
0
20
0
30
0
3
*Model_Space
1

0
ENDBLK
5
2026
100
AcDbEntity
100
AcDbBlockEnd
0
BLOCK
5
2027
100
AcDbEntity
100
AcDbBlockBegin
2
*Paper_Space
70
0
10
0
20
0
30
0
3
*Paper_Space
1

0
ENDBLK
5
2028
100
AcDbEntity
100
AcDbBlockEnd
0
ENDSEC
0
SECTION
2
ENTITIES
0
LWPOLYLINE
5
202b
100
AcDbEntity
100
AcDbPolyline
90
65
70
1
10
195.0
20
-1526.0
30
0.0
10
193.0
20
-1508.0
30
0.0
10
187.0
20
-1458.0
30
0.0
10
177.0
20
-1382.0
30
0.0
10
164.0
20
-1285.0
30
0.0
10
149.0
20
-1172.0
30
0.0
10
130.0
20
-1049.0
30
0.0
10
110.0
20
-921.0
30
0.0
10
89.0
20
-800.0
30
0.0
10
67.0
20
-684.0
30
0.0
10
46.0
20
-579.0
30
0.0
10
28.0
20
-489.0
30
0.0
10
13.0
20
-418.0
30
0.0
10
4.0
20
-372.0
30
0.0
10
0.0
20
-356.0
30
0.0
10
16.0
20
-352.0
30
0.0
10
59.0
20
-339.0
30
0.0
10
124.0
20
-321.0
30
0.0
10
207.0
20
-297.0
30
0.0
10
302.0
20
-270.0
30
0.0
10
403.0
20
-242.0
30
0.0
10
506.0
20
-213.0
30
0.0
10
586.0
20
-190.0
30
0.0
10
660.0
20
-170.0
30
0.0
10
728.0
20
-151.0
30
0.0
10
784.0
20
-135.0
30
0.0
10
828.0
20
-123.0
30
0.0
10
856.0
20
-116.0
30
0.0
10
866.0
20
-113.0
30
0.0
10
898.0
20
-107.0
30
0.0
10
981.0
20
-90.0
30
0.0
10
1094.0
20
-68.0
30
0.0
10
1217.0
20
-44.0
30
0.0
10
1330.0
20
-22.0
30
0.0
10
1413.0
20
-6.0
30
0.0
10
1445.0
20
0.0
30
0.0
10
1449.0
20
-16.0
30
0.0
10
1461.0
20
-62.0
30
0.0
10
1478.0
20
-135.0
30
0.0
10
1496.0
20
-229.0
30
0.0
10
1513.0
20
-341.0
30
0.0
10
1525.0
20
-468.0
30
0.0
10
1530.0
20
-604.0
30
0.0
10
1525.0
20
-742.0
30
0.0
10
1509.0
20
-881.0
30
0.0
10
1480.0
20
-1019.0
30
0.0
10
1437.0
20
-1151.0
30
0.0
10
1377.0
20
-1274.0
30
0.0
10
1299.0
20
-1384.0
30
0.0
10
1201.0
20
-1477.0
30
0.0
10
1120.0
20
-1531.0
30
0.0
10
1031.0
20
-1576.0
30
0.0
10
935.0
20
-1612.0
30
0.0
10
837.0
20
-1642.0
30
0.0
10
737.0
20
-1666.0
30
0.0
10
639.0
20
-1684.0
30
0.0
10
544.0
20
-1699.0
30
0.0
10
468.0
20
-1710.0
30
0.0
10
398.0
20
-1718.0
30
0.0
10
336.0
20
-1724.0
30
0.0
10
285.0
20
-1729.0
30
0.0
10
246.0
20
-1732.0
30
0.0
10
221.0
20
-1734.0
30
0.0
10
213.0
20
-1735.0
30
0.0
10
195.0
20
-1526.0
30
0.0
6
Solid
370
35
62
0
0
ENDSEC
0
SECTION
2
OBJECTS
0
DICTIONARY
5
2029
330
0
100
AcDbDictionary
281
1
3
ACAD_GROUP
350
202a
0
DICTIONARY
5
202a
330
2029
100
AcDbDictionary
281
1
0
ENDSEC
0
EOF
