999

0
SECTION
2
HEADER
9
$ACADVER
1
AC1021
9
$HANDSEED
5
2046
0
ENDSEC
0
SECTION
2
CLASSES
0
ENDSEC
0
SECTION
2
TABLES
0
TABLE
2
VPORT
5
202e
100
AcDbSymbolTable
70
1
0
VPORT
5
202d
100
AcDbSymbolTableRecord
100
AcDbViewportTableRecord
2
*ACTIVE
10
0
20
0
11
1
21
1
12
500.0
22
500.0
40
1000.0
70
0
0
ENDTAB
0
TABLE
2
LTYPE
5
202f
100
AcDbSymbolTable
70
3
0
LTYPE
5
2037
100
AcDbSymbolTableRecord
100
AcDbLinetypeTableRecord
2
Solid
70
0
72
65
73
0
3

0
LTYPE
5
2038
100
AcDbSymbolTableRecord
100
AcDbLinetypeTableRecord
2
ByBlock
70
0
72
65
73
0
3

0
LTYPE
5
2039
100
AcDbSymbolTableRecord
100
AcDbLinetypeTableRecord
2
ByLayer
70
0
72
65
73
0
3

0
ENDTAB
0
TABLE
2
LAYER
5
2030
100
AcDbSymbolTable
70
1
0
LAYER
5
203a
100
AcDbSymbolTableRecord
100
AcDbLayerTableRecord
2
0
70
0
390
0
0
ENDTAB
0
TABLE
2
STYLE
5
2031
100
AcDbSymbolTable
70
0
0
ENDTAB
0
TABLE
2
VIEW
5
2032
100
AcDbSymbolTable
70
0
0
ENDTAB
0
TABLE
2
UCS
5
2033
100
AcDbSymbolTable
70
0
0
ENDTAB
0
TABLE
2
APPID
5
2034
100
AcDbSymbolTable
70
1
0
APPID
5
203b
100
AcDbSymbolTableRecord
100
AcDbRegAppTableRecord
2
ACAD
70
0
0
ENDTAB
0
TABLE
2
DIMSTYLE
5
2035
100
AcDbSymbolTable
70
0
100
AcDbDimStyleTable
71
1
0
ENDTAB
0
TABLE
2
BLOCK_RECORD
5
2036
100
AcDbSymbolTable
70
2
0
BLOCK_RECORD
5
203c
100
AcDbSymbolTableRecord
100
AcDbBlockTableRecord
2
*Model_Space
70
0
280
1
281
0
0
BLOCK_RECORD
5
203d
100
AcDbSymbolTableRecord
100
AcDbBlockTableRecord
2
*Paper_Space
70
0
280
1
281
0
0
ENDTAB
0
ENDSEC
0
SECTION
2
BLOCKS
0
BLOCK
5
203e
100
AcDbEntity
100
AcDbBlockBegin
2
*Model_Space
70
0
10
0
20
0
30
0
3
*Model_Space
1

0
ENDBLK
5
203f
100
AcDbEntity
100
AcDbBlockEnd
0
BLOCK
5
2040
100
AcDbEntity
100
AcDbBlockBegin
2
*Paper_Space
70
0
10
0
20
0
30
0
3
*Paper_Space
1

0
ENDBLK
5
2041
100
AcDbEntity
100
AcDbBlockEnd
0
ENDSEC
0
SECTION
2
ENTITIES
0
LWPOLYLINE
5
2044
100
AcDbEntity
100
AcDbPolyline
90
37
70
1
10
58.0
20
-2110.0
30
0.0
10
55.0
20
-1993.0
30
0.0
10
46.0
20
-1692.0
30
0.0
10
35.0
20
-1280.0
30
0.0
10
23.0
20
-831.0
30
0.0
10
11.0
20
-418.0
30
0.0
10
3.0
20
-117.0
30
0.0
10
0.0
20
0.0
30
0.0
10
279.0
20
-25.0
30
0.0
10
1000.0
20
-90.0
30
0.0
10
1985.0
20
-179.0
30
0.0
10
3058.0
20
-276.0
30
0.0
10
4043.0
20
-365.0
30
0.0
10
4763.0
20
-430.0
30
0.0
10
5043.0
20
-456.0
30
0.0
10
5043.0
20
-489.0
30
0.0
10
5045.0
20
-580.0
30
0.0
10
5049.0
20
-721.0
30
0.0
10
5053.0
20
-900.0
30
0.0
10
5059.0
20
-1107.0
30
0.0
10
5065.0
20
-1331.0
30
0.0
10
5072.0
20
-1563.0
30
0.0
10
5079.0
20
-1774.0
30
0.0
10
5086.0
20
-1974.0
30
0.0
10
5093.0
20
-2155.0
30
0.0
10
5099.0
20
-2310.0
30
0.0
10
5104.0
20
-2431.0
30
0.0
10
5107.0
20
-2509.0
30
0.0
10
5108.0
20
-2537.0
30
0.0
10
4830.0
20
-2558.0
30
0.0
10
4112.0
20
-2612.0
30
0.0
10
3130.0
20
-2687.0
30
0.0
10
2060.0
20
-2768.0
30
0.0
10
1078.0
20
-2843.0
30
0.0
10
360.0
20
-2897.0
30
0.0
10
82.0
20
-2918.0
30
0.0
10
58.0
20
-2110.0
30
0.0
6
Solid
370
35
62
0
0
ENDSEC
0
SECTION
2
OBJECTS
0
DICTIONARY
5
2042
330
0
100
AcDbDictionary
281
1
3
ACAD_GROUP
350
2043
0
DICTIONARY
5
2043
330
2042
100
AcDbDictionary
281
1
0
ENDSEC
0
EOF
