999

0
SECTION
2
HEADER
9
$ACADVER
1
AC1021
9
$HANDSEED
5
205f
0
ENDSEC
0
SECTION
2
CLASSES
0
ENDSEC
0
SECTION
2
TABLES
0
TABLE
2
VPORT
5
2047
100
AcDbSymbolTable
70
1
0
VPORT
5
2046
100
AcDbSymbolTableRecord
100
AcDbViewportTableRecord
2
*ACTIVE
10
0
20
0
11
1
21
1
12
500.0
22
500.0
40
1000.0
70
0
0
ENDTAB
0
TABLE
2
LTYPE
5
2048
100
AcDbSymbolTable
70
3
0
LTYPE
5
2050
100
AcDbSymbolTableRecord
100
AcDbLinetypeTableRecord
2
Solid
70
0
72
65
73
0
3

0
LTYPE
5
2051
100
AcDbSymbolTableRecord
100
AcDbLinetypeTableRecord
2
ByBlock
70
0
72
65
73
0
3

0
LTYPE
5
2052
100
AcDbSymbolTableRecord
100
AcDbLinetypeTableRecord
2
ByLayer
70
0
72
65
73
0
3

0
ENDTAB
0
TABLE
2
LAYER
5
2049
100
AcDbSymbolTable
70
1
0
LAYER
5
2053
100
AcDbSymbolTableRecord
100
AcDbLayerTableRecord
2
0
70
0
390
0
0
ENDTAB
0
TABLE
2
STYLE
5
204a
100
AcDbSymbolTable
70
0
0
ENDTAB
0
TABLE
2
VIEW
5
204b
100
AcDbSymbolTable
70
0
0
ENDTAB
0
TABLE
2
UCS
5
204c
100
AcDbSymbolTable
70
0
0
ENDTAB
0
TABLE
2
APPID
5
204d
100
AcDbSymbolTable
70
1
0
APPID
5
2054
100
AcDbSymbolTableRecord
100
AcDbRegAppTableRecord
2
ACAD
70
0
0
ENDTAB
0
TABLE
2
DIMSTYLE
5
204e
100
AcDbSymbolTable
70
0
100
AcDbDimStyleTable
71
1
0
ENDTAB
0
TABLE
2
BLOCK_RECORD
5
204f
100
AcDbSymbolTable
70
2
0
BLOCK_RECORD
5
2055
100
AcDbSymbolTableRecord
100
AcDbBlockTableRecord
2
*Model_Space
70
0
280
1
281
0
0
BLOCK_RECORD
5
2056
100
AcDbSymbolTableRecord
100
AcDbBlockTableRecord
2
*Paper_Space
70
0
280
1
281
0
0
ENDTAB
0
ENDSEC
0
SECTION
2
BLOCKS
0
BLOCK
5
2057
100
AcDbEntity
100
AcDbBlockBegin
2
*Model_Space
70
0
10
0
20
0
30
0
3
*Model_Space
1

0
ENDBLK
5
2058
100
AcDbEntity
100
AcDbBlockEnd
0
BLOCK
5
2059
100
AcDbEntity
100
AcDbBlockBegin
2
*Paper_Space
70
0
10
0
20
0
30
0
3
*Paper_Space
1

0
ENDBLK
5
205a
100
AcDbEntity
100
AcDbBlockEnd
0
ENDSEC
0
SECTION
2
ENTITIES
0
LWPOLYLINE
5
205d
100
AcDbEntity
100
AcDbPolyline
90
36
70
1
10
397.0
20
-2369.0
30
0.0
10
337.0
20
-2345.0
30
0.0
10
255.0
20
-2313.0
30
0.0
10
165.0
20
-2277.0
30
0.0
10
83.0
20
-2244.0
30
0.0
10
23.0
20
-2220.0
30
0.0
10
0.0
20
-2211.0
30
0.0
10
18.0
20
-2089.0
30
0.0
10
66.0
20
-1773.0
30
0.0
10
130.0
20
-1341.0
30
0.0
10
201.0
20
-870.0
30
0.0
10
265.0
20
-438.0
30
0.0
10
313.0
20
-122.0
30
0.0
10
331.0
20
0.0
30
0.0
10
385.0
20
-7.0
30
0.0
10
524.0
20
-25.0
30
0.0
10
714.0
20
-50.0
30
0.0
10
921.0
20
-76.0
30
0.0
10
1112.0
20
-101.0
30
0.0
10
1251.0
20
-119.0
30
0.0
10
1305.0
20
-126.0
30
0.0
10
1285.0
20
-165.0
30
0.0
10
1232.0
20
-272.0
30
0.0
10
1153.0
20
-435.0
30
0.0
10
1056.0
20
-641.0
30
0.0
10
950.0
20
-877.0
30
0.0
10
841.0
20
-1130.0
30
0.0
10
737.0
20
-1386.0
30
0.0
10
656.0
20
-1607.0
30
0.0
10
586.0
20
-1813.0
30
0.0
10
527.0
20
-1998.0
30
0.0
10
481.0
20
-2154.0
30
0.0
10
447.0
20
-2274.0
30
0.0
10
427.0
20
-2351.0
30
0.0
10
420.0
20
-2378.0
30
0.0
10
397.0
20
-2369.0
30
0.0
6
Solid
370
35
62
0
0
ENDSEC
0
SECTION
2
OBJECTS
0
DICTIONARY
5
205b
330
0
100
AcDbDictionary
281
1
3
ACAD_GROUP
350
205c
0
DICTIONARY
5
205c
330
205b
100
AcDbDictionary
281
1
0
ENDSEC
0
EOF
