999

0
SECTION
2
HEADER
9
$ACADVER
1
AC1021
9
$HANDSEED
5
21ee
0
ENDSEC
0
SECTION
2
CLASSES
0
ENDSEC
0
SECTION
2
TABLES
0
TABLE
2
VPORT
5
21b8
100
AcDbSymbolTable
70
1
0
VPORT
5
21b7
100
AcDbSymbolTableRecord
100
AcDbViewportTableRecord
2
*ACTIVE
10
0
20
0
11
1
21
1
12
500.0
22
500.0
40
1000.0
70
0
0
ENDTAB
0
TABLE
2
LTYPE
5
21b9
100
AcDbSymbolTable
70
3
0
LTYPE
5
21c1
100
AcDbSymbolTableRecord
100
AcDbLinetypeTableRecord
2
Solid
70
0
72
65
73
0
3

0
LTYPE
5
21c2
100
AcDbSymbolTableRecord
100
AcDbLinetypeTableRecord
2
ByBlock
70
0
72
65
73
0
3

0
LTYPE
5
21c3
100
AcDbSymbolTableRecord
100
AcDbLinetypeTableRecord
2
ByLayer
70
0
72
65
73
0
3

0
ENDTAB
0
TABLE
2
LAYER
5
21ba
100
AcDbSymbolTable
70
5
0
LAYER
5
21c4
100
AcDbSymbolTableRecord
100
AcDbLayerTableRecord
2
0
70
0
390
0
0
LAYER
5
21e2
100
AcDbSymbolTableRecord
100
AcDbLayerTableRecord
2
zone_0_q3
70
0
390
0
0
LAYER
5
21e5
100
AcDbSymbolTableRecord
100
AcDbLayerTableRecord
2
zone_1_q3
70
0
390
0
0
LAYER
5
21e8
100
AcDbSymbolTableRecord
100
AcDbLayerTableRecord
2
zone_2_q3
70
0
390
0
0
LAYER
5
21eb
100
AcDbSymbolTableRecord
100
AcDbLayerTableRecord
2
zone_3_q3
70
0
390
0
0
ENDTAB
0
TABLE
2
STYLE
5
21bb
100
AcDbSymbolTable
70
0
0
ENDTAB
0
TABLE
2
VIEW
5
21bc
100
AcDbSymbolTable
70
0
0
ENDTAB
0
TABLE
2
UCS
5
21bd
100
AcDbSymbolTable
70
0
0
ENDTAB
0
TABLE
2
APPID
5
21be
100
AcDbSymbolTable
70
1
0
APPID
5
21c5
100
AcDbSymbolTableRecord
100
AcDbRegAppTableRecord
2
ACAD
70
0
0
ENDTAB
0
TABLE
2
DIMSTYLE
5
21bf
100
AcDbSymbolTable
70
0
100
AcDbDimStyleTable
71
1
0
ENDTAB
0
TABLE
2
BLOCK_RECORD
5
21c0
100
AcDbSymbolTable
70
2
0
BLOCK_RECORD
5
21c6
100
AcDbSymbolTableRecord
100
AcDbBlockTableRecord
2
*Model_Space
70
0
280
1
281
0
0
BLOCK_RECORD
5
21c7
100
AcDbSymbolTableRecord
100
AcDbBlockTableRecord
2
*Paper_Space
70
0
280
1
281
0
0
ENDTAB
0
ENDSEC
0
SECTION
2
BLOCKS
0
BLOCK
5
21c8
100
AcDbEntity
100
AcDbBlockBegin
2
*Model_Space
70
0
10
0
20
0
30
0
3
*Model_Space
1

0
ENDBLK
5
21c9
100
AcDbEntity
100
AcDbBlockEnd
0
BLOCK
5
21ca
100
AcDbEntity
100
AcDbBlockBegin
2
*Paper_Space
70
0
10
0
20
0
30
0
3
*Paper_Space
1

0
ENDBLK
5
21cb
100
AcDbEntity
100
AcDbBlockEnd
0
ENDSEC
0
SECTION
2
ENTITIES
0
LWPOLYLINE
5
21ce
100
AcDbEntity
100
AcDbPolyline
90
1793
70
1
10
3.0
20
-3874.0
30
0.0
10
13.0
20
-3862.0
30
0.0
10
27.0
20
-3842.0
30
0.0
10
44.0
20
-3819.0
30
0.0
10
64.0
20
-3792.0
30
0.0
10
85.0
20
-3765.0
30
0.0
10
106.0
20
-3738.0
30
0.0
10
125.0
20
-3714.0
30
0.0
10
143.0
20
-3692.0
30
0.0
10
159.0
20
-3672.0
30
0.0
10
175.0
20
-3653.0
30
0.0
10
188.0
20
-3635.0
30
0.0
10
201.0
20
-3618.0
30
0.0
10
211.0
20
-3601.0
30
0.0
10
219.0
20
-3587.0
30
0.0
10
226.0
20
-3574.0
30
0.0
10
233.0
20
-3560.0
30
0.0
10
240.0
20
-3547.0
30
0.0
10
248.0
20
-3534.0
30
0.0
10
256.0
20
-3522.0
30
0.0
10
266.0
20
-3510.0
30
0.0
10
279.0
20
-3498.0
30
0.0
10
294.0
20
-3486.0
30
0.0
10
310.0
20
-3475.0
30
0.0
10
326.0
20
-3464.0
30
0.0
10
342.0
20
-3454.0
30
0.0
10
357.0
20
-3444.0
30
0.0
10
371.0
20
-3435.0
30
0.0
10
381.0
20
-3428.0
30
0.0
10
390.0
20
-3421.0
30
0.0
10
399.0
20
-3414.0
30
0.0
10
407.0
20
-3406.0
30
0.0
10
415.0
20
-3399.0
30
0.0
10
423.0
20
-3391.0
30
0.0
10
432.0
20
-3382.0
30
0.0
10
443.0
20
-3370.0
30
0.0
10
455.0
20
-3358.0
30
0.0
10
468.0
20
-3345.0
30
0.0
10
481.0
20
-3332.0
30
0.0
10
495.0
20
-3320.0
30
0.0
10
508.0
20
-3308.0
30
0.0
10
522.0
20
-3297.0
30
0.0
10
533.0
20
-3288.0
30
0.0
10
545.0
20
-3281.0
30
0.0
10
556.0
20
-3273.0
30
0.0
10
567.0
20
-3266.0
30
0.0
10
578.0
20
-3259.0
30
0.0
10
589.0
20
-3251.0
30
0.0
10
599.0
20
-3242.0
30
0.0
10
612.0
20
-3231.0
30
0.0
10
625.0
20
-3219.0
30
0.0
10
639.0
20
-3206.0
30
0.0
10
653.0
20
-3194.0
30
0.0
10
668.0
20
-3182.0
30
0.0
10
684.0
20
-3172.0
30
0.0
10
701.0
20
-3163.0
30
0.0
10
722.0
20
-3155.0
30
0.0
10
745.0
20
-3150.0
30
0.0
10
768.0
20
-3146.0
30
0.0
10
792.0
20
-3143.0
30
0.0
10
816.0
20
-3140.0
30
0.0
10
840.0
20
-3137.0
30
0.0
10
863.0
20
-3133.0
30
0.0
10
883.0
20
-3128.0
30
0.0
10
902.0
20
-3123.0
30
0.0
10
921.0
20
-3116.0
30
0.0
10
939.0
20
-3110.0
30
0.0
10
957.0
20
-3104.0
30
0.0
10
974.0
20
-3099.0
30
0.0
10
991.0
20
-3095.0
30
0.0
10
1006.0
20
-3093.0
30
0.0
10
1022.0
20
-3092.0
30
0.0
10
1038.0
20
-3092.0
30
0.0
10
1054.0
20
-3092.0
30
0.0
10
1071.0
20
-3093.0
30
0.0
10
1089.0
20
-3093.0
30
0.0
10
1108.0
20
-3093.0
30
0.0
10
1125.0
20
-3093.0
30
0.0
10
1142.0
20
-3092.0
30
0.0
10
1159.0
20
-3091.0
30
0.0
10
1173.0
20
-3089.0
30
0.0
10
1185.0
20
-3088.0
30
0.0
10
1192.0
20
-3087.0
30
0.0
10
1195.0
20
-3087.0
30
0.0
10
1195.0
20
-3085.0
30
0.0
10
1195.0
20
-3080.0
30
0.0
10
1194.0
20
-3073.0
30
0.0
10
1193.0
20
-3063.0
30
0.0
10
1191.0
20
-3051.0
30
0.0
10
1188.0
20
-3038.0
30
0.0
10
1183.0
20
-3025.0
30
0.0
10
1174.0
20
-3008.0
30
0.0
10
1164.0
20
-2991.0
30
0.0
10
1153.0
20
-2976.0
30
0.0
10
1142.0
20
-2962.0
30
0.0
10
1134.0
20
-2952.0
30
0.0
10
1128.0
20
-2945.0
30
0.0
10
1125.0
20
-2943.0
30
0.0
10
1127.0
20
-2942.0
30
0.0
10
1132.0
20
-2942.0
30
0.0
10
1140.0
20
-2940.0
30
0.0
10
1149.0
20
-2937.0
30
0.0
10
1159.0
20
-2934.0
30
0.0
10
1170.0
20
-2929.0
30
0.0
10
1180.0
20
-2923.0
30
0.0
10
1192.0
20
-2911.0
30
0.0
10
1203.0
20
-2897.0
30
0.0
10
1212.0
20
-2881.0
30
0.0
10
1220.0
20
-2864.0
30
0.0
10
1228.0
20
-2848.0
30
0.0
10
1236.0
20
-2833.0
30
0.0
10
1245.0
20
-2819.0
30
0.0
10
1252.0
20
-2811.0
30
0.0
10
1260.0
20
-2804.0
30
0.0
10
1268.0
20
-2798.0
30
0.0
10
1276.0
20
-2792.0
30
0.0
10
1283.0
20
-2786.0
30
0.0
10
1290.0
20
-2779.0
30
0.0
10
1295.0
20
-2772.0
30
0.0
10
1299.0
20
-2761.0
30
0.0
10
1301.0
20
-2748.0
30
0.0
10
1302.0
20
-2734.0
30
0.0
10
1301.0
20
-2718.0
30
0.0
10
1300.0
20
-2702.0
30
0.0
10
1298.0
20
-2686.0
30
0.0
10
1296.0
20
-2670.0
30
0.0
10
1295.0
20
-2653.0
30
0.0
10
1294.0
20
-2637.0
30
0.0
10
1292.0
20
-2621.0
30
0.0
10
1291.0
20
-2605.0
30
0.0
10
1288.0
20
-2590.0
30
0.0
10
1285.0
20
-2575.0
30
0.0
10
1281.0
20
-2561.0
30
0.0
10
1275.0
20
-2547.0
30
0.0
10
1269.0
20
-2533.0
30
0.0
10
1262.0
20
-2519.0
30
0.0
10
1256.0
20
-2505.0
30
0.0
10
1251.0
20
-2491.0
30
0.0
10
1248.0
20
-2476.0
30
0.0
10
1247.0
20
-2461.0
30
0.0
10
1248.0
20
-2450.0
30
0.0
10
1250.0
20
-2439.0
30
0.0
10
1253.0
20
-2428.0
30
0.0
10
1256.0
20
-2419.0
30
0.0
10
1259.0
20
-2412.0
30
0.0
10
1261.0
20
-2407.0
30
0.0
10
1262.0
20
-2405.0
30
0.0
10
1290.0
20
-2344.0
30
0.0
10
1327.0
20
-2271.0
30
0.0
10
1422.0
20
-2183.0
30
0.0
10
1547.0
20
-2166.0
30
0.0
10
1554.0
20
-2160.0
30
0.0
10
1572.0
20
-2143.0
30
0.0
10
1598.0
20
-2119.0
30
0.0
10
1630.0
20
-2090.0
30
0.0
10
1664.0
20
-2060.0
30
0.0
10
1698.0
20
-2030.0
30
0.0
10
1727.0
20
-2004.0
30
0.0
10
1744.0
20
-1989.0
30
0.0
10
1759.0
20
-1977.0
30
0.0
10
1772.0
20
-1967.0
30
0.0
10
1783.0
20
-1958.0
30
0.0
10
1794.0
20
-1949.0
30
0.0
10
1804.0
20
-1941.0
30
0.0
10
1816.0
20
-1932.0
30
0.0
10
1829.0
20
-1922.0
30
0.0
10
1844.0
20
-1910.0
30
0.0
10
1859.0
20
-1898.0
30
0.0
10
1876.0
20
-1887.0
30
0.0
10
1892.0
20
-1876.0
30
0.0
10
1909.0
20
-1867.0
30
0.0
10
1926.0
20
-1859.0
30
0.0
10
1939.0
20
-1855.0
30
0.0
10
1952.0
20
-1852.0
30
0.0
10
1965.0
20
-1850.0
30
0.0
10
1977.0
20
-1849.0
30
0.0
10
1989.0
20
-1849.0
30
0.0
10
2000.0
20
-1851.0
30
0.0
10
2011.0
20
-1853.0
30
0.0
10
2019.0
20
-1855.0
30
0.0
10
2028.0
20
-1858.0
30
0.0
10
2036.0
20
-1860.0
30
0.0
10
2045.0
20
-1863.0
30
0.0
10
2054.0
20
-1866.0
30
0.0
10
2063.0
20
-1869.0
30
0.0
10
2074.0
20
-1871.0
30
0.0
10
2086.0
20
-1873.0
30
0.0
10
2099.0
20
-1874.0
30
0.0
10
2113.0
20
-1875.0
30
0.0
10
2125.0
20
-1874.0
30
0.0
10
2136.0
20
-1871.0
30
0.0
10
2145.0
20
-1868.0
30
0.0
10
2151.0
20
-1862.0
30
0.0
10
2154.0
20
-1854.0
30
0.0
10
2154.0
20
-1844.0
30
0.0
10
2152.0
20
-1832.0
30
0.0
10
2148.0
20
-1818.0
30
0.0
10
2144.0
20
-1803.0
30
0.0
10
2140.0
20
-1787.0
30
0.0
10
2138.0
20
-1770.0
30
0.0
10
2138.0
20
-1746.0
30
0.0
10
2142.0
20
-1721.0
30
0.0
10
2148.0
20
-1695.0
30
0.0
10
2155.0
20
-1670.0
30
0.0
10
2163.0
20
-1645.0
30
0.0
10
2171.0
20
-1622.0
30
0.0
10
2178.0
20
-1599.0
30
0.0
10
2181.0
20
-1583.0
30
0.0
10
2183.0
20
-1568.0
30
0.0
10
2185.0
20
-1553.0
30
0.0
10
2186.0
20
-1539.0
30
0.0
10
2186.0
20
-1524.0
30
0.0
10
2187.0
20
-1509.0
30
0.0
10
2187.0
20
-1494.0
30
0.0
10
2188.0
20
-1475.0
30
0.0
10
2190.0
20
-1456.0
30
0.0
10
2192.0
20
-1436.0
30
0.0
10
2196.0
20
-1416.0
30
0.0
10
2201.0
20
-1396.0
30
0.0
10
2207.0
20
-1376.0
30
0.0
10
2214.0
20
-1357.0
30
0.0
10
2222.0
20
-1339.0
30
0.0
10
2232.0
20
-1322.0
30
0.0
10
2242.0
20
-1306.0
30
0.0
10
2252.0
20
-1290.0
30
0.0
10
2262.0
20
-1274.0
30
0.0
10
2271.0
20
-1259.0
30
0.0
10
2278.0
20
-1243.0
30
0.0
10
2283.0
20
-1229.0
30
0.0
10
2288.0
20
-1214.0
30
0.0
10
2292.0
20
-1200.0
30
0.0
10
2295.0
20
-1185.0
30
0.0
10
2299.0
20
-1171.0
30
0.0
10
2303.0
20
-1157.0
30
0.0
10
2309.0
20
-1144.0
30
0.0
10
2317.0
20
-1129.0
30
0.0
10
2327.0
20
-1114.0
30
0.0
10
2339.0
20
-1100.0
30
0.0
10
2351.0
20
-1085.0
30
0.0
10
2364.0
20
-1069.0
30
0.0
10
2378.0
20
-1053.0
30
0.0
10
2392.0
20
-1036.0
30
0.0
10
2408.0
20
-1013.0
30
0.0
10
2424.0
20
-990.0
30
0.0
10
2439.0
20
-966.0
30
0.0
10
2453.0
20
-942.0
30
0.0
10
2466.0
20
-919.0
30
0.0
10
2477.0
20
-897.0
30
0.0
10
2488.0
20
-877.0
30
0.0
10
2494.0
20
-864.0
30
0.0
10
2500.0
20
-852.0
30
0.0
10
2506.0
20
-841.0
30
0.0
10
2513.0
20
-829.0
30
0.0
10
2521.0
20
-817.0
30
0.0
10
2530.0
20
-804.0
30
0.0
10
2541.0
20
-788.0
30
0.0
10
2557.0
20
-766.0
30
0.0
10
2576.0
20
-742.0
30
0.0
10
2596.0
20
-718.0
30
0.0
10
2614.0
20
-696.0
30
0.0
10
2629.0
20
-677.0
30
0.0
10
2639.0
20
-665.0
30
0.0
10
2643.0
20
-661.0
30
0.0
10
2646.0
20
-662.0
30
0.0
10
2655.0
20
-666.0
30
0.0
10
2669.0
20
-671.0
30
0.0
10
2687.0
20
-678.0
30
0.0
10
2708.0
20
-686.0
30
0.0
10
2731.0
20
-694.0
30
0.0
10
2755.0
20
-702.0
30
0.0
10
2778.0
20
-709.0
30
0.0
10
2800.0
20
-715.0
30
0.0
10
2820.0
20
-720.0
30
0.0
10
2837.0
20
-724.0
30
0.0
10
2850.0
20
-727.0
30
0.0
10
2859.0
20
-729.0
30
0.0
10
2862.0
20
-730.0
30
0.0
10
2866.0
20
-729.0
30
0.0
10
2876.0
20
-725.0
30
0.0
10
2892.0
20
-720.0
30
0.0
10
2912.0
20
-715.0
30
0.0
10
2934.0
20
-709.0
30
0.0
10
2958.0
20
-703.0
30
0.0
10
2982.0
20
-699.0
30
0.0
10
3009.0
20
-696.0
30
0.0
10
3035.0
20
-694.0
30
0.0
10
3059.0
20
-694.0
30
0.0
10
3083.0
20
-693.0
30
0.0
10
3106.0
20
-691.0
30
0.0
10
3129.0
20
-688.0
30
0.0
10
3151.0
20
-682.0
30
0.0
10
3175.0
20
-672.0
30
0.0
10
3200.0
20
-660.0
30
0.0
10
3226.0
20
-648.0
30
0.0
10
3252.0
20
-638.0
30
0.0
10
3280.0
20
-631.0
30
0.0
10
3310.0
20
-629.0
30
0.0
10
3343.0
20
-633.0
30
0.0
10
3380.0
20
-647.0
30
0.0
10
3418.0
20
-668.0
30
0.0
10
3455.0
20
-693.0
30
0.0
10
3487.0
20
-717.0
30
0.0
10
3513.0
20
-739.0
30
0.0
10
3530.0
20
-755.0
30
0.0
10
3537.0
20
-760.0
30
0.0
10
3596.0
20
-842.0
30
0.0
10
3596.0
20
-844.0
30
0.0
10
3597.0
20
-849.0
30
0.0
10
3598.0
20
-858.0
30
0.0
10
3600.0
20
-869.0
30
0.0
10
3604.0
20
-882.0
30
0.0
10
3608.0
20
-895.0
30
0.0
10
3613.0
20
-909.0
30
0.0
10
3623.0
20
-927.0
30
0.0
10
3635.0
20
-944.0
30
0.0
10
3648.0
20
-961.0
30
0.0
10
3662.0
20
-976.0
30
0.0
10
3676.0
20
-991.0
30
0.0
10
3690.0
20
-1006.0
30
0.0
10
3702.0
20
-1021.0
30
0.0
10
3709.0
20
-1032.0
30
0.0
10
3716.0
20
-1044.0
30
0.0
10
3723.0
20
-1055.0
30
0.0
10
3728.0
20
-1066.0
30
0.0
10
3733.0
20
-1076.0
30
0.0
10
3739.0
20
-1086.0
30
0.0
10
3744.0
20
-1095.0
30
0.0
10
3750.0
20
-1103.0
30
0.0
10
3757.0
20
-1111.0
30
0.0
10
3764.0
20
-1118.0
30
0.0
10
3772.0
20
-1126.0
30
0.0
10
3782.0
20
-1134.0
30
0.0
10
3793.0
20
-1144.0
30
0.0
10
3806.0
20
-1154.0
30
0.0
10
3826.0
20
-1170.0
30
0.0
10
3847.0
20
-1188.0
30
0.0
10
3868.0
20
-1206.0
30
0.0
10
3887.0
20
-1222.0
30
0.0
10
3903.0
20
-1235.0
30
0.0
10
3914.0
20
-1244.0
30
0.0
10
3917.0
20
-1247.0
30
0.0
10
4003.0
20
-1179.0
30
0.0
10
4005.0
20
-1180.0
30
0.0
10
4009.0
20
-1183.0
30
0.0
10
4016.0
20
-1186.0
30
0.0
10
4025.0
20
-1190.0
30
0.0
10
4036.0
20
-1193.0
30
0.0
10
4048.0
20
-1194.0
30
0.0
10
4062.0
20
-1193.0
30
0.0
10
4083.0
20
-1187.0
30
0.0
10
4104.0
20
-1176.0
30
0.0
10
4124.0
20
-1163.0
30
0.0
10
4142.0
20
-1150.0
30
0.0
10
4157.0
20
-1138.0
30
0.0
10
4166.0
20
-1129.0
30
0.0
10
4170.0
20
-1126.0
30
0.0
10
4172.0
20
-1127.0
30
0.0
10
4179.0
20
-1131.0
30
0.0
10
4189.0
20
-1136.0
30
0.0
10
4201.0
20
-1142.0
30
0.0
10
4216.0
20
-1148.0
30
0.0
10
4232.0
20
-1153.0
30
0.0
10
4249.0
20
-1157.0
30
0.0
10
4271.0
20
-1158.0
30
0.0
10
4292.0
20
-1155.0
30
0.0
10
4313.0
20
-1151.0
30
0.0
10
4333.0
20
-1144.0
30
0.0
10
4352.0
20
-1136.0
30
0.0
10
4369.0
20
-1129.0
30
0.0
10
4385.0
20
-1122.0
30
0.0
10
4395.0
20
-1117.0
30
0.0
10
4405.0
20
-1114.0
30
0.0
10
4415.0
20
-1111.0
30
0.0
10
4424.0
20
-1108.0
30
0.0
10
4433.0
20
-1106.0
30
0.0
10
4444.0
20
-1104.0
30
0.0
10
4454.0
20
-1103.0
30
0.0
10
4471.0
20
-1101.0
30
0.0
10
4489.0
20
-1100.0
30
0.0
10
4508.0
20
-1100.0
30
0.0
10
4528.0
20
-1100.0
30
0.0
10
4548.0
20
-1101.0
30
0.0
10
4568.0
20
-1103.0
30
0.0
10
4588.0
20
-1107.0
30
0.0
10
4607.0
20
-1111.0
30
0.0
10
4625.0
20
-1117.0
30
0.0
10
4643.0
20
-1123.0
30
0.0
10
4661.0
20
-1130.0
30
0.0
10
4679.0
20
-1137.0
30
0.0
10
4697.0
20
-1145.0
30
0.0
10
4717.0
20
-1152.0
30
0.0
10
4740.0
20
-1161.0
30
0.0
10
4763.0
20
-1168.0
30
0.0
10
4788.0
20
-1176.0
30
0.0
10
4813.0
20
-1183.0
30
0.0
10
4837.0
20
-1190.0
30
0.0
10
4861.0
20
-1196.0
30
0.0
10
4884.0
20
-1202.0
30
0.0
10
4902.0
20
-1207.0
30
0.0
10
4920.0
20
-1211.0
30
0.0
10
4936.0
20
-1216.0
30
0.0
10
4952.0
20
-1221.0
30
0.0
10
4968.0
20
-1226.0
30
0.0
10
4983.0
20
-1231.0
30
0.0
10
4998.0
20
-1237.0
30
0.0
10
5013.0
20
-1244.0
30
0.0
10
5028.0
20
-1251.0
30
0.0
10
5044.0
20
-1258.0
30
0.0
10
5059.0
20
-1265.0
30
0.0
10
5076.0
20
-1271.0
30
0.0
10
5093.0
20
-1276.0
30
0.0
10
5111.0
20
-1279.0
30
0.0
10
5134.0
20
-1280.0
30
0.0
10
5159.0
20
-1279.0
30
0.0
10
5185.0
20
-1276.0
30
0.0
10
5212.0
20
-1271.0
30
0.0
10
5239.0
20
-1264.0
30
0.0
10
5266.0
20
-1257.0
30
0.0
10
5294.0
20
-1248.0
30
0.0
10
5323.0
20
-1239.0
30
0.0
10
5351.0
20
-1230.0
30
0.0
10
5379.0
20
-1221.0
30
0.0
10
5408.0
20
-1211.0
30
0.0
10
5436.0
20
-1201.0
30
0.0
10
5463.0
20
-1190.0
30
0.0
10
5491.0
20
-1179.0
30
0.0
10
5519.0
20
-1168.0
30
0.0
10
5546.0
20
-1158.0
30
0.0
10
5574.0
20
-1147.0
30
0.0
10
5602.0
20
-1138.0
30
0.0
10
5630.0
20
-1131.0
30
0.0
10
5658.0
20
-1125.0
30
0.0
10
5687.0
20
-1122.0
30
0.0
10
5715.0
20
-1121.0
30
0.0
10
5743.0
20
-1122.0
30
0.0
10
5771.0
20
-1125.0
30
0.0
10
5799.0
20
-1129.0
30
0.0
10
5826.0
20
-1133.0
30
0.0
10
5853.0
20
-1136.0
30
0.0
10
5878.0
20
-1138.0
30
0.0
10
5898.0
20
-1139.0
30
0.0
10
5917.0
20
-1139.0
30
0.0
10
5936.0
20
-1138.0
30
0.0
10
5954.0
20
-1136.0
30
0.0
10
5971.0
20
-1135.0
30
0.0
10
5988.0
20
-1133.0
30
0.0
10
6005.0
20
-1132.0
30
0.0
10
6017.0
20
-1131.0
30
0.0
10
6030.0
20
-1131.0
30
0.0
10
6041.0
20
-1131.0
30
0.0
10
6053.0
20
-1133.0
30
0.0
10
6063.0
20
-1137.0
30
0.0
10
6072.0
20
-1142.0
30
0.0
10
6080.0
20
-1150.0
30
0.0
10
6088.0
20
-1162.0
30
0.0
10
6095.0
20
-1177.0
30
0.0
10
6101.0
20
-1194.0
30
0.0
10
6107.0
20
-1210.0
30
0.0
10
6114.0
20
-1226.0
30
0.0
10
6123.0
20
-1240.0
30
0.0
10
6135.0
20
-1251.0
30
0.0
10
6151.0
20
-1259.0
30
0.0
10
6170.0
20
-1262.0
30
0.0
10
6191.0
20
-1262.0
30
0.0
10
6212.0
20
-1260.0
30
0.0
10
6234.0
20
-1255.0
30
0.0
10
6255.0
20
-1250.0
30
0.0
10
6273.0
20
-1244.0
30
0.0
10
6284.0
20
-1240.0
30
0.0
10
6294.0
20
-1236.0
30
0.0
10
6304.0
20
-1233.0
30
0.0
10
6313.0
20
-1230.0
30
0.0
10
6322.0
20
-1227.0
30
0.0
10
6331.0
20
-1224.0
30
0.0
10
6341.0
20
-1221.0
30
0.0
10
6357.0
20
-1218.0
30
0.0
10
6375.0
20
-1214.0
30
0.0
10
6394.0
20
-1209.0
30
0.0
10
6414.0
20
-1204.0
30
0.0
10
6434.0
20
-1197.0
30
0.0
10
6454.0
20
-1189.0
30
0.0
10
6472.0
20
-1178.0
30
0.0
10
6493.0
20
-1163.0
30
0.0
10
6511.0
20
-1144.0
30
0.0
10
6529.0
20
-1124.0
30
0.0
10
6546.0
20
-1103.0
30
0.0
10
6562.0
20
-1081.0
30
0.0
10
6579.0
20
-1059.0
30
0.0
10
6597.0
20
-1039.0
30
0.0
10
6614.0
20
-1022.0
30
0.0
10
6632.0
20
-1006.0
30
0.0
10
6651.0
20
-992.0
30
0.0
10
6669.0
20
-978.0
30
0.0
10
6688.0
20
-966.0
30
0.0
10
6706.0
20
-954.0
30
0.0
10
6723.0
20
-943.0
30
0.0
10
6737.0
20
-935.0
30
0.0
10
6750.0
20
-926.0
30
0.0
10
6763.0
20
-918.0
30
0.0
10
6775.0
20
-909.0
30
0.0
10
6788.0
20
-900.0
30
0.0
10
6800.0
20
-891.0
30
0.0
10
6813.0
20
-881.0
30
0.0
10
6829.0
20
-869.0
30
0.0
10
6844.0
20
-856.0
30
0.0
10
6860.0
20
-843.0
30
0.0
10
6876.0
20
-830.0
30
0.0
10
6892.0
20
-817.0
30
0.0
10
6908.0
20
-804.0
30
0.0
10
6923.0
20
-793.0
30
0.0
10
6937.0
20
-783.0
30
0.0
10
6951.0
20
-774.0
30
0.0
10
6965.0
20
-765.0
30
0.0
10
6980.0
20
-755.0
30
0.0
10
6996.0
20
-744.0
30
0.0
10
7013.0
20
-731.0
30
0.0
10
7031.0
20
-716.0
30
0.0
10
7054.0
20
-696.0
30
0.0
10
7079.0
20
-675.0
30
0.0
10
7102.0
20
-653.0
30
0.0
10
7123.0
20
-633.0
30
0.0
10
7140.0
20
-616.0
30
0.0
10
7152.0
20
-605.0
30
0.0
10
7156.0
20
-600.0
30
0.0
10
7161.0
20
-601.0
30
0.0
10
7173.0
20
-603.0
30
0.0
10
7193.0
20
-606.0
30
0.0
10
7216.0
20
-610.0
30
0.0
10
7243.0
20
-613.0
30
0.0
10
7270.0
20
-616.0
30
0.0
10
7297.0
20
-618.0
30
0.0
10
7321.0
20
-619.0
30
0.0
10
7343.0
20
-619.0
30
0.0
10
7364.0
20
-618.0
30
0.0
10
7383.0
20
-616.0
30
0.0
10
7401.0
20
-614.0
30
0.0
10
7419.0
20
-612.0
30
0.0
10
7436.0
20
-610.0
30
0.0
10
7456.0
20
-608.0
30
0.0
10
7476.0
20
-607.0
30
0.0
10
7496.0
20
-604.0
30
0.0
10
7518.0
20
-600.0
30
0.0
10
7540.0
20
-594.0
30
0.0
10
7564.0
20
-585.0
30
0.0
10
7589.0
20
-573.0
30
0.0
10
7616.0
20
-556.0
30
0.0
10
7643.0
20
-537.0
30
0.0
10
7669.0
20
-517.0
30
0.0
10
7692.0
20
-499.0
30
0.0
10
7710.0
20
-483.0
30
0.0
10
7722.0
20
-472.0
30
0.0
10
7726.0
20
-468.0
30
0.0
10
7732.0
20
-468.0
30
0.0
10
7747.0
20
-466.0
30
0.0
10
7770.0
20
-463.0
30
0.0
10
7798.0
20
-458.0
30
0.0
10
7830.0
20
-453.0
30
0.0
10
7863.0
20
-446.0
30
0.0
10
7895.0
20
-439.0
30
0.0
10
7929.0
20
-429.0
30
0.0
10
7960.0
20
-419.0
30
0.0
10
7989.0
20
-408.0
30
0.0
10
8017.0
20
-398.0
30
0.0
10
8044.0
20
-387.0
30
0.0
10
8071.0
20
-378.0
30
0.0
10
8099.0
20
-369.0
30
0.0
10
8128.0
20
-362.0
30
0.0
10
8159.0
20
-356.0
30
0.0
10
8190.0
20
-351.0
30
0.0
10
8222.0
20
-348.0
30
0.0
10
8253.0
20
-347.0
30
0.0
10
8285.0
20
-347.0
30
0.0
10
8315.0
20
-348.0
30
0.0
10
8342.0
20
-351.0
30
0.0
10
8368.0
20
-354.0
30
0.0
10
8393.0
20
-358.0
30
0.0
10
8418.0
20
-361.0
30
0.0
10
8443.0
20
-363.0
30
0.0
10
8468.0
20
-363.0
30
0.0
10
8493.0
20
-361.0
30
0.0
10
8521.0
20
-356.0
30
0.0
10
8549.0
20
-349.0
30
0.0
10
8577.0
20
-340.0
30
0.0
10
8605.0
20
-330.0
30
0.0
10
8633.0
20
-319.0
30
0.0
10
8661.0
20
-307.0
30
0.0
10
8688.0
20
-296.0
30
0.0
10
8712.0
20
-287.0
30
0.0
10
8736.0
20
-279.0
30
0.0
10
8759.0
20
-271.0
30
0.0
10
8782.0
20
-262.0
30
0.0
10
8803.0
20
-253.0
30
0.0
10
8824.0
20
-243.0
30
0.0
10
8844.0
20
-232.0
30
0.0
10
8862.0
20
-220.0
30
0.0
10
8880.0
20
-207.0
30
0.0
10
8899.0
20
-194.0
30
0.0
10
8920.0
20
-183.0
30
0.0
10
8943.0
20
-175.0
30
0.0
10
8970.0
20
-170.0
30
0.0
10
9000.0
20
-170.0
30
0.0
10
9049.0
20
-178.0
30
0.0
10
9103.0
20
-193.0
30
0.0
10
9157.0
20
-213.0
30
0.0
10
9208.0
20
-233.0
30
0.0
10
9249.0
20
-252.0
30
0.0
10
9277.0
20
-265.0
30
0.0
10
9288.0
20
-270.0
30
0.0
10
9294.0
20
-266.0
30
0.0
10
9310.0
20
-255.0
30
0.0
10
9334.0
20
-238.0
30
0.0
10
9363.0
20
-218.0
30
0.0
10
9395.0
20
-197.0
30
0.0
10
9427.0
20
-176.0
30
0.0
10
9457.0
20
-157.0
30
0.0
10
9473.0
20
-148.0
30
0.0
10
9487.0
20
-139.0
30
0.0
10
9500.0
20
-133.0
30
0.0
10
9509.0
20
-128.0
30
0.0
10
9516.0
20
-124.0
30
0.0
10
9521.0
20
-122.0
30
0.0
10
9522.0
20
-121.0
30
0.0
10
9524.0
20
-123.0
30
0.0
10
9528.0
20
-130.0
30
0.0
10
9535.0
20
-138.0
30
0.0
10
9544.0
20
-148.0
30
0.0
10
9555.0
20
-156.0
30
0.0
10
9568.0
20
-163.0
30
0.0
10
9583.0
20
-167.0
30
0.0
10
9606.0
20
-164.0
30
0.0
10
9630.0
20
-154.0
30
0.0
10
9654.0
20
-141.0
30
0.0
10
9675.0
20
-125.0
30
0.0
10
9693.0
20
-111.0
30
0.0
10
9705.0
20
-101.0
30
0.0
10
9709.0
20
-97.0
30
0.0
10
9800.0
20
0.0
30
0.0
10
10048.0
20
-115.0
30
0.0
10
10046.0
20
-122.0
30
0.0
10
10040.0
20
-142.0
30
0.0
10
10032.0
20
-171.0
30
0.0
10
10022.0
20
-207.0
30
0.0
10
10012.0
20
-246.0
30
0.0
10
10002.0
20
-286.0
30
0.0
10
9993.0
20
-324.0
30
0.0
10
9987.0
20
-354.0
30
0.0
10
9982.0
20
-381.0
30
0.0
10
9977.0
20
-406.0
30
0.0
10
9972.0
20
-428.0
30
0.0
10
9967.0
20
-451.0
30
0.0
10
9959.0
20
-474.0
30
0.0
10
9949.0
20
-498.0
30
0.0
10
9939.0
20
-521.0
30
0.0
10
9927.0
20
-544.0
30
0.0
10
9915.0
20
-566.0
30
0.0
10
9904.0
20
-586.0
30
0.0
10
9894.0
20
-602.0
30
0.0
10
9888.0
20
-612.0
30
0.0
10
9886.0
20
-616.0
30
0.0
10
9883.0
20
-806.0
30
0.0
10
9901.0
20
-881.0
30
0.0
10
9944.0
20
-1047.0
30
0.0
10
9883.0
20
-1178.0
30
0.0
10
9882.0
20
-1182.0
30
0.0
10
9879.0
20
-1193.0
30
0.0
10
9874.0
20
-1210.0
30
0.0
10
9869.0
20
-1231.0
30
0.0
10
9864.0
20
-1255.0
30
0.0
10
9859.0
20
-1281.0
30
0.0
10
9855.0
20
-1307.0
30
0.0
10
9852.0
20
-1328.0
30
0.0
10
9850.0
20
-1348.0
30
0.0
10
9848.0
20
-1365.0
30
0.0
10
9848.0
20
-1380.0
30
0.0
10
9847.0
20
-1391.0
30
0.0
10
9847.0
20
-1398.0
30
0.0
10
9847.0
20
-1401.0
30
0.0
10
9812.0
20
-1463.0
30
0.0
10
9827.0
20
-1535.0
30
0.0
10
9801.0
20
-1644.0
30
0.0
10
9798.0
20
-1769.0
30
0.0
10
9799.0
20
-1780.0
30
0.0
10
9802.0
20
-1812.0
30
0.0
10
9806.0
20
-1859.0
30
0.0
10
9812.0
20
-1915.0
30
0.0
10
9819.0
20
-1975.0
30
0.0
10
9827.0
20
-2033.0
30
0.0
10
9836.0
20
-2086.0
30
0.0
10
9843.0
20
-2115.0
30
0.0
10
9850.0
20
-2141.0
30
0.0
10
9857.0
20
-2162.0
30
0.0
10
9863.0
20
-2181.0
30
0.0
10
9869.0
20
-2198.0
30
0.0
10
9875.0
20
-2214.0
30
0.0
10
9880.0
20
-2231.0
30
0.0
10
9883.0
20
-2247.0
30
0.0
10
9886.0
20
-2263.0
30
0.0
10
9887.0
20
-2279.0
30
0.0
10
9889.0
20
-2296.0
30
0.0
10
9889.0
20
-2313.0
30
0.0
10
9889.0
20
-2330.0
30
0.0
10
9888.0
20
-2346.0
30
0.0
10
9887.0
20
-2361.0
30
0.0
10
9884.0
20
-2376.0
30
0.0
10
9882.0
20
-2390.0
30
0.0
10
9878.0
20
-2403.0
30
0.0
10
9874.0
20
-2417.0
30
0.0
10
9869.0
20
-2430.0
30
0.0
10
9863.0
20
-2443.0
30
0.0
10
9856.0
20
-2458.0
30
0.0
10
9848.0
20
-2472.0
30
0.0
10
9839.0
20
-2486.0
30
0.0
10
9830.0
20
-2499.0
30
0.0
10
9821.0
20
-2513.0
30
0.0
10
9812.0
20
-2526.0
30
0.0
10
9804.0
20
-2539.0
30
0.0
10
9796.0
20
-2551.0
30
0.0
10
9789.0
20
-2562.0
30
0.0
10
9783.0
20
-2573.0
30
0.0
10
9777.0
20
-2584.0
30
0.0
10
9772.0
20
-2595.0
30
0.0
10
9767.0
20
-2606.0
30
0.0
10
9763.0
20
-2617.0
30
0.0
10
9759.0
20
-2629.0
30
0.0
10
9756.0
20
-2641.0
30
0.0
10
9753.0
20
-2654.0
30
0.0
10
9750.0
20
-2667.0
30
0.0
10
9747.0
20
-2681.0
30
0.0
10
9744.0
20
-2695.0
30
0.0
10
9740.0
20
-2710.0
30
0.0
10
9735.0
20
-2729.0
30
0.0
10
9729.0
20
-2748.0
30
0.0
10
9724.0
20
-2768.0
30
0.0
10
9718.0
20
-2788.0
30
0.0
10
9714.0
20
-2808.0
30
0.0
10
9711.0
20
-2826.0
30
0.0
10
9710.0
20
-2843.0
30
0.0
10
9711.0
20
-2856.0
30
0.0
10
9713.0
20
-2868.0
30
0.0
10
9716.0
20
-2880.0
30
0.0
10
9719.0
20
-2892.0
30
0.0
10
9722.0
20
-2904.0
30
0.0
10
9724.0
20
-2917.0
30
0.0
10
9725.0
20
-2931.0
30
0.0
10
9724.0
20
-2946.0
30
0.0
10
9723.0
20
-2962.0
30
0.0
10
9721.0
20
-2977.0
30
0.0
10
9718.0
20
-2990.0
30
0.0
10
9716.0
20
-3001.0
30
0.0
10
9714.0
20
-3008.0
30
0.0
10
9714.0
20
-3010.0
30
0.0
10
9711.0
20
-3012.0
30
0.0
10
9705.0
20
-3017.0
30
0.0
10
9696.0
20
-3025.0
30
0.0
10
9685.0
20
-3035.0
30
0.0
10
9673.0
20
-3046.0
30
0.0
10
9662.0
20
-3058.0
30
0.0
10
9653.0
20
-3070.0
30
0.0
10
9647.0
20
-3082.0
30
0.0
10
9643.0
20
-3093.0
30
0.0
10
9641.0
20
-3105.0
30
0.0
10
9640.0
20
-3117.0
30
0.0
10
9640.0
20
-3129.0
30
0.0
10
9641.0
20
-3142.0
30
0.0
10
9641.0
20
-3156.0
30
0.0
10
9640.0
20
-3170.0
30
0.0
10
9639.0
20
-3183.0
30
0.0
10
9638.0
20
-3196.0
30
0.0
10
9636.0
20
-3207.0
30
0.0
10
9635.0
20
-3216.0
30
0.0
10
9634.0
20
-3222.0
30
0.0
10
9633.0
20
-3224.0
30
0.0
10
9633.0
20
-3225.0
30
0.0
10
9630.0
20
-3230.0
30
0.0
10
9627.0
20
-3238.0
30
0.0
10
9622.0
20
-3247.0
30
0.0
10
9618.0
20
-3260.0
30
0.0
10
9613.0
20
-3274.0
30
0.0
10
9609.0
20
-3289.0
30
0.0
10
9605.0
20
-3312.0
30
0.0
10
9602.0
20
-3334.0
30
0.0
10
9601.0
20
-3357.0
30
0.0
10
9600.0
20
-3377.0
30
0.0
10
9599.0
20
-3393.0
30
0.0
10
9599.0
20
-3403.0
30
0.0
10
9599.0
20
-3407.0
30
0.0
10
9598.0
20
-3409.0
30
0.0
10
9596.0
20
-3413.0
30
0.0
10
9594.0
20
-3420.0
30
0.0
10
9590.0
20
-3429.0
30
0.0
10
9586.0
20
-3439.0
30
0.0
10
9582.0
20
-3449.0
30
0.0
10
9578.0
20
-3461.0
30
0.0
10
9572.0
20
-3478.0
30
0.0
10
9566.0
20
-3494.0
30
0.0
10
9561.0
20
-3511.0
30
0.0
10
9555.0
20
-3527.0
30
0.0
10
9549.0
20
-3543.0
30
0.0
10
9543.0
20
-3558.0
30
0.0
10
9537.0
20
-3572.0
30
0.0
10
9530.0
20
-3585.0
30
0.0
10
9522.0
20
-3597.0
30
0.0
10
9515.0
20
-3610.0
30
0.0
10
9508.0
20
-3624.0
30
0.0
10
9502.0
20
-3639.0
30
0.0
10
9497.0
20
-3656.0
30
0.0
10
9493.0
20
-3676.0
30
0.0
10
9491.0
20
-3705.0
30
0.0
10
9491.0
20
-3736.0
30
0.0
10
9493.0
20
-3767.0
30
0.0
10
9495.0
20
-3795.0
30
0.0
10
9497.0
20
-3819.0
30
0.0
10
9499.0
20
-3835.0
30
0.0
10
9500.0
20
-3840.0
30
0.0
10
9498.0
20
-3844.0
30
0.0
10
9495.0
20
-3853.0
30
0.0
10
9491.0
20
-3868.0
30
0.0
10
9485.0
20
-3886.0
30
0.0
10
9479.0
20
-3908.0
30
0.0
10
9474.0
20
-3931.0
30
0.0
10
9469.0
20
-3956.0
30
0.0
10
9465.0
20
-3990.0
30
0.0
10
9462.0
20
-4023.0
30
0.0
10
9462.0
20
-4057.0
30
0.0
10
9462.0
20
-4089.0
30
0.0
10
9464.0
20
-4121.0
30
0.0
10
9465.0
20
-4152.0
30
0.0
10
9467.0
20
-4182.0
30
0.0
10
9468.0
20
-4206.0
30
0.0
10
9469.0
20
-4229.0
30
0.0
10
9469.0
20
-4251.0
30
0.0
10
9469.0
20
-4273.0
30
0.0
10
9469.0
20
-4295.0
30
0.0
10
9468.0
20
-4316.0
30
0.0
10
9467.0
20
-4338.0
30
0.0
10
9467.0
20
-4358.0
30
0.0
10
9466.0
20
-4378.0
30
0.0
10
9465.0
20
-4397.0
30
0.0
10
9465.0
20
-4417.0
30
0.0
10
9464.0
20
-4437.0
30
0.0
10
9464.0
20
-4455.0
30
0.0
10
9465.0
20
-4474.0
30
0.0
10
9466.0
20
-4492.0
30
0.0
10
9468.0
20
-4511.0
30
0.0
10
9471.0
20
-4529.0
30
0.0
10
9476.0
20
-4548.0
30
0.0
10
9481.0
20
-4569.0
30
0.0
10
9489.0
20
-4591.0
30
0.0
10
9498.0
20
-4614.0
30
0.0
10
9509.0
20
-4642.0
30
0.0
10
9521.0
20
-4670.0
30
0.0
10
9534.0
20
-4697.0
30
0.0
10
9545.0
20
-4721.0
30
0.0
10
9555.0
20
-4740.0
30
0.0
10
9561.0
20
-4753.0
30
0.0
10
9564.0
20
-4758.0
30
0.0
10
9562.0
20
-4760.0
30
0.0
10
9558.0
20
-4765.0
30
0.0
10
9551.0
20
-4774.0
30
0.0
10
9544.0
20
-4784.0
30
0.0
10
9535.0
20
-4796.0
30
0.0
10
9526.0
20
-4808.0
30
0.0
10
9518.0
20
-4821.0
30
0.0
10
9510.0
20
-4835.0
30
0.0
10
9504.0
20
-4849.0
30
0.0
10
9499.0
20
-4863.0
30
0.0
10
9496.0
20
-4877.0
30
0.0
10
9494.0
20
-4891.0
30
0.0
10
9495.0
20
-4905.0
30
0.0
10
9497.0
20
-4920.0
30
0.0
10
9503.0
20
-4940.0
30
0.0
10
9511.0
20
-4961.0
30
0.0
10
9520.0
20
-4983.0
30
0.0
10
9532.0
20
-5004.0
30
0.0
10
9543.0
20
-5026.0
30
0.0
10
9555.0
20
-5047.0
30
0.0
10
9567.0
20
-5067.0
30
0.0
10
9577.0
20
-5086.0
30
0.0
10
9587.0
20
-5104.0
30
0.0
10
9596.0
20
-5122.0
30
0.0
10
9606.0
20
-5142.0
30
0.0
10
9616.0
20
-5163.0
30
0.0
10
9627.0
20
-5186.0
30
0.0
10
9640.0
20
-5212.0
30
0.0
10
9655.0
20
-5244.0
30
0.0
10
9671.0
20
-5277.0
30
0.0
10
9687.0
20
-5311.0
30
0.0
10
9701.0
20
-5341.0
30
0.0
10
9713.0
20
-5365.0
30
0.0
10
9721.0
20
-5382.0
30
0.0
10
9724.0
20
-5388.0
30
0.0
10
9722.0
20
-5391.0
30
0.0
10
9717.0
20
-5399.0
30
0.0
10
9711.0
20
-5412.0
30
0.0
10
9703.0
20
-5428.0
30
0.0
10
9695.0
20
-5446.0
30
0.0
10
9688.0
20
-5465.0
30
0.0
10
9683.0
20
-5483.0
30
0.0
10
9680.0
20
-5502.0
30
0.0
10
9680.0
20
-5519.0
30
0.0
10
9682.0
20
-5536.0
30
0.0
10
9686.0
20
-5552.0
30
0.0
10
9690.0
20
-5569.0
30
0.0
10
9695.0
20
-5586.0
30
0.0
10
9699.0
20
-5605.0
30
0.0
10
9703.0
20
-5633.0
30
0.0
10
9706.0
20
-5664.0
30
0.0
10
9708.0
20
-5697.0
30
0.0
10
9709.0
20
-5731.0
30
0.0
10
9711.0
20
-5767.0
30
0.0
10
9713.0
20
-5803.0
30
0.0
10
9716.0
20
-5839.0
30
0.0
10
9720.0
20
-5872.0
30
0.0
10
9724.0
20
-5904.0
30
0.0
10
9728.0
20
-5934.0
30
0.0
10
9731.0
20
-5964.0
30
0.0
10
9732.0
20
-5991.0
30
0.0
10
9730.0
20
-6016.0
30
0.0
10
9723.0
20
-6039.0
30
0.0
10
9716.0
20
-6054.0
30
0.0
10
9707.0
20
-6068.0
30
0.0
10
9698.0
20
-6081.0
30
0.0
10
9689.0
20
-6093.0
30
0.0
10
9682.0
20
-6105.0
30
0.0
10
9677.0
20
-6117.0
30
0.0
10
9675.0
20
-6130.0
30
0.0
10
9676.0
20
-6143.0
30
0.0
10
9681.0
20
-6156.0
30
0.0
10
9688.0
20
-6170.0
30
0.0
10
9695.0
20
-6183.0
30
0.0
10
9701.0
20
-6197.0
30
0.0
10
9706.0
20
-6210.0
30
0.0
10
9708.0
20
-6222.0
30
0.0
10
9706.0
20
-6232.0
30
0.0
10
9703.0
20
-6242.0
30
0.0
10
9698.0
20
-6251.0
30
0.0
10
9693.0
20
-6261.0
30
0.0
10
9688.0
20
-6270.0
30
0.0
10
9685.0
20
-6280.0
30
0.0
10
9684.0
20
-6290.0
30
0.0
10
9686.0
20
-6303.0
30
0.0
10
9690.0
20
-6315.0
30
0.0
10
9696.0
20
-6329.0
30
0.0
10
9703.0
20
-6342.0
30
0.0
10
9708.0
20
-6355.0
30
0.0
10
9711.0
20
-6368.0
30
0.0
10
9711.0
20
-6380.0
30
0.0
10
9707.0
20
-6393.0
30
0.0
10
9698.0
20
-6405.0
30
0.0
10
9686.0
20
-6417.0
30
0.0
10
9673.0
20
-6429.0
30
0.0
10
9659.0
20
-6440.0
30
0.0
10
9647.0
20
-6452.0
30
0.0
10
9637.0
20
-6464.0
30
0.0
10
9630.0
20
-6477.0
30
0.0
10
9627.0
20
-6490.0
30
0.0
10
9626.0
20
-6504.0
30
0.0
10
9627.0
20
-6519.0
30
0.0
10
9630.0
20
-6534.0
30
0.0
10
9634.0
20
-6551.0
30
0.0
10
9639.0
20
-6568.0
30
0.0
10
9646.0
20
-6597.0
30
0.0
10
9654.0
20
-6627.0
30
0.0
10
9663.0
20
-6659.0
30
0.0
10
9672.0
20
-6692.0
30
0.0
10
9681.0
20
-6726.0
30
0.0
10
9691.0
20
-6761.0
30
0.0
10
9702.0
20
-6797.0
30
0.0
10
9713.0
20
-6835.0
30
0.0
10
9725.0
20
-6873.0
30
0.0
10
9738.0
20
-6910.0
30
0.0
10
9752.0
20
-6945.0
30
0.0
10
9769.0
20
-6979.0
30
0.0
10
9788.0
20
-7010.0
30
0.0
10
9811.0
20
-7038.0
30
0.0
10
9826.0
20
-7054.0
30
0.0
10
9842.0
20
-7068.0
30
0.0
10
9857.0
20
-7081.0
30
0.0
10
9871.0
20
-7091.0
30
0.0
10
9882.0
20
-7098.0
30
0.0
10
9889.0
20
-7103.0
30
0.0
10
9892.0
20
-7104.0
30
0.0
10
9891.0
20
-7109.0
30
0.0
10
9890.0
20
-7123.0
30
0.0
10
9889.0
20
-7144.0
30
0.0
10
9889.0
20
-7171.0
30
0.0
10
9889.0
20
-7200.0
30
0.0
10
9891.0
20
-7232.0
30
0.0
10
9894.0
20
-7263.0
30
0.0
10
9901.0
20
-7298.0
30
0.0
10
9911.0
20
-7330.0
30
0.0
10
9923.0
20
-7361.0
30
0.0
10
9937.0
20
-7390.0
30
0.0
10
9952.0
20
-7419.0
30
0.0
10
9967.0
20
-7447.0
30
0.0
10
9981.0
20
-7476.0
30
0.0
10
9995.0
20
-7504.0
30
0.0
10
10007.0
20
-7533.0
30
0.0
10
10018.0
20
-7562.0
30
0.0
10
10029.0
20
-7590.0
30
0.0
10
10038.0
20
-7617.0
30
0.0
10
10046.0
20
-7644.0
30
0.0
10
10052.0
20
-7668.0
30
0.0
10
10055.0
20
-7679.0
30
0.0
10
10057.0
20
-7690.0
30
0.0
10
10059.0
20
-7699.0
30
0.0
10
10060.0
20
-7707.0
30
0.0
10
10062.0
20
-7713.0
30
0.0
10
10062.0
20
-7717.0
30
0.0
10
10062.0
20
-7718.0
30
0.0
10
10061.0
20
-7725.0
30
0.0
10
10057.0
20
-7743.0
30
0.0
10
10052.0
20
-7770.0
30
0.0
10
10047.0
20
-7803.0
30
0.0
10
10042.0
20
-7841.0
30
0.0
10
10039.0
20
-7880.0
30
0.0
10
10039.0
20
-7918.0
30
0.0
10
10041.0
20
-7954.0
30
0.0
10
10047.0
20
-7987.0
30
0.0
10
10055.0
20
-8018.0
30
0.0
10
10065.0
20
-8046.0
30
0.0
10
10076.0
20
-8073.0
30
0.0
10
10088.0
20
-8100.0
30
0.0
10
10099.0
20
-8126.0
30
0.0
10
10109.0
20
-8152.0
30
0.0
10
10119.0
20
-8179.0
30
0.0
10
10129.0
20
-8206.0
30
0.0
10
10140.0
20
-8233.0
30
0.0
10
10152.0
20
-8261.0
30
0.0
10
10166.0
20
-8288.0
30
0.0
10
10182.0
20
-8316.0
30
0.0
10
10196.0
20
-8338.0
30
0.0
10
10211.0
20
-8359.0
30
0.0
10
10226.0
20
-8378.0
30
0.0
10
10239.0
20
-8394.0
30
0.0
10
10249.0
20
-8407.0
30
0.0
10
10256.0
20
-8416.0
30
0.0
10
10259.0
20
-8419.0
30
0.0
10
10259.0
20
-8421.0
30
0.0
10
10259.0
20
-8430.0
30
0.0
10
10260.0
20
-8442.0
30
0.0
10
10260.0
20
-8457.0
30
0.0
10
10260.0
20
-8475.0
30
0.0
10
10261.0
20
-8494.0
30
0.0
10
10261.0
20
-8514.0
30
0.0
10
10262.0
20
-8531.0
30
0.0
10
10263.0
20
-8547.0
30
0.0
10
10263.0
20
-8561.0
30
0.0
10
10264.0
20
-8573.0
30
0.0
10
10264.0
20
-8582.0
30
0.0
10
10264.0
20
-8588.0
30
0.0
10
10264.0
20
-8590.0
30
0.0
10
10263.0
20
-8592.0
30
0.0
10
10261.0
20
-8599.0
30
0.0
10
10257.0
20
-8610.0
30
0.0
10
10253.0
20
-8623.0
30
0.0
10
10248.0
20
-8638.0
30
0.0
10
10244.0
20
-8655.0
30
0.0
10
10242.0
20
-8672.0
30
0.0
10
10241.0
20
-8688.0
30
0.0
10
10241.0
20
-8704.0
30
0.0
10
10241.0
20
-8718.0
30
0.0
10
10242.0
20
-8730.0
30
0.0
10
10244.0
20
-8739.0
30
0.0
10
10245.0
20
-8745.0
30
0.0
10
10245.0
20
-8748.0
30
0.0
10
10022.0
20
-8887.0
30
0.0
10
9966.0
20
-8892.0
30
0.0
10
9962.0
20
-8888.0
30
0.0
10
9952.0
20
-8878.0
30
0.0
10
9937.0
20
-8864.0
30
0.0
10
9917.0
20
-8845.0
30
0.0
10
9895.0
20
-8825.0
30
0.0
10
9872.0
20
-8803.0
30
0.0
10
9848.0
20
-8781.0
30
0.0
10
9822.0
20
-8758.0
30
0.0
10
9797.0
20
-8737.0
30
0.0
10
9773.0
20
-8716.0
30
0.0
10
9751.0
20
-8697.0
30
0.0
10
9729.0
20
-8679.0
30
0.0
10
9709.0
20
-8661.0
30
0.0
10
9690.0
20
-8643.0
30
0.0
10
9674.0
20
-8629.0
30
0.0
10
9659.0
20
-8615.0
30
0.0
10
9644.0
20
-8601.0
30
0.0
10
9629.0
20
-8588.0
30
0.0
10
9614.0
20
-8577.0
30
0.0
10
9597.0
20
-8566.0
30
0.0
10
9580.0
20
-8556.0
30
0.0
10
9560.0
20
-8548.0
30
0.0
10
9539.0
20
-8542.0
30
0.0
10
9518.0
20
-8537.0
30
0.0
10
9495.0
20
-8533.0
30
0.0
10
9473.0
20
-8530.0
30
0.0
10
9450.0
20
-8527.0
30
0.0
10
9428.0
20
-8524.0
30
0.0
10
9409.0
20
-8522.0
30
0.0
10
9391.0
20
-8521.0
30
0.0
10
9373.0
20
-8520.0
30
0.0
10
9355.0
20
-8519.0
30
0.0
10
9338.0
20
-8520.0
30
0.0
10
9321.0
20
-8522.0
30
0.0
10
9305.0
20
-8526.0
30
0.0
10
9295.0
20
-8529.0
30
0.0
10
9285.0
20
-8533.0
30
0.0
10
9276.0
20
-8537.0
30
0.0
10
9269.0
20
-8540.0
30
0.0
10
9263.0
20
-8543.0
30
0.0
10
9259.0
20
-8545.0
30
0.0
10
9258.0
20
-8546.0
30
0.0
10
9123.0
20
-8565.0
30
0.0
10
9121.0
20
-8563.0
30
0.0
10
9113.0
20
-8557.0
30
0.0
10
9102.0
20
-8548.0
30
0.0
10
9087.0
20
-8537.0
30
0.0
10
9070.0
20
-8525.0
30
0.0
10
9051.0
20
-8513.0
30
0.0
10
9031.0
20
-8501.0
30
0.0
10
9012.0
20
-8492.0
30
0.0
10
8994.0
20
-8484.0
30
0.0
10
8978.0
20
-8477.0
30
0.0
10
8964.0
20
-8472.0
30
0.0
10
8952.0
20
-8468.0
30
0.0
10
8945.0
20
-8466.0
30
0.0
10
8943.0
20
-8465.0
30
0.0
10
8953.0
20
-8595.0
30
0.0
10
8951.0
20
-8594.0
30
0.0
10
8944.0
20
-8591.0
30
0.0
10
8933.0
20
-8588.0
30
0.0
10
8920.0
20
-8584.0
30
0.0
10
8903.0
20
-8580.0
30
0.0
10
8885.0
20
-8578.0
30
0.0
10
8865.0
20
-8576.0
30
0.0
10
8841.0
20
-8577.0
30
0.0
10
8817.0
20
-8580.0
30
0.0
10
8795.0
20
-8584.0
30
0.0
10
8775.0
20
-8589.0
30
0.0
10
8759.0
20
-8593.0
30
0.0
10
8748.0
20
-8596.0
30
0.0
10
8745.0
20
-8598.0
30
0.0
10
8742.0
20
-8595.0
30
0.0
10
8734.0
20
-8587.0
30
0.0
10
8723.0
20
-8576.0
30
0.0
10
8710.0
20
-8562.0
30
0.0
10
8695.0
20
-8546.0
30
0.0
10
8680.0
20
-8530.0
30
0.0
10
8666.0
20
-8514.0
30
0.0
10
8656.0
20
-8502.0
30
0.0
10
8647.0
20
-8491.0
30
0.0
10
8639.0
20
-8482.0
30
0.0
10
8631.0
20
-8474.0
30
0.0
10
8622.0
20
-8467.0
30
0.0
10
8613.0
20
-8463.0
30
0.0
10
8603.0
20
-8460.0
30
0.0
10
8590.0
20
-8459.0
30
0.0
10
8576.0
20
-8460.0
30
0.0
10
8560.0
20
-8462.0
30
0.0
10
8543.0
20
-8464.0
30
0.0
10
8526.0
20
-8466.0
30
0.0
10
8509.0
20
-8467.0
30
0.0
10
8492.0
20
-8466.0
30
0.0
10
8476.0
20
-8463.0
30
0.0
10
8462.0
20
-8458.0
30
0.0
10
8447.0
20
-8453.0
30
0.0
10
8433.0
20
-8446.0
30
0.0
10
8420.0
20
-8440.0
30
0.0
10
8407.0
20
-8435.0
30
0.0
10
8395.0
20
-8432.0
30
0.0
10
8384.0
20
-8430.0
30
0.0
10
8374.0
20
-8430.0
30
0.0
10
8363.0
20
-8431.0
30
0.0
10
8353.0
20
-8434.0
30
0.0
10
8341.0
20
-8438.0
30
0.0
10
8330.0
20
-8443.0
30
0.0
10
8317.0
20
-8449.0
30
0.0
10
8298.0
20
-8460.0
30
0.0
10
8277.0
20
-8472.0
30
0.0
10
8255.0
20
-8485.0
30
0.0
10
8233.0
20
-8497.0
30
0.0
10
8210.0
20
-8508.0
30
0.0
10
8187.0
20
-8518.0
30
0.0
10
8165.0
20
-8525.0
30
0.0
10
8148.0
20
-8528.0
30
0.0
10
8132.0
20
-8530.0
30
0.0
10
8116.0
20
-8530.0
30
0.0
10
8101.0
20
-8529.0
30
0.0
10
8086.0
20
-8527.0
30
0.0
10
8071.0
20
-8524.0
30
0.0
10
8056.0
20
-8521.0
30
0.0
10
8042.0
20
-8518.0
30
0.0
10
8028.0
20
-8515.0
30
0.0
10
8014.0
20
-8511.0
30
0.0
10
8000.0
20
-8507.0
30
0.0
10
7987.0
20
-8503.0
30
0.0
10
7974.0
20
-8499.0
30
0.0
10
7961.0
20
-8494.0
30
0.0
10
7949.0
20
-8489.0
30
0.0
10
7937.0
20
-8483.0
30
0.0
10
7925.0
20
-8478.0
30
0.0
10
7912.0
20
-8473.0
30
0.0
10
7899.0
20
-8469.0
30
0.0
10
7884.0
20
-8466.0
30
0.0
10
7869.0
20
-8465.0
30
0.0
10
7854.0
20
-8464.0
30
0.0
10
7838.0
20
-8465.0
30
0.0
10
7823.0
20
-8467.0
30
0.0
10
7810.0
20
-8469.0
30
0.0
10
7799.0
20
-8470.0
30
0.0
10
7792.0
20
-8472.0
30
0.0
10
7790.0
20
-8472.0
30
0.0
10
7788.0
20
-8467.0
30
0.0
10
7783.0
20
-8453.0
30
0.0
10
7775.0
20
-8433.0
30
0.0
10
7764.0
20
-8409.0
30
0.0
10
7752.0
20
-8384.0
30
0.0
10
7737.0
20
-8360.0
30
0.0
10
7722.0
20
-8339.0
30
0.0
10
7707.0
20
-8325.0
30
0.0
10
7691.0
20
-8315.0
30
0.0
10
7675.0
20
-8307.0
30
0.0
10
7660.0
20
-8302.0
30
0.0
10
7644.0
20
-8298.0
30
0.0
10
7628.0
20
-8293.0
30
0.0
10
7613.0
20
-8288.0
30
0.0
10
7597.0
20
-8280.0
30
0.0
10
7582.0
20
-8271.0
30
0.0
10
7566.0
20
-8261.0
30
0.0
10
7549.0
20
-8250.0
30
0.0
10
7531.0
20
-8239.0
30
0.0
10
7510.0
20
-8229.0
30
0.0
10
7487.0
20
-8220.0
30
0.0
10
7459.0
20
-8212.0
30
0.0
10
7430.0
20
-8206.0
30
0.0
10
7401.0
20
-8201.0
30
0.0
10
7376.0
20
-8198.0
30
0.0
10
7354.0
20
-8196.0
30
0.0
10
7340.0
20
-8194.0
30
0.0
10
7335.0
20
-8194.0
30
0.0
10
7333.0
20
-8191.0
30
0.0
10
7327.0
20
-8181.0
30
0.0
10
7318.0
20
-8166.0
30
0.0
10
7307.0
20
-8148.0
30
0.0
10
7294.0
20
-8128.0
30
0.0
10
7279.0
20
-8107.0
30
0.0
10
7264.0
20
-8086.0
30
0.0
10
7247.0
20
-8065.0
30
0.0
10
7230.0
20
-8045.0
30
0.0
10
7212.0
20
-8028.0
30
0.0
10
7195.0
20
-8013.0
30
0.0
10
7178.0
20
-8001.0
30
0.0
10
7160.0
20
-7991.0
30
0.0
10
7143.0
20
-7983.0
30
0.0
10
7130.0
20
-7979.0
30
0.0
10
7116.0
20
-7976.0
30
0.0
10
7103.0
20
-7973.0
30
0.0
10
7090.0
20
-7970.0
30
0.0
10
7078.0
20
-7967.0
30
0.0
10
7066.0
20
-7963.0
30
0.0
10
7054.0
20
-7957.0
30
0.0
10
7043.0
20
-7950.0
30
0.0
10
7032.0
20
-7940.0
30
0.0
10
7022.0
20
-7931.0
30
0.0
10
7011.0
20
-7920.0
30
0.0
10
7001.0
20
-7911.0
30
0.0
10
6990.0
20
-7903.0
30
0.0
10
6979.0
20
-7896.0
30
0.0
10
6968.0
20
-7892.0
30
0.0
10
6956.0
20
-7890.0
30
0.0
10
6944.0
20
-7891.0
30
0.0
10
6931.0
20
-7893.0
30
0.0
10
6917.0
20
-7897.0
30
0.0
10
6904.0
20
-7903.0
30
0.0
10
6889.0
20
-7910.0
30
0.0
10
6876.0
20
-7919.0
30
0.0
10
6863.0
20
-7927.0
30
0.0
10
6851.0
20
-7936.0
30
0.0
10
6840.0
20
-7944.0
30
0.0
10
6832.0
20
-7951.0
30
0.0
10
6826.0
20
-7955.0
30
0.0
10
6824.0
20
-7957.0
30
0.0
10
6821.0
20
-7953.0
30
0.0
10
6811.0
20
-7941.0
30
0.0
10
6797.0
20
-7925.0
30
0.0
10
6779.0
20
-7905.0
30
0.0
10
6758.0
20
-7885.0
30
0.0
10
6736.0
20
-7866.0
30
0.0
10
6714.0
20
-7850.0
30
0.0
10
6694.0
20
-7839.0
30
0.0
10
6675.0
20
-7833.0
30
0.0
10
6657.0
20
-7829.0
30
0.0
10
6638.0
20
-7828.0
30
0.0
10
6620.0
20
-7828.0
30
0.0
10
6601.0
20
-7828.0
30
0.0
10
6582.0
20
-7828.0
30
0.0
10
6560.0
20
-7827.0
30
0.0
10
6537.0
20
-7825.0
30
0.0
10
6514.0
20
-7822.0
30
0.0
10
6490.0
20
-7818.0
30
0.0
10
6467.0
20
-7814.0
30
0.0
10
6444.0
20
-7810.0
30
0.0
10
6422.0
20
-7806.0
30
0.0
10
6401.0
20
-7802.0
30
0.0
10
6381.0
20
-7799.0
30
0.0
10
6362.0
20
-7795.0
30
0.0
10
6342.0
20
-7790.0
30
0.0
10
6321.0
20
-7784.0
30
0.0
10
6300.0
20
-7776.0
30
0.0
10
6278.0
20
-7766.0
30
0.0
10
6248.0
20
-7750.0
30
0.0
10
6217.0
20
-7730.0
30
0.0
10
6187.0
20
-7709.0
30
0.0
10
6158.0
20
-7687.0
30
0.0
10
6132.0
20
-7666.0
30
0.0
10
6110.0
20
-7646.0
30
0.0
10
6093.0
20
-7629.0
30
0.0
10
6087.0
20
-7621.0
30
0.0
10
6082.0
20
-7615.0
30
0.0
10
6077.0
20
-7608.0
30
0.0
10
6073.0
20
-7602.0
30
0.0
10
6069.0
20
-7596.0
30
0.0
10
6064.0
20
-7590.0
30
0.0
10
6058.0
20
-7583.0
30
0.0
10
6040.0
20
-7567.0
30
0.0
10
6018.0
20
-7550.0
30
0.0
10
5991.0
20
-7530.0
30
0.0
10
5961.0
20
-7511.0
30
0.0
10
5930.0
20
-7492.0
30
0.0
10
5898.0
20
-7474.0
30
0.0
10
5866.0
20
-7458.0
30
0.0
10
5838.0
20
-7445.0
30
0.0
10
5810.0
20
-7434.0
30
0.0
10
5783.0
20
-7424.0
30
0.0
10
5756.0
20
-7414.0
30
0.0
10
5729.0
20
-7403.0
30
0.0
10
5701.0
20
-7391.0
30
0.0
10
5671.0
20
-7375.0
30
0.0
10
5642.0
20
-7359.0
30
0.0
10
5612.0
20
-7340.0
30
0.0
10
5585.0
20
-7322.0
30
0.0
10
5560.0
20
-7305.0
30
0.0
10
5541.0
20
-7291.0
30
0.0
10
5528.0
20
-7282.0
30
0.0
10
5523.0
20
-7278.0
30
0.0
10
5518.0
20
-7278.0
30
0.0
10
5504.0
20
-7278.0
30
0.0
10
5484.0
20
-7278.0
30
0.0
10
5460.0
20
-7279.0
30
0.0
10
5434.0
20
-7280.0
30
0.0
10
5408.0
20
-7282.0
30
0.0
10
5385.0
20
-7284.0
30
0.0
10
5369.0
20
-7287.0
30
0.0
10
5356.0
20
-7290.0
30
0.0
10
5345.0
20
-7294.0
30
0.0
10
5334.0
20
-7299.0
30
0.0
10
5324.0
20
-7303.0
30
0.0
10
5313.0
20
-7308.0
30
0.0
10
5300.0
20
-7314.0
30
0.0
10
5286.0
20
-7319.0
30
0.0
10
5271.0
20
-7324.0
30
0.0
10
5256.0
20
-7329.0
30
0.0
10
5242.0
20
-7333.0
30
0.0
10
5231.0
20
-7337.0
30
0.0
10
5223.0
20
-7339.0
30
0.0
10
5221.0
20
-7340.0
30
0.0
10
5102.0
20
-7277.0
30
0.0
10
4985.0
20
-7369.0
30
0.0
10
4830.0
20
-7480.0
30
0.0
10
4618.0
20
-7665.0
30
0.0
10
4613.0
20
-7663.0
30
0.0
10
4597.0
20
-7658.0
30
0.0
10
4574.0
20
-7651.0
30
0.0
10
4545.0
20
-7642.0
30
0.0
10
4513.0
20
-7631.0
30
0.0
10
4479.0
20
-7619.0
30
0.0
10
4446.0
20
-7606.0
30
0.0
10
4414.0
20
-7593.0
30
0.0
10
4385.0
20
-7581.0
30
0.0
10
4358.0
20
-7569.0
30
0.0
10
4332.0
20
-7559.0
30
0.0
10
4306.0
20
-7550.0
30
0.0
10
4281.0
20
-7543.0
30
0.0
10
4254.0
20
-7538.0
30
0.0
10
4228.0
20
-7537.0
30
0.0
10
4200.0
20
-7537.0
30
0.0
10
4172.0
20
-7539.0
30
0.0
10
4145.0
20
-7542.0
30
0.0
10
4118.0
20
-7546.0
30
0.0
10
4092.0
20
-7551.0
30
0.0
10
4068.0
20
-7557.0
30
0.0
10
4050.0
20
-7561.0
30
0.0
10
4032.0
20
-7566.0
30
0.0
10
4015.0
20
-7572.0
30
0.0
10
3999.0
20
-7580.0
30
0.0
10
3982.0
20
-7588.0
30
0.0
10
3965.0
20
-7600.0
30
0.0
10
3946.0
20
-7613.0
30
0.0
10
3925.0
20
-7631.0
30
0.0
10
3903.0
20
-7650.0
30
0.0
10
3882.0
20
-7669.0
30
0.0
10
3863.0
20
-7687.0
30
0.0
10
3848.0
20
-7702.0
30
0.0
10
3838.0
20
-7712.0
30
0.0
10
3835.0
20
-7716.0
30
0.0
10
3828.0
20
-7715.0
30
0.0
10
3809.0
20
-7711.0
30
0.0
10
3781.0
20
-7708.0
30
0.0
10
3748.0
20
-7704.0
30
0.0
10
3713.0
20
-7702.0
30
0.0
10
3679.0
20
-7703.0
30
0.0
10
3648.0
20
-7707.0
30
0.0
10
3626.0
20
-7716.0
30
0.0
10
3608.0
20
-7728.0
30
0.0
10
3593.0
20
-7742.0
30
0.0
10
3579.0
20
-7758.0
30
0.0
10
3563.0
20
-7774.0
30
0.0
10
3545.0
20
-7790.0
30
0.0
10
3523.0
20
-7805.0
30
0.0
10
3492.0
20
-7820.0
30
0.0
10
3455.0
20
-7833.0
30
0.0
10
3418.0
20
-7842.0
30
0.0
10
3383.0
20
-7850.0
30
0.0
10
3354.0
20
-7855.0
30
0.0
10
3334.0
20
-7858.0
30
0.0
10
3327.0
20
-7859.0
30
0.0
10
3324.0
20
-7856.0
30
0.0
10
3314.0
20
-7846.0
30
0.0
10
3300.0
20
-7832.0
30
0.0
10
3281.0
20
-7815.0
30
0.0
10
3259.0
20
-7798.0
30
0.0
10
3234.0
20
-7782.0
30
0.0
10
3208.0
20
-7768.0
30
0.0
10
3175.0
20
-7757.0
30
0.0
10
3141.0
20
-7753.0
30
0.0
10
3106.0
20
-7754.0
30
0.0
10
3072.0
20
-7760.0
30
0.0
10
3038.0
20
-7769.0
30
0.0
10
3004.0
20
-7782.0
30
0.0
10
2972.0
20
-7796.0
30
0.0
10
2942.0
20
-7810.0
30
0.0
10
2914.0
20
-7825.0
30
0.0
10
2887.0
20
-7840.0
30
0.0
10
2861.0
20
-7855.0
30
0.0
10
2837.0
20
-7870.0
30
0.0
10
2814.0
20
-7884.0
30
0.0
10
2792.0
20
-7896.0
30
0.0
10
2776.0
20
-7905.0
30
0.0
10
2761.0
20
-7914.0
30
0.0
10
2745.0
20
-7922.0
30
0.0
10
2730.0
20
-7930.0
30
0.0
10
2713.0
20
-7940.0
30
0.0
10
2696.0
20
-7950.0
30
0.0
10
2677.0
20
-7961.0
30
0.0
10
2657.0
20
-7974.0
30
0.0
10
2637.0
20
-7988.0
30
0.0
10
2618.0
20
-8001.0
30
0.0
10
2600.0
20
-8014.0
30
0.0
10
2586.0
20
-8024.0
30
0.0
10
2577.0
20
-8030.0
30
0.0
10
2573.0
20
-8033.0
30
0.0
10
2534.0
20
-7897.0
30
0.0
10
2483.0
20
-7916.0
30
0.0
10
2483.0
20
-7913.0
30
0.0
10
2482.0
20
-7905.0
30
0.0
10
2481.0
20
-7894.0
30
0.0
10
2478.0
20
-7879.0
30
0.0
10
2473.0
20
-7863.0
30
0.0
10
2466.0
20
-7847.0
30
0.0
10
2456.0
20
-7832.0
30
0.0
10
2443.0
20
-7819.0
30
0.0
10
2429.0
20
-7808.0
30
0.0
10
2414.0
20
-7799.0
30
0.0
10
2400.0
20
-7792.0
30
0.0
10
2388.0
20
-7787.0
30
0.0
10
2380.0
20
-7784.0
30
0.0
10
2377.0
20
-7783.0
30
0.0
10
2376.0
20
-7781.0
30
0.0
10
2374.0
20
-7774.0
30
0.0
10
2369.0
20
-7763.0
30
0.0
10
2363.0
20
-7750.0
30
0.0
10
2355.0
20
-7735.0
30
0.0
10
2347.0
20
-7719.0
30
0.0
10
2337.0
20
-7704.0
30
0.0
10
2321.0
20
-7685.0
30
0.0
10
2305.0
20
-7666.0
30
0.0
10
2289.0
20
-7649.0
30
0.0
10
2273.0
20
-7632.0
30
0.0
10
2258.0
20
-7614.0
30
0.0
10
2245.0
20
-7595.0
30
0.0
10
2235.0
20
-7574.0
30
0.0
10
2230.0
20
-7557.0
30
0.0
10
2226.0
20
-7539.0
30
0.0
10
2224.0
20
-7523.0
30
0.0
10
2223.0
20
-7508.0
30
0.0
10
2222.0
20
-7496.0
30
0.0
10
2222.0
20
-7488.0
30
0.0
10
2222.0
20
-7485.0
30
0.0
10
2225.0
20
-7482.0
30
0.0
10
2233.0
20
-7472.0
30
0.0
10
2245.0
20
-7456.0
30
0.0
10
2259.0
20
-7437.0
30
0.0
10
2275.0
20
-7415.0
30
0.0
10
2291.0
20
-7391.0
30
0.0
10
2306.0
20
-7367.0
30
0.0
10
2317.0
20
-7348.0
30
0.0
10
2327.0
20
-7330.0
30
0.0
10
2334.0
20
-7314.0
30
0.0
10
2341.0
20
-7301.0
30
0.0
10
2345.0
20
-7290.0
30
0.0
10
2348.0
20
-7284.0
30
0.0
10
2349.0
20
-7281.0
30
0.0
10
2351.0
20
-7280.0
30
0.0
10
2357.0
20
-7275.0
30
0.0
10
2365.0
20
-7269.0
30
0.0
10
2374.0
20
-7261.0
30
0.0
10
2382.0
20
-7253.0
30
0.0
10
2389.0
20
-7245.0
30
0.0
10
2392.0
20
-7239.0
30
0.0
10
2392.0
20
-7234.0
30
0.0
10
2388.0
20
-7231.0
30
0.0
10
2382.0
20
-7229.0
30
0.0
10
2373.0
20
-7227.0
30
0.0
10
2362.0
20
-7225.0
30
0.0
10
2350.0
20
-7222.0
30
0.0
10
2338.0
20
-7219.0
30
0.0
10
2315.0
20
-7209.0
30
0.0
10
2292.0
20
-7194.0
30
0.0
10
2271.0
20
-7175.0
30
0.0
10
2251.0
20
-7153.0
30
0.0
10
2232.0
20
-7129.0
30
0.0
10
2216.0
20
-7103.0
30
0.0
10
2202.0
20
-7076.0
30
0.0
10
2191.0
20
-7051.0
30
0.0
10
2182.0
20
-7027.0
30
0.0
10
2173.0
20
-7005.0
30
0.0
10
2164.0
20
-6984.0
30
0.0
10
2152.0
20
-6967.0
30
0.0
10
2138.0
20
-6952.0
30
0.0
10
2119.0
20
-6943.0
30
0.0
10
2100.0
20
-6939.0
30
0.0
10
2080.0
20
-6937.0
30
0.0
10
2059.0
20
-6938.0
30
0.0
10
2040.0
20
-6939.0
30
0.0
10
2025.0
20
-6942.0
30
0.0
10
2014.0
20
-6944.0
30
0.0
10
2010.0
20
-6944.0
30
0.0
10
2006.0
20
-6941.0
30
0.0
10
1996.0
20
-6933.0
30
0.0
10
1980.0
20
-6922.0
30
0.0
10
1960.0
20
-6908.0
30
0.0
10
1938.0
20
-6894.0
30
0.0
10
1913.0
20
-6880.0
30
0.0
10
1888.0
20
-6868.0
30
0.0
10
1862.0
20
-6859.0
30
0.0
10
1837.0
20
-6853.0
30
0.0
10
1813.0
20
-6849.0
30
0.0
10
1789.0
20
-6848.0
30
0.0
10
1767.0
20
-6847.0
30
0.0
10
1745.0
20
-6847.0
30
0.0
10
1724.0
20
-6848.0
30
0.0
10
1705.0
20
-6847.0
30
0.0
10
1686.0
20
-6847.0
30
0.0
10
1667.0
20
-6846.0
30
0.0
10
1648.0
20
-6847.0
30
0.0
10
1626.0
20
-6848.0
30
0.0
10
1603.0
20
-6851.0
30
0.0
10
1578.0
20
-6856.0
30
0.0
10
1547.0
20
-6864.0
30
0.0
10
1515.0
20
-6873.0
30
0.0
10
1483.0
20
-6884.0
30
0.0
10
1455.0
20
-6894.0
30
0.0
10
1432.0
20
-6902.0
30
0.0
10
1417.0
20
-6908.0
30
0.0
10
1411.0
20
-6910.0
30
0.0
10
1411.0
20
-6907.0
30
0.0
10
1408.0
20
-6899.0
30
0.0
10
1404.0
20
-6888.0
30
0.0
10
1399.0
20
-6874.0
30
0.0
10
1391.0
20
-6858.0
30
0.0
10
1381.0
20
-6843.0
30
0.0
10
1369.0
20
-6828.0
30
0.0
10
1347.0
20
-6809.0
30
0.0
10
1321.0
20
-6794.0
30
0.0
10
1292.0
20
-6783.0
30
0.0
10
1261.0
20
-6775.0
30
0.0
10
1230.0
20
-6768.0
30
0.0
10
1199.0
20
-6763.0
30
0.0
10
1170.0
20
-6759.0
30
0.0
10
1150.0
20
-6755.0
30
0.0
10
1132.0
20
-6752.0
30
0.0
10
1114.0
20
-6748.0
30
0.0
10
1098.0
20
-6745.0
30
0.0
10
1083.0
20
-6741.0
30
0.0
10
1068.0
20
-6737.0
30
0.0
10
1055.0
20
-6733.0
30
0.0
10
1043.0
20
-6729.0
30
0.0
10
1031.0
20
-6725.0
30
0.0
10
1020.0
20
-6720.0
30
0.0
10
1009.0
20
-6714.0
30
0.0
10
997.0
20
-6708.0
30
0.0
10
985.0
20
-6699.0
30
0.0
10
974.0
20
-6689.0
30
0.0
10
962.0
20
-6678.0
30
0.0
10
950.0
20
-6665.0
30
0.0
10
939.0
20
-6653.0
30
0.0
10
930.0
20
-6642.0
30
0.0
10
923.0
20
-6633.0
30
0.0
10
918.0
20
-6627.0
30
0.0
10
916.0
20
-6624.0
30
0.0
10
915.0
20
-6621.0
30
0.0
10
914.0
20
-6611.0
30
0.0
10
913.0
20
-6595.0
30
0.0
10
911.0
20
-6576.0
30
0.0
10
909.0
20
-6554.0
30
0.0
10
908.0
20
-6530.0
30
0.0
10
908.0
20
-6506.0
30
0.0
10
909.0
20
-6477.0
30
0.0
10
911.0
20
-6450.0
30
0.0
10
915.0
20
-6424.0
30
0.0
10
918.0
20
-6400.0
30
0.0
10
922.0
20
-6376.0
30
0.0
10
925.0
20
-6353.0
30
0.0
10
927.0
20
-6330.0
30
0.0
10
928.0
20
-6312.0
30
0.0
10
927.0
20
-6294.0
30
0.0
10
926.0
20
-6277.0
30
0.0
10
923.0
20
-6260.0
30
0.0
10
919.0
20
-6242.0
30
0.0
10
912.0
20
-6225.0
30
0.0
10
904.0
20
-6208.0
30
0.0
10
891.0
20
-6186.0
30
0.0
10
876.0
20
-6165.0
30
0.0
10
858.0
20
-6144.0
30
0.0
10
838.0
20
-6124.0
30
0.0
10
818.0
20
-6105.0
30
0.0
10
796.0
20
-6088.0
30
0.0
10
774.0
20
-6073.0
30
0.0
10
753.0
20
-6061.0
30
0.0
10
732.0
20
-6051.0
30
0.0
10
710.0
20
-6042.0
30
0.0
10
688.0
20
-6035.0
30
0.0
10
664.0
20
-6028.0
30
0.0
10
639.0
20
-6021.0
30
0.0
10
613.0
20
-6014.0
30
0.0
10
588.0
20
-6007.0
30
0.0
10
563.0
20
-6001.0
30
0.0
10
540.0
20
-5994.0
30
0.0
10
519.0
20
-5988.0
30
0.0
10
503.0
20
-5984.0
30
0.0
10
492.0
20
-5981.0
30
0.0
10
488.0
20
-5979.0
30
0.0
10
485.0
20
-5978.0
30
0.0
10
478.0
20
-5973.0
30
0.0
10
467.0
20
-5966.0
30
0.0
10
453.0
20
-5956.0
30
0.0
10
436.0
20
-5946.0
30
0.0
10
418.0
20
-5935.0
30
0.0
10
399.0
20
-5924.0
30
0.0
10
375.0
20
-5910.0
30
0.0
10
352.0
20
-5897.0
30
0.0
10
329.0
20
-5884.0
30
0.0
10
307.0
20
-5871.0
30
0.0
10
286.0
20
-5858.0
30
0.0
10
267.0
20
-5844.0
30
0.0
10
250.0
20
-5830.0
30
0.0
10
236.0
20
-5816.0
30
0.0
10
224.0
20
-5802.0
30
0.0
10
212.0
20
-5787.0
30
0.0
10
200.0
20
-5771.0
30
0.0
10
188.0
20
-5754.0
30
0.0
10
175.0
20
-5737.0
30
0.0
10
162.0
20
-5719.0
30
0.0
10
149.0
20
-5704.0
30
0.0
10
136.0
20
-5689.0
30
0.0
10
124.0
20
-5675.0
30
0.0
10
112.0
20
-5663.0
30
0.0
10
103.0
20
-5653.0
30
0.0
10
97.0
20
-5647.0
30
0.0
10
95.0
20
-5645.0
30
0.0
10
97.0
20
-5642.0
30
0.0
10
100.0
20
-5634.0
30
0.0
10
105.0
20
-5621.0
30
0.0
10
111.0
20
-5605.0
30
0.0
10
117.0
20
-5585.0
30
0.0
10
123.0
20
-5563.0
30
0.0
10
128.0
20
-5540.0
30
0.0
10
131.0
20
-5514.0
30
0.0
10
133.0
20
-5489.0
30
0.0
10
134.0
20
-5465.0
30
0.0
10
134.0
20
-5445.0
30
0.0
10
133.0
20
-5428.0
30
0.0
10
133.0
20
-5417.0
30
0.0
10
132.0
20
-5414.0
30
0.0
10
140.0
20
-5409.0
30
0.0
10
162.0
20
-5396.0
30
0.0
10
194.0
20
-5375.0
30
0.0
10
232.0
20
-5348.0
30
0.0
10
272.0
20
-5316.0
30
0.0
10
312.0
20
-5280.0
30
0.0
10
348.0
20
-5242.0
30
0.0
10
371.0
20
-5210.0
30
0.0
10
389.0
20
-5180.0
30
0.0
10
403.0
20
-5151.0
30
0.0
10
414.0
20
-5126.0
30
0.0
10
420.0
20
-5106.0
30
0.0
10
424.0
20
-5093.0
30
0.0
10
425.0
20
-5089.0
30
0.0
10
421.0
20
-5093.0
30
0.0
10
408.0
20
-5105.0
30
0.0
10
388.0
20
-5124.0
30
0.0
10
363.0
20
-5147.0
30
0.0
10
334.0
20
-5172.0
30
0.0
10
303.0
20
-5199.0
30
0.0
10
271.0
20
-5225.0
30
0.0
10
244.0
20
-5246.0
30
0.0
10
218.0
20
-5264.0
30
0.0
10
195.0
20
-5281.0
30
0.0
10
176.0
20
-5294.0
30
0.0
10
161.0
20
-5304.0
30
0.0
10
151.0
20
-5310.0
30
0.0
10
148.0
20
-5313.0
30
0.0
10
119.0
20
-5249.0
30
0.0
10
121.0
20
-5245.0
30
0.0
10
126.0
20
-5234.0
30
0.0
10
134.0
20
-5217.0
30
0.0
10
144.0
20
-5196.0
30
0.0
10
156.0
20
-5172.0
30
0.0
10
169.0
20
-5147.0
30
0.0
10
182.0
20
-5122.0
30
0.0
10
197.0
20
-5097.0
30
0.0
10
211.0
20
-5074.0
30
0.0
10
225.0
20
-5052.0
30
0.0
10
238.0
20
-5031.0
30
0.0
10
249.0
20
-5011.0
30
0.0
10
260.0
20
-4992.0
30
0.0
10
269.0
20
-4972.0
30
0.0
10
276.0
20
-4951.0
30
0.0
10
281.0
20
-4931.0
30
0.0
10
286.0
20
-4909.0
30
0.0
10
289.0
20
-4886.0
30
0.0
10
291.0
20
-4862.0
30
0.0
10
292.0
20
-4836.0
30
0.0
10
293.0
20
-4809.0
30
0.0
10
293.0
20
-4785.0
30
0.0
10
293.0
20
-4761.0
30
0.0
10
293.0
20
-4738.0
30
0.0
10
293.0
20
-4718.0
30
0.0
10
292.0
20
-4702.0
30
0.0
10
292.0
20
-4691.0
30
0.0
10
292.0
20
-4687.0
30
0.0
10
292.0
20
-4686.0
30
0.0
10
294.0
20
-4682.0
30
0.0
10
296.0
20
-4676.0
30
0.0
10
300.0
20
-4668.0
30
0.0
10
304.0
20
-4660.0
30
0.0
10
310.0
20
-4651.0
30
0.0
10
316.0
20
-4643.0
30
0.0
10
325.0
20
-4634.0
30
0.0
10
334.0
20
-4626.0
30
0.0
10
342.0
20
-4618.0
30
0.0
10
349.0
20
-4611.0
30
0.0
10
353.0
20
-4604.0
30
0.0
10
354.0
20
-4597.0
30
0.0
10
350.0
20
-4591.0
30
0.0
10
330.0
20
-4579.0
30
0.0
10
298.0
20
-4568.0
30
0.0
10
258.0
20
-4558.0
30
0.0
10
216.0
20
-4550.0
30
0.0
10
180.0
20
-4543.0
30
0.0
10
154.0
20
-4539.0
30
0.0
10
144.0
20
-4537.0
30
0.0
10
153.0
20
-4441.0
30
0.0
10
156.0
20
-4440.0
30
0.0
10
165.0
20
-4440.0
30
0.0
10
179.0
20
-4439.0
30
0.0
10
194.0
20
-4437.0
30
0.0
10
209.0
20
-4435.0
30
0.0
10
224.0
20
-4433.0
30
0.0
10
234.0
20
-4430.0
30
0.0
10
240.0
20
-4427.0
30
0.0
10
242.0
20
-4424.0
30
0.0
10
242.0
20
-4419.0
30
0.0
10
239.0
20
-4412.0
30
0.0
10
234.0
20
-4404.0
30
0.0
10
228.0
20
-4393.0
30
0.0
10
220.0
20
-4380.0
30
0.0
10
188.0
20
-4316.0
30
0.0
10
149.0
20
-4231.0
30
0.0
10
107.0
20
-4135.0
30
0.0
10
67.0
20
-4040.0
30
0.0
10
33.0
20
-3958.0
30
0.0
10
9.0
20
-3901.0
30
0.0
10
0.0
20
-3879.0
30
0.0
10
3.0
20
-3874.0
30
0.0
6
Solid
370
35
62
0
0
LWPOLYLINE
5
21d0
100
AcDbEntity
100
AcDbPolyline
90
6
70
1
10
8530.0
20
-7278.0
30
0.0
10
8412.0
20
-7314.0
30
0.0
10
8355.0
20
-7300.0
30
0.0
10
8358.0
20
-7205.0
30
0.0
10
8498.0
20
-7226.0
30
0.0
10
8530.0
20
-7278.0
30
0.0
6
Solid
370
35
62
0
0
LWPOLYLINE
5
21d2
100
AcDbEntity
100
AcDbPolyline
90
6
70
1
10
9986.0
20
-7983.0
30
0.0
10
9919.0
20
-8143.0
30
0.0
10
9867.0
20
-8107.0
30
0.0
10
9848.0
20
-8028.0
30
0.0
10
9935.0
20
-7936.0
30
0.0
10
9986.0
20
-7983.0
30
0.0
6
Solid
370
35
62
0
0
LWPOLYLINE
5
21d4
100
AcDbEntity
100
AcDbPolyline
90
5
70
1
10
8050.0
20
-4730.0
30
0.0
10
8044.0
20
-4805.0
30
0.0
10
7969.0
20
-4814.0
30
0.0
10
7951.0
20
-4734.0
30
0.0
10
8050.0
20
-4730.0
30
0.0
6
Solid
370
35
62
0
0
LWPOLYLINE
5
21d6
100
AcDbEntity
100
AcDbPolyline
90
5
70
1
10
8038.0
20
-4018.0
30
0.0
10
8032.0
20
-4087.0
30
0.0
10
7934.0
20
-4095.0
30
0.0
10
7958.0
20
-4020.0
30
0.0
10
8038.0
20
-4018.0
30
0.0
6
Solid
370
35
62
0
0
LWPOLYLINE
5
21d8
100
AcDbEntity
100
AcDbPolyline
90
4
70
1
10
9625.0
20
-1762.0
30
0.0
10
9670.0
20
-1870.0
30
0.0
10
9535.0
20
-1850.0
30
0.0
10
9625.0
20
-1762.0
30
0.0
6
Solid
370
35
62
0
0
LWPOLYLINE
5
21da
100
AcDbEntity
100
AcDbPolyline
90
5
70
1
10
6668.0
20
-1300.0
30
0.0
10
6572.0
20
-1257.0
30
0.0
10
6607.0
20
-1216.0
30
0.0
10
6713.0
20
-1240.0
30
0.0
10
6668.0
20
-1300.0
30
0.0
6
Solid
370
35
62
0
0
LWPOLYLINE
5
21dc
100
AcDbEntity
100
AcDbPolyline
90
5
70
1
10
3676.0
20
-4833.0
30
0.0
10
3584.0
20
-4820.0
30
0.0
10
3623.0
20
-4762.0
30
0.0
10
3705.0
20
-4782.0
30
0.0
10
3676.0
20
-4833.0
30
0.0
6
Solid
370
35
62
0
0
LWPOLYLINE
5
21de
100
AcDbEntity
100
AcDbPolyline
90
4
70
1
10
3648.0
20
-4124.0
30
0.0
10
3538.0
20
-4105.0
30
0.0
10
3639.0
20
-4028.0
30
0.0
10
3648.0
20
-4124.0
30
0.0
6
Solid
370
35
62
0
0
LWPOLYLINE
5
21e0
100
AcDbEntity
100
AcDbPolyline
90
5
70
1
10
3093.0
20
-3675.0
30
0.0
10
2995.0
20
-3680.0
30
0.0
10
2996.0
20
-3574.0
30
0.0
10
3097.0
20
-3586.0
30
0.0
10
3093.0
20
-3675.0
30
0.0
6
Solid
370
35
62
0
0
LWPOLYLINE
5
21e3
100
AcDbEntity
8
zone_0_q3
100
AcDbPolyline
90
5
70
1
10
8428.0
20
-8382.0
30
0.0
10
7748.0
20
-8272.0
30
0.0
10
7866.0
20
-7609.0
30
0.0
10
8498.0
20
-7785.0
30
0.0
10
8428.0
20
-8382.0
30
0.0
6
Solid
370
35
62
3
0
LWPOLYLINE
5
21e6
100
AcDbEntity
8
zone_1_q3
100
AcDbPolyline
90
5
70
1
10
3767.0
20
-6948.0
30
0.0
10
3737.0
20
-7667.0
30
0.0
10
3178.0
20
-7668.0
30
0.0
10
3192.0
20
-6996.0
30
0.0
10
3767.0
20
-6948.0
30
0.0
6
Solid
370
35
62
3
0
LWPOLYLINE
5
21e9
100
AcDbEntity
8
zone_2_q3
100
AcDbPolyline
90
5
70
1
10
8682.0
20
-493.0
30
0.0
10
8810.0
20
-1230.0
30
0.0
10
8081.0
20
-1307.0
30
0.0
10
8044.0
20
-567.0
30
0.0
10
8682.0
20
-493.0
30
0.0
6
Solid
370
35
62
3
0
LWPOLYLINE
5
21ec
100
AcDbEntity
8
zone_3_q3
100
AcDbPolyline
90
5
70
1
10
3633.0
20
-1452.0
30
0.0
10
3204.0
20
-1515.0
30
0.0
10
3076.0
20
-929.0
30
0.0
10
3519.0
20
-827.0
30
0.0
10
3633.0
20
-1452.0
30
0.0
6
Solid
370
35
62
3
0
ENDSEC
0
SECTION
2
OBJECTS
0
DICTIONARY
5
21cc
330
0
100
AcDbDictionary
281
1
3
ACAD_GROUP
350
21cd
0
DICTIONARY
5
21cd
330
21cc
100
AcDbDictionary
281
1
0
ENDSEC
0
EOF
